<?xml version="1.0" encoding="UTF-8"?>
<svg width="856px" height="310px" viewBox="0 0 856 310" version="1.1" xmlns="http://www.w3.org/2000/svg" xmlns:xlink="http://www.w3.org/1999/xlink">
    <!-- Generator: Sketch 53.1 (72631) - https://sketchapp.com -->
    <title>button-overview</title>
    <desc>Created with Sketch.</desc>
    <g id="Welcome" stroke="none" stroke-width="1" fill="none" fill-rule="evenodd">
        <g id="Buttons" transform="translate(-331.000000, -2451.000000)">
            <g id="button-overview" transform="translate(331.000000, 2451.000000)">
                <rect id="Rectangle" fill="#69E5C3" x="0" y="0" width="210" height="310"></rect>
                <rect id="Rectangle-Copy" fill="#69E5C3" x="646" y="0" width="210" height="310"></rect>
                <rect id="Rectangle-Copy-2" fill="#3AAB8C" x="211" y="0" width="434" height="310"></rect>
                <rect id="Rectangle" fill="#FFFFFF" x="61" y="35" width="89" height="89"></rect>
                <rect id="Rectangle-Copy-3" fill="#FFFFFF" x="61" y="137" width="40" height="132"></rect>
                <rect id="Rectangle-Copy-4" fill="#FFFFFF" x="111" y="137" width="39" height="132"></rect>
                <rect id="Rectangle-Copy-5" fill="#FFFFFF" x="256" y="196" width="344" height="73"></rect>
                <rect id="Rectangle-Copy-7" fill="#FFFFFF" x="256" y="124" width="344" height="44"></rect>
                <rect id="Rectangle-Copy-8" fill="#FFFFFF" x="256" y="74" width="344" height="22"></rect>
                <rect id="Rectangle-Copy-9" fill="#FFFFFF" x="256" y="35" width="344" height="11"></rect>
                <rect id="Rectangle-Copy-6" fill="#FFFFFF" x="707" y="35" width="89" height="89"></rect>
                <rect id="Rectangle-Copy-10" fill="#FFFFFF" x="707" y="137" width="37" height="37"></rect>
                <rect id="Rectangle-Copy-12" fill="#FFFFFF" x="707" y="187" width="24" height="24"></rect>
                <rect id="Rectangle-Copy-15" fill="#FFFFFF" x="707" y="224" width="18" height="18"></rect>
                <rect id="Rectangle-Copy-19" fill="#FFFFFF" x="707" y="255" width="14" height="14"></rect>
                <rect id="Rectangle-Copy-11" fill="#FFFFFF" x="759" y="137" width="37" height="37"></rect>
                <rect id="Rectangle-Copy-13" fill="#FFFFFF" x="739.5" y="187" width="24" height="24"></rect>
                <rect id="Rectangle-Copy-16" fill="#FFFFFF" x="730.666667" y="224" width="18" height="18"></rect>
                <rect id="Rectangle-Copy-20" fill="#FFFFFF" x="726" y="255" width="13" height="14"></rect>
                <rect id="Rectangle-Copy-14" fill="#FFFFFF" x="772" y="187" width="24" height="24"></rect>
                <rect id="Rectangle-Copy-17" fill="#FFFFFF" x="754.333333" y="224" width="18" height="18"></rect>
                <rect id="Rectangle-Copy-21" fill="#FFFFFF" x="744" y="255" width="14" height="14"></rect>
                <rect id="Rectangle-Copy-18" fill="#FFFFFF" x="778" y="224" width="18" height="18"></rect>
                <rect id="Rectangle-Copy-22" fill="#FFFFFF" x="763" y="255" width="14" height="14"></rect>
                <rect id="Rectangle-Copy-23" fill="#FFFFFF" x="782" y="255" width="14" height="14"></rect>
            </g>
        </g>
    </g>
</svg>