<?xml version="1.0" encoding="UTF-8"?>
<svg width="220px" height="120px" viewBox="0 0 220 120" version="1.1" xmlns="http://www.w3.org/2000/svg" xmlns:xlink="http://www.w3.org/1999/xlink">
    <!-- Generator: Sketch 53 (72520) - https://sketchapp.com -->
    <title>buttons-grahic-min</title>
    <desc>Created with Sketch.</desc>
    <g id="Welcome" stroke="none" stroke-width="1" fill="none" fill-rule="evenodd">
        <g id="Buttons" transform="translate(-1201.000000, -1985.000000)">
            <g id="buttons-grahic-min" transform="translate(1201.000000, 1985.000000)">
                <g>
                    <g id="Group">
                        <path d="M0.5,0.5 L0.5,119.5 L219.5,119.5 L219.5,0.5 L0.5,0.5 Z" id="Rectangle-4" stroke="#979797" fill="#FFFFFF"></path>
                        <polygon id="Rectangle-5" fill-opacity="0.8" fill="#000000" points="0 0 220 0 220 12 0 12"></polygon>
                        <rect id="Rectangle-5-Copy" fill="#DA291C" x="0" y="12" width="220" height="48"></rect>
                        <g id="Group-2" transform="translate(178.000000, 22.000000)">
                            <path d="M10.5,0 L21.5,0 C27.2989899,-1.06525716e-15 32,4.70101013 32,10.5 L32,10.5 C32,16.2989899 27.2989899,21 21.5,21 L10.5,21 C4.70101013,21 7.10171439e-16,16.2989899 0,10.5 L0,10.5 C-7.10171439e-16,4.70101013 4.70101013,1.06525716e-15 10.5,0 Z" id="Rectangle-14-Copy-2" fill="#F2A900"></path>
                            <circle id="Oval" fill="#FFFFFF" cx="21.5" cy="10.5" r="9.5"></circle>
                        </g>
                    </g>
                    <ellipse id="Oval-2" fill="#00BBDC" cx="110" cy="60" rx="25" ry="26"></ellipse>
                    <rect id="Rectangle-14" fill="#8DC63F" x="159" y="93" width="50" height="16"></rect>
                </g>
            </g>
        </g>
    </g>
</svg>