<?xml version="1.0" encoding="UTF-8"?>
<svg width="220px" height="306px" viewBox="0 0 220 306" version="1.1" xmlns="http://www.w3.org/2000/svg" xmlns:xlink="http://www.w3.org/1999/xlink">
    <!-- Generator: Sketch 53 (72520) - https://sketchapp.com -->
    <title>buttons-grahic</title>
    <desc>Created with Sketch.</desc>
    <g id="Welcome" stroke="none" stroke-width="1" fill="none" fill-rule="evenodd">
        <g id="Buttons" transform="translate(-970.000000, -186.000000)">
            <g id="buttons-grahic" transform="translate(970.000000, 186.000000)">
                <g id="Group" stroke-width="1">
                    <path d="M0.5,0.5 L0.5,305.5 L219.5,305.5 L219.5,0.5 L0.5,0.5 Z" id="Rectangle-4" stroke="#979797" fill="#FFFFFF"></path>
                    <polygon id="Rectangle-5" fill-opacity="0.8" fill="#000000" points="0 0 220 0 220 12 0 12"></polygon>
                    <rect id="Rectangle-5-Copy-2" fill="#E4E4E4" x="1" y="276" width="218" height="29"></rect>
                    <rect id="Rectangle-5-Copy" fill="#DA291C" x="0" y="12" width="220" height="108"></rect>
                    <g id="Group-2" transform="translate(178.000000, 22.000000)">
                        <path d="M10.5,0 L21.5,0 C27.2989899,-1.06525716e-15 32,4.70101013 32,10.5 L32,10.5 C32,16.2989899 27.2989899,21 21.5,21 L10.5,21 C4.70101013,21 7.10171439e-16,16.2989899 0,10.5 L0,10.5 C-7.10171439e-16,4.70101013 4.70101013,1.06525716e-15 10.5,0 Z" id="Rectangle-14-Copy-2" fill="#F2A900"></path>
                        <circle id="Oval" fill="#FFFFFF" cx="21.5" cy="10.5" r="9.5"></circle>
                    </g>
                </g>
                <ellipse id="Oval-2" fill="#00BBDC" cx="110" cy="111" rx="25" ry="26"></ellipse>
                <rect id="Rectangle-14" fill="#8DC63F" x="119" y="226" width="90" height="31"></rect>
            </g>
        </g>
    </g>
</svg>