<?xml version="1.0" encoding="UTF-8"?>
<svg width="300px" height="220px" viewBox="0 0 300 220" version="1.1" xmlns="http://www.w3.org/2000/svg" xmlns:xlink="http://www.w3.org/1999/xlink">
    <!-- Generator: Sketch 53 (72520) - https://sketchapp.com -->
    <title>button-style-sample</title>
    <desc>Created with Sketch.</desc>
    <defs>
        <rect id="path-1" x="0" y="0" width="84" height="36" rx="2"></rect>
        <filter x="-0.6%" y="-1.4%" width="102.4%" height="105.6%" filterUnits="objectBoundingBox" id="filter-2">
            <feOffset dx="0.5" dy="0.5" in="SourceAlpha" result="shadowOffsetOuter1"></feOffset>
            <feGaussianBlur stdDeviation="0.25" in="shadowOffsetOuter1" result="shadowBlurOuter1"></feGaussianBlur>
            <feColorMatrix values="0 0 0 0 0   0 0 0 0 0   0 0 0 0 0  0 0 0 0.2 0" type="matrix" in="shadowBlurOuter1"></feColorMatrix>
        </filter>
    </defs>
    <g id="Welcome" stroke="none" stroke-width="1" fill="none" fill-rule="evenodd">
        <g id="Buttons" transform="translate(-570.000000, -1311.000000)">
            <g id="Button" transform="translate(331.000000, 1305.000000)">
                <g id="button-style-sample" transform="translate(239.000000, 6.000000)">
                    <g fill-rule="evenodd">
                        <rect id="Rectangle-9-Copy-2" fill="#F4F4F4" x="0" y="0" width="300" height="220"></rect>
                        <g id="button" stroke-width="1" transform="translate(74.000000, 78.000000)">
                            <g id="measurement-copy-4" transform="translate(116.000000, 9.000000)" fill="#BD10E0">
                                <text id="36px-Min-Height" font-family="Verdana" font-size="6" font-weight="normal">
                                    <tspan x="7" y="20">36px Min Height</tspan>
                                </text>
                                <rect id="Rectangle-12" x="2" y="0" width="1" height="36"></rect>
                                <rect id="Rectangle-12-Copy" transform="translate(2.500000, 0.500000) rotate(90.000000) translate(-2.500000, -0.500000) " x="2" y="-2" width="1" height="5"></rect>
                                <rect id="Rectangle-12-Copy-2" transform="translate(2.500000, 35.500000) rotate(90.000000) translate(-2.500000, -35.500000) " x="2" y="33" width="1" height="5"></rect>
                            </g>
                            <g id="flat-button-copy-11" transform="translate(30.000000, 9.000000)">
                                <g id="Rectangle-6">
                                    <use fill="black" fill-opacity="1" filter="url(#filter-2)" xlink:href="#path-1"></use>
                                    <use fill="#5B9500" fill-rule="evenodd" xlink:href="#path-1"></use>
                                </g>
                                <text id="DEFAULT" font-family="Verdana" font-size="12" font-weight="normal" fill="#FFFFFF">
                                    <tspan x="15" y="23">DEFAULT</tspan>
                                </text>
                            </g>
                            <g id="measurement-copy-3">
                                <text id="15" font-family="Verdana" font-size="6" font-weight="normal" fill="#BD10E0">
                                    <tspan x="34" y="36">15</tspan>
                                </text>
                                <text id="15" font-family="Verdana" font-size="6" font-weight="normal" fill="#BD10E0">
                                    <tspan x="18" y="36">15</tspan>
                                </text>
                                <text id="2px-Corner-Radius" font-family="Verdana" font-size="6" font-weight="normal" fill="#BD10E0">
                                    <tspan x="0.388671875" y="6">2px Corner Radius</tspan>
                                </text>
                                <g id="corner-angle" transform="translate(30.000000, 9.000000)">
                                    <path d="M2,0.5 C1.17157288,0.5 0.5,1.17157288 0.5,2 L0.5,8.17157288 C0.5,8.56939761 0.658035261,8.95092848 0.939339828,9.23223305 C1.52512627,9.81801948 2.47487373,9.81801948 3.06066017,9.23223305 L9.23223305,3.06066017 C9.51353761,2.7793556 9.67157288,2.39782473 9.67157288,2 C9.67157288,1.17157288 9,0.5 8.17157288,0.5 L2,0.5 Z" id="Rectangle-7" stroke="#BD10E0" fill="#C4D600"></path>
                                    <path d="M2,1.5 C1.72385763,1.5 1.5,1.72385763 1.5,2 L1.5,11.5857864 C1.5,11.7183947 1.55267842,11.8455716 1.64644661,11.9393398 C1.84170876,12.134602 2.15829124,12.134602 2.35355339,11.9393398 L11.9393398,2.35355339 C12.033108,2.2597852 12.0857864,2.13260824 12.0857864,2 C12.0857864,1.72385763 11.8619288,1.5 11.5857864,1.5 L2,1.5 Z" id="Rectangle-7-Copy" stroke="#5B9500" fill="#5B9500"></path>
                                </g>
                            </g>
                        </g>
                    </g>
                    <path id="Line" d="M105.5,105.5 L119.5,105.5 L119.5,102 L119.5,101.5 L120.5,101.5 L120.5,102 L120.5,110 L120.5,110.5 L119.5,110.5 L119.5,110 L119.5,106.5 L105.5,106.5 L105.5,110 L105.5,110.5 L104.5,110.5 L104.5,110 L104.5,102 L104.5,101.5 L105.5,101.5 L105.5,102 L105.5,105.5 Z" fill="#BD10E0" fill-rule="nonzero"></path>
                    <path id="Line-Copy" d="M89.5,105.5 L103.5,105.5 L103.5,102 L103.5,101.5 L104.5,101.5 L104.5,102 L104.5,110 L104.5,110.5 L103.5,110.5 L103.5,110 L103.5,106.5 L89.5,106.5 L89.5,110 L89.5,110.5 L88.5,110.5 L88.5,110 L88.5,102 L88.5,101.5 L89.5,101.5 L89.5,102 L89.5,105.5 Z" fill="#BD10E0" fill-rule="nonzero"></path>
                </g>
            </g>
        </g>
    </g>
</svg>