<?xml version="1.0" encoding="UTF-8"?>
<svg width="855px" height="310px" viewBox="0 0 855 310" version="1.1" xmlns="http://www.w3.org/2000/svg" xmlns:xlink="http://www.w3.org/1999/xlink">
    <!-- Generator: Sketch 53.2 (72643) - https://sketchapp.com -->
    <title>color-overview</title>
    <desc>Created with Sketch.</desc>
    <g id="Welcome" stroke="none" stroke-width="1" fill="none" fill-rule="evenodd">
        <g id="Assets" transform="translate(-420.000000, -1460.000000)">
            <g id="color-overview" transform="translate(420.000000, 1460.000000)">
                <g id="Group">
                    <rect id="Rectangle" fill="#484166" x="214" y="7.10542736e-15" width="106" height="103"></rect>
                    <rect id="Rectangle-Copy-27" fill="#484166" x="107" y="7.10542736e-15" width="106" height="103"></rect>
                    <rect id="Rectangle-Copy-30" fill="#484166" x="0" y="7.10542736e-15" width="106" height="103"></rect>
                    <rect id="Rectangle-Copy-18" fill="#484166" x="321" y="7.10542736e-15" width="106" height="103"></rect>
                    <rect id="Rectangle-Copy-21" fill="#484166" x="428" y="7.10542736e-15" width="106" height="103"></rect>
                    <rect id="Rectangle-Copy-24" fill="#484166" x="535" y="7.10542736e-15" width="106" height="103"></rect>
                    <rect id="Rectangle-Copy-33" fill="#484166" x="642" y="7.10542736e-15" width="106" height="103"></rect>
                    <rect id="Rectangle-Copy-36" fill="#484166" x="749" y="7.10542736e-15" width="106" height="103"></rect>
                    <rect id="Rectangle-Copy-10" fill="#484166" x="214" y="104" width="106" height="102"></rect>
                    <rect id="Rectangle-Copy-28" fill="#484166" x="107" y="104" width="106" height="102"></rect>
                    <rect id="Rectangle-Copy-31" fill="#484166" x="0" y="104" width="106" height="102"></rect>
                    <rect id="Rectangle-Copy-19" fill="#484166" x="321" y="104" width="106" height="102"></rect>
                    <rect id="Rectangle-Copy-22" fill="#484166" x="428" y="104" width="106" height="102"></rect>
                    <rect id="Rectangle-Copy-25" fill="#484166" x="535" y="104" width="106" height="102"></rect>
                    <rect id="Rectangle-Copy-34" fill="#484166" x="642" y="104" width="106" height="102"></rect>
                    <rect id="Rectangle-Copy-37" fill="#484166" x="749" y="104" width="106" height="102"></rect>
                    <rect id="Rectangle-Copy-17" fill="#484166" x="214" y="207" width="106" height="103"></rect>
                    <rect id="Rectangle-Copy-29" fill="#484166" x="107" y="207" width="106" height="103"></rect>
                    <rect id="Rectangle-Copy-32" fill="#484166" x="0" y="207" width="106" height="103"></rect>
                    <rect id="Rectangle-Copy-20" fill="#484166" x="321" y="207" width="106" height="103"></rect>
                    <rect id="Rectangle-Copy-23" fill="#484166" x="428" y="207" width="106" height="103"></rect>
                    <rect id="Rectangle-Copy-26" fill="#484166" x="535" y="207" width="106" height="103"></rect>
                    <rect id="Rectangle-Copy-35" fill="#484166" x="642" y="207" width="106" height="103"></rect>
                    <rect id="Rectangle-Copy-38" fill="#484166" x="749" y="207" width="106" height="103"></rect>
                    <rect id="Rectangle-Copy-39-Copy" fill="#FFFFFF" fill-rule="nonzero" x="5" y="54" width="64" height="18"></rect>
                    <rect id="Rectangle-Copy-39-Copy-13" fill="#FFFFFF" fill-rule="nonzero" x="433" y="54" width="64" height="18"></rect>
                    <rect id="Rectangle-Copy-39-Copy-7" fill="#FFFFFF" fill-rule="nonzero" x="219" y="54" width="64" height="18"></rect>
                    <rect id="Rectangle-Copy-39-Copy-14" fill="#FFFFFF" fill-rule="nonzero" x="647" y="54" width="64" height="18"></rect>
                    <rect id="Rectangle-Copy-39-Copy-4" fill="#FFFFFF" fill-rule="nonzero" x="112" y="54" width="70" height="18"></rect>
                    <rect id="Rectangle-Copy-39-Copy-15" fill="#FFFFFF" fill-rule="nonzero" x="540" y="54" width="70" height="18"></rect>
                    <rect id="Rectangle-Copy-39-Copy-8" fill="#FFFFFF" fill-rule="nonzero" x="326" y="54" width="43" height="18"></rect>
                    <rect id="Rectangle-Copy-39-Copy-16" fill="#FFFFFF" fill-rule="nonzero" x="754" y="54" width="43" height="18"></rect>
                    <rect id="Rectangle-Copy-39-Copy-2" fill="#FFFFFF" fill-rule="nonzero" x="5" y="159" width="92" height="18"></rect>
                    <rect id="Rectangle-Copy-39-Copy-17" fill="#FFFFFF" fill-rule="nonzero" x="433" y="159" width="92" height="18"></rect>
                    <rect id="Rectangle-Copy-39-Copy-9" fill="#FFFFFF" fill-rule="nonzero" x="219" y="159" width="92" height="18"></rect>
                    <rect id="Rectangle-Copy-39-Copy-18" fill="#FFFFFF" fill-rule="nonzero" x="647" y="159" width="92" height="18"></rect>
                    <rect id="Rectangle-Copy-39-Copy-5" fill="#FFFFFF" fill-rule="nonzero" x="112" y="159" width="75" height="18"></rect>
                    <rect id="Rectangle-Copy-39-Copy-19" fill="#FFFFFF" fill-rule="nonzero" x="540" y="159" width="75" height="18"></rect>
                    <rect id="Rectangle-Copy-39-Copy-10" fill="#FFFFFF" fill-rule="nonzero" x="326" y="159" width="24" height="18"></rect>
                    <rect id="Rectangle-Copy-39-Copy-20" fill="#FFFFFF" fill-rule="nonzero" x="754" y="159" width="24" height="18"></rect>
                    <rect id="Rectangle-Copy-39-Copy-3" fill="#FFFFFF" fill-rule="nonzero" x="5" y="262" width="70" height="18"></rect>
                    <rect id="Rectangle-Copy-39-Copy-21" fill="#FFFFFF" fill-rule="nonzero" x="433" y="262" width="70" height="18"></rect>
                    <rect id="Rectangle-Copy-39-Copy-11" fill="#FFFFFF" fill-rule="nonzero" x="219" y="262" width="70" height="18"></rect>
                    <rect id="Rectangle-Copy-39-Copy-22" fill="#FFFFFF" fill-rule="nonzero" x="647" y="262" width="70" height="18"></rect>
                    <rect id="Rectangle-Copy-39-Copy-6" fill="#FFFFFF" fill-rule="nonzero" x="112" y="262" width="88" height="18"></rect>
                    <rect id="Rectangle-Copy-39-Copy-23" fill="#FFFFFF" fill-rule="nonzero" x="540" y="262" width="88" height="18"></rect>
                    <rect id="Rectangle-Copy-39-Copy-12" fill="#FFFFFF" fill-rule="nonzero" x="326" y="262" width="54" height="18"></rect>
                    <rect id="Rectangle-Copy-39-Copy-24" fill="#FFFFFF" fill-rule="nonzero" x="754" y="262" width="54" height="18"></rect>
                    <rect id="Rectangle-Copy-40-Copy" fill="#FFFFFF" fill-rule="nonzero" x="5" y="78" width="96" height="18"></rect>
                    <rect id="Rectangle-Copy-40-Copy-13" fill="#FFFFFF" fill-rule="nonzero" x="433" y="78" width="96" height="18"></rect>
                    <rect id="Rectangle-Copy-40-Copy-7" fill="#FFFFFF" fill-rule="nonzero" x="219" y="78" width="96" height="18"></rect>
                    <rect id="Rectangle-Copy-40-Copy-14" fill="#FFFFFF" fill-rule="nonzero" x="647" y="78" width="96" height="18"></rect>
                    <rect id="Rectangle-Copy-40-Copy-4" fill="#FFFFFF" fill-rule="nonzero" x="112" y="78" width="38" height="18"></rect>
                    <rect id="Rectangle-Copy-40-Copy-15" fill="#FFFFFF" fill-rule="nonzero" x="540" y="78" width="38" height="18"></rect>
                    <rect id="Rectangle-Copy-40-Copy-8" fill="#FFFFFF" fill-rule="nonzero" x="326" y="78" width="58" height="18"></rect>
                    <rect id="Rectangle-Copy-40-Copy-16" fill="#FFFFFF" fill-rule="nonzero" x="754" y="78" width="58" height="18"></rect>
                    <rect id="Rectangle-Copy-40-Copy-2" fill="#FFFFFF" fill-rule="nonzero" x="5" y="183" width="81" height="18"></rect>
                    <rect id="Rectangle-Copy-40-Copy-17" fill="#FFFFFF" fill-rule="nonzero" x="433" y="183" width="81" height="18"></rect>
                    <rect id="Rectangle-Copy-40-Copy-9" fill="#FFFFFF" fill-rule="nonzero" x="219" y="183" width="81" height="18"></rect>
                    <rect id="Rectangle-Copy-40-Copy-18" fill="#FFFFFF" fill-rule="nonzero" x="647" y="183" width="81" height="18"></rect>
                    <rect id="Rectangle-Copy-40-Copy-5" fill="#FFFFFF" fill-rule="nonzero" x="112" y="183" width="96" height="18"></rect>
                    <rect id="Rectangle-Copy-40-Copy-19" fill="#FFFFFF" fill-rule="nonzero" x="540" y="183" width="96" height="18"></rect>
                    <rect id="Rectangle-Copy-40-Copy-10" fill="#FFFFFF" fill-rule="nonzero" x="326" y="183" width="75" height="18"></rect>
                    <rect id="Rectangle-Copy-40-Copy-20" fill="#FFFFFF" fill-rule="nonzero" x="754" y="183" width="75" height="18"></rect>
                    <rect id="Rectangle-Copy-40-Copy-3" fill="#FFFFFF" fill-rule="nonzero" x="5" y="286" width="88" height="18"></rect>
                    <rect id="Rectangle-Copy-40-Copy-21" fill="#FFFFFF" fill-rule="nonzero" x="433" y="286" width="88" height="18"></rect>
                    <rect id="Rectangle-Copy-40-Copy-11" fill="#FFFFFF" fill-rule="nonzero" x="219" y="286" width="88" height="18"></rect>
                    <rect id="Rectangle-Copy-40-Copy-22" fill="#FFFFFF" fill-rule="nonzero" x="647" y="286" width="88" height="18"></rect>
                    <rect id="Rectangle-Copy-40-Copy-6" fill="#FFFFFF" fill-rule="nonzero" x="112" y="286" width="43" height="18"></rect>
                    <rect id="Rectangle-Copy-40-Copy-23" fill="#FFFFFF" fill-rule="nonzero" x="540" y="286" width="43" height="18"></rect>
                    <rect id="Rectangle-Copy-40-Copy-12" fill="#FFFFFF" fill-rule="nonzero" x="326" y="286" width="67" height="18"></rect>
                    <rect id="Rectangle-Copy-40-Copy-24" fill="#FFFFFF" fill-rule="nonzero" x="754" y="286" width="67" height="18"></rect>
                </g>
            </g>
        </g>
    </g>
</svg>