<?xml version="1.0" encoding="UTF-8"?>
<svg width="856px" height="310px" viewBox="0 0 856 310" version="1.1" xmlns="http://www.w3.org/2000/svg" xmlns:xlink="http://www.w3.org/1999/xlink">
    <!-- Generator: Sketch 56.2 (81672) - https://sketch.com -->
    <title>Group</title>
    <desc>Created with Sketch.</desc>
    <g id="Page-1" stroke="none" stroke-width="1" fill="none" fill-rule="evenodd">
        <g id="Group">
            <rect id="Rectangle" fill="#8CD175" x="0" y="0" width="209" height="310"></rect>
            <rect id="Rectangle" fill="#8CD175" x="647" y="0" width="209" height="310"></rect>
            <rect id="Rectangle" fill="#D8D8D8" x="550" y="270" width="63" height="27"></rect>
            <rect id="Rectangle" fill="#FFFFFF" x="17" y="57" width="48" height="11"></rect>
            <rect id="Rectangle" fill="#FFFFFF" x="17" y="79" width="48" height="11"></rect>
            <rect id="Rectangle" fill="#FFFFFF" x="17" y="101" width="48" height="11"></rect>
            <rect id="Rectangle" fill="#FFFFFF" x="17" y="123" width="48" height="11"></rect>
            <rect id="Rectangle" fill="#FFFFFF" x="17" y="145" width="48" height="11"></rect>
            <rect id="Rectangle" fill="#FFFFFF" x="17" y="167" width="48" height="11"></rect>
            <rect id="Rectangle" fill="#FFFFFF" x="17" y="189" width="48" height="11"></rect>
            <rect id="Rectangle" fill="#FFFFFF" x="17" y="211" width="48" height="11"></rect>
            <rect id="Rectangle" fill="#FFFFFF" x="72" y="57" width="118" height="11"></rect>
            <rect id="Rectangle" fill="#FFFFFF" x="72" y="79" width="118" height="11"></rect>
            <rect id="Rectangle" fill="#FFFFFF" x="72" y="101" width="118" height="11"></rect>
            <rect id="Rectangle" fill="#FFFFFF" x="72" y="123" width="118" height="11"></rect>
            <rect id="Rectangle" fill="#FFFFFF" x="72" y="145" width="118" height="11"></rect>
            <rect id="Rectangle" fill="#FFFFFF" x="72" y="167" width="118" height="11"></rect>
            <rect id="Rectangle" fill="#FFFFFF" x="72" y="189" width="118" height="11"></rect>
            <rect id="Rectangle" fill="#FFFFFF" x="72" y="211" width="118" height="11"></rect>
            <rect id="Rectangle" fill="#41AB76" x="211" y="0" width="434" height="310"></rect>
            <rect id="Rectangle" fill="#FFFFFF" x="263" y="57" width="63" height="11"></rect>
            <rect id="Rectangle" fill="#FFFFFF" x="263" y="79" width="63" height="11"></rect>
            <rect id="Rectangle" fill="#FFFFFF" x="263" y="101" width="63" height="11"></rect>
            <rect id="Rectangle" fill="#FFFFFF" x="263" y="123" width="63" height="11"></rect>
            <rect id="Rectangle" fill="#FFFFFF" x="263" y="145" width="63" height="11"></rect>
            <rect id="Rectangle" fill="#FFFFFF" x="263" y="167" width="63" height="11"></rect>
            <rect id="Rectangle" fill="#FFFFFF" x="263" y="189" width="63" height="11"></rect>
            <rect id="Rectangle" fill="#FFFFFF" x="263" y="211" width="63" height="11"></rect>
            <rect id="Rectangle" fill="#FFFFFF" x="330" y="57" width="101" height="11"></rect>
            <rect id="Rectangle" fill="#FFFFFF" x="330" y="79" width="101" height="11"></rect>
            <rect id="Rectangle" fill="#FFFFFF" x="330" y="101" width="101" height="11"></rect>
            <rect id="Rectangle" fill="#FFFFFF" x="330" y="123" width="101" height="11"></rect>
            <rect id="Rectangle" fill="#FFFFFF" x="330" y="145" width="101" height="11"></rect>
            <rect id="Rectangle" fill="#FFFFFF" x="330" y="167" width="101" height="11"></rect>
            <rect id="Rectangle" fill="#FFFFFF" x="330" y="189" width="101" height="11"></rect>
            <rect id="Rectangle" fill="#FFFFFF" x="330" y="211" width="101" height="11"></rect>
            <rect id="Rectangle" fill="#FFFFFF" x="435" y="57" width="63" height="11"></rect>
            <rect id="Rectangle" fill="#FFFFFF" x="435" y="79" width="63" height="11"></rect>
            <rect id="Rectangle" fill="#FFFFFF" x="435" y="101" width="63" height="11"></rect>
            <rect id="Rectangle" fill="#FFFFFF" x="435" y="123" width="63" height="11"></rect>
            <rect id="Rectangle" fill="#FFFFFF" x="435" y="145" width="63" height="11"></rect>
            <rect id="Rectangle" fill="#FFFFFF" x="435" y="167" width="63" height="11"></rect>
            <rect id="Rectangle" fill="#FFFFFF" x="435" y="189" width="63" height="11"></rect>
            <rect id="Rectangle" fill="#FFFFFF" x="435" y="211" width="63" height="11"></rect>
            <rect id="Rectangle" fill="#FFFFFF" x="502" y="57" width="114" height="11"></rect>
            <rect id="Rectangle" fill="#FFFFFF" x="502" y="79" width="114" height="11"></rect>
            <rect id="Rectangle" fill="#FFFFFF" x="502" y="101" width="114" height="11"></rect>
            <rect id="Rectangle" fill="#FFFFFF" x="502" y="123" width="114" height="11"></rect>
            <rect id="Rectangle" fill="#FFFFFF" x="502" y="145" width="114" height="11"></rect>
            <rect id="Rectangle" fill="#FFFFFF" x="502" y="167" width="114" height="11"></rect>
            <rect id="Rectangle" fill="#FFFFFF" x="502" y="189" width="114" height="11"></rect>
            <rect id="Rectangle" fill="#FFFFFF" x="502" y="211" width="114" height="11"></rect>
            <g id="chevron-left" transform="translate(561.000000, 234.000000)" fill="#E4E4E4">
                <g transform="translate(1.062500, 0.000000)" id="Shape">
                    <polygon points="15.725 2.91666667 12.75 0 -1.88737914e-15 12.5 12.75 25 15.725 22.0833333 5.95 12.5"></polygon>
                </g>
            </g>
            <g id="chevron-left" transform="translate(607.500000, 246.500000) scale(-1, 1) translate(-607.500000, -246.500000) translate(599.000000, 234.000000)" fill="#E4E4E4">
                <g transform="translate(1.062500, 0.000000)" id="Shape">
                    <polygon points="15.725 2.91666667 12.75 0 -1.88737914e-15 12.5 12.75 25 15.725 22.0833333 5.95 12.5"></polygon>
                </g>
            </g>
            <rect id="Rectangle" fill="#FFFFFF" x="240" y="57" width="11" height="11"></rect>
            <rect id="Rectangle" fill="#FFFFFF" x="240" y="79" width="11" height="11"></rect>
            <rect id="Rectangle" fill="#FFFFFF" x="240" y="101" width="11" height="11"></rect>
            <rect id="Rectangle" fill="#FFFFFF" x="240" y="123" width="11" height="11"></rect>
            <rect id="Rectangle" fill="#FFFFFF" x="240" y="145" width="11" height="11"></rect>
            <rect id="Rectangle" fill="#FFFFFF" x="240" y="167" width="11" height="11"></rect>
            <rect id="Rectangle" fill="#FFFFFF" x="240" y="189" width="11" height="11"></rect>
            <rect id="Rectangle" fill="#FFFFFF" x="240" y="211" width="11" height="11"></rect>
            <rect id="Rectangle" fill="#FFFFFF" x="263" y="48" width="63" height="3"></rect>
            <rect id="Rectangle" fill="#FFFFFF" x="330" y="48" width="101" height="3"></rect>
            <rect id="Rectangle" fill="#FFFFFF" x="435" y="48" width="63" height="3"></rect>
            <rect id="Rectangle" fill="#FFFFFF" x="502" y="48" width="114" height="3"></rect>
            <rect id="Rectangle" fill="#FFFFFF" x="665" y="57" width="48" height="11"></rect>
            <rect id="Rectangle" fill="#FFFFFF" x="665" y="79" width="48" height="11"></rect>
            <rect id="Rectangle" fill="#FFFFFF" x="665" y="101" width="48" height="11"></rect>
            <rect id="Rectangle" fill="#FFFFFF" x="665" y="123" width="48" height="11"></rect>
            <rect id="Rectangle" fill="#FFFFFF" x="665" y="145" width="48" height="11"></rect>
            <rect id="Rectangle" fill="#FFFFFF" x="665" y="167" width="48" height="11"></rect>
            <rect id="Rectangle" fill="#FFFFFF" x="665" y="189" width="48" height="11"></rect>
            <rect id="Rectangle" fill="#FFFFFF" x="665" y="211" width="48" height="11"></rect>
            <rect id="Rectangle" fill="#FFFFFF" x="720" y="57" width="118" height="11"></rect>
            <rect id="Rectangle" fill="#FFFFFF" x="720" y="79" width="118" height="11"></rect>
            <rect id="Rectangle" fill="#FFFFFF" x="720" y="101" width="118" height="11"></rect>
            <rect id="Rectangle" fill="#FFFFFF" x="720" y="123" width="118" height="11"></rect>
            <rect id="Rectangle" fill="#FFFFFF" x="720" y="145" width="118" height="11"></rect>
            <rect id="Rectangle" fill="#FFFFFF" x="720" y="167" width="118" height="11"></rect>
            <rect id="Rectangle" fill="#FFFFFF" x="720" y="189" width="118" height="11"></rect>
            <rect id="Rectangle" fill="#FFFFFF" x="720" y="211" width="118" height="11"></rect>
        </g>
    </g>
</svg>