<?xml version="1.0" encoding="UTF-8"?>
<svg width="210px" height="150px" viewBox="0 0 210 150" version="1.1" xmlns="http://www.w3.org/2000/svg" xmlns:xlink="http://www.w3.org/1999/xlink">
    <!-- Generator: Sketch 52.6 (67491) - http://www.bohemiancoding.com/sketch -->
    <title>Group 4</title>
    <desc>Created with Sketch.</desc>
    <defs>
        <linearGradient x1="50%" y1="0%" x2="50%" y2="100%" id="linearGradient-1">
            <stop stop-color="#2D4B64" offset="0%"></stop>
            <stop stop-color="#0A143A" offset="100%"></stop>
        </linearGradient>
        <rect id="path-2" x="0" y="0" width="210" height="150" rx="2"></rect>
        <linearGradient x1="100%" y1="100%" x2="100%" y2="0%" id="linearGradient-4">
            <stop stop-color="#840090" offset="0%"></stop>
            <stop stop-color="#003C5C" offset="100%"></stop>
        </linearGradient>
    </defs>
    <g id="Page-1" stroke="none" stroke-width="1" fill="none" fill-rule="evenodd">
        <g id="Desktop-Copy" transform="translate(-499.000000, -726.000000)">
            <g id="Group-4" transform="translate(499.000000, 726.000000)">
                <g id="Rectangle">
                    <mask id="mask-3" fill="white">
                        <use xlink:href="#path-2"></use>
                    </mask>
                    <use id="Mask" fill="url(#linearGradient-1)" xlink:href="#path-2"></use>
                    <path d="M20.5,151.5 L211.5,151.5 L211.5,19.5 L29,19.5 C24.3055796,19.5 20.5,23.3055796 20.5,28 L20.5,151.5 Z" stroke="url(#linearGradient-4)" fill="#F3F3F3" fill-rule="nonzero" mask="url(#mask-3)"></path>
                    <path d="M29,20 L211,20 L211,33 L21,33 L21,28 C21,23.581722 24.581722,20 29,20 Z" fill="#D8D8D8" fill-rule="nonzero" mask="url(#mask-3)"></path>
                </g>
                <g id="Group-6" transform="translate(34.000000, 54.000000)" fill-rule="nonzero">
                    <rect id="Rectangle" fill="#E6E6E6" x="0" y="0" width="176" height="14"></rect>
                    <rect id="Rectangle" fill="#E6E6E6" x="0" y="25" width="155" height="13"></rect>
                    <rect id="Rectangle" fill="#D8D8D8" x="0" y="54" width="87" height="28" rx="2"></rect>
                </g>
            </g>
        </g>
    </g>
</svg>