<?xml version="1.0" encoding="UTF-8"?>
<svg width="220px" height="103px" viewBox="0 0 220 103" version="1.1" xmlns="http://www.w3.org/2000/svg" xmlns:xlink="http://www.w3.org/1999/xlink">
    <!-- Generator: Sketch 56.3 (81716) - https://sketch.com -->
    <title>data-tables-banner copy</title>
    <desc>Created with Sketch.</desc>
    <g id="Welcome" stroke="none" stroke-width="1" fill="none" fill-rule="evenodd">
        <g id="Assets" transform="translate(-1066.000000, -4052.000000)">
            <g id="data-tables-banner-copy" transform="translate(1066.000000, 4052.000000)">
                <g id="data-tables-preview">
                    <rect id="Rectangle" fill="#8CD175" x="0" y="0" width="69" height="103"></rect>
                    <rect id="Rectangle" fill="#D8D8D8" x="187" y="90" width="22" height="9"></rect>
                    <rect id="Rectangle" fill="#FFFFFF" x="6" y="19" width="16" height="4"></rect>
                    <rect id="Rectangle" fill="#FFFFFF" x="6" y="26" width="16" height="4"></rect>
                    <rect id="Rectangle" fill="#FFFFFF" x="6" y="33" width="16" height="4"></rect>
                    <rect id="Rectangle" fill="#FFFFFF" x="6" y="41" width="16" height="4"></rect>
                    <rect id="Rectangle" fill="#FFFFFF" x="6" y="48" width="16" height="4"></rect>
                    <rect id="Rectangle" fill="#FFFFFF" x="6" y="55" width="16" height="4"></rect>
                    <rect id="Rectangle" fill="#FFFFFF" x="6" y="63" width="16" height="4"></rect>
                    <rect id="Rectangle" fill="#FFFFFF" x="6" y="70" width="16" height="4"></rect>
                    <rect id="Rectangle" fill="#FFFFFF" x="24" y="19" width="39" height="4"></rect>
                    <rect id="Rectangle" fill="#FFFFFF" x="24" y="26" width="39" height="4"></rect>
                    <rect id="Rectangle" fill="#FFFFFF" x="24" y="33" width="39" height="4"></rect>
                    <rect id="Rectangle" fill="#FFFFFF" x="24" y="41" width="39" height="4"></rect>
                    <rect id="Rectangle" fill="#FFFFFF" x="24" y="48" width="39" height="4"></rect>
                    <rect id="Rectangle" fill="#FFFFFF" x="24" y="55" width="39" height="4"></rect>
                    <rect id="Rectangle" fill="#FFFFFF" x="24" y="63" width="39" height="4"></rect>
                    <rect id="Rectangle" fill="#FFFFFF" x="24" y="70" width="39" height="4"></rect>
                    <rect id="Rectangle" fill="#41AB76" x="70" y="0" width="150" height="103"></rect>
                    <rect id="Rectangle" fill="#FFFFFF" x="88" y="19" width="22" height="4"></rect>
                    <rect id="Rectangle" fill="#FFFFFF" x="88" y="26" width="22" height="4"></rect>
                    <rect id="Rectangle" fill="#FFFFFF" x="88" y="33" width="22" height="4"></rect>
                    <rect id="Rectangle" fill="#FFFFFF" x="88" y="41" width="22" height="4"></rect>
                    <rect id="Rectangle" fill="#FFFFFF" x="88" y="48" width="22" height="4"></rect>
                    <rect id="Rectangle" fill="#FFFFFF" x="88" y="55" width="22" height="4"></rect>
                    <rect id="Rectangle" fill="#FFFFFF" x="88" y="63" width="22" height="4"></rect>
                    <rect id="Rectangle" fill="#FFFFFF" x="88" y="70" width="22" height="4"></rect>
                    <rect id="Rectangle" fill="#FFFFFF" x="111" y="19" width="35" height="4"></rect>
                    <rect id="Rectangle" fill="#FFFFFF" x="111" y="26" width="35" height="4"></rect>
                    <rect id="Rectangle" fill="#FFFFFF" x="111" y="33" width="35" height="4"></rect>
                    <rect id="Rectangle" fill="#FFFFFF" x="111" y="41" width="35" height="4"></rect>
                    <rect id="Rectangle" fill="#FFFFFF" x="111" y="48" width="35" height="4"></rect>
                    <rect id="Rectangle" fill="#FFFFFF" x="111" y="55" width="35" height="4"></rect>
                    <rect id="Rectangle" fill="#FFFFFF" x="111" y="63" width="35" height="4"></rect>
                    <rect id="Rectangle" fill="#FFFFFF" x="111" y="70" width="35" height="4"></rect>
                    <rect id="Rectangle" fill="#FFFFFF" x="147" y="19" width="22" height="4"></rect>
                    <rect id="Rectangle" fill="#FFFFFF" x="147" y="26" width="22" height="4"></rect>
                    <rect id="Rectangle" fill="#FFFFFF" x="147" y="33" width="22" height="4"></rect>
                    <rect id="Rectangle" fill="#FFFFFF" x="147" y="41" width="22" height="4"></rect>
                    <rect id="Rectangle" fill="#FFFFFF" x="147" y="48" width="22" height="4"></rect>
                    <rect id="Rectangle" fill="#FFFFFF" x="147" y="55" width="22" height="4"></rect>
                    <rect id="Rectangle" fill="#FFFFFF" x="147" y="63" width="22" height="4"></rect>
                    <rect id="Rectangle" fill="#FFFFFF" x="147" y="70" width="22" height="4"></rect>
                    <rect id="Rectangle" fill="#FFFFFF" x="171" y="19" width="39" height="4"></rect>
                    <rect id="Rectangle" fill="#FFFFFF" x="171" y="26" width="39" height="4"></rect>
                    <rect id="Rectangle" fill="#FFFFFF" x="171" y="33" width="39" height="4"></rect>
                    <rect id="Rectangle" fill="#FFFFFF" x="171" y="41" width="39" height="4"></rect>
                    <rect id="Rectangle" fill="#FFFFFF" x="171" y="48" width="39" height="4"></rect>
                    <rect id="Rectangle" fill="#FFFFFF" x="171" y="55" width="39" height="4"></rect>
                    <rect id="Rectangle" fill="#FFFFFF" x="171" y="63" width="39" height="4"></rect>
                    <rect id="Rectangle" fill="#FFFFFF" x="171" y="70" width="39" height="4"></rect>
                    <g id="chevron-left" transform="translate(191.000000, 78.000000)" fill="#E4E4E4" stroke-width="1">
                        <g transform="translate(0.375000, 0.000000)" id="Shape">
                            <polygon points="5.55 0.933333333 4.5 0 -6.66133815e-16 4 4.5 8 5.55 7.06666667 2.1 4"></polygon>
                        </g>
                    </g>
                    <g id="chevron-left" transform="translate(207.000000, 82.000000) scale(-1, 1) translate(-207.000000, -82.000000) translate(204.000000, 78.000000)" fill="#E4E4E4" stroke-width="1">
                        <g transform="translate(0.375000, 0.000000)" id="Shape">
                            <polygon points="5.55 0.933333333 4.5 0 -6.66133815e-16 4 4.5 8 5.55 7.06666667 2.1 4"></polygon>
                        </g>
                    </g>
                    <rect id="Rectangle" fill="#FFFFFF" x="80" y="19" width="4" height="4"></rect>
                    <rect id="Rectangle" fill="#FFFFFF" x="80" y="26" width="4" height="4"></rect>
                    <rect id="Rectangle" fill="#FFFFFF" x="80" y="33" width="4" height="4"></rect>
                    <rect id="Rectangle" fill="#FFFFFF" x="80" y="41" width="4" height="4"></rect>
                    <rect id="Rectangle" fill="#FFFFFF" x="80" y="48" width="4" height="4"></rect>
                    <rect id="Rectangle" fill="#FFFFFF" x="80" y="55" width="4" height="4"></rect>
                    <rect id="Rectangle" fill="#FFFFFF" x="80" y="63" width="4" height="4"></rect>
                    <rect id="Rectangle" fill="#FFFFFF" x="80" y="70" width="4" height="4"></rect>
                    <rect id="Rectangle" fill="#FFFFFF" x="88" y="16" width="22" height="1"></rect>
                    <rect id="Rectangle" fill="#FFFFFF" x="111" y="16" width="35" height="1"></rect>
                    <rect id="Rectangle" fill="#FFFFFF" x="147" y="16" width="22" height="1"></rect>
                    <rect id="Rectangle" fill="#FFFFFF" x="171" y="16" width="39" height="1"></rect>
                </g>
            </g>
        </g>
    </g>
</svg>