<?xml version="1.0" encoding="UTF-8"?>
<svg width="1189px" height="465px" viewBox="0 0 1189 465" version="1.1" xmlns="http://www.w3.org/2000/svg" xmlns:xlink="http://www.w3.org/1999/xlink">
    <!-- Generator: Sketch 56.3 (81716) - https://sketch.com -->
    <title>Group</title>
    <desc>Created with Sketch.</desc>
    <g id="Page-1" stroke="none" stroke-width="1" fill="none" fill-rule="evenodd">
        <g id="Artboard" transform="translate(-34.000000, -82.000000)">
            <g id="Group" transform="translate(34.000000, 82.000000)">
                <g id="Group-2">
                    <g id="data-tables-anatomy">
                        <polygon id="Rectangle-7" fill="#F4F4F4" fill-rule="evenodd" points="10 99 1177 99 1177 132 10 132"></polygon>
                        <path d="M12,99 L1177,99" id="Line" stroke="#E0E0E0" stroke-width="1" stroke-linecap="square"></path>
                        <path d="M12,131.672239 L1177,131.672239" id="Line" stroke="#E0E0E0" stroke-width="1" stroke-linecap="square"></path>
                        <path d="M10,65.6547085 L1177,65.6547085" id="Line" stroke="#E0E0E0" stroke-width="1" stroke-linecap="square"></path>
                        <polygon id="Rectangle-7" fill="#F4F4F4" fill-rule="evenodd" points="10 166 1177 166 1177 199 10 199"></polygon>
                        <path d="M10,166.672239 L1177,166.327761" id="Line" stroke="#E0E0E0" stroke-width="1" stroke-linecap="square"></path>
                        <path d="M10,198.672239 L1177,198.327761" id="Line" stroke="#E0E0E0" stroke-width="1" stroke-linecap="square"></path>
                        <polygon id="Rectangle-7" fill="#F4F4F4" fill-rule="evenodd" points="10 231 1177 231 1177 264 10 264"></polygon>
                        <path d="M10,231.672239 L1177,231.327761" id="Line" stroke="#E0E0E0" stroke-width="1" stroke-linecap="square"></path>
                        <path d="M10,263.672239 L1177,263.327761" id="Line" stroke="#E0E0E0" stroke-width="1" stroke-linecap="square"></path>
                        <polygon id="Rectangle-7" fill="#F4F4F4" fill-rule="evenodd" points="10 296 1177 296 1177 329 10 329"></polygon>
                        <path d="M10,296.672239 L1177,296.327761" id="Line" stroke="#E0E0E0" stroke-width="1" stroke-linecap="square"></path>
                        <path d="M10,328.672239 L1177,328.327761" id="Line" stroke="#E0E0E0" stroke-width="1" stroke-linecap="square"></path>
                        <polygon id="Rectangle-7" fill="#F4F4F4" fill-rule="evenodd" points="10 362 1177 362 1177 395 10 395"></polygon>
                        <path d="M10,361.672239 L1177,361.672239" id="Line" stroke="#E0E0E0" stroke-width="1" stroke-linecap="square"></path>
                        <path d="M10,393.672239 L1177,393.672239" id="Line" stroke="#E0E0E0" stroke-width="1" stroke-linecap="square"></path>
                        <path d="M10,132.109375 L730,132.109375" id="Line-Copy" stroke="#E0E0E0" stroke-width="1" stroke-linecap="square"></path>
                        <text id="Q100332378" font-family="Verdana" font-size="12" font-weight="normal" fill="#008BAA">
                            <tspan x="62" y="87">Q100332378</tspan>
                        </text>
                        <text id="Q100332777" font-family="Verdana" font-size="12" font-weight="normal" fill="#008BAA">
                            <tspan x="62" y="120">Q100332777</tspan>
                        </text>
                        <text id="Quote-#" font-family="Verdana-Bold, Verdana" font-size="14" font-weight="bold" fill="#2C2C2C">
                            <tspan x="62" y="54">Quote #</tspan>
                        </text>
                        <text id="Q100332777" font-family="Verdana" font-size="12" font-weight="normal" fill="#008BAA">
                            <tspan x="62" y="154">Q100332777</tspan>
                        </text>
                        <text id="Q100332777" font-family="Verdana" font-size="12" font-weight="normal" fill="#008BAA">
                            <tspan x="62" y="186">Q100332777</tspan>
                        </text>
                        <text id="Q100332777" font-family="Verdana" font-size="12" font-weight="normal" fill="#008BAA">
                            <tspan x="62" y="220">Q100332777</tspan>
                        </text>
                        <text id="Q100332777" font-family="Verdana" font-size="12" font-weight="normal" fill="#008BAA">
                            <tspan x="62" y="252">Q100332777</tspan>
                        </text>
                        <text id="Q100332777" font-family="Verdana" font-size="12" font-weight="normal" fill="#008BAA">
                            <tspan x="62" y="284">Q100332777</tspan>
                        </text>
                        <text id="Q100332777" font-family="Verdana" font-size="12" font-weight="normal" fill="#008BAA">
                            <tspan x="62" y="317">Q100332777</tspan>
                        </text>
                        <text id="Q100332777" font-family="Verdana" font-size="12" font-weight="normal" fill="#008BAA">
                            <tspan x="62" y="350">Q100332777</tspan>
                        </text>
                        <text id="Q100332777" font-family="Verdana" font-size="12" font-weight="normal" fill="#008BAA">
                            <tspan x="62" y="382">Q100332777</tspan>
                        </text>
                        <text id="Q100332777" font-family="Verdana" font-size="12" font-weight="normal" fill="#008BAA">
                            <tspan x="62" y="415">Q100332777</tspan>
                        </text>
                        <text id="4/22/2019" font-family="Verdana" font-size="12" font-weight="normal" line-spacing="13" fill="#2C2C2C">
                            <tspan x="245" y="87">4/22/2019</tspan>
                        </text>
                        <text id="5/22/2019" font-family="Verdana" font-size="12" font-weight="normal" line-spacing="13" fill="#2C2C2C">
                            <tspan x="245" y="121">5/22/2019</tspan>
                        </text>
                        <text id="Date-Quoted" font-family="Verdana-Bold, Verdana" font-size="14" font-weight="bold" fill="#2C2C2C">
                            <tspan x="245" y="54">Date Quoted</tspan>
                        </text>
                        <text id="5/22/2019" font-family="Verdana" font-size="12" font-weight="normal" line-spacing="13" fill="#2C2C2C">
                            <tspan x="245" y="155">5/22/2019</tspan>
                        </text>
                        <text id="5/22/2019" font-family="Verdana" font-size="12" font-weight="normal" line-spacing="13" fill="#2C2C2C">
                            <tspan x="245" y="187">5/22/2019</tspan>
                        </text>
                        <text id="5/22/2019" font-family="Verdana" font-size="12" font-weight="normal" line-spacing="13" fill="#2C2C2C">
                            <tspan x="245" y="221">5/22/2019</tspan>
                        </text>
                        <text id="5/22/2019" font-family="Verdana" font-size="12" font-weight="normal" line-spacing="13" fill="#2C2C2C">
                            <tspan x="245" y="253">5/22/2019</tspan>
                        </text>
                        <text id="5/22/2019" font-family="Verdana" font-size="12" font-weight="normal" line-spacing="13" fill="#2C2C2C">
                            <tspan x="245" y="285">5/22/2019</tspan>
                        </text>
                        <text id="5/22/2019" font-family="Verdana" font-size="12" font-weight="normal" line-spacing="13" fill="#2C2C2C">
                            <tspan x="245" y="318">5/22/2019</tspan>
                        </text>
                        <text id="5/22/2019" font-family="Verdana" font-size="12" font-weight="normal" line-spacing="13" fill="#2C2C2C">
                            <tspan x="245" y="351">5/22/2019</tspan>
                        </text>
                        <text id="5/22/2019" font-family="Verdana" font-size="12" font-weight="normal" line-spacing="13" fill="#2C2C2C">
                            <tspan x="245" y="383">5/22/2019</tspan>
                        </text>
                        <text id="5/22/2019" font-family="Verdana" font-size="12" font-weight="normal" line-spacing="13" fill="#2C2C2C">
                            <tspan x="245" y="416">5/22/2019</tspan>
                        </text>
                        <text id="Shari-North" font-family="Verdana" font-size="12" font-weight="normal" line-spacing="13" fill="#2C2C2C">
                            <tspan x="448" y="87">Shari North</tspan>
                        </text>
                        <text id="Shari-North" font-family="Verdana" font-size="12" font-weight="normal" line-spacing="13" fill="#2C2C2C">
                            <tspan x="448" y="121">Shari North</tspan>
                        </text>
                        <text id="Shari-North" font-family="Verdana" font-size="12" font-weight="normal" line-spacing="13" fill="#2C2C2C">
                            <tspan x="448" y="155">Shari North</tspan>
                        </text>
                        <text id="Shari-North" font-family="Verdana" font-size="12" font-weight="normal" line-spacing="13" fill="#2C2C2C">
                            <tspan x="448" y="189">Shari North</tspan>
                        </text>
                        <text id="Shari-North" font-family="Verdana" font-size="12" font-weight="normal" line-spacing="13" fill="#2C2C2C">
                            <tspan x="448" y="222">Shari North</tspan>
                        </text>
                        <text id="Shari-North" font-family="Verdana" font-size="12" font-weight="normal" line-spacing="13" fill="#2C2C2C">
                            <tspan x="448" y="254">Shari North</tspan>
                        </text>
                        <text id="Shari-North" font-family="Verdana" font-size="12" font-weight="normal" line-spacing="13" fill="#2C2C2C">
                            <tspan x="448" y="286">Shari North</tspan>
                        </text>
                        <text id="Shari-North" font-family="Verdana" font-size="12" font-weight="normal" line-spacing="13" fill="#2C2C2C">
                            <tspan x="448" y="318">Shari North</tspan>
                        </text>
                        <text id="Shari-North" font-family="Verdana" font-size="12" font-weight="normal" line-spacing="13" fill="#2C2C2C">
                            <tspan x="448" y="351">Shari North</tspan>
                        </text>
                        <text id="Shari-North" font-family="Verdana" font-size="12" font-weight="normal" line-spacing="13" fill="#2C2C2C">
                            <tspan x="448" y="384">Shari North</tspan>
                        </text>
                        <text id="Shari-North" font-family="Verdana" font-size="12" font-weight="normal" line-spacing="13" fill="#2C2C2C">
                            <tspan x="448" y="416">Shari North</tspan>
                        </text>
                        <text id="Requested-By" font-family="Verdana-Bold, Verdana" font-size="14" font-weight="bold" fill="#2C2C2C">
                            <tspan x="448" y="54">Requested By</tspan>
                        </text>
                        <text id="Laura-Barnes" font-family="Verdana" font-size="12" font-weight="normal" line-spacing="13" fill="#2C2C2C">
                            <tspan x="665" y="87">Laura Barnes</tspan>
                        </text>
                        <text id="Laura-Barnes" font-family="Verdana" font-size="12" font-weight="normal" line-spacing="13" fill="#2C2C2C">
                            <tspan x="665" y="121">Laura Barnes</tspan>
                        </text>
                        <text id="Laura-Barnes" font-family="Verdana" font-size="12" font-weight="normal" line-spacing="13" fill="#2C2C2C">
                            <tspan x="665" y="155">Laura Barnes</tspan>
                        </text>
                        <text id="Laura-Barnes" font-family="Verdana" font-size="12" font-weight="normal" line-spacing="13" fill="#2C2C2C">
                            <tspan x="665" y="188">Laura Barnes</tspan>
                        </text>
                        <text id="Laura-Barnes" font-family="Verdana" font-size="12" font-weight="normal" line-spacing="13" fill="#2C2C2C">
                            <tspan x="665" y="221">Laura Barnes</tspan>
                        </text>
                        <text id="Laura-Barnes" font-family="Verdana" font-size="12" font-weight="normal" line-spacing="13" fill="#2C2C2C">
                            <tspan x="665" y="253">Laura Barnes</tspan>
                        </text>
                        <text id="Laura-Barnes" font-family="Verdana" font-size="12" font-weight="normal" line-spacing="13" fill="#2C2C2C">
                            <tspan x="665" y="287">Laura Barnes</tspan>
                        </text>
                        <text id="Laura-Barnes" font-family="Verdana" font-size="12" font-weight="normal" line-spacing="13" fill="#2C2C2C">
                            <tspan x="665" y="319">Laura Barnes</tspan>
                        </text>
                        <text id="Laura-Barnes" font-family="Verdana" font-size="12" font-weight="normal" line-spacing="13" fill="#2C2C2C">
                            <tspan x="665" y="351">Laura Barnes</tspan>
                        </text>
                        <text id="Laura-Barnes" font-family="Verdana" font-size="12" font-weight="normal" line-spacing="13" fill="#2C2C2C">
                            <tspan x="665" y="384">Laura Barnes</tspan>
                        </text>
                        <text id="Laura-Barnes" font-family="Verdana" font-size="12" font-weight="normal" line-spacing="13" fill="#2C2C2C">
                            <tspan x="665" y="417">Laura Barnes</tspan>
                        </text>
                        <text id="Prepared-By" font-family="Verdana-Bold, Verdana" font-size="14" font-weight="bold" fill="#2C2C2C">
                            <tspan x="665" y="54">Prepared By</tspan>
                        </text>
                        <text id="10" font-family="Verdana" font-size="12" font-weight="normal" line-spacing="13" fill="#2C2C2C">
                            <tspan x="895" y="87">10</tspan>
                        </text>
                        <text id="7" font-family="Verdana" font-size="12" font-weight="normal" line-spacing="13" fill="#2C2C2C">
                            <tspan x="899" y="121">7</tspan>
                        </text>
                        <text id="5" font-family="Verdana" font-size="12" font-weight="normal" line-spacing="13" fill="#2C2C2C">
                            <tspan x="899" y="155">5</tspan>
                        </text>
                        <text id="79" font-family="Verdana" font-size="12" font-weight="normal" line-spacing="13" fill="#2C2C2C">
                            <tspan x="895" y="187">79</tspan>
                        </text>
                        <text id="42" font-family="Verdana" font-size="12" font-weight="normal" line-spacing="13" fill="#2C2C2C">
                            <tspan x="895" y="221">42</tspan>
                        </text>
                        <text id="5" font-family="Verdana" font-size="12" font-weight="normal" line-spacing="13" fill="#2C2C2C">
                            <tspan x="899" y="254">5</tspan>
                        </text>
                        <text id="48" font-family="Verdana" font-size="12" font-weight="normal" line-spacing="13" fill="#2C2C2C">
                            <tspan x="895" y="287">48</tspan>
                        </text>
                        <text id="58" font-family="Verdana" font-size="12" font-weight="normal" line-spacing="13" fill="#2C2C2C">
                            <tspan x="895" y="319">58</tspan>
                        </text>
                        <text id="61" font-family="Verdana" font-size="12" font-weight="normal" line-spacing="13" fill="#2C2C2C">
                            <tspan x="895" y="351">61</tspan>
                        </text>
                        <text id="24" font-family="Verdana" font-size="12" font-weight="normal" line-spacing="13" fill="#2C2C2C">
                            <tspan x="895" y="384">24</tspan>
                        </text>
                        <text id="32" font-family="Verdana" font-size="12" font-weight="normal" line-spacing="13" fill="#2C2C2C">
                            <tspan x="895" y="417">32</tspan>
                        </text>
                        <text id="Lines" font-family="Verdana-Bold, Verdana" font-size="14" font-weight="bold" fill="#2C2C2C">
                            <tspan x="882" y="54">Lines</tspan>
                        </text>
                        <text id="$1,456.87" font-family="Verdana" font-size="12" font-weight="normal" line-spacing="13" fill="#2C2C2C">
                            <tspan x="1057" y="87">$1,456.87</tspan>
                        </text>
                        <text id="$72,414.53" font-family="Verdana" font-size="12" font-weight="normal" line-spacing="13" fill="#2C2C2C">
                            <tspan x="1050" y="121">$72,414.53</tspan>
                        </text>
                        <text id="$603.66" font-family="Verdana" font-size="12" font-weight="normal" line-spacing="13" fill="#2C2C2C">
                            <tspan x="1069" y="155">$603.66</tspan>
                        </text>
                        <text id="$245.54" font-family="Verdana" font-size="12" font-weight="normal" line-spacing="13" fill="#2C2C2C">
                            <tspan x="1069" y="188">$245.54</tspan>
                        </text>
                        <text id="$581.67" font-family="Verdana" font-size="12" font-weight="normal" line-spacing="13" fill="#2C2C2C">
                            <tspan x="1069" y="221">$581.67</tspan>
                        </text>
                        <text id="$526.03" font-family="Verdana" font-size="12" font-weight="normal" line-spacing="13" fill="#2C2C2C">
                            <tspan x="1069" y="254">$526.03</tspan>
                        </text>
                        <text id="$963.15" font-family="Verdana" font-size="12" font-weight="normal" line-spacing="13" fill="#2C2C2C">
                            <tspan x="1069" y="290">$963.15</tspan>
                        </text>
                        <text id="$346.59" font-family="Verdana" font-size="12" font-weight="normal" line-spacing="13" fill="#2C2C2C">
                            <tspan x="1069" y="318">$346.59</tspan>
                        </text>
                        <text id="$813.49" font-family="Verdana" font-size="12" font-weight="normal" line-spacing="13" fill="#2C2C2C">
                            <tspan x="1069" y="350">$813.49</tspan>
                        </text>
                        <text id="$947.1" font-family="Verdana" font-size="12" font-weight="normal" line-spacing="13" fill="#2C2C2C">
                            <tspan x="1077" y="384">$947.1</tspan>
                        </text>
                        <text id="$285.48" font-family="Verdana" font-size="12" font-weight="normal" line-spacing="13" fill="#2C2C2C">
                            <tspan x="1069" y="417">$285.48</tspan>
                        </text>
                        <text id="Total-(USD)" font-family="Verdana-Bold, Verdana" font-size="14" font-weight="bold" fill="#2C2C2C">
                            <tspan x="1028" y="54">Total (USD)</tspan>
                        </text>
                        <circle id="Oval" fill="#00BCDC" fill-rule="evenodd" cx="1022.5" cy="454.597656" r="10"></circle>
                        <g id="1-2-3-4-5" stroke-width="1" fill-rule="evenodd" transform="translate(1020.197471, 448.957031)">
                            <path d="M5.50976562,10.390625 L0,10.390625 L0,9.3515625 L2.11914062,9.3515625 L2.11914062,2.52929688 L0,2.52929688 L0,1.59960938 C0.287110811,1.59960938 0.594724922,1.57568383 0.922851562,1.52783203 C1.2509782,1.47998023 1.49934812,1.41048223 1.66796875,1.31933594 C1.87760521,1.20540308 2.04280539,1.06071051 2.16357422,0.885253906 C2.28434305,0.7097973 2.35384105,0.473959814 2.37207031,0.177734375 L3.43164062,0.177734375 L3.43164062,9.3515625 L5.50976562,9.3515625 L5.50976562,10.390625 Z" id="1" fill="#FFFFFF" fill-rule="nonzero"></path>
                            <path d="M29.3416269,10.390625 L22.4510019,10.390625 L22.4510019,8.96191406 C22.92952,8.55175576 23.4091701,8.14160361 23.8899668,7.73144531 C24.3707635,7.32128701 24.8185129,6.91341349 25.2332285,6.5078125 C26.1082329,5.66015201 26.7075107,4.9868189 27.0310801,4.48779297 C27.3546494,3.98876704 27.5164316,3.44987269 27.5164316,2.87109375 C27.5164316,2.34244527 27.342117,1.92887519 26.9934824,1.63037109 C26.6448479,1.331867 26.1583618,1.18261719 25.5340098,1.18261719 C25.1192941,1.18261719 24.6704054,1.25553312 24.1873301,1.40136719 C23.7042547,1.54720125 23.2325798,1.77050631 22.772291,2.07128906 L22.7039316,2.07128906 L22.7039316,0.635742188 C23.027501,0.476236182 23.4593,0.330404307 23.9993418,0.198242188 C24.5393835,0.0660800684 25.0623275,0 25.5681894,0 C26.6118144,0 27.4298401,0.251787847 28.022291,0.755371094 C28.6147419,1.25895434 28.9109629,1.94140194 28.9109629,2.80273438 C28.9109629,3.1901061 28.8619725,3.55126786 28.7639902,3.88623047 C28.666008,4.22119308 28.5213154,4.539061 28.3299082,4.83984375 C28.1521729,5.12239725 27.9436789,5.40038926 27.7044199,5.67382812 C27.4651609,5.94726699 27.1746365,6.25032386 26.8328379,6.58300781 C26.3452052,7.06152583 25.8416295,7.52522562 25.3220957,7.97412109 C24.8025618,8.42301657 24.3172151,8.83886527 23.866041,9.22167969 L29.3416269,9.22167969 L29.3416269,10.390625 Z M51.6969258,5.48925781 C51.9156768,5.68522233 52.0956881,5.93131362 52.2369648,6.22753906 C52.3782416,6.5237645 52.4488789,6.90657317 52.4488789,7.37597656 C52.4488789,7.84082264 52.3645698,8.26692515 52.1959492,8.65429688 C52.0273286,9.0416686 51.7903518,9.37890481 51.4850117,9.66601562 C51.1432131,9.98502764 50.7410361,10.2208651 50.2784687,10.3735352 C49.8159013,10.5262052 49.3089077,10.6025391 48.7574726,10.6025391 C48.1923656,10.6025391 47.6363816,10.5353197 47.0895039,10.4008789 C46.5426261,10.2664381 46.0937374,10.1194669 45.7428242,9.95996094 L45.7428242,8.53125 L45.8453633,8.53125 C46.232735,8.78645961 46.6884596,8.99837155 47.2125508,9.16699219 C47.7366419,9.33561282 48.2424962,9.41992188 48.7301289,9.41992188 C49.0172397,9.41992188 49.3225752,9.37207079 49.6461445,9.27636719 C49.9697138,9.18066358 50.2317555,9.03938896 50.4322773,8.85253906 C50.6419138,8.65201723 50.7979995,8.43099079 50.900539,8.18945312 C51.0030786,7.94791546 51.0543476,7.64257997 51.0543476,7.2734375 C51.0543476,6.90885234 50.9962427,6.60693479 50.8800312,6.36767578 C50.7638197,6.12841677 50.6031768,5.94043037 50.3980976,5.80371094 C50.1930185,5.66243419 49.9446486,5.56559271 49.6529804,5.51318359 C49.3613123,5.46077448 49.0468623,5.43457031 48.7096211,5.43457031 L48.0943867,5.43457031 L48.0943867,4.29980469 L48.5729023,4.29980469 C49.2656141,4.29980469 49.8181802,4.15511212 50.2306172,3.86572266 C50.6430541,3.57633319 50.8492695,3.15364861 50.8492695,2.59765625 C50.8492695,2.35156127 50.7968612,2.13623139 50.6920429,1.95166016 C50.5872247,1.76708892 50.4413928,1.61556049 50.2545429,1.49707031 C50.0585784,1.37858014 49.8489451,1.29654971 49.6256367,1.25097656 C49.4023283,1.20540342 49.1494011,1.18261719 48.8668476,1.18261719 C48.4339028,1.18261719 47.9736209,1.26009037 47.4859883,1.41503906 C46.9983556,1.56998775 46.5380737,1.78873557 46.1051289,2.07128906 L46.0367695,2.07128906 L46.0367695,0.642578125 C46.3603388,0.483072119 46.7921379,0.336100933 47.3321797,0.201660156 C47.8722214,0.0672193799 48.3951654,0 48.9010273,0 C49.3977746,0 49.8352702,0.0455724609 50.2135273,0.13671875 C50.5917844,0.227865039 50.9335779,0.373696914 51.2389179,0.57421875 C51.5670446,0.792969844 51.8154145,1.05729012 51.9840351,1.3671875 C52.1526558,1.67708488 52.2369648,2.03938595 52.2369648,2.45410156 C52.2369648,3.01920855 52.0375853,3.51253044 51.6388203,3.93408203 C51.2400553,4.35563362 50.7695196,4.6210932 50.2271992,4.73046875 L50.2271992,4.82617188 C50.4459503,4.86263039 50.6965988,4.93896426 50.9791523,5.05517578 C51.2617058,5.1713873 51.5009612,5.31607986 51.6969258,5.48925781 Z M76.0756621,7.52636719 L74.5649199,7.52636719 L74.5649199,10.390625 L73.2524199,10.390625 L73.2524199,7.52636719 L68.3783964,7.52636719 L68.3783964,5.95410156 L73.3071074,0.211914062 L74.5649199,0.211914062 L74.5649199,6.43261719 L76.0756621,6.43261719 L76.0756621,7.52636719 Z M73.2524199,6.43261719 L73.2524199,1.83886719 L69.3080839,6.43261719 L73.2524199,6.43261719 Z M99.0120156,7.15722656 C99.0120156,7.63118727 98.9254279,8.08463325 98.7522499,8.51757812 C98.579072,8.950523 98.3420952,9.31510269 98.0413124,9.61132812 C97.7131858,9.93034014 97.3224019,10.1752921 96.8689492,10.3461914 C96.4154964,10.5170907 95.8902738,10.6025391 95.2932656,10.6025391 C94.7372732,10.6025391 94.2017968,10.5444342 93.6868203,10.4282227 C93.1718437,10.3120111 92.7366267,10.1718758 92.3811562,10.0078125 L92.3811562,8.56542969 L92.4768593,8.56542969 C92.8505591,8.80241004 93.2880547,9.00406818 93.7893593,9.17041016 C94.2906639,9.33675213 94.7828465,9.41992188 95.2659218,9.41992188 C95.5894911,9.41992188 95.9028018,9.37434941 96.2058632,9.28320312 C96.5089246,9.19205684 96.7789415,9.03255322 97.0159218,8.8046875 C97.2164436,8.60872298 97.3679721,8.3740248 97.4705117,8.10058594 C97.5730512,7.82714707 97.6243203,7.51041847 97.6243203,7.15039062 C97.6243203,6.79947741 97.5639367,6.50325642 97.4431679,6.26171875 C97.3223991,6.02018108 97.1549203,5.82649813 96.9407265,5.68066406 C96.7037461,5.50748611 96.4155003,5.38557978 96.0759804,5.31494141 C95.7364605,5.24430303 95.3570697,5.20898438 94.9377968,5.20898438 C94.5367531,5.20898438 94.1505265,5.23632785 93.7791054,5.29101562 C93.4076843,5.3457034 93.0875377,5.40039035 92.8186562,5.45507812 L92.8186562,0.211914062 L98.9436562,0.211914062 L98.9436562,1.40820312 L94.1379921,1.40820312 L94.1379921,4.11523438 C94.3339566,4.09700512 94.5344755,4.08333338 94.7395546,4.07421875 C94.9446338,4.06510412 95.1223664,4.06054688 95.2727578,4.06054688 C95.8241928,4.06054688 96.3072609,4.10725865 96.7219765,4.20068359 C97.1366921,4.29410854 97.5172222,4.45930871 97.8635781,4.69628906 C98.2281632,4.94694136 98.5107125,5.27050583 98.7112343,5.66699219 C98.9117561,6.06347854 99.0120156,6.56021837 99.0120156,7.15722656 Z" id="2345" fill="#2C2C2C" fill-rule="nonzero"></path>
                        </g>
                        <polygon id="Shape" fill="#008BAA" fill-rule="evenodd" points="1172.4 449 1171 450.4 1175.6 455 1171 459.6 1172.4 461 1178.4 455"></polygon>
                        <path d="M1142.13281,459 L1140.45801,459 L1135.63184,449.894531 L1135.63184,459 L1134.36719,459 L1134.36719,448.821289 L1136.46582,448.821289 L1140.86816,457.133789 L1140.86816,448.821289 L1142.13281,448.821289 L1142.13281,459 Z M1151.12891,455.31543 L1145.50293,455.31543 C1145.50293,455.784833 1145.57357,456.193846 1145.71484,456.54248 C1145.85612,456.891115 1146.0498,457.177082 1146.2959,457.400391 C1146.53288,457.619142 1146.81429,457.783203 1147.14014,457.892578 C1147.46598,458.001954 1147.82487,458.056641 1148.2168,458.056641 C1148.73633,458.056641 1149.25927,457.952963 1149.78564,457.745605 C1150.31201,457.538248 1150.68685,457.334311 1150.91016,457.133789 L1150.97852,457.133789 L1150.97852,458.535156 C1150.54557,458.717449 1150.10352,458.870117 1149.65234,458.993164 C1149.20117,459.116212 1148.72722,459.177734 1148.23047,459.177734 C1146.96354,459.177734 1145.97461,458.834802 1145.26367,458.148926 C1144.55273,457.46305 1144.19727,456.488939 1144.19727,455.226562 C1144.19727,453.977858 1144.53792,452.986657 1145.21924,452.25293 C1145.90056,451.519202 1146.79719,451.152344 1147.90918,451.152344 C1148.93913,451.152344 1149.73323,451.453122 1150.2915,452.054688 C1150.84977,452.656253 1151.12891,453.510737 1151.12891,454.618164 L1151.12891,455.31543 Z M1149.87793,454.331055 C1149.87337,453.656572 1149.70361,453.134767 1149.36865,452.765625 C1149.03369,452.396483 1148.52442,452.211914 1147.84082,452.211914 C1147.15267,452.211914 1146.60466,452.414712 1146.19678,452.820312 C1145.7889,453.225913 1145.55762,453.729489 1145.50293,454.331055 L1149.87793,454.331055 Z M1159.6875,459 L1158.06738,459 L1155.90039,456.067383 L1153.71973,459 L1152.22266,459 L1155.20312,455.192383 L1152.25,451.364258 L1153.87012,451.364258 L1156.02344,454.249023 L1158.18359,451.364258 L1159.6875,451.364258 L1156.68652,455.124023 L1159.6875,459 Z M1165.32715,458.931641 C1165.08561,458.995443 1164.82243,459.047851 1164.5376,459.088867 C1164.25277,459.129883 1163.9987,459.150391 1163.77539,459.150391 C1162.99609,459.150391 1162.40365,458.940757 1161.99805,458.521484 C1161.59245,458.102211 1161.38965,457.430018 1161.38965,456.504883 L1161.38965,452.444336 L1160.52148,452.444336 L1160.52148,451.364258 L1161.38965,451.364258 L1161.38965,449.169922 L1162.6748,449.169922 L1162.6748,451.364258 L1165.32715,451.364258 L1165.32715,452.444336 L1162.6748,452.444336 L1162.6748,455.923828 C1162.6748,456.324872 1162.68392,456.638182 1162.70215,456.86377 C1162.72038,457.089357 1162.78418,457.300129 1162.89355,457.496094 C1162.99382,457.678386 1163.13167,457.811686 1163.30713,457.895996 C1163.48259,457.980306 1163.75032,458.022461 1164.11035,458.022461 C1164.31999,458.022461 1164.53874,457.9917 1164.7666,457.930176 C1164.99447,457.868652 1165.15853,457.817383 1165.25879,457.776367 L1165.32715,457.776367 L1165.32715,458.931641 Z" id="Next" fill="#008BAA" fill-rule="nonzero"></path>
                        <polygon id="Shape" fill="#979797" fill-rule="evenodd" transform="translate(927.500000, 454.347656) scale(-1, 1) translate(-927.500000, -454.347656) " points="925.4 448.347656 924 449.747656 928.6 454.347656 924 458.947656 925.4 460.347656 931.4 454.347656"></polygon>
                        <path d="M945.025391,452.245117 C945.025391,452.696291 944.946778,453.114419 944.789551,453.499512 C944.632323,453.884605 944.412436,454.218423 944.129883,454.500977 C943.77897,454.85189 943.36426,455.115071 942.885742,455.290527 C942.407224,455.465984 941.803389,455.553711 941.074219,455.553711 L939.720703,455.553711 L939.720703,459.347656 L938.367188,459.347656 L938.367188,449.168945 L941.128906,449.168945 C941.739586,449.168945 942.256834,449.220214 942.680664,449.322754 C943.104494,449.425293 943.480467,449.585936 943.808594,449.804688 C944.195965,450.064454 944.495604,450.388019 944.70752,450.775391 C944.919435,451.162762 945.025391,451.652666 945.025391,452.245117 Z M943.617188,452.279297 C943.617188,451.928384 943.555665,451.623048 943.432617,451.363281 C943.30957,451.103514 943.122723,450.891602 942.87207,450.727539 C942.653319,450.586262 942.40381,450.484864 942.123535,450.42334 C941.84326,450.361816 941.488934,450.331055 941.060547,450.331055 L939.720703,450.331055 L939.720703,454.398438 L940.862305,454.398438 C941.409182,454.398438 941.853514,454.349447 942.195312,454.251465 C942.537111,454.153483 942.815103,453.997397 943.029297,453.783203 C943.243491,453.564452 943.395019,453.334311 943.483887,453.092773 C943.572754,452.851236 943.617188,452.58008 943.617188,452.279297 Z M951.47168,453.113281 L951.40332,453.113281 C951.211913,453.067708 951.026205,453.034668 950.846191,453.01416 C950.666177,452.993652 950.453126,452.983398 950.207031,452.983398 C949.810545,452.983398 949.427736,453.071125 949.058594,453.246582 C948.689451,453.422039 948.333986,453.648762 947.992188,453.926758 L947.992188,459.347656 L946.707031,459.347656 L946.707031,451.711914 L947.992188,451.711914 L947.992188,452.839844 C948.502607,452.429685 948.952635,452.139161 949.342285,451.968262 C949.731936,451.797362 950.129555,451.711914 950.535156,451.711914 C950.758465,451.711914 950.920247,451.717611 951.020508,451.729004 C951.120769,451.740397 951.271158,451.762044 951.47168,451.793945 L951.47168,453.113281 Z M959.073242,455.663086 L953.447266,455.663086 C953.447266,456.132489 953.517903,456.541502 953.65918,456.890137 C953.800456,457.238771 953.994139,457.524738 954.240234,457.748047 C954.477215,457.966798 954.758625,458.130859 955.084473,458.240234 C955.410321,458.34961 955.769204,458.404297 956.161133,458.404297 C956.680667,458.404297 957.203611,458.30062 957.72998,458.093262 C958.25635,457.885904 958.631184,457.681967 958.854492,457.481445 L958.922852,457.481445 L958.922852,458.882812 C958.489907,459.065105 958.047854,459.217773 957.59668,459.34082 C957.145506,459.463868 956.671552,459.525391 956.174805,459.525391 C954.907871,459.525391 953.918949,459.182458 953.208008,458.496582 C952.497067,457.810706 952.141602,456.836595 952.141602,455.574219 C952.141602,454.325515 952.482256,453.334314 953.163574,452.600586 C953.844893,451.866858 954.741531,451.5 955.853516,451.5 C956.883469,451.5 957.677569,451.800778 958.23584,452.402344 C958.794111,453.003909 959.073242,453.858393 959.073242,454.96582 L959.073242,455.663086 Z M957.822266,454.678711 C957.817708,454.004228 957.647951,453.482424 957.312988,453.113281 C956.978026,452.744139 956.468753,452.55957 955.785156,452.55957 C955.097002,452.55957 954.548993,452.762368 954.141113,453.167969 C953.733234,453.57357 953.501953,454.077145 953.447266,454.678711 L957.822266,454.678711 Z M967.625,451.711914 L964.535156,459.347656 L963.243164,459.347656 L960.173828,451.711914 L961.568359,451.711914 L963.933594,457.789062 L966.27832,451.711914 L967.625,451.711914 Z M970.6875,450.433594 L969.238281,450.433594 L969.238281,449.100586 L970.6875,449.100586 L970.6875,450.433594 Z M970.605469,459.347656 L969.320312,459.347656 L969.320312,451.711914 L970.605469,451.711914 L970.605469,459.347656 Z M979.65625,455.533203 C979.65625,456.77735 979.337243,457.759437 978.699219,458.479492 C978.061195,459.199548 977.206711,459.55957 976.135742,459.55957 C975.055659,459.55957 974.197757,459.199548 973.562012,458.479492 C972.926266,457.759437 972.608398,456.77735 972.608398,455.533203 C972.608398,454.289056 972.926266,453.30583 973.562012,452.583496 C974.197757,451.861162 975.055659,451.5 976.135742,451.5 C977.206711,451.5 978.061195,451.861162 978.699219,452.583496 C979.337243,453.30583 979.65625,454.289056 979.65625,455.533203 Z M978.330078,455.533203 C978.330078,454.544266 978.136395,453.80941 977.749023,453.328613 C977.361652,452.847817 976.823897,452.607422 976.135742,452.607422 C975.438473,452.607422 974.8973,452.847817 974.512207,453.328613 C974.127114,453.80941 973.93457,454.544266 973.93457,455.533203 C973.93457,456.490239 974.128253,457.215981 974.515625,457.710449 C974.902997,458.204918 975.44303,458.452148 976.135742,458.452148 C976.819339,458.452148 977.355955,458.207196 977.745605,457.717285 C978.135256,457.227374 978.330078,456.499354 978.330078,455.533203 Z M987.975586,459.347656 L986.69043,459.347656 L986.69043,458.5 C986.257485,458.841799 985.842775,459.10384 985.446289,459.286133 C985.049803,459.468425 984.612307,459.55957 984.133789,459.55957 C983.331702,459.55957 982.707359,459.314618 982.260742,458.824707 C981.814125,458.334796 981.59082,457.61589 981.59082,456.667969 L981.59082,451.711914 L982.875977,451.711914 L982.875977,456.05957 C982.875977,456.446942 982.894206,456.778482 982.930664,457.054199 C982.967123,457.329917 983.044596,457.565754 983.163086,457.761719 C983.286133,457.962241 983.445637,458.108072 983.641602,458.199219 C983.837566,458.290365 984.122394,458.335938 984.496094,458.335938 C984.828778,458.335938 985.192218,458.24935 985.586426,458.076172 C985.980633,457.902994 986.348631,457.681967 986.69043,457.413086 L986.69043,451.711914 L987.975586,451.711914 L987.975586,459.347656 Z M995.959961,457.146484 C995.959961,457.843753 995.671715,458.415688 995.095215,458.862305 C994.518715,459.308922 993.73145,459.532227 992.733398,459.532227 C992.168291,459.532227 991.649905,459.465007 991.178223,459.330566 C990.706541,459.196126 990.3112,459.049154 989.992188,458.889648 L989.992188,457.447266 L990.060547,457.447266 C990.466148,457.752606 990.917315,457.995279 991.414062,458.175293 C991.91081,458.355307 992.387042,458.445312 992.842773,458.445312 C993.40788,458.445312 993.849933,458.354168 994.168945,458.171875 C994.487957,457.989582 994.647461,457.702476 994.647461,457.310547 C994.647461,457.009764 994.560873,456.781902 994.387695,456.626953 C994.214517,456.472004 993.881838,456.339844 993.389648,456.230469 C993.207356,456.189453 992.96924,456.141602 992.675293,456.086914 C992.381346,456.032226 992.113608,455.972982 991.87207,455.90918 C991.202145,455.731444 990.727052,455.470542 990.446777,455.126465 C990.166503,454.782388 990.026367,454.359703 990.026367,453.858398 C990.026367,453.543944 990.091308,453.247723 990.221191,452.969727 C990.351075,452.69173 990.548176,452.44336 990.8125,452.224609 C991.06771,452.010416 991.392413,451.840658 991.786621,451.715332 C992.180829,451.590006 992.621742,451.527344 993.109375,451.527344 C993.565106,451.527344 994.026528,451.58317 994.493652,451.694824 C994.960777,451.806478 995.349282,451.942056 995.65918,452.101562 L995.65918,453.475586 L995.59082,453.475586 C995.262694,453.234048 994.863935,453.030112 994.394531,452.86377 C993.925128,452.697428 993.464846,452.614258 993.013672,452.614258 C992.544268,452.614258 992.147788,452.704263 991.824219,452.884277 C991.500649,453.064291 991.338867,453.332029 991.338867,453.6875 C991.338867,454.001955 991.436848,454.238931 991.632812,454.398438 C991.82422,454.557944 992.134112,454.687825 992.5625,454.788086 C992.79948,454.842774 993.06494,454.897461 993.358887,454.952148 C993.652834,455.006836 993.897785,455.056966 994.09375,455.102539 C994.690758,455.239258 995.15104,455.473957 995.474609,455.806641 C995.798179,456.143882 995.959961,456.590492 995.959961,457.146484 Z" id="Previous" fill="#979797" fill-rule="nonzero"></path>
                        <circle id="Oval" fill="#5B9500" fill-rule="evenodd" cx="138" cy="48" r="8"></circle>
                        <text id="1" font-family="Verdana" font-size="9" font-weight="normal" fill="#FFFFFF">
                            <tspan x="135" y="51">1</tspan>
                        </text>
                        <circle id="Oval" fill="#5B9500" fill-rule="evenodd" cx="1097" cy="8" r="8"></circle>
                        <text id="2" font-family="Verdana" font-size="9" font-weight="normal" fill="#FFFFFF">
                            <tspan x="1094" y="11">2</tspan>
                        </text>
                        <circle id="Oval" fill="#5B9500" fill-rule="evenodd" cx="8" cy="149" r="8"></circle>
                        <text id="4" font-family="Verdana" font-size="9" font-weight="normal" fill="#FFFFFF">
                            <tspan x="5" y="152">4</tspan>
                        </text>
                        <circle id="Oval" fill="#5B9500" fill-rule="evenodd" cx="911" cy="454" r="8"></circle>
                        <text id="5" font-family="Verdana" font-size="9" font-weight="normal" fill="#FFFFFF">
                            <tspan x="908" y="457">5</tspan>
                        </text>
                        <circle id="Oval" fill="#5B9500" fill-rule="evenodd" cx="1181" cy="82" r="8"></circle>
                        <text id="3" font-family="Verdana" font-size="9" font-weight="normal" fill="#FFFFFF">
                            <tspan x="1178" y="85">3</tspan>
                        </text>
                        <g id="delete" transform="translate(1157.000000, 76.000000)" fill="#9E0000" fill-rule="evenodd" stroke-width="1">
                            <g id="Shape">
                                <path d="M0.642857143,9.77777778 C0.642857143,10.45 1.22142857,11 1.92857143,11 L7.07142857,11 C7.77857143,11 8.35714286,10.45 8.35714286,9.77777778 L8.35714286,2.44444444 L0.642857143,2.44444444 L0.642857143,9.77777778 L0.642857143,9.77777778 Z M9,0.611111111 L6.75,0.611111111 L6.10714286,0 L2.89285714,0 L2.25,0.611111111 L0,0.611111111 L0,1.83333333 L9,1.83333333 L9,0.611111111 L9,0.611111111 Z"></path>
                            </g>
                        </g>
                        <g id="delete" transform="translate(1157.000000, 109.000000)" fill="#9E0000" fill-rule="evenodd" stroke-width="1">
                            <g id="Shape">
                                <path d="M0.642857143,9.77777778 C0.642857143,10.45 1.22142857,11 1.92857143,11 L7.07142857,11 C7.77857143,11 8.35714286,10.45 8.35714286,9.77777778 L8.35714286,2.44444444 L0.642857143,2.44444444 L0.642857143,9.77777778 L0.642857143,9.77777778 Z M9,0.611111111 L6.75,0.611111111 L6.10714286,0 L2.89285714,0 L2.25,0.611111111 L0,0.611111111 L0,1.83333333 L9,1.83333333 L9,0.611111111 L9,0.611111111 Z"></path>
                            </g>
                        </g>
                        <g id="delete" transform="translate(1157.000000, 142.000000)" fill="#9E0000" fill-rule="evenodd" stroke-width="1">
                            <g id="Shape">
                                <path d="M0.642857143,9.77777778 C0.642857143,10.45 1.22142857,11 1.92857143,11 L7.07142857,11 C7.77857143,11 8.35714286,10.45 8.35714286,9.77777778 L8.35714286,2.44444444 L0.642857143,2.44444444 L0.642857143,9.77777778 L0.642857143,9.77777778 Z M9,0.611111111 L6.75,0.611111111 L6.10714286,0 L2.89285714,0 L2.25,0.611111111 L0,0.611111111 L0,1.83333333 L9,1.83333333 L9,0.611111111 L9,0.611111111 Z"></path>
                            </g>
                        </g>
                        <g id="delete" transform="translate(1157.000000, 177.000000)" fill="#9E0000" fill-rule="evenodd" stroke-width="1">
                            <g id="Shape">
                                <path d="M0.642857143,9.77777778 C0.642857143,10.45 1.22142857,11 1.92857143,11 L7.07142857,11 C7.77857143,11 8.35714286,10.45 8.35714286,9.77777778 L8.35714286,2.44444444 L0.642857143,2.44444444 L0.642857143,9.77777778 L0.642857143,9.77777778 Z M9,0.611111111 L6.75,0.611111111 L6.10714286,0 L2.89285714,0 L2.25,0.611111111 L0,0.611111111 L0,1.83333333 L9,1.83333333 L9,0.611111111 L9,0.611111111 Z"></path>
                            </g>
                        </g>
                        <g id="delete" transform="translate(1157.000000, 209.000000)" fill="#9E0000" fill-rule="evenodd" stroke-width="1">
                            <g id="Shape">
                                <path d="M0.642857143,9.77777778 C0.642857143,10.45 1.22142857,11 1.92857143,11 L7.07142857,11 C7.77857143,11 8.35714286,10.45 8.35714286,9.77777778 L8.35714286,2.44444444 L0.642857143,2.44444444 L0.642857143,9.77777778 L0.642857143,9.77777778 Z M9,0.611111111 L6.75,0.611111111 L6.10714286,0 L2.89285714,0 L2.25,0.611111111 L0,0.611111111 L0,1.83333333 L9,1.83333333 L9,0.611111111 L9,0.611111111 Z"></path>
                            </g>
                        </g>
                        <g id="delete" transform="translate(1157.000000, 242.000000)" fill="#9E0000" fill-rule="evenodd" stroke-width="1">
                            <g id="Shape">
                                <path d="M0.642857143,9.77777778 C0.642857143,10.45 1.22142857,11 1.92857143,11 L7.07142857,11 C7.77857143,11 8.35714286,10.45 8.35714286,9.77777778 L8.35714286,2.44444444 L0.642857143,2.44444444 L0.642857143,9.77777778 L0.642857143,9.77777778 Z M9,0.611111111 L6.75,0.611111111 L6.10714286,0 L2.89285714,0 L2.25,0.611111111 L0,0.611111111 L0,1.83333333 L9,1.83333333 L9,0.611111111 L9,0.611111111 Z"></path>
                            </g>
                        </g>
                        <g id="delete" transform="translate(1157.000000, 275.000000)" fill="#9E0000" fill-rule="evenodd" stroke-width="1">
                            <g id="Shape">
                                <path d="M0.642857143,9.77777778 C0.642857143,10.45 1.22142857,11 1.92857143,11 L7.07142857,11 C7.77857143,11 8.35714286,10.45 8.35714286,9.77777778 L8.35714286,2.44444444 L0.642857143,2.44444444 L0.642857143,9.77777778 L0.642857143,9.77777778 Z M9,0.611111111 L6.75,0.611111111 L6.10714286,0 L2.89285714,0 L2.25,0.611111111 L0,0.611111111 L0,1.83333333 L9,1.83333333 L9,0.611111111 L9,0.611111111 Z"></path>
                            </g>
                        </g>
                        <g id="delete" transform="translate(1157.000000, 307.000000)" fill="#9E0000" fill-rule="evenodd" stroke-width="1">
                            <g id="Shape">
                                <path d="M0.642857143,9.77777778 C0.642857143,10.45 1.22142857,11 1.92857143,11 L7.07142857,11 C7.77857143,11 8.35714286,10.45 8.35714286,9.77777778 L8.35714286,2.44444444 L0.642857143,2.44444444 L0.642857143,9.77777778 L0.642857143,9.77777778 Z M9,0.611111111 L6.75,0.611111111 L6.10714286,0 L2.89285714,0 L2.25,0.611111111 L0,0.611111111 L0,1.83333333 L9,1.83333333 L9,0.611111111 L9,0.611111111 Z"></path>
                            </g>
                        </g>
                        <g id="delete" transform="translate(1157.000000, 339.000000)" fill="#9E0000" fill-rule="evenodd" stroke-width="1">
                            <g id="Shape">
                                <path d="M0.642857143,9.77777778 C0.642857143,10.45 1.22142857,11 1.92857143,11 L7.07142857,11 C7.77857143,11 8.35714286,10.45 8.35714286,9.77777778 L8.35714286,2.44444444 L0.642857143,2.44444444 L0.642857143,9.77777778 L0.642857143,9.77777778 Z M9,0.611111111 L6.75,0.611111111 L6.10714286,0 L2.89285714,0 L2.25,0.611111111 L0,0.611111111 L0,1.83333333 L9,1.83333333 L9,0.611111111 L9,0.611111111 Z"></path>
                            </g>
                        </g>
                        <g id="delete" transform="translate(1157.000000, 372.000000)" fill="#9E0000" fill-rule="evenodd" stroke-width="1">
                            <g id="Shape">
                                <path d="M0.642857143,9.77777778 C0.642857143,10.45 1.22142857,11 1.92857143,11 L7.07142857,11 C7.77857143,11 8.35714286,10.45 8.35714286,9.77777778 L8.35714286,2.44444444 L0.642857143,2.44444444 L0.642857143,9.77777778 L0.642857143,9.77777778 Z M9,0.611111111 L6.75,0.611111111 L6.10714286,0 L2.89285714,0 L2.25,0.611111111 L0,0.611111111 L0,1.83333333 L9,1.83333333 L9,0.611111111 L9,0.611111111 Z"></path>
                            </g>
                        </g>
                        <g id="delete" transform="translate(1157.000000, 406.000000)" fill="#9E0000" fill-rule="evenodd" stroke-width="1">
                            <g id="Shape">
                                <path d="M0.642857143,9.77777778 C0.642857143,10.45 1.22142857,11 1.92857143,11 L7.07142857,11 C7.77857143,11 8.35714286,10.45 8.35714286,9.77777778 L8.35714286,2.44444444 L0.642857143,2.44444444 L0.642857143,9.77777778 L0.642857143,9.77777778 Z M9,0.611111111 L6.75,0.611111111 L6.10714286,0 L2.89285714,0 L2.25,0.611111111 L0,0.611111111 L0,1.83333333 L9,1.83333333 L9,0.611111111 L9,0.611111111 Z"></path>
                            </g>
                        </g>
                        <path d="M35,76 L35,90 L21,90 L21,76 L35,76 L35,76 Z M35,74 L21,74 C19.9,74 19,74.9 19,76 L19,90 C19,91.1 19.9,92 21,92 L35,92 C36.1,92 37,91.1 37,90 L37,76 C37,74.9 36.1,74 35,74 L35,74 L35,74 Z" id="Shape" fill="#979797" fill-rule="evenodd"></path>
                        <path d="M35,107 L35,121 L21,121 L21,107 L35,107 L35,107 Z M35,105 L21,105 C19.9,105 19,105.9 19,107 L19,121 C19,122.1 19.9,123 21,123 L35,123 C36.1,123 37,122.1 37,121 L37,107 C37,105.9 36.1,105 35,105 L35,105 L35,105 Z" id="Shape" fill="#979797" fill-rule="evenodd"></path>
                        <path d="M35,142 L35,156 L21,156 L21,142 L35,142 L35,142 Z M35,140 L21,140 C19.9,140 19,140.9 19,142 L19,156 C19,157.1 19.9,158 21,158 L35,158 C36.1,158 37,157.1 37,156 L37,142 C37,140.9 36.1,140 35,140 L35,140 L35,140 Z" id="Shape" fill="#979797" fill-rule="evenodd"></path>
                        <path d="M35,176 L35,190 L21,190 L21,176 L35,176 L35,176 Z M35,174 L21,174 C19.9,174 19,174.9 19,176 L19,190 C19,191.1 19.9,192 21,192 L35,192 C36.1,192 37,191.1 37,190 L37,176 C37,174.9 36.1,174 35,174 L35,174 L35,174 Z" id="Shape" fill="#979797" fill-rule="evenodd"></path>
                        <path d="M35,208 L35,222 L21,222 L21,208 L35,208 L35,208 Z M35,206 L21,206 C19.9,206 19,206.9 19,208 L19,222 C19,223.1 19.9,224 21,224 L35,224 C36.1,224 37,223.1 37,222 L37,208 C37,206.9 36.1,206 35,206 L35,206 L35,206 Z" id="Shape" fill="#979797" fill-rule="evenodd"></path>
                        <path d="M35,240 L35,254 L21,254 L21,240 L35,240 L35,240 Z M35,238 L21,238 C19.9,238 19,238.9 19,240 L19,254 C19,255.1 19.9,256 21,256 L35,256 C36.1,256 37,255.1 37,254 L37,240 C37,238.9 36.1,238 35,238 L35,238 L35,238 Z" id="Shape" fill="#979797" fill-rule="evenodd"></path>
                        <path d="M35,274 L35,288 L21,288 L21,274 L35,274 L35,274 Z M35,272 L21,272 C19.9,272 19,272.9 19,274 L19,288 C19,289.1 19.9,290 21,290 L35,290 C36.1,290 37,289.1 37,288 L37,274 C37,272.9 36.1,272 35,272 L35,272 L35,272 Z" id="Shape" fill="#979797" fill-rule="evenodd"></path>
                        <path d="M35,307 L35,321 L21,321 L21,307 L35,307 L35,307 Z M35,305 L21,305 C19.9,305 19,305.9 19,307 L19,321 C19,322.1 19.9,323 21,323 L35,323 C36.1,323 37,322.1 37,321 L37,307 C37,305.9 36.1,305 35,305 L35,305 L35,305 Z" id="Shape" fill="#979797" fill-rule="evenodd"></path>
                        <path d="M35,338 L35,352 L21,352 L21,338 L35,338 L35,338 Z M35,336 L21,336 C19.9,336 19,336.9 19,338 L19,352 C19,353.1 19.9,354 21,354 L35,354 C36.1,354 37,353.1 37,352 L37,338 C37,336.9 36.1,336 35,336 L35,336 L35,336 Z" id="Shape" fill="#979797" fill-rule="evenodd"></path>
                        <path d="M35,371 L35,385 L21,385 L21,371 L35,371 L35,371 Z M35,369 L21,369 C19.9,369 19,369.9 19,371 L19,385 C19,386.1 19.9,387 21,387 L35,387 C36.1,387 37,386.1 37,385 L37,371 C37,369.9 36.1,369 35,369 L35,369 L35,369 Z" id="Shape" fill="#979797" fill-rule="evenodd"></path>
                        <path d="M35,405 L35,419 L21,419 L21,405 L35,405 L35,405 Z M35,403 L21,403 C19.9,403 19,403.9 19,405 L19,419 C19,420.1 19.9,421 21,421 L35,421 C36.1,421 37,420.1 37,419 L37,405 C37,403.9 36.1,403 35,403 L35,403 L35,403 Z" id="Shape" fill="#979797" fill-rule="evenodd"></path>
                        <text id="FILTERS" font-family="Verdana" font-size="12" font-weight="normal" letter-spacing="-0.32" fill="#008BAA">
                            <tspan x="1111.07984" y="13">FILTERS</tspan>
                        </text>
                        <g id="filter" transform="translate(1163.000000, 3.000000)" fill-rule="evenodd" stroke-width="1">
                            <g transform="translate(0.000000, 0.750000)">
                                <path d="M0,9.75 L14,9.75 L14,8.25 L0,8.25 L0,9.75 L0,9.75 Z M0,0.75 L0,2.25 L14,2.25 L14,0.75 L0,0.75 L0,0.75 Z M0,6 L14,6 L14,4.5 L0,4.5 L0,6 L0,6 Z" id="Shape" fill="#008BAA"></path>
                                <ellipse id="Oval" stroke="#008BAA" fill="#FFFFFF" cx="10.8888889" cy="1.5" rx="1.55555556" ry="1.5"></ellipse>
                                <ellipse id="Oval-Copy" stroke="#008BAA" fill="#FFFFFF" cx="3.11111111" cy="5.25" rx="1.55555556" ry="1.5"></ellipse>
                                <ellipse id="Oval-Copy-2" stroke="#008BAA" fill="#FFFFFF" cx="8.55555556" cy="9" rx="1.55555556" ry="1.5"></ellipse>
                            </g>
                        </g>
                    </g>
                </g>
                <g id="Group-14" transform="translate(10.000000, 131.000000)"></g>
                <g id="Group-24" transform="translate(62.000000, 40.000000)">
                    <g id="Group-17">
                        <g id="Group-3" transform="translate(0.000000, 35.000000)"></g>
                        <g id="Group-3" transform="translate(0.000000, 68.000000)"></g>
                    </g>
                    <g id="Group-3" transform="translate(0.000000, 102.000000)"></g>
                    <g id="Group-3" transform="translate(0.000000, 134.000000)"></g>
                    <g id="Group-3" transform="translate(0.000000, 168.000000)"></g>
                    <g id="Group-3" transform="translate(0.000000, 200.000000)"></g>
                    <g id="Group-3" transform="translate(0.000000, 232.000000)"></g>
                    <g id="Group-3" transform="translate(0.000000, 265.000000)"></g>
                    <g id="Group-3" transform="translate(0.000000, 298.000000)"></g>
                    <g id="Group-3" transform="translate(0.000000, 330.000000)"></g>
                    <g id="Group-3" transform="translate(0.000000, 363.000000)"></g>
                </g>
                <g id="Group-23" transform="translate(245.000000, 40.000000)">
                    <g id="Group-15"></g>
                </g>
                <g id="Group-20" transform="translate(448.000000, 40.000000)"></g>
                <g id="Group-19" transform="translate(665.000000, 40.000000)"></g>
                <g id="Group-12" transform="translate(882.000000, 40.000000)"></g>
                <g id="Group-11" transform="translate(1028.000000, 40.000000)"></g>
                <g id="Group-27" transform="translate(924.000000, 442.000000)">
                    <g id="Group-4" transform="translate(88.000000, 2.347656)"></g>
                    <g id="Group-25" transform="translate(209.000000, 0.000000)"></g>
                    <g id="Group-26" transform="translate(0.000000, 0.347656)"></g>
                </g>
                <g id="check-box-outline-blank" transform="translate(19.000000, 74.000000)">
                    <g></g>
                </g>
                <g id="check-box-outline-blank" transform="translate(19.000000, 105.000000)">
                    <g></g>
                </g>
                <g id="check-box-outline-blank" transform="translate(19.000000, 140.000000)">
                    <g></g>
                </g>
                <g id="check-box-outline-blank" transform="translate(19.000000, 174.000000)">
                    <g></g>
                </g>
                <g id="check-box-outline-blank" transform="translate(19.000000, 206.000000)">
                    <g></g>
                </g>
                <g id="check-box-outline-blank" transform="translate(19.000000, 238.000000)">
                    <g></g>
                </g>
                <g id="check-box-outline-blank" transform="translate(19.000000, 272.000000)">
                    <g></g>
                </g>
                <g id="check-box-outline-blank" transform="translate(19.000000, 305.000000)">
                    <g></g>
                </g>
                <g id="check-box-outline-blank" transform="translate(19.000000, 336.000000)">
                    <g></g>
                </g>
                <g id="check-box-outline-blank" transform="translate(19.000000, 369.000000)">
                    <g></g>
                </g>
                <g id="check-box-outline-blank" transform="translate(19.000000, 403.000000)">
                    <g></g>
                </g>
                <g id="Group-18" transform="translate(1111.000000, 1.000000)"></g>
            </g>
        </g>
    </g>
</svg>