<?xml version="1.0" encoding="UTF-8"?>
<svg width="645px" height="302px" viewBox="0 0 645 302" version="1.1" xmlns="http://www.w3.org/2000/svg" xmlns:xlink="http://www.w3.org/1999/xlink">
    <!-- Generator: Sketch 58 (84663) - https://sketch.com -->
    <title>Group 9</title>
    <desc>Created with Sketch.</desc>
    <g id="Page-1" stroke="none" stroke-width="1" fill="none" fill-rule="evenodd">
        <g id="Group-9">
            <rect id="Rectangle" fill="#AF00C7" x="0" y="0" width="209" height="302"></rect>
            <rect id="Rectangle" fill="#D8D8D8" x="547" y="256" width="63" height="27"></rect>
            <rect id="Rectangle" fill="#850297" x="211" y="0" width="434" height="302"></rect>
            <g id="Group-6" transform="translate(303.000000, 70.000000)" stroke="#FFFFFF" stroke-width="2">
                <rect id="Rectangle" x="0" y="0" width="35" height="35"></rect>
                <rect id="Rectangle" x="35" y="0" width="35" height="35"></rect>
                <rect id="Rectangle" x="70" y="0" width="35" height="35"></rect>
                <rect id="Rectangle" x="105" y="0" width="35" height="35"></rect>
                <rect id="Rectangle" x="140" y="0" width="35" height="35"></rect>
                <rect id="Rectangle" x="175" y="0" width="35" height="35"></rect>
                <rect id="Rectangle" x="210" y="0" width="35" height="35"></rect>
            </g>
            <g id="Group-6" transform="translate(303.000000, 105.000000)" stroke="#FFFFFF" stroke-width="2">
                <rect id="Rectangle" x="0" y="0" width="35" height="35"></rect>
                <rect id="Rectangle" x="35" y="0" width="35" height="35"></rect>
                <rect id="Rectangle" x="70" y="0" width="35" height="35"></rect>
                <rect id="Rectangle" x="105" y="0" width="35" height="35"></rect>
                <rect id="Rectangle" x="140" y="0" width="35" height="35"></rect>
                <rect id="Rectangle" x="175" y="0" width="35" height="35"></rect>
                <rect id="Rectangle" x="210" y="0" width="35" height="35"></rect>
            </g>
            <g id="Group-6" transform="translate(303.000000, 140.000000)" stroke="#FFFFFF" stroke-width="2">
                <rect id="Rectangle" x="0" y="0" width="35" height="35"></rect>
                <rect id="Rectangle" x="35" y="0" width="35" height="35"></rect>
                <rect id="Rectangle" x="70" y="0" width="35" height="35"></rect>
                <rect id="Rectangle" x="105" y="0" width="35" height="35"></rect>
                <rect id="Rectangle" x="140" y="0" width="35" height="35"></rect>
                <rect id="Rectangle" x="175" y="0" width="35" height="35"></rect>
                <rect id="Rectangle" x="210" y="0" width="35" height="35"></rect>
            </g>
            <g id="Group-6" transform="translate(303.000000, 175.000000)" stroke="#FFFFFF" stroke-width="2">
                <rect id="Rectangle" x="0" y="0" width="35" height="35"></rect>
                <rect id="Rectangle" x="35" y="0" width="35" height="35"></rect>
                <rect id="Rectangle" x="70" y="0" width="35" height="35"></rect>
                <rect id="Rectangle" x="105" y="0" width="35" height="35"></rect>
                <rect id="Rectangle" x="140" y="0" width="35" height="35"></rect>
                <rect id="Rectangle" x="175" y="0" width="35" height="35"></rect>
                <rect id="Rectangle" x="210" y="0" width="35" height="35"></rect>
            </g>
            <g id="Group-6" transform="translate(303.000000, 210.000000)" stroke="#FFFFFF" stroke-width="2">
                <rect id="Rectangle" x="0" y="0" width="35" height="35"></rect>
                <rect id="Rectangle" x="35" y="0" width="35" height="35"></rect>
                <rect id="Rectangle" x="70" y="0" width="35" height="35"></rect>
                <rect id="Rectangle" x="105" y="0" width="35" height="35"></rect>
                <rect id="Rectangle" x="140" y="0" width="35" height="35"></rect>
                <rect id="Rectangle" x="175" y="0" width="35" height="35"></rect>
                <rect id="Rectangle" x="210" y="0" width="35" height="35"></rect>
            </g>
            <rect id="Rectangle" fill="#D8D8D8" x="327" y="74" width="7" height="7"></rect>
            <rect id="Rectangle" fill="#D8D8D8" x="363" y="74" width="7" height="7"></rect>
            <rect id="Rectangle" fill="#D8D8D8" x="398" y="74" width="7" height="7"></rect>
            <rect id="Rectangle" fill="#D8D8D8" x="433" y="74" width="7" height="7"></rect>
            <rect id="Rectangle" fill="#D8D8D8" x="466" y="74" width="7" height="7"></rect>
            <rect id="Rectangle" fill="#D8D8D8" x="501" y="74" width="7" height="7"></rect>
            <rect id="Rectangle" fill="#D8D8D8" x="536" y="74" width="7" height="7"></rect>
            <rect id="Rectangle" fill="#D8D8D8" x="327" y="109" width="7" height="7"></rect>
            <rect id="Rectangle" fill="#D8D8D8" x="363" y="109" width="7" height="7"></rect>
            <rect id="Rectangle" fill="#D8D8D8" x="398" y="109" width="7" height="7"></rect>
            <rect id="Rectangle" fill="#D8D8D8" x="433" y="109" width="7" height="7"></rect>
            <rect id="Rectangle" fill="#D8D8D8" x="466" y="109" width="7" height="7"></rect>
            <rect id="Rectangle" fill="#D8D8D8" x="501" y="109" width="7" height="7"></rect>
            <rect id="Rectangle" fill="#D8D8D8" x="536" y="109" width="7" height="7"></rect>
            <rect id="Rectangle" fill="#D8D8D8" x="327" y="144" width="7" height="7"></rect>
            <rect id="Rectangle" fill="#D8D8D8" x="363" y="144" width="7" height="7"></rect>
            <rect id="Rectangle" fill="#D8D8D8" x="398" y="144" width="7" height="7"></rect>
            <rect id="Rectangle" fill="#D8D8D8" x="433" y="144" width="7" height="7"></rect>
            <rect id="Rectangle" fill="#D8D8D8" x="466" y="144" width="7" height="7"></rect>
            <rect id="Rectangle" fill="#D8D8D8" x="501" y="144" width="7" height="7"></rect>
            <rect id="Rectangle" fill="#D8D8D8" x="536" y="144" width="7" height="7"></rect>
            <rect id="Rectangle" fill="#D8D8D8" x="327" y="179" width="7" height="7"></rect>
            <rect id="Rectangle" fill="#D8D8D8" x="363" y="179" width="7" height="7"></rect>
            <rect id="Rectangle" fill="#D8D8D8" x="398" y="179" width="7" height="7"></rect>
            <rect id="Rectangle" fill="#D8D8D8" x="433" y="179" width="7" height="7"></rect>
            <rect id="Rectangle" fill="#D8D8D8" x="466" y="179" width="7" height="7"></rect>
            <rect id="Rectangle" fill="#D8D8D8" x="501" y="144" width="7" height="7"></rect>
            <rect id="Rectangle" fill="#D8D8D8" x="501" y="179" width="7" height="7"></rect>
            <rect id="Rectangle" fill="#D8D8D8" x="501" y="214" width="7" height="7"></rect>
            <rect id="Rectangle" fill="#D8D8D8" x="536" y="179" width="7" height="7"></rect>
            <rect id="Rectangle" fill="#D8D8D8" x="327" y="214" width="7" height="7"></rect>
            <rect id="Rectangle" fill="#D8D8D8" x="363" y="214" width="7" height="7"></rect>
            <rect id="Rectangle" fill="#D8D8D8" x="398" y="214" width="7" height="7"></rect>
            <rect id="Rectangle" fill="#D8D8D8" x="433" y="214" width="7" height="7"></rect>
            <rect id="Rectangle" fill="#D8D8D8" x="466" y="214" width="7" height="7"></rect>
            <rect id="Rectangle" fill="#D8D8D8" x="536" y="214" width="7" height="7"></rect>
            <g id="Group-7" transform="translate(19.000000, 120.000000)">
                <g id="Group-6" stroke="#FFFFFF" stroke-width="2">
                    <rect id="Rectangle" x="0" y="0" width="24.6288056" height="24.1967213"></rect>
                    <rect id="Rectangle" x="24.6288056" y="0" width="24.6288056" height="24.1967213"></rect>
                    <rect id="Rectangle" x="49.2576112" y="0" width="24.6288056" height="24.1967213"></rect>
                    <rect id="Rectangle" x="73.8864169" y="0" width="24.6288056" height="24.1967213"></rect>
                    <rect id="Rectangle" x="98.5152225" y="0" width="24.6288056" height="24.1967213"></rect>
                    <rect id="Rectangle" x="123.144028" y="0" width="24.6288056" height="24.1967213"></rect>
                    <rect id="Rectangle" x="147.772834" y="0" width="24.6288056" height="24.1967213"></rect>
                </g>
                <g id="Group-6" transform="translate(0.000000, 25.204918)" stroke="#FFFFFF" stroke-width="2">
                    <rect id="Rectangle" x="0" y="0" width="24.6288056" height="24.1967213"></rect>
                    <rect id="Rectangle" x="24.6288056" y="0" width="24.6288056" height="24.1967213"></rect>
                    <rect id="Rectangle" x="49.2576112" y="0" width="24.6288056" height="24.1967213"></rect>
                    <rect id="Rectangle" x="73.8864169" y="0" width="24.6288056" height="24.1967213"></rect>
                    <rect id="Rectangle" x="98.5152225" y="0" width="24.6288056" height="24.1967213"></rect>
                    <rect id="Rectangle" x="123.144028" y="0" width="24.6288056" height="24.1967213"></rect>
                    <rect id="Rectangle" x="147.772834" y="0" width="24.6288056" height="24.1967213"></rect>
                </g>
                <g id="Group-6" transform="translate(0.000000, 49.401639)" stroke="#FFFFFF" stroke-width="2">
                    <rect id="Rectangle" x="0" y="0" width="24.6288056" height="24.1967213"></rect>
                    <rect id="Rectangle" x="24.6288056" y="0" width="24.6288056" height="24.1967213"></rect>
                    <rect id="Rectangle" x="49.2576112" y="0" width="24.6288056" height="24.1967213"></rect>
                    <rect id="Rectangle" x="73.8864169" y="0" width="24.6288056" height="24.1967213"></rect>
                    <rect id="Rectangle" x="98.5152225" y="0" width="24.6288056" height="24.1967213"></rect>
                    <rect id="Rectangle" x="123.144028" y="0" width="24.6288056" height="24.1967213"></rect>
                    <rect id="Rectangle" x="147.772834" y="0" width="24.6288056" height="24.1967213"></rect>
                </g>
                <g id="Group-6" transform="translate(0.000000, 73.598361)" stroke="#FFFFFF" stroke-width="2">
                    <rect id="Rectangle" x="0" y="0" width="24.6288056" height="24.1967213"></rect>
                    <rect id="Rectangle" x="24.6288056" y="0" width="24.6288056" height="24.1967213"></rect>
                    <rect id="Rectangle" x="49.2576112" y="0" width="24.6288056" height="24.1967213"></rect>
                    <rect id="Rectangle" x="73.8864169" y="0" width="24.6288056" height="24.1967213"></rect>
                    <rect id="Rectangle" x="98.5152225" y="0" width="24.6288056" height="24.1967213"></rect>
                    <rect id="Rectangle" x="123.144028" y="0" width="24.6288056" height="24.1967213"></rect>
                    <rect id="Rectangle" x="147.772834" y="0" width="24.6288056" height="24.1967213"></rect>
                </g>
                <g id="Group-6" transform="translate(0.000000, 98.803279)" stroke="#FFFFFF" stroke-width="2">
                    <rect id="Rectangle" x="0" y="0" width="24.6288056" height="24.1967213"></rect>
                    <rect id="Rectangle" x="24.6288056" y="0" width="24.6288056" height="24.1967213"></rect>
                    <rect id="Rectangle" x="49.2576112" y="0" width="24.6288056" height="24.1967213"></rect>
                    <rect id="Rectangle" x="73.8864169" y="0" width="24.6288056" height="24.1967213"></rect>
                    <rect id="Rectangle" x="98.5152225" y="0" width="24.6288056" height="24.1967213"></rect>
                    <rect id="Rectangle" x="123.144028" y="0" width="24.6288056" height="24.1967213"></rect>
                    <rect id="Rectangle" x="147.772834" y="0" width="24.6288056" height="24.1967213"></rect>
                </g>
                <rect id="Rectangle" fill="#D8D8D8" x="17.1393443" y="3.02459016" width="5.04098361" height="5.04098361"></rect>
                <rect id="Rectangle" fill="#D8D8D8" x="42.3442623" y="3.02459016" width="5.04098361" height="5.04098361"></rect>
                <rect id="Rectangle" fill="#D8D8D8" x="66.5409836" y="3.02459016" width="5.04098361" height="5.04098361"></rect>
                <rect id="Rectangle" fill="#D8D8D8" x="91.7459016" y="3.02459016" width="5.04098361" height="5.04098361"></rect>
                <rect id="Rectangle" fill="#D8D8D8" x="114.934426" y="3.02459016" width="5.04098361" height="5.04098361"></rect>
                <rect id="Rectangle" fill="#D8D8D8" x="139.131148" y="3.02459016" width="5.04098361" height="5.04098361"></rect>
                <rect id="Rectangle" fill="#D8D8D8" x="164.336066" y="3.02459016" width="5.04098361" height="5.04098361"></rect>
                <rect id="Rectangle" fill="#D8D8D8" x="17.1393443" y="27.2213115" width="5.04098361" height="5.04098361"></rect>
                <rect id="Rectangle" fill="#D8D8D8" x="42.3442623" y="27.2213115" width="5.04098361" height="5.04098361"></rect>
                <rect id="Rectangle" fill="#D8D8D8" x="66.5409836" y="27.2213115" width="5.04098361" height="5.04098361"></rect>
                <rect id="Rectangle" fill="#D8D8D8" x="91.7459016" y="27.2213115" width="5.04098361" height="5.04098361"></rect>
                <rect id="Rectangle" fill="#D8D8D8" x="114.934426" y="27.2213115" width="5.04098361" height="5.04098361"></rect>
                <rect id="Rectangle" fill="#D8D8D8" x="139.131148" y="27.2213115" width="5.04098361" height="5.04098361"></rect>
                <rect id="Rectangle" fill="#D8D8D8" x="164.336066" y="27.2213115" width="5.04098361" height="5.04098361"></rect>
                <rect id="Rectangle" fill="#D8D8D8" x="17.1393443" y="52.4262295" width="5.04098361" height="5.04098361"></rect>
                <rect id="Rectangle" fill="#D8D8D8" x="42.3442623" y="52.4262295" width="5.04098361" height="5.04098361"></rect>
                <rect id="Rectangle" fill="#D8D8D8" x="66.5409836" y="52.4262295" width="5.04098361" height="5.04098361"></rect>
                <rect id="Rectangle" fill="#D8D8D8" x="91.7459016" y="52.4262295" width="5.04098361" height="5.04098361"></rect>
                <rect id="Rectangle" fill="#D8D8D8" x="114.934426" y="52.4262295" width="5.04098361" height="5.04098361"></rect>
                <rect id="Rectangle" fill="#D8D8D8" x="139.131148" y="52.4262295" width="5.04098361" height="5.04098361"></rect>
                <rect id="Rectangle" fill="#D8D8D8" x="164.336066" y="52.4262295" width="5.04098361" height="5.04098361"></rect>
                <rect id="Rectangle" fill="#D8D8D8" x="17.1393443" y="76.6229508" width="5.04098361" height="5.04098361"></rect>
                <rect id="Rectangle" fill="#D8D8D8" x="42.3442623" y="76.6229508" width="5.04098361" height="5.04098361"></rect>
                <rect id="Rectangle" fill="#D8D8D8" x="66.5409836" y="76.6229508" width="5.04098361" height="5.04098361"></rect>
                <rect id="Rectangle" fill="#D8D8D8" x="91.7459016" y="76.6229508" width="5.04098361" height="5.04098361"></rect>
                <rect id="Rectangle" fill="#D8D8D8" x="114.934426" y="76.6229508" width="5.04098361" height="5.04098361"></rect>
                <rect id="Rectangle" fill="#D8D8D8" x="139.131148" y="52.4262295" width="5.04098361" height="5.04098361"></rect>
                <rect id="Rectangle" fill="#D8D8D8" x="139.131148" y="76.6229508" width="5.04098361" height="5.04098361"></rect>
                <rect id="Rectangle" fill="#D8D8D8" x="139.131148" y="100.819672" width="5.04098361" height="5.04098361"></rect>
                <rect id="Rectangle" fill="#D8D8D8" x="164.336066" y="76.6229508" width="5.04098361" height="5.04098361"></rect>
                <rect id="Rectangle" fill="#D8D8D8" x="17.1393443" y="100.819672" width="5.04098361" height="5.04098361"></rect>
                <rect id="Rectangle" fill="#D8D8D8" x="42.3442623" y="100.819672" width="5.04098361" height="5.04098361"></rect>
                <rect id="Rectangle" fill="#D8D8D8" x="66.5409836" y="100.819672" width="5.04098361" height="5.04098361"></rect>
                <rect id="Rectangle" fill="#D8D8D8" x="91.7459016" y="100.819672" width="5.04098361" height="5.04098361"></rect>
                <rect id="Rectangle" fill="#D8D8D8" x="114.934426" y="100.819672" width="5.04098361" height="5.04098361"></rect>
                <rect id="Rectangle" fill="#D8D8D8" x="164.336066" y="100.819672" width="5.04098361" height="5.04098361"></rect>
            </g>
            <rect id="Rectangle" fill="#D8D8D8" x="303" y="54" width="34" height="7"></rect>
            <rect id="Rectangle" fill="#D8D8D8" x="150" y="255" width="43" height="18" rx="2"></rect>
            <rect id="Rectangle" fill="#D8D8D8" x="339" y="54" width="34" height="7"></rect>
            <rect id="Rectangle" fill="#D8D8D8" x="375" y="54" width="32" height="7"></rect>
            <rect id="Rectangle" fill="#D8D8D8" x="409" y="54" width="34" height="7"></rect>
            <rect id="Rectangle" fill="#D8D8D8" x="445" y="54" width="32" height="7"></rect>
            <rect id="Rectangle" fill="#D8D8D8" x="479" y="54" width="33" height="7"></rect>
            <rect id="Rectangle" fill="#D8D8D8" x="514" y="54" width="34" height="7"></rect>
            <rect id="Rectangle" fill="#FFFFFF" x="17" y="54" width="176" height="24" rx="2"></rect>
            <rect id="Rectangle" fill="#FFFFFF" x="17" y="91" width="176" height="24" rx="2"></rect>
            <g id="calendar-date-picked" transform="translate(23.000000, 94.000000)" fill="#D8D8D8">
                <g id="calendar-picker">
                    <g>
                        <g id="calendar-blank" transform="translate(0.000000, 1.636364)" fill-rule="nonzero">
                            <path d="M12.8342246,14.7272727 L1.60427807,14.7272727 L1.60427807,5.72727273 L12.8342246,5.72727273 M10.4278075,0 L10.4278075,1.63636364 L4.01069519,1.63636364 L4.01069519,0 L2.40641711,0 L2.40641711,1.63636364 L1.60427807,1.63636364 C0.713903743,1.63636364 0,2.36454545 0,3.27272727 L0,14.7272727 C0,15.6310114 0.71825976,16.3636364 1.60427807,16.3636364 L12.8342246,16.3636364 C13.7202429,16.3636364 14.4385027,15.6310114 14.4385027,14.7272727 L14.4385027,3.27272727 C14.4385027,2.36454545 13.7165775,1.63636364 12.8342246,1.63636364 L12.0320856,1.63636364 L12.0320856,0" id="Shape"></path>
                        </g>
                        <ellipse id="Oval-3" cx="11.2299465" cy="1.63636364" rx="1" ry="1"></ellipse>
                        <ellipse id="Oval-3" cx="3.20855615" cy="1.63636364" rx="1" ry="1"></ellipse>
                        <ellipse id="Oval" cx="9.92647059" cy="10.35" rx="1.76470588" ry="1.8"></ellipse>
                    </g>
                </g>
            </g>
        </g>
    </g>
</svg>