<?xml version="1.0" encoding="utf-8"?>
<!-- Generator: Adobe Illustrator 23.0.4, SVG Export Plug-In . SVG Version: 6.00 Build 0)  -->
<svg version="1.1" id="Layer_1" xmlns="http://www.w3.org/2000/svg" xmlns:xlink="http://www.w3.org/1999/xlink" x="0px" y="0px"
	 viewBox="0 0 512 512" style="enable-background:new 0 0 512 512;" xml:space="preserve">
<style type="text/css">
	.st0{fill-rule:evenodd;clip-rule:evenodd;fill:url(#SVGID_1_);}
	.st1{fill-rule:evenodd;clip-rule:evenodd;fill:#2C2C2C;}
	.st2{fill-rule:evenodd;clip-rule:evenodd;fill:url(#Rectangle_4_);}
	.st3{fill-rule:evenodd;clip-rule:evenodd;fill:url(#Rectangle_5_);}
	.st4{fill-rule:evenodd;clip-rule:evenodd;fill:url(#SVGID_2_);}
	.st5{fill-rule:evenodd;clip-rule:evenodd;fill:url(#SVGID_3_);}
	.st6{fill-rule:evenodd;clip-rule:evenodd;fill:url(#Oval_4_);}
	.st7{fill-rule:evenodd;clip-rule:evenodd;fill:#FFFFFF;}
	.st8{fill-rule:evenodd;clip-rule:evenodd;fill:url(#SVGID_4_);}
	.st9{fill-rule:evenodd;clip-rule:evenodd;fill:#DB2F27;}
	.st10{fill-rule:evenodd;clip-rule:evenodd;fill:#F1AA1E;}
	.st11{fill-rule:evenodd;clip-rule:evenodd;fill:#00BDDD;}
	.st12{fill-rule:evenodd;clip-rule:evenodd;fill:#C1D52F;}
	.st13{fill-rule:evenodd;clip-rule:evenodd;fill:url(#SVGID_5_);}
	.st14{fill-rule:evenodd;clip-rule:evenodd;fill:url(#SVGID_6_);}
	.st15{fill-rule:evenodd;clip-rule:evenodd;fill:url(#SVGID_7_);}
	.st16{fill-rule:evenodd;clip-rule:evenodd;fill:url(#SVGID_8_);}
	.st17{fill-rule:evenodd;clip-rule:evenodd;fill:url(#SVGID_9_);}
	.st18{clip-path:url(#SVGID_11_);}
	.st19{fill-rule:evenodd;clip-rule:evenodd;fill:url(#SVGID_12_);}
</style>
<linearGradient id="SVGID_1_" gradientUnits="userSpaceOnUse" x1="-3237.3811" y1="512.5353" x2="-2734.2451" y2="3.1492">
	<stop  offset="0" style="stop-color:#007758"/>
	<stop  offset="9.167341e-02" style="stop-color:#077A59"/>
	<stop  offset="0.2206" style="stop-color:#19845C"/>
	<stop  offset="0.3718" style="stop-color:#379361"/>
	<stop  offset="0.5396" style="stop-color:#61A967"/>
	<stop  offset="0.7214" style="stop-color:#97C570"/>
	<stop  offset="0.9118" style="stop-color:#D7E67A"/>
	<stop  offset="1" style="stop-color:#F8F77F"/>
</linearGradient>
<rect x="-3240" class="st0" width="512" height="512"/>
<rect x="841" y="2389" class="st1" width="512" height="512"/>
<g>
	<rect x="0" class="st1" width="512" height="512"/>
	<g>
		<linearGradient id="Rectangle_4_" gradientUnits="userSpaceOnUse" x1="181.8249" y1="210.6511" x2="232.7922" y2="210.6511">
			<stop  offset="9.493303e-04" style="stop-color:#932F27"/>
			<stop  offset="0.9278" style="stop-color:#D62F27"/>
			<stop  offset="1" style="stop-color:#DB2F27"/>
		</linearGradient>
		<rect id="Rectangle_1_" x="181.8" y="128.4" class="st2" width="51" height="164.5"/>
		<linearGradient id="Rectangle_5_" gradientUnits="userSpaceOnUse" x1="181.8249" y1="346.1076" x2="232.7922" y2="346.1076">
			<stop  offset="9.493303e-04" style="stop-color:#932F27"/>
			<stop  offset="0.9278" style="stop-color:#D62F27"/>
			<stop  offset="1" style="stop-color:#DB2F27"/>
		</linearGradient>
		<rect id="Rectangle_3_" x="181.8" y="320.6" class="st3" width="51" height="51"/>
		<linearGradient id="SVGID_2_" gradientUnits="userSpaceOnUse" x1="263.8218" y1="346.1075" x2="428.307" y2="346.1075">
			<stop  offset="6.383426e-04" style="stop-color:#C45C1E"/>
			<stop  offset="0.8585" style="stop-color:#EA9F1E"/>
			<stop  offset="0.9995" style="stop-color:#F1AA1E"/>
		</linearGradient>
		<rect x="263.8" y="320.6" class="st4" width="164.5" height="51"/>
		<linearGradient id="SVGID_3_" gradientUnits="userSpaceOnUse" x1="68.307" y1="210.6511" x2="232.7922" y2="210.6511">
			<stop  offset="0" style="stop-color:#006CDD"/>
			<stop  offset="0.8282" style="stop-color:#00AFDD"/>
			<stop  offset="1" style="stop-color:#00BDDD"/>
		</linearGradient>
		<polygon class="st5" points="232.8,128.4 232.8,292.9 68.3,292.9 		"/>
		<linearGradient id="Oval_4_" gradientUnits="userSpaceOnUse" x1="263.892" y1="210.616" x2="428.307" y2="210.616">
			<stop  offset="0" style="stop-color:#C17E2F"/>
			<stop  offset="0.7721" style="stop-color:#C1C12F"/>
			<stop  offset="0.9986" style="stop-color:#C1D52F"/>
		</linearGradient>
		<circle id="Oval_3_" class="st6" cx="346.1" cy="210.6" r="82.2"/>
	</g>
</g>
<g>
	<rect x="221" y="2775.6" class="st7" width="195.3" height="60.5"/>
	<polygon class="st7" points="184.1,2547.3 184.1,2742.6 -11.2,2742.6 	"/>
	<polygon class="st7" points="123.6,2603.7 123.6,2547.3 180,2547.3 	"/>
	<circle id="Oval_1_" class="st7" cx="318.7" cy="2644.9" r="97.6"/>
	<rect x="123.6" y="2775.6" class="st7" width="60.5" height="60.5"/>
</g>
<linearGradient id="SVGID_4_" gradientUnits="userSpaceOnUse" x1="-785.4809" y1="3273.4133" x2="-282.3449" y2="2764.0273">
	<stop  offset="9.694032e-02" style="stop-color:#007758"/>
	<stop  offset="0.3553" style="stop-color:#439A6E"/>
	<stop  offset="0.9525" style="stop-color:#EAF0A4"/>
	<stop  offset="1" style="stop-color:#F8F7A8"/>
</linearGradient>
<rect x="-788.1" y="2760.9" class="st8" width="512" height="512"/>
<g>
	
		<image style="overflow:visible;opacity:5.000000e-02;" width="428" height="307" xlink:href="B2B350346511E585.png"  transform="matrix(1 0 0 1 -2667.1687 2843)">
	</image>
	<g>
		<g>
			<rect id="Rectangle_19_" x="-2521.8" y="2870.3" class="st9" width="52.8" height="170.4"/>
			<rect x="-2436.8" y="3069.5" class="st10" width="170.4" height="52.8"/>
			<polygon class="st11" points="-2469,2870.3 -2469,3040.7 -2639.4,3040.7 			"/>
			<circle id="Oval_19_" class="st12" cx="-2351.6" cy="2955.5" r="85.2"/>
			<rect x="-2521.8" y="3069.5" class="st9" width="52.8" height="52.8"/>
		</g>
	</g>
</g>
<linearGradient id="SVGID_5_" gradientUnits="userSpaceOnUse" x1="-1671.9189" y1="512.5353" x2="-1168.783" y2="3.1492">
	<stop  offset="0" style="stop-color:#522D37"/>
	<stop  offset="0.2595" style="stop-color:#7B3547"/>
	<stop  offset="0.5962" style="stop-color:#AB3F5A"/>
	<stop  offset="0.8539" style="stop-color:#C94566"/>
	<stop  offset="1" style="stop-color:#D4476A"/>
</linearGradient>
<rect x="-1674.5" y="0" class="st13" width="512" height="512"/>
<g>
	
		<image style="overflow:visible;opacity:0.25;" width="391" height="274" xlink:href="B2B350346511E587.png"  transform="matrix(1 0 0 1 -1619.1688 113)">
	</image>
	<g>
		<g>
			<rect id="Rectangle_18_" x="-1490.1" y="128.4" class="st9" width="51" height="164.5"/>
			<rect x="-1408.1" y="320.6" class="st10" width="164.5" height="51"/>
			<polygon class="st11" points="-1439.2,128.4 -1439.2,292.9 -1603.7,292.9 			"/>
			<circle id="Oval_18_" class="st12" cx="-1325.9" cy="210.6" r="82.2"/>
			<rect x="-1490.1" y="320.6" class="st9" width="51" height="51"/>
		</g>
	</g>
</g>
<g>
	<linearGradient id="SVGID_6_" gradientUnits="userSpaceOnUse" x1="-3181.9861" y1="432.208" x2="-2471.9678" y2="-665.6116">
		<stop  offset="0" style="stop-color:#2C2C2C"/>
		<stop  offset="6.110376e-02" style="stop-color:#2D2929"/>
		<stop  offset="0.6597" style="stop-color:#310B0B"/>
		<stop  offset="1" style="stop-color:#330000"/>
	</linearGradient>
	<polygon class="st14" points="-3060.6,179.4 -3174.1,292.9 -3060.6,292.9 -3009.6,292.9 -3009.6,128.4 -3060.6,128.4 	"/>
	<linearGradient id="SVGID_7_" gradientUnits="userSpaceOnUse" x1="-3019.8677" y1="537.0586" x2="-2309.8494" y2="-560.761">
		<stop  offset="0" style="stop-color:#2C2C2C"/>
		<stop  offset="6.110376e-02" style="stop-color:#2D2929"/>
		<stop  offset="0.6597" style="stop-color:#310B0B"/>
		<stop  offset="1" style="stop-color:#330000"/>
	</linearGradient>
	<rect x="-2978.6" y="320.6" class="st15" width="164.5" height="51"/>
	<linearGradient id="SVGID_8_" gradientUnits="userSpaceOnUse" x1="-3081.6284" y1="497.1147" x2="-2371.6099" y2="-600.7048">
		<stop  offset="0" style="stop-color:#2C2C2C"/>
		<stop  offset="6.110376e-02" style="stop-color:#2D2929"/>
		<stop  offset="0.6597" style="stop-color:#310B0B"/>
		<stop  offset="1" style="stop-color:#330000"/>
	</linearGradient>
	<circle class="st16" cx="-2896.3" cy="210.6" r="82.2"/>
	<linearGradient id="SVGID_9_" gradientUnits="userSpaceOnUse" x1="-3117.7009" y1="473.7846" x2="-2407.6826" y2="-624.0349">
		<stop  offset="0" style="stop-color:#2C2C2C"/>
		<stop  offset="6.110376e-02" style="stop-color:#2D2929"/>
		<stop  offset="0.6597" style="stop-color:#310B0B"/>
		<stop  offset="1" style="stop-color:#330000"/>
	</linearGradient>
	<rect x="-3060.6" y="320.6" class="st17" width="51" height="51"/>
</g>
<g>
	<defs>
		<path id="SVGID_10_" d="M-3060.6,128.4h51v164.5h-51h-113.5l113.5-113.5V128.4z M-2978.6,371.6h164.5v-51h-164.5V371.6z
			 M-2896.3,292.8c45.4,0,82.2-36.8,82.2-82.2c0-45.4-36.8-82.2-82.2-82.2s-82.2,36.8-82.2,82.2
			C-2978.5,256-2941.7,292.8-2896.3,292.8z M-3060.6,371.6h51v-51h-51V371.6z"/>
	</defs>
	<clipPath id="SVGID_11_">
		<use xlink:href="#SVGID_10_"  style="overflow:visible;"/>
	</clipPath>
	<g class="st18">
		
			<image style="overflow:visible;" width="425" height="313" xlink:href="B2B350346511E582.png"  transform="matrix(1 0 0 1 -3209.1687 98)">
		</image>
		<g>
			<linearGradient id="SVGID_12_" gradientUnits="userSpaceOnUse" x1="-3407.0684" y1="1288.8547" x2="-335.4915" y2="-6402.7798">
				<stop  offset="0" style="stop-color:#363636"/>
				<stop  offset="0.2" style="stop-color:#352929"/>
				<stop  offset="0.71" style="stop-color:#340B0B"/>
				<stop  offset="1" style="stop-color:#330000"/>
			</linearGradient>
			<path class="st19" d="M-3189.1,109v281.2h394.1V109H-3189.1z M-3009.6,371.6h-51v-51h51V371.6z M-3009.6,292.9h-51h-113.5
				l113.5-113.5v-51h51V292.9z M-2814.1,371.6h-164.5v-51h164.5V371.6z M-2896.3,292.8c-45.4,0-82.2-36.8-82.2-82.2
				c0-45.4,36.8-82.2,82.2-82.2s82.2,36.8,82.2,82.2C-2814.1,256-2850.9,292.8-2896.3,292.8z"/>
		</g>
	</g>
</g>
<g>
	
		<image style="overflow:visible;opacity:5.000000e-02;" width="428" height="307" xlink:href="B2B350346511E583.png"  transform="matrix(1 0 0 1 -3209.1687 2863)">
	</image>
	<g>
		<g>
			<rect id="Rectangle_17_" x="-3064" y="2890.9" class="st1" width="52.8" height="170.4"/>
			<rect x="-2979.1" y="3090.1" class="st1" width="170.4" height="52.8"/>
			<polygon class="st1" points="-3011.2,2890.9 -3011.2,3061.3 -3181.6,3061.3 			"/>
			<circle id="Oval_17_" class="st1" cx="-2893.8" cy="2976.1" r="85.2"/>
			<rect x="-3064" y="3090.1" class="st1" width="52.8" height="52.8"/>
		</g>
	</g>
</g>
</svg>
