<?xml version="1.0" encoding="UTF-8"?>
<svg width="856px" height="310px" viewBox="0 0 856 310" version="1.1" xmlns="http://www.w3.org/2000/svg" xmlns:xlink="http://www.w3.org/1999/xlink">
    <!-- Generator: Sketch 53.2 (72643) - https://sketchapp.com -->
    <title>Group</title>
    <desc>Created with Sketch.</desc>
    <g id="Page-1" stroke="none" stroke-width="1" fill="none" fill-rule="evenodd">
        <g id="Desktop-Copy-2" transform="translate(-84.000000, -110.000000)">
            <g id="Group" transform="translate(84.000000, 110.000000)">
                <rect id="Rectangle" fill="#A602C0" x="0" y="0" width="209" height="310"></rect>
                <rect id="Rectangle" fill="#A602C0" x="647" y="0" width="209" height="310"></rect>
                <rect id="Rectangle" fill="#D8D8D8" x="550" y="256" width="63" height="27"></rect>
                <rect id="Rectangle" fill="#FFFFFF" x="17" y="43" width="175" height="24" rx="2"></rect>
                <rect id="Rectangle" fill="#FFFFFF" x="17" y="83" width="175" height="24" rx="2"></rect>
                <rect id="Rectangle" fill="#7A048C" x="211" y="0" width="434" height="310"></rect>
                <rect id="Rectangle" fill="#FFFFFF" x="664" y="102" width="175" height="24" rx="2"></rect>
                <rect id="Rectangle" fill="#FFFFFF" x="17" y="83" width="175" height="24" rx="2"></rect>
                <rect id="Rectangle" fill="#FFFFFF" x="244" y="43" width="175" height="24" rx="2"></rect>
                <rect id="Rectangle" fill="#FFFFFF" x="244" y="123" width="369" height="117" rx="2"></rect>
                <rect id="Rectangle" fill="#FFFFFF" x="244" y="83" width="104" height="24" rx="2"></rect>
                <rect id="Rectangle" fill="#FFFFFF" x="376" y="83" width="104" height="24" rx="2"></rect>
                <rect id="Rectangle" fill="#FFFFFF" x="508" y="83" width="104" height="24" rx="2"></rect>
                <rect id="Rectangle" fill="#FFFFFF" x="438" y="43" width="175" height="24" rx="2"></rect>
                <rect id="Rectangle" fill="#FFFFFF" x="664" y="142" width="175" height="24" rx="2"></rect>
                <rect id="Rectangle" fill="#FFFFFF" x="17" y="163" width="175" height="77" rx="2"></rect>
                <rect id="Rectangle" fill="#FFFFFF" x="17" y="123" width="82" height="24" rx="2"></rect>
                <rect id="Rectangle" fill="#FFFFFF" x="110" y="123" width="82" height="24" rx="2"></rect>
                <rect id="Rectangle" fill="#D8D8D8" x="129" y="256" width="63" height="27"></rect>
                <rect id="Rectangle" fill="#D8D8D8" x="776" y="182" width="63" height="27"></rect>
            </g>
        </g>
    </g>
</svg>