<?xml version="1.0" encoding="UTF-8"?>
<svg width="386px" height="202px" viewBox="0 0 386 202" version="1.1" xmlns="http://www.w3.org/2000/svg" xmlns:xlink="http://www.w3.org/1999/xlink">
    <!-- Generator: Sketch 53.2 (72643) - https://sketchapp.com -->
    <title>Group 6</title>
    <desc>Created with Sketch.</desc>
    <g id="Page-1" stroke="none" stroke-width="1" fill="none" fill-rule="evenodd">
        <g id="Desktop-HD" transform="translate(-311.000000, -334.000000)">
            <g id="Group-6" transform="translate(311.000000, 334.000000)">
                <rect id="Rectangle" fill="#F4F4F4" x="0" y="0" width="386" height="202"></rect>
                <g id="user-name" transform="translate(36.000000, 81.000000)">
                    <path d="M2,0.5 C1.17157288,0.5 0.5,1.17157288 0.5,2 L0.5,37 C0.5,37.8284271 1.17157288,38.5 2,38.5 L310,38.5 C310.828427,38.5 311.5,37.8284271 311.5,37 L311.5,2 C311.5,1.17157288 310.828427,0.5 310,0.5 L2,0.5 Z" id="Rectangle-10" stroke="#E4E4E4" fill="#FFFFFF"></path>
                    <text id="Form-Field-with-Icon" font-family="Verdana" font-size="12" font-weight="normal" fill="#979797">
                        <tspan x="40" y="24">Form Field with Icon*</tspan>
                    </text>
                    <g id="calendar-date-picked" transform="translate(14.000000, 8.000000)">
                        <g id="calendar-picker">
                            <g>
                                <g id="calendar-blank" transform="translate(0.000000, 1.818182)" fill="#979797" fill-rule="nonzero">
                                    <path d="M14.5454545,16.3636364 L1.81818182,16.3636364 L1.81818182,6.36363636 L14.5454545,6.36363636 M11.8181818,0 L11.8181818,1.81818182 L4.54545455,1.81818182 L4.54545455,0 L2.72727273,0 L2.72727273,1.81818182 L1.81818182,1.81818182 C0.809090909,1.81818182 0,2.62727273 0,3.63636364 L0,16.3636364 C0,17.3677905 0.814027728,18.1818182 1.81818182,18.1818182 L14.5454545,18.1818182 C15.5496086,18.1818182 16.3636364,17.3677905 16.3636364,16.3636364 L16.3636364,3.63636364 C16.3636364,2.62727273 15.5454545,1.81818182 14.5454545,1.81818182 L13.6363636,1.81818182 L13.6363636,0" id="Shape"></path>
                                </g>
                                <circle id="Oval-3" fill="#979797" cx="12.7272727" cy="1.81818182" r="1"></circle>
                                <circle id="Oval-3" fill="#979797" cx="3.63636364" cy="1.81818182" r="1"></circle>
                                <circle id="Oval" fill="#8FA500" cx="11.25" cy="11.5" r="2"></circle>
                            </g>
                        </g>
                    </g>
                </g>
            </g>
        </g>
    </g>
</svg>