<?xml version="1.0" encoding="UTF-8"?>
<svg width="856px" height="312px" viewBox="0 0 856 312" version="1.1" xmlns="http://www.w3.org/2000/svg" xmlns:xlink="http://www.w3.org/1999/xlink">
    <!-- Generator: Sketch 53.2 (72643) - https://sketchapp.com -->
    <title>foundations-overview-banner</title>
    <desc>Created with Sketch.</desc>
    <g id="Welcome" stroke="none" stroke-width="1" fill="none" fill-rule="evenodd">
        <g id="Assets" transform="translate(-406.000000, -2346.000000)">
            <g id="foundations-overview-banner" transform="translate(406.000000, 2347.000000)">
                <g id="foundations-banner-copy" fill-rule="evenodd" fill="#BD3F6E">
                    <rect id="Rectangle" x="0.5" y="0" width="855" height="310"></rect>
                </g>
                <path d="M38.5,0 L38.5,310" id="Line-3" stroke="#FFFFFF" stroke-linecap="square"></path>
                <path d="M382.5,0 L382.5,310" id="Line-3-Copy-16" stroke="#FFFFFF" stroke-linecap="square"></path>
                <path d="M210.5,0 L210.5,310" id="Line-3-Copy-8" stroke="#FFFFFF" stroke-linecap="square"></path>
                <path d="M554.5,0 L554.5,310" id="Line-3-Copy-17" stroke="#FFFFFF" stroke-linecap="square"></path>
                <path d="M726.5,0 L726.5,310" id="Line-3-Copy-32" stroke="#FFFFFF" stroke-linecap="square"></path>
                <path d="M124.5,0 L124.5,310" id="Line-3-Copy-4" stroke="#FFFFFF" stroke-linecap="square"></path>
                <path d="M468.5,0 L468.5,310" id="Line-3-Copy-18" stroke="#FFFFFF" stroke-linecap="square"></path>
                <path d="M296.5,0 L296.5,310" id="Line-3-Copy-9" stroke="#FFFFFF" stroke-linecap="square"></path>
                <path d="M640.5,0 L640.5,310" id="Line-3-Copy-19" stroke="#FFFFFF" stroke-linecap="square"></path>
                <path d="M812.5,0 L812.5,310" id="Line-3-Copy-33" stroke="#FFFFFF" stroke-linecap="square"></path>
                <path d="M81.5,0 L81.5,310" id="Line-3-Copy-2" stroke="#FFFFFF" stroke-linecap="square"></path>
                <path d="M425.5,0 L425.5,310" id="Line-3-Copy-20" stroke="#FFFFFF" stroke-linecap="square"></path>
                <path d="M253.5,0 L253.5,310" id="Line-3-Copy-10" stroke="#FFFFFF" stroke-linecap="square"></path>
                <path d="M597.5,0 L597.5,310" id="Line-3-Copy-21" stroke="#FFFFFF" stroke-linecap="square"></path>
                <path d="M769.5,0 L769.5,310" id="Line-3-Copy-34" stroke="#FFFFFF" stroke-linecap="square"></path>
                <path d="M167.5,0 L167.5,310" id="Line-3-Copy-5" stroke="#FFFFFF" stroke-linecap="square"></path>
                <path d="M511.5,0 L511.5,310" id="Line-3-Copy-22" stroke="#FFFFFF" stroke-linecap="square"></path>
                <path d="M339.5,0 L339.5,310" id="Line-3-Copy-11" stroke="#FFFFFF" stroke-linecap="square"></path>
                <path d="M683.5,0 L683.5,310" id="Line-3-Copy-23" stroke="#FFFFFF" stroke-linecap="square"></path>
                <path d="M48.5,0 L48.5,310" id="Line-3-Copy" stroke="#FFFFFF" stroke-linecap="square"></path>
                <path d="M392.5,0 L392.5,310" id="Line-3-Copy-24" stroke="#FFFFFF" stroke-linecap="square"></path>
                <path d="M220.5,0 L220.5,310" id="Line-3-Copy-12" stroke="#FFFFFF" stroke-linecap="square"></path>
                <path d="M564.5,0 L564.5,310" id="Line-3-Copy-25" stroke="#FFFFFF" stroke-linecap="square"></path>
                <path d="M736.5,0 L736.5,310" id="Line-3-Copy-36" stroke="#FFFFFF" stroke-linecap="square"></path>
                <path d="M134.5,0 L134.5,310" id="Line-3-Copy-6" stroke="#FFFFFF" stroke-linecap="square"></path>
                <path d="M478.5,0 L478.5,310" id="Line-3-Copy-26" stroke="#FFFFFF" stroke-linecap="square"></path>
                <path d="M306.5,0 L306.5,310" id="Line-3-Copy-13" stroke="#FFFFFF" stroke-linecap="square"></path>
                <path d="M650.5,0 L650.5,310" id="Line-3-Copy-27" stroke="#FFFFFF" stroke-linecap="square"></path>
                <path d="M822.5,0 L822.5,310" id="Line-3-Copy-37" stroke="#FFFFFF" stroke-linecap="square"></path>
                <path d="M91.5,0 L91.5,310" id="Line-3-Copy-3" stroke="#FFFFFF" stroke-linecap="square"></path>
                <path d="M435.5,0 L435.5,310" id="Line-3-Copy-28" stroke="#FFFFFF" stroke-linecap="square"></path>
                <path d="M263.5,0 L263.5,310" id="Line-3-Copy-14" stroke="#FFFFFF" stroke-linecap="square"></path>
                <path d="M607.5,0 L607.5,310" id="Line-3-Copy-29" stroke="#FFFFFF" stroke-linecap="square"></path>
                <path d="M779.5,0 L779.5,310" id="Line-3-Copy-38" stroke="#FFFFFF" stroke-linecap="square"></path>
                <path d="M177.5,0 L177.5,310" id="Line-3-Copy-7" stroke="#FFFFFF" stroke-linecap="square"></path>
                <path d="M521.5,0 L521.5,310" id="Line-3-Copy-30" stroke="#FFFFFF" stroke-linecap="square"></path>
                <path d="M349.5,0 L349.5,310" id="Line-3-Copy-15" stroke="#FFFFFF" stroke-linecap="square"></path>
                <path d="M693.5,0 L693.5,310" id="Line-3-Copy-31" stroke="#FFFFFF" stroke-linecap="square"></path>
                <path d="M0.5,63.5 L855.5,63.5" id="Line-4" stroke="#FFFFFF" stroke-linecap="square"></path>
                <path d="M0.5,145.5 L855.5,145.5" id="Line-4-Copy-2" stroke="#FFFFFF" stroke-linecap="square"></path>
                <path d="M0.5,227.5 L855.5,227.5" id="Line-4-Copy-4" stroke="#FFFFFF" stroke-linecap="square"></path>
                <path d="M0.5,83.5 L855.5,83.5" id="Line-4-Copy" stroke="#FFFFFF" stroke-linecap="square"></path>
                <path d="M0.5,165.5 L855.5,165.5" id="Line-4-Copy-3" stroke="#FFFFFF" stroke-linecap="square"></path>
                <path d="M0.5,247.5 L855.5,247.5" id="Line-4-Copy-5" stroke="#FFFFFF" stroke-linecap="square"></path>
            </g>
        </g>
    </g>
</svg>