<?xml version="1.0" encoding="UTF-8"?>
<svg width="855px" height="310px" viewBox="0 0 855 310" version="1.1" xmlns="http://www.w3.org/2000/svg" xmlns:xlink="http://www.w3.org/1999/xlink">
    <!-- Generator: Sketch 53.2 (72643) - https://sketchapp.com -->
    <title>foundations-banner</title>
    <desc>Created with Sketch.</desc>
    <g id="Welcome" stroke="none" stroke-width="1" fill="none" fill-rule="evenodd">
        <g id="Assets" transform="translate(-420.000000, -1825.000000)">
            <g id="foundations-banner" transform="translate(419.500000, 1825.000000)">
                <rect id="Rectangle" fill="#BD3F6E" x="0.5" y="0" width="855" height="310"></rect>
                <rect id="Rectangle" fill="#FFFFFF" x="6.5" y="267" width="162" height="35"></rect>
                <rect id="Rectangle-Copy-20" fill="#FFFFFF" x="345.5" y="267" width="163" height="35"></rect>
                <rect id="Rectangle-Copy-22" fill="#FFFFFF" x="685.5" y="267" width="162" height="35"></rect>
                <rect id="Rectangle-Copy-19" fill="#FFFFFF" x="176.5" y="267" width="162" height="35"></rect>
                <rect id="Rectangle-Copy-21" fill="#FFFFFF" x="515.5" y="267" width="162" height="35"></rect>
                <rect id="Rectangle-Copy-33" fill="#FFFFFF" x="515.5" y="226" width="162" height="35"></rect>
                <rect id="Rectangle-Copy-10" fill="#FFFFFF" x="6.5" y="226" width="81" height="35"></rect>
                <rect id="Rectangle-Copy-29" fill="#FFFFFF" x="766.5" y="226" width="81" height="35"></rect>
                <rect id="Rectangle-Copy-34" fill="#FFFFFF" x="596.5" y="185" width="81" height="35"></rect>
                <rect id="Rectangle-Copy-36" fill="#FFFFFF" x="596.5" y="145" width="81" height="35"></rect>
                <rect id="Rectangle-Copy-23" fill="#FFFFFF" x="257.5" y="226" width="81" height="35"></rect>
                <rect id="Rectangle-Copy-17" fill="#FFFFFF" transform="translate(25.500000, 155.500000) rotate(90.000000) translate(-25.500000, -155.500000) " x="-39" y="136.5" width="129" height="38"></rect>
                <rect id="Rectangle-Copy-30" fill="#FFFFFF" transform="translate(828.500000, 155.500000) rotate(90.000000) translate(-828.500000, -155.500000) " x="764" y="136.5" width="129" height="38"></rect>
                <rect id="Rectangle-Copy-18" fill="#FFFFFF" transform="translate(68.500000, 187.500000) rotate(90.000000) translate(-68.500000, -187.500000) " x="36" y="168.5" width="65" height="38"></rect>
                <rect id="Rectangle-Copy-24" fill="#FFFFFF" transform="translate(454.500000, 244.500000) rotate(90.000000) translate(-454.500000, -244.500000) " x="438" y="225.5" width="33" height="38"></rect>
                <rect id="Rectangle-Copy-31" fill="#FFFFFF" transform="translate(828.500000, 68.500000) rotate(90.000000) translate(-828.500000, -68.500000) " x="812" y="49.5" width="33" height="38"></rect>
                <rect id="Rectangle-Copy-26" fill="#FFFFFF" transform="translate(329.000000, 142.000000) rotate(90.000000) translate(-329.000000, -142.000000) " x="321" y="132.5" width="16" height="19"></rect>
                <rect id="Rectangle-Copy-27" fill="#FFFFFF" transform="translate(419.000000, 183.000000) rotate(90.000000) translate(-419.000000, -183.000000) " x="411" y="173.5" width="16" height="19"></rect>
                <rect id="Rectangle-Copy-32" fill="#FFFFFF" transform="translate(423.500000, 166.500000) rotate(90.000000) translate(-423.500000, -166.500000) " x="419" y="161.5" width="9" height="10"></rect>
                <rect id="Rectangle-Copy-37" fill="#FFFFFF" transform="translate(586.500000, 148.000000) rotate(90.000000) translate(-586.500000, -148.000000) " x="583.5" y="143" width="6" height="10"></rect>
                <rect id="Rectangle-Copy-25" fill="#FFFFFF" transform="translate(319.500000, 187.500000) rotate(90.000000) translate(-319.500000, -187.500000) " x="287" y="168.5" width="65" height="38"></rect>
                <rect id="Rectangle-Copy-35" fill="#FFFFFF" transform="translate(572.500000, 187.500000) rotate(90.000000) translate(-572.500000, -187.500000) " x="540" y="168.5" width="65" height="38"></rect>
                <rect id="Rectangle-Copy-38" fill="#FFFFFF" transform="translate(615.500000, 107.500000) rotate(90.000000) translate(-615.500000, -107.500000) " x="583" y="88.5" width="65" height="38"></rect>
                <rect id="Rectangle-Copy-28" fill="#FFFFFF" transform="translate(409.500000, 228.500000) rotate(90.000000) translate(-409.500000, -228.500000) " x="377" y="209.5" width="65" height="38"></rect>
            </g>
        </g>
    </g>
</svg>