<?xml version="1.0" encoding="UTF-8"?>
<svg width="300px" height="152px" viewBox="0 0 300 152" version="1.1" xmlns="http://www.w3.org/2000/svg" xmlns:xlink="http://www.w3.org/1999/xlink">
    <!-- Generator: Sketch 61.2 (89653) - https://sketch.com -->
    <title>icon-size-example</title>
    <desc>Created with Sketch.</desc>
    <g id="Welcome" stroke="none" stroke-width="1" fill="none" fill-rule="evenodd">
        <g id="Icons" transform="translate(-570.000000, -1406.000000)">
            <g id="icons" transform="translate(328.000000, 518.000000)">
                <g id="icon-size-example" transform="translate(242.000000, 888.000000)">
                    <rect id="Rectangle-9-Copy-4" fill="#F4F4F4" fill-rule="evenodd" x="0" y="0" width="300" height="152" rx="2"></rect>
                    <rect id="Rectangle-9-Copy-2" fill="#707070" fill-rule="evenodd" x="208" y="45" width="48" height="48"></rect>
                    <rect id="Rectangle-9-Copy" fill="#707070" fill-rule="evenodd" x="122" y="61" width="32" height="32"></rect>
                    <rect id="Rectangle-9" fill="#707070" fill-rule="evenodd" x="48" y="77" width="16" height="16"></rect>
                    <path d="M46.8025,108 L46.8025,107.252 L45.2515,107.252 L45.2515,100.102 L44.454,100.102 L42.111,102.1315 L42.419,102.555 C42.441,102.588 42.474,102.616417 42.518,102.64025 C42.562,102.664083 42.6115,102.676 42.6665,102.676 C42.6995,102.676 42.7343333,102.669583 42.771,102.65675 C42.8076667,102.643917 42.8443333,102.622833 42.881,102.5935 L42.881,102.5935 L44.289,101.389 C44.278,101.554 44.2725,101.717167 44.2725,101.8785 L44.2725,101.8785 L44.2725,107.252 L42.5785,107.252 L42.5785,108 L46.8025,108 Z M50.581,108.088 C50.9806667,108.088 51.3473333,108.022 51.681,107.89 C52.0146667,107.758 52.29975,107.5765 52.53625,107.3455 C52.77275,107.1145 52.957,106.843167 53.089,106.5315 C53.221,106.219833 53.287,105.8825 53.287,105.5195 C53.287,105.1455 53.2246667,104.81275 53.1,104.52125 C52.9753333,104.22975 52.8066667,103.984083 52.594,103.78425 C52.3813333,103.584417 52.1338333,103.43225 51.8515,103.32775 C51.5691667,103.22325 51.2703333,103.171 50.955,103.171 C50.691,103.171 50.4453333,103.20675 50.218,103.27825 C49.9906667,103.34975 49.7835,103.449667 49.5965,103.578 L49.5965,103.578 L52.33,100.1185 L51.461,100.1185 C51.3436667,100.1185 51.2391667,100.141417 51.1475,100.18725 C51.0558333,100.233083 50.9843333,100.289 50.933,100.355 L50.933,100.355 L48.9365,103.0445 C48.6028333,103.491833 48.359,103.909833 48.205,104.2985 C48.051,104.687167 47.974,105.053833 47.974,105.3985 C47.974,105.809167 48.0354167,106.180417 48.15825,106.51225 C48.2810833,106.844083 48.4561667,107.126417 48.6835,107.35925 C48.9108333,107.592083 49.1849167,107.77175 49.50575,107.89825 C49.8265833,108.02475 50.185,108.088 50.581,108.088 Z M50.5645,107.274 C50.3041667,107.274 50.07225,107.23275 49.86875,107.15025 C49.66525,107.06775 49.4929167,106.951333 49.35175,106.801 C49.2105833,106.650667 49.1033333,106.471 49.03,106.262 C48.9566667,106.053 48.92,105.822 48.92,105.569 C48.92,105.352667 48.9594167,105.144583 49.03825,104.94475 C49.1170833,104.744917 49.23075,104.568917 49.37925,104.41675 C49.52775,104.264583 49.7083333,104.143583 49.921,104.05375 C50.1336667,103.963917 50.372,103.919 50.636,103.919 C50.8816667,103.919 51.1071667,103.9575 51.3125,104.0345 C51.5178333,104.1115 51.6938333,104.222417 51.8405,104.36725 C51.9871667,104.512083 52.1008333,104.688083 52.1815,104.89525 C52.2621667,105.102417 52.3025,105.334333 52.3025,105.591 C52.3025,105.833 52.26125,106.056667 52.17875,106.262 C52.09625,106.467333 51.9789167,106.645167 51.82675,106.7955 C51.6745833,106.945833 51.4921667,107.063167 51.2795,107.1475 C51.0668333,107.231833 50.8285,107.274 50.5645,107.274 Z M54.7885,108 C54.8618333,108 54.9195833,107.978917 54.96175,107.93675 C55.0039167,107.894583 55.0433333,107.847833 55.08,107.7965 L55.08,107.7965 L56.378,105.899 C56.4293333,105.814667 56.4678333,105.719333 56.4935,105.613 L56.4935,105.613 L57.896,107.7965 C57.9253333,107.847833 57.9629167,107.894583 58.00875,107.93675 C58.0545833,107.978917 58.1178333,108 58.1985,108 L58.1985,108 L59.139,108 L57.1865,105.0905 L59.062,102.4285 L58.16,102.4285 C58.105,102.4285 58.0591667,102.444083 58.0225,102.47525 C57.9858333,102.506417 57.9491667,102.547667 57.9125,102.599 L57.9125,102.599 L56.7135,104.359 C56.6511667,104.461667 56.6035,104.564333 56.5705,104.667 L56.5705,104.667 L55.2065,102.577 C55.1771667,102.529333 55.1441667,102.492667 55.1075,102.467 C55.0708333,102.441333 55.0121667,102.4285 54.9315,102.4285 L54.9315,102.4285 L53.991,102.4285 L55.8665,105.1455 L53.914,108 L54.7885,108 Z M65.1065,108 L65.1065,107.252 L63.5555,107.252 L63.5555,100.102 L62.758,100.102 L60.415,102.1315 L60.723,102.555 C60.745,102.588 60.778,102.616417 60.822,102.64025 C60.866,102.664083 60.9155,102.676 60.9705,102.676 C61.0035,102.676 61.0383333,102.669583 61.075,102.65675 C61.1116667,102.643917 61.1483333,102.622833 61.185,102.5935 L61.185,102.5935 L62.593,101.389 C62.582,101.554 62.5765,101.717167 62.5765,101.8785 L62.5765,101.8785 L62.5765,107.252 L60.8825,107.252 L60.8825,108 L65.1065,108 Z M68.885,108.088 C69.2846667,108.088 69.6513333,108.022 69.985,107.89 C70.3186667,107.758 70.60375,107.5765 70.84025,107.3455 C71.07675,107.1145 71.261,106.843167 71.393,106.5315 C71.525,106.219833 71.591,105.8825 71.591,105.5195 C71.591,105.1455 71.5286667,104.81275 71.404,104.52125 C71.2793333,104.22975 71.1106667,103.984083 70.898,103.78425 C70.6853333,103.584417 70.4378333,103.43225 70.1555,103.32775 C69.8731667,103.22325 69.5743333,103.171 69.259,103.171 C68.995,103.171 68.7493333,103.20675 68.522,103.27825 C68.2946667,103.34975 68.0875,103.449667 67.9005,103.578 L67.9005,103.578 L70.634,100.1185 L69.765,100.1185 C69.6476667,100.1185 69.5431667,100.141417 69.4515,100.18725 C69.3598333,100.233083 69.2883333,100.289 69.237,100.355 L69.237,100.355 L67.2405,103.0445 C66.9068333,103.491833 66.663,103.909833 66.509,104.2985 C66.355,104.687167 66.278,105.053833 66.278,105.3985 C66.278,105.809167 66.3394167,106.180417 66.46225,106.51225 C66.5850833,106.844083 66.7601667,107.126417 66.9875,107.35925 C67.2148333,107.592083 67.4889167,107.77175 67.80975,107.89825 C68.1305833,108.02475 68.489,108.088 68.885,108.088 Z M68.8685,107.274 C68.6081667,107.274 68.37625,107.23275 68.17275,107.15025 C67.96925,107.06775 67.7969167,106.951333 67.65575,106.801 C67.5145833,106.650667 67.4073333,106.471 67.334,106.262 C67.2606667,106.053 67.224,105.822 67.224,105.569 C67.224,105.352667 67.2634167,105.144583 67.34225,104.94475 C67.4210833,104.744917 67.53475,104.568917 67.68325,104.41675 C67.83175,104.264583 68.0123333,104.143583 68.225,104.05375 C68.4376667,103.963917 68.676,103.919 68.94,103.919 C69.1856667,103.919 69.4111667,103.9575 69.6165,104.0345 C69.8218333,104.1115 69.9978333,104.222417 70.1445,104.36725 C70.2911667,104.512083 70.4048333,104.688083 70.4855,104.89525 C70.5661667,105.102417 70.6065,105.334333 70.6065,105.591 C70.6065,105.833 70.56525,106.056667 70.48275,106.262 C70.40025,106.467333 70.2829167,106.645167 70.13075,106.7955 C69.9785833,106.945833 69.7961667,107.063167 69.5835,107.1475 C69.3708333,107.231833 69.1325,107.274 68.8685,107.274 Z" id="16x16" fill-opacity="0.8" fill="#000000" fill-rule="nonzero"></path>
                    <path d="M125.2615,108.088 C125.6245,108.088 125.964583,108.033917 126.28175,107.92575 C126.598917,107.817583 126.876667,107.66175 127.115,107.45825 C127.353333,107.25475 127.54125,107.008167 127.67875,106.7185 C127.81625,106.428833 127.885,106.1025 127.885,105.7395 C127.885,105.259167 127.75575,104.8595 127.49725,104.5405 C127.23875,104.2215 126.852833,103.994167 126.3395,103.8585 C126.5485,103.796167 126.737333,103.713667 126.906,103.611 C127.074667,103.508333 127.218583,103.38275 127.33775,103.23425 C127.456917,103.08575 127.548583,102.913417 127.61275,102.71725 C127.676917,102.521083 127.709,102.298333 127.709,102.049 C127.709,101.744667 127.652167,101.467833 127.5385,101.2185 C127.424833,100.969167 127.26625,100.7565 127.06275,100.5805 C126.85925,100.4045 126.616333,100.268833 126.334,100.1735 C126.051667,100.078167 125.743667,100.0305 125.41,100.0305 C125.072667,100.0305 124.75825,100.079083 124.46675,100.17625 C124.17525,100.273417 123.91675,100.4155 123.69125,100.6025 C123.46575,100.7895 123.279667,101.021417 123.133,101.29825 C122.986333,101.575083 122.887333,101.893167 122.836,102.2525 L122.836,102.2525 L123.3475,102.3405 C123.373167,102.344167 123.396083,102.346917 123.41625,102.34875 C123.436417,102.350583 123.455667,102.3515 123.474,102.3515 C123.565667,102.3515 123.640833,102.327667 123.6995,102.28 C123.758167,102.232333 123.802167,102.155333 123.8315,102.049 C123.8755,101.880333 123.9415,101.723583 124.0295,101.57875 C124.1175,101.433917 124.226583,101.30925 124.35675,101.20475 C124.486917,101.10025 124.636333,101.018667 124.805,100.96 C124.973667,100.901333 125.157,100.872 125.355,100.872 C125.553,100.872 125.73725,100.8995 125.90775,100.9545 C126.07825,101.0095 126.225833,101.092 126.3505,101.202 C126.475167,101.312 126.57325,101.451333 126.64475,101.62 C126.71625,101.788667 126.752,101.986667 126.752,102.214 C126.752,102.419333 126.718083,102.606333 126.65025,102.775 C126.582417,102.943667 126.473333,103.0885 126.323,103.2095 C126.172667,103.3305 125.97925,103.425833 125.74275,103.4955 C125.50625,103.565167 125.221167,103.601833 124.8875,103.6055 L124.8875,103.6055 L124.8875,104.315 C125.298167,104.315 125.634583,104.351667 125.89675,104.425 C126.158917,104.498333 126.36425,104.599167 126.51275,104.7275 C126.66125,104.855833 126.763917,105.008 126.82075,105.184 C126.877583,105.36 126.906,105.554333 126.906,105.767 C126.906,105.939333 126.871167,106.1135 126.8015,106.2895 C126.731833,106.4655 126.62825,106.625 126.49075,106.768 C126.35325,106.911 126.180917,107.027417 125.97375,107.11725 C125.766583,107.207083 125.5255,107.252 125.2505,107.252 C124.9755,107.252 124.745417,107.211667 124.56025,107.131 C124.375083,107.050333 124.220167,106.951333 124.0955,106.834 C123.970833,106.716667 123.871833,106.591083 123.7985,106.45725 C123.725167,106.323417 123.662833,106.203333 123.6115,106.097 C123.604167,106.078667 123.596833,106.06125 123.5895,106.04475 C123.582167,106.02825 123.574833,106.012667 123.5675,105.998 C123.538167,105.932 123.495083,105.883417 123.43825,105.85225 C123.381417,105.821083 123.316333,105.8055 123.243,105.8055 C123.166,105.8055 123.089,105.822 123.012,105.855 L123.012,105.855 L122.594,106.031 C122.685667,106.324333 122.7975,106.596583 122.9295,106.84775 C123.0615,107.098917 123.230167,107.316167 123.4355,107.4995 C123.640833,107.682833 123.892,107.82675 124.189,107.93125 C124.486,108.03575 124.8435,108.088 125.2615,108.088 Z M134.21,108 L134.21,107.406 C134.21,107.307 134.178833,107.226333 134.1165,107.164 C134.054167,107.101667 133.969833,107.0705 133.8635,107.0705 L133.8635,107.0705 L131.2235,107.0705 C131.084167,107.0705 130.939333,107.082417 130.789,107.10625 C130.638667,107.130083 130.490167,107.162167 130.3435,107.2025 L130.3435,107.2025 L132.417,105.0795 C132.637,104.855833 132.845083,104.63675 133.04125,104.42225 C133.237417,104.20775 133.410667,103.985917 133.561,103.75675 C133.711333,103.527583 133.8305,103.288333 133.9185,103.039 C134.0065,102.789667 134.0505,102.518333 134.0505,102.225 C134.0505,101.880333 133.99,101.572333 133.869,101.301 C133.748,101.029667 133.582083,100.799583 133.37125,100.61075 C133.160417,100.421917 132.910167,100.278 132.6205,100.179 C132.330833,100.08 132.019167,100.0305 131.6855,100.0305 C131.348167,100.0305 131.03375,100.079083 130.74225,100.17625 C130.45075,100.273417 130.19225,100.4155 129.96675,100.6025 C129.74125,100.7895 129.555167,101.021417 129.4085,101.29825 C129.261833,101.575083 129.162833,101.893167 129.1115,102.2525 L129.1115,102.2525 L129.623,102.3405 C129.648667,102.344167 129.671583,102.346917 129.69175,102.34875 C129.711917,102.350583 129.731167,102.3515 129.7495,102.3515 C129.844833,102.3515 129.921833,102.327667 129.9805,102.28 C130.039167,102.232333 130.083167,102.155333 130.1125,102.049 C130.149167,101.876667 130.212417,101.719 130.30225,101.576 C130.392083,101.433 130.502083,101.30925 130.63225,101.20475 C130.762417,101.10025 130.911833,101.018667 131.0805,100.96 C131.249167,100.901333 131.4325,100.872 131.6305,100.872 C131.8285,100.872 132.013667,100.900417 132.186,100.95725 C132.358333,101.014083 132.508667,101.099333 132.637,101.213 C132.765333,101.326667 132.866167,101.470583 132.9395,101.64475 C133.012833,101.818917 133.0495,102.0215 133.0495,102.2525 C133.0495,102.4835 133.0165,102.70075 132.9505,102.90425 C132.8845,103.10775 132.790083,103.3085 132.66725,103.5065 C132.544417,103.7045 132.396833,103.901583 132.2245,104.09775 C132.052167,104.293917 131.8615,104.498333 131.6525,104.711 L131.6525,104.711 L129.128,107.2465 C129.065667,107.308833 129.02075,107.376667 128.99325,107.45 C128.96575,107.523333 128.952,107.594833 128.952,107.6645 L128.952,107.6645 L128.952,108 L134.21,108 Z M135.7885,108 C135.861833,108 135.919583,107.978917 135.96175,107.93675 C136.003917,107.894583 136.043333,107.847833 136.08,107.7965 L136.08,107.7965 L137.378,105.899 C137.429333,105.814667 137.467833,105.719333 137.4935,105.613 L137.4935,105.613 L138.896,107.7965 C138.925333,107.847833 138.962917,107.894583 139.00875,107.93675 C139.054583,107.978917 139.117833,108 139.1985,108 L139.1985,108 L140.139,108 L138.1865,105.0905 L140.062,102.4285 L139.16,102.4285 C139.105,102.4285 139.059167,102.444083 139.0225,102.47525 C138.985833,102.506417 138.949167,102.547667 138.9125,102.599 L138.9125,102.599 L137.7135,104.359 C137.651167,104.461667 137.6035,104.564333 137.5705,104.667 L137.5705,104.667 L136.2065,102.577 C136.177167,102.529333 136.144167,102.492667 136.1075,102.467 C136.070833,102.441333 136.012167,102.4285 135.9315,102.4285 L135.9315,102.4285 L134.991,102.4285 L136.8665,105.1455 L134.914,108 L135.7885,108 Z M143.5655,108.088 C143.9285,108.088 144.268583,108.033917 144.58575,107.92575 C144.902917,107.817583 145.180667,107.66175 145.419,107.45825 C145.657333,107.25475 145.84525,107.008167 145.98275,106.7185 C146.12025,106.428833 146.189,106.1025 146.189,105.7395 C146.189,105.259167 146.05975,104.8595 145.80125,104.5405 C145.54275,104.2215 145.156833,103.994167 144.6435,103.8585 C144.8525,103.796167 145.041333,103.713667 145.21,103.611 C145.378667,103.508333 145.522583,103.38275 145.64175,103.23425 C145.760917,103.08575 145.852583,102.913417 145.91675,102.71725 C145.980917,102.521083 146.013,102.298333 146.013,102.049 C146.013,101.744667 145.956167,101.467833 145.8425,101.2185 C145.728833,100.969167 145.57025,100.7565 145.36675,100.5805 C145.16325,100.4045 144.920333,100.268833 144.638,100.1735 C144.355667,100.078167 144.047667,100.0305 143.714,100.0305 C143.376667,100.0305 143.06225,100.079083 142.77075,100.17625 C142.47925,100.273417 142.22075,100.4155 141.99525,100.6025 C141.76975,100.7895 141.583667,101.021417 141.437,101.29825 C141.290333,101.575083 141.191333,101.893167 141.14,102.2525 L141.14,102.2525 L141.6515,102.3405 C141.677167,102.344167 141.700083,102.346917 141.72025,102.34875 C141.740417,102.350583 141.759667,102.3515 141.778,102.3515 C141.869667,102.3515 141.944833,102.327667 142.0035,102.28 C142.062167,102.232333 142.106167,102.155333 142.1355,102.049 C142.1795,101.880333 142.2455,101.723583 142.3335,101.57875 C142.4215,101.433917 142.530583,101.30925 142.66075,101.20475 C142.790917,101.10025 142.940333,101.018667 143.109,100.96 C143.277667,100.901333 143.461,100.872 143.659,100.872 C143.857,100.872 144.04125,100.8995 144.21175,100.9545 C144.38225,101.0095 144.529833,101.092 144.6545,101.202 C144.779167,101.312 144.87725,101.451333 144.94875,101.62 C145.02025,101.788667 145.056,101.986667 145.056,102.214 C145.056,102.419333 145.022083,102.606333 144.95425,102.775 C144.886417,102.943667 144.777333,103.0885 144.627,103.2095 C144.476667,103.3305 144.28325,103.425833 144.04675,103.4955 C143.81025,103.565167 143.525167,103.601833 143.1915,103.6055 L143.1915,103.6055 L143.1915,104.315 C143.602167,104.315 143.938583,104.351667 144.20075,104.425 C144.462917,104.498333 144.66825,104.599167 144.81675,104.7275 C144.96525,104.855833 145.067917,105.008 145.12475,105.184 C145.181583,105.36 145.21,105.554333 145.21,105.767 C145.21,105.939333 145.175167,106.1135 145.1055,106.2895 C145.035833,106.4655 144.93225,106.625 144.79475,106.768 C144.65725,106.911 144.484917,107.027417 144.27775,107.11725 C144.070583,107.207083 143.8295,107.252 143.5545,107.252 C143.2795,107.252 143.049417,107.211667 142.86425,107.131 C142.679083,107.050333 142.524167,106.951333 142.3995,106.834 C142.274833,106.716667 142.175833,106.591083 142.1025,106.45725 C142.029167,106.323417 141.966833,106.203333 141.9155,106.097 C141.908167,106.078667 141.900833,106.06125 141.8935,106.04475 C141.886167,106.02825 141.878833,106.012667 141.8715,105.998 C141.842167,105.932 141.799083,105.883417 141.74225,105.85225 C141.685417,105.821083 141.620333,105.8055 141.547,105.8055 C141.47,105.8055 141.393,105.822 141.316,105.855 L141.316,105.855 L140.898,106.031 C140.989667,106.324333 141.1015,106.596583 141.2335,106.84775 C141.3655,107.098917 141.534167,107.316167 141.7395,107.4995 C141.944833,107.682833 142.196,107.82675 142.493,107.93125 C142.79,108.03575 143.1475,108.088 143.5655,108.088 Z M152.514,108 L152.514,107.406 C152.514,107.307 152.482833,107.226333 152.4205,107.164 C152.358167,107.101667 152.273833,107.0705 152.1675,107.0705 L152.1675,107.0705 L149.5275,107.0705 C149.388167,107.0705 149.243333,107.082417 149.093,107.10625 C148.942667,107.130083 148.794167,107.162167 148.6475,107.2025 L148.6475,107.2025 L150.721,105.0795 C150.941,104.855833 151.149083,104.63675 151.34525,104.42225 C151.541417,104.20775 151.714667,103.985917 151.865,103.75675 C152.015333,103.527583 152.1345,103.288333 152.2225,103.039 C152.3105,102.789667 152.3545,102.518333 152.3545,102.225 C152.3545,101.880333 152.294,101.572333 152.173,101.301 C152.052,101.029667 151.886083,100.799583 151.67525,100.61075 C151.464417,100.421917 151.214167,100.278 150.9245,100.179 C150.634833,100.08 150.323167,100.0305 149.9895,100.0305 C149.652167,100.0305 149.33775,100.079083 149.04625,100.17625 C148.75475,100.273417 148.49625,100.4155 148.27075,100.6025 C148.04525,100.7895 147.859167,101.021417 147.7125,101.29825 C147.565833,101.575083 147.466833,101.893167 147.4155,102.2525 L147.4155,102.2525 L147.927,102.3405 C147.952667,102.344167 147.975583,102.346917 147.99575,102.34875 C148.015917,102.350583 148.035167,102.3515 148.0535,102.3515 C148.148833,102.3515 148.225833,102.327667 148.2845,102.28 C148.343167,102.232333 148.387167,102.155333 148.4165,102.049 C148.453167,101.876667 148.516417,101.719 148.60625,101.576 C148.696083,101.433 148.806083,101.30925 148.93625,101.20475 C149.066417,101.10025 149.215833,101.018667 149.3845,100.96 C149.553167,100.901333 149.7365,100.872 149.9345,100.872 C150.1325,100.872 150.317667,100.900417 150.49,100.95725 C150.662333,101.014083 150.812667,101.099333 150.941,101.213 C151.069333,101.326667 151.170167,101.470583 151.2435,101.64475 C151.316833,101.818917 151.3535,102.0215 151.3535,102.2525 C151.3535,102.4835 151.3205,102.70075 151.2545,102.90425 C151.1885,103.10775 151.094083,103.3085 150.97125,103.5065 C150.848417,103.7045 150.700833,103.901583 150.5285,104.09775 C150.356167,104.293917 150.1655,104.498333 149.9565,104.711 L149.9565,104.711 L147.432,107.2465 C147.369667,107.308833 147.32475,107.376667 147.29725,107.45 C147.26975,107.523333 147.256,107.594833 147.256,107.6645 L147.256,107.6645 L147.256,108 L152.514,108 Z" id="32x32" fill-opacity="0.8" fill="#000000" fill-rule="nonzero"></path>
                    <path d="M220.9665,108 L220.9665,105.9265 L221.9455,105.9265 C222.018833,105.9265 222.072917,105.906333 222.10775,105.866 C222.142583,105.825667 222.16,105.776167 222.16,105.7175 L222.16,105.7175 L222.16,105.1565 L220.9665,105.1565 L220.9665,100.1185 L220.0535,100.1185 L216.22,105.206 L216.319,105.7065 C216.333667,105.768833 216.367583,105.821083 216.42075,105.86325 C216.473917,105.905417 216.537167,105.9265 216.6105,105.9265 L216.6105,105.9265 L220.103,105.9265 L220.103,108 L220.9665,108 Z M220.103,105.1565 L217.2815,105.1565 L220.147,101.257 C220.128667,101.374333 220.11675,101.488 220.11125,101.598 C220.10575,101.708 220.103,101.810667 220.103,101.906 L220.103,101.906 L220.103,105.1565 Z M225.5645,108.088 C225.956833,108.088 226.316167,108.03575 226.6425,107.93125 C226.968833,107.82675 227.248417,107.677333 227.48125,107.483 C227.714083,107.288667 227.895583,107.053083 228.02575,106.77625 C228.155917,106.499417 228.221,106.188667 228.221,105.844 C228.221,105.338 228.089,104.920917 227.825,104.59275 C227.561,104.264583 227.183333,104.030833 226.692,103.8915 C227.102667,103.7375 227.414333,103.507417 227.627,103.20125 C227.839667,102.895083 227.946,102.529333 227.946,102.104 C227.946,101.814333 227.889167,101.543 227.7755,101.29 C227.661833,101.037 227.5005,100.817 227.2915,100.63 C227.0825,100.443 226.831333,100.296333 226.538,100.19 C226.244667,100.083667 225.920167,100.0305 225.5645,100.0305 C225.205167,100.0305 224.87975,100.083667 224.58825,100.19 C224.29675,100.296333 224.0465,100.443 223.8375,100.63 C223.6285,100.817 223.467167,101.037 223.3535,101.29 C223.239833,101.543 223.183,101.814333 223.183,102.104 C223.183,102.529333 223.288417,102.895083 223.49925,103.20125 C223.710083,103.507417 224.022667,103.7375 224.437,103.8915 C223.945667,104.030833 223.568,104.264583 223.304,104.59275 C223.04,104.920917 222.908,105.338 222.908,105.844 C222.908,106.188667 222.972167,106.499417 223.1005,106.77625 C223.228833,107.053083 223.410333,107.288667 223.645,107.483 C223.879667,107.677333 224.160167,107.82675 224.4865,107.93125 C224.812833,108.03575 225.172167,108.088 225.5645,108.088 Z M225.5645,103.523 C225.307833,103.523 225.08875,103.483583 224.90725,103.40475 C224.72575,103.325917 224.578167,103.221417 224.4645,103.09125 C224.350833,102.961083 224.268333,102.811667 224.217,102.643 C224.165667,102.474333 224.14,102.300167 224.14,102.1205 C224.14,101.937167 224.17025,101.764833 224.23075,101.6035 C224.29125,101.442167 224.381083,101.301 224.50025,101.18 C224.619417,101.059 224.767917,100.963667 224.94575,100.894 C225.123583,100.824333 225.329833,100.7895 225.5645,100.7895 C225.799167,100.7895 226.005417,100.824333 226.18325,100.894 C226.361083,100.963667 226.509583,101.059 226.62875,101.18 C226.747917,101.301 226.83775,101.442167 226.89825,101.6035 C226.95875,101.764833 226.989,101.937167 226.989,102.1205 C226.989,102.300167 226.963333,102.474333 226.912,102.643 C226.860667,102.811667 226.778167,102.961083 226.6645,103.09125 C226.550833,103.221417 226.40325,103.325917 226.22175,103.40475 C226.04025,103.483583 225.821167,103.523 225.5645,103.523 Z M225.5645,107.307 C225.307833,107.307 225.07775,107.27125 224.87425,107.19975 C224.67075,107.12825 224.498417,107.027417 224.35725,106.89725 C224.216083,106.767083 224.107917,106.61125 224.03275,106.42975 C223.957583,106.24825 223.92,106.0475 223.92,105.8275 C223.92,105.556167 223.964917,105.32425 224.05475,105.13175 C224.144583,104.93925 224.265583,104.7825 224.41775,104.6615 C224.569917,104.5405 224.745,104.451583 224.943,104.39475 C225.141,104.337917 225.348167,104.3095 225.5645,104.3095 C225.780833,104.3095 225.988,104.337917 226.186,104.39475 C226.384,104.451583 226.559083,104.5405 226.71125,104.6615 C226.863417,104.7825 226.984417,104.93925 227.07425,105.13175 C227.164083,105.32425 227.209,105.556167 227.209,105.8275 C227.209,106.0475 227.171417,106.24825 227.09625,106.42975 C227.021083,106.61125 226.912917,106.767083 226.77175,106.89725 C226.630583,107.027417 226.45825,107.12825 226.25475,107.19975 C226.05125,107.27125 225.821167,107.307 225.5645,107.307 Z M229.7885,108 C229.861833,108 229.919583,107.978917 229.96175,107.93675 C230.003917,107.894583 230.043333,107.847833 230.08,107.7965 L230.08,107.7965 L231.378,105.899 C231.429333,105.814667 231.467833,105.719333 231.4935,105.613 L231.4935,105.613 L232.896,107.7965 C232.925333,107.847833 232.962917,107.894583 233.00875,107.93675 C233.054583,107.978917 233.117833,108 233.1985,108 L233.1985,108 L234.139,108 L232.1865,105.0905 L234.062,102.4285 L233.16,102.4285 C233.105,102.4285 233.059167,102.444083 233.0225,102.47525 C232.985833,102.506417 232.949167,102.547667 232.9125,102.599 L232.9125,102.599 L231.7135,104.359 C231.651167,104.461667 231.6035,104.564333 231.5705,104.667 L231.5705,104.667 L230.2065,102.577 C230.177167,102.529333 230.144167,102.492667 230.1075,102.467 C230.070833,102.441333 230.012167,102.4285 229.9315,102.4285 L229.9315,102.4285 L228.991,102.4285 L230.8665,105.1455 L228.914,108 L229.7885,108 Z M239.2705,108 L239.2705,105.9265 L240.2495,105.9265 C240.322833,105.9265 240.376917,105.906333 240.41175,105.866 C240.446583,105.825667 240.464,105.776167 240.464,105.7175 L240.464,105.7175 L240.464,105.1565 L239.2705,105.1565 L239.2705,100.1185 L238.3575,100.1185 L234.524,105.206 L234.623,105.7065 C234.637667,105.768833 234.671583,105.821083 234.72475,105.86325 C234.777917,105.905417 234.841167,105.9265 234.9145,105.9265 L234.9145,105.9265 L238.407,105.9265 L238.407,108 L239.2705,108 Z M238.407,105.1565 L235.5855,105.1565 L238.451,101.257 C238.432667,101.374333 238.42075,101.488 238.41525,101.598 C238.40975,101.708 238.407,101.810667 238.407,101.906 L238.407,101.906 L238.407,105.1565 Z M243.8685,108.088 C244.260833,108.088 244.620167,108.03575 244.9465,107.93125 C245.272833,107.82675 245.552417,107.677333 245.78525,107.483 C246.018083,107.288667 246.199583,107.053083 246.32975,106.77625 C246.459917,106.499417 246.525,106.188667 246.525,105.844 C246.525,105.338 246.393,104.920917 246.129,104.59275 C245.865,104.264583 245.487333,104.030833 244.996,103.8915 C245.406667,103.7375 245.718333,103.507417 245.931,103.20125 C246.143667,102.895083 246.25,102.529333 246.25,102.104 C246.25,101.814333 246.193167,101.543 246.0795,101.29 C245.965833,101.037 245.8045,100.817 245.5955,100.63 C245.3865,100.443 245.135333,100.296333 244.842,100.19 C244.548667,100.083667 244.224167,100.0305 243.8685,100.0305 C243.509167,100.0305 243.18375,100.083667 242.89225,100.19 C242.60075,100.296333 242.3505,100.443 242.1415,100.63 C241.9325,100.817 241.771167,101.037 241.6575,101.29 C241.543833,101.543 241.487,101.814333 241.487,102.104 C241.487,102.529333 241.592417,102.895083 241.80325,103.20125 C242.014083,103.507417 242.326667,103.7375 242.741,103.8915 C242.249667,104.030833 241.872,104.264583 241.608,104.59275 C241.344,104.920917 241.212,105.338 241.212,105.844 C241.212,106.188667 241.276167,106.499417 241.4045,106.77625 C241.532833,107.053083 241.714333,107.288667 241.949,107.483 C242.183667,107.677333 242.464167,107.82675 242.7905,107.93125 C243.116833,108.03575 243.476167,108.088 243.8685,108.088 Z M243.8685,103.523 C243.611833,103.523 243.39275,103.483583 243.21125,103.40475 C243.02975,103.325917 242.882167,103.221417 242.7685,103.09125 C242.654833,102.961083 242.572333,102.811667 242.521,102.643 C242.469667,102.474333 242.444,102.300167 242.444,102.1205 C242.444,101.937167 242.47425,101.764833 242.53475,101.6035 C242.59525,101.442167 242.685083,101.301 242.80425,101.18 C242.923417,101.059 243.071917,100.963667 243.24975,100.894 C243.427583,100.824333 243.633833,100.7895 243.8685,100.7895 C244.103167,100.7895 244.309417,100.824333 244.48725,100.894 C244.665083,100.963667 244.813583,101.059 244.93275,101.18 C245.051917,101.301 245.14175,101.442167 245.20225,101.6035 C245.26275,101.764833 245.293,101.937167 245.293,102.1205 C245.293,102.300167 245.267333,102.474333 245.216,102.643 C245.164667,102.811667 245.082167,102.961083 244.9685,103.09125 C244.854833,103.221417 244.70725,103.325917 244.52575,103.40475 C244.34425,103.483583 244.125167,103.523 243.8685,103.523 Z M243.8685,107.307 C243.611833,107.307 243.38175,107.27125 243.17825,107.19975 C242.97475,107.12825 242.802417,107.027417 242.66125,106.89725 C242.520083,106.767083 242.411917,106.61125 242.33675,106.42975 C242.261583,106.24825 242.224,106.0475 242.224,105.8275 C242.224,105.556167 242.268917,105.32425 242.35875,105.13175 C242.448583,104.93925 242.569583,104.7825 242.72175,104.6615 C242.873917,104.5405 243.049,104.451583 243.247,104.39475 C243.445,104.337917 243.652167,104.3095 243.8685,104.3095 C244.084833,104.3095 244.292,104.337917 244.49,104.39475 C244.688,104.451583 244.863083,104.5405 245.01525,104.6615 C245.167417,104.7825 245.288417,104.93925 245.37825,105.13175 C245.468083,105.32425 245.513,105.556167 245.513,105.8275 C245.513,106.0475 245.475417,106.24825 245.40025,106.42975 C245.325083,106.61125 245.216917,106.767083 245.07575,106.89725 C244.934583,107.027417 244.76225,107.12825 244.55875,107.19975 C244.35525,107.27125 244.125167,107.307 243.8685,107.307 Z" id="48x48" fill-opacity="0.8" fill="#000000" fill-rule="nonzero"></path>
                </g>
            </g>
        </g>
    </g>
</svg>