<?xml version="1.0" encoding="UTF-8"?>
<svg width="855px" height="425px" viewBox="0 0 855 425" version="1.1" xmlns="http://www.w3.org/2000/svg" xmlns:xlink="http://www.w3.org/1999/xlink">
    <!-- Generator: Sketch 53.2 (72643) - https://sketchapp.com -->
    <title>icons-overview</title>
    <desc>Created with Sketch.</desc>
    <defs>
        <polygon id="path-1" points="19.3876122 11.6180421 2.51127554e-05 11.6180421 2.51127554e-05 1.24444e-05 19.3876122 1.24444e-05"></polygon>
        <polygon id="path-3" points="1.19244648e-15 15.4541162 1.19244648e-15 0.520732323 14.9340707 0.520732323 14.9340707 15.4541162"></polygon>
        <polygon id="path-5" points="0 9.0521 0 0.0002 19.9445983 0.0002 19.9445983 9.0521 19.9445983 18.104 0 18.104"></polygon>
        <polygon id="path-7" points="0 9.0521 0 0.0002 19.9445983 0.0002 19.9445983 9.0521 19.9445983 18.104 0 18.104"></polygon>
        <polygon id="path-9" points="11.5373182 0.8373015 11.5373182 11.6710065 0.593663636 11.6710065 0.593663636 0.8373015 11.5373182 0.8373015"></polygon>
        <polygon id="path-11" points="0.45206 0.681706667 4.25096 0.681706667 4.25096 2.967272 0.45206 2.967272 0.45206 0.681706667"></polygon>
        <polygon id="path-13" points="0 0.0004 14 0.0004 14 19.748 0 19.748"></polygon>
        <polygon id="path-15" points="4.06575815e-20 0.1907 4.06575815e-20 11 14.99995 11 14.99995 0.1907"></polygon>
        <polygon id="path-17" points="0 19.9642071 14.9643991 19.9642071 14.9643991 0 0 0"></polygon>
        <polygon id="path-19" points="31.9895601 19.3634035 4.14360463e-05 19.3634035 4.14360463e-05 2.07406667e-05 31.9895601 2.07406667e-05"></polygon>
        <polygon id="path-21" points="1.2520688e-15 16.226822 1.2520688e-15 0.546768939 15.6807742 0.546768939 15.6807742 16.226822"></polygon>
        <polygon id="path-23" points="0 0.145122535 0 25.7646405 13.6475526 25.7646405 13.6475526 0.145122535"></polygon>
        <polygon id="path-25" points="2.89319532e-21 0 22 0 22 18 0 18"></polygon>
        <polygon id="path-27" points="25 0.0003125 25 25 0.0003125 25 0.0003125 0.0003125 25 0.0003125"></polygon>
        <polygon id="path-29" points="0.45206 0.681706667 4.25096 0.681706667 4.25096 2.967272 0.45206 2.967272 0.45206 0.681706667"></polygon>
        <rect id="path-31" x="0" y="0" width="18.5" height="9.5"></rect>
        <rect id="path-33" x="0" y="0" width="18.5" height="9.5"></rect>
        <polygon id="path-35" points="0 17.6 13.1478261 17.6 13.1478261 0 0 0"></polygon>
    </defs>
    <g id="Welcome" stroke="none" stroke-width="1" fill="none" fill-rule="evenodd">
        <g id="Icons" transform="translate(-552.000000, -184.000000)">
            <g id="icons-overview" transform="translate(552.000000, 180.000000)">
                <rect id="Rectangle-14" fill="#F4F4F4" fill-rule="evenodd" x="0" y="4" width="855" height="62" rx="2"></rect>
                <rect id="Rectangle-14-Copy" fill="#F4F4F4" fill-rule="evenodd" x="0" y="124" width="855" height="62" rx="2"></rect>
                <rect id="Rectangle-14-Copy-2" fill="#F4F4F4" fill-rule="evenodd" x="0" y="245" width="855" height="62" rx="2"></rect>
                <rect id="Rectangle-14-Copy-3" fill="#F4F4F4" fill-rule="evenodd" x="0" y="367" width="855" height="62" rx="2"></rect>
                <g id="cloud-upload-" transform="translate(30.000000, 23.000000)" fill-rule="evenodd" stroke-width="1">
                    <g id="Cloud-Upload-Icon">
                        <path d="M9.33398219,7.02714926 C9.16092786,6.83135044 9.16092786,6.51087225 9.33398219,6.31507342 C9.50703652,6.11927459 9.79023939,6.11927459 9.96329372,6.31507342 L12.0480626,8.67378532 C12.2211169,8.86958414 12.2211169,9.19006233 12.0480626,9.38586116 C11.8749448,9.58165999 11.5917419,9.58165999 11.4186876,9.38586116 L9.33398219,7.02714926 Z" id="Fill-1" fill="#191919"></path>
                        <path d="M9.96074194,7.02531079 C10.1337963,6.82951196 10.1337963,6.50903377 9.96074194,6.31323494 C9.78768761,6.11743611 9.50448474,6.11743611 9.33143041,6.31323494 L6.8870833,8.67378532 C6.71402897,8.86958414 6.71402897,9.19006233 6.8870833,9.38586116 C7.06020104,9.58165999 7.34340391,9.58165999 7.51645824,9.38586116 L9.96074194,7.02531079 Z" id="Fill-3" fill="#191919"></path>
                        <path d="M10.0538091,7.17228677 C10.0538091,6.92846055 9.86269376,6.72897196 9.62902975,6.72897196 C9.39536574,6.72897196 9.20419145,6.92846055 9.20419145,7.17228677 L9.20419145,14.5566852 C9.20419145,14.8005114 9.39536574,15 9.62902975,15 C9.86269376,15 10.0538091,14.8005114 10.0538091,14.5566852 L10.0538091,7.17228677 Z" id="Fill-5" fill="#191919"></path>
                        <g id="Group-9">
                            <mask id="mask-2" fill="white">
                                <use xlink:href="#path-1"></use>
                            </mask>
                            <g id="Clip-8"></g>
                            <path d="M15.7675708,3.77943895 C15.560265,2.78457139 14.9504018,1.87681463 14.0175257,1.18789265 C12.9809339,0.421690939 11.6334462,1.24444e-05 10.2301455,1.24444e-05 C9.14565114,1.24444e-05 8.08915752,0.251015993 7.1841566,0.724276526 C6.43058559,1.11714623 5.80477573,1.64827323 5.36228898,2.27273322 C5.17092979,2.24386221 4.97159729,2.22768449 4.77226479,2.22768449 C3.07784441,2.22768449 1.69827519,3.34145829 1.69827519,4.70959563 C1.69827519,4.88680389 1.72225788,5.05735439 1.76206159,5.22479379 C0.665764257,5.86860483 2.51127554e-05,6.90522335 2.51127554e-05,8.00929052 C2.51127554e-05,8.90105622 0.410555881,9.7669998 1.16023441,10.4528107 C1.92956367,11.154426 2.94625357,11.5697578 4.03055957,11.6180421 L7.49116004,11.6180421 C7.79019017,11.6180421 8.02945195,11.4250294 8.02945195,11.1835459 C8.02945195,10.9421245 7.79019017,10.7489252 7.49116004,10.7489252 L4.07846215,10.7489252 C2.44795372,10.6684721 1.07654615,9.41612994 1.07654615,8.00617942 C1.07654615,7.09512489 1.68251694,6.24517237 2.659152,5.78491624 C2.886548,5.67864106 2.98210203,5.45663297 2.89433295,5.25696257 C2.81466273,5.0831143 2.77479623,4.89968384 2.77479623,4.70324899 C2.77479623,3.81478105 3.67182386,3.09045475 4.77226479,3.09045475 C5.00738297,3.09045475 5.23867144,3.12268574 5.45395054,3.18696107 C5.71700665,3.26430301 6.0080007,3.16767225 6.12772577,2.96489075 C6.87332347,1.68691309 8.48374169,0.862782698 10.2339752,0.862782698 C12.5861614,0.862782698 14.5278169,2.2856754 14.7510693,4.172122 C14.7749892,4.36843241 14.9583751,4.52616518 15.1976368,4.55845839 C16.9716647,4.80299085 18.3113674,6.12607946 18.3113674,7.63595852 C18.3113674,9.23587281 16.7524931,10.6264723 14.8309278,10.7456274 L11.8926099,10.7456274 C11.5936425,10.7456274 11.354318,10.9388267 11.354318,11.1802481 C11.354318,11.4216694 11.5936425,11.614931 11.8926099,11.614931 L14.8906334,11.614931 C16.1064675,11.5439979 17.2428196,11.093324 18.0880522,10.3400644 C18.9292039,9.59315153 19.3876373,8.63387496 19.3876373,7.63595852 C19.3838076,5.82990274 17.8567637,4.22364181 15.7675708,3.77943895" id="Fill-7" fill="#191919" mask="url(#mask-2)"></path>
                        </g>
                    </g>
                </g>
                <g id="shopping-cart" transform="translate(159.000000, 23.000000)" fill="#000000" fill-rule="evenodd" stroke-width="1">
                    <g id="Page-1">
                        <g>
                            <path d="M16.7898664,8.36181569 C17.027845,8.36181569 17.2406236,8.22194721 17.3230445,8.01116076 L19.9647771,1.25919753 C20.0291981,1.09455695 20.0042823,0.910599487 19.8979878,0.766527795 C19.7916932,0.622545532 19.6175672,0.536692755 19.431599,0.536692755 L9.0000473,0.536692755 C8.68618464,0.536692755 8.43162715,0.776991102 8.43162715,1.07327261 C8.43162715,1.36955413 8.68618464,1.60985247 9.0000473,1.60985247 L18.6156319,1.60985247 L16.393867,7.28865598 L6.46081978,7.28865598 L3.74187676,0.873933196 C3.67215056,0.70947147 3.52085606,0.588025562 3.3376353,0.549570672 L0.692018483,0.0129908129 C0.385450552,-0.0515776301 0.0819141954,0.130859522 0.0137037782,0.420076066 C-0.054506639,0.70938204 0.138566736,0.996094544 0.44503993,1.0603947 L2.79782564,1.53553616 L5.39512675,7.66318872 L4.03906576,10.2233901 C3.95096064,10.3898193 3.96033957,10.5873701 4.06388677,10.7454823 C4.16752871,10.9036839 4.35046526,11 4.54742284,11 L16.7684559,11 C17.0824133,11 17.3368761,10.7597017 17.3368761,10.4634201 C17.3368761,10.1671386 17.0824133,9.92684028 16.7684559,9.92684028 L5.46712663,9.92684028 L6.29616741,8.36181569 L16.7898664,8.36181569 Z" id="Fill-1"></path>
                            <path d="M7.5,13 C6.67160173,13 6,13.6716017 6,14.5 C6,15.3284848 6.67160173,16 7.5,16 C8.32839827,16 9,15.3284848 9,14.5 C9,13.6716017 8.32839827,13 7.5,13" id="Fill-3"></path>
                            <path d="M12.5,13 C11.6716017,13 11,13.6716017 11,14.5 C11,15.3284848 11.6716017,16 12.5,16 C13.3283983,16 14,15.3284848 14,14.5 C14,13.6716017 13.3283983,13 12.5,13" id="Fill-5"></path>
                        </g>
                    </g>
                </g>
                <g id="Service" transform="translate(284.000000, 20.000000)" fill-rule="evenodd" stroke="#000000" stroke-width="1">
                    <g id="Group-8">
                        <path d="M18.7769836,7 L19,7 C19.5522847,7 20,7.44771525 20,8 L20,15 C20,15.5522847 19.5522847,16 19,16 L17,16 C16.4477153,16 16,15.5522847 16,15 L16,8 C16,7.54430018 16.304813,7.15979325 16.721675,7.03924327 C15.8737681,4.12760865 13.1853488,2 10,2 C6.81465116,2 4.12623194,4.12760865 3.27832502,7.03924327 C3.69518699,7.15979325 4,7.54430018 4,8 L4,15 C4,15.5522847 3.55228475,16 3,16 L1,16 C0.44771525,16 6.76353751e-17,15.5522847 0,15 L0,8 C-6.76353751e-17,7.44771525 0.44771525,7 1,7 L1.22301642,7 C2.13247475,2.9920226 5.71682521,0 10,0 C14.2831748,0 17.8675252,2.9920226 18.7769836,7 Z" id="Combined-Shape" fill="#000000"></path>
                        <path d="M2,15 C2.62747367,18.7107747 5.8153967,20.1345215 11.5637691,19.2712402" id="Path-3" stroke-width="2"></path>
                        <rect id="Rectangle-29" fill="#000000" x="9.5" y="18.5" width="5" height="2" rx="1"></rect>
                    </g>
                </g>
                <g id="comment" transform="translate(30.000000, 84.000000)" fill-rule="evenodd" stroke-width="1">
                    <g id="Page-1">
                        <g id="Group-3" transform="translate(0.000000, 4.545455)">
                            <mask id="mask-4" fill="white">
                                <use xlink:href="#path-3"></use>
                            </mask>
                            <g id="Clip-2"></g>
                            <path d="M7.46694949,9.85441919 C11.5924545,9.85441919 14.9340707,11.5243687 14.9340707,13.5884091 L14.9340707,15.4541162 L-0.000171717172,15.4541162 L-0.000171717172,13.5884091 C-0.000171717172,11.5243687 3.34144444,9.85441919 7.46694949,9.85441919 M7.46694949,0.520732323 C9.52841414,0.520732323 11.2000808,2.19239899 11.2000808,4.25386364 C11.2000808,6.31618687 9.52841414,7.98699495 7.46694949,7.98699495 C5.40548485,7.98699495 3.73381818,6.31618687 3.73381818,4.25386364 C3.73381818,2.19239899 5.40548485,0.520732323 7.46694949,0.520732323" id="Fill-1" fill="#191919" mask="url(#mask-4)"></path>
                        </g>
                        <path d="M19.4474226,0 L12.537701,0 C12.2313628,0 11.9851236,0.244603392 11.9851236,0.54705218 L11.9851236,5.62009347 C11.9851236,5.85891232 12.1395448,6.06137121 12.3557345,6.13657023 L11.8181818,8.18181818 L14.4842425,6.16714565 L19.4474226,6.16714565 C19.7520914,6.16714565 20,5.92254226 20,5.62009347 L20,0.54705218 C20,0.244603392 19.7520914,0 19.4474226,0" id="Fill-4" fill="#191919"></path>
                    </g>
                </g>
                <g id="favorite-heart" transform="translate(159.000000, 85.000000)" fill-rule="evenodd" stroke-width="1">
                    <g id="favorite">
                        <g id="Page-1">
                            <g>
                                <mask id="mask-6" fill="white">
                                    <use xlink:href="#path-5"></use>
                                </mask>
                                <g id="Clip-2"></g>
                                <path d="M14.4598338,0 C12.7246537,0 11.0592798,0.81 9.97229917,2.08 C8.88531856,0.81 7.2199446,0 5.48476454,0 C2.4132964,0 0,2.41 0,5.5 C0,9.27 3.39058172,12.36 8.52631579,17.03 L9.47069252,17.897 L9.47268698,17.897 C9.60033241,18.024 9.77684211,18.104 9.97229917,18.104 C10.1288643,18.104 10.2654848,18.043 10.3841551,17.957 C10.3901385,17.958 10.4001108,17.956 10.4070914,17.956 L10.465928,17.901 C10.4709141,17.896 10.4759003,17.894 10.4808864,17.889 L11.4182825,17.03 C16.5540166,12.36 19.9445983,9.27 19.9445983,5.5 C19.9445983,2.41 17.5313019,0 14.4598338,0" id="Fill-1" fill="#191919" mask="url(#mask-6)"></path>
                            </g>
                        </g>
                    </g>
                </g>
                <g id="List-Display" transform="translate(284.000000, 84.000000)" fill="#1B1B1B" fill-rule="evenodd">
                    <rect id="Rectangle-Copy-9" x="0" y="0" width="4.76190476" height="4.76190476"></rect>
                    <rect id="Rectangle-Copy-10" x="0" y="7.61904762" width="4.76190476" height="4.76190476"></rect>
                    <rect id="Rectangle-Copy-11" x="0" y="15.2380952" width="4.76190476" height="4.76190476"></rect>
                    <polygon id="Rectangle-Copy-12" points="7.61904762 0 20 0 20 4.76190476 7.61904762 4.76190476"></polygon>
                    <polygon id="Rectangle-Copy-13" points="7.61904762 7.61904762 20 7.61904762 20 12.3809524 7.61904762 12.3809524"></polygon>
                    <polygon id="Rectangle-Copy-14" points="7.61904762 15.2380952 20 15.2380952 20 20 7.61904762 20"></polygon>
                </g>
                <g id="add-to-favorites" transform="translate(30.000000, 143.000000)" fill-rule="evenodd" stroke-width="1">
                    <g id="favorite-heart">
                        <g id="favorite">
                            <g id="Page-1">
                                <g>
                                    <mask id="mask-8" fill="white">
                                        <use xlink:href="#path-7"></use>
                                    </mask>
                                    <g id="Clip-2"></g>
                                    <path d="M14.4598338,0 C12.7246537,0 11.0592798,0.81 9.97229917,2.08 C8.88531856,0.81 7.2199446,0 5.48476454,0 C2.4132964,0 0,2.41 0,5.5 C0,9.27 3.39058172,12.36 8.52631579,17.03 L9.47069252,17.897 L9.47268698,17.897 C9.60033241,18.024 9.77684211,18.104 9.97229917,18.104 C10.1288643,18.104 10.2654848,18.043 10.3841551,17.957 C10.3901385,17.958 10.4001108,17.956 10.4070914,17.956 L10.465928,17.901 C10.4709141,17.896 10.4759003,17.894 10.4808864,17.889 L11.4182825,17.03 C16.5540166,12.36 19.9445983,9.27 19.9445983,5.5 C19.9445983,2.41 17.5313019,0 14.4598338,0" id="Fill-1" fill="#191919" mask="url(#mask-8)"></path>
                                </g>
                            </g>
                        </g>
                    </g>
                    <g id="Page-1" transform="translate(7.272727, 3.600000)">
                        <path d="M6.56566364,12.2048145 C3.72689091,12.2048145 1.41752727,9.9185445 1.41752727,7.1090145 C1.41752727,4.2977745 3.72689091,2.0123595 6.56566364,2.0123595 C9.40443636,2.0123595 11.7138,4.2977745 11.7138,7.1090145 C11.7138,9.9185445 9.40443636,12.2048145 6.56566364,12.2048145" id="Fill-4" fill="#FFFFFF"></path>
                        <g id="Group-8" transform="translate(0.500000, 0.854091)">
                            <mask id="mask-10" fill="white">
                                <use xlink:href="#path-9"></use>
                            </mask>
                            <g id="Clip-7"></g>
                            <path d="M6.06566364,0.8373015 C3.04811818,0.8373015 0.593663636,3.2672115 0.593663636,6.2545815 C0.593663636,9.2419515 3.04811818,11.6710065 6.06566364,11.6710065 C9.08234545,11.6710065 11.5376636,9.2419515 11.5376636,6.2545815 C11.5376636,3.2672115 9.08234545,0.8373015 6.06566364,0.8373015 M6.06566364,1.4785515 C8.72998182,1.4785515 10.8899364,3.6169065 10.8899364,6.2545815 C10.8899364,8.8914015 8.72998182,11.0297565 6.06566364,11.0297565 C3.40134545,11.0297565 1.24139091,8.8914015 1.24139091,6.2545815 C1.24139091,3.6169065 3.40134545,1.4785515 6.06566364,1.4785515" id="Fill-6" fill="#191919" mask="url(#mask-10)"></path>
                        </g>
                        <polygon id="Fill-9" fill="#191919" points="10.0911136 6.3371205 7.34475 6.3371205 7.34475 3.6182205 5.78675 3.6182205 5.78675 6.3371205 3.04038636 6.3371205 3.04038636 7.8795405 5.78675 7.8795405 5.78675 10.5984405 7.34475 10.5984405 7.34475 7.8795405 10.0911136 7.8795405"></polygon>
                    </g>
                </g>
                <g id="time-clock" transform="translate(159.000000, 142.000000)" fill-rule="evenodd" stroke-width="1">
                    <g id="Page-1">
                        <path d="M18.54055,5.58356089 L16.23895,3.33310756 C16.15355,3.24960533 16.01425,3.24960533 15.92885,3.33310756 L14.72485,4.50966756 C15.74895,5.19958756 16.61485,6.09620978 17.26095,7.13793422 L18.54055,5.88676978 C18.62595,5.80326756 18.62595,5.66706311 18.54055,5.58356089" id="Fill-1" fill="#191919"></path>
                        <g id="Group-5" transform="translate(7.000000, 0.003012)">
                            <mask id="mask-12" fill="white">
                                <use xlink:href="#path-11"></use>
                            </mask>
                            <g id="Clip-4"></g>
                            <path d="M0.57806,2.33210756 L1.42856,2.33210756 L1.42856,2.967272 C1.73236,2.93578756 2.03966,2.92004533 2.35186,2.92004533 C2.66336,2.92004533 2.97066,2.93578756 3.27376,2.967272 L3.27376,2.33210756 L4.12496,2.33210756 C4.19426,2.33210756 4.25096,2.27666756 4.25096,2.209592 L4.25096,0.804427556 C4.25096,0.736667556 4.19426,0.681227556 4.12496,0.681227556 L0.57806,0.681227556 C0.50876,0.681227556 0.45206,0.736667556 0.45206,0.804427556 L0.45206,2.209592 C0.45206,2.27666756 0.50876,2.33210756 0.57806,2.33210756" id="Fill-3" fill="#191919" mask="url(#mask-12)"></path>
                        </g>
                        <path d="M8.78122,18.5251733 C5.13562,18.5251733 2.18022,15.6354489 2.18022,12.0708622 C2.18022,8.50627556 5.13562,5.61655111 8.78122,5.61655111 C12.42682,5.61655111 15.38222,8.50627556 15.38222,12.0708622 C15.38222,15.6354489 12.42682,18.5251733 8.78122,18.5251733 M8.78122,3.36472889 C3.93162,3.36472889 0.00042,7.20856889 0.00042,11.9504 C0.00042,16.6922311 3.93162,20.5360711 8.78122,20.5360711 C13.63082,20.5360711 17.56202,16.6922311 17.56202,11.9504 C17.56202,7.20856889 13.63082,3.36472889 8.78122,3.36472889" id="Fill-6" fill="#8FA500"></path>
                        <path d="M8.78122,18.5251733 C5.13562,18.5251733 2.18022,15.6354489 2.18022,12.0708622 C2.18022,8.50627556 5.13562,5.61655111 8.78122,5.61655111 C12.42682,5.61655111 15.38222,8.50627556 15.38222,12.0708622 C15.38222,15.6354489 12.42682,18.5251733 8.78122,18.5251733 M8.78122,3.36472889 C3.93162,3.36472889 0.00042,7.20856889 0.00042,11.9504 C0.00042,16.6922311 3.93162,20.5360711 8.78122,20.5360711 C13.63082,20.5360711 17.56202,16.6922311 17.56202,11.9504 C17.56202,7.20856889 13.63082,3.36472889 8.78122,3.36472889" id="Fill-8" fill="#191919"></path>
                        <path d="M8.77261,16.5741644 C8.17481,16.5741644 7.59661,16.4626 7.05691,16.2456311 L10.17261,12.5893289 L10.17261,7.82764889 C12.01641,8.40737333 13.35481,10.1006889 13.35481,12.0937911 C13.35481,14.5639511 11.29891,16.5741644 8.77261,16.5741644" id="Fill-10" fill="#191919"></path>
                        <path d="M8.77261,6.245008 L8.77261,12.0935858 L7.62671,13.4385191 L5.16271,16.3302969 L4.95481,16.581488 C5.99081,17.4267769 7.31731,17.942848 8.77261,17.942848 C12.07661,17.942848 14.75481,15.3241636 14.75481,12.0935858 C14.75481,8.86369244 12.07661,6.245008 8.77261,6.245008 M11.57261,10.6165547 C11.81691,11.0566524 11.95481,11.5597191 11.95481,12.0935858 C11.95481,13.4015591 11.12601,14.5226791 9.95561,14.9826258 L10.92371,13.8471324 L11.57261,13.0853458 L11.57261,12.0935858 L11.57261,10.6165547" id="Fill-12" fill="#191919"></path>
                    </g>
                </g>
                <g id="Grid-Display" transform="translate(284.000000, 142.000000)" fill="#1B1B1B" fill-rule="evenodd">
                    <rect id="Rectangle" x="0" y="0" width="4.76190476" height="4.76190476"></rect>
                    <rect id="Rectangle-Copy-3" x="0" y="7.61904762" width="4.76190476" height="4.76190476"></rect>
                    <rect id="Rectangle-Copy-6" x="0" y="15.2380952" width="4.76190476" height="4.76190476"></rect>
                    <rect id="Rectangle-Copy" x="7.61904762" y="0" width="4.76190476" height="4.76190476"></rect>
                    <rect id="Rectangle-Copy-4" x="7.61904762" y="7.61904762" width="4.76190476" height="4.76190476"></rect>
                    <rect id="Rectangle-Copy-7" x="7.61904762" y="15.2380952" width="4.76190476" height="4.76190476"></rect>
                    <rect id="Rectangle-Copy-2" x="15.2380952" y="0" width="4.76190476" height="4.76190476"></rect>
                    <rect id="Rectangle-Copy-5" x="15.2380952" y="7.61904762" width="4.76190476" height="4.76190476"></rect>
                    <rect id="Rectangle-Copy-8" x="15.2380952" y="15.2380952" width="4.76190476" height="4.76190476"></rect>
                </g>
                <g id="lock" transform="translate(33.000000, 207.000000)" fill="#191919" fill-rule="evenodd" stroke-width="1">
                    <g transform="translate(0.000000, 0.468750)" id="Shape">
                        <path d="M12.1875,6.5625 L12.1875,4.6875 C12.1875,2.0625 10.125,0 7.5,0 C4.875,0 2.8125,2.0625 2.8125,4.6875 L2.8125,6.5625 L1.875,6.5625 C0.84375,6.5625 0,7.40625 0,8.4375 L0,17.8125 C0,18.84375 0.84375,19.6875 1.875,19.6875 L13.125,19.6875 C14.15625,19.6875 15,18.84375 15,17.8125 L15,8.4375 C15,7.40625 14.15625,6.5625 13.125,6.5625 L12.1875,6.5625 Z M6.59241514,13.8266544 C6.01665104,13.5056618 5.625,12.8900977 5.625,12.1875 C5.625,11.15625 6.46875,10.3125 7.5,10.3125 C8.53125,10.3125 9.375,11.15625 9.375,12.1875 C9.375,12.8900977 8.98334896,13.5056618 8.40758486,13.8266544 C8.4271107,13.9020079 8.4375,13.9810406 8.4375,14.0625 L8.4375,15.9375 C8.4375,16.455267 8.01776695,16.875 7.5,16.875 C6.98223305,16.875 6.5625,16.455267 6.5625,15.9375 L6.5625,14.0625 C6.5625,13.9810406 6.5728893,13.9020079 6.59241514,13.8266544 Z M10.40625,6.5625 L4.59375,6.5625 L4.59375,4.6875 C4.59375,3.09375 5.90625,1.78125 7.5,1.78125 C9.09375,1.78125 10.40625,3.09375 10.40625,4.6875 L10.40625,6.5625 L10.40625,6.5625 Z"></path>
                    </g>
                </g>
                <g id="map-marker" transform="translate(162.000000, 207.000000)" fill-rule="evenodd" stroke-width="1">
                    <g id="Page-1">
                        <mask id="mask-14" fill="white">
                            <use xlink:href="#path-13"></use>
                        </mask>
                        <g id="Clip-2"></g>
                        <path d="M4.5,7 C4.5,5.619 5.619,4.5 7,4.5 C8.381,4.5 9.5,5.619 9.5,7 C9.5,8.381 8.381,9.5 7,9.5 C5.619,9.5 4.5,8.381 4.5,7 M14,7 C14,3.134 10.866,0 7,0 C3.134,0 0,3.134 0,7 C0,11.541 5.227,17.939 6.641,19.588 L6.641,19.588 C6.734,19.686 6.863,19.748 7.008,19.748 C7.165,19.748 7.299,19.674 7.392,19.563 C7.396,19.562 7.404,19.556 7.407,19.555 C8.726,18.026 14,11.607 14,7" id="Fill-1" fill="#000000" mask="url(#mask-14)"></path>
                    </g>
                </g>
                <g id="bar-graph" transform="translate(286.000000, 209.000000)" fill="#191919" fill-rule="evenodd">
                    <rect id="Rectangle-6" x="0" y="8" width="3" height="9"></rect>
                    <rect id="Rectangle-6" x="8" y="12" width="3" height="5"></rect>
                    <polygon id="Rectangle-6" opacity="0.702502264" points="4 4 7 4 7 17 4 17"></polygon>
                    <rect id="Rectangle-6" opacity="0.7" x="12" y="0" width="3" height="17"></rect>
                </g>
                <g id="360" transform="translate(25.000000, 269.000000)" fill-rule="evenodd" stroke-width="1">
                    <g id="Page-1">
                        <path d="M8.9928,5.5754 C8.8588,5.6664 8.6958,5.7254 8.5018,5.7524 C8.3078,5.7794 8.1288,5.7924 7.9638,5.7924 C7.6818,5.7924 7.3718,5.7394 7.0318,5.6304 C6.6918,5.5224 6.3988,5.3944 6.1548,5.2464 L5.9878,5.2464 L5.9878,6.6424 C6.2238,6.7444 6.5308,6.8374 6.9078,6.9194 C7.2848,7.0024 7.7368,7.0434 8.2628,7.0434 C8.7238,7.0434 9.1158,6.9954 9.4388,6.9004 C9.7618,6.8054 10.0428,6.6674 10.2818,6.4884 C10.5268,6.3044 10.7078,6.0814 10.8258,5.8234 C10.9438,5.5634 11.0028,5.2844 11.0028,4.9864 C11.0028,4.7214 10.9618,4.5094 10.8798,4.3504 C10.7968,4.1904 10.6858,4.0514 10.5468,3.9314 C10.4128,3.8184 10.2648,3.7314 10.1028,3.6714 C9.9408,3.6114 9.7868,3.5724 9.6418,3.5524 L9.6418,3.4924 C9.9998,3.4154 10.2888,3.2384 10.5078,2.9604 C10.7268,2.6834 10.8368,2.3684 10.8368,2.0154 C10.8368,1.7474 10.7798,1.5144 10.6658,1.3154 C10.5528,1.1164 10.3788,0.9474 10.1448,0.8074 C9.9488,0.6904 9.6998,0.5974 9.3988,0.5284 C9.0968,0.4584 8.7448,0.4234 8.3438,0.4234 C7.9308,0.4234 7.5248,0.4664 7.1228,0.5534 C6.7218,0.6404 6.4048,0.7304 6.1718,0.8244 L6.1718,2.2034 L6.3288,2.2034 C6.6218,2.0294 6.9258,1.8964 7.2388,1.8044 C7.5518,1.7114 7.8418,1.6654 8.1098,1.6654 C8.2178,1.6654 8.3468,1.6744 8.4978,1.6914 C8.6488,1.7084 8.7798,1.7424 8.8898,1.7934 C8.9898,1.8394 9.0728,1.9004 9.1378,1.9794 C9.2028,2.0574 9.2358,2.1604 9.2358,2.2884 C9.2358,2.4624 9.2048,2.5934 9.1418,2.6834 C9.0798,2.7734 8.9858,2.8454 8.8608,2.8994 C8.7408,2.9504 8.5958,2.9824 8.4248,2.9974 C8.2548,3.0114 8.0578,3.0184 7.8358,3.0184 L7.4728,3.0184 L7.4728,4.1544 L7.8238,4.1544 C7.9918,4.1544 8.1738,4.1564 8.3698,4.1604 C8.5658,4.1644 8.7338,4.1894 8.8728,4.2354 C9.0128,4.2774 9.1248,4.3494 9.2108,4.4504 C9.2958,4.5514 9.3388,4.6944 9.3388,4.8794 C9.3388,5.0704 9.3068,5.2164 9.2448,5.3174 C9.1818,5.4184 9.0978,5.5044 8.9928,5.5754" id="Fill-1" fill="#000000"></path>
                        <path d="M13.462,4.0768 C13.465,4.0118 13.466,3.9648 13.466,3.9358 C13.58,3.8928 13.705,3.8578 13.842,3.8288 C13.979,3.8008 14.109,3.7868 14.234,3.7868 C14.382,3.7868 14.526,3.8018 14.666,3.8318 C14.805,3.8618 14.926,3.9158 15.028,3.9958 C15.134,4.0758 15.216,4.1808 15.276,4.3138 C15.336,4.4458 15.366,4.6168 15.366,4.8238 C15.366,5.0518 15.339,5.2318 15.287,5.3638 C15.234,5.4958 15.164,5.6108 15.075,5.7078 C14.996,5.7928 14.899,5.8568 14.785,5.8998 C14.671,5.9418 14.567,5.9638 14.474,5.9638 C14.348,5.9638 14.232,5.9428 14.124,5.9018 C14.015,5.8608 13.921,5.7958 13.842,5.7078 C13.725,5.5878 13.632,5.4148 13.562,5.1888 C13.492,4.9628 13.458,4.6748 13.458,4.3248 C13.458,4.2248 13.459,4.1418 13.462,4.0768 M12.617,6.4118 C12.841,6.6248 13.111,6.7838 13.426,6.8878 C13.74,6.9918 14.088,7.0438 14.469,7.0438 C14.876,7.0438 15.231,6.9878 15.534,6.8768 C15.837,6.7658 16.104,6.6048 16.335,6.3948 C16.551,6.1988 16.719,5.9568 16.838,5.6688 C16.958,5.3818 17.018,5.0748 17.018,4.7468 C17.018,4.3288 16.946,3.9798 16.804,3.7018 C16.662,3.4228 16.473,3.2008 16.236,3.0348 C16.054,2.9098 15.857,2.8188 15.645,2.7628 C15.433,2.7048 15.204,2.6768 14.956,2.6768 C14.674,2.6768 14.412,2.7178 14.169,2.7988 C13.925,2.8798 13.694,2.9858 13.475,3.1168 C13.537,2.6388 13.721,2.2658 14.025,1.9978 C14.33,1.7308 14.755,1.5968 15.302,1.5968 C15.535,1.5968 15.743,1.6198 15.927,1.6678 C16.11,1.7148 16.241,1.7568 16.317,1.7928 L16.48,1.7928 L16.48,0.5428 C16.406,0.5288 16.245,0.5068 15.997,0.4788 C15.75,0.4508 15.522,0.4358 15.315,0.4358 C14.7,0.4358 14.17,0.5238 13.724,0.7008 C13.279,0.8768 12.917,1.1248 12.638,1.4438 C12.348,1.7768 12.139,2.1588 12.011,2.5918 C11.882,3.0238 11.818,3.5188 11.818,4.0768 C11.818,4.6148 11.887,5.0768 12.024,5.4638 C12.16,5.8508 12.358,6.1668 12.617,6.4118" id="Fill-3" fill="#000000"></path>
                        <path d="M19.7213,2.0861 C19.8723,1.7601 20.1223,1.5971 20.4723,1.5971 C20.8233,1.5971 21.0733,1.7601 21.2233,2.0861 C21.3743,2.4121 21.4503,2.9601 21.4503,3.7291 C21.4503,4.4891 21.3733,5.0361 21.2203,5.3701 C21.0663,5.7031 20.8173,5.8701 20.4723,5.8701 C20.1283,5.8701 19.8793,5.7031 19.7253,5.3701 C19.5723,5.0361 19.4953,4.4921 19.4953,3.7371 C19.4953,2.9631 19.5703,2.4121 19.7213,2.0861 M18.4413,6.1981 C18.6483,6.4771 18.9203,6.6881 19.2563,6.8301 C19.5923,6.9721 19.9973,7.0441 20.4723,7.0441 C20.9563,7.0441 21.3633,6.9731 21.6933,6.8321 C22.0233,6.6911 22.2943,6.4821 22.5043,6.2061 C22.7093,5.9361 22.8603,5.5891 22.9563,5.1661 C23.0543,4.7431 23.1023,4.2641 23.1023,3.7291 C23.1023,3.1941 23.0553,2.7221 22.9613,2.3131 C22.8673,1.9041 22.7163,1.5611 22.5093,1.2821 C22.2983,0.9971 22.0283,0.7831 21.6983,0.6391 C21.3673,0.4951 20.9593,0.4231 20.4723,0.4231 C20.0063,0.4231 19.6043,0.4931 19.2693,0.6321 C18.9333,0.7721 18.6593,0.9811 18.4493,1.2601 C18.2393,1.5421 18.0853,1.8871 17.9883,2.2941 C17.8913,2.7011 17.8433,3.1811 17.8433,3.7331 C17.8433,4.2691 17.8903,4.7431 17.9843,5.1581 C18.0783,5.5721 18.2303,5.9191 18.4413,6.1981" id="Fill-5" fill="#000000"></path>
                        <path d="M24.5035,0.4333 C24.8555,0.4333 25.1405,0.7193 25.1405,1.0713 C25.1405,1.4233 24.8555,1.7083 24.5035,1.7083 C24.1515,1.7083 23.8665,1.4233 23.8665,1.0713 C23.8665,0.7193 24.1515,0.4333 24.5035,0.4333 M24.5035,2.1413 C25.0945,2.1413 25.5745,1.6623 25.5745,1.0713 C25.5745,0.4793 25.0945,0.0003 24.5035,0.0003 C23.9125,0.0003 23.4325,0.4793 23.4325,1.0713 C23.4325,1.6623 23.9125,2.1413 24.5035,2.1413" id="Fill-7" fill="#000000"></path>
                        <g id="Group-11" transform="translate(0.000000, 1.620900)">
                            <mask id="mask-16" fill="white">
                                <use xlink:href="#path-15"></use>
                            </mask>
                            <g id="Clip-10"></g>
                            <path d="M14.9767,8.6927 L12.8057,6.5217 C12.7847,6.5007 12.7547,6.4947 12.7287,6.5017 L12.7287,7.6847 C6.4777,7.3377 1.7237,5.5807 1.7237,3.4647 C1.7237,2.2087 3.4007,1.0787 6.0727,0.2957 C6.0627,0.2617 6.0607,0.2247 6.0667,0.1907 C2.3857,1.1497 -0.0003,2.6877 -0.0003,4.4217 C-0.0003,7.0597 5.5217,9.2447 12.7287,9.6297 L12.7287,10.9977 C12.7547,11.0047 12.7847,10.9977 12.8057,10.9767 L14.9767,8.8057 C15.0077,8.7747 15.0077,8.7237 14.9767,8.6927" id="Fill-9" fill="#000000" mask="url(#mask-16)"></path>
                        </g>
                        <g id="Group-14" transform="translate(14.000000, 1.620900)" fill="#000000">
                            <path d="M16.0001,4.4217 C16.0001,2.8637 14.0741,1.4647 11.0141,0.5007 C10.9701,0.5457 10.9111,0.5787 10.8371,0.5907 C12.9731,1.3507 14.2771,2.3587 14.2771,3.4647 C14.2771,5.6667 9.1261,7.4797 2.5001,7.7197 L0.6471,7.7317 L1.6261,8.6717 L0.6471,9.6897 L2.8411,9.6507 L2.8401,9.6487 C10.2561,9.3297 16.0001,7.1117 16.0001,4.4217" id="Fill-12"></path>
                        </g>
                    </g>
                </g>
                <g id="add-to-order" transform="translate(161.000000, 266.000000)" fill-rule="evenodd" stroke-width="1">
                    <g id="Page-1">
                        <path d="M3.67779399,3.39462783 L10.8154764,3.39462783 C11.2403691,3.39462783 11.5880086,3.74414239 11.5880086,4.17132686 L11.5880086,19.0580583 C11.5880086,19.4852427 11.2403691,19.8347573 10.8154764,19.8347573 L0.901313305,19.8347573 C0.476356223,19.8347573 0.128781116,19.4852427 0.128781116,19.0580583 L0.128781116,6.8218123 C0.128781116,6.7392233 0.162257511,6.6602589 0.221549356,6.6031068 L3.46032618,3.48245955 C3.51884549,3.42608414 3.59674249,3.39462783 3.67779399,3.39462783 Z" id="Fill-1" fill="#FFFFFF"></path>
                        <path d="M3.67779399,3.39462783 L10.8154764,3.39462783 C11.2403691,3.39462783 11.5880086,3.74414239 11.5880086,4.17132686 L11.5880086,19.0580583 C11.5880086,19.4852427 11.2403691,19.8347573 10.8154764,19.8347573 L0.901313305,19.8347573 C0.476356223,19.8347573 0.128781116,19.4852427 0.128781116,19.0580583 L0.128781116,6.8218123 C0.128781116,6.7392233 0.162257511,6.6602589 0.221549356,6.6031068 L3.46032618,3.48245955 C3.51884549,3.42608414 3.59674249,3.39462783 3.67779399,3.39462783 Z" id="Stroke-3" stroke="#000000" stroke-width="0.5"></path>
                        <path d="M3.64136266,3.32990291 L3.64136266,5.94705502 C3.64136266,6.40161812 3.2714485,6.77352751 2.81932403,6.77352751 L0.0714270386,6.77352751" id="Stroke-5" stroke="#000000" stroke-width="0.5"></path>
                        <mask id="mask-18" fill="white">
                            <use xlink:href="#path-17"></use>
                        </mask>
                        <g id="Clip-8"></g>
                        <polygon id="Fill-7" fill="#CECECE" mask="url(#mask-18)" points="4.46896996 5.9620712 9.94635193 5.9620712 9.94635193 4.73229773 4.46896996 4.73229773"></polygon>
                        <polygon id="Fill-9" fill="#CECECE" mask="url(#mask-18)" points="1.85639485 8.87469256 9.94635193 8.87469256 9.94635193 7.64491909 1.85639485 7.64491909"></polygon>
                        <polygon id="Fill-10" fill="#CECECE" mask="url(#mask-18)" points="1.85639485 11.7873139 9.94635193 11.7873139 9.94635193 10.5575405 1.85639485 10.5575405"></polygon>
                        <polygon id="Fill-11" fill="#CECECE" mask="url(#mask-18)" points="1.85639485 14.6999353 9.94635193 14.6999353 9.94635193 13.4701618 1.85639485 13.4701618"></polygon>
                        <polygon id="Fill-12" fill="#CECECE" mask="url(#mask-18)" points="1.85639485 17.6125566 9.94635193 17.6125566 9.94635193 16.3827832 1.85639485 16.3827832"></polygon>
                        <path d="M5.63400299,4.72796117 C5.63400299,7.27682312 7.68912778,9.34303273 10.2243156,9.34303273 C12.7595034,9.34303273 14.8147157,7.27682312 14.8147157,4.72796117 C14.8147157,2.17909921 12.7595034,0.112889601 10.2243156,0.112889601 C7.68912778,0.112889601 5.63400299,2.17909921 5.63400299,4.72796117" id="Fill-13" fill="#000000" mask="url(#mask-18)"></path>
                        <g id="Group" mask="url(#mask-18)" fill="#FFFFFF">
                            <g transform="translate(7.636364, 2.000000)" id="Rectangle">
                                <rect x="0" y="2.13333333" width="5.45454545" height="1.06666667"></rect>
                                <polygon transform="translate(2.727273, 2.666667) rotate(90.000000) translate(-2.727273, -2.666667) " points="0.0606060606 2.12121212 5.39393939 2.12121212 5.39393939 3.21212121 0.0606060606 3.21212121"></polygon>
                            </g>
                        </g>
                    </g>
                </g>
                <g id="cloud-upload-" transform="translate(277.000000, 263.000000)" fill-rule="evenodd" stroke-width="1">
                    <g id="Cloud-Upload-Icon">
                        <path d="M15.4010706,11.7119154 C15.115531,11.3855841 15.115531,10.8514537 15.4010706,10.5251224 C15.6866103,10.198791 16.153895,10.198791 16.4394346,10.5251224 L19.8793032,14.4563089 C20.1648429,14.7826402 20.1648429,15.3167706 19.8793032,15.6431019 C19.5936589,15.9694333 19.1263742,15.9694333 18.8408346,15.6431019 L15.4010706,11.7119154 Z" id="Fill-1" fill="#191919"></path>
                        <path d="M16.4352242,11.7088513 C16.7207639,11.3825199 16.7207639,10.8483896 16.4352242,10.5220582 C16.1496846,10.1957269 15.6823998,10.1957269 15.3968602,10.5220582 L11.3636874,14.4563089 C11.0781478,14.7826402 11.0781478,15.3167706 11.3636874,15.6431019 C11.6493317,15.9694333 12.1166165,15.9694333 12.4021561,15.6431019 L16.4352242,11.7088513 Z" id="Fill-3" fill="#191919"></path>
                        <path d="M16.588785,11.9538113 C16.588785,11.5474342 16.2734447,11.2149533 15.8878991,11.2149533 C15.5023535,11.2149533 15.1869159,11.5474342 15.1869159,11.9538113 L15.1869159,24.261142 C15.1869159,24.667519 15.5023535,25 15.8878991,25 C16.2734447,25 16.588785,24.667519 16.588785,24.261142 L16.588785,11.9538113 Z" id="Fill-5" fill="#191919"></path>
                        <g id="Group-9">
                            <mask id="mask-20" fill="white">
                                <use xlink:href="#path-19"></use>
                            </mask>
                            <g id="Clip-8"></g>
                            <path d="M26.0164918,6.29906492 C25.6744373,4.64095232 24.6681629,3.12802439 23.1289174,1.97982108 C21.418541,0.702818232 19.1951863,2.07406667e-05 16.87974,2.07406667e-05 C15.0903244,2.07406667e-05 13.3471099,0.418359988 11.8538584,1.20712754 C10.6104662,1.86191039 9.57787996,2.74712205 8.84777682,3.7878887 C8.53203415,3.73977035 8.20313553,3.71280749 7.87423691,3.71280749 C5.07844327,3.71280749 2.80215407,5.56909716 2.80215407,7.84932605 C2.80215407,8.14467315 2.84172549,8.42892398 2.90740163,8.70798965 C1.09851102,9.78100805 4.14360463e-05,11.5087056 4.14360463e-05,13.3488175 C4.14360463e-05,14.8350937 0.677417204,16.278333 1.91438678,17.4213511 C3.18378006,18.5907099 4.86131839,19.2829297 6.65042328,19.3634035 L12.3604141,19.3634035 C12.8538138,19.3634035 13.2485957,19.0417157 13.2485957,18.6392431 C13.2485957,18.2368742 12.8538138,17.9148753 12.3604141,17.9148753 L6.72946254,17.9148753 C4.03912364,17.7807869 1.77630115,15.6935499 1.77630115,13.3436324 C1.77630115,11.8252082 2.77615295,10.4086206 4.38760079,9.64152706 C4.76280419,9.46440177 4.92046835,9.09438828 4.77564937,8.76160428 C4.64419351,8.47185716 4.57841379,8.16613974 4.57841379,7.83874831 C4.57841379,6.35796841 6.05850936,5.15075791 7.87423691,5.15075791 C8.2621819,5.15075791 8.64380788,5.20447624 8.99901839,5.31160178 C9.43306097,5.44050502 9.91320116,5.27945375 10.1107475,4.94148458 C11.3409837,2.81152182 13.9981738,1.43797116 16.886059,1.43797116 C20.7671663,1.43797116 23.9708978,3.80945899 24.3392643,6.95353666 C24.3787321,7.28072068 24.6813188,7.54360863 25.0761008,7.59743066 C28.0032467,8.00498476 30.2137562,10.2101324 30.2137562,12.7265975 C30.2137562,15.3931213 27.6416136,17.7107871 24.4710309,17.909379 L19.6228063,17.909379 C19.1295102,17.909379 18.7346247,18.2313779 18.7346247,18.6337468 C18.7346247,19.0361157 19.1295102,19.3582183 19.6228063,19.3582183 L24.5695451,19.3582183 C26.5756713,19.2399965 28.4506524,18.4888733 29.8452861,17.2334407 C31.2331865,15.9885859 31.9896015,14.3897916 31.9896015,12.7265975 C31.9832825,9.71650457 29.4636601,7.03940302 26.0164918,6.29906492" id="Fill-7" fill="#191919" mask="url(#mask-20)"></path>
                        </g>
                    </g>
                </g>
                <g id="attachment" transform="translate(423.000000, 217.000000) rotate(90.000000) translate(-423.000000, -217.000000) translate(413.000000, 211.000000)" fill="#979797" fill-rule="evenodd" stroke-width="1">
                    <g transform="translate(0.000000, 0.500000)" id="Shape">
                        <path d="M5.5,11 C2.5,11 0,8.5 0,5.5 C0,2.5 2.5,0 5.5,0 L16,0 C18.2,0 20,1.8 20,4 C20,6.2 18.2,8 16,8 L7.5,8 C6.1,8 5,6.9 5,5.5 C5,4.1 6.1,3 7.5,3 L15,3 L15,4.5 L7.5,4.5 C6.9,4.5 6.5,4.9 6.5,5.5 C6.5,6.1 6.9,6.5 7.5,6.5 L16,6.5 C17.4,6.5 18.5,5.4 18.5,4 C18.5,2.6 17.4,1.5 16,1.5 L5.5,1.5 C3.3,1.5 1.5,3.3 1.5,5.5 C1.5,7.7 3.3,9.5 5.5,9.5 L15,9.5 L15,11 L5.5,11 L5.5,11 Z"></path>
                    </g>
                </g>
                <g id="comment" transform="translate(413.000000, 142.000000)" fill-rule="evenodd" stroke-width="1">
                    <g id="Page-1">
                        <g id="Group-3" transform="translate(0.000000, 4.772727)">
                            <mask id="mask-22" fill="white">
                                <use xlink:href="#path-21"></use>
                            </mask>
                            <g id="Clip-2"></g>
                            <path d="M7.84029697,10.3471402 C12.1720773,10.3471402 15.6807742,12.1005871 15.6807742,14.2678295 L15.6807742,16.226822 L-0.00018030303,16.226822 L-0.00018030303,14.2678295 C-0.00018030303,12.1005871 3.50851667,10.3471402 7.84029697,10.3471402 M7.84029697,0.546768939 C10.0048348,0.546768939 11.7600848,2.30201894 11.7600848,4.46655682 C11.7600848,6.63199621 10.0048348,8.3863447 7.84029697,8.3863447 C5.67575909,8.3863447 3.92050909,6.63199621 3.92050909,4.46655682 C3.92050909,2.30201894 5.67575909,0.546768939 7.84029697,0.546768939" id="Fill-1" fill="#191919" mask="url(#mask-22)"></path>
                        </g>
                        <path d="M20.4197937,0 L13.1645861,0 C12.8429309,0 12.5843798,0.256833561 12.5843798,0.574404789 L12.5843798,5.90109814 C12.5843798,6.15185794 12.746522,6.36443977 12.9735212,6.44339874 L12.4090909,8.59090909 L15.2084547,6.47550293 L20.4197937,6.47550293 C20.739696,6.47550293 21,6.21866937 21,5.90109814 L21,0.574404789 C21,0.256833561 20.739696,0 20.4197937,0" id="Fill-4" fill="#191919"></path>
                    </g>
                </g>
                <g id="close-white" transform="translate(410.000000, 262.000000)" fill="#191919" fill-rule="evenodd" stroke-width="1">
                    <g>
                        <path d="M13,24.4980695 C7.16023938,24.4980695 2.40926641,19.5643668 2.40926641,13.5 C2.40926641,7.4356332 7.16023938,2.5019305 13,2.5019305 C18.8397606,2.5019305 23.5907336,7.4356332 23.5907336,13.5 C23.5907336,19.5643668 18.8397606,24.4980695 13,24.4980695 M13,0 C5.83183012,0 0,6.05613127 0,13.5 C0,20.9438687 5.83183012,27 13,27 C20.1681699,27 26,20.9438687 26,13.5 C26,6.05613127 20.1681699,0 13,0" id="Fill-1"></path>
                        <polygon id="Fill-3" points="17.0356417 7.46624015 13.0251166 11.6311205 9.01459151 7.46624015 7.23996602 9.30912046 11.2504911 13.4738965 7.23996602 17.6387768 9.01459151 19.4815529 13.0251166 15.3167768 17.0356417 19.4815529 18.8102672 17.6387768 14.7997421 13.4738965 18.8102672 9.30912046"></polygon>
                    </g>
                </g>
                <g id="FAX" transform="translate(411.000000, 83.000000)" fill-rule="evenodd" stroke-width="1">
                    <g>
                        <g id="fax" transform="translate(6.250000, 0.000000)" fill="#000000" fill-rule="nonzero">
                            <path d="M1.25,7.5 L1.25,0 L15,0 L15,7.5 C17.0710678,7.5 18.75,9.17893219 18.75,11.25 L18.75,18.75 L15,18.75 L15,22.5 L1.25,22.5 L1.25,18.75 L0,18.75 L0,7.5 L1.25,7.5 L1.25,7.5 Z M2.5,7.5 L13.75,7.5 L13.75,1.25 L2.5,1.25 L2.5,7.5 Z M3.75,15 L3.75,20 L12.5,20 L12.5,15 L3.75,15 L3.75,15 Z M15,10 C14.3096441,10 13.75,10.5596441 13.75,11.25 C13.75,11.9403559 14.3096441,12.5 15,12.5 C15.6903559,12.5 16.25,11.9403559 16.25,11.25 C16.25,10.5596441 15.6903559,10 15,10 L15,10 Z" id="Shape"></path>
                        </g>
                        <g id="Group" transform="translate(0.000000, 2.500000)">
                            <path d="M5,6.25 L2.5,6.25 L2.5,16.25 L5,16.25 L5,17.0833333 C5,18.0038079 4.44035594,18.75 3.75,18.75 L2.5,18.75 C1.11928813,18.75 0,17.2576158 0,15.4166667 L0,7.08333333 C-2.77555756e-16,5.24238417 1.11928813,3.75 2.5,3.75 L3.75,3.75 C4.44035594,3.75 5,4.49619208 5,5.41666667 L5,6.25 Z" id="Combined-Shape" fill="#000000"></path>
                            <path d="M5,6.25 C5,7.63071187 4.16053391,8.75 3.125,8.75 L2.1875,8.75 C1.66973305,8.75 1.25,8.19035594 1.25,7.5 L1.25,6.25 L5,6.25 Z" id="Combined-Shape" fill="#000000"></path>
                            <path d="M5,13.75 C5,15.1307119 4.16053391,16.25 3.125,16.25 L2.1875,16.25 C1.66973305,16.25 1.25,15.6903559 1.25,15 L1.25,13.75 L5,13.75 Z" id="Combined-Shape" fill="#000000" transform="translate(3.125000, 15.000000) rotate(-180.000000) translate(-3.125000, -15.000000) "></path>
                            <polygon id="Path" fill="#979797" points="11.25 0 17.5 0 17.5 1.25 11.25 1.25"></polygon>
                            <polygon id="Path" fill="#979797" points="11.25 2.5 17.5 2.5 17.5 3.75 11.25 3.75"></polygon>
                        </g>
                    </g>
                </g>
                <g id="lock" transform="translate(416.000000, 20.000000)" fill="#191919" fill-rule="evenodd" stroke-width="1">
                    <g transform="translate(0.000000, 0.468750)" id="Shape">
                        <path d="M12.1875,6.5625 L12.1875,4.6875 C12.1875,2.0625 10.125,0 7.5,0 C4.875,0 2.8125,2.0625 2.8125,4.6875 L2.8125,6.5625 L1.875,6.5625 C0.84375,6.5625 0,7.40625 0,8.4375 L0,17.8125 C0,18.84375 0.84375,19.6875 1.875,19.6875 L13.125,19.6875 C14.15625,19.6875 15,18.84375 15,17.8125 L15,8.4375 C15,7.40625 14.15625,6.5625 13.125,6.5625 L12.1875,6.5625 Z M6.59241514,13.8266544 C6.01665104,13.5056618 5.625,12.8900977 5.625,12.1875 C5.625,11.15625 6.46875,10.3125 7.5,10.3125 C8.53125,10.3125 9.375,11.15625 9.375,12.1875 C9.375,12.8900977 8.98334896,13.5056618 8.40758486,13.8266544 C8.4271107,13.9020079 8.4375,13.9810406 8.4375,14.0625 L8.4375,15.9375 C8.4375,16.455267 8.01776695,16.875 7.5,16.875 C6.98223305,16.875 6.5625,16.455267 6.5625,15.9375 L6.5625,14.0625 C6.5625,13.9810406 6.5728893,13.9020079 6.59241514,13.8266544 Z M10.40625,6.5625 L4.59375,6.5625 L4.59375,4.6875 C4.59375,3.09375 5.90625,1.78125 7.5,1.78125 C9.09375,1.78125 10.40625,3.09375 10.40625,4.6875 L10.40625,6.5625 L10.40625,6.5625 Z"></path>
                    </g>
                </g>
                <g id="tools-wrench" transform="translate(537.000000, 142.000000)" fill="#979797" fill-rule="evenodd" stroke-width="1">
                    <g id="wrench">
                        <path d="M17.0173353,16.3436231 L9.89559618,8.03492742 C10.599944,5.93492742 10.2086397,3.46971002 8.72168314,1.73492742 C7.15646575,-0.0911595402 4.80863966,-0.456376932 2.93037879,0.547970895 L6.29559618,4.47405785 L3.94777009,7.21318829 L0.504291833,3.28710133 C-0.434838601,5.47840568 -0.0435342535,8.21753611 1.52168314,10.0436231 C3.00863966,11.7784057 5.12168314,12.2349274 6.92168314,11.4131883 L14.0434223,19.7218839 C14.3564657,20.0871013 14.826031,20.0871013 15.1390744,19.7218839 L16.9390744,17.6218839 C17.3303788,17.2566665 17.3303788,16.6175361 17.0173353,16.3436231 Z" id="Shape" fill-rule="nonzero"></path>
                    </g>
                </g>
                <g id="time" transform="translate(531.000000, 16.000000)" fill-rule="evenodd" stroke-width="1">
                    <g id="Page-1" transform="translate(7.631579, 1.526316)">
                        <path d="M1.78400547,22.9739645 L1.78400547,22.9061724 C1.78400547,22.3793677 2.0232406,21.8825304 2.43142105,21.5618429 L5.68223582,19.0084026 C6.35427068,18.4805015 7.28998154,18.484887 7.95719959,19.0191835 L11.2285304,21.6395023 C11.6293964,21.9605553 11.8636364,22.4526416 11.8636364,22.9739645 C11.8636364,23.4735427 11.4681224,23.8786505 10.9803753,23.8786505 L2.66726658,23.8786505 C2.17951948,23.8786505 1.78400547,23.4735427 1.78400547,22.9739645" id="Fill-1" fill="#000000"></path>
                        <path d="M11.8636364,7.64292528 L11.8636364,7.71071735 C11.8636364,8.23752202 11.6244012,8.7343593 11.2162208,9.05486412 L7.96540602,11.6084872 C7.29337116,12.1363882 6.35766029,12.13182 5.69044224,11.5975235 L2.41911141,8.97738747 C2.01824539,8.65633447 1.78400547,8.16424811 1.78400547,7.64292528 C1.78400547,7.14316434 2.17951948,6.73805649 2.66726658,6.73805649 L10.9803753,6.73805649 C11.4681224,6.73805649 11.8636364,7.14316434 11.8636364,7.64292528" id="Fill-3" fill="#000000"></path>
                        <g id="Group-7" transform="translate(0.000000, 0.037642)">
                            <mask id="mask-24" fill="white">
                                <use xlink:href="#path-23"></use>
                            </mask>
                            <g id="Clip-6"></g>
                            <path d="M11.1128377,0.145122535 L2.53480417,0.145122535 C1.13721429,0.145122535 -8.92002734e-05,1.30983047 -8.92002734e-05,2.7413212 L-8.92002734e-05,8.55261809 C-8.92002734e-05,9.35698651 0.354749487,10.1025165 0.973442584,10.597892 L3.89332433,12.9364443 L0.992174641,15.2154272 C0.370983937,15.7034936 -8.92002734e-05,16.4735091 -8.92002734e-05,17.2756848 L-8.92002734e-05,23.1684784 C-8.92002734e-05,24.5999691 1.13721429,25.764677 2.53480417,25.764677 L11.1128377,25.764677 C12.5104275,25.764677 13.6475526,24.5999691 13.6475526,23.1684784 L13.6475526,17.3571815 C13.6475526,16.552813 13.2928923,15.807283 12.6741992,15.3119076 L9.7543175,12.9731726 L12.6554672,10.6943723 C13.2766579,10.206306 13.6475526,9.43610771 13.6475526,8.63429748 L13.6475526,2.7413212 C13.6475526,1.30983047 12.5104275,0.145122535 11.1128377,0.145122535 M11.1128377,1.05876227 C12.0201828,1.05876227 12.7555499,1.81214959 12.7555499,2.7413212 L12.7555499,8.63429748 C12.7555499,9.15744759 12.5179204,9.65081305 12.1125943,9.96930786 L8.29749863,12.9662289 L12.1247256,16.0316729 C12.5229156,16.3505332 12.7555499,16.8393305 12.7555499,17.3571815 L12.7555499,23.1684784 C12.7555499,24.09765 12.0201828,24.8510373 11.1128377,24.8510373 L2.53480417,24.8510373 C1.62745899,24.8510373 0.891913534,24.09765 0.891913534,23.1684784 L0.891913534,17.2756848 C0.891913534,16.752352 1.12972146,16.2588038 1.53504751,15.940309 L5.3501432,12.9435706 L1.52291627,9.87812661 C1.12472625,9.55926635 0.891913534,9.07028636 0.891913534,8.55261809 L0.891913534,2.7413212 C0.891913534,1.81214959 1.62745899,1.05876227 2.53480417,1.05876227 L11.1128377,1.05876227" id="Fill-5" fill="#000000" mask="url(#mask-24)"></path>
                        </g>
                    </g>
                </g>
                <g id="star" transform="translate(664.000000, 266.000000)" fill="#191919" fill-rule="evenodd">
                    <polyline id="star-filled" points="10 14.5033809 16.18 19 13.8 11.7340346 20 7.26596544 12.3471429 7.28024042 10 0 7.65142857 7.28024042 0 7.26596544 6.2 11.7340346 3.82 19 10 14.5033809"></polyline>
                </g>
                <g id="warning" transform="translate(535.000000, 266.000000)" fill-rule="evenodd" stroke-width="1">
                    <g id="Page-1" transform="translate(0.000000, 1.000000)">
                        <mask id="mask-26" fill="white">
                            <use xlink:href="#path-25"></use>
                        </mask>
                        <g id="Clip-2"></g>
                        <path d="M12.1406538,8.46461232 C12.1227215,8.64461118 12.0977443,8.8219204 12.0657223,8.99612619 C12.0337003,9.17033198 11.9957008,9.35529632 11.9519374,9.55081232 C11.9079605,9.74632832 11.8599274,9.97970614 11.8080518,10.2507389 C11.7559626,10.5217717 11.7002443,10.84308 11.6402564,11.2148707 C11.5802685,11.5866614 11.5202805,12.0379 11.4602926,12.5681725 L10.8192118,12.5681725 C10.7592239,12.0416241 10.6992359,11.59142 10.639248,11.2177672 C10.5794736,10.8441144 10.5233283,10.5217717 10.4714526,10.2507389 C10.419577,9.97970614 10.3704765,9.74632832 10.3245783,9.55081232 C10.2786801,9.35529632 10.2398267,9.17033198 10.2078047,8.99612619 C10.1757826,8.8219204 10.1508055,8.64461118 10.1328731,8.46461232 C10.1149408,8.28440657 10.1059746,8.07647686 10.1059746,7.8402025 C10.1059746,7.62337629 10.1358619,7.42868787 10.1958498,7.25634414 C10.2556242,7.0842073 10.3337579,6.93896685 10.4296105,6.82082967 C10.5254631,6.70269249 10.6351919,6.61165858 10.7592239,6.54772795 C10.8830423,6.48379733 11.0087821,6.45193546 11.1366567,6.45193546 C11.2645313,6.45193546 11.3904846,6.48379733 11.5143031,6.54772795 C11.6381216,6.61165858 11.7480638,6.70269249 11.8439164,6.82082967 C11.9399825,6.93896685 12.0176892,7.0842073 12.0776772,7.25634414 C12.1376651,7.42868787 12.1675523,7.62337629 12.1675523,7.8402025 C12.1675523,8.07647686 12.1585861,8.28440657 12.1406538,8.46461232 M11.9429712,14.3776782 C11.8968595,14.4802982 11.8349503,14.5692632 11.75703,14.6447799 C11.6791098,14.7202967 11.5862459,14.7792618 11.4784384,14.8218823 C11.370631,14.8645027 11.2566326,14.8858129 11.1366567,14.8858129 C11.0168944,14.8858129 10.9039634,14.8645027 10.7980772,14.8218823 C10.6921911,14.7792618 10.6003946,14.7202967 10.5224744,14.6447799 C10.4445541,14.5692632 10.3837123,14.4802982 10.3395219,14.3776782 C10.295545,14.2750582 10.27377,14.1656106 10.27377,14.0493355 C10.27377,13.9332672 10.295545,13.8238196 10.3395219,13.7211996 C10.3837123,13.6187865 10.4445541,13.5296146 10.5224744,13.4540979 C10.6003946,13.3785811 10.6921911,13.3185815 10.7980772,13.274099 C10.9039634,13.2294096 11.0168944,13.2070649 11.1366567,13.2070649 C11.2566326,13.2070649 11.370631,13.2294096 11.4784384,13.274099 C11.5862459,13.3185815 11.6791098,13.3785811 11.75703,13.4540979 C11.8349503,13.5296146 11.8968595,13.6187865 11.9429712,13.7211996 C11.9888694,13.8238196 12.0117118,13.9332672 12.0117118,14.0493355 C12.0117118,14.1656106 11.9888694,14.2750582 11.9429712,14.3776782 M21.7976412,15.9976679 L12.1666984,0.603420903 C11.6656605,-0.197263664 10.5182048,-0.202022254 10.010976,0.594524408 L0.207968207,15.9887714 C-0.344091421,16.8556624 0.267529165,18 1.28305416,18 L20.7172182,18 C21.7278332,18 22.3403077,16.8649727 21.7976412,15.9976679" id="Fill-1" fill="#000000" mask="url(#mask-26)"></path>
                    </g>
                </g>
                <g id="email-outline" transform="translate(536.000000, 209.000000)" fill="#979797" fill-rule="evenodd" stroke-width="1">
                    <g id="Page-1">
                        <path d="M2.041,14.0737 L17.958,14.0737 L17.958,1.9907 L2.041,1.9907 L2.041,14.0737 Z M18.001,-0.0003 L1.999,-0.0003 C0.899,-0.0003 0,0.8997 0,1.9987 L0,14.0637 C0,15.1627 0.899,16.0627 1.999,16.0627 L18.001,16.0627 C19.101,16.0627 20,15.1627 20,14.0637 L20,1.9987 C20,0.8997 19.101,-0.0003 18.001,-0.0003 L18.001,-0.0003 Z" id="Fill-1"></path>
                        <polygon id="Fill-3" points="16.6631 3.3887 10.0001 7.5537 3.3361 3.3887 3.3361 5.7527 9.9961 9.9107 16.6631 5.7527"></polygon>
                    </g>
                </g>
                <g id="Credit-Card" transform="translate(660.000000, 83.000000)" fill-rule="evenodd">
                    <g id="Group" stroke-width="1" transform="translate(2.000000, 2.000000)">
                        <path d="M2,-1 L18,-1 C19.6568542,-1 21,0.343145751 21,2 L21,12.7826087 C21,14.4394629 19.6568542,15.7826087 18,15.7826087 L2,15.7826087 C0.343145751,15.7826087 -1,14.4394629 -1,12.7826087 L-1,2 C-1,0.343145751 0.343145751,-1 2,-1 Z" id="Rectangle-4" stroke="#979797" stroke-width="2"></path>
                        <polygon id="Rectangle-5" fill="#979797" points="0 3 20 3 20 7.48000002 0 7.48000002"></polygon>
                    </g>
                    <circle id="Oval-3" fill="#FFFFFF" cx="21" cy="15" r="7"></circle>
                    <circle id="Oval-3" fill="#8FA500" cx="21" cy="15" r="6"></circle>
                    <g id="check" transform="translate(16.000000, 11.000000)" fill="#8FA500" stroke-width="1">
                        <g transform="translate(0.000000, -0.321429)" id="Shape">
                            <polygon points="3.33333333 7.2 1 4.5 0.222222222 5.4 3.33333333 9 10 1.28571429 9.22222222 0.385714286"></polygon>
                        </g>
                    </g>
                </g>
                <g id="currency-exchange" transform="translate(792.000000, 82.000000)" fill-rule="evenodd" stroke-width="1">
                    <g id="Page-1">
                        <path d="M13.6363636,13.6363636 L13.6363636,17.0454545 C14.3094265,16.9872237 14.7973515,16.8824083 15.1037867,16.7310081 C15.6400482,16.4637934 15.9090909,16.0018289 15.9090909,15.3451147 C15.9090909,14.8449766 15.6582883,14.4503011 15.1557712,14.159794 C14.8584562,13.9909246 14.352291,13.8162322 13.6363636,13.6363636" id="Fill-1" fill="#666666"></path>
                        <path d="M9.09090909,7.31356909 C9.09090909,7.85700557 9.3697195,8.28800692 9.92827907,8.60513165 C10.2380684,8.780271 10.715895,8.94171632 11.3636364,9.09090909 L11.3636364,5.68181818 C10.592918,5.69479147 10.0202771,5.84542572 9.64852991,6.13372093 C9.2767827,6.42201614 9.09090909,6.81481837 9.09090909,7.31356909" id="Fill-3" fill="#666666"></path>
                        <g id="Group-7">
                            <mask id="mask-28" fill="white">
                                <use xlink:href="#path-27"></use>
                            </mask>
                            <g id="Clip-6"></g>
                            <path d="M16.0010938,18.8346875 C15.1682813,19.3260938 14.1792188,19.6135938 13.03625,19.6979688 L13.03625,21.8135938 L11.9635938,21.8135938 L11.9635938,19.7190625 C10.5104688,19.5651563 9.426875,19.2628125 8.71125,18.814375 C7.45109375,18.0065625 6.8315625,16.6315625 6.8534375,14.6870313 L9.839375,14.6870313 C9.9425,15.5714063 10.0870313,16.164375 10.270625,16.4667188 C10.558125,16.93625 11.1229688,17.2417188 11.9635938,17.3823438 L11.9635938,12.8878125 L11.0675,12.6339063 C9.65890625,12.2417188 8.66515625,11.6940625 8.08625,10.9925 C7.50734375,10.2909375 7.21828125,9.44484375 7.21828125,8.45578125 C7.21828125,7.80265625 7.33,7.2096875 7.555,6.67609375 C7.78078125,6.14328125 8.095625,5.68390625 8.50109375,5.2971875 C9.02453125,4.79953125 9.60734375,4.45578125 10.2495313,4.2659375 C10.6401563,4.14640625 11.21125,4.05890625 11.9635938,4.00265625 L11.9635938,2.60265625 L13.03625,2.60265625 L13.03625,4.02375 C14.2323438,4.11515625 15.1721875,4.395625 15.855,4.8659375 C17.0948438,5.6175 17.7378125,6.8346875 17.7815625,8.51828125 L14.8721875,8.51828125 C14.8135938,7.8940625 14.7057813,7.4378125 14.545625,7.1503125 C14.2675,6.651875 13.7659375,6.3784375 13.03625,6.32921875 L13.03625,10.339375 C14.783125,10.9151563 15.958125,11.4245313 16.56125,11.8667188 C17.5510938,12.6026563 18.0471875,13.6425 18.0471875,14.9815625 C18.0471875,16.7503125 17.3651563,18.0354688 16.0010938,18.8346875 M12.5003125,0.0003125 C5.59640625,0.0003125 0.0003125,5.59640625 0.0003125,12.5003125 C0.0003125,19.4042187 5.59640625,25.0003125 12.5003125,25.0003125 C19.4034375,25.0003125 25.0003125,19.4042187 25.0003125,12.5003125 C25.0003125,5.59640625 19.4034375,0.0003125 12.5003125,0.0003125" id="Fill-5" fill="#666666" mask="url(#mask-28)"></path>
                        </g>
                    </g>
                </g>
                <g id="calendar-picker" transform="translate(536.000000, 82.000000)" fill-rule="evenodd">
                    <g id="calendar-blank" stroke-width="1" transform="translate(0.000000, 2.181818)" fill="#979797">
                        <path d="M17.7777778,19.6363636 L2.22222222,19.6363636 L2.22222222,7.63636364 L17.7777778,7.63636364 M14.4444444,0 L14.4444444,2.18181818 L5.55555556,2.18181818 L5.55555556,0 L3.33333333,0 L3.33333333,2.18181818 L2.22222222,2.18181818 C0.988888889,2.18181818 0,3.15272727 0,4.36363636 L0,19.6363636 C0,20.8413485 0.994922778,21.8181818 2.22222222,21.8181818 L17.7777778,21.8181818 C19.0050772,21.8181818 20,20.8413485 20,19.6363636 L20,4.36363636 C20,3.15272727 19,2.18181818 17.7777778,2.18181818 L16.6666667,2.18181818 L16.6666667,0" id="Shape" fill-rule="nonzero"></path>
                    </g>
                    <ellipse id="Oval-3" fill="#979797" cx="15.5555556" cy="2.18181818" rx="1.11111111" ry="1.09090909"></ellipse>
                    <ellipse id="Oval-3" fill="#8FA500" cx="10" cy="12.5454545" rx="1.11111111" ry="1.63636364"></ellipse>
                    <ellipse id="Oval-3" fill="#8FA500" cx="15.5555556" cy="12.5454545" rx="1.11111111" ry="1.63636364"></ellipse>
                    <ellipse id="Oval-3" fill="#979797" cx="4.44444444" cy="2.18181818" rx="1.11111111" ry="1.09090909"></ellipse>
                    <rect id="Rectangle-3" fill="#8FA500" x="10" y="10.9090909" width="5.55555556" height="3.27272727"></rect>
                    <ellipse id="Oval-3" fill="#8FA500" cx="4.44444444" cy="16.9090909" rx="1.11111111" ry="1.63636364"></ellipse>
                    <ellipse id="Oval-3" fill="#8FA500" cx="10" cy="16.9090909" rx="1.11111111" ry="1.63636364"></ellipse>
                    <rect id="Rectangle-3" fill="#8FA500" x="4.44444444" y="15.2727273" width="5.55555556" height="3.27272727"></rect>
                    <rect id="Path" fill="#2C2C2C" x="4.44444444" y="16.3636364" width="1.11111111" height="1.09090909"></rect>
                    <rect id="Path" fill="#2C2C2C" x="6.66666667" y="16.3636364" width="1.11111111" height="1.09090909"></rect>
                    <rect id="Path" fill="#2C2C2C" x="8.88888889" y="16.3636364" width="1.11111111" height="1.09090909"></rect>
                    <rect id="Path" fill="#2C2C2C" x="12.2222222" y="12" width="1.11111111" height="1.09090909"></rect>
                    <rect id="Path" fill="#2C2C2C" x="10" y="12" width="1.11111111" height="1.09090909"></rect>
                    <rect id="Path" fill="#2C2C2C" x="14.4444444" y="12" width="1.11111111" height="1.09090909"></rect>
                </g>
                <g id="Assigned-Orders" transform="translate(793.000000, 267.000000)" fill-rule="evenodd" stroke-width="1">
                    <g>
                        <g id="Group-8" transform="translate(6.000000, 0.000000)" fill="#686868">
                            <g id="Group-10">
                                <g id="Group-9">
                                    <path d="M8.5,8.5 C10.8375,8.5 12.75,6.5875 12.75,4.25 C12.75,1.9125 10.8375,0 8.5,0 C6.1625,0 4.25,1.9125 4.25,4.25 C4.25,6.5875 6.1625,8.5 8.5,8.5 L8.5,8.5 Z" id="Path"></path>
                                    <path d="M8.5,10.625 C5.63125,10.625 0,12.00625 0,14.875 L0,17 L17,17 L17,14.875 C17,12.00625 11.36875,10.625 8.5,10.625 L8.5,10.625 Z" id="Path"></path>
                                </g>
                            </g>
                        </g>
                        <g id="check" transform="translate(0.000000, 3.000000)" fill="#8FA500" stroke="#8FA500" stroke-width="0.5">
                            <g id="check-copy" transform="translate(0.000000, 0.714286)">
                                <polygon id="Shape" points="2.66666667 6.4 0.8 4 0.177777778 4.8 2.66666667 8 8 1.14285714 7.37777778 0.342857143"></polygon>
                            </g>
                        </g>
                    </g>
                </g>
                <g id="calendar-add" transform="translate(664.000000, 141.000000)" fill="#979797" fill-rule="evenodd" stroke-width="1">
                    <g>
                        <g id="calendar-picker">
                            <g id="calendar-blank" transform="translate(0.000000, 1.074380)">
                                <path d="M7.89570894,17.8512397 C8.23820315,18.5941828 8.71040762,19.2650164 9.28329247,19.8347107 L1.98347107,19.8347107 C0.888030248,19.8347107 0,18.9466805 0,17.8512397 L0,3.96694215 C0,2.8661157 0.882644628,1.98347107 1.98347107,1.98347107 L2.97520661,1.98347107 L2.97520661,0 L4.95867769,0 L4.95867769,1.98347107 L12.892562,1.98347107 L12.892562,0 L14.8760331,0 L14.8760331,1.98347107 L15.8677686,1.98347107 C16.9586777,1.98347107 17.8512397,2.8661157 17.8512397,3.96694215 L17.8512397,9.3116177 C17.2500735,8.91341471 16.5821153,8.6079608 15.8677686,8.41565967 L15.8677686,6.94214876 L1.98347107,6.94214876 L1.98347107,17.8512397 L7.89570894,17.8512397 Z" id="Shape" fill-rule="nonzero"></path>
                                <path d="M14.0909091,9.09090909 C10.8409091,9.09090909 8.18181818,11.75 8.18181818,15 C8.18181818,18.25 10.8409091,20.9090909 14.0909091,20.9090909 C17.3409091,20.9090909 20,18.25 20,15 C20,11.75 17.3409091,9.09090909 14.0909091,9.09090909 L14.0909091,9.09090909 Z M14.0909091,19.7272727 C11.4909091,19.7272727 9.36363636,17.6 9.36363636,15 C9.36363636,12.4 11.4909091,10.2727273 14.0909091,10.2727273 C16.6909091,10.2727273 18.8181818,12.4 18.8181818,15 C18.8181818,17.6 16.6909091,19.7272727 14.0909091,19.7272727 L14.0909091,19.7272727 Z" id="Shape"></path>
                            </g>
                            <circle id="Oval-3" cx="13.8842975" cy="1.07438017" r="1"></circle>
                            <circle id="Oval-3" cx="3.96694215" cy="1.07438017" r="1"></circle>
                        </g>
                        <polygon id="Path" points="14.7272727 12.7272727 13.4545455 12.7272727 13.4545455 15.2727273 10.9090909 15.2727273 10.9090909 16.5454545 13.4545455 16.5454545 13.4545455 19.0909091 14.7272727 19.0909091 14.7272727 16.5454545 17.2727273 16.5454545 17.2727273 15.2727273 14.7272727 15.2727273"></polygon>
                    </g>
                </g>
                <g id="SPA-Icon" transform="translate(794.000000, 207.000000)" fill="#8FA500" fill-rule="evenodd" stroke-width="1">
                    <g id="Group">
                        <g id="spa">
                            <path d="M9.65190001,0.344768308 C9.99374813,0.326501883 10.3268668,0.437425724 10.5718421,0.682401101 L20.4313205,10.5418795 C20.9263423,11.0369013 20.8739987,11.8918334 20.3144087,12.4514234 L13.2218119,19.5440202 C12.662221,20.1036111 11.8072889,20.1559547 11.3122671,19.6609329 L1.45278873,9.8014545 C1.20816973,9.55683551 1.09721341,9.22432849 1.11507705,8.8830038 L1.00388313,1.0018083 C0.99866177,0.631711356 1.29722899,0.290549083 1.6707524,0.239798085 C1.70464209,0.23519482 1.73851878,0.233119638 1.77209755,0.233593886 L9.65190001,0.344768308 Z M6.65769346,5.16226997 L5.92265596,4.42723247 L5.32126164,5.02862679 L6.06743607,5.77480122 C5.78529905,6.1163355 5.55885037,6.49127512 5.38808323,6.89963133 C5.21731609,7.30798754 5.11894084,7.72190603 5.09295454,8.14139923 C5.06696823,8.56089242 5.1207962,8.97109864 5.25444005,9.37203019 C5.3880839,9.77296174 5.62195713,10.1404768 5.95606675,10.4745864 C6.32729967,10.8458194 6.70038315,11.0926855 7.0753284,11.2151924 C7.45027364,11.3376993 7.83449395,11.3766781 8.22800084,11.3321302 C8.62150773,11.2875822 9.01315258,11.1780702 9.40294715,11.0035907 C9.79274171,10.8291112 10.1880988,10.6305046 10.5890304,10.4077648 L10.655852,10.3632171 L13.0057446,12.7131097 C12.6642103,12.9952467 12.2855584,13.2105586 11.8697775,13.3590518 C11.4539967,13.5075449 11.0307975,13.5446677 10.6001673,13.4704211 L10.6224412,15.5196165 C11.3203591,15.5344659 11.9718631,15.3952556 12.5769727,15.1019816 C13.1820824,14.8087076 13.7259304,14.4133505 14.2085332,13.9158984 L14.9992554,14.7066205 L15.6006497,14.1052262 L14.7987906,13.3033671 C15.1180509,12.9098602 15.3723416,12.499654 15.5616704,12.0727362 C15.7509992,11.6458183 15.8586552,11.2151946 15.8846415,10.7808521 C15.9106278,10.3465096 15.8475191,9.9195981 15.6953136,9.50010491 C15.5431081,9.08061171 15.2813928,8.68525459 14.9101599,8.31402167 C14.5315023,7.9353641 14.1435698,7.69221018 13.7463505,7.58455264 C13.3491313,7.47689509 12.9500619,7.45647759 12.5491304,7.52329951 C12.1481988,7.59012144 11.7454172,7.72190715 11.3407733,7.91866059 C10.9361294,8.11541404 10.53706,8.32886976 10.1435531,8.55903417 L10.0878685,8.59244497 L7.86048209,6.3650586 C8.12034513,6.10519556 8.42289542,5.91030121 8.76814203,5.78036968 C9.11338865,5.65043816 9.46419849,5.59289793 9.82058209,5.60774724 L9.70921277,3.64764724 C9.17463737,3.67734588 8.64378226,3.82583682 8.11663152,4.09312452 C7.58948078,4.36041222 7.13658342,4.68338001 6.75792584,5.06203758 L6.65769346,5.16226997 Z M2.62500018,2.97500003 C3.20489997,2.97500003 3.6750002,2.50489852 3.6750002,1.92500002 C3.6750002,1.34510023 3.20489997,0.875 2.62500018,0.875 C2.04510167,0.875 1.57500017,1.34510023 1.57500017,1.92500002 C1.57500017,2.50489852 2.04510167,2.97500003 2.62500018,2.97500003 Z" id="Combined-Shape" fill-rule="nonzero"></path>
                            <path d="M7.28136164,6.98872679 C7.06604655,7.29313778 6.94354152,7.63466694 6.91384289,8.01332451 C6.88414425,8.39198209 7.01036155,8.72237443 7.29249857,9.00451144 C7.46326571,9.17527858 7.62846188,9.28479065 7.78809203,9.33305093 C7.94772219,9.38131121 8.10920608,9.39801644 8.27254857,9.38316712 C8.43589105,9.36831781 8.60294336,9.32377052 8.7737105,9.24952394 C8.94447764,9.17527736 9.12637904,9.10103189 9.31942016,9.02678531 L7.28136164,6.98872679 Z M13.6071389,12.1117154 C13.7333581,11.926099 13.8335895,11.7330607 13.9078361,11.532595 C13.9820826,11.3321292 14.0247738,11.1335226 14.0359108,10.9367691 C14.0470478,10.7400157 14.0192057,10.5451213 13.9523838,10.3520802 C13.8855619,10.1590391 13.7704814,9.98084995 13.6071389,9.81750746 C13.4437964,9.65416498 13.2711757,9.55207746 13.0892716,9.51124184 C12.9073674,9.47040622 12.7236099,9.46855008 12.5379934,9.50567337 C12.352377,9.54279666 12.1667633,9.60219304 11.9811469,9.68386428 C11.7955304,9.76553552 11.613629,9.85091781 11.4354372,9.94001371 L13.6071389,12.1117154 Z" id="$"></path>
                        </g>
                    </g>
                </g>
                <g id="time-clock" transform="translate(665.000000, 207.000000)" fill-rule="evenodd" stroke-width="1">
                    <g id="Page-1">
                        <path d="M18.54055,5.58356089 L16.23895,3.33310756 C16.15355,3.24960533 16.01425,3.24960533 15.92885,3.33310756 L14.72485,4.50966756 C15.74895,5.19958756 16.61485,6.09620978 17.26095,7.13793422 L18.54055,5.88676978 C18.62595,5.80326756 18.62595,5.66706311 18.54055,5.58356089" id="Fill-1" fill="#191919"></path>
                        <g id="Group-5" transform="translate(7.000000, 0.003012)">
                            <mask id="mask-30" fill="white">
                                <use xlink:href="#path-29"></use>
                            </mask>
                            <g id="Clip-4"></g>
                            <path d="M0.57806,2.33210756 L1.42856,2.33210756 L1.42856,2.967272 C1.73236,2.93578756 2.03966,2.92004533 2.35186,2.92004533 C2.66336,2.92004533 2.97066,2.93578756 3.27376,2.967272 L3.27376,2.33210756 L4.12496,2.33210756 C4.19426,2.33210756 4.25096,2.27666756 4.25096,2.209592 L4.25096,0.804427556 C4.25096,0.736667556 4.19426,0.681227556 4.12496,0.681227556 L0.57806,0.681227556 C0.50876,0.681227556 0.45206,0.736667556 0.45206,0.804427556 L0.45206,2.209592 C0.45206,2.27666756 0.50876,2.33210756 0.57806,2.33210756" id="Fill-3" fill="#191919" mask="url(#mask-30)"></path>
                        </g>
                        <path d="M8.78122,18.5251733 C5.13562,18.5251733 2.18022,15.6354489 2.18022,12.0708622 C2.18022,8.50627556 5.13562,5.61655111 8.78122,5.61655111 C12.42682,5.61655111 15.38222,8.50627556 15.38222,12.0708622 C15.38222,15.6354489 12.42682,18.5251733 8.78122,18.5251733 M8.78122,3.36472889 C3.93162,3.36472889 0.00042,7.20856889 0.00042,11.9504 C0.00042,16.6922311 3.93162,20.5360711 8.78122,20.5360711 C13.63082,20.5360711 17.56202,16.6922311 17.56202,11.9504 C17.56202,7.20856889 13.63082,3.36472889 8.78122,3.36472889" id="Fill-6" fill="#8FA500"></path>
                        <path d="M8.78122,18.5251733 C5.13562,18.5251733 2.18022,15.6354489 2.18022,12.0708622 C2.18022,8.50627556 5.13562,5.61655111 8.78122,5.61655111 C12.42682,5.61655111 15.38222,8.50627556 15.38222,12.0708622 C15.38222,15.6354489 12.42682,18.5251733 8.78122,18.5251733 M8.78122,3.36472889 C3.93162,3.36472889 0.00042,7.20856889 0.00042,11.9504 C0.00042,16.6922311 3.93162,20.5360711 8.78122,20.5360711 C13.63082,20.5360711 17.56202,16.6922311 17.56202,11.9504 C17.56202,7.20856889 13.63082,3.36472889 8.78122,3.36472889" id="Fill-8" fill="#191919"></path>
                        <path d="M8.77261,16.5741644 C8.17481,16.5741644 7.59661,16.4626 7.05691,16.2456311 L10.17261,12.5893289 L10.17261,7.82764889 C12.01641,8.40737333 13.35481,10.1006889 13.35481,12.0937911 C13.35481,14.5639511 11.29891,16.5741644 8.77261,16.5741644" id="Fill-10" fill="#191919"></path>
                        <path d="M8.77261,6.245008 L8.77261,12.0935858 L7.62671,13.4385191 L5.16271,16.3302969 L4.95481,16.581488 C5.99081,17.4267769 7.31731,17.942848 8.77261,17.942848 C12.07661,17.942848 14.75481,15.3241636 14.75481,12.0935858 C14.75481,8.86369244 12.07661,6.245008 8.77261,6.245008 M11.57261,10.6165547 C11.81691,11.0566524 11.95481,11.5597191 11.95481,12.0935858 C11.95481,13.4015591 11.12601,14.5226791 9.95561,14.9826258 L10.92371,13.8471324 L11.57261,13.0853458 L11.57261,12.0935858 L11.57261,10.6165547" id="Fill-12" fill="#191919"></path>
                    </g>
                </g>
                <g id="Web" transform="translate(795.000000, 142.000000)" fill-rule="evenodd" stroke-width="1">
                    <g id="Group-21">
                        <g>
                            <g id="Combined-Shape" transform="translate(0.000000, 6.000000)">
                                <g>
                                    <mask id="mask-32" fill="white">
                                        <use xlink:href="#path-31"></use>
                                    </mask>
                                    <use id="Mask" fill-opacity="0" fill="#D4D4D4" xlink:href="#path-31"></use>
                                    <path d="M19,4.25 C19,7.70177969 14.9705627,10.5 10,10.5 C5.02943725,10.5 1,7.70177969 1,4.25 C1,0.798220314 5.02943725,-2 10,-2 C14.9705627,-2 19,0.798220314 19,4.25 Z M18,4.25 C18,1.76471863 14.418278,-0.25 10,-0.25 C5.581722,-0.25 2,1.76471863 2,4.25 C2,6.73528137 5.581722,8.75 10,8.75 C14.418278,8.75 18,6.73528137 18,4.25 Z" fill="#979797" mask="url(#mask-32)"></path>
                                </g>
                            </g>
                            <path d="M10,20 C4.4771525,20 0,15.5228475 0,10 C0,4.4771525 4.4771525,0 10,0 C15.5228475,0 20,4.4771525 20,10 C20,15.5228475 15.5228475,20 10,20 Z M10,18.5 C14.6944204,18.5 18.5,14.6944204 18.5,10 C18.5,5.30557963 14.6944204,1.5 10,1.5 C5.30557963,1.5 1.5,5.30557963 1.5,10 C1.5,14.6944204 5.30557963,18.5 10,18.5 Z" id="Combined-Shape" fill="#979797"></path>
                            <path d="M10.25,19 C6.79822031,19 4,14.9705627 4,10 C4,5.02943725 6.79822031,1 10.25,1 C13.7017797,1 16.5,5.02943725 16.5,10 C16.5,14.9705627 13.7017797,19 10.25,19 Z M10.25,18 C12.7352814,18 14.75,14.418278 14.75,10 C14.75,5.581722 12.7352814,2 10.25,2 C7.76471863,2 5.75,5.581722 5.75,10 C5.75,14.418278 7.76471863,18 10.25,18 Z" id="Combined-Shape" fill="#979797"></path>
                            <g id="Combined-Shape" transform="translate(9.500000, 10.000000) scale(1, -1) translate(-9.500000, -10.000000) translate(0.000000, 5.000000)">
                                <mask id="mask-34" fill="white">
                                    <use xlink:href="#path-33"></use>
                                </mask>
                                <use id="Mask" fill-opacity="0" fill="#D4D4D4" xlink:href="#path-33"></use>
                                <path d="M19,4.25 C19,7.70177969 14.9705627,10.5 10,10.5 C5.02943725,10.5 1,7.70177969 1,4.25 C1,0.798220314 5.02943725,-2 10,-2 C14.9705627,-2 19,0.798220314 19,4.25 Z M18,4.25 C18,1.76471863 14.418278,-0.25 10,-0.25 C5.581722,-0.25 2,1.76471863 2,4.25 C2,6.73528137 5.581722,8.75 10,8.75 C14.418278,8.75 18,6.73528137 18,4.25 Z" fill="#979797" mask="url(#mask-34)"></path>
                            </g>
                        </g>
                    </g>
                </g>
                <g id="Zoom-In" transform="translate(665.000000, 22.000000)" fill="#000000" fill-rule="evenodd">
                    <g id="search" stroke-width="1">
                        <path d="M12.5,11 L11.7,11 L11.4,10.7 C12.4,9.6 13,8.1 13,6.5 C13,2.9 10.1,0 6.5,0 C2.9,0 0,2.9 0,6.5 C0,10.1 2.9,13 6.5,13 C8.1,13 9.6,12.4 10.7,11.4 L11,11.7 L11,12.5 L16,17.5 L17.5,16 L12.5,11 L12.5,11 Z M6.5,11 C4,11 2,9 2,6.5 C2,4 4,2 6.5,2 C9,2 11,4 11,6.5 C11,9 9,11 6.5,11 L6.5,11 Z" id="Shape"></path>
                    </g>
                    <rect id="Rectangle-2" x="4" y="6" width="5" height="1"></rect>
                    <rect id="Rectangle" x="6" y="4" width="1" height="5"></rect>
                </g>
                <g id="Filter-(Data-Table)" transform="translate(797.000000, 21.000000)" fill-rule="evenodd" stroke-width="1">
                    <g id="Group-29">
                        <path d="M5.13147401,18.5329166 L5.13147401,8.27453033 C4.95409872,8.14932522 4.78458738,8.00797101 4.62497041,7.85045426 C4.61240059,7.83804983 4.59991305,7.82556229 4.58750862,7.81299247 L1.03872701,4.21689377 C0.234644455,3.40209011 -0.148837976,2.32840316 -0.11172028,1.26666667 L14.8739615,1.26666667 C14.9404866,2.36178339 14.5586529,3.47901412 13.7284604,4.32027583 L10.2817006,7.81299247 C10.0251318,8.07298217 9.74174664,8.29044242 9.44031943,8.4653151 L9.44031943,15.5822596 L5.13147401,18.5329166 Z" id="Combined-Shape" fill="#979797"></path>
                        <ellipse id="Oval-2" fill="#E4E4E4" cx="7.3779085" cy="1.26666667" rx="7.24160154" ry="1"></ellipse>
                    </g>
                </g>
                <g id="edit" transform="translate(666.000000, 392.000000)" fill="#979797" fill-rule="evenodd" stroke-width="1">
                    <g id="create">
                        <g>
                            <path d="M0,12.6222222 L0,16 L3.37777778,16 L13.1555556,6.13333333 L9.77777778,2.75555556 L0,12.6222222 L0,12.6222222 Z M15.7333333,3.55555556 C16.0888889,3.2 16.0888889,2.66666667 15.7333333,2.31111111 L13.6888889,0.266666667 C13.3333333,-0.0888888889 12.8,-0.0888888889 12.4444444,0.266666667 L10.8444444,1.86666667 L14.2222222,5.24444444 L15.7333333,3.55555556 L15.7333333,3.55555556 Z" id="Shape"></path>
                        </g>
                    </g>
                </g>
                <g id="Excess-Inventory" transform="translate(414.000000, 391.000000)">
                    <rect id="Rectangle" fill="#00BBDC" fill-rule="nonzero" x="0" y="0" width="18" height="18" rx="2"></rect>
                    <polygon id="E" fill="#FFFFFF" fill-rule="evenodd" points="13.1850586 14.9057617 5 14.9057617 5 3 13.1850586 3 13.1850586 4.40726263 6.65203017 4.40726263 6.65203017 7.66955329 13.1850586 7.66955329 13.1850586 9.07681592 6.65203017 9.07681592 6.65203017 13.4984991 13.1850586 13.4984991"></polygon>
                </g>
                <g id="menu" transform="translate(160.000000, 394.000000)" fill="#000000" fill-rule="evenodd" stroke-width="1">
                    <g id="Shape">
                        <g>
                            <path d="M0,12 L18,12 L18,10 L0,10 L0,12 L0,12 Z M0,7 L18,7 L18,5 L0,5 L0,7 L0,7 Z M0,0 L0,2 L18,2 L18,0 L0,0 L0,0 Z"></path>
                        </g>
                    </g>
                </g>
                <g id="phone-2" transform="translate(539.000000, 389.000000)" fill="#979797" fill-rule="evenodd" stroke-width="1">
                    <g id="Shape">
                        <path d="M12,0 L2,0 C0.9,0 0,0.9 0,2 L0,20 C0,21.1 0.9,22 2,22 L12,22 C13.1,22 14,21.1 14,20 L14,2 C14,0.9 13.1,0 12,0 L12,0 Z M12,17 L2,17 L2,3 L12,3 L12,17 Z M6.92500019,21.25 C6.02753747,21.25 5.30000019,20.5224627 5.30000019,19.625 C5.30000019,18.7275373 6.02753747,18 6.92500019,18 C7.82246291,18 8.55000019,18.7275373 8.55000019,19.625 C8.55000019,20.5224627 7.82246291,21.25 6.92500019,21.25 Z"></path>
                    </g>
                </g>
                <g id="More" transform="translate(420.000000, 326.000000)" fill="#191919" fill-rule="evenodd" opacity="0.75" stroke-width="1">
                    <g transform="translate(3.000000, 13.000000) rotate(90.000000) translate(-3.000000, -13.000000) translate(-10.000000, 10.000000)" id="Oval-3">
                        <circle cx="3" cy="3" r="3"></circle>
                        <circle cx="12.75" cy="3" r="3"></circle>
                        <circle cx="22.5" cy="3" r="3"></circle>
                    </g>
                </g>
                <g id="Notifications" transform="translate(658.000000, 324.000000)" fill-rule="evenodd" stroke-width="1">
                    <g id="Group-2">
                        <g id="notifications" opacity="0.290874094" fill="#000000">
                            <g transform="translate(0.750000, 0.000000)" id="Shape">
                                <path d="M12.75,30 C14.4,30 15.75,28.65 15.75,27 L9.75,27 C9.75,28.65 11.1,30 12.75,30 L12.75,30 Z M22.5,21 L22.5,12.75 C22.5,8.1 19.35,4.35 15,3.3 L15,2.25 C15,1.05 13.95,0 12.75,0 C11.55,0 10.5,1.05 10.5,2.25 L10.5,3.3 C6.15,4.35 3,8.1 3,12.75 L3,21 L0,24 L0,25.5 L25.5,25.5 L25.5,24 L22.5,21 L22.5,21 Z"></path>
                            </g>
                        </g>
                        <circle id="Oval" fill="#DA291C" cx="23.25" cy="9.75" r="8.25"></circle>
                        <text id="1" font-family="Verdana" font-size="10" font-weight="normal" fill="#FFFFFF">
                            <tspan x="20" y="12.8611111">1</tspan>
                        </text>
                    </g>
                </g>
                <g id="shipping-notifications" transform="translate(157.000000, 331.000000)" fill-rule="evenodd" stroke-width="1">
                    <g>
                        <g id="truck" transform="translate(4.315476, 2.529762)">
                            <path d="M14.231714,13.1136533 C13.5383283,13.1136533 12.9762282,12.5062896 12.9762282,11.7570685 C12.9762282,11.0078473 13.5383283,10.4004836 14.231714,10.4004836 C14.9250997,10.4004836 15.4871998,11.0078473 15.4871998,11.7570685 C15.4871998,12.5062896 14.9250997,13.1136533 14.231714,13.1136533 L14.231714,13.1136533 Z M15.4871998,4.97414435 L17.1277012,7.23511905 L13.3947235,7.23511905 L13.3947235,4.97414435 L15.4871998,4.97414435 Z M4.18782757,13.1136533 C3.49444191,13.1136533 2.93234176,12.5062896 2.93234176,11.7570685 C2.93234176,11.0078473 3.49444191,10.4004836 4.18782757,10.4004836 C4.88121323,10.4004836 5.44331337,11.0078473 5.44331337,11.7570685 C5.44331337,12.5062896 4.88121323,13.1136533 4.18782757,13.1136533 L4.18782757,13.1136533 Z M15.3825161,3.61755952 L13.3947235,3.61755952 L13.3947235,1 C13.3947235,0.44771525 12.9470082,-1.01453063e-16 12.3947235,0 L0.835182097,0 C-0.093877397,0 0.00287489147,0.804906994 0.00287489147,1.80877976 L0.00287489147,10.7570685 C0.00287489147,11.3093532 0.450590142,11.7570685 1.00287489,11.7570685 L1.67685596,11.7570685 C1.67685596,13.2555107 2.80105624,14.4702381 4.18782757,14.4702381 C5.57459889,14.4702381 6.69879917,13.2555107 6.69879917,11.7570685 L11.7207424,11.7570685 C11.7207424,13.2555107 12.8449427,14.4702381 14.231714,14.4702381 C15.6184853,14.4702381 16.7426856,13.2555107 16.7426856,11.7570685 L17.4166667,11.7570685 C17.9689514,11.7570685 18.4166667,11.3093532 18.4166667,10.7570685 L18.4166667,8.17424916 C18.4166667,7.56279247 18.2298245,6.96593533 17.8811667,6.46362365 L16.2040161,4.04735102 C16.01715,3.77813279 15.7102316,3.61755952 15.3825161,3.61755952 Z" id="Shape" fill="#000000" fill-rule="nonzero"></path>
                            <path d="M1.9307403,10.4461732 C1.57062793,10.2949008 1.3177349,9.9388883 1.3177349,9.52380952 L1.3177349,2.73214286 C1.3177349,1.94589286 1.2417197,1.31547619 1.97165228,1.31547619 L10.8392857,1.31547619 C11.3915705,1.31547619 11.8392857,1.76319144 11.8392857,2.31547619 L11.8392857,4.14880952 L11.8392857,10.5238095 L10.5240919,10.5238095 L6.57851031,10.5238095 L6.02051828,10.5238095 C5.53898892,9.86021072 4.78895817,9.43362037 3.94642857,9.43362037 C3.13723159,9.43362037 2.41335924,9.82712443 1.9307403,10.4461732 Z" id="Combined-Shape" fill="#E4E4E4"></path>
                        </g>
                        <g id="Group-23">
                            <g id="notifications" fill="#9E0000" stroke="#FFFFFF">
                                <g id="Shape">
                                    <path d="M5.88600852,14.1264205 C6.64772727,14.1264205 7.2709517,13.4907315 7.2709517,12.7137784 L4.50106534,12.7137784 C4.50106534,13.4907315 5.12428977,14.1264205 5.88600852,14.1264205 L5.88600852,14.1264205 Z M10.3870739,9.88849432 L10.3870739,6.00372869 C10.3870739,3.81413352 8.93288352,2.04833097 6.92471591,1.55390625 L6.92471591,1.05948153 C6.92471591,0.494424716 6.4399858,0 5.88600852,0 C5.33203125,0 4.84730114,0.494424716 4.84730114,1.05948153 L4.84730114,1.55390625 C2.83913352,2.04833097 1.38494318,3.81413352 1.38494318,6.00372869 L1.38494318,9.88849432 L0,11.3011364 L0,12.0074574 L11.772017,12.0074574 L11.772017,11.3011364 L10.3870739,9.88849432 L10.3870739,9.88849432 Z"></path>
                                </g>
                            </g>
                            <g id="notifications-copy" fill="#8FA500">
                                <g id="notifications-copy-2">
                                    <path d="M5.88600852,14.1264205 C6.64772727,14.1264205 7.2709517,13.4907315 7.2709517,12.7137784 L4.50106534,12.7137784 C4.50106534,13.4907315 5.12428977,14.1264205 5.88600852,14.1264205 L5.88600852,14.1264205 Z M10.3870739,9.88849432 L10.3870739,6.00372869 C10.3870739,3.81413352 8.93288352,2.04833097 6.92471591,1.55390625 L6.92471591,1.05948153 C6.92471591,0.494424716 6.4399858,0 5.88600852,0 C5.33203125,0 4.84730114,0.494424716 4.84730114,1.05948153 L4.84730114,1.55390625 C2.83913352,2.04833097 1.38494318,3.81413352 1.38494318,6.00372869 L1.38494318,9.88849432 L0,11.3011364 L0,12.0074574 L11.772017,12.0074574 L11.772017,11.3011364 L10.3870739,9.88849432 L10.3870739,9.88849432 Z" id="Shape"></path>
                                </g>
                            </g>
                        </g>
                    </g>
                </g>
                <g id="phone" transform="translate(285.000000, 391.000000)" fill="#979797" fill-rule="evenodd" stroke-width="1">
                    <g id="Shape">
                        <path d="M3.6,7.8 C5,10.6 7.4,12.9 10.2,14.4 L12.4,12.2 C12.7,11.9 13.1,11.8 13.4,12 C14.5,12.4 15.7,12.6 17,12.6 C17.6,12.6 18,13 18,13.6 L18,17 C18,17.6 17.6,18 17,18 C7.6,18 0,10.4 0,1 C0,0.4 0.4,0 1,0 L4.5,0 C5.1,0 5.5,0.4 5.5,1 C5.5,2.2 5.7,3.4 6.1,4.6 C6.2,4.9 6.1,5.3 5.9,5.6 L3.6,7.8 L3.6,7.8 Z"></path>
                    </g>
                </g>
                <g id="filter" transform="translate(796.000000, 392.000000)" fill-rule="evenodd" stroke-width="1">
                    <g transform="translate(0.000000, 1.000000)">
                        <path d="M0,13 L18,13 L18,11 L0,11 L0,13 L0,13 Z M0,1 L0,3 L18,3 L18,1 L0,1 L0,1 Z M0,8 L18,8 L18,6 L0,6 L0,8 L0,8 Z" id="Shape" fill="#979797"></path>
                        <circle id="Oval" stroke="#979797" fill="#FFFFFF" cx="14" cy="2" r="2"></circle>
                        <circle id="Oval-Copy" stroke="#979797" fill="#FFFFFF" cx="4" cy="7" r="2"></circle>
                        <circle id="Oval-Copy-2" stroke="#979797" fill="#FFFFFF" cx="11" cy="12" r="2"></circle>
                    </g>
                </g>
                <g id="Paste" transform="translate(29.000000, 328.000000)" fill-rule="evenodd" stroke-width="1">
                    <g>
                        <rect id="Rectangle-5" fill="#E4E4E4" x="1.75304348" y="3.52" width="12.2713043" height="16.72"></rect>
                        <g id="Group-5">
                            <g id="compliance-check" fill="#191919">
                                <path d="M13.3333333,19.36 L2.66666667,19.36 L2.66666667,4.4 L4.44444444,4.4 L4.44444444,5.69888 C4.44444444,5.95232 4.65422222,6.16 4.91022222,6.16 L11.0897778,6.16 C11.3457778,6.16 11.5555556,5.95232 11.5555556,5.69888 L11.5555556,4.4 L13.3333333,4.4 L13.3333333,19.36 Z M14.6453333,2.64 L9.77777778,2.64 L9.77777778,1.34112 C9.77777778,1.0868 9.568,0.88 9.312,0.88 L6.688,0.88 C6.432,0.88 6.22222222,1.0868 6.22222222,1.34112 L6.22222222,2.64 L1.35466667,2.64 C1.09866667,2.64 0.888888889,2.8468 0.888888889,3.10112 L0.888888889,20.65888 C0.888888889,20.91232 1.09866667,21.12 1.35466667,21.12 L14.6453333,21.12 C14.9013333,21.12 15.1111111,20.91232 15.1111111,20.65888 L15.1111111,3.10112 C15.1111111,2.8468 14.9013333,2.64 14.6453333,2.64 L14.6453333,2.64 Z" id="Page-1"></path>
                            </g>
                            <g id="Page-1" transform="translate(7.012174, 4.400000)">
                                <path d="M3.25758812,2.64 L9.80916463,2.64 C10.1991676,2.64 10.5182609,2.95804724 10.5182609,3.34677165 L10.5182609,16.8932283 C10.5182609,17.2819528 10.1991676,17.6 9.80916463,17.6 L0.709096238,17.6 C0.319034216,17.6 0,17.2819528 0,16.8932283 L0,5.75862992 C0,5.68347654 0.0307275037,5.61162142 0.08515064,5.5596148 L3.05797753,2.71992409 C3.11169157,2.66862425 3.18319211,2.64 3.25758812,2.64 Z" id="Fill-1" fill="#FFFFFF"></path>
                                <path d="M3.25758812,2.64 L9.80916463,2.64 C10.1991676,2.64 10.5182609,2.95804724 10.5182609,3.34677165 L10.5182609,16.8932283 C10.5182609,17.2819528 10.1991676,17.6 9.80916463,17.6 L0.709096238,17.6 C0.319034216,17.6 0,17.2819528 0,16.8932283 L0,5.75862992 C0,5.68347654 0.0307275037,5.61162142 0.08515064,5.5596148 L3.05797753,2.71992409 C3.11169157,2.66862425 3.18319211,2.64 3.25758812,2.64 Z" id="Stroke-3" stroke="#000000" stroke-width="1.5"></path>
                                <path d="M3.50608696,2.64 L3.50608696,5.31519735 C3.50608696,5.77984212 3.14278875,6.16 2.69875058,6.16 L0,6.16" id="Stroke-5" stroke="#000000"></path>
                                <mask id="mask-36" fill="white">
                                    <use xlink:href="#path-35"></use>
                                </mask>
                                <g id="Clip-8"></g>
                                <polygon id="Fill-7" fill="#CECECE" mask="url(#mask-36)" points="4.3826087 5.28 8.76521739 5.28 8.76521739 4.4 4.3826087 4.4"></polygon>
                                <polygon id="Fill-9" fill="#CECECE" mask="url(#mask-36)" points="1.75304348 7.92 8.76521739 7.92 8.76521739 7.04 1.75304348 7.04"></polygon>
                                <polygon id="Fill-10" fill="#CECECE" mask="url(#mask-36)" points="1.75304348 10.56 8.76521739 10.56 8.76521739 9.68 1.75304348 9.68"></polygon>
                                <polygon id="Fill-11" fill="#CECECE" mask="url(#mask-36)" points="1.75304348 13.2 8.76521739 13.2 8.76521739 12.32 1.75304348 12.32"></polygon>
                                <polygon id="Fill-12" fill="#CECECE" mask="url(#mask-36)" points="1.75304348 15.84 8.76521739 15.84 8.76521739 14.96 1.75304348 14.96"></polygon>
                            </g>
                        </g>
                    </g>
                </g>
                <g id="star-outline" transform="translate(284.000000, 329.000000)" fill="#191919" fill-rule="evenodd">
                    <path d="M7.65142857,7.28024042 L0,7.26596544 L6.19857143,11.7340346 L3.81857143,19 L10,14.5033809 L16.18,19 L13.8,11.7340346 L20,7.26596544 L12.3471429,7.28024042 L10,0 L7.65142857,7.28024042 Z M10.9871429,7.70848986 L11.3085714,8.70773854 L12.35,8.70773854 L15.5728571,8.69346356 L12.9628571,10.5777611 L12.1171429,11.1915853 L12.4428571,12.190834 L13.4442857,15.2456799 L10,12.7332832 L9.15714286,13.3471074 L6.55428571,15.2456799 L7.55714286,12.190834 L7.88142857,11.1915853 L7.03571429,10.5777611 L4.42571429,8.69346356 L7.64857143,8.70773854 L8.69142857,8.70773854 L9.01142857,7.70848986 L10,4.65364388 L10.9871429,7.70848986 Z" id="star"></path>
                </g>
                <g id="access-time" transform="translate(541.000000, 334.000000)" fill="#979797" fill-rule="evenodd" stroke-width="1">
                    <g id="Shape">
                        <path d="M5,0 C2.25,0 0,2.25 0,5 C0,7.75 2.25,10 5,10 C7.75,10 10,7.75 10,5 C10,2.25 7.75,0 5,0 L5,0 Z M5,9 C2.8,9 1,7.2 1,5 C1,2.8 2.8,1 5,1 C7.2,1 9,2.8 9,5 C9,7.2 7.2,9 5,9 Z M5.25,2.5 L4.5,2.5 L4.5,5.5 L7.1,7.1 L7.5,6.45 L5.25,5.1 L5.25,2.5 Z"></path>
                    </g>
                </g>
                <g id="Compare" transform="translate(27.000000, 389.000000)" fill="#191919" fill-rule="evenodd" stroke-width="1">
                    <g id="Compare_Icon">
                        <path d="M23.9,18.7788462 L13.3,18.7788462 C13.5,18.5769231 13.6,18.2740385 13.6,17.9711538 L13.6,4.24038462 C13.6,4.24038462 13.6,4.13942308 13.6,4.13942308 C13.9,3.9375 14.2,3.63461538 14.4,3.33173077 L20.5,3.33173077 C20.5,3.33173077 20.5,3.43269231 20.4,3.43269231 L19.8,4.74519231 C19.8,4.84615385 19.8,4.84615385 19.7,4.94711538 C19.6,5.14903846 19.6,5.35096154 19.5,5.55288462 C19.4,5.85576923 19.3,6.15865385 19.2,6.46153846 C19.1,6.76442308 19,7.16826923 18.8,7.47115385 C18.7,7.875 18.5,8.17788462 18.4,8.58173077 C18.3,8.98557692 18.1,9.28846154 18,9.69230769 C17.9,9.99519231 17.8,10.3990385 17.6,10.7019231 C17.5,11.0048077 17.4,11.2067308 17.3,11.5096154 C17.2,11.7115385 17.1,11.9134615 17.1,12.1153846 C17.1,12.2163462 17.1,12.3173077 17.1,12.4182692 C17.1,13.0240385 17.4,13.5288462 17.7,13.9326923 C18,14.3365385 18.3,14.6394231 18.7,14.8413462 C19.1,15.0432692 19.6,15.2451923 20,15.3461538 C20.2,15.3461538 20.4,15.3461538 20.6,15.3461538 C22.5,15.3461538 24,13.9326923 24.1,12.2163462 L21.5,4.74519231 L21,3.33173077 C21,3.33173077 21.0666667,3.33173077 21.2,3.33173077 C21.8,3.33173077 22.3,2.82692308 22.3,2.22115385 C22.3,1.61538462 21.8,1.11057692 21.2,1.11057692 L14.5,1.11057692 C14.1,0.504807692 13.4,0 12.6,0 C11.8,0 11.1,0.403846154 10.7,1.11057692 L4,1.11057692 C3.4,1.11057692 2.9,1.61538462 2.9,2.22115385 C2.9,2.82692308 3.4,3.33173077 4,3.33173077 L4.1,3.33173077 C4.1,3.33173077 4.1,3.43269231 4,3.43269231 L3.4,4.64423077 C3.4,4.74519231 3.4,4.74519231 3.3,4.84615385 C3.2,5.04807692 3.2,5.25 3.1,5.45192308 C3,5.75480769 2.9,6.05769231 2.8,6.36057692 C2.7,6.66346154 2.6,7.06730769 2.4,7.37019231 C2.3,7.77403846 2.1,8.07692308 2,8.48076923 C1.9,8.88461538 1.7,9.1875 1.6,9.59134615 C1.5,9.89423077 1.4,10.2980769 1.2,10.6009615 C1.1,10.9038462 1,11.1057692 0.9,11.4086538 C0.8,11.6105769 0.7,11.8125 0.7,12.0144231 C0.7,12.1153846 0.7,12.2163462 0.7,12.3173077 C0.7,12.9230769 1,13.4278846 1.3,13.8317308 C1.6,14.2355769 1.9,14.5384615 2.3,14.7403846 C2.7,14.9423077 3.2,15.1442308 3.6,15.2451923 C3.8,15.2451923 4,15.2451923 4.2,15.2451923 C6.1,15.2451923 7.6,13.8317308 7.7,12.1153846 L5,4.74519231 L4.5,3.33173077 C4.5,3.33173077 6.56666667,3.33173077 10.7,3.33173077 C10.9,3.63461538 11.2,3.9375 11.5,4.13942308 C11.5,4.13942308 11.5,4.24038462 11.5,4.24038462 L11.5,17.9711538 C11.5,18.2740385 11.6,18.5769231 11.8,18.7788462 L1.1,18.7788462 C0.5,18.7788462 0,19.2836538 0,19.8894231 C0,20.4951923 0.5,21 1.1,21 L23.9,21 C24.5,21 25,20.4951923 25,19.8894231 C25,19.1826923 24.5,18.7788462 23.9,18.7788462 Z M22.8,11.8125 C22.8,11.9134615 22.8,12.1153846 22.5,12.2163462 L18.7,12.2163462 C18.4,12.2163462 18.4,11.8125 18.4,11.8125 L20.6,5.65384615 L22.8,11.8125 Z M6.4,11.8125 C6.4,11.9134615 6.4,12.1153846 6.1,12.2163462 L2.3,12.2163462 C2,12.2163462 2,11.8125 2,11.8125 L4.2,5.65384615 L6.4,11.8125 Z" id="Shape" fill-rule="nonzero"></path>
                    </g>
                </g>
                <g id="Close" transform="translate(798.000000, 333.000000)" fill="#9E0000" fill-rule="evenodd" stroke-width="1">
                    <g id="X">
                        <path d="M6.7658166,4.54640097 L11.3306533,-0.0184357232 L13.0952636,1.74617455 L8.53042687,6.31101125 L13.0952636,10.8758479 L11.3306533,12.6404582 L6.7658166,8.07562152 L2.2009799,12.6404582 L0.436369627,10.8758479 L5.00120632,6.31101125 L0.436369627,1.74617455 L2.2009799,-0.0184357232 L6.7658166,4.54640097 Z" id="Combined-Shape"></path>
                    </g>
                </g>
            </g>
        </g>
    </g>
</svg>