<?xml version="1.0" encoding="UTF-8"?>
<svg width="386px" height="350px" viewBox="0 0 386 350" version="1.1" xmlns="http://www.w3.org/2000/svg" xmlns:xlink="http://www.w3.org/1999/xlink">
    <!-- Generator: Sketch 53.2 (72643) - https://sketchapp.com -->
    <title>Group 6</title>
    <desc>Created with Sketch.</desc>
    <g id="Page-1" stroke="none" stroke-width="1" fill="none" fill-rule="evenodd">
        <g id="Desktop-HD" transform="translate(-310.000000, -621.000000)">
            <g id="Group-6" transform="translate(310.000000, 621.000000)">
                <rect id="Rectangle" fill="#F4F4F4" x="0" y="0" width="386" height="350"></rect>
                <g id="user-name" transform="translate(37.000000, 41.000000)">
                    <path d="M2,0.5 C1.17157288,0.5 0.5,1.17157288 0.5,2 L0.5,37 C0.5,37.8284271 1.17157288,38.5 2,38.5 L310,38.5 C310.828427,38.5 311.5,37.8284271 311.5,37 L311.5,2 C311.5,1.17157288 310.828427,0.5 310,0.5 L2,0.5 Z" id="Rectangle-10" stroke="#E4E4E4" fill="#FFFFFF"></path>
                    <text id="Inactive-State" font-family="Verdana" font-size="12" font-weight="normal" fill="#979797">
                        <tspan x="13" y="24">Inactive State</tspan>
                    </text>
                </g>
                <g id="focus-state" transform="translate(37.000000, 108.333333)">
                    <path d="M2,5.5 C1.17157288,5.5 0.5,6.17157288 0.5,7 L0.5,42 C0.5,42.8284271 1.17157288,43.5 2,43.5 L310,43.5 C310.828427,43.5 311.5,42.8284271 311.5,42 L311.5,7 C311.5,6.17157288 310.828427,5.5 310,5.5 L2,5.5 Z" id="Rectangle-10" stroke="#008BAA" fill="#FFFFFF"></path>
                    <path d="M13.5,16.5 L13.5,34.5" id="Line-2" stroke="#979797" stroke-linecap="square"></path>
                    <rect id="Rectangle-4" fill="#FFFFFF" x="10" y="5" width="59" height="9"></rect>
                    <text id="Focus-State" font-family="Verdana" font-size="9" font-weight="normal" fill="#009CB9">
                        <tspan x="13" y="9">Focus State</tspan>
                    </text>
                </g>
                <g id="error-state" transform="translate(37.000000, 254.000000)">
                    <path d="M2,0.5 C1.17157288,0.5 0.5,1.17157288 0.5,2 L0.5,37 C0.5,37.8284271 1.17157288,38.5 2,38.5 L310,38.5 C310.828427,38.5 311.5,37.8284271 311.5,37 L311.5,2 C311.5,1.17157288 310.828427,0.5 310,0.5 L2,0.5 Z" id="Rectangle-10" stroke="#9E0000" fill="#FFFFFF"></path>
                    <text id="Error-State" font-family="Verdana" font-size="12" font-weight="normal" fill="#B01600">
                        <tspan x="12" y="24">Error State</tspan>
                    </text>
                    <text id="Error-Message-Instru" font-family="Verdana" font-size="9" font-weight="normal" fill="#9E0000">
                        <tspan x="0" y="53">Error Message Instruction Goes Here.</tspan>
                    </text>
                </g>
                <g id="user-name" transform="translate(37.000000, 180.666667)">
                    <path d="M2,5.62765957 C1.17157288,5.62765957 0.5,6.29923245 0.5,7.12765957 L0.5,42.1276596 C0.5,42.9560867 1.17157288,43.6276596 2,43.6276596 L310,43.6276596 C310.828427,43.6276596 311.5,42.9560867 311.5,42.1276596 L311.5,7.12765957 C311.5,6.29923245 310.828427,5.62765957 310,5.62765957 L2,5.62765957 Z" id="Rectangle-10" stroke="#E4E4E4" fill="#FFFFFF"></path>
                    <polygon id="Rectangle-4" fill="#FFFFFF" points="10 5.0212766 64 5.0212766 64 12.0212766 10 12.0212766"></polygon>
                    <text id="Completed" font-family="Verdana" font-size="9" font-weight="normal" fill="#A0B100">
                        <tspan x="13" y="9.0106383">Completed</tspan>
                    </text>
                    <text id="Text-Entered" font-family="Verdana" font-size="12" font-weight="normal" fill="#212121">
                        <tspan x="13" y="29.9230769">Text Entered</tspan>
                    </text>
                </g>
            </g>
        </g>
    </g>
</svg>