<?xml version="1.0" encoding="UTF-8"?>
<svg width="386px" height="199px" viewBox="0 0 386 199" version="1.1" xmlns="http://www.w3.org/2000/svg" xmlns:xlink="http://www.w3.org/1999/xlink">
    <!-- Generator: Sketch 57.1 (83088) - https://sketch.com -->
    <title>Group 7</title>
    <desc>Created with Sketch.</desc>
    <g id="Page-1" stroke="none" stroke-width="1" fill="none" fill-rule="evenodd">
        <g id="Artboard" transform="translate(-835.000000, -322.000000)">
            <g id="Group-7" transform="translate(835.000000, 322.000000)">
                <rect id="Rectangle" fill="#F5F6F5" x="0" y="0" width="386" height="199"></rect>
                <g id="Group-4" transform="translate(133.000000, 56.000000)">
                    <path d="M41.535,9.988 C41.535,10.7393371 41.4160012,11.4288302 41.178,12.0565 C40.9399988,12.6841698 40.6040022,13.2243311 40.17,13.677 C39.7359978,14.1296689 39.214503,14.4808321 38.6055,14.7305 C37.996497,14.9801679 37.323337,15.105 36.586,15.105 C35.848663,15.105 35.1766697,14.9801679 34.57,14.7305 C33.9633303,14.4808321 33.4430022,14.1296689 33.009,13.677 C32.5749978,13.2243311 32.2390012,12.6841698 32.001,12.0565 C31.7629988,11.4288302 31.644,10.7393371 31.644,9.988 C31.644,9.23666291 31.7629988,8.5471698 32.001,7.9195 C32.2390012,7.29183019 32.5749978,6.75050227 33.009,6.2955 C33.4430022,5.84049773 33.9633303,5.48700126 34.57,5.235 C35.1766697,4.98299874 35.848663,4.857 36.586,4.857 C37.323337,4.857 37.996497,4.98299874 38.6055,5.235 C39.214503,5.48700126 39.7359978,5.84049773 40.17,6.2955 C40.6040022,6.75050227 40.9399988,7.29183019 41.178,7.9195 C41.4160012,8.5471698 41.535,9.23666291 41.535,9.988 Z M40.142,9.988 C40.142,9.37199692 40.0580008,8.81900245 39.89,8.329 C39.7219992,7.83899755 39.4840015,7.42483503 39.176,7.0865 C38.8679985,6.74816498 38.4946689,6.48800091 38.056,6.306 C37.6173311,6.12399909 37.127336,6.033 36.586,6.033 C36.0493307,6.033 35.5616689,6.12399909 35.123,6.306 C34.6843311,6.48800091 34.3098349,6.74816498 33.9995,7.0865 C33.6891651,7.42483503 33.4500008,7.83899755 33.282,8.329 C33.1139992,8.81900245 33.03,9.37199692 33.03,9.988 C33.03,10.6040031 33.1139992,11.1558309 33.282,11.6435 C33.4500008,12.1311691 33.6891651,12.544165 33.9995,12.8825 C34.3098349,13.220835 34.6843311,13.4798324 35.123,13.6595 C35.5616689,13.8391676 36.0493307,13.929 36.586,13.929 C37.127336,13.929 37.6173311,13.8391676 38.056,13.6595 C38.4946689,13.4798324 38.8679985,13.220835 39.176,12.8825 C39.4840015,12.544165 39.7219992,12.1311691 39.89,11.6435 C40.0580008,11.1558309 40.142,10.6040031 40.142,9.988 Z M43.194,17.401 L43.194,7.909 L43.936,7.909 C44.1133342,7.909 44.2253331,7.99533247 44.272,8.168 L44.377,9.008 C44.6803349,8.63933149 45.0268314,8.34300112 45.4165,8.119 C45.8061686,7.89499888 46.2553308,7.783 46.764,7.783 C47.170002,7.783 47.538665,7.86116589 47.87,8.0175 C48.201335,8.17383411 48.4836655,8.4048318 48.717,8.7105 C48.9503345,9.0161682 49.1299994,9.39533107 49.256,9.848 C49.3820006,10.3006689 49.445,10.8209971 49.445,11.409 C49.445,11.9316693 49.3750007,12.4181644 49.235,12.8685 C49.0949993,13.3188356 48.8943346,13.7084984 48.633,14.0375 C48.3716654,14.3665016 48.0508352,14.6254991 47.6705,14.8145 C47.2901648,15.0035009 46.8620024,15.098 46.386,15.098 C45.9473311,15.098 45.5728349,15.0256674 45.2625,14.881 C44.9521651,14.7363326 44.6780012,14.5310013 44.44,14.265 L44.44,17.401 L43.194,17.401 Z M46.351,8.791 C45.944998,8.791 45.5891682,8.8843324 45.2835,9.071 C44.9778318,9.2576676 44.696668,9.52133163 44.44,9.862 L44.44,13.292 C44.6686678,13.6000015 44.9194986,13.8169994 45.1925,13.943 C45.4655014,14.0690006 45.7699983,14.132 46.106,14.132 C46.7640033,14.132 47.2703316,13.8963357 47.625,13.425 C47.9796684,12.9536643 48.157,12.281671 48.157,11.409 C48.157,10.9469977 48.1161671,10.550335 48.0345,10.219 C47.9528329,9.88766501 47.8350008,9.6158344 47.681,9.4035 C47.5269992,9.19116561 47.3380011,9.03600049 47.114,8.938 C46.8899989,8.83999951 46.6356681,8.791 46.351,8.791 Z M53.071,15.112 C52.5109972,15.112 52.0805015,14.9556682 51.7795,14.643 C51.4784985,14.3303318 51.328,13.8800029 51.328,13.292 L51.328,8.952 L50.474,8.952 C50.399333,8.952 50.3363336,8.92983356 50.285,8.8855 C50.2336664,8.84116644 50.208,8.7723338 50.208,8.679 L50.208,8.182 L51.37,8.035 L51.657,5.844 C51.6663334,5.77399965 51.6966664,5.71683355 51.748,5.6725 C51.7993336,5.62816644 51.8646663,5.606 51.944,5.606 L52.574,5.606 L52.574,8.049 L54.604,8.049 L54.604,8.952 L52.574,8.952 L52.574,13.208 C52.574,13.5066682 52.6463326,13.7283326 52.791,13.873 C52.9356674,14.0176674 53.1223322,14.09 53.351,14.09 C53.4816673,14.09 53.5948329,14.0725002 53.6905,14.0375 C53.7861671,14.0024998 53.8689996,13.9640002 53.939,13.922 C54.0090003,13.8799998 54.0684998,13.8415002 54.1175,13.8065 C54.1665002,13.7714998 54.2096665,13.754 54.247,13.754 C54.3123337,13.754 54.3706664,13.7936663 54.422,13.873 L54.786,14.468 C54.5713323,14.6686677 54.3123348,14.8261661 54.009,14.9405 C53.7056652,15.0548339 53.3930016,15.112 53.071,15.112 Z M57.53,7.909 L57.53,15 L56.284,15 L56.284,7.909 L57.53,7.909 Z M57.81,5.683 C57.81,5.80433394 57.7855002,5.91749947 57.7365,6.0225 C57.6874998,6.12750052 57.6221671,6.22083292 57.5405,6.3025 C57.4588329,6.38416708 57.3643339,6.4483331 57.257,6.495 C57.1496661,6.5416669 57.0353339,6.565 56.914,6.565 C56.7926661,6.565 56.6795005,6.5416669 56.5745,6.495 C56.4694995,6.4483331 56.3761671,6.38416708 56.2945,6.3025 C56.2128329,6.22083292 56.1486669,6.12750052 56.102,6.0225 C56.0553331,5.91749947 56.032,5.80433394 56.032,5.683 C56.032,5.56166606 56.0553331,5.44616721 56.102,5.3365 C56.1486669,5.22683278 56.2128329,5.13116708 56.2945,5.0495 C56.3761671,4.96783292 56.4694995,4.9036669 56.5745,4.857 C56.6795005,4.8103331 56.7926661,4.787 56.914,4.787 C57.0353339,4.787 57.1496661,4.8103331 57.257,4.857 C57.3643339,4.9036669 57.4588329,4.96783292 57.5405,5.0495 C57.6221671,5.13116708 57.6874998,5.22683278 57.7365,5.3365 C57.7855002,5.44616721 57.81,5.56166606 57.81,5.683 Z M62.598,7.797 C63.1160026,7.797 63.5838312,7.88333247 64.0015,8.056 C64.4191688,8.22866753 64.7738319,8.47366508 65.0655,8.791 C65.3571681,9.10833492 65.5811659,9.49216441 65.7375,9.9425 C65.8938341,10.3928356 65.972,10.8956639 65.972,11.451 C65.972,12.0110028 65.8938341,12.5149978 65.7375,12.963 C65.5811659,13.4110022 65.3571681,13.7936651 65.0655,14.111 C64.7738319,14.4283349 64.4191688,14.6721658 64.0015,14.8425 C63.5838312,15.0128342 63.1160026,15.098 62.598,15.098 C62.0799974,15.098 61.6121688,15.0128342 61.1945,14.8425 C60.7768312,14.6721658 60.4210015,14.4283349 60.127,14.111 C59.8329985,13.7936651 59.6066675,13.4110022 59.448,12.963 C59.2893325,12.5149978 59.21,12.0110028 59.21,11.451 C59.21,10.8956639 59.2893325,10.3928356 59.448,9.9425 C59.6066675,9.49216441 59.8329985,9.10833492 60.127,8.791 C60.4210015,8.47366508 60.7768312,8.22866753 61.1945,8.056 C61.6121688,7.88333247 62.0799974,7.797 62.598,7.797 Z M62.598,14.125 C63.2980035,14.125 63.8206649,13.8905023 64.166,13.4215 C64.5113351,12.9524977 64.684,12.2980042 64.684,11.458 C64.684,10.6133291 64.5113351,9.95533569 64.166,9.484 C63.8206649,9.01266431 63.2980035,8.777 62.598,8.777 C62.2433316,8.777 61.9353346,8.83766606 61.674,8.959 C61.4126654,9.08033394 61.1945009,9.25533219 61.0195,9.484 C60.8444991,9.71266781 60.7138338,9.99383167 60.6275,10.3275 C60.5411662,10.6611683 60.498,11.0379979 60.498,11.458 C60.498,11.8780021 60.5411662,12.253665 60.6275,12.585 C60.7138338,12.916335 60.8444991,13.1951655 61.0195,13.4215 C61.1945009,13.6478345 61.4126654,13.8216661 61.674,13.943 C61.9353346,14.0643339 62.2433316,14.125 62.598,14.125 Z M67.512,15 L67.512,7.909 L68.254,7.909 C68.4313342,7.909 68.5433331,7.99533247 68.59,8.168 L68.688,8.938 C68.9960015,8.59733163 69.3401648,8.32200105 69.7205,8.112 C70.1008352,7.90199895 70.5406642,7.797 71.04,7.797 C71.4273353,7.797 71.7691652,7.86116602 72.0655,7.9895 C72.3618348,8.11783397 72.6091657,8.29983215 72.8075,8.5355 C73.0058343,8.77116784 73.1563328,9.05466501 73.259,9.386 C73.3616672,9.71733499 73.413,10.0836647 73.413,10.485 L73.413,15 L72.167,15 L72.167,10.485 C72.167,9.94833065 72.0445012,9.53183481 71.7995,9.2355 C71.5544988,8.93916519 71.1800025,8.791 70.676,8.791 C70.3073315,8.791 69.9631683,8.87966578 69.6435,9.057 C69.3238317,9.23433422 69.028668,9.47466515 68.758,9.778 L68.758,15 L67.512,15 Z M78.985,14.048 L81.141,14.048 L81.141,7.209 C81.141,7.00366564 81.1479999,6.79600105 81.162,6.586 L79.37,8.119 C79.3233331,8.15633352 79.2766669,8.18316659 79.23,8.1995 C79.1833331,8.21583342 79.1390002,8.224 79.097,8.224 C79.0269996,8.224 78.9640003,8.20883348 78.908,8.1785 C78.8519997,8.14816651 78.8100001,8.11200021 78.782,8.07 L78.39,7.531 L81.372,4.948 L82.387,4.948 L82.387,14.048 L84.361,14.048 L84.361,15 L78.985,15 L78.985,14.048 Z" id="Option1" fill="#191919" fill-rule="nonzero"></path>
                    <path d="M41.535,42.988 C41.535,43.7393371 41.4160012,44.4288302 41.178,45.0565 C40.9399988,45.6841698 40.6040022,46.2243311 40.17,46.677 C39.7359978,47.1296689 39.214503,47.4808321 38.6055,47.7305 C37.996497,47.9801679 37.323337,48.105 36.586,48.105 C35.848663,48.105 35.1766697,47.9801679 34.57,47.7305 C33.9633303,47.4808321 33.4430022,47.1296689 33.009,46.677 C32.5749978,46.2243311 32.2390012,45.6841698 32.001,45.0565 C31.7629988,44.4288302 31.644,43.7393371 31.644,42.988 C31.644,42.2366629 31.7629988,41.5471698 32.001,40.9195 C32.2390012,40.2918302 32.5749978,39.7505023 33.009,39.2955 C33.4430022,38.8404977 33.9633303,38.4870013 34.57,38.235 C35.1766697,37.9829987 35.848663,37.857 36.586,37.857 C37.323337,37.857 37.996497,37.9829987 38.6055,38.235 C39.214503,38.4870013 39.7359978,38.8404977 40.17,39.2955 C40.6040022,39.7505023 40.9399988,40.2918302 41.178,40.9195 C41.4160012,41.5471698 41.535,42.2366629 41.535,42.988 Z M40.142,42.988 C40.142,42.3719969 40.0580008,41.8190024 39.89,41.329 C39.7219992,40.8389976 39.4840015,40.424835 39.176,40.0865 C38.8679985,39.748165 38.4946689,39.4880009 38.056,39.306 C37.6173311,39.1239991 37.127336,39.033 36.586,39.033 C36.0493307,39.033 35.5616689,39.1239991 35.123,39.306 C34.6843311,39.4880009 34.3098349,39.748165 33.9995,40.0865 C33.6891651,40.424835 33.4500008,40.8389976 33.282,41.329 C33.1139992,41.8190024 33.03,42.3719969 33.03,42.988 C33.03,43.6040031 33.1139992,44.1558309 33.282,44.6435 C33.4500008,45.1311691 33.6891651,45.544165 33.9995,45.8825 C34.3098349,46.220835 34.6843311,46.4798324 35.123,46.6595 C35.5616689,46.8391676 36.0493307,46.929 36.586,46.929 C37.127336,46.929 37.6173311,46.8391676 38.056,46.6595 C38.4946689,46.4798324 38.8679985,46.220835 39.176,45.8825 C39.4840015,45.544165 39.7219992,45.1311691 39.89,44.6435 C40.0580008,44.1558309 40.142,43.6040031 40.142,42.988 Z M43.194,50.401 L43.194,40.909 L43.936,40.909 C44.1133342,40.909 44.2253331,40.9953325 44.272,41.168 L44.377,42.008 C44.6803349,41.6393315 45.0268314,41.3430011 45.4165,41.119 C45.8061686,40.8949989 46.2553308,40.783 46.764,40.783 C47.170002,40.783 47.538665,40.8611659 47.87,41.0175 C48.201335,41.1738341 48.4836655,41.4048318 48.717,41.7105 C48.9503345,42.0161682 49.1299994,42.3953311 49.256,42.848 C49.3820006,43.3006689 49.445,43.8209971 49.445,44.409 C49.445,44.9316693 49.3750007,45.4181644 49.235,45.8685 C49.0949993,46.3188356 48.8943346,46.7084984 48.633,47.0375 C48.3716654,47.3665016 48.0508352,47.6254991 47.6705,47.8145 C47.2901648,48.0035009 46.8620024,48.098 46.386,48.098 C45.9473311,48.098 45.5728349,48.0256674 45.2625,47.881 C44.9521651,47.7363326 44.6780012,47.5310013 44.44,47.265 L44.44,50.401 L43.194,50.401 Z M46.351,41.791 C45.944998,41.791 45.5891682,41.8843324 45.2835,42.071 C44.9778318,42.2576676 44.696668,42.5213316 44.44,42.862 L44.44,46.292 C44.6686678,46.6000015 44.9194986,46.8169994 45.1925,46.943 C45.4655014,47.0690006 45.7699983,47.132 46.106,47.132 C46.7640033,47.132 47.2703316,46.8963357 47.625,46.425 C47.9796684,45.9536643 48.157,45.281671 48.157,44.409 C48.157,43.9469977 48.1161671,43.550335 48.0345,43.219 C47.9528329,42.887665 47.8350008,42.6158344 47.681,42.4035 C47.5269992,42.1911656 47.3380011,42.0360005 47.114,41.938 C46.8899989,41.8399995 46.6356681,41.791 46.351,41.791 Z M53.071,48.112 C52.5109972,48.112 52.0805015,47.9556682 51.7795,47.643 C51.4784985,47.3303318 51.328,46.8800029 51.328,46.292 L51.328,41.952 L50.474,41.952 C50.399333,41.952 50.3363336,41.9298336 50.285,41.8855 C50.2336664,41.8411664 50.208,41.7723338 50.208,41.679 L50.208,41.182 L51.37,41.035 L51.657,38.844 C51.6663334,38.7739997 51.6966664,38.7168336 51.748,38.6725 C51.7993336,38.6281664 51.8646663,38.606 51.944,38.606 L52.574,38.606 L52.574,41.049 L54.604,41.049 L54.604,41.952 L52.574,41.952 L52.574,46.208 C52.574,46.5066682 52.6463326,46.7283326 52.791,46.873 C52.9356674,47.0176674 53.1223322,47.09 53.351,47.09 C53.4816673,47.09 53.5948329,47.0725002 53.6905,47.0375 C53.7861671,47.0024998 53.8689996,46.9640002 53.939,46.922 C54.0090003,46.8799998 54.0684998,46.8415002 54.1175,46.8065 C54.1665002,46.7714998 54.2096665,46.754 54.247,46.754 C54.3123337,46.754 54.3706664,46.7936663 54.422,46.873 L54.786,47.468 C54.5713323,47.6686677 54.3123348,47.8261661 54.009,47.9405 C53.7056652,48.0548339 53.3930016,48.112 53.071,48.112 Z M57.53,40.909 L57.53,48 L56.284,48 L56.284,40.909 L57.53,40.909 Z M57.81,38.683 C57.81,38.8043339 57.7855002,38.9174995 57.7365,39.0225 C57.6874998,39.1275005 57.6221671,39.2208329 57.5405,39.3025 C57.4588329,39.3841671 57.3643339,39.4483331 57.257,39.495 C57.1496661,39.5416669 57.0353339,39.565 56.914,39.565 C56.7926661,39.565 56.6795005,39.5416669 56.5745,39.495 C56.4694995,39.4483331 56.3761671,39.3841671 56.2945,39.3025 C56.2128329,39.2208329 56.1486669,39.1275005 56.102,39.0225 C56.0553331,38.9174995 56.032,38.8043339 56.032,38.683 C56.032,38.5616661 56.0553331,38.4461672 56.102,38.3365 C56.1486669,38.2268328 56.2128329,38.1311671 56.2945,38.0495 C56.3761671,37.9678329 56.4694995,37.9036669 56.5745,37.857 C56.6795005,37.8103331 56.7926661,37.787 56.914,37.787 C57.0353339,37.787 57.1496661,37.8103331 57.257,37.857 C57.3643339,37.9036669 57.4588329,37.9678329 57.5405,38.0495 C57.6221671,38.1311671 57.6874998,38.2268328 57.7365,38.3365 C57.7855002,38.4461672 57.81,38.5616661 57.81,38.683 Z M62.598,40.797 C63.1160026,40.797 63.5838312,40.8833325 64.0015,41.056 C64.4191688,41.2286675 64.7738319,41.4736651 65.0655,41.791 C65.3571681,42.1083349 65.5811659,42.4921644 65.7375,42.9425 C65.8938341,43.3928356 65.972,43.8956639 65.972,44.451 C65.972,45.0110028 65.8938341,45.5149978 65.7375,45.963 C65.5811659,46.4110022 65.3571681,46.7936651 65.0655,47.111 C64.7738319,47.4283349 64.4191688,47.6721658 64.0015,47.8425 C63.5838312,48.0128342 63.1160026,48.098 62.598,48.098 C62.0799974,48.098 61.6121688,48.0128342 61.1945,47.8425 C60.7768312,47.6721658 60.4210015,47.4283349 60.127,47.111 C59.8329985,46.7936651 59.6066675,46.4110022 59.448,45.963 C59.2893325,45.5149978 59.21,45.0110028 59.21,44.451 C59.21,43.8956639 59.2893325,43.3928356 59.448,42.9425 C59.6066675,42.4921644 59.8329985,42.1083349 60.127,41.791 C60.4210015,41.4736651 60.7768312,41.2286675 61.1945,41.056 C61.6121688,40.8833325 62.0799974,40.797 62.598,40.797 Z M62.598,47.125 C63.2980035,47.125 63.8206649,46.8905023 64.166,46.4215 C64.5113351,45.9524977 64.684,45.2980042 64.684,44.458 C64.684,43.6133291 64.5113351,42.9553357 64.166,42.484 C63.8206649,42.0126643 63.2980035,41.777 62.598,41.777 C62.2433316,41.777 61.9353346,41.8376661 61.674,41.959 C61.4126654,42.0803339 61.1945009,42.2553322 61.0195,42.484 C60.8444991,42.7126678 60.7138338,42.9938317 60.6275,43.3275 C60.5411662,43.6611683 60.498,44.0379979 60.498,44.458 C60.498,44.8780021 60.5411662,45.253665 60.6275,45.585 C60.7138338,45.916335 60.8444991,46.1951655 61.0195,46.4215 C61.1945009,46.6478345 61.4126654,46.8216661 61.674,46.943 C61.9353346,47.0643339 62.2433316,47.125 62.598,47.125 Z M67.512,48 L67.512,40.909 L68.254,40.909 C68.4313342,40.909 68.5433331,40.9953325 68.59,41.168 L68.688,41.938 C68.9960015,41.5973316 69.3401648,41.322001 69.7205,41.112 C70.1008352,40.9019989 70.5406642,40.797 71.04,40.797 C71.4273353,40.797 71.7691652,40.861166 72.0655,40.9895 C72.3618348,41.117834 72.6091657,41.2998322 72.8075,41.5355 C73.0058343,41.7711678 73.1563328,42.054665 73.259,42.386 C73.3616672,42.717335 73.413,43.0836647 73.413,43.485 L73.413,48 L72.167,48 L72.167,43.485 C72.167,42.9483307 72.0445012,42.5318348 71.7995,42.2355 C71.5544988,41.9391652 71.1800025,41.791 70.676,41.791 C70.3073315,41.791 69.9631683,41.8796658 69.6435,42.057 C69.3238317,42.2343342 69.028668,42.4746651 68.758,42.778 L68.758,48 L67.512,48 Z M81.183,37.857 C81.6076688,37.857 82.0043315,37.9199994 82.373,38.046 C82.7416685,38.1720006 83.0601653,38.3551655 83.3285,38.5955 C83.5968347,38.8358345 83.8079992,39.1286649 83.962,39.474 C84.1160008,39.8193351 84.193,40.2113311 84.193,40.65 C84.193,41.0233352 84.1370006,41.3686651 84.025,41.686 C83.9129994,42.0033349 83.7613343,42.3078319 83.57,42.5995 C83.3786657,42.8911681 83.1581679,43.1734986 82.9085,43.4465 C82.6588321,43.7195014 82.3940014,43.9983319 82.114,44.283 L79.475,46.985 C79.6616676,46.9336664 79.8506657,46.8928335 80.042,46.8625 C80.2333343,46.8321665 80.4176658,46.817 80.595,46.817 L83.955,46.817 C84.090334,46.817 84.1976663,46.8566663 84.277,46.936 C84.3563337,47.0153337 84.396,47.1179994 84.396,47.244 L84.396,48 L77.704,48 L77.704,47.573 C77.704,47.4843329 77.7214998,47.3933338 77.7565,47.3 C77.7915002,47.2066662 77.8486663,47.1203337 77.928,47.041 L81.141,43.814 C81.4070013,43.543332 81.6496656,43.2831679 81.869,43.0335 C82.0883344,42.7838321 82.2761659,42.5330013 82.4325,42.281 C82.5888341,42.0289987 82.7089996,41.7735013 82.793,41.5145 C82.8770004,41.2554987 82.919,40.9790015 82.919,40.685 C82.919,40.3909985 82.8723338,40.1331678 82.779,39.9115 C82.6856662,39.6898322 82.5573342,39.5066674 82.394,39.362 C82.2306659,39.2173326 82.0393344,39.1088337 81.82,39.0365 C81.6006656,38.9641663 81.3650013,38.928 81.113,38.928 C80.8609987,38.928 80.6276677,38.965333 80.413,39.04 C80.1983323,39.114667 80.0081675,39.2184993 79.8425,39.3515 C79.6768325,39.4845007 79.5368339,39.6419991 79.4225,39.824 C79.3081661,40.0060009 79.2276669,40.2066656 79.181,40.426 C79.1436665,40.561334 79.087667,40.659333 79.013,40.72 C78.938333,40.780667 78.8403339,40.811 78.719,40.811 C78.6956665,40.811 78.6711668,40.8098333 78.6455,40.8075 C78.6198332,40.8051667 78.5906668,40.8016667 78.558,40.797 L77.907,40.685 C77.9723337,40.2276644 78.0983324,39.8228351 78.285,39.4705 C78.4716676,39.1181649 78.7084986,38.8230012 78.9955,38.585 C79.2825014,38.3469988 79.6114981,38.1661673 79.9825,38.0425 C80.3535019,37.9188327 80.7536645,37.857 81.183,37.857 Z" id="Option2" fill="#191919" fill-rule="nonzero"></path>
                    <g id="radio-button-off" transform="translate(0.000000, 33.000000)" stroke="#696969" stroke-width="2.5">
                        <circle id="Oval" cx="10" cy="10" r="8"></circle>
                    </g>
                    <path d="M41.535,75.988 C41.535,76.7393371 41.4160012,77.4288302 41.178,78.0565 C40.9399988,78.6841698 40.6040022,79.2243311 40.17,79.677 C39.7359978,80.1296689 39.214503,80.4808321 38.6055,80.7305 C37.996497,80.9801679 37.323337,81.105 36.586,81.105 C35.848663,81.105 35.1766697,80.9801679 34.57,80.7305 C33.9633303,80.4808321 33.4430022,80.1296689 33.009,79.677 C32.5749978,79.2243311 32.2390012,78.6841698 32.001,78.0565 C31.7629988,77.4288302 31.644,76.7393371 31.644,75.988 C31.644,75.2366629 31.7629988,74.5471698 32.001,73.9195 C32.2390012,73.2918302 32.5749978,72.7505023 33.009,72.2955 C33.4430022,71.8404977 33.9633303,71.4870013 34.57,71.235 C35.1766697,70.9829987 35.848663,70.857 36.586,70.857 C37.323337,70.857 37.996497,70.9829987 38.6055,71.235 C39.214503,71.4870013 39.7359978,71.8404977 40.17,72.2955 C40.6040022,72.7505023 40.9399988,73.2918302 41.178,73.9195 C41.4160012,74.5471698 41.535,75.2366629 41.535,75.988 Z M40.142,75.988 C40.142,75.3719969 40.0580008,74.8190024 39.89,74.329 C39.7219992,73.8389976 39.4840015,73.424835 39.176,73.0865 C38.8679985,72.748165 38.4946689,72.4880009 38.056,72.306 C37.6173311,72.1239991 37.127336,72.033 36.586,72.033 C36.0493307,72.033 35.5616689,72.1239991 35.123,72.306 C34.6843311,72.4880009 34.3098349,72.748165 33.9995,73.0865 C33.6891651,73.424835 33.4500008,73.8389976 33.282,74.329 C33.1139992,74.8190024 33.03,75.3719969 33.03,75.988 C33.03,76.6040031 33.1139992,77.1558309 33.282,77.6435 C33.4500008,78.1311691 33.6891651,78.544165 33.9995,78.8825 C34.3098349,79.220835 34.6843311,79.4798324 35.123,79.6595 C35.5616689,79.8391676 36.0493307,79.929 36.586,79.929 C37.127336,79.929 37.6173311,79.8391676 38.056,79.6595 C38.4946689,79.4798324 38.8679985,79.220835 39.176,78.8825 C39.4840015,78.544165 39.7219992,78.1311691 39.89,77.6435 C40.0580008,77.1558309 40.142,76.6040031 40.142,75.988 Z M43.194,83.401 L43.194,73.909 L43.936,73.909 C44.1133342,73.909 44.2253331,73.9953325 44.272,74.168 L44.377,75.008 C44.6803349,74.6393315 45.0268314,74.3430011 45.4165,74.119 C45.8061686,73.8949989 46.2553308,73.783 46.764,73.783 C47.170002,73.783 47.538665,73.8611659 47.87,74.0175 C48.201335,74.1738341 48.4836655,74.4048318 48.717,74.7105 C48.9503345,75.0161682 49.1299994,75.3953311 49.256,75.848 C49.3820006,76.3006689 49.445,76.8209971 49.445,77.409 C49.445,77.9316693 49.3750007,78.4181644 49.235,78.8685 C49.0949993,79.3188356 48.8943346,79.7084984 48.633,80.0375 C48.3716654,80.3665016 48.0508352,80.6254991 47.6705,80.8145 C47.2901648,81.0035009 46.8620024,81.098 46.386,81.098 C45.9473311,81.098 45.5728349,81.0256674 45.2625,80.881 C44.9521651,80.7363326 44.6780012,80.5310013 44.44,80.265 L44.44,83.401 L43.194,83.401 Z M46.351,74.791 C45.944998,74.791 45.5891682,74.8843324 45.2835,75.071 C44.9778318,75.2576676 44.696668,75.5213316 44.44,75.862 L44.44,79.292 C44.6686678,79.6000015 44.9194986,79.8169994 45.1925,79.943 C45.4655014,80.0690006 45.7699983,80.132 46.106,80.132 C46.7640033,80.132 47.2703316,79.8963357 47.625,79.425 C47.9796684,78.9536643 48.157,78.281671 48.157,77.409 C48.157,76.9469977 48.1161671,76.550335 48.0345,76.219 C47.9528329,75.887665 47.8350008,75.6158344 47.681,75.4035 C47.5269992,75.1911656 47.3380011,75.0360005 47.114,74.938 C46.8899989,74.8399995 46.6356681,74.791 46.351,74.791 Z M53.071,81.112 C52.5109972,81.112 52.0805015,80.9556682 51.7795,80.643 C51.4784985,80.3303318 51.328,79.8800029 51.328,79.292 L51.328,74.952 L50.474,74.952 C50.399333,74.952 50.3363336,74.9298336 50.285,74.8855 C50.2336664,74.8411664 50.208,74.7723338 50.208,74.679 L50.208,74.182 L51.37,74.035 L51.657,71.844 C51.6663334,71.7739996 51.6966664,71.7168336 51.748,71.6725 C51.7993336,71.6281664 51.8646663,71.606 51.944,71.606 L52.574,71.606 L52.574,74.049 L54.604,74.049 L54.604,74.952 L52.574,74.952 L52.574,79.208 C52.574,79.5066682 52.6463326,79.7283326 52.791,79.873 C52.9356674,80.0176674 53.1223322,80.09 53.351,80.09 C53.4816673,80.09 53.5948329,80.0725002 53.6905,80.0375 C53.7861671,80.0024998 53.8689996,79.9640002 53.939,79.922 C54.0090003,79.8799998 54.0684998,79.8415002 54.1175,79.8065 C54.1665002,79.7714998 54.2096665,79.754 54.247,79.754 C54.3123337,79.754 54.3706664,79.7936663 54.422,79.873 L54.786,80.468 C54.5713323,80.6686677 54.3123348,80.8261661 54.009,80.9405 C53.7056652,81.0548339 53.3930016,81.112 53.071,81.112 Z M57.53,73.909 L57.53,81 L56.284,81 L56.284,73.909 L57.53,73.909 Z M57.81,71.683 C57.81,71.8043339 57.7855002,71.9174995 57.7365,72.0225 C57.6874998,72.1275005 57.6221671,72.2208329 57.5405,72.3025 C57.4588329,72.3841671 57.3643339,72.4483331 57.257,72.495 C57.1496661,72.5416669 57.0353339,72.565 56.914,72.565 C56.7926661,72.565 56.6795005,72.5416669 56.5745,72.495 C56.4694995,72.4483331 56.3761671,72.3841671 56.2945,72.3025 C56.2128329,72.2208329 56.1486669,72.1275005 56.102,72.0225 C56.0553331,71.9174995 56.032,71.8043339 56.032,71.683 C56.032,71.5616661 56.0553331,71.4461672 56.102,71.3365 C56.1486669,71.2268328 56.2128329,71.1311671 56.2945,71.0495 C56.3761671,70.9678329 56.4694995,70.9036669 56.5745,70.857 C56.6795005,70.8103331 56.7926661,70.787 56.914,70.787 C57.0353339,70.787 57.1496661,70.8103331 57.257,70.857 C57.3643339,70.9036669 57.4588329,70.9678329 57.5405,71.0495 C57.6221671,71.1311671 57.6874998,71.2268328 57.7365,71.3365 C57.7855002,71.4461672 57.81,71.5616661 57.81,71.683 Z M62.598,73.797 C63.1160026,73.797 63.5838312,73.8833325 64.0015,74.056 C64.4191688,74.2286675 64.7738319,74.4736651 65.0655,74.791 C65.3571681,75.1083349 65.5811659,75.4921644 65.7375,75.9425 C65.8938341,76.3928356 65.972,76.8956639 65.972,77.451 C65.972,78.0110028 65.8938341,78.5149978 65.7375,78.963 C65.5811659,79.4110022 65.3571681,79.7936651 65.0655,80.111 C64.7738319,80.4283349 64.4191688,80.6721658 64.0015,80.8425 C63.5838312,81.0128342 63.1160026,81.098 62.598,81.098 C62.0799974,81.098 61.6121688,81.0128342 61.1945,80.8425 C60.7768312,80.6721658 60.4210015,80.4283349 60.127,80.111 C59.8329985,79.7936651 59.6066675,79.4110022 59.448,78.963 C59.2893325,78.5149978 59.21,78.0110028 59.21,77.451 C59.21,76.8956639 59.2893325,76.3928356 59.448,75.9425 C59.6066675,75.4921644 59.8329985,75.1083349 60.127,74.791 C60.4210015,74.4736651 60.7768312,74.2286675 61.1945,74.056 C61.6121688,73.8833325 62.0799974,73.797 62.598,73.797 Z M62.598,80.125 C63.2980035,80.125 63.8206649,79.8905023 64.166,79.4215 C64.5113351,78.9524977 64.684,78.2980042 64.684,77.458 C64.684,76.6133291 64.5113351,75.9553357 64.166,75.484 C63.8206649,75.0126643 63.2980035,74.777 62.598,74.777 C62.2433316,74.777 61.9353346,74.8376661 61.674,74.959 C61.4126654,75.0803339 61.1945009,75.2553322 61.0195,75.484 C60.8444991,75.7126678 60.7138338,75.9938317 60.6275,76.3275 C60.5411662,76.6611683 60.498,77.0379979 60.498,77.458 C60.498,77.8780021 60.5411662,78.253665 60.6275,78.585 C60.7138338,78.916335 60.8444991,79.1951655 61.0195,79.4215 C61.1945009,79.6478345 61.4126654,79.8216661 61.674,79.943 C61.9353346,80.0643339 62.2433316,80.125 62.598,80.125 Z M67.512,81 L67.512,73.909 L68.254,73.909 C68.4313342,73.909 68.5433331,73.9953325 68.59,74.168 L68.688,74.938 C68.9960015,74.5973316 69.3401648,74.322001 69.7205,74.112 C70.1008352,73.901999 70.5406642,73.797 71.04,73.797 C71.4273353,73.797 71.7691652,73.861166 72.0655,73.9895 C72.3618348,74.117834 72.6091657,74.2998322 72.8075,74.5355 C73.0058343,74.7711678 73.1563328,75.054665 73.259,75.386 C73.3616672,75.717335 73.413,76.0836647 73.413,76.485 L73.413,81 L72.167,81 L72.167,76.485 C72.167,75.9483307 72.0445012,75.5318348 71.7995,75.2355 C71.5544988,74.9391652 71.1800025,74.791 70.676,74.791 C70.3073315,74.791 69.9631683,74.8796658 69.6435,75.057 C69.3238317,75.2343342 69.028668,75.4746651 68.758,75.778 L68.758,81 L67.512,81 Z M81.316,70.857 C81.7406688,70.857 82.1326649,70.9176661 82.492,71.039 C82.8513351,71.1603339 83.1604987,71.3329989 83.4195,71.557 C83.6785013,71.7810011 83.8803326,72.0516651 84.025,72.369 C84.1696674,72.6863349 84.242,73.0386647 84.242,73.426 C84.242,73.7433349 84.2011671,74.0268321 84.1195,74.2765 C84.0378329,74.5261679 83.9211674,74.7454991 83.7695,74.9345 C83.6178326,75.1235009 83.4346677,75.2833327 83.22,75.414 C83.0053323,75.5446673 82.7650013,75.6496663 82.499,75.729 C83.1523366,75.9016675 83.6434984,76.190998 83.9725,76.597 C84.3015016,77.003002 84.466,77.5116636 84.466,78.123 C84.466,78.5850023 84.3785009,79.0003315 84.2035,79.369 C84.0284991,79.7376685 83.7893349,80.0514987 83.486,80.3105 C83.1826651,80.5695013 82.8291687,80.7678326 82.4255,80.9055 C82.0218313,81.0431674 81.5890023,81.112 81.127,81.112 C80.5949973,81.112 80.1400019,81.0455007 79.762,80.9125 C79.3839981,80.7794993 79.0643346,80.5963345 78.803,80.363 C78.5416654,80.1296655 78.3270008,79.8531683 78.159,79.5335 C77.9909992,79.2138317 77.8486673,78.8673352 77.732,78.494 L78.264,78.27 C78.3620005,78.2279998 78.4599995,78.207 78.558,78.207 C78.6513338,78.207 78.7341663,78.2268331 78.8065,78.2665 C78.8788337,78.3061669 78.9336665,78.3679996 78.971,78.452 C78.9803334,78.4706668 78.9896666,78.4904999 78.999,78.5115 C79.0083334,78.5325001 79.0176666,78.5546666 79.027,78.578 C79.0923337,78.713334 79.1716662,78.8661658 79.265,79.0365 C79.3583338,79.2068342 79.4843325,79.3666659 79.643,79.516 C79.8016675,79.6653341 79.9988322,79.7913328 80.2345,79.894 C80.4701678,79.9966672 80.7629982,80.048 81.113,80.048 C81.4630018,80.048 81.769832,79.9908339 82.0335,79.8765 C82.297168,79.7621661 82.5164991,79.6140009 82.6915,79.432 C82.8665009,79.2499991 82.9983329,79.0470011 83.087,78.823 C83.1756671,78.5989989 83.22,78.3773344 83.22,78.158 C83.22,77.887332 83.1838337,77.6400011 83.1115,77.416 C83.0391663,77.1919989 82.9085009,76.9983342 82.7195,76.835 C82.5304991,76.6716658 82.2691683,76.5433338 81.9355,76.45 C81.6018317,76.3566662 81.1736693,76.31 80.651,76.31 L80.651,75.407 C81.0756688,75.4023333 81.4384985,75.3556671 81.7395,75.267 C82.0405015,75.1783329 82.2866657,75.0570008 82.478,74.903 C82.6693343,74.7489992 82.8081662,74.5646677 82.8945,74.35 C82.9808338,74.1353323 83.024,73.8973346 83.024,73.636 C83.024,73.3466652 82.9785005,73.0946677 82.8875,72.88 C82.7964995,72.6653323 82.6716675,72.4880007 82.513,72.348 C82.3543325,72.2079993 82.1665011,72.1030004 81.9495,72.033 C81.7324989,71.9629997 81.4980013,71.928 81.246,71.928 C80.9939987,71.928 80.7606677,71.965333 80.546,72.04 C80.3313323,72.114667 80.1411675,72.2184993 79.9755,72.3515 C79.8098325,72.4845007 79.6710006,72.6431657 79.559,72.8275 C79.4469994,73.0118343 79.3630003,73.2113323 79.307,73.426 C79.2696665,73.561334 79.213667,73.659333 79.139,73.72 C79.064333,73.780667 78.9686673,73.811 78.852,73.811 C78.8286666,73.811 78.8041668,73.8098333 78.7785,73.8075 C78.7528332,73.8051667 78.7236668,73.8016667 78.691,73.797 L78.04,73.685 C78.1053337,73.2276644 78.2313324,72.8228351 78.418,72.4705 C78.6046676,72.1181649 78.8414986,71.8230012 79.1285,71.585 C79.4155014,71.3469988 79.7444981,71.1661673 80.1155,71.0425 C80.4865019,70.9188327 80.8866645,70.857 81.316,70.857 Z" id="Option3" fill="#191919" fill-rule="nonzero"></path>
                    <g id="radio-button-off" transform="translate(0.000000, 66.000000)" stroke="#696969" stroke-width="2.5">
                        <circle id="Oval" cx="10" cy="10" r="8"></circle>
                    </g>
                    <path d="M41.535,108.988 C41.535,109.739337 41.4160012,110.42883 41.178,111.0565 C40.9399988,111.68417 40.6040022,112.224331 40.17,112.677 C39.7359978,113.129669 39.214503,113.480832 38.6055,113.7305 C37.996497,113.980168 37.323337,114.105 36.586,114.105 C35.848663,114.105 35.1766697,113.980168 34.57,113.7305 C33.9633303,113.480832 33.4430022,113.129669 33.009,112.677 C32.5749978,112.224331 32.2390012,111.68417 32.001,111.0565 C31.7629988,110.42883 31.644,109.739337 31.644,108.988 C31.644,108.236663 31.7629988,107.54717 32.001,106.9195 C32.2390012,106.29183 32.5749978,105.750502 33.009,105.2955 C33.4430022,104.840498 33.9633303,104.487001 34.57,104.235 C35.1766697,103.982999 35.848663,103.857 36.586,103.857 C37.323337,103.857 37.996497,103.982999 38.6055,104.235 C39.214503,104.487001 39.7359978,104.840498 40.17,105.2955 C40.6040022,105.750502 40.9399988,106.29183 41.178,106.9195 C41.4160012,107.54717 41.535,108.236663 41.535,108.988 Z M40.142,108.988 C40.142,108.371997 40.0580008,107.819002 39.89,107.329 C39.7219992,106.838998 39.4840015,106.424835 39.176,106.0865 C38.8679985,105.748165 38.4946689,105.488001 38.056,105.306 C37.6173311,105.123999 37.127336,105.033 36.586,105.033 C36.0493307,105.033 35.5616689,105.123999 35.123,105.306 C34.6843311,105.488001 34.3098349,105.748165 33.9995,106.0865 C33.6891651,106.424835 33.4500008,106.838998 33.282,107.329 C33.1139992,107.819002 33.03,108.371997 33.03,108.988 C33.03,109.604003 33.1139992,110.155831 33.282,110.6435 C33.4500008,111.131169 33.6891651,111.544165 33.9995,111.8825 C34.3098349,112.220835 34.6843311,112.479832 35.123,112.6595 C35.5616689,112.839168 36.0493307,112.929 36.586,112.929 C37.127336,112.929 37.6173311,112.839168 38.056,112.6595 C38.4946689,112.479832 38.8679985,112.220835 39.176,111.8825 C39.4840015,111.544165 39.7219992,111.131169 39.89,110.6435 C40.0580008,110.155831 40.142,109.604003 40.142,108.988 Z M43.194,116.401 L43.194,106.909 L43.936,106.909 C44.1133342,106.909 44.2253331,106.995332 44.272,107.168 L44.377,108.008 C44.6803349,107.639331 45.0268314,107.343001 45.4165,107.119 C45.8061686,106.894999 46.2553308,106.783 46.764,106.783 C47.170002,106.783 47.538665,106.861166 47.87,107.0175 C48.201335,107.173834 48.4836655,107.404832 48.717,107.7105 C48.9503345,108.016168 49.1299994,108.395331 49.256,108.848 C49.3820006,109.300669 49.445,109.820997 49.445,110.409 C49.445,110.931669 49.3750007,111.418164 49.235,111.8685 C49.0949993,112.318836 48.8943346,112.708498 48.633,113.0375 C48.3716654,113.366502 48.0508352,113.625499 47.6705,113.8145 C47.2901648,114.003501 46.8620024,114.098 46.386,114.098 C45.9473311,114.098 45.5728349,114.025667 45.2625,113.881 C44.9521651,113.736333 44.6780012,113.531001 44.44,113.265 L44.44,116.401 L43.194,116.401 Z M46.351,107.791 C45.944998,107.791 45.5891682,107.884332 45.2835,108.071 C44.9778318,108.257668 44.696668,108.521332 44.44,108.862 L44.44,112.292 C44.6686678,112.600002 44.9194986,112.816999 45.1925,112.943 C45.4655014,113.069001 45.7699983,113.132 46.106,113.132 C46.7640033,113.132 47.2703316,112.896336 47.625,112.425 C47.9796684,111.953664 48.157,111.281671 48.157,110.409 C48.157,109.946998 48.1161671,109.550335 48.0345,109.219 C47.9528329,108.887665 47.8350008,108.615834 47.681,108.4035 C47.5269992,108.191166 47.3380011,108.036 47.114,107.938 C46.8899989,107.84 46.6356681,107.791 46.351,107.791 Z M53.071,114.112 C52.5109972,114.112 52.0805015,113.955668 51.7795,113.643 C51.4784985,113.330332 51.328,112.880003 51.328,112.292 L51.328,107.952 L50.474,107.952 C50.399333,107.952 50.3363336,107.929834 50.285,107.8855 C50.2336664,107.841166 50.208,107.772334 50.208,107.679 L50.208,107.182 L51.37,107.035 L51.657,104.844 C51.6663334,104.774 51.6966664,104.716834 51.748,104.6725 C51.7993336,104.628166 51.8646663,104.606 51.944,104.606 L52.574,104.606 L52.574,107.049 L54.604,107.049 L54.604,107.952 L52.574,107.952 L52.574,112.208 C52.574,112.506668 52.6463326,112.728333 52.791,112.873 C52.9356674,113.017667 53.1223322,113.09 53.351,113.09 C53.4816673,113.09 53.5948329,113.0725 53.6905,113.0375 C53.7861671,113.0025 53.8689996,112.964 53.939,112.922 C54.0090003,112.88 54.0684998,112.8415 54.1175,112.8065 C54.1665002,112.7715 54.2096665,112.754 54.247,112.754 C54.3123337,112.754 54.3706664,112.793666 54.422,112.873 L54.786,113.468 C54.5713323,113.668668 54.3123348,113.826166 54.009,113.9405 C53.7056652,114.054834 53.3930016,114.112 53.071,114.112 Z M57.53,106.909 L57.53,114 L56.284,114 L56.284,106.909 L57.53,106.909 Z M57.81,104.683 C57.81,104.804334 57.7855002,104.917499 57.7365,105.0225 C57.6874998,105.127501 57.6221671,105.220833 57.5405,105.3025 C57.4588329,105.384167 57.3643339,105.448333 57.257,105.495 C57.1496661,105.541667 57.0353339,105.565 56.914,105.565 C56.7926661,105.565 56.6795005,105.541667 56.5745,105.495 C56.4694995,105.448333 56.3761671,105.384167 56.2945,105.3025 C56.2128329,105.220833 56.1486669,105.127501 56.102,105.0225 C56.0553331,104.917499 56.032,104.804334 56.032,104.683 C56.032,104.561666 56.0553331,104.446167 56.102,104.3365 C56.1486669,104.226833 56.2128329,104.131167 56.2945,104.0495 C56.3761671,103.967833 56.4694995,103.903667 56.5745,103.857 C56.6795005,103.810333 56.7926661,103.787 56.914,103.787 C57.0353339,103.787 57.1496661,103.810333 57.257,103.857 C57.3643339,103.903667 57.4588329,103.967833 57.5405,104.0495 C57.6221671,104.131167 57.6874998,104.226833 57.7365,104.3365 C57.7855002,104.446167 57.81,104.561666 57.81,104.683 Z M62.598,106.797 C63.1160026,106.797 63.5838312,106.883332 64.0015,107.056 C64.4191688,107.228668 64.7738319,107.473665 65.0655,107.791 C65.3571681,108.108335 65.5811659,108.492164 65.7375,108.9425 C65.8938341,109.392836 65.972,109.895664 65.972,110.451 C65.972,111.011003 65.8938341,111.514998 65.7375,111.963 C65.5811659,112.411002 65.3571681,112.793665 65.0655,113.111 C64.7738319,113.428335 64.4191688,113.672166 64.0015,113.8425 C63.5838312,114.012834 63.1160026,114.098 62.598,114.098 C62.0799974,114.098 61.6121688,114.012834 61.1945,113.8425 C60.7768312,113.672166 60.4210015,113.428335 60.127,113.111 C59.8329985,112.793665 59.6066675,112.411002 59.448,111.963 C59.2893325,111.514998 59.21,111.011003 59.21,110.451 C59.21,109.895664 59.2893325,109.392836 59.448,108.9425 C59.6066675,108.492164 59.8329985,108.108335 60.127,107.791 C60.4210015,107.473665 60.7768312,107.228668 61.1945,107.056 C61.6121688,106.883332 62.0799974,106.797 62.598,106.797 Z M62.598,113.125 C63.2980035,113.125 63.8206649,112.890502 64.166,112.4215 C64.5113351,111.952498 64.684,111.298004 64.684,110.458 C64.684,109.613329 64.5113351,108.955336 64.166,108.484 C63.8206649,108.012664 63.2980035,107.777 62.598,107.777 C62.2433316,107.777 61.9353346,107.837666 61.674,107.959 C61.4126654,108.080334 61.1945009,108.255332 61.0195,108.484 C60.8444991,108.712668 60.7138338,108.993832 60.6275,109.3275 C60.5411662,109.661168 60.498,110.037998 60.498,110.458 C60.498,110.878002 60.5411662,111.253665 60.6275,111.585 C60.7138338,111.916335 60.8444991,112.195166 61.0195,112.4215 C61.1945009,112.647834 61.4126654,112.821666 61.674,112.943 C61.9353346,113.064334 62.2433316,113.125 62.598,113.125 Z M67.512,114 L67.512,106.909 L68.254,106.909 C68.4313342,106.909 68.5433331,106.995332 68.59,107.168 L68.688,107.938 C68.9960015,107.597332 69.3401648,107.322001 69.7205,107.112 C70.1008352,106.901999 70.5406642,106.797 71.04,106.797 C71.4273353,106.797 71.7691652,106.861166 72.0655,106.9895 C72.3618348,107.117834 72.6091657,107.299832 72.8075,107.5355 C73.0058343,107.771168 73.1563328,108.054665 73.259,108.386 C73.3616672,108.717335 73.413,109.083665 73.413,109.485 L73.413,114 L72.167,114 L72.167,109.485 C72.167,108.948331 72.0445012,108.531835 71.7995,108.2355 C71.5544988,107.939165 71.1800025,107.791 70.676,107.791 C70.3073315,107.791 69.9631683,107.879666 69.6435,108.057 C69.3238317,108.234334 69.028668,108.474665 68.758,108.778 L68.758,114 L67.512,114 Z M83.297,110.381 L84.816,110.381 L84.816,111.095 C84.816,111.169667 84.7938336,111.232666 84.7495,111.284 C84.7051664,111.335334 84.6363338,111.361 84.543,111.361 L83.297,111.361 L83.297,114 L82.198,114 L82.198,111.361 L77.753,111.361 C77.6596662,111.361 77.579167,111.334167 77.5115,111.2805 C77.443833,111.226833 77.4006668,111.160334 77.382,111.081 L77.256,110.444 L82.135,103.969 L83.297,103.969 L83.297,110.381 Z M82.198,106.244 C82.198,106.122666 82.2015,105.992001 82.2085,105.852 C82.2155,105.711999 82.2306665,105.567334 82.254,105.418 L78.607,110.381 L82.198,110.381 L82.198,106.244 Z" id="Option4" fill="#191919" fill-rule="nonzero"></path>
                    <g id="radio-button-off" transform="translate(0.000000, 99.000000)" stroke="#696969" stroke-width="2.5">
                        <circle id="Oval" cx="10" cy="10" r="8"></circle>
                    </g>
                    <g id="radio-button-on">
                        <g id="Radio-Button---Selected" transform="translate(2.000000, 2.000000)">
                            <g id="Group-3">
                                <circle id="Oval" stroke="#696969" stroke-width="2.5" cx="8" cy="8" r="8"></circle>
                                <circle id="Oval-2" fill="#008BAA" cx="8" cy="8" r="4"></circle>
                            </g>
                        </g>
                    </g>
                </g>
                <path d="M135.968,31.045 L135.968,35 L134.085,35 L134.085,24.878 L137.172,24.878 C137.86267,24.878 138.454164,24.949166 138.9465,25.0915 C139.438836,25.233834 139.842498,25.4333321 140.1575,25.69 C140.472502,25.9466679 140.703499,26.2534982 140.8505,26.6105 C140.997501,26.9675018 141.071,27.3606645 141.071,27.79 C141.071,28.1306684 141.020834,28.4526652 140.9205,28.756 C140.820166,29.0593348 140.675501,29.3346654 140.4865,29.582 C140.297499,29.8293346 140.064168,30.0463324 139.7865,30.233 C139.508832,30.4196676 139.192668,30.5689994 138.838,30.681 C139.076001,30.816334 139.281332,31.0099987 139.454,31.262 L141.988,35 L140.294,35 C140.130666,35 139.991834,34.9673337 139.8775,34.902 C139.763166,34.8366663 139.666334,34.7433339 139.587,34.622 L137.459,31.381 C137.379666,31.2596661 137.292167,31.1733336 137.1965,31.122 C137.100833,31.0706664 136.959668,31.045 136.773,31.045 L135.968,31.045 Z M135.968,29.694 L137.144,29.694 C137.498668,29.694 137.807832,29.6496671 138.0715,29.561 C138.335168,29.4723329 138.552166,29.3498341 138.7225,29.1935 C138.892834,29.0371659 139.02,28.8516677 139.104,28.637 C139.188,28.4223323 139.23,28.186668 139.23,27.93 C139.23,27.4166641 139.060835,27.0223347 138.7225,26.747 C138.384165,26.4716653 137.867337,26.334 137.172,26.334 L135.968,26.334 L135.968,29.694 Z M148.722,35 L147.945,35 C147.781666,35 147.653334,34.9755002 147.56,34.9265 C147.466666,34.8774998 147.396667,34.7783341 147.35,34.629 L147.196,34.118 C147.013999,34.2813341 146.835501,34.4248327 146.6605,34.5485 C146.485499,34.6721673 146.304668,34.7759996 146.118,34.86 C145.931332,34.9440004 145.733001,35.0069998 145.523,35.049 C145.312999,35.0910002 145.079668,35.112 144.823,35.112 C144.519665,35.112 144.239668,35.0711671 143.983,34.9895 C143.726332,34.9078329 143.505834,34.7853341 143.3215,34.622 C143.137166,34.4586659 142.993667,34.2556679 142.891,34.013 C142.788333,33.7703321 142.737,33.4880016 142.737,33.166 C142.737,32.895332 142.808166,32.628168 142.9505,32.3645 C143.092834,32.100832 143.329665,31.8628344 143.661,31.6505 C143.992335,31.4381656 144.433331,31.2620007 144.984,31.122 C145.534669,30.9819993 146.218329,30.9026668 147.035,30.884 L147.035,30.464 C147.035,29.9833309 146.933501,29.6275012 146.7305,29.3965 C146.527499,29.1654988 146.232335,29.05 145.845,29.05 C145.564999,29.05 145.331668,29.0826663 145.145,29.148 C144.958332,29.2133337 144.796167,29.2868329 144.6585,29.3685 C144.520833,29.4501671 144.393667,29.5236663 144.277,29.589 C144.160333,29.6543337 144.032001,29.687 143.892,29.687 C143.775333,29.687 143.675,29.656667 143.591,29.596 C143.507,29.535333 143.439334,29.4606671 143.388,29.372 L143.073,28.819 C143.899004,28.0629962 144.895328,27.685 146.062,27.685 C146.482002,27.685 146.856498,27.7538326 147.1855,27.8915 C147.514502,28.0291674 147.793332,28.2204988 148.022,28.4655 C148.250668,28.7105012 148.424499,29.0033316 148.5435,29.344 C148.662501,29.6846684 148.722,30.057998 148.722,30.464 L148.722,35 Z M145.362,33.922 C145.539334,33.922 145.702666,33.9056668 145.852,33.873 C146.001334,33.8403332 146.142499,33.7913337 146.2755,33.726 C146.408501,33.6606663 146.536833,33.5801671 146.6605,33.4845 C146.784167,33.3888329 146.908999,33.2756673 147.035,33.145 L147.035,31.934 C146.530997,31.9573335 146.109835,32.0004997 145.7715,32.0635 C145.433165,32.1265003 145.161334,32.2069995 144.956,32.305 C144.750666,32.4030005 144.604834,32.5173327 144.5185,32.648 C144.432166,32.7786673 144.389,32.9209992 144.389,33.075 C144.389,33.3783349 144.478832,33.5953327 144.6585,33.726 C144.838168,33.8566673 145.072665,33.922 145.362,33.922 Z M155.477,35 C155.252999,35 155.106,34.895001 155.036,34.685 L154.896,33.992 C154.746666,34.1600008 154.590334,34.311666 154.427,34.447 C154.263666,34.582334 154.087501,34.6989995 153.8985,34.797 C153.709499,34.8950005 153.506501,34.9708331 153.2895,35.0245 C153.072499,35.0781669 152.838001,35.105 152.586,35.105 C152.193998,35.105 151.834668,35.0233341 151.508,34.86 C151.181332,34.6966659 150.900168,34.4598349 150.6645,34.1495 C150.428832,33.8391651 150.246834,33.4553356 150.1185,32.998 C149.990166,32.5406644 149.926,32.0180029 149.926,31.43 C149.926,30.8979973 149.998333,30.4033356 150.143,29.946 C150.287667,29.4886644 150.495332,29.0920017 150.766,28.756 C151.036668,28.4199983 151.360998,28.1575009 151.739,27.9685 C152.117002,27.7794991 152.541664,27.685 153.013,27.685 C153.414335,27.685 153.757332,27.749166 154.042,27.8775 C154.326668,28.005834 154.580999,28.1773323 154.805,28.392 L154.805,24.598 L156.534,24.598 L156.534,35 L155.477,35 Z M153.174,33.733 C153.533335,33.733 153.838999,33.6583341 154.091,33.509 C154.343001,33.3596659 154.580999,33.1473347 154.805,32.872 L154.805,29.652 C154.608999,29.4139988 154.395501,29.2460005 154.1645,29.148 C153.933499,29.0499995 153.685001,29.001 153.419,29.001 C153.157665,29.001 152.920834,29.0499995 152.7085,29.148 C152.496166,29.2460005 152.316501,29.3941657 152.1695,29.5925 C152.022499,29.7908343 151.909334,30.0428318 151.83,30.3485 C151.750666,30.6541682 151.711,31.0146646 151.711,31.43 C151.711,31.8500021 151.744833,32.2058319 151.8125,32.4975 C151.880167,32.7891681 151.976999,33.0271657 152.103,33.2115 C152.229001,33.3958343 152.382999,33.5288329 152.565,33.6105 C152.747001,33.6921671 152.949999,33.733 153.174,33.733 Z M160.244,27.818 L160.244,35 L158.515,35 L158.515,27.818 L160.244,27.818 Z M160.503,25.725 C160.503,25.8743341 160.472667,26.0143327 160.412,26.145 C160.351333,26.2756673 160.270834,26.3899995 160.1705,26.488 C160.070166,26.5860005 159.952334,26.6641664 159.817,26.7225 C159.681666,26.7808336 159.537001,26.81 159.383,26.81 C159.233666,26.81 159.092501,26.7808336 158.9595,26.7225 C158.826499,26.6641664 158.711,26.5860005 158.613,26.488 C158.515,26.3899995 158.436834,26.2756673 158.3785,26.145 C158.320166,26.0143327 158.291,25.8743341 158.291,25.725 C158.291,25.5709992 158.320166,25.426334 158.3785,25.291 C158.436834,25.155666 158.515,25.0390005 158.613,24.941 C158.711,24.8429995 158.826499,24.7648336 158.9595,24.7065 C159.092501,24.6481664 159.233666,24.619 159.383,24.619 C159.537001,24.619 159.681666,24.6481664 159.817,24.7065 C159.952334,24.7648336 160.070166,24.8429995 160.1705,24.941 C160.270834,25.0390005 160.351333,25.155666 160.412,25.291 C160.472667,25.426334 160.503,25.5709992 160.503,25.725 Z M165.263,27.706 C165.799669,27.706 166.286164,27.7923325 166.7225,27.965 C167.158836,28.1376675 167.530998,28.3826651 167.839,28.7 C168.147002,29.0173349 168.384999,29.4046644 168.553,29.862 C168.721001,30.3193356 168.805,30.8303305 168.805,31.395 C168.805,31.9643362 168.721001,32.4776644 168.553,32.935 C168.384999,33.3923356 168.147002,33.7819984 167.839,34.104 C167.530998,34.4260016 167.158836,34.6733325 166.7225,34.846 C166.286164,35.0186675 165.799669,35.105 165.263,35.105 C164.726331,35.105 164.238669,35.0186675 163.8,34.846 C163.361331,34.6733325 162.986835,34.4260016 162.6765,34.104 C162.366165,33.7819984 162.125834,33.3923356 161.9555,32.935 C161.785166,32.4776644 161.7,31.9643362 161.7,31.395 C161.7,30.8303305 161.785166,30.3193356 161.9555,29.862 C162.125834,29.4046644 162.366165,29.0173349 162.6765,28.7 C162.986835,28.3826651 163.361331,28.1376675 163.8,27.965 C164.238669,27.7923325 164.726331,27.706 165.263,27.706 Z M165.263,33.775 C165.860336,33.775 166.302499,33.5743353 166.5895,33.173 C166.876501,32.7716647 167.02,32.1836705 167.02,31.409 C167.02,30.6343295 166.876501,30.044002 166.5895,29.638 C166.302499,29.231998 165.860336,29.029 165.263,29.029 C164.65633,29.029 164.208335,29.2331646 163.919,29.6415 C163.629665,30.0498354 163.485,30.6389962 163.485,31.409 C163.485,32.1790039 163.629665,32.7658313 163.919,33.1695 C164.208335,33.5731687 164.65633,33.775 165.263,33.775 Z M172.956,35 L172.956,24.878 L176.449,24.878 C177.11167,24.878 177.677498,24.9409994 178.1465,25.067 C178.615502,25.1930006 179.000498,25.3726655 179.3015,25.606 C179.602502,25.8393345 179.822999,26.121665 179.963,26.453 C180.103001,26.784335 180.173,27.1576646 180.173,27.573 C180.173,27.8110012 180.138,28.0384989 180.068,28.2555 C179.998,28.4725011 179.889501,28.6754991 179.7425,28.8645 C179.595499,29.0535009 179.408834,29.2249992 179.1825,29.379 C178.956166,29.5330008 178.686668,29.6636661 178.374,29.771 C179.764674,30.0836682 180.46,30.834994 180.46,32.025 C180.46,32.4543355 180.378334,32.8509982 180.215,33.215 C180.051666,33.5790018 179.813668,33.892832 179.501,34.1565 C179.188332,34.420168 178.803336,34.6266659 178.346,34.776 C177.888664,34.9253341 177.366003,35 176.778,35 L172.956,35 Z M174.839,30.562 L174.839,33.53 L176.75,33.53 C177.100002,33.53 177.392832,33.4880004 177.6285,33.404 C177.864168,33.3199996 178.053166,33.2080007 178.1955,33.068 C178.337834,32.9279993 178.4405,32.7646676 178.5035,32.578 C178.5665,32.3913324 178.598,32.193001 178.598,31.983 C178.598,31.7636656 178.563,31.5665009 178.493,31.3915 C178.423,31.2164991 178.313334,31.0671673 178.164,30.9435 C178.014666,30.8198327 177.823334,30.7253337 177.59,30.66 C177.356665,30.5946663 177.074335,30.562 176.743,30.562 L174.839,30.562 Z M174.839,29.26 L176.344,29.26 C176.983337,29.26 177.468665,29.1433345 177.8,28.91 C178.131335,28.6766655 178.297,28.3056692 178.297,27.797 C178.297,27.269664 178.147668,26.8940011 177.849,26.67 C177.550332,26.4459989 177.08367,26.334 176.449,26.334 L174.839,26.334 L174.839,29.26 Z M183.561,27.818 L183.561,32.382 C183.561,32.8206689 183.662499,33.1601655 183.8655,33.4005 C184.068501,33.6408345 184.372998,33.761 184.779,33.761 C185.077668,33.761 185.357665,33.6945007 185.619,33.5615 C185.880335,33.4284993 186.127666,33.2453345 186.361,33.012 L186.361,27.818 L188.09,27.818 L188.09,35 L187.033,35 C186.808999,35 186.662,34.895001 186.592,34.685 L186.473,34.111 C186.323666,34.2603341 186.169667,34.3968327 186.011,34.5205 C185.852333,34.6441673 185.683168,34.7491662 185.5035,34.8355 C185.323832,34.9218338 185.130168,34.9894998 184.9225,35.0385 C184.714832,35.0875002 184.492001,35.112 184.254,35.112 C183.861998,35.112 183.515502,35.0455007 183.2145,34.9125 C182.913498,34.7794993 182.660334,34.5916679 182.455,34.349 C182.249666,34.1063321 182.094501,33.8181683 181.9895,33.4845 C181.884499,33.1508317 181.832,32.7833353 181.832,32.382 L181.832,27.818 L183.561,27.818 Z M192.297,35.112 C191.67633,35.112 191.198002,34.9358351 190.862,34.5835 C190.525998,34.2311649 190.358,33.7446698 190.358,33.124 L190.358,29.113 L189.63,29.113 C189.536666,29.113 189.456167,29.082667 189.3885,29.022 C189.320833,28.961333 189.287,28.8703339 189.287,28.749 L189.287,28.063 L190.442,27.874 L190.806,25.914 C190.824667,25.8206662 190.867833,25.7483336 190.9355,25.697 C191.003167,25.6456664 191.088333,25.62 191.191,25.62 L192.087,25.62 L192.087,27.881 L193.977,27.881 L193.977,29.113 L192.087,29.113 L192.087,33.005 C192.087,33.2290011 192.142999,33.4039994 192.255,33.53 C192.367001,33.6560006 192.516332,33.719 192.703,33.719 C192.810334,33.719 192.900166,33.7061668 192.9725,33.6805 C193.044834,33.6548332 193.107833,33.6280001 193.1615,33.6 C193.215167,33.5719999 193.263,33.5451668 193.305,33.5195 C193.347,33.4938332 193.389,33.481 193.431,33.481 C193.482334,33.481 193.524333,33.4938332 193.557,33.5195 C193.589667,33.5451668 193.624666,33.5836664 193.662,33.635 L194.18,34.475 C193.927999,34.685001 193.638668,34.8436661 193.312,34.951 C192.985332,35.0583339 192.647002,35.112 192.297,35.112 Z M197.715,35.112 C197.09433,35.112 196.616002,34.9358351 196.28,34.5835 C195.943998,34.2311649 195.776,33.7446698 195.776,33.124 L195.776,29.113 L195.048,29.113 C194.954666,29.113 194.874167,29.082667 194.8065,29.022 C194.738833,28.961333 194.705,28.8703339 194.705,28.749 L194.705,28.063 L195.86,27.874 L196.224,25.914 C196.242667,25.8206662 196.285833,25.7483336 196.3535,25.697 C196.421167,25.6456664 196.506333,25.62 196.609,25.62 L197.505,25.62 L197.505,27.881 L199.395,27.881 L199.395,29.113 L197.505,29.113 L197.505,33.005 C197.505,33.2290011 197.560999,33.4039994 197.673,33.53 C197.785001,33.6560006 197.934332,33.719 198.121,33.719 C198.228334,33.719 198.318166,33.7061668 198.3905,33.6805 C198.462834,33.6548332 198.525833,33.6280001 198.5795,33.6 C198.633167,33.5719999 198.681,33.5451668 198.723,33.5195 C198.765,33.4938332 198.807,33.481 198.849,33.481 C198.900334,33.481 198.942333,33.4938332 198.975,33.5195 C199.007667,33.5451668 199.042666,33.5836664 199.08,33.635 L199.598,34.475 C199.345999,34.685001 199.056668,34.8436661 198.73,34.951 C198.403332,35.0583339 198.065002,35.112 197.715,35.112 Z M203.84,27.706 C204.376669,27.706 204.863164,27.7923325 205.2995,27.965 C205.735836,28.1376675 206.107998,28.3826651 206.416,28.7 C206.724002,29.0173349 206.961999,29.4046644 207.13,29.862 C207.298001,30.3193356 207.382,30.8303305 207.382,31.395 C207.382,31.9643362 207.298001,32.4776644 207.13,32.935 C206.961999,33.3923356 206.724002,33.7819984 206.416,34.104 C206.107998,34.4260016 205.735836,34.6733325 205.2995,34.846 C204.863164,35.0186675 204.376669,35.105 203.84,35.105 C203.303331,35.105 202.815669,35.0186675 202.377,34.846 C201.938331,34.6733325 201.563835,34.4260016 201.2535,34.104 C200.943165,33.7819984 200.702834,33.3923356 200.5325,32.935 C200.362166,32.4776644 200.277,31.9643362 200.277,31.395 C200.277,30.8303305 200.362166,30.3193356 200.5325,29.862 C200.702834,29.4046644 200.943165,29.0173349 201.2535,28.7 C201.563835,28.3826651 201.938331,28.1376675 202.377,27.965 C202.815669,27.7923325 203.303331,27.706 203.84,27.706 Z M203.84,33.775 C204.437336,33.775 204.879499,33.5743353 205.1665,33.173 C205.453501,32.7716647 205.597,32.1836705 205.597,31.409 C205.597,30.6343295 205.453501,30.044002 205.1665,29.638 C204.879499,29.231998 204.437336,29.029 203.84,29.029 C203.23333,29.029 202.785335,29.2331646 202.496,29.6415 C202.206665,30.0498354 202.062,30.6389962 202.062,31.409 C202.062,32.1790039 202.206665,32.7658313 202.496,33.1695 C202.785335,33.5731687 203.23333,33.775 203.84,33.775 Z M208.733,35 L208.733,27.818 L209.79,27.818 C210.014001,27.818 210.161,27.922999 210.231,28.133 L210.35,28.7 C210.494667,28.5506659 210.647499,28.4153339 210.8085,28.294 C210.969501,28.1726661 211.139832,28.0676671 211.3195,27.979 C211.499168,27.8903329 211.691666,27.8226669 211.897,27.776 C212.102334,27.7293331 212.326332,27.706 212.569,27.706 C212.961002,27.706 213.308665,27.7724993 213.612,27.9055 C213.915335,28.0385007 214.168499,28.2251655 214.3715,28.4655 C214.574501,28.7058345 214.728499,28.9928317 214.8335,29.3265 C214.938501,29.6601683 214.991,30.0276647 214.991,30.429 L214.991,35 L213.262,35 L213.262,30.429 C213.262,29.9903311 213.160501,29.6508345 212.9575,29.4105 C212.754499,29.1701655 212.450002,29.05 212.044,29.05 C211.745332,29.05 211.465335,29.117666 211.204,29.253 C210.942665,29.388334 210.695335,29.5726655 210.462,29.806 L210.462,35 L208.733,35 Z M220.955,29.218 C220.908333,29.292667 220.859334,29.3451665 220.808,29.3755 C220.756666,29.4058335 220.691334,29.421 220.612,29.421 C220.528,29.421 220.438167,29.3976669 220.3425,29.351 C220.246833,29.3043331 220.136001,29.2518336 220.01,29.1935 C219.883999,29.1351664 219.740501,29.0826669 219.5795,29.036 C219.418499,28.9893331 219.228334,28.966 219.009,28.966 C218.668332,28.966 218.400001,29.0383326 218.204,29.183 C218.007999,29.3276674 217.91,29.5166655 217.91,29.75 C217.91,29.9040008 217.960166,30.0334995 218.0605,30.1385 C218.160834,30.2435005 218.293833,30.3356663 218.4595,30.415 C218.625167,30.4943337 218.812999,30.5654997 219.023,30.6285 C219.233001,30.6915003 219.447666,30.760333 219.667,30.835 C219.886334,30.909667 220.100999,30.9948329 220.311,31.0905 C220.521001,31.1861671 220.708833,31.3074993 220.8745,31.4545 C221.040167,31.6015007 221.173166,31.7776656 221.2735,31.983 C221.373834,32.1883344 221.424,32.4356652 221.424,32.725 C221.424,33.0703351 221.361001,33.3888319 221.235,33.6805 C221.108999,33.9721681 220.924668,34.2241656 220.682,34.4365 C220.439332,34.6488344 220.139502,34.8144994 219.7825,34.9335 C219.425498,35.0525006 219.016002,35.112 218.554,35.112 C218.306665,35.112 218.065168,35.0898336 217.8295,35.0455 C217.593832,35.0011664 217.367501,34.9393337 217.1505,34.86 C216.933499,34.7806663 216.732834,34.6873339 216.5485,34.58 C216.364166,34.4726661 216.202001,34.3560006 216.062,34.23 L216.461,33.572 C216.512334,33.4926663 216.573,33.4320002 216.643,33.39 C216.713,33.3479998 216.801666,33.327 216.909,33.327 C217.016334,33.327 217.117833,33.357333 217.2135,33.418 C217.309167,33.478667 217.419999,33.5439997 217.546,33.614 C217.672001,33.6840004 217.820166,33.749333 217.9905,33.81 C218.160834,33.870667 218.376665,33.901 218.638,33.901 C218.843334,33.901 219.019499,33.8765002 219.1665,33.8275 C219.313501,33.7784998 219.434833,33.7143337 219.5305,33.635 C219.626167,33.5556663 219.696166,33.4635005 219.7405,33.3585 C219.784834,33.2534995 219.807,33.1450006 219.807,33.033 C219.807,32.8649992 219.756834,32.7273339 219.6565,32.62 C219.556166,32.5126661 219.423167,32.4193337 219.2575,32.34 C219.091833,32.2606663 218.902834,32.1895003 218.6905,32.1265 C218.478166,32.0634997 218.261168,31.994667 218.0395,31.92 C217.817832,31.845333 217.600834,31.7578338 217.3885,31.6575 C217.176166,31.5571662 216.987167,31.4300008 216.8215,31.276 C216.655833,31.1219992 216.522834,30.9330011 216.4225,30.709 C216.322166,30.4849989 216.272,30.2143349 216.272,29.897 C216.272,29.6029985 216.330333,29.3230013 216.447,29.057 C216.563667,28.7909987 216.735166,28.5588343 216.9615,28.3605 C217.187834,28.1621657 217.470165,28.0035006 217.8085,27.8845 C218.146835,27.7654994 218.537664,27.706 218.981,27.706 C219.475669,27.706 219.925998,27.7876658 220.332,27.951 C220.738002,28.1143341 221.076332,28.3289987 221.347,28.595 L220.955,29.218 Z M232.743,24.878 L232.743,26.425 L229.698,26.425 L229.698,35 L227.815,35 L227.815,26.425 L224.756,26.425 L224.756,24.878 L232.743,24.878 Z M235.683,27.818 L235.683,35 L233.954,35 L233.954,27.818 L235.683,27.818 Z M235.942,25.725 C235.942,25.8743341 235.911667,26.0143327 235.851,26.145 C235.790333,26.2756673 235.709834,26.3899995 235.6095,26.488 C235.509166,26.5860005 235.391334,26.6641664 235.256,26.7225 C235.120666,26.7808336 234.976001,26.81 234.822,26.81 C234.672666,26.81 234.531501,26.7808336 234.3985,26.7225 C234.265499,26.6641664 234.15,26.5860005 234.052,26.488 C233.954,26.3899995 233.875834,26.2756673 233.8175,26.145 C233.759166,26.0143327 233.73,25.8743341 233.73,25.725 C233.73,25.5709992 233.759166,25.426334 233.8175,25.291 C233.875834,25.155666 233.954,25.0390005 234.052,24.941 C234.15,24.8429995 234.265499,24.7648336 234.3985,24.7065 C234.531501,24.6481664 234.672666,24.619 234.822,24.619 C234.976001,24.619 235.120666,24.6481664 235.256,24.7065 C235.391334,24.7648336 235.509166,24.8429995 235.6095,24.941 C235.709834,25.0390005 235.790333,25.155666 235.851,25.291 C235.911667,25.426334 235.942,25.5709992 235.942,25.725 Z M239.995,35.112 C239.37433,35.112 238.896002,34.9358351 238.56,34.5835 C238.223998,34.2311649 238.056,33.7446698 238.056,33.124 L238.056,29.113 L237.328,29.113 C237.234666,29.113 237.154167,29.082667 237.0865,29.022 C237.018833,28.961333 236.985,28.8703339 236.985,28.749 L236.985,28.063 L238.14,27.874 L238.504,25.914 C238.522667,25.8206662 238.565833,25.7483336 238.6335,25.697 C238.701167,25.6456664 238.786333,25.62 238.889,25.62 L239.785,25.62 L239.785,27.881 L241.675,27.881 L241.675,29.113 L239.785,29.113 L239.785,33.005 C239.785,33.2290011 239.840999,33.4039994 239.953,33.53 C240.065001,33.6560006 240.214332,33.719 240.401,33.719 C240.508334,33.719 240.598166,33.7061668 240.6705,33.6805 C240.742834,33.6548332 240.805833,33.6280001 240.8595,33.6 C240.913167,33.5719999 240.961,33.5451668 241.003,33.5195 C241.045,33.4938332 241.087,33.481 241.129,33.481 C241.180334,33.481 241.222333,33.4938332 241.255,33.5195 C241.287667,33.5451668 241.322666,33.5836664 241.36,33.635 L241.878,34.475 C241.625999,34.685001 241.336668,34.8436661 241.01,34.951 C240.683332,35.0583339 240.345002,35.112 239.995,35.112 Z M244.895,24.598 L244.895,35 L243.166,35 L243.166,24.598 L244.895,24.598 Z M249.816,27.706 C250.268669,27.706 250.685165,27.7783326 251.0655,27.923 C251.445835,28.0676674 251.773665,28.2788319 252.049,28.5565 C252.324335,28.8341681 252.538999,29.1748313 252.693,29.5785 C252.847001,29.9821687 252.924,30.4429974 252.924,30.961 C252.924,31.0916673 252.918167,31.2001662 252.9065,31.2865 C252.894833,31.3728338 252.873833,31.4404998 252.8435,31.4895 C252.813167,31.5385002 252.772334,31.5734999 252.721,31.5945 C252.669666,31.6155001 252.604334,31.626 252.525,31.626 L248.087,31.626 C248.138334,32.363337 248.336665,32.9046649 248.682,33.25 C249.027335,33.5953351 249.484664,33.768 250.054,33.768 C250.334001,33.768 250.575499,33.7353337 250.7785,33.67 C250.981501,33.6046663 251.158833,33.5323337 251.3105,33.453 C251.462167,33.3736663 251.595166,33.3013337 251.7095,33.236 C251.823834,33.1706663 251.934666,33.138 252.042,33.138 C252.112,33.138 252.172666,33.1519999 252.224,33.18 C252.275334,33.2080001 252.319666,33.2476664 252.357,33.299 L252.861,33.929 C252.669666,34.1530011 252.455001,34.3408326 252.217,34.4925 C251.978999,34.6441674 251.730501,34.7654995 251.4715,34.8565 C251.212499,34.9475005 250.948835,35.0116665 250.6805,35.049 C250.412165,35.0863335 250.152001,35.105 249.9,35.105 C249.400664,35.105 248.936335,35.0221675 248.507,34.8565 C248.077665,34.6908325 247.704335,34.445835 247.387,34.1215 C247.069665,33.797165 246.820001,33.3958357 246.638,32.9175 C246.455999,32.4391643 246.365,31.8850031 246.365,31.255 C246.365,30.7649976 246.444333,30.3041688 246.603,29.8725 C246.761667,29.4408312 246.989165,29.0651683 247.2855,28.7455 C247.581835,28.4258317 247.943498,28.1726676 248.3705,27.986 C248.797502,27.7993324 249.279331,27.706 249.816,27.706 Z M249.851,28.945 C249.346997,28.945 248.952668,29.0873319 248.668,29.372 C248.383332,29.6566681 248.201334,30.0603307 248.122,30.583 L251.37,30.583 C251.37,30.3589989 251.339667,30.1478343 251.279,29.9495 C251.218333,29.7511657 251.125001,29.5773341 250.999,29.428 C250.872999,29.2786659 250.714334,29.1608338 250.523,29.0745 C250.331666,28.9881662 250.107668,28.945 249.851,28.945 Z" id="RadioButtonsTitle" fill="#191919" fill-rule="nonzero"></path>
            </g>
        </g>
    </g>
</svg>