<?xml version="1.0" encoding="UTF-8"?>
<svg width="214px" height="103px" viewBox="0 0 214 103" version="1.1" xmlns="http://www.w3.org/2000/svg" xmlns:xlink="http://www.w3.org/1999/xlink">
    <!-- Generator: Sketch 57.1 (83088) - https://sketch.com -->
    <title>Group 14</title>
    <desc>Created with Sketch.</desc>
    <g id="Page-1" stroke="none" stroke-width="1" fill="none" fill-rule="evenodd">
        <g id="Artboard" transform="translate(-519.000000, -157.000000)">
            <g id="Group-14" transform="translate(519.000000, 157.000000)">
                <g id="Group-13">
                    <rect id="Rectangle" fill="#DF2F1E" x="1.42108547e-14" y="0" width="69.4419355" height="103"></rect>
                    <rect id="Rectangle" fill="#FFFFFF" x="18.2741935" y="27.5774194" width="42.1967742" height="1.99354839"></rect>
                    <rect id="Rectangle" fill="#FFFFFF" x="18.2741935" y="39.2064516" width="42.1967742" height="1.99354839"></rect>
                    <rect id="Rectangle" fill="#FFFFFF" x="18.2741935" y="50.5032258" width="42.1967742" height="1.99354839"></rect>
                    <rect id="Rectangle" fill="#FFFFFF" x="18.2741935" y="61.8" width="42.1967742" height="1.99354839"></rect>
                    <rect id="Rectangle" fill="#FFFFFF" x="18.2741935" y="73.0967742" width="42.1967742" height="1.99354839"></rect>
                    <path d="M11.7471685,39.6420789 L11.3336918,40.0555556 L12.662724,41.3845878 L15.616129,38.4311828 L15.2026523,38.0177061 L12.662724,40.5576344 L11.7471685,39.6420789 L11.7471685,39.6420789 Z M15.025448,42.2706093 L10.890681,42.2706093 L10.890681,38.1358423 L13.844086,38.1358423 L13.844086,37.5451613 L10.890681,37.5451613 C10.5658065,37.5451613 10.3,37.8109677 10.3,38.1358423 L10.3,42.2706093 C10.3,42.5954839 10.5658065,42.8612903 10.890681,42.8612903 L15.025448,42.8612903 C15.3503226,42.8612903 15.616129,42.5954839 15.616129,42.2706093 L15.616129,39.9078853 L15.025448,39.9078853 L15.025448,42.2706093 L15.025448,42.2706093 Z" id="Shape" fill="#FFFFFF"></path>
                    <path d="M11.7471685,50.606595 L11.3336918,51.0200717 L12.662724,52.3491039 L15.616129,49.3956989 L15.2026523,48.9822222 L12.662724,51.5221505 L11.7471685,50.606595 L11.7471685,50.606595 Z M15.025448,53.2351254 L10.890681,53.2351254 L10.890681,49.1003584 L13.844086,49.1003584 L13.844086,48.5096774 L10.890681,48.5096774 C10.5658065,48.5096774 10.3,48.7754839 10.3,49.1003584 L10.3,53.2351254 C10.3,53.56 10.5658065,53.8258065 10.890681,53.8258065 L15.025448,53.8258065 C15.3503226,53.8258065 15.616129,53.56 15.616129,53.2351254 L15.616129,50.8724014 L15.025448,50.8724014 L15.025448,53.2351254 L15.025448,53.2351254 Z" id="Shape" fill="#FFFFFF"></path>
                    <path d="M11.7471685,62.2356272 L11.3336918,62.6491039 L12.662724,63.9781362 L15.616129,61.0247312 L15.2026523,60.6112545 L12.662724,63.1511828 L11.7471685,62.2356272 L11.7471685,62.2356272 Z M15.025448,64.8641577 L10.890681,64.8641577 L10.890681,60.7293907 L13.844086,60.7293907 L13.844086,60.1387097 L10.890681,60.1387097 C10.5658065,60.1387097 10.3,60.4045161 10.3,60.7293907 L10.3,64.8641577 C10.3,65.1890323 10.5658065,65.4548387 10.890681,65.4548387 L15.025448,65.4548387 C15.3503226,65.4548387 15.616129,65.1890323 15.616129,64.8641577 L15.616129,62.5014337 L15.025448,62.5014337 L15.025448,64.8641577 L15.025448,64.8641577 Z" id="Shape" fill="#FFFFFF"></path>
                    <g id="check-box-outline-blank" transform="translate(10.300000, 25.916129)" fill="#FFFFFF">
                        <g id="Shape">
                            <path d="M4.72544803,0.590681004 L4.72544803,4.72544803 L0.590681004,4.72544803 L0.590681004,0.590681004 L4.72544803,0.590681004 L4.72544803,0.590681004 Z M4.72544803,0 L0.590681004,0 C0.265806452,0 0,0.265806452 0,0.590681004 L0,4.72544803 C0,5.05032258 0.265806452,5.31612903 0.590681004,5.31612903 L4.72544803,5.31612903 C5.05032258,5.31612903 5.31612903,5.05032258 5.31612903,4.72544803 L5.31612903,0.590681004 C5.31612903,0.265806452 5.05032258,0 4.72544803,0 L4.72544803,0 L4.72544803,0 Z"></path>
                        </g>
                    </g>
                    <g id="check-box-outline-blank" transform="translate(10.300000, 71.435484)" fill="#FFFFFF">
                        <g id="Shape">
                            <path d="M4.72544803,0.590681004 L4.72544803,4.72544803 L0.590681004,4.72544803 L0.590681004,0.590681004 L4.72544803,0.590681004 L4.72544803,0.590681004 Z M4.72544803,0 L0.590681004,0 C0.265806452,0 0,0.265806452 0,0.590681004 L0,4.72544803 C0,5.05032258 0.265806452,5.31612903 0.590681004,5.31612903 L4.72544803,5.31612903 C5.05032258,5.31612903 5.31612903,5.05032258 5.31612903,4.72544803 L5.31612903,0.590681004 C5.31612903,0.265806452 5.05032258,0 4.72544803,0 L4.72544803,0 L4.72544803,0 Z"></path>
                        </g>
                    </g>
                </g>
                <rect id="Rectangle" fill="#8C140A" x="71.1064516" y="0" width="142" height="103"></rect>
                <rect id="Rectangle" fill="#FFFFFF" x="96.3516129" y="28.2419355" width="42.1967742" height="1.99354839"></rect>
                <rect id="Rectangle" fill="#FFFFFF" x="96.3516129" y="39.5387097" width="42.1967742" height="1.99354839"></rect>
                <rect id="Rectangle" fill="#FFFFFF" x="96.3516129" y="50.8354839" width="42.1967742" height="1.99354839"></rect>
                <rect id="Rectangle" fill="#FFFFFF" x="96.3516129" y="62.1322581" width="42.1967742" height="1.99354839"></rect>
                <rect id="Rectangle" fill="#FFFFFF" x="96.3516129" y="73.4290323" width="42.1967742" height="1.99354839"></rect>
                <g id="Toggle-On" transform="translate(82.396774, 26.248387)" fill="#FFFFFF">
                    <g>
                        <rect id="Rectangle-5" x="0" y="0.186895161" width="11.065538" height="5.60685484" rx="2.80342742"></rect>
                        <ellipse id="Oval" stroke="#8C140A" cx="8.07448953" cy="2.99032258" rx="3.00446122" ry="2.99032258"></ellipse>
                    </g>
                </g>
                <g id="Toggle-On" transform="translate(82.396774, 70.770968)" fill="#FFFFFF">
                    <g>
                        <rect id="Rectangle-5" x="0" y="0.186895161" width="11.065538" height="5.60685484" rx="2.80342742"></rect>
                        <ellipse id="Oval" stroke="#8C140A" cx="8.07448953" cy="2.99032258" rx="3.00446122" ry="2.99032258"></ellipse>
                    </g>
                </g>
                <g id="Toggle-On" transform="translate(82.396774, 37.212903)" fill="#FFFFFF">
                    <g>
                        <rect id="Rectangle-5" x="0.332258065" y="0.186895161" width="11.065538" height="5.60685484" rx="2.80342742"></rect>
                        <ellipse id="Oval" stroke="#8C140A" cx="3.00446122" cy="2.99032258" rx="3.00446122" ry="2.99032258"></ellipse>
                    </g>
                </g>
                <g id="Toggle-On" transform="translate(82.064516, 48.509677)" fill="#FFFFFF">
                    <g>
                        <rect id="Rectangle-5" x="0.332258065" y="0.186895161" width="11.065538" height="5.60685484" rx="2.80342742"></rect>
                        <ellipse id="Oval" stroke="#8C140A" cx="3.00446122" cy="2.99032258" rx="3.00446122" ry="2.99032258"></ellipse>
                    </g>
                </g>
                <g id="Toggle-On" transform="translate(82.396774, 59.806452)" fill="#FFFFFF">
                    <g>
                        <rect id="Rectangle-5" x="0.332258065" y="0.186895161" width="11.065538" height="5.60685484" rx="2.80342742"></rect>
                        <ellipse id="Oval" stroke="#8C140A" cx="3.00446122" cy="2.99032258" rx="3.00446122" ry="2.99032258"></ellipse>
                    </g>
                </g>
                <rect id="Rectangle" fill="#FFFFFF" x="158.151613" y="28.2419355" width="42.1967742" height="1.99354839"></rect>
                <rect id="Rectangle" fill="#FFFFFF" x="158.151613" y="39.5387097" width="42.1967742" height="1.99354839"></rect>
                <rect id="Rectangle" fill="#FFFFFF" x="158.151613" y="50.8354839" width="42.1967742" height="1.99354839"></rect>
                <rect id="Rectangle" fill="#FFFFFF" x="158.151613" y="62.1322581" width="42.1967742" height="1.99354839"></rect>
                <rect id="Rectangle" fill="#FFFFFF" x="158.151613" y="73.4290323" width="42.1967742" height="1.99354839"></rect>
                <g id="Toggle-On" transform="translate(144.196774, 26.248387)" fill="#FFFFFF">
                    <g>
                        <rect id="Rectangle-5" x="0" y="0.186895161" width="11.065538" height="5.60685484" rx="2.80342742"></rect>
                        <ellipse id="Oval" stroke="#8C140A" cx="8.07448953" cy="2.99032258" rx="3.00446122" ry="2.99032258"></ellipse>
                    </g>
                </g>
                <g id="Toggle-On" transform="translate(144.196774, 70.770968)" fill="#FFFFFF">
                    <g>
                        <rect id="Rectangle-5" x="0" y="0.186895161" width="11.065538" height="5.60685484" rx="2.80342742"></rect>
                        <ellipse id="Oval" stroke="#8C140A" cx="8.07448953" cy="2.99032258" rx="3.00446122" ry="2.99032258"></ellipse>
                    </g>
                </g>
                <g id="Toggle-On" transform="translate(144.196774, 37.212903)" fill="#FFFFFF">
                    <g>
                        <rect id="Rectangle-5" x="0.332258065" y="0.186895161" width="11.065538" height="5.60685484" rx="2.80342742"></rect>
                        <ellipse id="Oval" stroke="#8C140A" cx="3.00446122" cy="2.99032258" rx="3.00446122" ry="2.99032258"></ellipse>
                    </g>
                </g>
                <g id="Toggle-On" transform="translate(143.864516, 48.509677)" fill="#FFFFFF">
                    <g>
                        <rect id="Rectangle-5" x="0.332258065" y="0.186895161" width="11.065538" height="5.60685484" rx="2.80342742"></rect>
                        <ellipse id="Oval" stroke="#8C140A" cx="3.00446122" cy="2.99032258" rx="3.00446122" ry="2.99032258"></ellipse>
                    </g>
                </g>
                <g id="Toggle-On" transform="translate(144.196774, 59.806452)" fill="#FFFFFF">
                    <g>
                        <rect id="Rectangle-5" x="0.332258065" y="0.186895161" width="11.065538" height="5.60685484" rx="2.80342742"></rect>
                        <ellipse id="Oval" stroke="#8C140A" cx="3.00446122" cy="2.99032258" rx="3.00446122" ry="2.99032258"></ellipse>
                    </g>
                </g>
            </g>
        </g>
    </g>
</svg>