<?xml version="1.0" encoding="UTF-8"?>
<svg width="386px" height="246px" viewBox="0 0 386 246" version="1.1" xmlns="http://www.w3.org/2000/svg" xmlns:xlink="http://www.w3.org/1999/xlink">
    <!-- Generator: Sketch 57.1 (83088) - https://sketch.com -->
    <title>Group 4</title>
    <desc>Created with Sketch.</desc>
    <g id="Page-1" stroke="none" stroke-width="1" fill="none" fill-rule="evenodd">
        <g id="Desktop-Copy-2" transform="translate(-580.000000, -720.000000)">
            <g id="Group-4" transform="translate(580.000000, 720.000000)">
                <rect id="Rectangle" stroke="#E4E4E4" x="0.5" y="0.5" width="385" height="245"></rect>
                <g id="Group-18" transform="translate(56.000000, 106.000000)">
                    <rect id="Rectangle-18" fill="#E4E4E4" x="0" y="0" width="274" height="35" rx="2"></rect>
                    <path d="M14.76,20.7775 L19.41,20.7775 L19.41,22 L13.305,22 L13.305,11.2525 L14.76,11.2525 L14.76,20.7775 Z M26.065,22 L25.4725,22 C25.3424993,22 25.2375004,21.9800002 25.1575,21.94 C25.0774996,21.8999998 25.0250001,21.8150007 25,21.685 L24.85,20.98 C24.649999,21.1600009 24.4550009,21.3212493 24.265,21.46375 C24.074999,21.6062507 23.8750011,21.7262495 23.665,21.82375 C23.454999,21.9212505 23.2312512,21.9949997 22.99375,22.045 C22.7562488,22.0950002 22.4925014,22.12 22.2025,22.12 C21.9074985,22.12 21.6312513,22.0787504 21.37375,21.99625 C21.1162487,21.9137496 20.8925009,21.7900008 20.7025,21.625 C20.5124991,21.4599992 20.3612506,21.2512513 20.24875,20.99875 C20.1362494,20.7462487 20.08,20.4475017 20.08,20.1025 C20.08,19.8024985 20.1624992,19.5137514 20.3275,19.23625 C20.4925008,18.9587486 20.7587482,18.7125011 21.12625,18.4975 C21.4937518,18.2824989 21.974997,18.1062507 22.57,17.96875 C23.165003,17.8312493 23.8924957,17.7525001 24.7525,17.7325 L24.7525,17.14 C24.7525,16.5499971 24.6262513,16.1037515 24.37375,15.80125 C24.1212487,15.4987485 23.7475025,15.3475 23.2525,15.3475 C22.9274984,15.3475 22.6537511,15.3887496 22.43125,15.47125 C22.2087489,15.5537504 22.0162508,15.6462495 21.85375,15.74875 C21.6912492,15.8512505 21.5512506,15.9437496 21.43375,16.02625 C21.3162494,16.1087504 21.2000006,16.15 21.085,16.15 C20.9949995,16.15 20.9162503,16.1262502 20.84875,16.07875 C20.7812497,16.0312498 20.7275002,15.9725004 20.6875,15.9025 L20.4475,15.475 C20.8675021,15.069998 21.3199976,14.7675 21.805,14.5675 C22.2900024,14.367499 22.827497,14.2675 23.4175,14.2675 C23.8425021,14.2675 24.2199984,14.3374993 24.55,14.4775 C24.8800016,14.6175007 25.1574989,14.8124987 25.3825,15.0625 C25.6075011,15.3125013 25.7774994,15.6149982 25.8925,15.97 C26.0075006,16.3250018 26.065,16.7149979 26.065,17.14 L26.065,22 Z M22.6,21.1825 C22.8350012,21.1825 23.049999,21.1587502 23.245,21.11125 C23.440001,21.0637498 23.6237491,20.9962504 23.79625,20.90875 C23.9687509,20.8212496 24.1337492,20.7150006 24.29125,20.59 C24.4487508,20.4649994 24.6024993,20.3225008 24.7525,20.1625 L24.7525,18.58 C24.1374969,18.6000001 23.6150021,18.6487496 23.185,18.72625 C22.7549978,18.8037504 22.4050013,18.9049994 22.135,19.03 C21.8649987,19.1550006 21.6687506,19.3024991 21.54625,19.4725 C21.4237494,19.6425009 21.3625,19.832499 21.3625,20.0425 C21.3625,20.242501 21.3949997,20.4149993 21.46,20.56 C21.5250003,20.7050007 21.6124995,20.8237495 21.7225,20.91625 C21.8325005,21.0087505 21.9624993,21.0762498 22.1125,21.11875 C22.2625008,21.1612502 22.4249991,21.1825 22.6,21.1825 Z M27.815,22 L27.815,10.9525 L29.1575,10.9525 L29.1575,15.4975 C29.4725016,15.1324982 29.833748,14.8387511 30.24125,14.61625 C30.648752,14.3937489 31.1149974,14.2825 31.64,14.2825 C32.0800022,14.2825 32.4774982,14.3649992 32.8325,14.53 C33.1875018,14.6950008 33.4899987,14.9412484 33.74,15.26875 C33.9900012,15.5962516 34.1824993,16.0012476 34.3175,16.48375 C34.4525007,16.9662524 34.52,17.5224968 34.52,18.1525 C34.52,18.7125028 34.4450007,19.2337476 34.295,19.71625 C34.1449992,20.1987524 33.9287514,20.6162482 33.64625,20.96875 C33.3637486,21.3212518 33.018752,21.598749 32.61125,21.80125 C32.203748,22.003751 31.7450025,22.105 31.235,22.105 C30.7449976,22.105 30.3287517,22.0100009 29.98625,21.82 C29.6437483,21.6299991 29.3450013,21.3650017 29.09,21.025 L29.0225,21.715 C28.9824998,21.905001 28.867501,22 28.6775,22 L27.815,22 Z M31.205,15.3475 C30.7699978,15.3475 30.3887516,15.447499 30.06125,15.6475 C29.7337484,15.8475 29.4325014,16.1299982 29.1575,16.495 L29.1575,20.17 C29.3975012,20.5000017 29.6637485,20.7324993 29.95625,20.8675 C30.2487515,21.0025007 30.5749982,21.07 30.935,21.07 C31.6450035,21.07 32.1899981,20.8175025 32.57,20.3125 C32.9500019,19.8074975 33.14,19.0875047 33.14,18.1525 C33.14,17.6574975 33.0962504,17.2325018 33.00875,16.8775 C32.9212496,16.5224982 32.7950008,16.2312511 32.63,16.00375 C32.4649992,15.7762489 32.2625012,15.6100005 32.0225,15.505 C31.7824988,15.3999995 31.5100015,15.3475 31.205,15.3475 Z M38.8425,14.2825 C39.2975023,14.2825 39.7174981,14.3587492 40.1025,14.51125 C40.4875019,14.6637508 40.8199986,14.8837486 41.1,15.17125 C41.3800014,15.4587514 41.5987492,15.8137479 41.75625,16.23625 C41.9137508,16.6587521 41.9925,17.1399973 41.9925,17.68 C41.9925,17.890001 41.9700002,18.0299997 41.925,18.1 C41.8799998,18.1700003 41.795,18.205 41.67,18.205 L36.615,18.205 C36.625,18.6850024 36.6899994,19.1024982 36.81,19.4575 C36.9300006,19.8125018 37.094999,20.1087488 37.305,20.34625 C37.515001,20.5837512 37.7649986,20.7612494 38.055,20.87875 C38.3450014,20.9962506 38.6699982,21.055 39.03,21.055 C39.3650017,21.055 39.6537488,21.0162504 39.89625,20.93875 C40.1387512,20.8612496 40.3474991,20.7775004 40.5225,20.6875 C40.6975009,20.5974996 40.8437494,20.5137504 40.96125,20.43625 C41.0787506,20.3587496 41.1799996,20.32 41.265,20.32 C41.3750005,20.32 41.4599997,20.3624996 41.52,20.4475 L41.895,20.935 C41.7299992,21.135001 41.5325012,21.3087493 41.3025,21.45625 C41.0724988,21.6037507 40.8262513,21.7249995 40.56375,21.82 C40.3012487,21.9150005 40.0300014,21.9862498 39.75,22.03375 C39.4699986,22.0812502 39.1925014,22.105 38.9175,22.105 C38.3924974,22.105 37.9087522,22.0162509 37.46625,21.83875 C37.0237478,21.6612491 36.6412516,21.4012517 36.31875,21.05875 C35.9962484,20.7162483 35.7450009,20.2925025 35.565,19.7875 C35.3849991,19.2825 35.295,18.7025033 35.295,18.0475 C35.295,17.5174973 35.3762492,17.0225023 35.53875,16.5625 C35.7012508,16.1024977 35.9349985,15.7037517 36.24,15.36625 C36.5450015,15.0287483 36.9174978,14.763751 37.3575,14.57125 C37.7975022,14.378749 38.2924972,14.2825 38.8425,14.2825 Z M38.8725,15.265 C38.2274968,15.265 37.7200019,15.4512481 37.35,15.82375 C36.9799982,16.1962519 36.7500004,16.7124967 36.66,17.3725 L40.7925,17.3725 C40.7925,17.0624984 40.7500004,16.7787513 40.665,16.52125 C40.5799996,16.2637487 40.4550008,16.0412509 40.29,15.85375 C40.1249992,15.6662491 39.9237512,15.5212505 39.68625,15.41875 C39.4487488,15.3162495 39.1775015,15.265 38.8725,15.265 Z M44.86,10.9525 L44.86,22 L43.525,22 L43.525,10.9525 L44.86,10.9525 Z" id="Label" fill="#2C2C2C" fill-rule="nonzero"></path>
                    <g id="arrow-drop-down" transform="translate(257.014045, 17.933594) rotate(-180.000000) translate(-257.014045, -17.933594) translate(252.000000, 14.933594)" fill="#000000">
                        <g transform="translate(0.000000, 0.500000)" id="Shape">
                            <polygon transform="translate(5.000000, 2.500000) scale(1, -1) translate(-5.000000, -2.500000) " points="0 0 5 5 10 0"></polygon>
                        </g>
                    </g>
                </g>
            </g>
        </g>
    </g>
</svg>