<?xml version="1.0" encoding="UTF-8"?>
<svg width="386px" height="199px" viewBox="0 0 386 199" version="1.1" xmlns="http://www.w3.org/2000/svg" xmlns:xlink="http://www.w3.org/1999/xlink">
    <!-- Generator: Sketch 57.1 (83088) - https://sketch.com -->
    <title>Group 10</title>
    <desc>Created with Sketch.</desc>
    <defs>
        <ellipse id="path-1" cx="27.1609043" cy="10" rx="10.106383" ry="10"></ellipse>
        <filter x="-14.8%" y="-15.0%" width="139.6%" height="140.0%" filterUnits="objectBoundingBox" id="filter-2">
            <feMorphology radius="0.5" operator="dilate" in="SourceAlpha" result="shadowSpreadOuter1"></feMorphology>
            <feOffset dx="1" dy="1" in="shadowSpreadOuter1" result="shadowOffsetOuter1"></feOffset>
            <feGaussianBlur stdDeviation="1" in="shadowOffsetOuter1" result="shadowBlurOuter1"></feGaussianBlur>
            <feComposite in="shadowBlurOuter1" in2="SourceAlpha" operator="out" result="shadowBlurOuter1"></feComposite>
            <feColorMatrix values="0 0 0 0 0   0 0 0 0 0   0 0 0 0 0  0 0 0 0.3 0" type="matrix" in="shadowBlurOuter1"></feColorMatrix>
        </filter>
        <ellipse id="path-3" cx="27.1609043" cy="10" rx="10.106383" ry="10"></ellipse>
        <filter x="-14.8%" y="-15.0%" width="139.6%" height="140.0%" filterUnits="objectBoundingBox" id="filter-4">
            <feMorphology radius="0.5" operator="dilate" in="SourceAlpha" result="shadowSpreadOuter1"></feMorphology>
            <feOffset dx="1" dy="1" in="shadowSpreadOuter1" result="shadowOffsetOuter1"></feOffset>
            <feGaussianBlur stdDeviation="1" in="shadowOffsetOuter1" result="shadowBlurOuter1"></feGaussianBlur>
            <feComposite in="shadowBlurOuter1" in2="SourceAlpha" operator="out" result="shadowBlurOuter1"></feComposite>
            <feColorMatrix values="0 0 0 0 0   0 0 0 0 0   0 0 0 0 0  0 0 0 0.3 0" type="matrix" in="shadowBlurOuter1"></feColorMatrix>
        </filter>
        <circle id="path-5" cx="10" cy="10" r="10"></circle>
        <filter x="-15.0%" y="-15.0%" width="140.0%" height="140.0%" filterUnits="objectBoundingBox" id="filter-6">
            <feMorphology radius="0.5" operator="dilate" in="SourceAlpha" result="shadowSpreadOuter1"></feMorphology>
            <feOffset dx="1" dy="1" in="shadowSpreadOuter1" result="shadowOffsetOuter1"></feOffset>
            <feGaussianBlur stdDeviation="1" in="shadowOffsetOuter1" result="shadowBlurOuter1"></feGaussianBlur>
            <feComposite in="shadowBlurOuter1" in2="SourceAlpha" operator="out" result="shadowBlurOuter1"></feComposite>
            <feColorMatrix values="0 0 0 0 0   0 0 0 0 0   0 0 0 0 0  0 0 0 0.3 0" type="matrix" in="shadowBlurOuter1"></feColorMatrix>
        </filter>
        <circle id="path-7" cx="10" cy="10" r="10"></circle>
        <filter x="-15.0%" y="-15.0%" width="140.0%" height="140.0%" filterUnits="objectBoundingBox" id="filter-8">
            <feMorphology radius="0.5" operator="dilate" in="SourceAlpha" result="shadowSpreadOuter1"></feMorphology>
            <feOffset dx="1" dy="1" in="shadowSpreadOuter1" result="shadowOffsetOuter1"></feOffset>
            <feGaussianBlur stdDeviation="1" in="shadowOffsetOuter1" result="shadowBlurOuter1"></feGaussianBlur>
            <feComposite in="shadowBlurOuter1" in2="SourceAlpha" operator="out" result="shadowBlurOuter1"></feComposite>
            <feColorMatrix values="0 0 0 0 0   0 0 0 0 0   0 0 0 0 0  0 0 0 0.3 0" type="matrix" in="shadowBlurOuter1"></feColorMatrix>
        </filter>
    </defs>
    <g id="Page-1" stroke="none" stroke-width="1" fill="none" fill-rule="evenodd">
        <g id="Artboard" transform="translate(-835.000000, -578.000000)">
            <g id="Group-10" transform="translate(835.000000, 578.000000)">
                <rect id="Rectangle" fill="#F5F6F5" x="0" y="0" width="386" height="199"></rect>
                <g id="Group-9" transform="translate(135.000000, 37.000000)">
                    <path d="M64.535,10.988 C64.535,11.7393371 64.4160012,12.4288302 64.178,13.0565 C63.9399988,13.6841698 63.6040022,14.2243311 63.17,14.677 C62.7359978,15.1296689 62.214503,15.4808321 61.6055,15.7305 C60.996497,15.9801679 60.323337,16.105 59.586,16.105 C58.848663,16.105 58.1766697,15.9801679 57.57,15.7305 C56.9633303,15.4808321 56.4430022,15.1296689 56.009,14.677 C55.5749978,14.2243311 55.2390012,13.6841698 55.001,13.0565 C54.7629988,12.4288302 54.644,11.7393371 54.644,10.988 C54.644,10.2366629 54.7629988,9.5471698 55.001,8.9195 C55.2390012,8.29183019 55.5749978,7.75050227 56.009,7.2955 C56.4430022,6.84049773 56.9633303,6.48700126 57.57,6.235 C58.1766697,5.98299874 58.848663,5.857 59.586,5.857 C60.323337,5.857 60.996497,5.98299874 61.6055,6.235 C62.214503,6.48700126 62.7359978,6.84049773 63.17,7.2955 C63.6040022,7.75050227 63.9399988,8.29183019 64.178,8.9195 C64.4160012,9.5471698 64.535,10.2366629 64.535,10.988 Z M63.142,10.988 C63.142,10.3719969 63.0580008,9.81900245 62.89,9.329 C62.7219992,8.83899755 62.4840015,8.42483503 62.176,8.0865 C61.8679985,7.74816498 61.4946689,7.48800091 61.056,7.306 C60.6173311,7.12399909 60.127336,7.033 59.586,7.033 C59.0493307,7.033 58.5616689,7.12399909 58.123,7.306 C57.6843311,7.48800091 57.3098349,7.74816498 56.9995,8.0865 C56.6891651,8.42483503 56.4500008,8.83899755 56.282,9.329 C56.1139992,9.81900245 56.03,10.3719969 56.03,10.988 C56.03,11.6040031 56.1139992,12.1558309 56.282,12.6435 C56.4500008,13.1311691 56.6891651,13.544165 56.9995,13.8825 C57.3098349,14.220835 57.6843311,14.4798324 58.123,14.6595 C58.5616689,14.8391676 59.0493307,14.929 59.586,14.929 C60.127336,14.929 60.6173311,14.8391676 61.056,14.6595 C61.4946689,14.4798324 61.8679985,14.220835 62.176,13.8825 C62.4840015,13.544165 62.7219992,13.1311691 62.89,12.6435 C63.0580008,12.1558309 63.142,11.6040031 63.142,10.988 Z M66.194,18.401 L66.194,8.909 L66.936,8.909 C67.1133342,8.909 67.2253331,8.99533247 67.272,9.168 L67.377,10.008 C67.6803349,9.63933149 68.0268314,9.34300112 68.4165,9.119 C68.8061686,8.89499888 69.2553308,8.783 69.764,8.783 C70.170002,8.783 70.538665,8.86116589 70.87,9.0175 C71.201335,9.17383411 71.4836655,9.4048318 71.717,9.7105 C71.9503345,10.0161682 72.1299994,10.3953311 72.256,10.848 C72.3820006,11.3006689 72.445,11.8209971 72.445,12.409 C72.445,12.9316693 72.3750007,13.4181644 72.235,13.8685 C72.0949993,14.3188356 71.8943346,14.7084984 71.633,15.0375 C71.3716654,15.3665016 71.0508352,15.6254991 70.6705,15.8145 C70.2901648,16.0035009 69.8620024,16.098 69.386,16.098 C68.9473311,16.098 68.5728349,16.0256674 68.2625,15.881 C67.9521651,15.7363326 67.6780012,15.5310013 67.44,15.265 L67.44,18.401 L66.194,18.401 Z M69.351,9.791 C68.944998,9.791 68.5891682,9.8843324 68.2835,10.071 C67.9778318,10.2576676 67.696668,10.5213316 67.44,10.862 L67.44,14.292 C67.6686678,14.6000015 67.9194986,14.8169994 68.1925,14.943 C68.4655014,15.0690006 68.7699983,15.132 69.106,15.132 C69.7640033,15.132 70.2703316,14.8963357 70.625,14.425 C70.9796684,13.9536643 71.157,13.281671 71.157,12.409 C71.157,11.9469977 71.1161671,11.550335 71.0345,11.219 C70.9528329,10.887665 70.8350008,10.6158344 70.681,10.4035 C70.5269992,10.1911656 70.3380011,10.0360005 70.114,9.938 C69.8899989,9.83999951 69.6356681,9.791 69.351,9.791 Z M76.071,16.112 C75.5109972,16.112 75.0805015,15.9556682 74.7795,15.643 C74.4784985,15.3303318 74.328,14.8800029 74.328,14.292 L74.328,9.952 L73.474,9.952 C73.399333,9.952 73.3363336,9.92983356 73.285,9.8855 C73.2336664,9.84116644 73.208,9.7723338 73.208,9.679 L73.208,9.182 L74.37,9.035 L74.657,6.844 C74.6663334,6.77399965 74.6966664,6.71683355 74.748,6.6725 C74.7993336,6.62816644 74.8646663,6.606 74.944,6.606 L75.574,6.606 L75.574,9.049 L77.604,9.049 L77.604,9.952 L75.574,9.952 L75.574,14.208 C75.574,14.5066682 75.6463326,14.7283326 75.791,14.873 C75.9356674,15.0176674 76.1223322,15.09 76.351,15.09 C76.4816673,15.09 76.5948329,15.0725002 76.6905,15.0375 C76.7861671,15.0024998 76.8689997,14.9640002 76.939,14.922 C77.0090003,14.8799998 77.0684998,14.8415002 77.1175,14.8065 C77.1665002,14.7714998 77.2096665,14.754 77.247,14.754 C77.3123337,14.754 77.3706664,14.7936663 77.422,14.873 L77.786,15.468 C77.5713323,15.6686677 77.3123348,15.8261661 77.009,15.9405 C76.7056652,16.0548339 76.3930016,16.112 76.071,16.112 Z M80.53,8.909 L80.53,16 L79.284,16 L79.284,8.909 L80.53,8.909 Z M80.81,6.683 C80.81,6.80433394 80.7855002,6.91749947 80.7365,7.0225 C80.6874998,7.12750052 80.6221671,7.22083292 80.5405,7.3025 C80.4588329,7.38416708 80.3643339,7.4483331 80.257,7.495 C80.1496661,7.5416669 80.0353339,7.565 79.914,7.565 C79.7926661,7.565 79.6795005,7.5416669 79.5745,7.495 C79.4694995,7.4483331 79.3761671,7.38416708 79.2945,7.3025 C79.2128329,7.22083292 79.1486669,7.12750052 79.102,7.0225 C79.0553331,6.91749947 79.032,6.80433394 79.032,6.683 C79.032,6.56166606 79.0553331,6.44616721 79.102,6.3365 C79.1486669,6.22683278 79.2128329,6.13116708 79.2945,6.0495 C79.3761671,5.96783292 79.4694995,5.9036669 79.5745,5.857 C79.6795005,5.8103331 79.7926661,5.787 79.914,5.787 C80.0353339,5.787 80.1496661,5.8103331 80.257,5.857 C80.3643339,5.9036669 80.4588329,5.96783292 80.5405,6.0495 C80.6221671,6.13116708 80.6874998,6.22683278 80.7365,6.3365 C80.7855002,6.44616721 80.81,6.56166606 80.81,6.683 Z M85.598,8.797 C86.1160026,8.797 86.5838312,8.88333247 87.0015,9.056 C87.4191688,9.22866753 87.7738319,9.47366508 88.0655,9.791 C88.3571681,10.1083349 88.5811659,10.4921644 88.7375,10.9425 C88.8938341,11.3928356 88.972,11.8956639 88.972,12.451 C88.972,13.0110028 88.8938341,13.5149978 88.7375,13.963 C88.5811659,14.4110022 88.3571681,14.7936651 88.0655,15.111 C87.7738319,15.4283349 87.4191688,15.6721658 87.0015,15.8425 C86.5838312,16.0128342 86.1160026,16.098 85.598,16.098 C85.0799974,16.098 84.6121688,16.0128342 84.1945,15.8425 C83.7768312,15.6721658 83.4210015,15.4283349 83.127,15.111 C82.8329985,14.7936651 82.6066675,14.4110022 82.448,13.963 C82.2893325,13.5149978 82.21,13.0110028 82.21,12.451 C82.21,11.8956639 82.2893325,11.3928356 82.448,10.9425 C82.6066675,10.4921644 82.8329985,10.1083349 83.127,9.791 C83.4210015,9.47366508 83.7768312,9.22866753 84.1945,9.056 C84.6121688,8.88333247 85.0799974,8.797 85.598,8.797 Z M85.598,15.125 C86.2980035,15.125 86.8206649,14.8905023 87.166,14.4215 C87.5113351,13.9524977 87.684,13.2980042 87.684,12.458 C87.684,11.6133291 87.5113351,10.9553357 87.166,10.484 C86.8206649,10.0126643 86.2980035,9.777 85.598,9.777 C85.2433316,9.777 84.9353346,9.83766606 84.674,9.959 C84.4126654,10.0803339 84.1945009,10.2553322 84.0195,10.484 C83.8444991,10.7126678 83.7138338,10.9938317 83.6275,11.3275 C83.5411662,11.6611683 83.498,12.0379979 83.498,12.458 C83.498,12.8780021 83.5411662,13.253665 83.6275,13.585 C83.7138338,13.916335 83.8444991,14.1951655 84.0195,14.4215 C84.1945009,14.6478345 84.4126654,14.8216661 84.674,14.943 C84.9353346,15.0643339 85.2433316,15.125 85.598,15.125 Z M90.512,16 L90.512,8.909 L91.254,8.909 C91.4313342,8.909 91.5433331,8.99533247 91.59,9.168 L91.688,9.938 C91.9960015,9.59733163 92.3401648,9.32200105 92.7205,9.112 C93.1008352,8.90199895 93.5406642,8.797 94.04,8.797 C94.4273353,8.797 94.7691652,8.86116602 95.0655,8.9895 C95.3618348,9.11783397 95.6091657,9.29983215 95.8075,9.5355 C96.0058343,9.77116784 96.1563328,10.054665 96.259,10.386 C96.3616672,10.717335 96.413,11.0836647 96.413,11.485 L96.413,16 L95.167,16 L95.167,11.485 C95.167,10.9483307 95.0445012,10.5318348 94.7995,10.2355 C94.5544988,9.93916519 94.1800025,9.791 93.676,9.791 C93.3073315,9.791 92.9631683,9.87966578 92.6435,10.057 C92.3238317,10.2343342 92.028668,10.4746651 91.758,10.778 L91.758,16 L90.512,16 Z M101.985,15.048 L104.141,15.048 L104.141,8.209 C104.141,8.00366564 104.148,7.79600105 104.162,7.586 L102.37,9.119 C102.323333,9.15633352 102.276667,9.18316659 102.23,9.1995 C102.183333,9.21583342 102.139,9.224 102.097,9.224 C102.027,9.224 101.964,9.20883348 101.908,9.1785 C101.852,9.14816651 101.81,9.11200021 101.782,9.07 L101.39,8.531 L104.372,5.948 L105.387,5.948 L105.387,15.048 L107.361,15.048 L107.361,16 L101.985,16 L101.985,15.048 Z" id="Option1" fill="#191919" fill-rule="nonzero"></path>
                    <path d="M64.535,45.988 C64.535,46.7393371 64.4160012,47.4288302 64.178,48.0565 C63.9399988,48.6841698 63.6040022,49.2243311 63.17,49.677 C62.7359978,50.1296689 62.214503,50.4808321 61.6055,50.7305 C60.996497,50.9801679 60.323337,51.105 59.586,51.105 C58.848663,51.105 58.1766697,50.9801679 57.57,50.7305 C56.9633303,50.4808321 56.4430022,50.1296689 56.009,49.677 C55.5749978,49.2243311 55.2390012,48.6841698 55.001,48.0565 C54.7629988,47.4288302 54.644,46.7393371 54.644,45.988 C54.644,45.2366629 54.7629988,44.5471698 55.001,43.9195 C55.2390012,43.2918302 55.5749978,42.7505023 56.009,42.2955 C56.4430022,41.8404977 56.9633303,41.4870013 57.57,41.235 C58.1766697,40.9829987 58.848663,40.857 59.586,40.857 C60.323337,40.857 60.996497,40.9829987 61.6055,41.235 C62.214503,41.4870013 62.7359978,41.8404977 63.17,42.2955 C63.6040022,42.7505023 63.9399988,43.2918302 64.178,43.9195 C64.4160012,44.5471698 64.535,45.2366629 64.535,45.988 Z M63.142,45.988 C63.142,45.3719969 63.0580008,44.8190024 62.89,44.329 C62.7219992,43.8389976 62.4840015,43.424835 62.176,43.0865 C61.8679985,42.748165 61.4946689,42.4880009 61.056,42.306 C60.6173311,42.1239991 60.127336,42.033 59.586,42.033 C59.0493307,42.033 58.5616689,42.1239991 58.123,42.306 C57.6843311,42.4880009 57.3098349,42.748165 56.9995,43.0865 C56.6891651,43.424835 56.4500008,43.8389976 56.282,44.329 C56.1139992,44.8190024 56.03,45.3719969 56.03,45.988 C56.03,46.6040031 56.1139992,47.1558309 56.282,47.6435 C56.4500008,48.1311691 56.6891651,48.544165 56.9995,48.8825 C57.3098349,49.220835 57.6843311,49.4798324 58.123,49.6595 C58.5616689,49.8391676 59.0493307,49.929 59.586,49.929 C60.127336,49.929 60.6173311,49.8391676 61.056,49.6595 C61.4946689,49.4798324 61.8679985,49.220835 62.176,48.8825 C62.4840015,48.544165 62.7219992,48.1311691 62.89,47.6435 C63.0580008,47.1558309 63.142,46.6040031 63.142,45.988 Z M66.194,53.401 L66.194,43.909 L66.936,43.909 C67.1133342,43.909 67.2253331,43.9953325 67.272,44.168 L67.377,45.008 C67.6803349,44.6393315 68.0268314,44.3430011 68.4165,44.119 C68.8061686,43.8949989 69.2553308,43.783 69.764,43.783 C70.170002,43.783 70.538665,43.8611659 70.87,44.0175 C71.201335,44.1738341 71.4836655,44.4048318 71.717,44.7105 C71.9503345,45.0161682 72.1299994,45.3953311 72.256,45.848 C72.3820006,46.3006689 72.445,46.8209971 72.445,47.409 C72.445,47.9316693 72.3750007,48.4181644 72.235,48.8685 C72.0949993,49.3188356 71.8943346,49.7084984 71.633,50.0375 C71.3716654,50.3665016 71.0508352,50.6254991 70.6705,50.8145 C70.2901648,51.0035009 69.8620024,51.098 69.386,51.098 C68.9473311,51.098 68.5728349,51.0256674 68.2625,50.881 C67.9521651,50.7363326 67.6780012,50.5310013 67.44,50.265 L67.44,53.401 L66.194,53.401 Z M69.351,44.791 C68.944998,44.791 68.5891682,44.8843324 68.2835,45.071 C67.9778318,45.2576676 67.696668,45.5213316 67.44,45.862 L67.44,49.292 C67.6686678,49.6000015 67.9194986,49.8169994 68.1925,49.943 C68.4655014,50.0690006 68.7699983,50.132 69.106,50.132 C69.7640033,50.132 70.2703316,49.8963357 70.625,49.425 C70.9796684,48.9536643 71.157,48.281671 71.157,47.409 C71.157,46.9469977 71.1161671,46.550335 71.0345,46.219 C70.9528329,45.887665 70.8350008,45.6158344 70.681,45.4035 C70.5269992,45.1911656 70.3380011,45.0360005 70.114,44.938 C69.8899989,44.8399995 69.6356681,44.791 69.351,44.791 Z M76.071,51.112 C75.5109972,51.112 75.0805015,50.9556682 74.7795,50.643 C74.4784985,50.3303318 74.328,49.8800029 74.328,49.292 L74.328,44.952 L73.474,44.952 C73.399333,44.952 73.3363336,44.9298336 73.285,44.8855 C73.2336664,44.8411664 73.208,44.7723338 73.208,44.679 L73.208,44.182 L74.37,44.035 L74.657,41.844 C74.6663334,41.7739997 74.6966664,41.7168336 74.748,41.6725 C74.7993336,41.6281664 74.8646663,41.606 74.944,41.606 L75.574,41.606 L75.574,44.049 L77.604,44.049 L77.604,44.952 L75.574,44.952 L75.574,49.208 C75.574,49.5066682 75.6463326,49.7283326 75.791,49.873 C75.9356674,50.0176674 76.1223322,50.09 76.351,50.09 C76.4816673,50.09 76.5948329,50.0725002 76.6905,50.0375 C76.7861671,50.0024998 76.8689997,49.9640002 76.939,49.922 C77.0090003,49.8799998 77.0684998,49.8415002 77.1175,49.8065 C77.1665002,49.7714998 77.2096665,49.754 77.247,49.754 C77.3123337,49.754 77.3706664,49.7936663 77.422,49.873 L77.786,50.468 C77.5713323,50.6686677 77.3123348,50.8261661 77.009,50.9405 C76.7056652,51.0548339 76.3930016,51.112 76.071,51.112 Z M80.53,43.909 L80.53,51 L79.284,51 L79.284,43.909 L80.53,43.909 Z M80.81,41.683 C80.81,41.8043339 80.7855002,41.9174995 80.7365,42.0225 C80.6874998,42.1275005 80.6221671,42.2208329 80.5405,42.3025 C80.4588329,42.3841671 80.3643339,42.4483331 80.257,42.495 C80.1496661,42.5416669 80.0353339,42.565 79.914,42.565 C79.7926661,42.565 79.6795005,42.5416669 79.5745,42.495 C79.4694995,42.4483331 79.3761671,42.3841671 79.2945,42.3025 C79.2128329,42.2208329 79.1486669,42.1275005 79.102,42.0225 C79.0553331,41.9174995 79.032,41.8043339 79.032,41.683 C79.032,41.5616661 79.0553331,41.4461672 79.102,41.3365 C79.1486669,41.2268328 79.2128329,41.1311671 79.2945,41.0495 C79.3761671,40.9678329 79.4694995,40.9036669 79.5745,40.857 C79.6795005,40.8103331 79.7926661,40.787 79.914,40.787 C80.0353339,40.787 80.1496661,40.8103331 80.257,40.857 C80.3643339,40.9036669 80.4588329,40.9678329 80.5405,41.0495 C80.6221671,41.1311671 80.6874998,41.2268328 80.7365,41.3365 C80.7855002,41.4461672 80.81,41.5616661 80.81,41.683 Z M85.598,43.797 C86.1160026,43.797 86.5838312,43.8833325 87.0015,44.056 C87.4191688,44.2286675 87.7738319,44.4736651 88.0655,44.791 C88.3571681,45.1083349 88.5811659,45.4921644 88.7375,45.9425 C88.8938341,46.3928356 88.972,46.8956639 88.972,47.451 C88.972,48.0110028 88.8938341,48.5149978 88.7375,48.963 C88.5811659,49.4110022 88.3571681,49.7936651 88.0655,50.111 C87.7738319,50.4283349 87.4191688,50.6721658 87.0015,50.8425 C86.5838312,51.0128342 86.1160026,51.098 85.598,51.098 C85.0799974,51.098 84.6121688,51.0128342 84.1945,50.8425 C83.7768312,50.6721658 83.4210015,50.4283349 83.127,50.111 C82.8329985,49.7936651 82.6066675,49.4110022 82.448,48.963 C82.2893325,48.5149978 82.21,48.0110028 82.21,47.451 C82.21,46.8956639 82.2893325,46.3928356 82.448,45.9425 C82.6066675,45.4921644 82.8329985,45.1083349 83.127,44.791 C83.4210015,44.4736651 83.7768312,44.2286675 84.1945,44.056 C84.6121688,43.8833325 85.0799974,43.797 85.598,43.797 Z M85.598,50.125 C86.2980035,50.125 86.8206649,49.8905023 87.166,49.4215 C87.5113351,48.9524977 87.684,48.2980042 87.684,47.458 C87.684,46.6133291 87.5113351,45.9553357 87.166,45.484 C86.8206649,45.0126643 86.2980035,44.777 85.598,44.777 C85.2433316,44.777 84.9353346,44.8376661 84.674,44.959 C84.4126654,45.0803339 84.1945009,45.2553322 84.0195,45.484 C83.8444991,45.7126678 83.7138338,45.9938317 83.6275,46.3275 C83.5411662,46.6611683 83.498,47.0379979 83.498,47.458 C83.498,47.8780021 83.5411662,48.253665 83.6275,48.585 C83.7138338,48.916335 83.8444991,49.1951655 84.0195,49.4215 C84.1945009,49.6478345 84.4126654,49.8216661 84.674,49.943 C84.9353346,50.0643339 85.2433316,50.125 85.598,50.125 Z M90.512,51 L90.512,43.909 L91.254,43.909 C91.4313342,43.909 91.5433331,43.9953325 91.59,44.168 L91.688,44.938 C91.9960015,44.5973316 92.3401648,44.322001 92.7205,44.112 C93.1008352,43.9019989 93.5406642,43.797 94.04,43.797 C94.4273353,43.797 94.7691652,43.861166 95.0655,43.9895 C95.3618348,44.117834 95.6091657,44.2998322 95.8075,44.5355 C96.0058343,44.7711678 96.1563328,45.054665 96.259,45.386 C96.3616672,45.717335 96.413,46.0836647 96.413,46.485 L96.413,51 L95.167,51 L95.167,46.485 C95.167,45.9483307 95.0445012,45.5318348 94.7995,45.2355 C94.5544988,44.9391652 94.1800025,44.791 93.676,44.791 C93.3073315,44.791 92.9631683,44.8796658 92.6435,45.057 C92.3238317,45.2343342 92.028668,45.4746651 91.758,45.778 L91.758,51 L90.512,51 Z M104.183,40.857 C104.607669,40.857 105.004331,40.9199994 105.373,41.046 C105.741669,41.1720006 106.060165,41.3551655 106.3285,41.5955 C106.596835,41.8358345 106.807999,42.1286649 106.962,42.474 C107.116001,42.8193351 107.193,43.2113311 107.193,43.65 C107.193,44.0233352 107.137001,44.3686651 107.025,44.686 C106.912999,45.0033349 106.761334,45.3078319 106.57,45.5995 C106.378666,45.8911681 106.158168,46.1734986 105.9085,46.4465 C105.658832,46.7195014 105.394001,46.9983319 105.114,47.283 L102.475,49.985 C102.661668,49.9336664 102.850666,49.8928335 103.042,49.8625 C103.233334,49.8321665 103.417666,49.817 103.595,49.817 L106.955,49.817 C107.090334,49.817 107.197666,49.8566663 107.277,49.936 C107.356334,50.0153337 107.396,50.1179994 107.396,50.244 L107.396,51 L100.704,51 L100.704,50.573 C100.704,50.4843329 100.7215,50.3933338 100.7565,50.3 C100.7915,50.2066662 100.848666,50.1203337 100.928,50.041 L104.141,46.814 C104.407001,46.543332 104.649666,46.2831679 104.869,46.0335 C105.088334,45.7838321 105.276166,45.5330013 105.4325,45.281 C105.588834,45.0289987 105.709,44.7735013 105.793,44.5145 C105.877,44.2554987 105.919,43.9790015 105.919,43.685 C105.919,43.3909985 105.872334,43.1331678 105.779,42.9115 C105.685666,42.6898322 105.557334,42.5066674 105.394,42.362 C105.230666,42.2173326 105.039334,42.1088337 104.82,42.0365 C104.600666,41.9641663 104.365001,41.928 104.113,41.928 C103.860999,41.928 103.627668,41.965333 103.413,42.04 C103.198332,42.114667 103.008167,42.2184993 102.8425,42.3515 C102.676833,42.4845007 102.536834,42.6419991 102.4225,42.824 C102.308166,43.0060009 102.227667,43.2066656 102.181,43.426 C102.143666,43.561334 102.087667,43.659333 102.013,43.72 C101.938333,43.780667 101.840334,43.811 101.719,43.811 C101.695667,43.811 101.671167,43.8098333 101.6455,43.8075 C101.619833,43.8051667 101.590667,43.8016667 101.558,43.797 L100.907,43.685 C100.972334,43.2276644 101.098332,42.8228351 101.285,42.4705 C101.471668,42.1181649 101.708499,41.8230012 101.9955,41.585 C102.282501,41.3469988 102.611498,41.1661673 102.9825,41.0425 C103.353502,40.9188327 103.753665,40.857 104.183,40.857 Z" id="Option2" fill="#191919" fill-rule="nonzero"></path>
                    <path d="M64.535,80.988 C64.535,81.7393371 64.4160012,82.4288302 64.178,83.0565 C63.9399988,83.6841698 63.6040022,84.2243311 63.17,84.677 C62.7359978,85.1296689 62.214503,85.4808321 61.6055,85.7305 C60.996497,85.9801679 60.323337,86.105 59.586,86.105 C58.848663,86.105 58.1766697,85.9801679 57.57,85.7305 C56.9633303,85.4808321 56.4430022,85.1296689 56.009,84.677 C55.5749978,84.2243311 55.2390012,83.6841698 55.001,83.0565 C54.7629988,82.4288302 54.644,81.7393371 54.644,80.988 C54.644,80.2366629 54.7629988,79.5471698 55.001,78.9195 C55.2390012,78.2918302 55.5749978,77.7505023 56.009,77.2955 C56.4430022,76.8404977 56.9633303,76.4870013 57.57,76.235 C58.1766697,75.9829987 58.848663,75.857 59.586,75.857 C60.323337,75.857 60.996497,75.9829987 61.6055,76.235 C62.214503,76.4870013 62.7359978,76.8404977 63.17,77.2955 C63.6040022,77.7505023 63.9399988,78.2918302 64.178,78.9195 C64.4160012,79.5471698 64.535,80.2366629 64.535,80.988 Z M63.142,80.988 C63.142,80.3719969 63.0580008,79.8190024 62.89,79.329 C62.7219992,78.8389976 62.4840015,78.424835 62.176,78.0865 C61.8679985,77.748165 61.4946689,77.4880009 61.056,77.306 C60.6173311,77.1239991 60.127336,77.033 59.586,77.033 C59.0493307,77.033 58.5616689,77.1239991 58.123,77.306 C57.6843311,77.4880009 57.3098349,77.748165 56.9995,78.0865 C56.6891651,78.424835 56.4500008,78.8389976 56.282,79.329 C56.1139992,79.8190024 56.03,80.3719969 56.03,80.988 C56.03,81.6040031 56.1139992,82.1558309 56.282,82.6435 C56.4500008,83.1311691 56.6891651,83.544165 56.9995,83.8825 C57.3098349,84.220835 57.6843311,84.4798324 58.123,84.6595 C58.5616689,84.8391676 59.0493307,84.929 59.586,84.929 C60.127336,84.929 60.6173311,84.8391676 61.056,84.6595 C61.4946689,84.4798324 61.8679985,84.220835 62.176,83.8825 C62.4840015,83.544165 62.7219992,83.1311691 62.89,82.6435 C63.0580008,82.1558309 63.142,81.6040031 63.142,80.988 Z M66.194,88.401 L66.194,78.909 L66.936,78.909 C67.1133342,78.909 67.2253331,78.9953325 67.272,79.168 L67.377,80.008 C67.6803349,79.6393315 68.0268314,79.3430011 68.4165,79.119 C68.8061686,78.8949989 69.2553308,78.783 69.764,78.783 C70.170002,78.783 70.538665,78.8611659 70.87,79.0175 C71.201335,79.1738341 71.4836655,79.4048318 71.717,79.7105 C71.9503345,80.0161682 72.1299994,80.3953311 72.256,80.848 C72.3820006,81.3006689 72.445,81.8209971 72.445,82.409 C72.445,82.9316693 72.3750007,83.4181644 72.235,83.8685 C72.0949993,84.3188356 71.8943346,84.7084984 71.633,85.0375 C71.3716654,85.3665016 71.0508352,85.6254991 70.6705,85.8145 C70.2901648,86.0035009 69.8620024,86.098 69.386,86.098 C68.9473311,86.098 68.5728349,86.0256674 68.2625,85.881 C67.9521651,85.7363326 67.6780012,85.5310013 67.44,85.265 L67.44,88.401 L66.194,88.401 Z M69.351,79.791 C68.944998,79.791 68.5891682,79.8843324 68.2835,80.071 C67.9778318,80.2576676 67.696668,80.5213316 67.44,80.862 L67.44,84.292 C67.6686678,84.6000015 67.9194986,84.8169994 68.1925,84.943 C68.4655014,85.0690006 68.7699983,85.132 69.106,85.132 C69.7640033,85.132 70.2703316,84.8963357 70.625,84.425 C70.9796684,83.9536643 71.157,83.281671 71.157,82.409 C71.157,81.9469977 71.1161671,81.550335 71.0345,81.219 C70.9528329,80.887665 70.8350008,80.6158344 70.681,80.4035 C70.5269992,80.1911656 70.3380011,80.0360005 70.114,79.938 C69.8899989,79.8399995 69.6356681,79.791 69.351,79.791 Z M76.071,86.112 C75.5109972,86.112 75.0805015,85.9556682 74.7795,85.643 C74.4784985,85.3303318 74.328,84.8800029 74.328,84.292 L74.328,79.952 L73.474,79.952 C73.399333,79.952 73.3363336,79.9298336 73.285,79.8855 C73.2336664,79.8411664 73.208,79.7723338 73.208,79.679 L73.208,79.182 L74.37,79.035 L74.657,76.844 C74.6663334,76.7739996 74.6966664,76.7168336 74.748,76.6725 C74.7993336,76.6281664 74.8646663,76.606 74.944,76.606 L75.574,76.606 L75.574,79.049 L77.604,79.049 L77.604,79.952 L75.574,79.952 L75.574,84.208 C75.574,84.5066682 75.6463326,84.7283326 75.791,84.873 C75.9356674,85.0176674 76.1223322,85.09 76.351,85.09 C76.4816673,85.09 76.5948329,85.0725002 76.6905,85.0375 C76.7861671,85.0024998 76.8689997,84.9640002 76.939,84.922 C77.0090003,84.8799998 77.0684998,84.8415002 77.1175,84.8065 C77.1665002,84.7714998 77.2096665,84.754 77.247,84.754 C77.3123337,84.754 77.3706664,84.7936663 77.422,84.873 L77.786,85.468 C77.5713323,85.6686677 77.3123348,85.8261661 77.009,85.9405 C76.7056652,86.0548339 76.3930016,86.112 76.071,86.112 Z M80.53,78.909 L80.53,86 L79.284,86 L79.284,78.909 L80.53,78.909 Z M80.81,76.683 C80.81,76.8043339 80.7855002,76.9174995 80.7365,77.0225 C80.6874998,77.1275005 80.6221671,77.2208329 80.5405,77.3025 C80.4588329,77.3841671 80.3643339,77.4483331 80.257,77.495 C80.1496661,77.5416669 80.0353339,77.565 79.914,77.565 C79.7926661,77.565 79.6795005,77.5416669 79.5745,77.495 C79.4694995,77.4483331 79.3761671,77.3841671 79.2945,77.3025 C79.2128329,77.2208329 79.1486669,77.1275005 79.102,77.0225 C79.0553331,76.9174995 79.032,76.8043339 79.032,76.683 C79.032,76.5616661 79.0553331,76.4461672 79.102,76.3365 C79.1486669,76.2268328 79.2128329,76.1311671 79.2945,76.0495 C79.3761671,75.9678329 79.4694995,75.9036669 79.5745,75.857 C79.6795005,75.8103331 79.7926661,75.787 79.914,75.787 C80.0353339,75.787 80.1496661,75.8103331 80.257,75.857 C80.3643339,75.9036669 80.4588329,75.9678329 80.5405,76.0495 C80.6221671,76.1311671 80.6874998,76.2268328 80.7365,76.3365 C80.7855002,76.4461672 80.81,76.5616661 80.81,76.683 Z M85.598,78.797 C86.1160026,78.797 86.5838312,78.8833325 87.0015,79.056 C87.4191688,79.2286675 87.7738319,79.4736651 88.0655,79.791 C88.3571681,80.1083349 88.5811659,80.4921644 88.7375,80.9425 C88.8938341,81.3928356 88.972,81.8956639 88.972,82.451 C88.972,83.0110028 88.8938341,83.5149978 88.7375,83.963 C88.5811659,84.4110022 88.3571681,84.7936651 88.0655,85.111 C87.7738319,85.4283349 87.4191688,85.6721658 87.0015,85.8425 C86.5838312,86.0128342 86.1160026,86.098 85.598,86.098 C85.0799974,86.098 84.6121688,86.0128342 84.1945,85.8425 C83.7768312,85.6721658 83.4210015,85.4283349 83.127,85.111 C82.8329985,84.7936651 82.6066675,84.4110022 82.448,83.963 C82.2893325,83.5149978 82.21,83.0110028 82.21,82.451 C82.21,81.8956639 82.2893325,81.3928356 82.448,80.9425 C82.6066675,80.4921644 82.8329985,80.1083349 83.127,79.791 C83.4210015,79.4736651 83.7768312,79.2286675 84.1945,79.056 C84.6121688,78.8833325 85.0799974,78.797 85.598,78.797 Z M85.598,85.125 C86.2980035,85.125 86.8206649,84.8905023 87.166,84.4215 C87.5113351,83.9524977 87.684,83.2980042 87.684,82.458 C87.684,81.6133291 87.5113351,80.9553357 87.166,80.484 C86.8206649,80.0126643 86.2980035,79.777 85.598,79.777 C85.2433316,79.777 84.9353346,79.8376661 84.674,79.959 C84.4126654,80.0803339 84.1945009,80.2553322 84.0195,80.484 C83.8444991,80.7126678 83.7138338,80.9938317 83.6275,81.3275 C83.5411662,81.6611683 83.498,82.0379979 83.498,82.458 C83.498,82.8780021 83.5411662,83.253665 83.6275,83.585 C83.7138338,83.916335 83.8444991,84.1951655 84.0195,84.4215 C84.1945009,84.6478345 84.4126654,84.8216661 84.674,84.943 C84.9353346,85.0643339 85.2433316,85.125 85.598,85.125 Z M90.512,86 L90.512,78.909 L91.254,78.909 C91.4313342,78.909 91.5433331,78.9953325 91.59,79.168 L91.688,79.938 C91.9960015,79.5973316 92.3401648,79.322001 92.7205,79.112 C93.1008352,78.901999 93.5406642,78.797 94.04,78.797 C94.4273353,78.797 94.7691652,78.861166 95.0655,78.9895 C95.3618348,79.117834 95.6091657,79.2998322 95.8075,79.5355 C96.0058343,79.7711678 96.1563328,80.054665 96.259,80.386 C96.3616672,80.717335 96.413,81.0836647 96.413,81.485 L96.413,86 L95.167,86 L95.167,81.485 C95.167,80.9483307 95.0445012,80.5318348 94.7995,80.2355 C94.5544988,79.9391652 94.1800025,79.791 93.676,79.791 C93.3073315,79.791 92.9631683,79.8796658 92.6435,80.057 C92.3238317,80.2343342 92.028668,80.4746651 91.758,80.778 L91.758,86 L90.512,86 Z M104.316,75.857 C104.740669,75.857 105.132665,75.9176661 105.492,76.039 C105.851335,76.1603339 106.160499,76.3329989 106.4195,76.557 C106.678501,76.7810011 106.880333,77.0516651 107.025,77.369 C107.169667,77.6863349 107.242,78.0386647 107.242,78.426 C107.242,78.7433349 107.201167,79.0268321 107.1195,79.2765 C107.037833,79.5261679 106.921167,79.7454991 106.7695,79.9345 C106.617833,80.1235009 106.434668,80.2833327 106.22,80.414 C106.005332,80.5446673 105.765001,80.6496663 105.499,80.729 C106.152337,80.9016675 106.643498,81.190998 106.9725,81.597 C107.301502,82.003002 107.466,82.5116636 107.466,83.123 C107.466,83.5850023 107.378501,84.0003315 107.2035,84.369 C107.028499,84.7376685 106.789335,85.0514987 106.486,85.3105 C106.182665,85.5695013 105.829169,85.7678326 105.4255,85.9055 C105.021831,86.0431674 104.589002,86.112 104.127,86.112 C103.594997,86.112 103.140002,86.0455007 102.762,85.9125 C102.383998,85.7794993 102.064335,85.5963345 101.803,85.363 C101.541665,85.1296655 101.327001,84.8531683 101.159,84.5335 C100.990999,84.2138317 100.848667,83.8673352 100.732,83.494 L101.264,83.27 C101.362,83.2279998 101.46,83.207 101.558,83.207 C101.651334,83.207 101.734166,83.2268331 101.8065,83.2665 C101.878834,83.3061669 101.933666,83.3679996 101.971,83.452 C101.980333,83.4706668 101.989667,83.4904999 101.999,83.5115 C102.008333,83.5325001 102.017667,83.5546666 102.027,83.578 C102.092334,83.713334 102.171666,83.8661658 102.265,84.0365 C102.358334,84.2068342 102.484333,84.3666659 102.643,84.516 C102.801667,84.6653341 102.998832,84.7913328 103.2345,84.894 C103.470168,84.9966672 103.762998,85.048 104.113,85.048 C104.463002,85.048 104.769832,84.9908339 105.0335,84.8765 C105.297168,84.7621661 105.516499,84.6140009 105.6915,84.432 C105.866501,84.2499991 105.998333,84.0470011 106.087,83.823 C106.175667,83.5989989 106.22,83.3773344 106.22,83.158 C106.22,82.887332 106.183834,82.6400011 106.1115,82.416 C106.039166,82.1919989 105.908501,81.9983342 105.7195,81.835 C105.530499,81.6716658 105.269168,81.5433338 104.9355,81.45 C104.601832,81.3566662 104.173669,81.31 103.651,81.31 L103.651,80.407 C104.075669,80.4023333 104.438498,80.3556671 104.7395,80.267 C105.040502,80.1783329 105.286666,80.0570008 105.478,79.903 C105.669334,79.7489992 105.808166,79.5646677 105.8945,79.35 C105.980834,79.1353323 106.024,78.8973346 106.024,78.636 C106.024,78.3466652 105.9785,78.0946677 105.8875,77.88 C105.7965,77.6653323 105.671667,77.4880007 105.513,77.348 C105.354333,77.2079993 105.166501,77.1030004 104.9495,77.033 C104.732499,76.9629997 104.498001,76.928 104.246,76.928 C103.993999,76.928 103.760668,76.965333 103.546,77.04 C103.331332,77.114667 103.141167,77.2184993 102.9755,77.3515 C102.809833,77.4845007 102.671001,77.6431657 102.559,77.8275 C102.446999,78.0118343 102.363,78.2113323 102.307,78.426 C102.269666,78.561334 102.213667,78.659333 102.139,78.72 C102.064333,78.780667 101.968667,78.811 101.852,78.811 C101.828667,78.811 101.804167,78.8098333 101.7785,78.8075 C101.752833,78.8051667 101.723667,78.8016667 101.691,78.797 L101.04,78.685 C101.105334,78.2276644 101.231332,77.8228351 101.418,77.4705 C101.604668,77.1181649 101.841499,76.8230012 102.1285,76.585 C102.415501,76.3469988 102.744498,76.1661673 103.1155,76.0425 C103.486502,75.9188327 103.886665,75.857 104.316,75.857 Z" id="Option3" fill="#191919" fill-rule="nonzero"></path>
                    <path d="M64.535,115.988 C64.535,116.739337 64.4160012,117.42883 64.178,118.0565 C63.9399988,118.68417 63.6040022,119.224331 63.17,119.677 C62.7359978,120.129669 62.214503,120.480832 61.6055,120.7305 C60.996497,120.980168 60.323337,121.105 59.586,121.105 C58.848663,121.105 58.1766697,120.980168 57.57,120.7305 C56.9633303,120.480832 56.4430022,120.129669 56.009,119.677 C55.5749978,119.224331 55.2390012,118.68417 55.001,118.0565 C54.7629988,117.42883 54.644,116.739337 54.644,115.988 C54.644,115.236663 54.7629988,114.54717 55.001,113.9195 C55.2390012,113.29183 55.5749978,112.750502 56.009,112.2955 C56.4430022,111.840498 56.9633303,111.487001 57.57,111.235 C58.1766697,110.982999 58.848663,110.857 59.586,110.857 C60.323337,110.857 60.996497,110.982999 61.6055,111.235 C62.214503,111.487001 62.7359978,111.840498 63.17,112.2955 C63.6040022,112.750502 63.9399988,113.29183 64.178,113.9195 C64.4160012,114.54717 64.535,115.236663 64.535,115.988 Z M63.142,115.988 C63.142,115.371997 63.0580008,114.819002 62.89,114.329 C62.7219992,113.838998 62.4840015,113.424835 62.176,113.0865 C61.8679985,112.748165 61.4946689,112.488001 61.056,112.306 C60.6173311,112.123999 60.127336,112.033 59.586,112.033 C59.0493307,112.033 58.5616689,112.123999 58.123,112.306 C57.6843311,112.488001 57.3098349,112.748165 56.9995,113.0865 C56.6891651,113.424835 56.4500008,113.838998 56.282,114.329 C56.1139992,114.819002 56.03,115.371997 56.03,115.988 C56.03,116.604003 56.1139992,117.155831 56.282,117.6435 C56.4500008,118.131169 56.6891651,118.544165 56.9995,118.8825 C57.3098349,119.220835 57.6843311,119.479832 58.123,119.6595 C58.5616689,119.839168 59.0493307,119.929 59.586,119.929 C60.127336,119.929 60.6173311,119.839168 61.056,119.6595 C61.4946689,119.479832 61.8679985,119.220835 62.176,118.8825 C62.4840015,118.544165 62.7219992,118.131169 62.89,117.6435 C63.0580008,117.155831 63.142,116.604003 63.142,115.988 Z M66.194,123.401 L66.194,113.909 L66.936,113.909 C67.1133342,113.909 67.2253331,113.995332 67.272,114.168 L67.377,115.008 C67.6803349,114.639331 68.0268314,114.343001 68.4165,114.119 C68.8061686,113.894999 69.2553308,113.783 69.764,113.783 C70.170002,113.783 70.538665,113.861166 70.87,114.0175 C71.201335,114.173834 71.4836655,114.404832 71.717,114.7105 C71.9503345,115.016168 72.1299994,115.395331 72.256,115.848 C72.3820006,116.300669 72.445,116.820997 72.445,117.409 C72.445,117.931669 72.3750007,118.418164 72.235,118.8685 C72.0949993,119.318836 71.8943346,119.708498 71.633,120.0375 C71.3716654,120.366502 71.0508352,120.625499 70.6705,120.8145 C70.2901648,121.003501 69.8620024,121.098 69.386,121.098 C68.9473311,121.098 68.5728349,121.025667 68.2625,120.881 C67.9521651,120.736333 67.6780012,120.531001 67.44,120.265 L67.44,123.401 L66.194,123.401 Z M69.351,114.791 C68.944998,114.791 68.5891682,114.884332 68.2835,115.071 C67.9778318,115.257668 67.696668,115.521332 67.44,115.862 L67.44,119.292 C67.6686678,119.600002 67.9194986,119.816999 68.1925,119.943 C68.4655014,120.069001 68.7699983,120.132 69.106,120.132 C69.7640033,120.132 70.2703316,119.896336 70.625,119.425 C70.9796684,118.953664 71.157,118.281671 71.157,117.409 C71.157,116.946998 71.1161671,116.550335 71.0345,116.219 C70.9528329,115.887665 70.8350008,115.615834 70.681,115.4035 C70.5269992,115.191166 70.3380011,115.036 70.114,114.938 C69.8899989,114.84 69.6356681,114.791 69.351,114.791 Z M76.071,121.112 C75.5109972,121.112 75.0805015,120.955668 74.7795,120.643 C74.4784985,120.330332 74.328,119.880003 74.328,119.292 L74.328,114.952 L73.474,114.952 C73.399333,114.952 73.3363336,114.929834 73.285,114.8855 C73.2336664,114.841166 73.208,114.772334 73.208,114.679 L73.208,114.182 L74.37,114.035 L74.657,111.844 C74.6663334,111.774 74.6966664,111.716834 74.748,111.6725 C74.7993336,111.628166 74.8646663,111.606 74.944,111.606 L75.574,111.606 L75.574,114.049 L77.604,114.049 L77.604,114.952 L75.574,114.952 L75.574,119.208 C75.574,119.506668 75.6463326,119.728333 75.791,119.873 C75.9356674,120.017667 76.1223322,120.09 76.351,120.09 C76.4816673,120.09 76.5948329,120.0725 76.6905,120.0375 C76.7861671,120.0025 76.8689997,119.964 76.939,119.922 C77.0090003,119.88 77.0684998,119.8415 77.1175,119.8065 C77.1665002,119.7715 77.2096665,119.754 77.247,119.754 C77.3123337,119.754 77.3706664,119.793666 77.422,119.873 L77.786,120.468 C77.5713323,120.668668 77.3123348,120.826166 77.009,120.9405 C76.7056652,121.054834 76.3930016,121.112 76.071,121.112 Z M80.53,113.909 L80.53,121 L79.284,121 L79.284,113.909 L80.53,113.909 Z M80.81,111.683 C80.81,111.804334 80.7855002,111.917499 80.7365,112.0225 C80.6874998,112.127501 80.6221671,112.220833 80.5405,112.3025 C80.4588329,112.384167 80.3643339,112.448333 80.257,112.495 C80.1496661,112.541667 80.0353339,112.565 79.914,112.565 C79.7926661,112.565 79.6795005,112.541667 79.5745,112.495 C79.4694995,112.448333 79.3761671,112.384167 79.2945,112.3025 C79.2128329,112.220833 79.1486669,112.127501 79.102,112.0225 C79.0553331,111.917499 79.032,111.804334 79.032,111.683 C79.032,111.561666 79.0553331,111.446167 79.102,111.3365 C79.1486669,111.226833 79.2128329,111.131167 79.2945,111.0495 C79.3761671,110.967833 79.4694995,110.903667 79.5745,110.857 C79.6795005,110.810333 79.7926661,110.787 79.914,110.787 C80.0353339,110.787 80.1496661,110.810333 80.257,110.857 C80.3643339,110.903667 80.4588329,110.967833 80.5405,111.0495 C80.6221671,111.131167 80.6874998,111.226833 80.7365,111.3365 C80.7855002,111.446167 80.81,111.561666 80.81,111.683 Z M85.598,113.797 C86.1160026,113.797 86.5838312,113.883332 87.0015,114.056 C87.4191688,114.228668 87.7738319,114.473665 88.0655,114.791 C88.3571681,115.108335 88.5811659,115.492164 88.7375,115.9425 C88.8938341,116.392836 88.972,116.895664 88.972,117.451 C88.972,118.011003 88.8938341,118.514998 88.7375,118.963 C88.5811659,119.411002 88.3571681,119.793665 88.0655,120.111 C87.7738319,120.428335 87.4191688,120.672166 87.0015,120.8425 C86.5838312,121.012834 86.1160026,121.098 85.598,121.098 C85.0799974,121.098 84.6121688,121.012834 84.1945,120.8425 C83.7768312,120.672166 83.4210015,120.428335 83.127,120.111 C82.8329985,119.793665 82.6066675,119.411002 82.448,118.963 C82.2893325,118.514998 82.21,118.011003 82.21,117.451 C82.21,116.895664 82.2893325,116.392836 82.448,115.9425 C82.6066675,115.492164 82.8329985,115.108335 83.127,114.791 C83.4210015,114.473665 83.7768312,114.228668 84.1945,114.056 C84.6121688,113.883332 85.0799974,113.797 85.598,113.797 Z M85.598,120.125 C86.2980035,120.125 86.8206649,119.890502 87.166,119.4215 C87.5113351,118.952498 87.684,118.298004 87.684,117.458 C87.684,116.613329 87.5113351,115.955336 87.166,115.484 C86.8206649,115.012664 86.2980035,114.777 85.598,114.777 C85.2433316,114.777 84.9353346,114.837666 84.674,114.959 C84.4126654,115.080334 84.1945009,115.255332 84.0195,115.484 C83.8444991,115.712668 83.7138338,115.993832 83.6275,116.3275 C83.5411662,116.661168 83.498,117.037998 83.498,117.458 C83.498,117.878002 83.5411662,118.253665 83.6275,118.585 C83.7138338,118.916335 83.8444991,119.195166 84.0195,119.4215 C84.1945009,119.647834 84.4126654,119.821666 84.674,119.943 C84.9353346,120.064334 85.2433316,120.125 85.598,120.125 Z M90.512,121 L90.512,113.909 L91.254,113.909 C91.4313342,113.909 91.5433331,113.995332 91.59,114.168 L91.688,114.938 C91.9960015,114.597332 92.3401648,114.322001 92.7205,114.112 C93.1008352,113.901999 93.5406642,113.797 94.04,113.797 C94.4273353,113.797 94.7691652,113.861166 95.0655,113.9895 C95.3618348,114.117834 95.6091657,114.299832 95.8075,114.5355 C96.0058343,114.771168 96.1563328,115.054665 96.259,115.386 C96.3616672,115.717335 96.413,116.083665 96.413,116.485 L96.413,121 L95.167,121 L95.167,116.485 C95.167,115.948331 95.0445012,115.531835 94.7995,115.2355 C94.5544988,114.939165 94.1800025,114.791 93.676,114.791 C93.3073315,114.791 92.9631683,114.879666 92.6435,115.057 C92.3238317,115.234334 92.028668,115.474665 91.758,115.778 L91.758,121 L90.512,121 Z M106.297,117.381 L107.816,117.381 L107.816,118.095 C107.816,118.169667 107.793834,118.232666 107.7495,118.284 C107.705166,118.335334 107.636334,118.361 107.543,118.361 L106.297,118.361 L106.297,121 L105.198,121 L105.198,118.361 L100.753,118.361 C100.659666,118.361 100.579167,118.334167 100.5115,118.2805 C100.443833,118.226833 100.400667,118.160334 100.382,118.081 L100.256,117.444 L105.135,110.969 L106.297,110.969 L106.297,117.381 Z M105.198,113.244 C105.198,113.122666 105.2015,112.992001 105.2085,112.852 C105.2155,112.711999 105.230667,112.567334 105.254,112.418 L101.607,117.381 L105.198,117.381 L105.198,113.244 Z" id="Option4" fill="#191919" fill-rule="nonzero"></path>
                    <g id="Group-8">
                        <g id="Toggle-On" transform="translate(-0.000000, 0.000000)">
                            <g>
                                <rect id="Rectangle-5" stroke="#768900" fill="#8FA500" x="0.5" y="1.125" width="36.2221695" height="17.75" rx="8.875"></rect>
                                <g id="Oval">
                                    <use fill="black" fill-opacity="1" filter="url(#filter-2)" xlink:href="#path-1"></use>
                                    <use stroke="#768900" stroke-width="1" fill="#E4E4E4" fill-rule="evenodd" xlink:href="#path-1"></use>
                                </g>
                            </g>
                        </g>
                        <g id="Toggle-On" transform="translate(-0.000000, 106.000000)">
                            <g>
                                <rect id="Rectangle-5" stroke="#768900" fill="#8FA500" x="0.5" y="1.125" width="36.2221695" height="17.75" rx="8.875"></rect>
                                <g id="Oval">
                                    <use fill="black" fill-opacity="1" filter="url(#filter-4)" xlink:href="#path-3"></use>
                                    <use stroke="#768900" stroke-width="1" fill="#E4E4E4" fill-rule="evenodd" xlink:href="#path-3"></use>
                                </g>
                            </g>
                        </g>
                        <g id="Toggle-Off" transform="translate(-0.000000, 35.333333)">
                            <rect id="Rectangle-5" stroke="#6B6B6B" fill="#979797" x="0.5" y="1.125" width="35.8303571" height="17.75" rx="8.875"></rect>
                            <g id="Oval">
                                <use fill="black" fill-opacity="1" filter="url(#filter-6)" xlink:href="#path-5"></use>
                                <use stroke="#6B6B6B" stroke-width="1" fill="#E4E4E4" fill-rule="evenodd" xlink:href="#path-5"></use>
                            </g>
                        </g>
                        <g id="Toggle-Off" transform="translate(-0.000000, 70.666667)">
                            <rect id="Rectangle-5" stroke="#6B6B6B" fill="#979797" x="0.5" y="1.125" width="35.8303571" height="17.75" rx="8.875"></rect>
                            <g id="Oval">
                                <use fill="black" fill-opacity="1" filter="url(#filter-8)" xlink:href="#path-7"></use>
                                <use stroke="#6B6B6B" stroke-width="1" fill="#E4E4E4" fill-rule="evenodd" xlink:href="#path-7"></use>
                            </g>
                        </g>
                    </g>
                </g>
            </g>
        </g>
    </g>
</svg>