<?xml version="1.0" encoding="UTF-8"?>
<svg width="220px" height="103px" viewBox="0 0 220 103" version="1.1" xmlns="http://www.w3.org/2000/svg" xmlns:xlink="http://www.w3.org/1999/xlink">
    <!-- Generator: Sketch 55.2 (78181) - https://sketchapp.com -->
    <title>type-preview</title>
    <desc>Created with Sketch.</desc>
    <defs>
        <polygon id="path-1" points="49 21 50 21 80 82 19 82"></polygon>
        <mask id="mask-2" maskContentUnits="userSpaceOnUse" maskUnits="objectBoundingBox" x="0" y="0" width="61" height="61" fill="white">
            <use xlink:href="#path-1"></use>
        </mask>
        <path d="M97,21 L124,21 C132.284271,21 139,27.7157288 139,36 C139,44.2842712 132.284271,51 124,51 L97,51 L97,21 Z" id="path-3"></path>
        <mask id="mask-4" maskContentUnits="userSpaceOnUse" maskUnits="objectBoundingBox" x="0" y="0" width="42" height="30" fill="white">
            <use xlink:href="#path-3"></use>
        </mask>
        <path d="M97,51 L143,51 C151.284271,51 158,57.7157288 158,66 L158,67 C158,75.2842712 151.284271,82 143,82 L97,82 L97,51 Z" id="path-5"></path>
        <mask id="mask-6" maskContentUnits="userSpaceOnUse" maskUnits="objectBoundingBox" x="0" y="0" width="61" height="31" fill="white">
            <use xlink:href="#path-5"></use>
        </mask>
    </defs>
    <g id="Welcome" stroke="none" stroke-width="1" fill="none" fill-rule="evenodd">
        <g id="Assets" transform="translate(-1060.000000, -4052.000000)">
            <g id="type-preview" transform="translate(1060.000000, 4052.000000)">
                <rect id="Rectangle" fill="#575601" fill-rule="evenodd" x="0" y="0" width="220" height="103"></rect>
                <use id="Rectangle" stroke="#FFFFFF" mask="url(#mask-2)" stroke-width="2" fill-opacity="0.5" fill="#D8D8D8" fill-rule="evenodd" stroke-dasharray="1,3" xlink:href="#path-1"></use>
                <use id="Rectangle" stroke="#FFFFFF" mask="url(#mask-4)" stroke-width="2" fill-opacity="0.5" fill="#FFFFFF" fill-rule="evenodd" stroke-dasharray="1,3" xlink:href="#path-3"></use>
                <use id="Rectangle" stroke="#FFFFFF" mask="url(#mask-6)" stroke-width="2" fill-opacity="0.5" fill="#FFFFFF" fill-rule="evenodd" stroke-dasharray="1,3" xlink:href="#path-5"></use>
                <path d="M19,51 L201.178652,51" id="Line-3" stroke="#000000" stroke-width="1" stroke-linecap="square" stroke-dasharray="1,3"></path>
                <path d="M19,82 L201.178652,82" id="Line-3-Copy" stroke="#000000" stroke-width="1" stroke-linecap="square" stroke-dasharray="1,3"></path>
                <path d="M19,21 L201.178652,21" id="Line-3-Copy-2" stroke="#000000" stroke-width="1" stroke-linecap="square" stroke-dasharray="1,3"></path>
                <path id="Line-4" d="M80.5,86.5 L96.5,86.5 L96.5,82.5 L97.5,82.5 L97.5,91.5 L96.5,91.5 L96.5,87.5 L80.5,87.5 L80.5,91.5 L79.5,91.5 L79.5,82.5 L80.5,82.5 L80.5,86.5 Z" fill="#FFFFFF" fill-rule="nonzero"></path>
                <path id="Line-4-Copy" d="M125.5,35.5 L154.5,35.5 L154.5,31.5 L155.5,31.5 L155.5,40.5 L154.5,40.5 L154.5,36.5 L125.5,36.5 L125.5,40.5 L124.5,40.5 L124.5,31.5 L125.5,31.5 L125.5,35.5 Z" fill="#FFFFFF" fill-rule="nonzero"></path>
                <path id="Line-4-Copy-2" d="M144.5,66 L174.5,66 L174.5,62 L175.5,62 L175.5,71 L174.5,71 L174.5,67 L144.5,67 L144.5,71 L143.5,71 L143.5,62 L144.5,62 L144.5,66 Z" fill="#FFFFFF" fill-rule="nonzero"></path>
            </g>
        </g>
    </g>
</svg>