<svg width="25" height="11" xmlns="http://www.w3.org/2000/svg" xmlns:xlink="http://www.w3.org/1999/xlink">
  <defs>
    <path id="a" d="M0 .159v9.008h12.5V.159z"/>
  </defs>
  <g fill="none" fill-rule="evenodd">
    <path d="M7.494 4.646a.95.95 0 01-.41.148c-.16.022-.31.033-.447.033-.235 0-.494-.044-.777-.135a3.39 3.39 0 01-.731-.32h-.14v1.163c.197.085.453.163.768.231.314.07.69.104 1.129.104.384 0 .71-.04.98-.12.269-.079.503-.194.702-.343.204-.153.355-.34.454-.554.098-.217.147-.45.147-.698 0-.22-.034-.397-.103-.53a1.168 1.168 0 00-.277-.349 1.237 1.237 0 00-.37-.216 1.828 1.828 0 00-.384-.1v-.05c.298-.064.539-.211.722-.443.182-.23.274-.493.274-.788 0-.223-.048-.417-.143-.583a1.178 1.178 0 00-.434-.423A2.156 2.156 0 007.832.44a3.925 3.925 0 00-.879-.087A4.79 4.79 0 005.936.46a5.08 5.08 0 00-.793.226v1.15h.131c.244-.146.497-.257.758-.333.261-.078.503-.116.726-.116.09 0 .198.007.324.022.125.014.234.042.326.085a.57.57 0 01.207.154.39.39 0 01.082.258c0 .145-.026.254-.079.33a.53.53 0 01-.234.18 1.2 1.2 0 01-.363.08 6.066 6.066 0 01-.491.018h-.303v.947h.293c.14 0 .292.002.455.005.163.003.303.024.419.063.117.034.21.095.282.179a.54.54 0 01.106.357c0 .16-.026.281-.078.365a.716.716 0 01-.21.215M11.218 3.397c.003-.054.004-.093.004-.117.095-.036.199-.065.313-.09a1.628 1.628 0 01.687.003.73.73 0 01.301.137.666.666 0 01.207.265c.05.11.075.252.075.425 0 .19-.022.34-.066.45a.933.933 0 01-.177.287.627.627 0 01-.241.16.761.761 0 01-.551.001.593.593 0 01-.235-.162 1.06 1.06 0 01-.233-.432 2.484 2.484 0 01-.087-.72c0-.083 0-.153.003-.207m-.704 1.946c.187.178.412.31.674.397.262.087.552.13.87.13.339 0 .635-.047.887-.14a2.01 2.01 0 00.668-.401c.18-.163.32-.365.419-.605.1-.24.15-.495.15-.768 0-.349-.06-.64-.179-.871a1.486 1.486 0 00-.966-.783 2.167 2.167 0 00-.574-.071 2.06 2.06 0 00-.655.101 2.906 2.906 0 00-.579.265c.052-.398.205-.709.459-.932.254-.223.608-.334 1.064-.334.194 0 .367.019.52.059.153.039.262.074.325.104h.136V.452A6.818 6.818 0 0013.331.4a5.095 5.095 0 00-.569-.036c-.512 0-.954.074-1.325.221-.371.147-.673.353-.905.62a2.53 2.53 0 00-.523.956 4.33 4.33 0 00-.16 1.237c0 .449.057.834.171 1.156.113.323.278.586.494.79M16.434 1.738c.126-.271.335-.407.626-.407.293 0 .501.136.626.407.126.272.19.729.19 1.37 0 .633-.065 1.089-.192 1.367-.129.278-.336.417-.624.417-.286 0-.494-.14-.622-.417-.128-.278-.192-.732-.192-1.36 0-.646.063-1.105.188-1.377m-1.066 3.427c.172.233.399.408.679.527.28.118.617.178 1.013.178.404 0 .743-.06 1.018-.177.275-.117.5-.291.676-.521.17-.225.296-.514.376-.867.082-.352.122-.752.122-1.197 0-.446-.04-.84-.118-1.18a2.28 2.28 0 00-.376-.86 1.642 1.642 0 00-.676-.535c-.276-.12-.616-.18-1.022-.18-.388 0-.723.058-1.002.174-.28.116-.509.29-.684.523a2.33 2.33 0 00-.384.862c-.08.339-.12.739-.12 1.199 0 .447.039.842.117 1.187.078.345.205.635.38.867M20.42.361a.531.531 0 11-.001 1.063.531.531 0 010-1.063m0 1.423a.892.892 0 100-1.784.892.892 0 000 1.784" fill="#2C2C2C"/>
    <g transform="translate(0 1.35)">
      <mask id="b" fill="#fff">
        <use xlink:href="#a"/>
      </mask>
      <path d="M12.48 7.244l-1.809-1.81a.066.066 0 00-.064-.016v.986c-5.209-.29-9.17-1.753-9.17-3.517C1.436 1.841 2.833.9 5.06.247a.195.195 0 01-.005-.088C1.988.959 0 2.239 0 3.685 0 5.883 4.6 7.704 10.607 8.025v1.14c.022.006.047 0 .064-.018l1.81-1.809a.067.067 0 000-.094" fill="#2C2C2C" mask="url(#b)"/>
    </g>
    <path d="M25 5.035c0-1.298-1.605-2.464-4.155-3.267a.26.26 0 01-.147.075c1.78.633 2.866 1.473 2.866 2.395 0 1.835-4.292 3.346-9.814 3.546l-1.544.01.816.783-.816.849 1.828-.033v-.002C20.213 9.125 25 7.277 25 5.035" fill="#2C2C2C"/>
  </g>
</svg>
