<?xml version="1.0" encoding="UTF-8"?>
<svg width="30px" height="13px" viewBox="0 0 30 13" version="1.1" xmlns="http://www.w3.org/2000/svg" xmlns:xlink="http://www.w3.org/1999/xlink">
    <!-- Generator: Sketch 48.2 (47327) - http://www.bohemiancoding.com/sketch -->
    <title>360</title>
    <desc>Created with Sketch.</desc>
    <defs>
        <polygon id="path-1" points="4.06575815e-20 0.1907 4.06575815e-20 11 14.99995 11 14.99995 0.1907"></polygon>
    </defs>
    <g id="Page-1" stroke="none" stroke-width="1" fill="none" fill-rule="evenodd">
        <g id="360">
            <g id="Page-1">
                <path d="M8.9928,5.5754 C8.8588,5.6664 8.6958,5.7254 8.5018,5.7524 C8.3078,5.7794 8.1288,5.7924 7.9638,5.7924 C7.6818,5.7924 7.3718,5.7394 7.0318,5.6304 C6.6918,5.5224 6.3988,5.3944 6.1548,5.2464 L5.9878,5.2464 L5.9878,6.6424 C6.2238,6.7444 6.5308,6.8374 6.9078,6.9194 C7.2848,7.0024 7.7368,7.0434 8.2628,7.0434 C8.7238,7.0434 9.1158,6.9954 9.4388,6.9004 C9.7618,6.8054 10.0428,6.6674 10.2818,6.4884 C10.5268,6.3044 10.7078,6.0814 10.8258,5.8234 C10.9438,5.5634 11.0028,5.2844 11.0028,4.9864 C11.0028,4.7214 10.9618,4.5094 10.8798,4.3504 C10.7968,4.1904 10.6858,4.0514 10.5468,3.9314 C10.4128,3.8184 10.2648,3.7314 10.1028,3.6714 C9.9408,3.6114 9.7868,3.5724 9.6418,3.5524 L9.6418,3.4924 C9.9998,3.4154 10.2888,3.2384 10.5078,2.9604 C10.7268,2.6834 10.8368,2.3684 10.8368,2.0154 C10.8368,1.7474 10.7798,1.5144 10.6658,1.3154 C10.5528,1.1164 10.3788,0.9474 10.1448,0.8074 C9.9488,0.6904 9.6998,0.5974 9.3988,0.5284 C9.0968,0.4584 8.7448,0.4234 8.3438,0.4234 C7.9308,0.4234 7.5248,0.4664 7.1228,0.5534 C6.7218,0.6404 6.4048,0.7304 6.1718,0.8244 L6.1718,2.2034 L6.3288,2.2034 C6.6218,2.0294 6.9258,1.8964 7.2388,1.8044 C7.5518,1.7114 7.8418,1.6654 8.1098,1.6654 C8.2178,1.6654 8.3468,1.6744 8.4978,1.6914 C8.6488,1.7084 8.7798,1.7424 8.8898,1.7934 C8.9898,1.8394 9.0728,1.9004 9.1378,1.9794 C9.2028,2.0574 9.2358,2.1604 9.2358,2.2884 C9.2358,2.4624 9.2048,2.5934 9.1418,2.6834 C9.0798,2.7734 8.9858,2.8454 8.8608,2.8994 C8.7408,2.9504 8.5958,2.9824 8.4248,2.9974 C8.2548,3.0114 8.0578,3.0184 7.8358,3.0184 L7.4728,3.0184 L7.4728,4.1544 L7.8238,4.1544 C7.9918,4.1544 8.1738,4.1564 8.3698,4.1604 C8.5658,4.1644 8.7338,4.1894 8.8728,4.2354 C9.0128,4.2774 9.1248,4.3494 9.2108,4.4504 C9.2958,4.5514 9.3388,4.6944 9.3388,4.8794 C9.3388,5.0704 9.3068,5.2164 9.2448,5.3174 C9.1818,5.4184 9.0978,5.5044 8.9928,5.5754" id="Fill-1" fill="#000000"></path>
                <path d="M13.462,4.0768 C13.465,4.0118 13.466,3.9648 13.466,3.9358 C13.58,3.8928 13.705,3.8578 13.842,3.8288 C13.979,3.8008 14.109,3.7868 14.234,3.7868 C14.382,3.7868 14.526,3.8018 14.666,3.8318 C14.805,3.8618 14.926,3.9158 15.028,3.9958 C15.134,4.0758 15.216,4.1808 15.276,4.3138 C15.336,4.4458 15.366,4.6168 15.366,4.8238 C15.366,5.0518 15.339,5.2318 15.287,5.3638 C15.234,5.4958 15.164,5.6108 15.075,5.7078 C14.996,5.7928 14.899,5.8568 14.785,5.8998 C14.671,5.9418 14.567,5.9638 14.474,5.9638 C14.348,5.9638 14.232,5.9428 14.124,5.9018 C14.015,5.8608 13.921,5.7958 13.842,5.7078 C13.725,5.5878 13.632,5.4148 13.562,5.1888 C13.492,4.9628 13.458,4.6748 13.458,4.3248 C13.458,4.2248 13.459,4.1418 13.462,4.0768 M12.617,6.4118 C12.841,6.6248 13.111,6.7838 13.426,6.8878 C13.74,6.9918 14.088,7.0438 14.469,7.0438 C14.876,7.0438 15.231,6.9878 15.534,6.8768 C15.837,6.7658 16.104,6.6048 16.335,6.3948 C16.551,6.1988 16.719,5.9568 16.838,5.6688 C16.958,5.3818 17.018,5.0748 17.018,4.7468 C17.018,4.3288 16.946,3.9798 16.804,3.7018 C16.662,3.4228 16.473,3.2008 16.236,3.0348 C16.054,2.9098 15.857,2.8188 15.645,2.7628 C15.433,2.7048 15.204,2.6768 14.956,2.6768 C14.674,2.6768 14.412,2.7178 14.169,2.7988 C13.925,2.8798 13.694,2.9858 13.475,3.1168 C13.537,2.6388 13.721,2.2658 14.025,1.9978 C14.33,1.7308 14.755,1.5968 15.302,1.5968 C15.535,1.5968 15.743,1.6198 15.927,1.6678 C16.11,1.7148 16.241,1.7568 16.317,1.7928 L16.48,1.7928 L16.48,0.5428 C16.406,0.5288 16.245,0.5068 15.997,0.4788 C15.75,0.4508 15.522,0.4358 15.315,0.4358 C14.7,0.4358 14.17,0.5238 13.724,0.7008 C13.279,0.8768 12.917,1.1248 12.638,1.4438 C12.348,1.7768 12.139,2.1588 12.011,2.5918 C11.882,3.0238 11.818,3.5188 11.818,4.0768 C11.818,4.6148 11.887,5.0768 12.024,5.4638 C12.16,5.8508 12.358,6.1668 12.617,6.4118" id="Fill-3" fill="#000000"></path>
                <path d="M19.7213,2.0861 C19.8723,1.7601 20.1223,1.5971 20.4723,1.5971 C20.8233,1.5971 21.0733,1.7601 21.2233,2.0861 C21.3743,2.4121 21.4503,2.9601 21.4503,3.7291 C21.4503,4.4891 21.3733,5.0361 21.2203,5.3701 C21.0663,5.7031 20.8173,5.8701 20.4723,5.8701 C20.1283,5.8701 19.8793,5.7031 19.7253,5.3701 C19.5723,5.0361 19.4953,4.4921 19.4953,3.7371 C19.4953,2.9631 19.5703,2.4121 19.7213,2.0861 M18.4413,6.1981 C18.6483,6.4771 18.9203,6.6881 19.2563,6.8301 C19.5923,6.9721 19.9973,7.0441 20.4723,7.0441 C20.9563,7.0441 21.3633,6.9731 21.6933,6.8321 C22.0233,6.6911 22.2943,6.4821 22.5043,6.2061 C22.7093,5.9361 22.8603,5.5891 22.9563,5.1661 C23.0543,4.7431 23.1023,4.2641 23.1023,3.7291 C23.1023,3.1941 23.0553,2.7221 22.9613,2.3131 C22.8673,1.9041 22.7163,1.5611 22.5093,1.2821 C22.2983,0.9971 22.0283,0.7831 21.6983,0.6391 C21.3673,0.4951 20.9593,0.4231 20.4723,0.4231 C20.0063,0.4231 19.6043,0.4931 19.2693,0.6321 C18.9333,0.7721 18.6593,0.9811 18.4493,1.2601 C18.2393,1.5421 18.0853,1.8871 17.9883,2.2941 C17.8913,2.7011 17.8433,3.1811 17.8433,3.7331 C17.8433,4.2691 17.8903,4.7431 17.9843,5.1581 C18.0783,5.5721 18.2303,5.9191 18.4413,6.1981" id="Fill-5" fill="#000000"></path>
                <path d="M24.5035,0.4333 C24.8555,0.4333 25.1405,0.7193 25.1405,1.0713 C25.1405,1.4233 24.8555,1.7083 24.5035,1.7083 C24.1515,1.7083 23.8665,1.4233 23.8665,1.0713 C23.8665,0.7193 24.1515,0.4333 24.5035,0.4333 M24.5035,2.1413 C25.0945,2.1413 25.5745,1.6623 25.5745,1.0713 C25.5745,0.4793 25.0945,0.0003 24.5035,0.0003 C23.9125,0.0003 23.4325,0.4793 23.4325,1.0713 C23.4325,1.6623 23.9125,2.1413 24.5035,2.1413" id="Fill-7" fill="#000000"></path>
                <g id="Group-11" transform="translate(0.000000, 1.620900)">
                    <mask id="mask-2" fill="white">
                        <use xlink:href="#path-1"></use>
                    </mask>
                    <g id="Clip-10"></g>
                    <path d="M14.9767,8.6927 L12.8057,6.5217 C12.7847,6.5007 12.7547,6.4947 12.7287,6.5017 L12.7287,7.6847 C6.4777,7.3377 1.7237,5.5807 1.7237,3.4647 C1.7237,2.2087 3.4007,1.0787 6.0727,0.2957 C6.0627,0.2617 6.0607,0.2247 6.0667,0.1907 C2.3857,1.1497 -0.0003,2.6877 -0.0003,4.4217 C-0.0003,7.0597 5.5217,9.2447 12.7287,9.6297 L12.7287,10.9977 C12.7547,11.0047 12.7847,10.9977 12.8057,10.9767 L14.9767,8.8057 C15.0077,8.7747 15.0077,8.7237 14.9767,8.6927" id="Fill-9" fill="#000000" mask="url(#mask-2)"></path>
                </g>
                <g id="Group-14" transform="translate(14.000000, 1.620900)" fill="#000000">
                    <path d="M16.0001,4.4217 C16.0001,2.8637 14.0741,1.4647 11.0141,0.5007 C10.9701,0.5457 10.9111,0.5787 10.8371,0.5907 C12.9731,1.3507 14.2771,2.3587 14.2771,3.4647 C14.2771,5.6667 9.1261,7.4797 2.5001,7.7197 L0.6471,7.7317 L1.6261,8.6717 L0.6471,9.6897 L2.8411,9.6507 L2.8401,9.6487 C10.2561,9.3297 16.0001,7.1117 16.0001,4.4217" id="Fill-12"></path>
                </g>
            </g>
        </g>
    </g>
</svg>