<?xml version="1.0" encoding="UTF-8"?>
<svg width="18px" height="19px" viewBox="0 0 18 19" version="1.1" xmlns="http://www.w3.org/2000/svg" xmlns:xlink="http://www.w3.org/1999/xlink">
    <!-- Generator: Sketch 62 (91390) - https://sketch.com -->
    <title>account-circle</title>
    <desc>Created with Sketch.</desc>
    <g id="Page-1" stroke="none" stroke-width="1" fill="none" fill-rule="evenodd">
        <g id="Artboard" transform="translate(-782.000000, -148.000000)" fill="#2C2C2C">
            <g id="account-circle" transform="translate(782.000000, 148.000000)">
                <path d="M8.99993684,0.076754386 C13.9625448,0.076754386 17.9999368,4.11414646 17.9999368,9.07675439 C17.9999368,11.5066751 17.0315844,13.7142522 15.460906,15.3350451 C15.399373,15.3987984 15.3368884,15.461283 15.2734523,15.5231332 L15.2734523,15.5231332 C15.0755316,15.7156619 14.874439,15.8945517 14.6657342,16.0642434 L14.6657342,16.0642434 L14.5617783,16.1472258 L14.5617783,16.1472258 L14.4567122,16.2285429 C14.4544919,16.2301288 14.4525888,16.2320319 14.4506857,16.2333006 C14.2365888,16.3966487 14.0155139,16.5504813 13.7868267,16.6947984 L13.7868267,16.6947984 L13.6735932,16.764935 L13.6735932,16.764935 L13.5594082,16.8334064 C13.5568708,16.8346751 13.5546505,16.836261 13.5521131,16.8378469 C13.2425448,17.0199086 12.9212408,17.1842081 12.5897871,17.3291597 L12.5897871,17.3291597 C11.4837783,17.8106398 10.2724655,18.0767544 8.99993684,18.0767544 C7.72740821,18.0767544 6.51609543,17.8106398 5.41769896,17.3323315 L5.41769896,17.3323315 C5.07895006,17.1842081 4.75732891,17.0199086 4.44807781,16.8378469 C4.44554037,16.836261 4.44300292,16.8346751 4.44046548,16.8334064 C4.36434213,16.7883667 4.28853596,16.7420584 4.21336415,16.6951156 L4.21336415,16.6951156 C3.98467693,16.5504813 3.76328486,16.3966487 3.5498223,16.2333006 C3.54760204,16.2320319 3.54538178,16.2301288 3.54316151,16.2285429 C3.47274741,16.1746222 3.40360204,16.1200672 3.33477385,16.0642434 L3.33477385,16.0642434 L3.12831276,15.8914152 C2.99260645,15.7743403 2.86037737,15.6531773 2.73181349,15.5282081 L2.73181349,15.5282081 C2.66330248,15.461283 2.60050072,15.3987984 2.53896768,15.3353623 L2.53896768,15.3353623 L2.32855206,15.110425 C0.882257955,13.513104 -6.31578947e-05,11.3962241 -6.31578947e-05,9.07675439 C-6.31578947e-05,4.11414646 4.03764609,0.076754386 8.99993684,0.076754386 Z M8.99993684,1.74480725 C4.9571527,1.74480725 1.66798971,5.03365306 1.66798971,9.07675439 C1.66798971,10.8491597 2.30013067,12.4766134 3.35095006,13.7456531 C4.58636856,11.9494592 6.65533772,10.7714504 8.99993684,10.7714504 C11.3448531,10.7714504 13.4135051,11.9494592 14.6492408,13.7456531 C15.699743,12.4766134 16.331884,10.8491597 16.331884,9.07675439 C16.331884,5.03365306 13.042721,1.74480725 8.99993684,1.74480725 Z M9,3.5 C10.8461652,3.5 12.3428571,4.95535842 12.3428571,6.74984458 C12.3428571,8.54495242 10.8461652,10 9,10 C7.1538348,10 5.65714286,8.54495242 5.65714286,6.74984458 C5.65714286,4.95535842 7.1538348,3.5 9,3.5 Z" id="color"></path>
            </g>
        </g>
    </g>
</svg>