<?xml version="1.0" encoding="UTF-8"?>
<svg width="25px" height="18px" viewBox="0 0 25 18" version="1.1" xmlns="http://www.w3.org/2000/svg" xmlns:xlink="http://www.w3.org/1999/xlink">
    <!-- Generator: Sketch 62 (91390) - https://sketch.com -->
    <title>add-person</title>
    <desc>Created with Sketch.</desc>
    <g id="Page-1" stroke="none" stroke-width="1" fill="none" fill-rule="evenodd">
        <g id="Artboard" transform="translate(-761.000000, -212.000000)" fill="#2C2C2C">
            <g id="person-add" transform="translate(761.000000, 212.000000)">
                <path d="M15.75,9 C18.225,9 20.25,6.975 20.25,4.5 C20.25,2.025 18.225,0 15.75,0 C13.275,0 11.25,2.025 11.25,4.5 C11.25,6.975 13.275,9 15.75,9 L15.75,9 Z M5.625,6.75 L5.625,3.375 L3.375,3.375 L3.375,6.75 L0,6.75 L0,9 L3.375,9 L3.375,12.375 L5.625,12.375 L5.625,9 L9,9 L9,6.75 L5.625,6.75 L5.625,6.75 Z M15.75,11.25 C12.7125,11.25 6.75,12.7125 6.75,15.75 L6.75,18 L24.75,18 L24.75,15.75 C24.75,12.7125 18.7875,11.25 15.75,11.25 L15.75,11.25 Z" id="color"></path>
            </g>
        </g>
    </g>
</svg>