<svg width="19" height="25" xmlns="http://www.w3.org/2000/svg">
  <g fill="none" fill-rule="evenodd">
    <path d="M5.413 4.166h8.566c.51 0 .927.43.927.953v18.27c0 .525-.418.954-.927.954H2.082c-.51 0-.927-.43-.927-.954V8.372c0-.101.04-.198.11-.268l3.887-3.83a.372.372 0 01.261-.108z" fill="#FFF"/>
    <path d="M13.27.139c3.041 0 5.508 2.535 5.508 5.663 0 2.385-1.434 4.426-3.463 5.261V23.39c0 .704-.53 1.29-1.208 1.356l-.128.007H2.082a1.35 1.35 0 01-1.33-1.232l-.007-.13V8.371c0-.168.054-.331.152-.465l.082-.095 3.886-3.83a.782.782 0 01.427-.215l.121-.01h2.718C8.93 1.64 10.928.139 13.27.139zM5.777 4.573v2.726c0 .72-.531 1.323-1.22 1.412l-.175.011h-2.82v14.667c0 .271.192.495.436.537l.083.008h11.897a.53.53 0 00.51-.456l.008-.089V11.325a5.381 5.381 0 01-3.648-.433H3.228v-1.51H9a5.706 5.706 0 01-1.04-2.065H6.363v-1.51H7.76c0-.427.046-.838.13-1.234H5.779zm7.158 15.533v1.51H3.228v-1.51h9.708zm0-3.574v1.509H3.228v-1.51h9.708zm0-3.575v1.51H3.228v-1.51h9.708zM4.96 5.035L2.05 7.903h2.333c.275 0 .51-.206.566-.482l.012-.122V5.035z" fill="#2C2C2C"/>
    <path d="M14.09 2.455v2.618h2.62v1.309h-2.62V9h-1.308V6.382h-2.618v-1.31h2.618V2.456h1.309z" fill="#FFF"/>
    <g>
      <path d="M5.413 4.166h8.566c.51 0 .927.43.927.953v18.27c0 .525-.418.954-.927.954H2.082c-.51 0-.927-.43-.927-.954V8.372c0-.101.04-.198.11-.268l3.887-3.83a.372.372 0 01.261-.108z" fill="#FFF"/>
      <path d="M13.27.139c3.041 0 5.508 2.535 5.508 5.663 0 2.385-1.434 4.426-3.463 5.261V23.39c0 .704-.53 1.29-1.208 1.356l-.128.007H2.082a1.35 1.35 0 01-1.33-1.232l-.007-.13V8.371c0-.168.054-.331.152-.465l.082-.095 3.886-3.83a.782.782 0 01.427-.215l.121-.01h2.718C8.93 1.64 10.928.139 13.27.139zM5.777 4.573v2.726c0 .72-.531 1.323-1.22 1.412l-.175.011h-2.82v14.667c0 .271.192.495.436.537l.083.008h11.897a.53.53 0 00.51-.456l.008-.089V11.325a5.381 5.381 0 01-3.648-.433H3.228v-1.51H9a5.706 5.706 0 01-1.04-2.065H6.363v-1.51H7.76c0-.427.046-.838.13-1.234H5.779zm7.158 15.533v1.51H3.228v-1.51h9.708zm0-3.574v1.509H3.228v-1.51h9.708zm0-3.575v1.51H3.228v-1.51h9.708zM4.96 5.035L2.05 7.903h2.333c.275 0 .51-.206.566-.482l.012-.122V5.035z" fill="#2C2C2C"/>
      <path d="M14.09 2.455v2.618h2.62v1.309h-2.62V9h-1.308V6.382h-2.618v-1.31h2.618V2.456h1.309z" fill="#FFF"/>
    </g>
  </g>
</svg>
