<?xml version="1.0" encoding="UTF-8"?>
<svg width="22px" height="20px" viewBox="0 0 22 20" version="1.1" xmlns="http://www.w3.org/2000/svg" xmlns:xlink="http://www.w3.org/1999/xlink">
    <!-- Generator: Sketch 50.2 (55047) - http://www.bohemiancoding.com/sketch -->
    <title>add-to-favorites</title>
    <desc>Created with Sketch.</desc>
    <defs>
        <polygon id="path-1" points="0 10.0049526 0 0.000221052632 21.9390582 0.000221052632 21.9390582 10.0049526 21.9390582 20.0096842 0 20.0096842"></polygon>
        <polygon id="path-3" points="12.69105 0.930335 12.69105 12.967785 0.65303 12.967785 0.65303 0.930335 12.69105 0.930335"></polygon>
    </defs>
    <g id="Welcome" stroke="none" stroke-width="1" fill="none" fill-rule="evenodd">
        <g id="Buttons-Copy" transform="translate(-999.000000, -326.000000)">
            <g id="add-to-favorites" transform="translate(999.000000, 326.000000)">
                <g id="favorite-heart">
                    <g id="favorite">
                        <g id="Page-1">
                            <g>
                                <mask id="mask-2" fill="white">
                                    <use xlink:href="#path-1"></use>
                                </mask>
                                <g id="Clip-2"></g>
                                <path d="M15.9058172,0 C13.9971191,0 12.1652078,0.895263158 10.9695291,2.29894737 C9.77385042,0.895263158 7.94193906,0 6.033241,0 C2.65462604,0 0,2.66368421 0,6.07894737 C0,10.2457895 3.72963989,13.6610526 9.37894737,18.8226316 L10.4177618,19.7808947 L10.4199557,19.7808947 C10.5603657,19.9212632 10.7545263,20.0096842 10.9695291,20.0096842 C11.1417507,20.0096842 11.2920332,19.9422632 11.4225706,19.8472105 C11.4291524,19.8483158 11.4401219,19.8461053 11.4478006,19.8461053 L11.5125208,19.7853158 C11.5180055,19.7797895 11.5234903,19.7775789 11.5289751,19.7720526 L12.5601108,18.8226316 C18.2094183,13.6610526 21.9390582,10.2457895 21.9390582,6.07894737 C21.9390582,2.66368421 19.2844321,0 15.9058172,0" id="Fill-1" fill="#191919" mask="url(#mask-2)"></path>
                            </g>
                        </g>
                    </g>
                </g>
                <g id="Page-1" transform="translate(8.000000, 4.000000)">
                    <path d="M7.22223,13.560905 C4.09958,13.560905 1.55928,11.020605 1.55928,7.898905 C1.55928,4.775305 4.09958,2.235955 7.22223,2.235955 C10.34488,2.235955 12.88518,4.775305 12.88518,7.898905 C12.88518,11.020605 10.34488,13.560905 7.22223,13.560905" id="Fill-4" fill="#FFFFFF"></path>
                    <g id="Group-8" transform="translate(0.550000, 0.948990)">
                        <mask id="mask-4" fill="white">
                            <use xlink:href="#path-3"></use>
                        </mask>
                        <g id="Clip-7"></g>
                        <path d="M6.67223,0.930335 C3.35293,0.930335 0.65303,3.630235 0.65303,6.949535 C0.65303,10.268835 3.35293,12.967785 6.67223,12.967785 C9.99058,12.967785 12.69143,10.268835 12.69143,6.949535 C12.69143,3.630235 9.99058,0.930335 6.67223,0.930335 M6.67223,1.642835 C9.60298,1.642835 11.97893,4.018785 11.97893,6.949535 C11.97893,9.879335 9.60298,12.255285 6.67223,12.255285 C3.74148,12.255285 1.36553,9.879335 1.36553,6.949535 C1.36553,4.018785 3.74148,1.642835 6.67223,1.642835" id="Fill-6" fill="#191919" mask="url(#mask-4)"></path>
                    </g>
                    <polygon id="Fill-9" fill="#191919" points="11.100225 7.041245 8.079225 7.041245 8.079225 4.020245 6.365425 4.020245 6.365425 7.041245 3.344425 7.041245 3.344425 8.755045 6.365425 8.755045 6.365425 11.776045 8.079225 11.776045 8.079225 8.755045 11.100225 8.755045"></polygon>
                </g>
            </g>
        </g>
    </g>
</svg>