<?xml version="1.0" encoding="UTF-8"?>
<svg width="20px" height="18px" viewBox="0 0 20 18" version="1.1" xmlns="http://www.w3.org/2000/svg" xmlns:xlink="http://www.w3.org/1999/xlink">
    <!-- Generator: Sketch 62 (91390) - https://sketch.com -->
    <title>add-to-favorites</title>
    <desc>Created with Sketch.</desc>
    <g id="Page-1" stroke="none" stroke-width="1" fill="none" fill-rule="evenodd">
        <g id="Artboard" transform="translate(-96.000000, -21.000000)" fill="#2C2C2C">
            <g id="add-to-favorites" transform="translate(96.000000, 21.000000)">
                <g id="Support-Black-L">
                    <path d="M12.8046687,-1.68286437e-15 C15.5245569,-1.68286437e-15 17.661612,2.24023605 17.661612,5.11257189 C17.661612,5.70387178 17.5761331,6.27717612 17.4121747,6.84257638 C18.8546636,7.91154602 19.8,9.67908864 19.8,11.6748407 C19.8,14.93174 17.282428,17.5799516 14.1892591,17.5799516 C12.6106008,17.5799516 11.1822473,16.8905487 10.1617892,15.7826433 L10.1112729,15.8303817 L9.2811771,16.6288725 L9.26793089,16.6400272 L9.21582914,16.6911529 C9.20964757,16.6911529 9.20081677,16.693012 9.19551828,16.6920824 C9.09043169,16.7720245 8.96944965,16.8287275 8.83080599,16.8287275 C8.69233896,16.8287275 8.56461018,16.7811342 8.46118378,16.7016532 L8.38838261,16.6363089 L8.38661645,16.6363089 L7.55033913,15.8303817 C3.00247404,11.4893434 -2.48689958e-14,8.61700753 -2.48689958e-14,5.11257189 C-2.48689958e-14,2.24023605 2.13705505,-1.68286437e-15 4.8569433,-1.68286437e-15 C6.39350354,-1.68286437e-15 7.86824814,0.752942406 8.83080599,1.93348173 C9.79336385,0.752942406 11.2681084,-1.68286437e-15 12.8046687,-1.68286437e-15 Z M14.1892591,6.46790308 C11.4573879,6.46790308 9.24266841,8.7991868 9.24266841,11.6748407 C9.24266841,14.5495624 11.4573879,16.8808461 14.1892591,16.8808461 C16.9211303,16.8808461 19.1358498,14.5495624 19.1358498,11.6748407 C19.1358498,8.7991868 16.9211303,6.46790308 14.1892591,6.46790308 Z M14.988099,7.86946974 L14.988099,10.8336769 L17.8040958,10.8336769 L17.8040958,12.5152586 L14.988099,12.5152586 L14.988099,15.4794659 L13.3905963,15.4794659 L13.3905963,12.5152586 L10.5745995,12.5152586 L10.5745995,10.8336769 L13.3905963,10.8336769 L13.3905963,7.86946974 L14.988099,7.86946974 Z" id="Combined-Shape"></path>
                </g>
            </g>
        </g>
    </g>
</svg>