<?xml version="1.0" encoding="UTF-8"?>
<svg width="16px" height="21px" viewBox="0 0 16 21" version="1.1" xmlns="http://www.w3.org/2000/svg" xmlns:xlink="http://www.w3.org/1999/xlink">
    <!-- Generator: Sketch 49.3 (51167) - http://www.bohemiancoding.com/sketch -->
    <title>add to order</title>
    <desc>Created with Sketch.</desc>
    <defs>
        <polygon id="path-1" points="0 19.9642071 14.9643991 19.9642071 14.9643991 0 0 0"></polygon>
    </defs>
    <g id="Page-1" stroke="none" stroke-width="1" fill="none" fill-rule="evenodd">
        <g id="Desktop-HD-Copy-2" transform="translate(-929.000000, -509.000000)">
            <g id="add-to-order" transform="translate(930.000000, 509.000000)">
                <g id="Page-1">
                    <path d="M3.67779399,3.39462783 L10.8154764,3.39462783 C11.2403691,3.39462783 11.5880086,3.74414239 11.5880086,4.17132686 L11.5880086,19.0580583 C11.5880086,19.4852427 11.2403691,19.8347573 10.8154764,19.8347573 L0.901313305,19.8347573 C0.476356223,19.8347573 0.128781116,19.4852427 0.128781116,19.0580583 L0.128781116,6.8218123 C0.128781116,6.7392233 0.162257511,6.6602589 0.221549356,6.6031068 L3.46032618,3.48245955 C3.51884549,3.42608414 3.59674249,3.39462783 3.67779399,3.39462783 Z" id="Fill-1" fill="#FFFFFF"></path>
                    <path d="M3.67779399,3.39462783 L10.8154764,3.39462783 C11.2403691,3.39462783 11.5880086,3.74414239 11.5880086,4.17132686 L11.5880086,19.0580583 C11.5880086,19.4852427 11.2403691,19.8347573 10.8154764,19.8347573 L0.901313305,19.8347573 C0.476356223,19.8347573 0.128781116,19.4852427 0.128781116,19.0580583 L0.128781116,6.8218123 C0.128781116,6.7392233 0.162257511,6.6602589 0.221549356,6.6031068 L3.46032618,3.48245955 C3.51884549,3.42608414 3.59674249,3.39462783 3.67779399,3.39462783 Z" id="Stroke-3" stroke="#000000" stroke-width="0.5"></path>
                    <path d="M3.64136266,3.32990291 L3.64136266,5.94705502 C3.64136266,6.40161812 3.2714485,6.77352751 2.81932403,6.77352751 L0.0714270386,6.77352751" id="Stroke-5" stroke="#000000" stroke-width="0.5"></path>
                    <mask id="mask-2" fill="white">
                        <use xlink:href="#path-1"></use>
                    </mask>
                    <g id="Clip-8"></g>
                    <polygon id="Fill-7" fill="#CECECE" mask="url(#mask-2)" points="4.46896996 5.9620712 9.94635193 5.9620712 9.94635193 4.73229773 4.46896996 4.73229773"></polygon>
                    <polygon id="Fill-9" fill="#CECECE" mask="url(#mask-2)" points="1.85639485 8.87469256 9.94635193 8.87469256 9.94635193 7.64491909 1.85639485 7.64491909"></polygon>
                    <polygon id="Fill-10" fill="#CECECE" mask="url(#mask-2)" points="1.85639485 11.7873139 9.94635193 11.7873139 9.94635193 10.5575405 1.85639485 10.5575405"></polygon>
                    <polygon id="Fill-11" fill="#CECECE" mask="url(#mask-2)" points="1.85639485 14.6999353 9.94635193 14.6999353 9.94635193 13.4701618 1.85639485 13.4701618"></polygon>
                    <polygon id="Fill-12" fill="#CECECE" mask="url(#mask-2)" points="1.85639485 17.6125566 9.94635193 17.6125566 9.94635193 16.3827832 1.85639485 16.3827832"></polygon>
                    <path d="M5.63400299,4.72796117 C5.63400299,7.27682312 7.68912778,9.34303273 10.2243156,9.34303273 C12.7595034,9.34303273 14.8147157,7.27682312 14.8147157,4.72796117 C14.8147157,2.17909921 12.7595034,0.112889601 10.2243156,0.112889601 C7.68912778,0.112889601 5.63400299,2.17909921 5.63400299,4.72796117" id="Fill-13" fill="#000000" mask="url(#mask-2)"></path>
                    <g id="Group" mask="url(#mask-2)" fill="#FFFFFF">
                        <g transform="translate(7.636364, 2.000000)" id="Rectangle">
                            <rect x="0" y="2.13333333" width="5.45454545" height="1.06666667"></rect>
                            <rect transform="translate(2.727273, 2.666667) rotate(90.000000) translate(-2.727273, -2.666667) " x="0" y="2.13333333" width="5.45454545" height="1.06666667"></rect>
                        </g>
                    </g>
                </g>
            </g>
        </g>
    </g>
</svg>