<?xml version="1.0" encoding="UTF-8"?>
<svg width="24px" height="18px" viewBox="0 0 24 18" version="1.1" xmlns="http://www.w3.org/2000/svg" xmlns:xlink="http://www.w3.org/1999/xlink">
    <!-- Generator: Sketch 62 (91390) - https://sketch.com -->
    <title>add-credit-card</title>
    <desc>Created with Sketch.</desc>
    <g id="Page-1" stroke="none" stroke-width="1" fill="none" fill-rule="evenodd">
        <g id="Artboard" transform="translate(-590.000000, -169.000000)">
            <g id="Credit-Card-Add" transform="translate(590.000000, 169.000000)">
                <path d="M17.1428571,0 C18.9732866,0 20.4686953,1.43439438 20.5663554,3.24045531 L20.5714286,3.42857143 L20.5718357,6.57759157 C19.7923705,6.20723591 18.9203865,6 18,6 C16.1633394,6 14.5194249,6.82524395 13.4188255,8.12516271 L1.71428571,8.1257143 L1.71428571,12.6708075 C1.71428571,13.5677511 2.40313292,14.3038059 3.28065629,14.3788007 L3.42857143,14.3850932 L12.4930742,14.3858095 C12.7689076,15.0216162 13.1516272,15.6002955 13.6185614,16.099176 L3.42857143,16.0993789 C1.59814197,16.0993789 0.102733274,14.6649845 0.00507317165,12.8589236 L0,12.6708075 L0,3.42857143 C0,1.59814197 1.43439438,0.102733274 3.24045531,0.00507317165 L3.42857143,0 L17.1428571,0 Z M17.1428571,1.71428571 L3.42857143,1.71428571 C2.53162777,1.71428571 1.79557301,2.40313292 1.72057817,3.28065629 L1.71428571,3.42857143 L1.71428571,4.28571429 L18.8571429,4.28571429 L18.8571429,3.42857143 C18.8571429,2.53162777 18.1682956,1.79557301 17.2907723,1.72057817 L17.1428571,1.71428571 Z" id="Combined-Shape" fill="#2C2C2C"></path>
                <g id="add-circle" transform="translate(12.857143, 6.857143)" fill="#8DC63F" stroke-width="1">
                    <g id="Shape">
                        <path d="M5.14285714,0 C2.31428571,0 0,2.31428571 0,5.14285714 C0,7.97142857 2.31428571,10.2857143 5.14285714,10.2857143 C7.97142857,10.2857143 10.2857143,7.97142857 10.2857143,5.14285714 C10.2857143,2.31428571 7.97142857,0 5.14285714,0 L5.14285714,0 Z M7.71428571,5.65714286 L5.65714286,5.65714286 L5.65714286,7.71428571 L4.62857143,7.71428571 L4.62857143,5.65714286 L2.57142857,5.65714286 L2.57142857,4.62857143 L4.62857143,4.62857143 L4.62857143,2.57142857 L5.65714286,2.57142857 L5.65714286,4.62857143 L7.71428571,4.62857143 L7.71428571,5.65714286 L7.71428571,5.65714286 Z"></path>
                    </g>
                </g>
            </g>
        </g>
    </g>
</svg>