<?xml version="1.0" encoding="UTF-8"?>
<svg width="19px" height="25px" viewBox="0 0 19 25" version="1.1" xmlns="http://www.w3.org/2000/svg" xmlns:xlink="http://www.w3.org/1999/xlink">
    <!-- Generator: Sketch 62 (91390) - https://sketch.com -->
    <title>add-to-order</title>
    <desc>Created with Sketch.</desc>
    <g id="Page-1" stroke="none" stroke-width="1" fill="none" fill-rule="evenodd">
        <g id="Artboard" transform="translate(-63.000000, -19.000000)">
            <g id="add-to-order" transform="translate(64.000000, 19.000000)">
                <g>
                    <path d="M4.41335279,4.16613416 L12.9785717,4.16613416 C13.4884429,4.16613416 13.9056103,4.59508385 13.9056103,5.11935569 L13.9056103,23.3894351 C13.9056103,23.913707 13.4884429,24.3426567 12.9785717,24.3426567 L1.08157597,24.3426567 C0.571627468,24.3426567 0.154537339,23.913707 0.154537339,23.3894351 L0.154537339,8.37222418 C0.154537339,8.27086496 0.194709013,8.1739541 0.265859227,8.10381289 L4.15239142,4.27392763 C4.22261459,4.20473963 4.31609099,4.16613416 4.41335279,4.16613416 Z" id="Fill-1" fill="#FFFFFF"></path>
                    <path d="M12.2691787,0.138546329 C15.3114041,0.138546329 17.7776588,2.67434903 17.7776588,5.80249779 C17.7776588,8.18740089 16.344136,10.2279999 14.3147683,11.0630535 L14.3147012,23.3894351 C14.3147012,24.0931489 13.7852202,24.6789793 13.1073235,24.7454655 L12.9785717,24.7517476 L1.08157597,24.7517476 C0.386563109,24.7517476 -0.183751364,24.2073319 -0.248442296,23.5199055 L-0.25455357,23.3894351 L-0.25455357,8.37222418 C-0.25455357,8.20388394 -0.200949369,8.04095098 -0.1029552,7.90704453 L-0.0212804267,7.81242622 L3.86527632,3.98251676 C3.98245579,3.86706466 4.13164385,3.79203287 4.29165045,3.76663824 L4.41335279,3.75704325 L7.13105508,3.75675691 C7.92883525,1.63967423 9.92849624,0.138546329 12.2691787,0.138546329 Z M4.77844643,4.57304325 L4.7787261,7.29865843 C4.7787261,8.01985559 4.24663841,8.62244805 3.55830879,8.71088715 L3.38318884,8.72205649 L0.56244643,8.72204325 L0.563628248,23.3894351 C0.563628248,23.6602274 0.755237928,23.8843394 0.998695038,23.9264539 L1.08157597,23.9335658 L12.9785717,23.9335658 C13.2317843,23.9335658 13.4487519,23.7365067 13.4896132,23.4777768 L13.4965194,23.3894351 L13.4973801,11.3251417 C13.1024393,11.4176155 12.6913549,11.4664493 12.2691787,11.4664493 C11.4007588,11.4664493 10.5792803,11.2598198 9.84870689,10.8917662 L2.22767382,10.8916681 L2.22767382,9.38240071 L8.00043868,9.38251621 C7.52492911,8.78376458 7.16620486,8.08310372 6.95999788,7.31727476 L5.36276395,7.31708738 L5.36276395,5.80781995 L6.76044643,5.80754633 C6.76080358,5.38044598 6.80569633,4.96917698 6.89083974,4.573464 L4.77844643,4.57304325 Z M11.9356223,20.106143 L11.9356223,21.6154104 L2.22767382,21.6154104 L2.22767382,20.106143 L11.9356223,20.106143 Z M11.9356223,16.5315622 L11.9356223,18.0408297 L2.22767382,18.0408297 L2.22767382,16.5315622 L11.9356223,16.5315622 Z M11.9356223,12.9569815 L11.9356223,14.4662489 L2.22767382,14.4662489 L2.22767382,12.9569815 L11.9356223,12.9569815 Z M3.96044643,5.03504325 L1.04944643,7.90304325 L3.38318884,7.90387467 C3.65796113,7.90387467 3.89391968,7.69656841 3.94861599,7.42068723 L3.96054428,7.29865843 L3.96044643,5.03504325 Z" id="color" fill="#2C2C2C"></path>
                    <path d="M13.0909097,2.45454545 L13.090637,5.07254545 L15.7090915,5.07272727 L15.7090915,6.38181818 L13.090637,6.38154545 L13.0909097,9 L11.7818188,9 L11.781637,6.38154545 L9.16363699,6.38181818 L9.16363699,5.07272727 L11.781637,5.07254545 L11.7818188,2.45454545 L13.0909097,2.45454545 Z" id="Combined-Shape" fill="#FFFFFF"></path>
                </g>
                <g>
                    <path d="M4.41335279,4.16613416 L12.9785717,4.16613416 C13.4884429,4.16613416 13.9056103,4.59508385 13.9056103,5.11935569 L13.9056103,23.3894351 C13.9056103,23.913707 13.4884429,24.3426567 12.9785717,24.3426567 L1.08157597,24.3426567 C0.571627468,24.3426567 0.154537339,23.913707 0.154537339,23.3894351 L0.154537339,8.37222418 C0.154537339,8.27086496 0.194709013,8.1739541 0.265859227,8.10381289 L4.15239142,4.27392763 C4.22261459,4.20473963 4.31609099,4.16613416 4.41335279,4.16613416 Z" id="Fill-1" fill="#FFFFFF"></path>
                    <path d="M12.2691787,0.138546329 C15.3114041,0.138546329 17.7776588,2.67434903 17.7776588,5.80249779 C17.7776588,8.18740089 16.344136,10.2279999 14.3147683,11.0630535 L14.3147012,23.3894351 C14.3147012,24.0931489 13.7852202,24.6789793 13.1073235,24.7454655 L12.9785717,24.7517476 L1.08157597,24.7517476 C0.386563109,24.7517476 -0.183751364,24.2073319 -0.248442296,23.5199055 L-0.25455357,23.3894351 L-0.25455357,8.37222418 C-0.25455357,8.20388394 -0.200949369,8.04095098 -0.1029552,7.90704453 L-0.0212804267,7.81242622 L3.86527632,3.98251676 C3.98245579,3.86706466 4.13164385,3.79203287 4.29165045,3.76663824 L4.41335279,3.75704325 L7.13105508,3.75675691 C7.92883525,1.63967423 9.92849624,0.138546329 12.2691787,0.138546329 Z M4.77844643,4.57304325 L4.7787261,7.29865843 C4.7787261,8.01985559 4.24663841,8.62244805 3.55830879,8.71088715 L3.38318884,8.72205649 L0.56244643,8.72204325 L0.563628248,23.3894351 C0.563628248,23.6602274 0.755237928,23.8843394 0.998695038,23.9264539 L1.08157597,23.9335658 L12.9785717,23.9335658 C13.2317843,23.9335658 13.4487519,23.7365067 13.4896132,23.4777768 L13.4965194,23.3894351 L13.4973801,11.3251417 C13.1024393,11.4176155 12.6913549,11.4664493 12.2691787,11.4664493 C11.4007588,11.4664493 10.5792803,11.2598198 9.84870689,10.8917662 L2.22767382,10.8916681 L2.22767382,9.38240071 L8.00043868,9.38251621 C7.52492911,8.78376458 7.16620486,8.08310372 6.95999788,7.31727476 L5.36276395,7.31708738 L5.36276395,5.80781995 L6.76044643,5.80754633 C6.76080358,5.38044598 6.80569633,4.96917698 6.89083974,4.573464 L4.77844643,4.57304325 Z M11.9356223,20.106143 L11.9356223,21.6154104 L2.22767382,21.6154104 L2.22767382,20.106143 L11.9356223,20.106143 Z M11.9356223,16.5315622 L11.9356223,18.0408297 L2.22767382,18.0408297 L2.22767382,16.5315622 L11.9356223,16.5315622 Z M11.9356223,12.9569815 L11.9356223,14.4662489 L2.22767382,14.4662489 L2.22767382,12.9569815 L11.9356223,12.9569815 Z M3.96044643,5.03504325 L1.04944643,7.90304325 L3.38318884,7.90387467 C3.65796113,7.90387467 3.89391968,7.69656841 3.94861599,7.42068723 L3.96054428,7.29865843 L3.96044643,5.03504325 Z" id="color" fill="#2C2C2C"></path>
                    <path d="M13.0909097,2.45454545 L13.090637,5.07254545 L15.7090915,5.07272727 L15.7090915,6.38181818 L13.090637,6.38154545 L13.0909097,9 L11.7818188,9 L11.781637,6.38154545 L9.16363699,6.38181818 L9.16363699,5.07272727 L11.781637,5.07254545 L11.7818188,2.45454545 L13.0909097,2.45454545 Z" id="Combined-Shape" fill="#FFFFFF"></path>
                </g>
            </g>
        </g>
    </g>
</svg>