<?xml version="1.0" encoding="UTF-8"?>
<svg width="36px" height="26px" viewBox="0 0 36 26" version="1.1" xmlns="http://www.w3.org/2000/svg" xmlns:xlink="http://www.w3.org/1999/xlink">
    <!-- Generator: Sketch 48.2 (47327) - http://www.bohemiancoding.com/sketch -->
    <title>Amex-Active</title>
    <desc>Created with Sketch.</desc>
    <defs></defs>
    <g id="Page-1" stroke="none" stroke-width="1" fill="none" fill-rule="evenodd">
        <g id="Amex-Color">
            <g>
                <g id="Group-3" fill="#0094E2">
                    <g id="Group">
                        <rect id="Rectangle-4" x="0" y="0" width="36" height="26" rx="2"></rect>
                    </g>
                </g>
                <path d="M8.07662835,13.3428571 L9.79310345,13.3428571 L8.9348659,11.0571429 L8.07662835,13.3428571 Z M32,9 L27.6015326,9 L26.5287356,10.2571429 L25.5632184,9 L16.2298851,9 L15.3716475,11.0571429 L14.51341,9 L10.7586207,9 L10.7586207,9.91428571 L10.3295019,9 L7.11111111,9 L4,17 L7.75478927,17 L8.18390805,15.7428571 L9.25670498,15.7428571 L9.68582375,17 L13.8697318,17 L13.8697318,16.0857143 L14.1915709,17 L16.3371648,17 L16.6590038,15.9714286 L16.6590038,17 L25.2413793,17 L26.3141762,15.7428571 L27.2796935,17 L31.6781609,17 L28.8888889,13 L32,9 Z M19.0191571,15.8571429 L17.8390805,15.8571429 L17.8390805,11.4 L16.0153257,15.8571429 L14.9425287,15.8571429 L13.1187739,11.4 L13.1187739,15.8571429 L10.651341,15.8571429 L10.2222222,14.6 L7.64750958,14.6 L7.2183908,15.8571429 L5.82375479,15.8571429 L8.07662835,10.1428571 L9.90038314,10.1428571 L11.9386973,15.5142857 L11.9386973,10.1428571 L13.9770115,10.1428571 L15.5862069,14.0285714 L17.0881226,10.1428571 L19.1264368,10.1428571 L19.1264368,15.8571429 L19.0191571,15.8571429 Z M29.6398467,15.8571429 L28.0306513,15.8571429 L26.6360153,13.9142857 L25.0268199,15.8571429 L20.1992337,15.8571429 L20.1992337,10.1428571 L25.1340996,10.1428571 L26.6360153,11.9714286 L28.2452107,10.1428571 L29.7471264,10.1428571 L27.3869732,13 L29.6398467,15.8571429 Z M21.3793103,11.2857143 L21.3793103,12.3142857 L24.0613027,12.3142857 L24.0613027,13.4571429 L21.3793103,13.4571429 L21.3793103,14.6 L24.3831418,14.6 L25.7777778,12.8857143 L24.4904215,11.2857143 L21.3793103,11.2857143 Z" id="Shape" fill="#FFFFFF"></path>
            </g>
        </g>
    </g>
</svg>