<?xml version="1.0" encoding="UTF-8"?>
<svg width="18px" height="16px" viewBox="0 0 18 16" version="1.1" xmlns="http://www.w3.org/2000/svg" xmlns:xlink="http://www.w3.org/1999/xlink">
    <!-- Generator: Sketch 62 (91390) - https://sketch.com -->
    <title>arrow</title>
    <desc>Created with Sketch.</desc>
    <g id="Page-1" stroke="none" stroke-width="1" fill="none" fill-rule="evenodd">
        <g id="Artboard" transform="translate(-135.000000, -20.000000)" fill="#2C2C2C">
            <g id="Back" transform="translate(135.000000, 19.000000)">
                <g id="Right">
                    <path d="M0.337482562,8.19448064 L0.457712765,8.09388149 L6.9098394,1.83034264 C7.36356595,1.38988579 8.09920205,1.38988579 8.5529286,1.83034264 C9.00665516,2.27079948 9.00665516,2.98492113 8.5529286,3.42537798 L3.99685469,7.84806579 L16.8381605,7.84806579 C17.4798267,7.84806579 18,8.35302605 18,8.9759261 C18,9.59882614 17.4798267,10.1037864 16.8381605,10.1037864 L3.94769994,10.1023404 L8.5529286,14.574622 C9.00665516,15.0150789 9.00665516,15.7292005 8.5529286,16.1696574 C8.09920205,16.6101142 7.36356595,16.6101142 6.9098394,16.1696574 L0.467792056,9.91472354 C0.422308131,9.88196229 0.378730431,9.84556089 0.337482562,9.80551936 C0.131243219,9.6053117 0.0187490312,9.34856173 0,9.08667155 L0,8.91332845 C0.0187490312,8.65143827 0.131243219,8.3946883 0.337482562,8.19448064 Z" id="Color" transform="translate(9.000000, 9.000000) rotate(-180.000000) translate(-9.000000, -9.000000) "></path>
                </g>
            </g>
        </g>
    </g>
</svg>