<?xml version="1.0" encoding="UTF-8"?>
<svg width="25px" height="18px" viewBox="0 0 25 18" version="1.1" xmlns="http://www.w3.org/2000/svg" xmlns:xlink="http://www.w3.org/1999/xlink">
    <!-- Generator: Sketch 62 (91390) - https://sketch.com -->
    <title>assigned-leads</title>
    <desc>Created with Sketch.</desc>
    <g id="Page-1" stroke="none" stroke-width="1" fill="none" fill-rule="evenodd">
        <g id="Artboard" transform="translate(-174.000000, -23.000000)">
            <g id="Assigned-Orders" transform="translate(174.000000, 23.000000)">
                <g id="Man-Color" transform="translate(6.352941, 0.000000)" fill="#2C2C2C">
                    <path d="M8.80223024,11.2519873 L9,11.25 C11.9728723,11.25 17.7476007,12.650928 17.991988,15.5582549 L18,15.75 L18,18 L0,18 L0,15.75 C0,12.7771277 5.71147578,11.312947 8.80223024,11.2519873 L8.80223024,11.2519873 Z M9,0 C11.475,0 13.5,2.025 13.5,4.5 C13.5,6.975 11.475,9 9,9 C6.525,9 4.5,6.975 4.5,4.5 C4.5,2.025 6.525,0 9,0 Z"></path>
                </g>
                <g id="Check-Color" transform="translate(0.188235, 4.295798)" fill="#5B9500">
                    <polygon points="2.63529412 6.41344538 0.658823529 3.87226891 -7.52339367e-14 4.71932773 2.63529412 8.10756303 8.28235294 0.847058824 7.62352941 9.40424209e-16"></polygon>
                </g>
            </g>
        </g>
    </g>
</svg>