<?xml version="1.0" encoding="UTF-8"?>
<svg width="28px" height="18px" viewBox="0 0 28 18" version="1.1" xmlns="http://www.w3.org/2000/svg" xmlns:xlink="http://www.w3.org/1999/xlink">
    <!-- Generator: Sketch 62 (91390) - https://sketch.com -->
    <title>assign-back</title>
    <desc>Created with Sketch.</desc>
    <g id="Page-1" stroke="none" stroke-width="1" fill="none" fill-rule="evenodd">
        <g id="Artboard" transform="translate(-1011.000000, -197.000000)" fill="#2C2C2C">
            <g id="assign-back" transform="translate(1011.000000, 197.000000)">
                <path d="M18.2887701,11.25 C21.4074866,11.25 27.5294118,12.7125 27.5294118,15.75 L27.5294118,15.75 L27.5294118,18 L9.04812834,18 L9.04812834,15.75 C9.04812834,12.7125 15.1700535,11.25 18.2887701,11.25 Z M8.48650323,2.57060101 C8.53547087,2.55754531 8.5897413,2.56958596 8.62815587,2.60800053 L8.62815587,2.60800053 L12.614871,6.59471561 C12.6721865,6.6520312 12.6721865,6.74497872 12.614871,6.80229431 L12.614871,6.80229431 L8.62815587,10.7890094 C8.5897413,10.827424 8.53547087,10.8394821 8.48650323,10.8264089 L8.48650323,10.8264089 L8.48650323,8.35982584 C8.09194444,8.29307724 7.26659991,8.25270256 7.19824123,8.25084746 C5.9818906,8.21785818 4.75950215,8.42611942 3.62325335,8.86152541 C2.98357634,9.10664363 2.37211085,9.42344572 1.80070503,9.8010811 C1.46918464,10.0201929 1.15948793,10.2703514 0.862076887,10.5334781 C0.713266359,10.6651027 0.56741349,10.800035 0.422715684,10.9361573 C0.331150744,11.022297 0.171927153,11.2647201 0.0254092488,11.1823606 C-0.152680359,11.0822377 0.661218551,9.95925463 0.733147431,9.85928924 C1.33656249,9.02052149 2.01684169,8.23247147 2.77958534,7.53453382 C3.68940692,6.7020314 4.7325332,5.98718784 5.90079123,5.57262547 C6.72912842,5.27866211 7.61056347,5.03840915 8.48650323,5.09115699 L8.48650323,5.09115699 Z M18.2887701,0 C20.8299465,0 22.9090909,2.025 22.9090909,4.5 C22.9090909,6.975 20.8299465,9 18.2887701,9 C15.7475936,9 13.6684492,6.975 13.6684492,4.5 C13.6684492,2.025 15.7475936,0 18.2887701,0 Z"></path>
            </g>
        </g>
    </g>
</svg>