<?xml version="1.0" encoding="UTF-8"?>
<svg width="10px" height="19px" viewBox="0 0 10 19" version="1.1" xmlns="http://www.w3.org/2000/svg" xmlns:xlink="http://www.w3.org/1999/xlink">
    <!-- Generator: Sketch 62 (91390) - https://sketch.com -->
    <title>attachment</title>
    <desc>Created with Sketch.</desc>
    <defs>
        <path d="M4.95,9.9 C2.25,9.9 0,7.65 0,4.95 C0,2.25 2.25,0 4.95,0 L14.4,0 C16.38,0 18,1.62 18,3.6 C18,5.58 16.38,7.2 14.4,7.2 L6.75,7.2 C5.49,7.2 4.5,6.21 4.5,4.95 C4.5,3.69 5.49,2.7 6.75,2.7 L13.5,2.7 L13.5,4.05 L6.75,4.05 C6.21,4.05 5.85,4.41 5.85,4.95 C5.85,5.49 6.21,5.85 6.75,5.85 L14.4,5.85 C15.66,5.85 16.65,4.86 16.65,3.6 C16.65,2.34 15.66,1.35 14.4,1.35 L4.95,1.35 C2.97,1.35 1.35,2.97 1.35,4.95 C1.35,6.93 2.97,8.55 4.95,8.55 L13.5,8.55 L13.5,9.9 L4.95,9.9 L4.95,9.9 Z" id="path-1"></path>
    </defs>
    <g id="Page-1" stroke="none" stroke-width="1" fill="none" fill-rule="evenodd">
        <g id="Artboard" transform="translate(-216.000000, -24.000000)">
            <g id="attachment" transform="translate(221.000000, 33.400000) rotate(90.000000) translate(-221.000000, -33.400000) translate(212.000000, 28.000000)">
                <g id="Support-Black-L" transform="translate(0.000000, 0.450000)">
                    <mask id="mask-2" fill="white">
                        <use xlink:href="#path-1"></use>
                    </mask>
                    <use id="Color" fill="#2C2C2C" fill-rule="evenodd" xlink:href="#path-1"></use>
                </g>
            </g>
        </g>
    </g>
</svg>