<?xml version="1.0" encoding="UTF-8"?>
<svg width="13px" height="11px" viewBox="0 0 13 11" version="1.1" xmlns="http://www.w3.org/2000/svg" xmlns:xlink="http://www.w3.org/1999/xlink">
    <!-- Generator: Sketch 48.2 (47327) - http://www.bohemiancoding.com/sketch -->
    <title>Back</title>
    <desc>Created with Sketch.</desc>
    <defs></defs>
    <g id="Page-1" stroke="none" stroke-width="1" fill="none" fill-rule="evenodd">
        <g id="Back" transform="translate(0.000000, -1.000000)">
            <g transform="translate(6.500000, 6.500000) rotate(90.000000) translate(-6.500000, -6.500000) translate(0.650000, 0.000000)" id="Sort-Inactive">
                <g>
                    <path d="M5.30399048,9.4009039 L5.30399048,0.78 C5.30399048,0.349217895 5.65320837,7.91333889e-17 6.08399048,0 C6.51477258,-7.91333889e-17 6.86399048,0.349217895 6.86399048,0.78 L6.86399048,9.43420172 L9.95590865,6.34228355 C10.2605176,6.03767461 10.7543863,6.03767461 11.0589952,6.34228355 C11.3636042,6.6468925 11.3636042,7.14076118 11.0589952,7.44537013 L6.73061228,11.7737531 C6.70864106,11.8030184 6.68434245,11.8310904 6.65771645,11.8577164 C6.50400459,12.0114283 6.30209932,12.087574 6.10063939,12.0861536 C5.89917946,12.087574 5.69727419,12.0114283 5.54356233,11.8577164 C5.51693633,11.8310904 5.49263772,11.8030184 5.4706665,11.7737531 L1.14228355,7.44537013 C0.837674606,7.14076118 0.837674606,6.6468925 1.14228355,6.34228355 C1.4468925,6.03767461 1.94076118,6.03767461 2.24537013,6.34228355 L5.30399048,9.4009039 Z" id="Combined-Shape" fill="#979797"></path>
                    <g id="Group-13" transform="translate(0.000000, 5.200000)"></g>
                </g>
            </g>
        </g>
    </g>
</svg>