<?xml version="1.0" encoding="UTF-8"?>
<svg width="18px" height="22px" viewBox="0 0 18 22" version="1.1" xmlns="http://www.w3.org/2000/svg" xmlns:xlink="http://www.w3.org/1999/xlink">
    <!-- Generator: Sketch 62 (91390) - https://sketch.com -->
    <title>calendar-schedule</title>
    <desc>Created with Sketch.</desc>
    <g id="Page-1" stroke="none" stroke-width="1" fill="none" fill-rule="evenodd">
        <g id="Artboard" transform="translate(-353.000000, -36.000000)">
            <g id="calendar-date-picked" transform="translate(353.000000, 36.000000)">
                <g id="Calendar-Color" transform="translate(0.000000, 0.000000)" fill="#2C2C2C">
                    <path d="M14,0 C14.5128358,0 14.9355072,0.389284225 14.9932723,0.890802226 L15,1.00840336 L15,3.02521008 L16,3.02521008 C17.045,3.02521008 17.9095,3.83518487 17.9933375,4.87586597 L18,5.04201681 L18,19.1596639 C18,20.2178229 17.191874,21.0856478 16.1640311,21.1697849 L16,21.1764706 L2,21.1764706 C0.950658975,21.1764706 0.0900658975,20.3615536 0.00662994231,19.3250734 L-3.01980663e-14,19.1596639 L-3.01980663e-14,5.04201681 C-3.01980663e-14,3.97865546 0.803225,3.11551261 1.83523375,3.03185672 L2,3.02521008 L3,3.02521008 L3,1.00840336 L3.00672773,0.890802226 C3.06449284,0.389284225 3.48716416,0 4,0 C4.51283584,0 4.93550716,0.389284225 4.99327227,0.890802226 L5,1.00840336 L5,3.02521008 L13,3.02521008 L13,1.00840336 L13.0067277,0.890802226 C13.0644928,0.389284225 13.4871642,0 14,0 Z M15.8823529,8.47058824 L2.11764706,8.47058824 L2.11764706,19.0588235 L15.8823529,19.0588235 L15.8823529,8.47058824 Z"></path>
                </g>
                <g id="Dot-Color" transform="translate(10.588235, 9.529412)" fill="#8DC63F">
                    <circle cx="2.11764706" cy="2.11764706" r="2.11764706"></circle>
                </g>
                <g id="Dot-Color" transform="translate(10.588235, 9.529412)" fill="#8DC63F">
                    <circle cx="2.11764706" cy="2.11764706" r="2.11764706"></circle>
                </g>
            </g>
        </g>
    </g>
</svg>