<?xml version="1.0" encoding="UTF-8"?>
<svg width="20px" height="22px" viewBox="0 0 20 22" version="1.1" xmlns="http://www.w3.org/2000/svg" xmlns:xlink="http://www.w3.org/1999/xlink">
    <!-- Generator: Sketch 48.2 (47327) - http://www.bohemiancoding.com/sketch -->
    <title>calendar-add</title>
    <desc>Created with Sketch.</desc>
    <defs></defs>
    <g id="Page-1" stroke="none" stroke-width="1" fill="none" fill-rule="evenodd">
        <g id="calendar-add" fill="#979797">
            <g>
                <g id="calendar-picker">
                    <g id="calendar-blank" transform="translate(0.000000, 1.074380)">
                        <path d="M7.89570894,17.8512397 C8.23820315,18.5941828 8.71040762,19.2650164 9.28329247,19.8347107 L1.98347107,19.8347107 C0.888030248,19.8347107 0,18.9466805 0,17.8512397 L0,3.96694215 C0,2.8661157 0.882644628,1.98347107 1.98347107,1.98347107 L2.97520661,1.98347107 L2.97520661,0 L4.95867769,0 L4.95867769,1.98347107 L12.892562,1.98347107 L12.892562,0 L14.8760331,0 L14.8760331,1.98347107 L15.8677686,1.98347107 C16.9586777,1.98347107 17.8512397,2.8661157 17.8512397,3.96694215 L17.8512397,9.3116177 C17.2500735,8.91341471 16.5821153,8.6079608 15.8677686,8.41565967 L15.8677686,6.94214876 L1.98347107,6.94214876 L1.98347107,17.8512397 L7.89570894,17.8512397 Z" id="Shape" fill-rule="nonzero"></path>
                        <path d="M14.0909091,9.09090909 C10.8409091,9.09090909 8.18181818,11.75 8.18181818,15 C8.18181818,18.25 10.8409091,20.9090909 14.0909091,20.9090909 C17.3409091,20.9090909 20,18.25 20,15 C20,11.75 17.3409091,9.09090909 14.0909091,9.09090909 L14.0909091,9.09090909 Z M14.0909091,19.7272727 C11.4909091,19.7272727 9.36363636,17.6 9.36363636,15 C9.36363636,12.4 11.4909091,10.2727273 14.0909091,10.2727273 C16.6909091,10.2727273 18.8181818,12.4 18.8181818,15 C18.8181818,17.6 16.6909091,19.7272727 14.0909091,19.7272727 L14.0909091,19.7272727 Z" id="Shape"></path>
                    </g>
                    <circle id="Oval-3" cx="13.8842975" cy="1.07438017" r="1"></circle>
                    <circle id="Oval-3" cx="3.96694215" cy="1.07438017" r="1"></circle>
                </g>
                <polygon id="Path" points="14.7272727 12.7272727 13.4545455 12.7272727 13.4545455 15.2727273 10.9090909 15.2727273 10.9090909 16.5454545 13.4545455 16.5454545 13.4545455 19.0909091 14.7272727 19.0909091 14.7272727 16.5454545 17.2727273 16.5454545 17.2727273 15.2727273 14.7272727 15.2727273"></polygon>
            </g>
        </g>
    </g>
</svg>