<?xml version="1.0" encoding="UTF-8"?>
<svg width="18px" height="21px" viewBox="0 0 18 21" version="1.1" xmlns="http://www.w3.org/2000/svg" xmlns:xlink="http://www.w3.org/1999/xlink">
    <!-- Generator: Sketch 62 (91390) - https://sketch.com -->
    <title>calendar-date-range-picker</title>
    <desc>Created with Sketch.</desc>
    <g id="Page-1" stroke="none" stroke-width="1" fill="none" fill-rule="evenodd">
        <g id="Artboard" transform="translate(-285.000000, -25.000000)">
            <g id="calendar-picker" transform="translate(285.000000, 25.000000)">
                <g id="Calendar-Color" fill="#2C2C2C">
                    <path d="M14,0 C14.5128358,0 14.9355072,0.38604019 14.9932723,0.883378875 L15,1 L15,3 L16,3 C17.05,3 17.9177686,3.81092975 17.9944872,4.85006292 L18,5 L18,19 C18,20.0543618 17.1841222,20.9181651 16.1492623,20.9945143 L16,21 L2,21 C0.945638205,21 0.0818348781,20.1841222 0.00548573643,19.1492623 L0,19 L0,5 C0,3.94045455 0.810929752,3.08136364 1.85006292,3.00545361 L2,3 L3,3 L3,1 L3.00672773,0.883378875 C3.06449284,0.38604019 3.48716416,0 4,0 C4.51283584,0 4.93550716,0.38604019 4.99327227,0.883378875 L5,1 L5,3 L13,3 L13,1 L13.0067277,0.883378875 C13.0644928,0.38604019 13.4871642,0 14,0 Z M16,8 L2,8 L2,19 L16,19 L16,8 Z"></path>
                </g>
                <ellipse id="Oval-3" fill="#8FA500" cx="9" cy="10.5" rx="1" ry="1.5"></ellipse>
                <ellipse id="Oval-3" fill="#8FA500" cx="14" cy="10.5" rx="1" ry="1.5"></ellipse>
                <rect id="Rectangle-3" fill="#8FA500" x="9" y="9" width="5" height="3"></rect>
                <ellipse id="Oval-3" fill="#8FA500" cx="4" cy="14.5" rx="1" ry="1.5"></ellipse>
                <ellipse id="Oval-3" fill="#8FA500" cx="9" cy="14.5" rx="1" ry="1.5"></ellipse>
                <rect id="Rectangle-3" fill="#8FA500" x="4" y="13" width="5" height="3"></rect>
                <rect id="Path" fill="#2C2C2C" x="4" y="14" width="1" height="1"></rect>
                <rect id="Path" fill="#2C2C2C" x="6" y="14" width="1" height="1"></rect>
                <rect id="Path" fill="#2C2C2C" x="8" y="14" width="1" height="1"></rect>
                <rect id="Path" fill="#2C2C2C" x="11" y="10" width="1" height="1"></rect>
                <rect id="Path" fill="#2C2C2C" x="9" y="10" width="1" height="1"></rect>
                <rect id="Path" fill="#2C2C2C" x="13" y="10" width="1" height="1"></rect>
            </g>
        </g>
    </g>
</svg>