<?xml version="1.0" encoding="UTF-8"?>
<svg width="18px" height="20px" viewBox="0 0 18 20" version="1.1" xmlns="http://www.w3.org/2000/svg" xmlns:xlink="http://www.w3.org/1999/xlink">
    <!-- Generator: Sketch 62 (91390) - https://sketch.com -->
    <title>calendar-add</title>
    <desc>Created with Sketch.</desc>
    <g id="Page-1" stroke="none" stroke-width="1" fill="none" fill-rule="evenodd">
        <g id="Artboard" transform="translate(-250.000000, -25.000000)" fill="#2C2C2C">
            <g id="calendar-add" transform="translate(250.000000, 25.000000)">
                <g id="Color" transform="translate(0.000000, 0.074380)">
                    <path d="M12.6818182,9.07438017 C15.6068182,9.07438017 18,11.467562 18,14.392562 C18,17.317562 15.6068182,19.7107438 12.6818182,19.7107438 C9.75681818,19.7107438 7.36363636,17.317562 7.36363636,14.392562 C7.36363636,11.467562 9.75681818,9.07438017 12.6818182,9.07438017 Z M12.4958678,-3.19744231e-15 C12.9536055,-3.19744231e-15 13.3308659,0.344564798 13.3824248,0.7884704 L13.3884298,0.892561983 L13.3884298,2.67768595 L14.2809917,2.67768595 C15.2181818,2.67768595 15.9927191,3.40149102 16.0611952,4.32898178 L16.0661157,4.46280992 L16.0664393,9.27323226 C15.5252814,8.91472861 14.9239775,8.63973632 14.2809044,8.46663218 L14.2809917,7.14049587 L1.78512397,7.14049587 L1.78512397,16.9586777 L7.10612091,16.9586405 C7.41440414,17.6273845 7.83945947,18.2312124 8.35514915,18.7439865 L1.78512397,18.7439865 C0.844040712,18.7439865 0.0730427011,18.0155802 0.00489635979,17.0919036 L1.08713039e-13,16.9586777 L1.08713039e-13,4.46280992 C1.08713039e-13,3.51709992 0.723805068,2.75030804 1.65129583,2.68255363 L1.78512397,2.67768595 L2.67768595,2.67768595 L2.67768595,0.892561983 L2.68369087,0.7884704 C2.73524981,0.344564798 3.11251016,-3.19744231e-15 3.57024793,-3.19744231e-15 C4.02798571,-3.19744231e-15 4.40524606,0.344564798 4.456805,0.7884704 L4.46280992,0.892561983 L4.46280992,2.67768595 L11.6033058,2.67768595 L11.6033058,0.892561983 L11.6093107,0.7884704 C11.6608696,0.344564798 12.03813,-3.19744231e-15 12.4958678,-3.19744231e-15 Z M12.6818182,10.1380165 C10.3418182,10.1380165 8.42727273,12.052562 8.42727273,14.392562 C8.42727273,16.732562 10.3418182,18.6471074 12.6818182,18.6471074 C15.0218182,18.6471074 16.9363636,16.732562 16.9363636,14.392562 C16.9363636,12.052562 15.0218182,10.1380165 12.6818182,10.1380165 Z M13.2545455,11.3801653 L13.2545455,13.6710744 L15.5454545,13.6710744 L15.5454545,14.8165289 L13.2545455,14.8165289 L13.2545455,17.107438 L12.1090909,17.107438 L12.1090909,14.8165289 L9.81818182,14.8165289 L9.81818182,13.6710744 L12.1090909,13.6710744 L12.1090909,11.3801653 L13.2545455,11.3801653 Z"></path>
                </g>
            </g>
        </g>
    </g>
</svg>