<?xml version="1.0" encoding="UTF-8"?>
<svg width="18px" height="18px" viewBox="0 0 18 18" version="1.1" xmlns="http://www.w3.org/2000/svg" xmlns:xlink="http://www.w3.org/1999/xlink">
    <!-- Generator: Sketch 62 (91390) - https://sketch.com -->
    <title>chat-bubble</title>
    <desc>Created with Sketch.</desc>
    <g id="Page-1" stroke="none" stroke-width="1" fill="none" fill-rule="evenodd">
        <g id="Artboard" transform="translate(-433.000000, -52.000000)" fill="#2C2C2C">
            <g id="chat-bubble" transform="translate(433.000000, 52.000000)">
                <g id="Color" transform="translate(0.000000, 0.000000)">
                    <path d="M16.7843297,0 L1.58294226,0 C0.908998164,0 0.367271985,0.538127462 0.367271985,1.2035148 L0.367271985,12.3642056 C0.367271985,12.8896071 0.706998572,13.3350167 1.18261579,13.5004545 L0,18 L5.86533361,13.5677204 L16.7843297,13.5677204 C17.4546011,13.5677204 18,13.029593 18,12.3642056 L18,1.2035148 C18,0.538127462 17.4546011,0 16.7843297,0"></path>
                </g>
                <g id="Color" transform="translate(0.000000, 0.000000)">
                    <path d="M16.7843297,0 L1.58294226,0 C0.908998164,0 0.367271985,0.538127462 0.367271985,1.2035148 L0.367271985,12.3642056 C0.367271985,12.8896071 0.706998572,13.3350167 1.18261579,13.5004545 L0,18 L5.86533361,13.5677204 L16.7843297,13.5677204 C17.4546011,13.5677204 18,13.029593 18,12.3642056 L18,1.2035148 C18,0.538127462 17.4546011,0 16.7843297,0"></path>
                </g>
            </g>
        </g>
    </g>
</svg>