<?xml version="1.0" encoding="UTF-8"?>
<svg width="18px" height="18px" viewBox="0 0 18 18" version="1.1" xmlns="http://www.w3.org/2000/svg" xmlns:xlink="http://www.w3.org/1999/xlink">
    <!-- Generator: Sketch 62 (91390) - https://sketch.com -->
    <title>circles-add</title>
    <desc>Created with Sketch.</desc>
    <g id="Page-1" stroke="none" stroke-width="1" fill="none" fill-rule="evenodd">
        <g id="Artboard" transform="translate(-770.000000, -65.000000)" fill="#2C2C2C">
            <g id="circles-add-white" transform="translate(770.000000, 65.000000)">
                <g id="Color">
                    <path d="M9,0 C13.95,0 18,4.05 18,9 C18,13.95 13.95,18 9,18 C4.05,18 0,13.95 0,9 C0,4.05 4.05,0 9,0 Z M9,1.8 C5.04,1.8 1.8,5.04 1.8,9 C1.8,12.96 5.04,16.2 9,16.2 C12.96,16.2 16.2,12.96 16.2,9 C16.2,5.04 12.96,1.8 9,1.8 Z M9.9,5.4 L9.9,8.1 L12.6,8.1 L12.6,9.9 L9.9,9.9 L9.9,12.6 L8.1,12.6 L8.1,9.9 L5.4,9.9 L5.4,8.1 L8.1,8.1 L8.1,5.4 L9.9,5.4 Z"></path>
                </g>
            </g>
        </g>
    </g>
</svg>