<?xml version="1.0" encoding="UTF-8"?>
<svg width="26px" height="27px" viewBox="0 0 26 27" version="1.1" xmlns="http://www.w3.org/2000/svg" xmlns:xlink="http://www.w3.org/1999/xlink">
    <!-- Generator: Sketch 48.2 (47327) - http://www.bohemiancoding.com/sketch -->
    <title>close-black-circle</title>
    <desc>Created with Sketch.</desc>
    <defs></defs>
    <g id="Page-1" stroke="none" stroke-width="1" fill="none" fill-rule="evenodd">
        <g id="close-white" fill="#191919">
            <g>
                <path d="M13,24.4980695 C7.16023938,24.4980695 2.40926641,19.5643668 2.40926641,13.5 C2.40926641,7.4356332 7.16023938,2.5019305 13,2.5019305 C18.8397606,2.5019305 23.5907336,7.4356332 23.5907336,13.5 C23.5907336,19.5643668 18.8397606,24.4980695 13,24.4980695 M13,0 C5.83183012,0 0,6.05613127 0,13.5 C0,20.9438687 5.83183012,27 13,27 C20.1681699,27 26,20.9438687 26,13.5 C26,6.05613127 20.1681699,0 13,0" id="Fill-1"></path>
                <polygon id="Fill-3" points="17.0356417 7.46624015 13.0251166 11.6311205 9.01459151 7.46624015 7.23996602 9.30912046 11.2504911 13.4738965 7.23996602 17.6387768 9.01459151 19.4815529 13.0251166 15.3167768 17.0356417 19.4815529 18.8102672 17.6387768 14.7997421 13.4738965 18.8102672 9.30912046"></polygon>
            </g>
        </g>
    </g>
</svg>