<?xml version="1.0" encoding="UTF-8"?>
<svg width="18px" height="18px" viewBox="0 0 18 18" version="1.1" xmlns="http://www.w3.org/2000/svg" xmlns:xlink="http://www.w3.org/1999/xlink">
    <!-- Generator: Sketch 62 (91390) - https://sketch.com -->
    <title>close-with-circle</title>
    <desc>Created with Sketch.</desc>
    <g id="Page-1" stroke="none" stroke-width="1" fill="none" fill-rule="evenodd">
        <g id="Artboard" transform="translate(-882.000000, -36.000000)" fill="#2C2C2C">
            <g id="close-white" transform="translate(882.000000, 36.000000)">
                <g>
                    <path d="M9,16.3320463 C4.9570888,16.3320463 1.66795367,13.0429112 1.66795367,9 C1.66795367,4.9570888 4.9570888,1.66795367 9,1.66795367 C13.0429112,1.66795367 16.3320463,4.9570888 16.3320463,9 C16.3320463,13.0429112 13.0429112,16.3320463 9,16.3320463 M9,0 C4.03742085,0 0,4.03742085 0,9 C0,13.9625792 4.03742085,18 9,18 C13.9625792,18 18,13.9625792 18,9 C18,4.03742085 13.9625792,0 9,0" id="Fill-1"></path>
                    <polygon id="Fill-3" points="11.7939058 4.97749344 9.01738842 7.75408031 6.24087104 4.97749344 5.01228417 6.20608031 7.78880154 8.98259768 5.01228417 11.7591846 6.24087104 12.9877019 9.01738842 10.2111846 11.7939058 12.9877019 13.0224927 11.7591846 10.2459753 8.98259768 13.0224927 6.20608031"></polygon>
                </g>
            </g>
        </g>
    </g>
</svg>