<svg width="24" height="18" xmlns="http://www.w3.org/2000/svg" xmlns:xlink="http://www.w3.org/1999/xlink">
  <defs>
    <path id="a" d="M23.265 13.942H0V0h23.265z"/>
  </defs>
  <g fill="none" fill-rule="evenodd">
    <path d="M11.2 8.433a.664.664 0 010-.855.493.493 0 01.756 0l2.502 2.83a.664.664 0 010 .855.493.493 0 01-.756 0l-2.501-2.83z" fill="#191919"/>
    <path d="M11.953 8.43a.664.664 0 000-.854.493.493 0 00-.755 0l-2.934 2.833a.664.664 0 000 .854.493.493 0 00.756 0l2.933-2.833z" fill="#191919"/>
    <path d="M12.065 8.607a.523.523 0 00-.51-.532c-.28 0-.51.24-.51.532v8.861c0 .293.23.532.51.532s.51-.24.51-.532V8.607z" fill="#2C2C2C"/>
    <g>
      <mask id="b" fill="#fff">
        <use xlink:href="#a"/>
      </mask>
      <path d="M18.921 4.535c-.249-1.194-.98-2.283-2.1-3.11C15.577.506 13.961 0 12.276 0c-1.301 0-2.569.301-3.655.87-.904.47-1.655 1.108-2.186 1.857a4.771 4.771 0 00-.708-.054c-2.034 0-3.69 1.337-3.69 2.979 0 .212.03.417.077.618C.8 7.042 0 8.286 0 9.61c0 1.07.493 2.11 1.392 2.932a5.465 5.465 0 003.445 1.399h4.152c.36 0 .646-.232.646-.522 0-.29-.287-.521-.646-.521H4.894c-1.956-.097-3.602-1.6-3.602-3.292 0-1.093.727-2.113 1.899-2.665.273-.128.388-.394.282-.634a1.572 1.572 0 01-.143-.664c0-1.066 1.076-1.935 2.397-1.935.282 0 .56.038.818.115.315.093.665-.023.808-.266.895-1.534 2.827-2.523 4.928-2.523 2.822 0 5.152 1.708 5.42 3.972.029.235.25.424.536.463 2.129.294 3.737 1.881 3.737 3.693 0 1.92-1.871 3.589-4.177 3.732h-3.526c-.359 0-.646.232-.646.521 0 .29.287.522.646.522h3.598c1.459-.085 2.822-.626 3.837-1.53 1.009-.896 1.56-2.047 1.56-3.245-.005-2.167-1.838-4.095-4.345-4.628" fill="#2C2C2C" mask="url(#b)"/>
    </g>
  </g>
</svg>
