<?xml version="1.0" encoding="UTF-8"?>
<svg width="32px" height="25px" viewBox="0 0 32 25" version="1.1" xmlns="http://www.w3.org/2000/svg" xmlns:xlink="http://www.w3.org/1999/xlink">
    <!-- Generator: Sketch 48.2 (47327) - http://www.bohemiancoding.com/sketch -->
    <title>cloud-upload </title>
    <desc>Created with Sketch.</desc>
    <defs>
        <polygon id="path-1" points="31.9895601 19.3634035 4.14360463e-05 19.3634035 4.14360463e-05 2.07406667e-05 31.9895601 2.07406667e-05"></polygon>
    </defs>
    <g id="Page-1" stroke="none" stroke-width="1" fill="none" fill-rule="evenodd">
        <g id="cloud-upload-">
            <g id="Cloud-Upload-Icon">
                <path d="M15.4010706,11.7119154 C15.115531,11.3855841 15.115531,10.8514537 15.4010706,10.5251224 C15.6866103,10.198791 16.153895,10.198791 16.4394346,10.5251224 L19.8793032,14.4563089 C20.1648429,14.7826402 20.1648429,15.3167706 19.8793032,15.6431019 C19.5936589,15.9694333 19.1263742,15.9694333 18.8408346,15.6431019 L15.4010706,11.7119154 Z" id="Fill-1" fill="#191919"></path>
                <path d="M16.4352242,11.7088513 C16.7207639,11.3825199 16.7207639,10.8483896 16.4352242,10.5220582 C16.1496846,10.1957269 15.6823998,10.1957269 15.3968602,10.5220582 L11.3636874,14.4563089 C11.0781478,14.7826402 11.0781478,15.3167706 11.3636874,15.6431019 C11.6493317,15.9694333 12.1166165,15.9694333 12.4021561,15.6431019 L16.4352242,11.7088513 Z" id="Fill-3" fill="#191919"></path>
                <path d="M16.588785,11.9538113 C16.588785,11.5474342 16.2734447,11.2149533 15.8878991,11.2149533 C15.5023535,11.2149533 15.1869159,11.5474342 15.1869159,11.9538113 L15.1869159,24.261142 C15.1869159,24.667519 15.5023535,25 15.8878991,25 C16.2734447,25 16.588785,24.667519 16.588785,24.261142 L16.588785,11.9538113 Z" id="Fill-5" fill="#191919"></path>
                <g id="Group-9">
                    <mask id="mask-2" fill="white">
                        <use xlink:href="#path-1"></use>
                    </mask>
                    <g id="Clip-8"></g>
                    <path d="M26.0164918,6.29906492 C25.6744373,4.64095232 24.6681629,3.12802439 23.1289174,1.97982108 C21.418541,0.702818232 19.1951863,2.07406667e-05 16.87974,2.07406667e-05 C15.0903244,2.07406667e-05 13.3471099,0.418359988 11.8538584,1.20712754 C10.6104662,1.86191039 9.57787996,2.74712205 8.84777682,3.7878887 C8.53203415,3.73977035 8.20313553,3.71280749 7.87423691,3.71280749 C5.07844327,3.71280749 2.80215407,5.56909716 2.80215407,7.84932605 C2.80215407,8.14467315 2.84172549,8.42892398 2.90740163,8.70798965 C1.09851102,9.78100805 4.14360463e-05,11.5087056 4.14360463e-05,13.3488175 C4.14360463e-05,14.8350937 0.677417204,16.278333 1.91438678,17.4213511 C3.18378006,18.5907099 4.86131839,19.2829297 6.65042328,19.3634035 L12.3604141,19.3634035 C12.8538138,19.3634035 13.2485957,19.0417157 13.2485957,18.6392431 C13.2485957,18.2368742 12.8538138,17.9148753 12.3604141,17.9148753 L6.72946254,17.9148753 C4.03912364,17.7807869 1.77630115,15.6935499 1.77630115,13.3436324 C1.77630115,11.8252082 2.77615295,10.4086206 4.38760079,9.64152706 C4.76280419,9.46440177 4.92046835,9.09438828 4.77564937,8.76160428 C4.64419351,8.47185716 4.57841379,8.16613974 4.57841379,7.83874831 C4.57841379,6.35796841 6.05850936,5.15075791 7.87423691,5.15075791 C8.2621819,5.15075791 8.64380788,5.20447624 8.99901839,5.31160178 C9.43306097,5.44050502 9.91320116,5.27945375 10.1107475,4.94148458 C11.3409837,2.81152182 13.9981738,1.43797116 16.886059,1.43797116 C20.7671663,1.43797116 23.9708978,3.80945899 24.3392643,6.95353666 C24.3787321,7.28072068 24.6813188,7.54360863 25.0761008,7.59743066 C28.0032467,8.00498476 30.2137562,10.2101324 30.2137562,12.7265975 C30.2137562,15.3931213 27.6416136,17.7107871 24.4710309,17.909379 L19.6228063,17.909379 C19.1295102,17.909379 18.7346247,18.2313779 18.7346247,18.6337468 C18.7346247,19.0361157 19.1295102,19.3582183 19.6228063,19.3582183 L24.5695451,19.3582183 C26.5756713,19.2399965 28.4506524,18.4888733 29.8452861,17.2334407 C31.2331865,15.9885859 31.9896015,14.3897916 31.9896015,12.7265975 C31.9832825,9.71650457 29.4636601,7.03940302 26.0164918,6.29906492" id="Fill-7" fill="#191919" mask="url(#mask-2)"></path>
                </g>
            </g>
        </g>
    </g>
</svg>