<?xml version="1.0" encoding="UTF-8"?>
<svg width="18px" height="18px" viewBox="0 0 18 18" version="1.1" xmlns="http://www.w3.org/2000/svg" xmlns:xlink="http://www.w3.org/1999/xlink">
    <!-- Generator: Sketch 62 (91390) - https://sketch.com -->
    <title>comment</title>
    <desc>Created with Sketch.</desc>
    <defs>
        <polygon id="path-1" points="1.07320183e-15 13.9087045 1.07320183e-15 0.468659091 13.4406636 0.468659091 13.4406636 13.9087045"></polygon>
    </defs>
    <g id="Page-1" stroke="none" stroke-width="1" fill="none" fill-rule="evenodd">
        <g id="Artboard" transform="translate(-743.000000, -17.000000)">
            <g id="comment" transform="translate(743.000000, 17.000000)">
                <g id="Page-1">
                    <g id="Group-3" transform="translate(0.000000, 4.090909)">
                        <mask id="mask-2" fill="white">
                            <use xlink:href="#path-1"></use>
                        </mask>
                        <g id="Clip-2"></g>
                        <path d="M6.72025455,8.86897727 C10.4332091,8.86897727 13.4406636,10.3719318 13.4406636,12.2295682 L13.4406636,13.9087045 L-0.000154545455,13.9087045 L-0.000154545455,12.2295682 C-0.000154545455,10.3719318 3.0073,8.86897727 6.72025455,8.86897727 M6.72025455,0.468659091 C8.57557273,0.468659091 10.0800727,1.97315909 10.0800727,3.82847727 C10.0800727,5.68456818 8.57557273,7.18829545 6.72025455,7.18829545 C4.86493636,7.18829545 3.36043636,5.68456818 3.36043636,3.82847727 C3.36043636,1.97315909 4.86493636,0.468659091 6.72025455,0.468659091" id="Fill-1" fill="#2C2C2C" mask="url(#mask-2)"></path>
                    </g>
                    <path d="M17.5026803,0 L11.2839309,0 C11.0082265,0 10.7866113,0.220143053 10.7866113,0.492346962 L10.7866113,5.05808412 C10.7866113,5.27302109 10.9255903,5.45523409 11.120161,5.5229132 L10.6363636,7.36363636 L13.0358183,5.55043109 L17.5026803,5.55043109 C17.7768823,5.55043109 18,5.33028803 18,5.05808412 L18,0.492346962 C18,0.220143053 17.7768823,0 17.5026803,0" id="Fill-4" fill="#2C2C2C"></path>
                </g>
            </g>
        </g>
    </g>
</svg>