<?xml version="1.0" encoding="UTF-8"?>
<svg width="16px" height="23px" viewBox="0 0 16 23" version="1.1" xmlns="http://www.w3.org/2000/svg" xmlns:xlink="http://www.w3.org/1999/xlink">
    <!-- Generator: Sketch 62 (91390) - https://sketch.com -->
    <title>compliance-check</title>
    <desc>Created with Sketch.</desc>
    <g id="Page-1" stroke="none" stroke-width="1" fill="none" fill-rule="evenodd">
        <g id="Artboard" transform="translate(-655.000000, -216.000000)">
            <g id="compliance-check" transform="translate(654.000000, 215.000000)">
                <polygon id="Shape" fill="#8DC63F" points="7.61703704 15.1610714 5.57925926 13.1960714 4.9 13.8510714 7.61703704 16.4710714 13.4392593 10.8567857 12.76 10.2017857"></polygon>
                <path d="M15,22 L3,22 L3,5 L5,5 L5,6.476 C5,6.764 5.236,7 5.524,7 L12.476,7 C12.764,7 13,6.764 13,6.476 L13,5 L15,5 L15,22 Z M16.476,3 L11,3 L11,1.524 C11,1.235 10.764,1 10.476,1 L7.524,1 C7.236,1 7,1.235 7,1.524 L7,3 L1.524,3 C1.236,3 1,3.235 1,3.524 L1,23.476 C1,23.764 1.236,24 1.524,24 L16.476,24 C16.764,24 17,23.764 17,23.476 L17,3.524 C17,3.235 16.764,3 16.476,3 L16.476,3 Z" id="clipboard-color" fill="#2C2C2C"></path>
            </g>
        </g>
    </g>
</svg>