<?xml version="1.0" encoding="UTF-8"?>
<svg width="25px" height="21px" viewBox="0 0 25 21" version="1.1" xmlns="http://www.w3.org/2000/svg" xmlns:xlink="http://www.w3.org/1999/xlink">
    <!-- Generator: Sketch 48.2 (47327) - http://www.bohemiancoding.com/sketch -->
    <title>Compare</title>
    <desc>Created with Sketch.</desc>
    <defs></defs>
    <g id="Page-1" stroke="none" stroke-width="1" fill="none" fill-rule="evenodd">
        <g id="Compare" fill="#191919">
            <g id="Compare_Icon">
                <path d="M23.9,18.7788462 L13.3,18.7788462 C13.5,18.5769231 13.6,18.2740385 13.6,17.9711538 L13.6,4.24038462 C13.6,4.24038462 13.6,4.13942308 13.6,4.13942308 C13.9,3.9375 14.2,3.63461538 14.4,3.33173077 L20.5,3.33173077 C20.5,3.33173077 20.5,3.43269231 20.4,3.43269231 L19.8,4.74519231 C19.8,4.84615385 19.8,4.84615385 19.7,4.94711538 C19.6,5.14903846 19.6,5.35096154 19.5,5.55288462 C19.4,5.85576923 19.3,6.15865385 19.2,6.46153846 C19.1,6.76442308 19,7.16826923 18.8,7.47115385 C18.7,7.875 18.5,8.17788462 18.4,8.58173077 C18.3,8.98557692 18.1,9.28846154 18,9.69230769 C17.9,9.99519231 17.8,10.3990385 17.6,10.7019231 C17.5,11.0048077 17.4,11.2067308 17.3,11.5096154 C17.2,11.7115385 17.1,11.9134615 17.1,12.1153846 C17.1,12.2163462 17.1,12.3173077 17.1,12.4182692 C17.1,13.0240385 17.4,13.5288462 17.7,13.9326923 C18,14.3365385 18.3,14.6394231 18.7,14.8413462 C19.1,15.0432692 19.6,15.2451923 20,15.3461538 C20.2,15.3461538 20.4,15.3461538 20.6,15.3461538 C22.5,15.3461538 24,13.9326923 24.1,12.2163462 L21.5,4.74519231 L21,3.33173077 C21,3.33173077 21.0666667,3.33173077 21.2,3.33173077 C21.8,3.33173077 22.3,2.82692308 22.3,2.22115385 C22.3,1.61538462 21.8,1.11057692 21.2,1.11057692 L14.5,1.11057692 C14.1,0.504807692 13.4,0 12.6,0 C11.8,0 11.1,0.403846154 10.7,1.11057692 L4,1.11057692 C3.4,1.11057692 2.9,1.61538462 2.9,2.22115385 C2.9,2.82692308 3.4,3.33173077 4,3.33173077 L4.1,3.33173077 C4.1,3.33173077 4.1,3.43269231 4,3.43269231 L3.4,4.64423077 C3.4,4.74519231 3.4,4.74519231 3.3,4.84615385 C3.2,5.04807692 3.2,5.25 3.1,5.45192308 C3,5.75480769 2.9,6.05769231 2.8,6.36057692 C2.7,6.66346154 2.6,7.06730769 2.4,7.37019231 C2.3,7.77403846 2.1,8.07692308 2,8.48076923 C1.9,8.88461538 1.7,9.1875 1.6,9.59134615 C1.5,9.89423077 1.4,10.2980769 1.2,10.6009615 C1.1,10.9038462 1,11.1057692 0.9,11.4086538 C0.8,11.6105769 0.7,11.8125 0.7,12.0144231 C0.7,12.1153846 0.7,12.2163462 0.7,12.3173077 C0.7,12.9230769 1,13.4278846 1.3,13.8317308 C1.6,14.2355769 1.9,14.5384615 2.3,14.7403846 C2.7,14.9423077 3.2,15.1442308 3.6,15.2451923 C3.8,15.2451923 4,15.2451923 4.2,15.2451923 C6.1,15.2451923 7.6,13.8317308 7.7,12.1153846 L5,4.74519231 L4.5,3.33173077 C4.5,3.33173077 6.56666667,3.33173077 10.7,3.33173077 C10.9,3.63461538 11.2,3.9375 11.5,4.13942308 C11.5,4.13942308 11.5,4.24038462 11.5,4.24038462 L11.5,17.9711538 C11.5,18.2740385 11.6,18.5769231 11.8,18.7788462 L1.1,18.7788462 C0.5,18.7788462 0,19.2836538 0,19.8894231 C0,20.4951923 0.5,21 1.1,21 L23.9,21 C24.5,21 25,20.4951923 25,19.8894231 C25,19.1826923 24.5,18.7788462 23.9,18.7788462 Z M22.8,11.8125 C22.8,11.9134615 22.8,12.1153846 22.5,12.2163462 L18.7,12.2163462 C18.4,12.2163462 18.4,11.8125 18.4,11.8125 L20.6,5.65384615 L22.8,11.8125 Z M6.4,11.8125 C6.4,11.9134615 6.4,12.1153846 6.1,12.2163462 L2.3,12.2163462 C2,12.2163462 2,11.8125 2,11.8125 L4.2,5.65384615 L6.4,11.8125 Z" id="Shape" fill-rule="nonzero"></path>
            </g>
        </g>
    </g>
</svg>