<svg width="22" height="18" xmlns="http://www.w3.org/2000/svg">
  <path d="M20.65 16.096H11.49c.173-.173.26-.433.26-.692V3.634v-.086c.259-.173.518-.433.69-.692h5.271s0 .086-.086.086l-.519 1.125c0 .087 0 .087-.086.173-.087.173-.087.347-.173.52l-.26.778c-.086.26-.172.606-.345.866-.086.346-.259.606-.345.952-.087.346-.26.606-.346.952-.086.26-.173.605-.346.865-.086.26-.172.433-.259.692-.086.173-.173.347-.173.52v.26c0 .518.26.951.519 1.297s.518.606.864.78c.345.172.777.345 1.123.432h.518c1.642 0 2.938-1.212 3.024-2.683l-2.246-6.404-.432-1.211h.173a.96.96 0 00.95-.952.96.96 0 00-.95-.952h-5.789C12.182.432 11.578 0 10.886 0c-.69 0-1.296.346-1.641.952H3.456a.96.96 0 00-.95.952c0 .52.432.952.95.952h.086s0 .086-.086.086l-.518 1.039c0 .086 0 .086-.087.173-.086.173-.086.346-.173.52l-.259.778c-.086.26-.173.606-.345.865-.087.346-.26.606-.346.952-.086.346-.26.606-.346.952-.086.26-.172.606-.345.866-.087.26-.173.432-.26.692-.086.173-.172.346-.172.52v.259c0 .519.259.952.518 1.298.26.346.519.606.864.779.346.173.778.346 1.123.432h.519c1.641 0 2.937-1.211 3.024-2.682L4.32 4.067l-.432-1.211h5.357c.173.26.432.519.691.692v11.856c0 .26.086.52.26.692H.95a.96.96 0 00-.95.952c0 .52.432.952.95.952h19.7a.96.96 0 00.95-.952c0-.606-.432-.952-.95-.952zm-.95-5.971c0 .087 0 .26-.26.346h-3.283c-.26 0-.26-.346-.26-.346l1.901-5.279 1.901 5.279zm-14.17 0c0 .087 0 .26-.26.346H1.987c-.259 0-.259-.346-.259-.346l1.9-5.279 1.902 5.279z" fill-rule="nonzero" fill="#2C2C2C"/>
</svg>
