<?xml version="1.0" encoding="UTF-8"?>
<svg width="24px" height="17px" viewBox="0 0 24 17" version="1.1" xmlns="http://www.w3.org/2000/svg" xmlns:xlink="http://www.w3.org/1999/xlink">
    <!-- Generator: Sketch 48.2 (47327) - http://www.bohemiancoding.com/sketch -->
    <title>create-contact</title>
    <desc>Created with Sketch.</desc>
    <defs></defs>
    <g id="Page-1" stroke="none" stroke-width="1" fill="none" fill-rule="evenodd">
        <g id="person-add" fill="#686868">
            <g id="Shape">
                <path d="M15.2727273,8.5 C17.6727273,8.5 19.6363636,6.5875 19.6363636,4.25 C19.6363636,1.9125 17.6727273,0 15.2727273,0 C12.8727273,0 10.9090909,1.9125 10.9090909,4.25 C10.9090909,6.5875 12.8727273,8.5 15.2727273,8.5 L15.2727273,8.5 Z M5.45454545,6.375 L5.45454545,3.1875 L3.27272727,3.1875 L3.27272727,6.375 L0,6.375 L0,8.5 L3.27272727,8.5 L3.27272727,11.6875 L5.45454545,11.6875 L5.45454545,8.5 L8.72727273,8.5 L8.72727273,6.375 L5.45454545,6.375 L5.45454545,6.375 Z M15.2727273,10.625 C12.3272727,10.625 6.54545455,12.00625 6.54545455,14.875 L6.54545455,17 L24,17 L24,14.875 C24,12.00625 18.2181818,10.625 15.2727273,10.625 L15.2727273,10.625 Z"></path>
            </g>
        </g>
    </g>
</svg>