<?xml version="1.0" encoding="UTF-8"?>
<svg width="21px" height="23px" viewBox="0 0 21 23" version="1.1" xmlns="http://www.w3.org/2000/svg" xmlns:xlink="http://www.w3.org/1999/xlink">
    <!-- Generator: Sketch 48.2 (47327) - http://www.bohemiancoding.com/sketch -->
    <title>Create-Notes</title>
    <desc>Created with Sketch.</desc>
    <defs></defs>
    <g id="Page-1" stroke="none" stroke-width="1" fill="none" fill-rule="evenodd">
        <g id="Notes" transform="translate(0.000000, -1.000000)">
            <g id="Group-4" transform="translate(0.954545, 1.000000)">
                <g id="compliance-check" fill="#686868">
                    <path d="M13.3636364,21 L1.90909091,21 L1.90909091,4 L3.81818182,4 L3.81818182,5.476 C3.81818182,5.764 4.04345455,6 4.31836364,6 L10.9543636,6 C11.2292727,6 11.4545455,5.764 11.4545455,5.476 L11.4545455,4 L13.3636364,4 L13.3636364,21 Z M14.7725455,2 L9.54545455,2 L9.54545455,0.524 C9.54545455,0.235 9.32018182,0 9.04527273,0 L6.22745455,0 C5.95254545,0 5.72727273,0.235 5.72727273,0.524 L5.72727273,2 L0.500181818,2 C0.225272727,2 0,2.235 0,2.524 L0,22.476 C0,22.764 0.225272727,23 0.500181818,23 L14.7725455,23 C15.0474545,23 15.2727273,22.764 15.2727273,22.476 L15.2727273,2.524 C15.2727273,2.235 15.0474545,2 14.7725455,2 Z" id="Page-1"></path>
                </g>
                <polygon id="Fill-9" fill="#CECECE" points="2.86363636 8.9223301 12.4090909 8.9223301 12.4090909 8 2.86363636 8"></polygon>
                <polygon id="Fill-10" fill="#CECECE" points="2.86363636 11.9223301 12.4090909 11.9223301 12.4090909 11 2.86363636 11"></polygon>
                <polygon id="Fill-11" fill="#CECECE" points="2.86363636 14.9223301 12.4090909 14.9223301 12.4090909 14 2.86363636 14"></polygon>
                <g id="create" transform="translate(6.681818, 3.000000)" fill="#8FA500">
                    <g id="Shape">
                        <path d="M0,10.2555556 L0,13 L2.61969697,13 L10.2030303,4.98333333 L7.58333333,2.23888889 L0,10.2555556 L0,10.2555556 Z M12.2022727,2.88888889 C12.4780303,2.6 12.4780303,2.16666667 12.2022727,1.87777778 L10.6166667,0.216666667 C10.3409091,-0.0722222222 9.92727273,-0.0722222222 9.65151515,0.216666667 L8.41060606,1.51666667 L11.030303,4.26111111 L12.2022727,2.88888889 L12.2022727,2.88888889 Z"></path>
                    </g>
                </g>
                <polygon id="Fill-12" fill="#CECECE" points="2.86363636 17.9223301 12.4090909 17.9223301 12.4090909 17 2.86363636 17"></polygon>
            </g>
        </g>
    </g>
</svg>