<?xml version="1.0" encoding="UTF-8"?>
<svg width="25px" height="25px" viewBox="0 0 25 25" version="1.1" xmlns="http://www.w3.org/2000/svg" xmlns:xlink="http://www.w3.org/1999/xlink">
    <!-- Generator: Sketch 48.2 (47327) - http://www.bohemiancoding.com/sketch -->
    <title>currency-exchange</title>
    <desc>Created with Sketch.</desc>
    <defs>
        <polygon id="path-1" points="25 0.0003125 25 25 0.0003125 25 0.0003125 0.0003125 25 0.0003125"></polygon>
    </defs>
    <g id="Page-1" stroke="none" stroke-width="1" fill="none" fill-rule="evenodd">
        <g id="currency-exchange">
            <g id="Page-1">
                <path d="M13.6363636,13.6363636 L13.6363636,17.0454545 C14.3094265,16.9872237 14.7973515,16.8824083 15.1037867,16.7310081 C15.6400482,16.4637934 15.9090909,16.0018289 15.9090909,15.3451147 C15.9090909,14.8449766 15.6582883,14.4503011 15.1557712,14.159794 C14.8584562,13.9909246 14.352291,13.8162322 13.6363636,13.6363636" id="Fill-1" fill="#666666"></path>
                <path d="M9.09090909,7.31356909 C9.09090909,7.85700557 9.3697195,8.28800692 9.92827907,8.60513165 C10.2380684,8.780271 10.715895,8.94171632 11.3636364,9.09090909 L11.3636364,5.68181818 C10.592918,5.69479147 10.0202771,5.84542572 9.64852991,6.13372093 C9.2767827,6.42201614 9.09090909,6.81481837 9.09090909,7.31356909" id="Fill-3" fill="#666666"></path>
                <g id="Group-7">
                    <mask id="mask-2" fill="white">
                        <use xlink:href="#path-1"></use>
                    </mask>
                    <g id="Clip-6"></g>
                    <path d="M16.0010938,18.8346875 C15.1682813,19.3260938 14.1792188,19.6135938 13.03625,19.6979688 L13.03625,21.8135938 L11.9635938,21.8135938 L11.9635938,19.7190625 C10.5104688,19.5651563 9.426875,19.2628125 8.71125,18.814375 C7.45109375,18.0065625 6.8315625,16.6315625 6.8534375,14.6870313 L9.839375,14.6870313 C9.9425,15.5714063 10.0870313,16.164375 10.270625,16.4667188 C10.558125,16.93625 11.1229688,17.2417188 11.9635938,17.3823438 L11.9635938,12.8878125 L11.0675,12.6339063 C9.65890625,12.2417188 8.66515625,11.6940625 8.08625,10.9925 C7.50734375,10.2909375 7.21828125,9.44484375 7.21828125,8.45578125 C7.21828125,7.80265625 7.33,7.2096875 7.555,6.67609375 C7.78078125,6.14328125 8.095625,5.68390625 8.50109375,5.2971875 C9.02453125,4.79953125 9.60734375,4.45578125 10.2495313,4.2659375 C10.6401563,4.14640625 11.21125,4.05890625 11.9635938,4.00265625 L11.9635938,2.60265625 L13.03625,2.60265625 L13.03625,4.02375 C14.2323438,4.11515625 15.1721875,4.395625 15.855,4.8659375 C17.0948438,5.6175 17.7378125,6.8346875 17.7815625,8.51828125 L14.8721875,8.51828125 C14.8135938,7.8940625 14.7057813,7.4378125 14.545625,7.1503125 C14.2675,6.651875 13.7659375,6.3784375 13.03625,6.32921875 L13.03625,10.339375 C14.783125,10.9151563 15.958125,11.4245313 16.56125,11.8667188 C17.5510938,12.6026563 18.0471875,13.6425 18.0471875,14.9815625 C18.0471875,16.7503125 17.3651563,18.0354688 16.0010938,18.8346875 M12.5003125,0.0003125 C5.59640625,0.0003125 0.0003125,5.59640625 0.0003125,12.5003125 C0.0003125,19.4042187 5.59640625,25.0003125 12.5003125,25.0003125 C19.4034375,25.0003125 25.0003125,19.4042187 25.0003125,12.5003125 C25.0003125,5.59640625 19.4034375,0.0003125 12.5003125,0.0003125" id="Fill-5" fill="#666666" mask="url(#mask-2)"></path>
                </g>
            </g>
        </g>
    </g>
</svg>