<?xml version="1.0" encoding="UTF-8"?>
<svg width="18px" height="18px" viewBox="0 0 18 18" version="1.1" xmlns="http://www.w3.org/2000/svg" xmlns:xlink="http://www.w3.org/1999/xlink">
    <!-- Generator: Sketch 62 (91390) - https://sketch.com -->
    <title>currency-exchange</title>
    <desc>Created with Sketch.</desc>
    <defs>
        <polygon id="path-1" points="18 0.000225 18 18 0.000225 18 0.000225 0.000225 18 0.000225"></polygon>
    </defs>
    <g id="Page-1" stroke="none" stroke-width="1" fill="none" fill-rule="evenodd">
        <g id="Artboard" transform="translate(-824.000000, -200.000000)">
            <g id="currency-exchange" transform="translate(824.000000, 200.000000)">
                <g id="Page-1">
                    <path d="M9.81818182,9.81818182 L9.81818182,12.2727273 C10.3027871,12.2308011 10.6540931,12.1553339 10.8747264,12.0463259 C11.2608347,11.8539312 11.4545455,11.5213168 11.4545455,11.0484825 C11.4545455,10.6883832 11.2739676,10.4042168 10.9121553,10.1950517 C10.6980884,10.0734657 10.3336495,9.94768716 9.81818182,9.81818182" id="Fill-1" fill="#2C2C2C"></path>
                    <path d="M6.54545455,5.76395772 C6.54545455,6.22305285 6.74619804,6.58716279 7.14836093,6.85506977 C7.37140926,7.00302748 7.71544441,7.13941649 8.18181818,7.26545455 L8.18181818,4.38545455 C7.62690098,4.39641438 7.21459953,4.52367019 6.94694153,4.76722199 C6.67928354,5.01077378 6.54545455,5.34261311 6.54545455,5.76395772" id="Fill-3" fill="#2C2C2C"></path>
                    <g id="Group-7">
                        <mask id="mask-2" fill="white">
                            <use xlink:href="#path-1"></use>
                        </mask>
                        <g id="Clip-6"></g>
                        <path d="M11.5207875,13.560975 C10.9211625,13.9147875 10.2090375,14.1217875 9.3861,14.1825375 L9.3861,15.7057875 L8.6137875,15.7057875 L8.6137875,14.197725 C7.5675375,14.0869125 6.78735,13.869225 6.2721,13.54635 C5.3647875,12.964725 4.918725,11.974725 4.934475,10.5746625 L7.08435,10.5746625 C7.1586,11.2114125 7.2626625,11.63835 7.39485,11.8560375 C7.60185,12.1941 8.0085375,12.4140375 8.6137875,12.5152875 L8.6137875,9.279225 L7.9686,9.0964125 C6.9544125,8.8140375 6.2389125,8.419725 5.8221,7.9146 C5.4052875,7.409475 5.1971625,6.8002875 5.1971625,6.0881625 C5.1971625,5.6179125 5.2776,5.190975 5.4396,4.8067875 C5.6021625,4.4231625 5.82885,4.0924125 6.1207875,3.813975 C6.4976625,3.4556625 6.9172875,3.2081625 7.3796625,3.071475 C7.6609125,2.9854125 8.0721,2.9224125 8.6137875,2.8819125 L8.6137875,1.8739125 L9.3861,1.8739125 L9.3861,2.8971 C10.2472875,2.9629125 10.923975,3.16485 11.4156,3.503475 C12.3082875,4.0446 12.771225,4.920975 12.802725,6.1331625 L10.707975,6.1331625 C10.6657875,5.683725 10.5881625,5.355225 10.47285,5.148225 C10.2726,4.78935 9.911475,4.592475 9.3861,4.5570375 L9.3861,7.44435 C10.64385,7.8589125 11.48985,8.2256625 11.9241,8.5440375 C12.6367875,9.0739125 12.993975,9.8226 12.993975,10.786725 C12.993975,12.060225 12.5029125,12.9855375 11.5207875,13.560975 M9.000225,0.000225 C4.0294125,0.000225 0.000225,4.0294125 0.000225,9.000225 C0.000225,13.9710375 4.0294125,18.000225 9.000225,18.000225 C13.970475,18.000225 18.000225,13.9710375 18.000225,9.000225 C18.000225,4.0294125 13.970475,0.000225 9.000225,0.000225" id="Fill-5" fill="#2C2C2C" mask="url(#mask-2)"></path>
                    </g>
                </g>
            </g>
        </g>
    </g>
</svg>