<?xml version="1.0" encoding="UTF-8"?>
<svg width="29px" height="18px" viewBox="0 0 29 18" version="1.1" xmlns="http://www.w3.org/2000/svg" xmlns:xlink="http://www.w3.org/1999/xlink">
    <!-- Generator: Sketch 62 (91390) - https://sketch.com -->
    <title>customers</title>
    <desc>Created with Sketch.</desc>
    <g id="Page-1" stroke="none" stroke-width="1" fill="none" fill-rule="evenodd">
        <g id="Artboard" transform="translate(-732.000000, -281.000000)" fill="#2C2C2C">
            <g id="customers" transform="translate(732.000000, 281.000000)">
                <path d="M19.3779904,7.71428571 C21.5741627,7.71428571 23.2535885,6.04285714 23.2535885,3.85714286 C23.2535885,1.67142857 21.5741627,0 19.3779904,0 C17.1818182,0 15.5023923,1.67142857 15.5023923,3.85714286 C15.5023923,6.04285714 17.1818182,7.71428571 19.3779904,7.71428571 L19.3779904,7.71428571 Z M9.0430622,7.71428571 C11.2392344,7.71428571 12.9186603,6.04285714 12.9186603,3.85714286 C12.9186603,1.67142857 11.2392344,0 9.0430622,0 C6.84688995,0 5.16746411,1.67142857 5.16746411,3.85714286 C5.16746411,6.04285714 6.84688995,7.71428571 9.0430622,7.71428571 L9.0430622,7.71428571 Z M9.0430622,10.2857143 C6.07177033,10.2857143 0,11.8285714 0,14.7857143 L0,18 L18.0861244,18 L18.0861244,14.7857143 C18.0861244,11.8285714 12.0143541,10.2857143 9.0430622,10.2857143 L9.0430622,10.2857143 Z M19.3779904,10.2857143 C18.9904306,10.2857143 18.6028708,10.2857143 18.0861244,10.4142857 C19.6363636,11.4428571 20.6698565,12.9857143 20.6698565,14.7857143 L20.6698565,18 L28.4210526,18 L28.4210526,14.7857143 C28.4210526,11.8285714 22.3492823,10.2857143 19.3779904,10.2857143 L19.3779904,10.2857143 Z" id="Shape"></path>
            </g>
        </g>
    </g>
</svg>