<?xml version="1.0" encoding="UTF-8"?>
<svg width="30px" height="19px" viewBox="0 0 30 19" version="1.1" xmlns="http://www.w3.org/2000/svg" xmlns:xlink="http://www.w3.org/1999/xlink">
    <!-- Generator: Sketch 48.2 (47327) - http://www.bohemiancoding.com/sketch -->
    <title>customers</title>
    <desc>Created with Sketch.</desc>
    <defs></defs>
    <g id="Page-1" stroke="none" stroke-width="1" fill="none" fill-rule="evenodd">
        <g id="customers" fill="#979797">
            <g id="people">
                <g id="Shape">
                    <path d="M20.4545455,8.14285714 C22.7727273,8.14285714 24.5454545,6.37857143 24.5454545,4.07142857 C24.5454545,1.76428571 22.7727273,0 20.4545455,0 C18.1363636,0 16.3636364,1.76428571 16.3636364,4.07142857 C16.3636364,6.37857143 18.1363636,8.14285714 20.4545455,8.14285714 L20.4545455,8.14285714 Z M9.54545455,8.14285714 C11.8636364,8.14285714 13.6363636,6.37857143 13.6363636,4.07142857 C13.6363636,1.76428571 11.8636364,0 9.54545455,0 C7.22727273,0 5.45454545,1.76428571 5.45454545,4.07142857 C5.45454545,6.37857143 7.22727273,8.14285714 9.54545455,8.14285714 L9.54545455,8.14285714 Z M9.54545455,10.8571429 C6.40909091,10.8571429 0,12.4857143 0,15.6071429 L0,19 L19.0909091,19 L19.0909091,15.6071429 C19.0909091,12.4857143 12.6818182,10.8571429 9.54545455,10.8571429 L9.54545455,10.8571429 Z M20.4545455,10.8571429 C20.0454545,10.8571429 19.6363636,10.8571429 19.0909091,10.9928571 C20.7272727,12.0785714 21.8181818,13.7071429 21.8181818,15.6071429 L21.8181818,19 L30,19 L30,15.6071429 C30,12.4857143 23.5909091,10.8571429 20.4545455,10.8571429 L20.4545455,10.8571429 Z"></path>
                </g>
            </g>
        </g>
    </g>
</svg>