<?xml version="1.0" encoding="UTF-8"?>
<svg width="36px" height="26px" viewBox="0 0 36 26" version="1.1" xmlns="http://www.w3.org/2000/svg" xmlns:xlink="http://www.w3.org/1999/xlink">
    <!-- Generator: Sketch 48.2 (47327) - http://www.bohemiancoding.com/sketch -->
    <title>Discover-Inactive</title>
    <desc>Created with Sketch.</desc>
    <defs></defs>
    <g id="Page-1" stroke="none" stroke-width="1" fill="none" fill-rule="evenodd">
        <g id="Discover-Inactive">
            <g>
                <g id="Group-3" fill="#F4F4F4">
                    <g id="Group">
                        <rect id="Rectangle-4" x="0" y="0" width="36" height="26" rx="2"></rect>
                    </g>
                </g>
                <g id="Group-4" transform="translate(2.000000, 10.000000)">
                    <g id="Discover_Card" fill="#979797">
                        <path d="M2.66091332,4.04563039 C2.3422003,4.33429825 1.93189734,4.45898911 1.27985696,4.45898911 L1.00899094,4.45898911 L1.00899094,1.02692613 L1.27985696,1.02692613 C1.93189734,1.02692613 2.32648487,1.14377985 2.66091332,1.44691627 C3.00965582,1.75819126 3.2176601,2.24017516 3.2176601,2.73793381 C3.2176601,3.23669722 3.00965582,3.73556111 2.66091332,4.04563039 Z M1.48215564,0.148262548 L0,0.148262548 L0,5.33745174 L1.47444807,5.33745174 C2.25671635,5.33745174 2.82247198,5.15136998 3.31875939,4.7387146 C3.90763774,4.24849165 4.25688073,3.50928891 4.25688073,2.74536905 C4.25688073,1.21330932 3.11666091,0.148262548 1.48215564,0.148262548 Z" id="Fill-266"></path>
                        <polygon id="Fill-267" points="4.69724771 5.33745174 5.72477064 5.33745174 5.72477064 0.148262548 4.69724771 0.148262548"></polygon>
                        <path d="M8.07431563,2.20089183 C7.47742198,1.97838217 7.30174892,1.83163104 7.30174892,1.55580247 C7.30174892,1.2326124 7.61450619,0.986769504 8.04322742,0.986769504 C8.34127947,0.986769504 8.58584006,1.10969095 8.84648757,1.40100882 L9.36551265,0.717791962 C8.93758096,0.340190783 8.42556306,0.148262548 7.86706089,0.148262548 C6.96609493,0.148262548 6.27771312,0.779054104 6.27771312,1.61636958 C6.27771312,2.32440902 6.59846451,2.68542871 7.53120952,3.02460453 C7.9212432,3.16232023 8.1195169,3.2541638 8.21909787,3.3169153 C8.41776634,3.44768068 8.51754469,3.6315664 8.51754469,3.84672858 C8.51754469,4.26255654 8.18860181,4.56966157 7.7446819,4.56966157 C7.2707594,4.56966157 6.88901591,4.33156333 6.65955531,3.88565039 L6.01834862,4.50919375 C6.47598682,5.18486454 7.02639619,5.48571429 7.78386292,5.48571429 C8.81559674,5.48571429 9.5412844,4.79276697 9.5412844,3.80115431 C9.5412844,2.98598058 9.20582781,2.6166205 8.07431563,2.20089183" id="Fill-268"></path>
                        <path d="M9.83486239,2.67119801 C9.83486239,4.17376543 11.0200285,5.33745174 12.5437567,5.33745174 C12.9745095,5.33745174 13.3437687,5.25270674 13.7981651,5.03911374 L13.7981651,3.86682438 C13.3975134,4.26543243 13.0435531,4.42582495 12.5894547,4.42582495 C11.5818151,4.42582495 10.8658476,3.69812546 10.8658476,2.66388047 C10.8658476,1.68412147 11.6041674,0.910539047 12.5437567,0.910539047 C13.0200087,0.910539047 13.3822146,1.07894131 13.7981651,1.484768 L13.7981651,0.312577533 C13.3596636,0.0911725675 12.9974578,0 12.5666057,0 C11.0506262,0 9.83486239,1.18722109 9.83486239,2.67119801" id="Fill-269"></path>
                        <polyline id="Fill-270" points="21.940954 3.64428588 20.5959411 0.148262548 19.5229358 0.148262548 21.6620195 5.48571429 22.1905219 5.48571429 24.3669725 0.148262548 23.3018698 0.148262548 21.940954 3.64428588"></polyline>
                        <polyline id="Fill-271" points="24.8073394 5.33745174 27.5963303 5.33745174 27.5963303 4.45898911 25.789938 4.45898911 25.789938 3.05734737 27.5272253 3.05734737 27.5272253 2.17868378 25.789938 2.17868378 25.789938 1.02692613 27.5963303 1.02692613 27.5963303 0.148262548 24.8073394 0.148262548 24.8073394 5.33745174"></polyline>
                        <path d="M29.5958351,2.53668016 L29.3106974,2.53668016 L29.3106974,0.964229039 L29.6114977,0.964229039 C30.2231185,0.964229039 30.5544658,1.22958645 30.5544658,1.73457938 C30.5544658,2.25554801 30.2231185,2.53668016 29.5958351,2.53668016 Z M31.5624192,1.67971942 C31.5624192,0.707613054 30.9153873,0.148262548 29.7845649,0.148262548 L28.3302752,0.148262548 L28.3302752,5.33745174 L29.3106974,5.33745174 L29.3106974,3.25186912 L29.4390142,3.25186912 L30.794464,5.33745174 L32,5.33745174 L30.4168098,3.15159396 C31.156261,2.99545408 31.5624192,2.4738826 31.5624192,1.67971942 Z" id="Fill-272"></path>
                    </g>
                    <circle id="Oval-2" fill="#D8D8D8" cx="16.9428693" cy="2.74285714" r="2.74285714"></circle>
                </g>
            </g>
        </g>
    </g>
</svg>