<?xml version="1.0" encoding="UTF-8"?>
<svg width="17px" height="21px" viewBox="0 0 17 21" version="1.1" xmlns="http://www.w3.org/2000/svg" xmlns:xlink="http://www.w3.org/1999/xlink">
    <!-- Generator: Sketch 62 (91390) - https://sketch.com -->
    <title>download</title>
    <desc>Created with Sketch.</desc>
    <g id="Page-1" stroke="none" stroke-width="1" fill="none" fill-rule="evenodd">
        <g id="Artboard" transform="translate(-388.000000, -135.000000)" fill="#2C2C2C">
            <g id="Download" transform="translate(388.000000, 135.000000)">
                <g id="Rename">
                    <path d="M0.989010989,16.8131868 L0.989010989,18.7912088 L15.8241758,18.7912088 L15.8241758,16.8131868 L16.8131868,16.8131868 L16.8131868,20.7692308 L-1.04941696e-13,20.7692308 L-1.04941696e-13,16.8131868 L0.989010989,16.8131868 Z M10.8850549,0.000197802198 C11.0521978,0.000197802198 11.1886813,0.136681319 11.1886813,0.304813187 L11.1886813,0.304813187 L11.1886813,7.4523956 L15.7836264,7.4523956 C15.841978,7.54140659 15.838022,7.67294505 15.7707692,7.75602198 L15.7707692,7.75602198 L8.53516484,16.7975604 C8.46494505,16.8875604 8.34824176,16.8875604 8.27802198,16.7975604 L8.27802198,16.7975604 L1.04241758,7.75602198 C0.975164835,7.67294505 0.971208791,7.54140659 1.02956044,7.4523956 L1.02956044,7.4523956 L5.62549451,7.4523956 L5.62549451,0.304813187 C5.62549451,0.136681319 5.76098901,0.000197802198 5.92813187,0.000197802198 L5.92813187,0.000197802198 Z" id="Combined-Shape"></path>
                </g>
            </g>
        </g>
    </g>
</svg>