<?xml version="1.0" encoding="UTF-8"?>
<svg width="13px" height="15px" viewBox="0 0 13 15" version="1.1" xmlns="http://www.w3.org/2000/svg" xmlns:xlink="http://www.w3.org/1999/xlink">
    <!-- Generator: Sketch 61.2 (89653) - https://sketch.com -->
    <title>Download</title>
    <desc>Created with Sketch.</desc>
    <g id="Page-1" stroke="none" stroke-width="1" fill="none" fill-rule="evenodd">
        <g id="Artboard" transform="translate(-343.000000, -132.000000)" fill="#2C2C2C">
            <g id="Download" transform="translate(343.000000, 132.000000)">
                <g id="Rename">
                    <path d="M0.714285714,12.1428571 L0.714285714,13.5714286 L11.4285714,13.5714286 L11.4285714,12.1428571 L12.1428571,12.1428571 L12.1428571,15 L-7.54951657e-14,15 L-7.54951657e-14,12.1428571 L0.714285714,12.1428571 Z M7.86142857,0.000142857143 C7.98214286,0.000142857143 8.08071429,0.0987142857 8.08071429,0.220142857 L8.08071429,0.220142857 L8.08071429,5.38228571 L11.3992857,5.38228571 C11.4414286,5.44657143 11.4385714,5.54157143 11.39,5.60157143 L11.39,5.60157143 L6.16428571,12.1315714 C6.11357143,12.1965714 6.02928571,12.1965714 5.97857143,12.1315714 L5.97857143,12.1315714 L0.752857143,5.60157143 C0.704285714,5.54157143 0.701428571,5.44657143 0.743571429,5.38228571 L0.743571429,5.38228571 L4.06285714,5.38228571 L4.06285714,0.220142857 C4.06285714,0.0987142857 4.16071429,0.000142857143 4.28142857,0.000142857143 L4.28142857,0.000142857143 Z" id="Combined-Shape"></path>
                </g>
            </g>
        </g>
    </g>
</svg>