<?xml version="1.0" encoding="UTF-8"?>
<svg width="23px" height="19px" viewBox="0 0 23 19" version="1.1" xmlns="http://www.w3.org/2000/svg" xmlns:xlink="http://www.w3.org/1999/xlink">
    <!-- Generator: Sketch 62 (91390) - https://sketch.com -->
    <title>email-outlined</title>
    <desc>Created with Sketch.</desc>
    <g id="Page-1" stroke="none" stroke-width="1" fill="none" fill-rule="evenodd">
        <g id="Artboard" transform="translate(-199.000000, -323.000000)" fill="#2C2C2C">
            <g id="email-outline" transform="translate(199.000000, 323.000000)">
                <path d="M20.251125,-0.0003375 C21.488625,-0.0003375 22.5,1.0121625 22.5,2.2485375 L22.5,2.2485375 L22.5,15.8216625 C22.5,17.0580375 21.488625,18.0705375 20.251125,18.0705375 L20.251125,18.0705375 L2.248875,18.0705375 C1.011375,18.0705375 0,17.0580375 0,15.8216625 L0,15.8216625 L0,2.2485375 C0,1.0121625 1.011375,-0.0003375 2.248875,-0.0003375 L2.248875,-0.0003375 Z M20.20275,2.2395375 L2.296125,2.2395375 L2.296125,15.8329125 L20.20275,15.8329125 L20.20275,2.2395375 Z M18.7459875,3.8122875 L18.7459875,6.4717875 L11.2456125,11.1495375 L3.7531125,6.4717875 L3.7531125,3.8122875 L11.2501125,8.4979125 L18.7459875,3.8122875 Z" id="color"></path>
            </g>
        </g>
    </g>
</svg>