<?xml version="1.0" encoding="UTF-8"?>
<svg width="18px" height="18px" viewBox="0 0 18 18" version="1.1" xmlns="http://www.w3.org/2000/svg" xmlns:xlink="http://www.w3.org/1999/xlink">
    <!-- Generator: Sketch 62 (91390) - https://sketch.com -->
    <title>excel</title>
    <desc>Created with Sketch.</desc>
    <g id="Page-1" stroke="none" stroke-width="1" fill="none" fill-rule="evenodd">
        <g id="Artboard" transform="translate(-280.000000, -301.000000)" fill="#2C2C2C">
            <g id="Excel-Speadsheet" transform="translate(280.000000, 301.000000)">
                <path d="M15.7386857,15.1071429 L11.1056143,15.1071429 L8.7894,11.7379286 L6.6834,15.1071429 L2.26118571,15.1071429 L6.6834,9 L2.26118571,2.89285714 L6.6834,2.89285714 L8.7894,6.26207143 L11.1056143,2.89285714 L15.7386857,2.89285714 L11.1056143,9 L15.7386857,15.1071429 Z M16.7145429,0 L1.28597143,0 C0.575614286,0 0.000257142857,0.576 0.000257142857,1.28571429 L0.000257142857,16.7142857 C0.000257142857,17.424 0.575614286,18 1.28597143,18 L16.7145429,18 C17.4242571,18 18.0002571,17.424 18.0002571,16.7142857 L18.0002571,1.28571429 C18.0002571,0.576 17.4242571,0 16.7145429,0 L16.7145429,0 Z" id="color"></path>
            </g>
        </g>
    </g>
</svg>