<?xml version="1.0" encoding="UTF-8"?>
<svg width="17px" height="21px" viewBox="0 0 17 21" version="1.1" xmlns="http://www.w3.org/2000/svg" xmlns:xlink="http://www.w3.org/1999/xlink">
    <!-- Generator: Sketch 49.3 (51167) - http://www.bohemiancoding.com/sketch -->
    <title>Export-Black</title>
    <desc>Created with Sketch.</desc>
    <defs></defs>
    <g id="Page-1" stroke="none" stroke-width="1" fill="none" fill-rule="evenodd">
        <g id="Export-Black" fill="#191919">
            <g id="Page-1">
                <path d="M15.7836264,7.5352 L11.1886813,7.5352 L11.1886813,0.3082 C11.1886813,0.1382 11.0521978,0.0002 10.8850549,0.0002 L5.92813187,0.0002 C5.76098901,0.0002 5.62549451,0.1382 5.62549451,0.3082 L5.62549451,7.5352 L1.02956044,7.5352 C0.971208791,7.6252 0.975164835,7.7582 1.04241758,7.8422 L8.27802198,16.9842 C8.34824176,17.0752 8.46494505,17.0752 8.53516484,16.9842 L15.7707692,7.8422 C15.838022,7.7582 15.841978,7.6252 15.7836264,7.5352" id="Fill-1"></path>
                <polygon id="Fill-3" points="15.8241758 17 15.8241758 19 0.989010989 19 0.989010989 17 0 17 0 21 0.989010989 21 15.8241758 21 16.8131868 21 16.8131868 17"></polygon>
            </g>
        </g>
    </g>
</svg>