<?xml version="1.0" encoding="UTF-8"?>
<svg width="18px" height="18px" viewBox="0 0 18 18" version="1.1" xmlns="http://www.w3.org/2000/svg" xmlns:xlink="http://www.w3.org/1999/xlink">
    <!-- Generator: Sketch 62 (91390) - https://sketch.com -->
    <title>Export-gray</title>
    <desc>Created with Sketch.</desc>
    <g id="Page-1" stroke="none" stroke-width="1" fill="none" fill-rule="evenodd">
        <g id="Artboard" transform="translate(-1075.000000, -70.000000)" fill="#979797">
            <g id="Export-gray" transform="translate(1072.000000, 67.000000)">
                <path d="M9.16318806,15.7787808 L9.16318806,11.1053609 C9.16318806,10.9954285 9.07367858,10.9061893 8.96406191,10.9061893 L5.71318155,10.9061893 C5.60356487,10.9061893 5.51470402,10.9954285 5.51470402,11.1053609 L5.51470402,15.7787808 L2.50056974,15.7787808 C2.46230119,15.8369803 2.46489567,15.9229862 2.50900179,15.9773058 L7.25430121,21.8890817 C7.30035319,21.9479279 7.37689027,21.9479279 7.42294225,21.8890817 L12.1682417,15.9773058 C12.2123478,15.9229862 12.2149423,15.8369803 12.1766737,15.7787808 L9.16318806,15.7787808 Z" id="Fill-1" transform="translate(7.338622, 16.419703) rotate(45.000000) translate(-7.338622, -16.419703) "></path>
                <path d="M18.2442691,6.69769973 L18.2442691,2.02427984 C18.2442691,1.91434745 18.1547597,1.82510822 18.045143,1.82510822 L14.7942626,1.82510822 C14.684646,1.82510822 14.5957851,1.91434745 14.5957851,2.02427984 L14.5957851,6.69769973 L11.5816508,6.69769973 C11.5433823,6.75589923 11.5459767,6.84190516 11.5900829,6.89622469 L16.3353823,12.8080006 C16.3814343,12.8668468 16.4579714,12.8668468 16.5040233,12.8080006 L21.2493228,6.89622469 C21.2934289,6.84190516 21.2960233,6.75589923 21.2577548,6.69769973 L18.2442691,6.69769973 Z" id="Fill-1" transform="translate(16.419703, 7.338622) scale(-1, -1) rotate(45.000000) translate(-16.419703, -7.338622) "></path>
            </g>
        </g>
    </g>
</svg>