<?xml version="1.0" encoding="UTF-8"?>
<svg width="19px" height="20px" viewBox="0 0 19 20" version="1.1" xmlns="http://www.w3.org/2000/svg" xmlns:xlink="http://www.w3.org/1999/xlink">
    <!-- Generator: Sketch 49.3 (51167) - http://www.bohemiancoding.com/sketch -->
    <title>Export White</title>
    <desc>Created with Sketch.</desc>
    <defs></defs>
    <g id="Page-1" stroke="none" stroke-width="1" fill="none" fill-rule="evenodd">
        <g id="Export-White" fill="#FFFFFF">
            <g>
                <path d="M17.5401123,7.1261465 L12.4338173,7.1261465 L12.4338173,0.291469152 C12.4338173,0.130697718 12.2821452,0.000189142863 12.0964018,0.000189142863 L6.58784592,0.000189142863 C6.40210251,0.000189142863 6.25152946,0.130697718 6.25152946,0.291469152 L6.25152946,7.1261465 L1.1441354,7.1261465 C1.07929007,7.21126079 1.08368637,7.3370408 1.15842336,7.4164808 L9.1992443,16.0622011 C9.27727851,16.1482611 9.40696917,16.1482611 9.48500338,16.0622011 L17.5258243,7.4164808 C17.6005613,7.3370408 17.6049576,7.21126079 17.5401123,7.1261465" id="Fill-1"></path>
                <polygon id="Fill-3" points="17.5851743 16.0771434 17.5851743 17.968572 1.09907339 17.968572 1.09907339 16.0771434 0 16.0771434 0 19.8600006 1.09907339 19.8600006 17.5851743 19.8600006 18.6842477 19.8600006 18.6842477 16.0771434"></polygon>
            </g>
        </g>
    </g>
</svg>