<?xml version="1.0" encoding="UTF-8"?>
<svg width="32px" height="32px" viewBox="0 0 32 32" version="1.1" xmlns="http://www.w3.org/2000/svg" xmlns:xlink="http://www.w3.org/1999/xlink">
    <!-- Generator: Sketch 52.3 (67297) - http://www.bohemiancoding.com/sketch -->
    <title>post-facebook</title>
    <desc>Created with Sketch.</desc>
    <g id="Symbols" stroke="none" stroke-width="1" fill="none" fill-rule="evenodd">
        <g id="footer-2" transform="translate(-934.000000, -179.000000)" fill="#2C2C2C">
            <g id="footer" transform="translate(-1.000000, 0.000000)">
                <g id="post-facebook" transform="translate(935.000000, 179.000000)">
                    <g id="Shape">
                        <path d="M28.8,0 L3.2,0 C1.44,0 0,1.44 0,3.2 L0,28.8 C0,30.56 1.44,32 3.2,32 L28.8,32 C30.56,32 32,30.56 32,28.8 L32,3.2 C32,1.44 30.56,0 28.8,0 L28.8,0 Z M27.2,3.2 L27.2,8 L24,8 C23.04,8 22.4,8.64 22.4,9.6 L22.4,12.8 L27.2,12.8 L27.2,17.6 L22.4,17.6 L22.4,28.8 L17.6,28.8 L17.6,17.6 L14.4,17.6 L14.4,12.8 L17.6,12.8 L17.6,8.8 C17.6,5.76 20.16,3.2 23.2,3.2 L27.2,3.2 L27.2,3.2 Z"></path>
                    </g>
                </g>
            </g>
        </g>
    </g>
</svg>