<?xml version="1.0" encoding="UTF-8"?>
<svg width="19px" height="18px" viewBox="0 0 19 18" version="1.1" xmlns="http://www.w3.org/2000/svg" xmlns:xlink="http://www.w3.org/1999/xlink">
    <!-- Generator: Sketch 62 (91390) - https://sketch.com -->
    <title>favorite-heart</title>
    <desc>Created with Sketch.</desc>
    <g id="Page-1" stroke="none" stroke-width="1" fill="none" fill-rule="evenodd">
        <g id="Artboard" transform="translate(-462.000000, -140.000000)" fill="#9E0000">
            <g id="favorite-heart" transform="translate(462.000000, 140.000000)">
                <path d="M13.7368421,0 C12.0884211,0 10.5063158,0.767368421 9.47368421,1.97052632 C8.44105263,0.767368421 6.85894737,0 5.21052632,0 C2.29263158,0 0,2.28315789 0,5.21052632 C0,8.78210526 3.22105263,11.7094737 8.1,16.1336842 L8.99715789,16.9550526 L8.99905263,16.9550526 C9.12031579,17.0753684 9.288,17.1511579 9.47368421,17.1511579 C9.62242105,17.1511579 9.75221053,17.0933684 9.86494737,17.0118947 C9.87063158,17.0128421 9.88010526,17.0109474 9.88673684,17.0109474 L9.94263158,16.9588421 C9.94736842,16.9541053 9.95210526,16.9522105 9.95684211,16.9474737 L10.8473684,16.1336842 C15.7263158,11.7094737 18.9473684,8.78210526 18.9473684,5.21052632 C18.9473684,2.28315789 16.6547368,0 13.7368421,0" id="color"></path>
            </g>
        </g>
    </g>
</svg>