<?xml version="1.0" encoding="UTF-8"?>
<svg width="22px" height="20px" viewBox="0 0 22 20" version="1.1" xmlns="http://www.w3.org/2000/svg" xmlns:xlink="http://www.w3.org/1999/xlink">
    <!-- Generator: Sketch 48.2 (47327) - http://www.bohemiancoding.com/sketch -->
    <title>favorite-heart</title>
    <desc>Created with Sketch.</desc>
    <defs>
        <polygon id="path-1" points="0 10.0049526 0 0.000221052632 21.9390582 0.000221052632 21.9390582 10.0049526 21.9390582 20.0096842 0 20.0096842"></polygon>
    </defs>
    <g id="Page-1" stroke="none" stroke-width="1" fill="none" fill-rule="evenodd">
        <g id="favorite-heart">
            <g id="favorite">
                <g id="Page-1">
                    <g>
                        <mask id="mask-2" fill="white">
                            <use xlink:href="#path-1"></use>
                        </mask>
                        <g id="Clip-2"></g>
                        <path d="M15.9058172,0 C13.9971191,0 12.1652078,0.895263158 10.9695291,2.29894737 C9.77385042,0.895263158 7.94193906,0 6.033241,0 C2.65462604,0 0,2.66368421 0,6.07894737 C0,10.2457895 3.72963989,13.6610526 9.37894737,18.8226316 L10.4177618,19.7808947 L10.4199557,19.7808947 C10.5603657,19.9212632 10.7545263,20.0096842 10.9695291,20.0096842 C11.1417507,20.0096842 11.2920332,19.9422632 11.4225706,19.8472105 C11.4291524,19.8483158 11.4401219,19.8461053 11.4478006,19.8461053 L11.5125208,19.7853158 C11.5180055,19.7797895 11.5234903,19.7775789 11.5289751,19.7720526 L12.5601108,18.8226316 C18.2094183,13.6610526 21.9390582,10.2457895 21.9390582,6.07894737 C21.9390582,2.66368421 19.2844321,0 15.9058172,0" id="Fill-1" fill="#191919" mask="url(#mask-2)"></path>
                    </g>
                </g>
            </g>
        </g>
    </g>
</svg>