<?xml version="1.0" encoding="UTF-8"?>
<svg width="20px" height="18px" viewBox="0 0 20 18" version="1.1" xmlns="http://www.w3.org/2000/svg" xmlns:xlink="http://www.w3.org/1999/xlink">
    <!-- Generator: Sketch 62 (91390) - https://sketch.com -->
    <title>fax</title>
    <desc>Created with Sketch.</desc>
    <g id="Page-1" stroke="none" stroke-width="1" fill="none" fill-rule="evenodd">
        <g id="Artboard" transform="translate(-369.000000, -230.000000)" fill="#2C2C2C">
            <g id="FAX" transform="translate(369.000000, 230.000000)">
                <path d="M16.6304348,0 L16.6304348,5.86956522 C18.2512705,5.86956522 19.5652174,7.18351215 19.5652174,8.80434783 L19.5652174,14.673913 L16.6304348,14.673913 L16.6304348,17.6086957 L5.86956522,17.6086957 L5.86956522,14.673913 L4.89130435,14.673913 L4.89130435,5.86956522 L5.86956522,5.86956522 L5.86956522,0 L16.6304348,0 Z M2.93478261,4.89130435 C3.47506117,4.89130435 3.91304348,5.47528076 3.91304348,6.19565217 L3.91304348,6.84782609 C3.91304348,7.87151178 3.32340524,8.71157429 2.57226431,8.79716622 L2.44565217,8.80434783 L1.956,8.80430435 L1.956871,12.8285566 C2.07170912,12.7744811 2.1931047,12.7389231 2.31904003,12.7245729 L2.44565217,12.7173913 L3.17934783,12.7173913 C3.55338683,12.7173913 3.86205308,13.0905833 3.90732695,13.5729412 L3.91304348,13.6956522 L3.91304348,15.326087 C3.91304348,16.0464584 3.47506117,16.6304348 2.93478261,16.6304348 L1.95652174,16.6304348 C0.87596462,16.6304348 0,15.462482 0,14.0217391 L0,7.5 C0,6.05925717 0.87596462,4.89130435 1.95652174,4.89130435 L2.93478261,4.89130435 Z M14.673913,11.7391304 L7.82608696,11.7391304 L7.82608696,15.6521739 L14.673913,15.6521739 L14.673913,11.7391304 Z M16.6304348,7.82608696 C16.0901562,7.82608696 15.6521739,8.26406927 15.6521739,8.80434783 C15.6521739,9.34462639 16.0901562,9.7826087 16.6304348,9.7826087 C17.1707133,9.7826087 17.6086957,9.34462639 17.6086957,8.80434783 C17.6086957,8.26406927 17.1707133,7.82608696 16.6304348,7.82608696 Z M15.6521739,0.97826087 L6.84782609,0.97826087 L6.84782609,5.86956522 L15.6521739,5.86956522 L15.6521739,0.97826087 Z M13.6956522,3.91304348 L13.6956522,4.89130435 L8.80434783,4.89130435 L8.80434783,3.91304348 L13.6956522,3.91304348 Z M13.6956522,1.95652174 L13.6956522,2.93478261 L8.80434783,2.93478261 L8.80434783,1.95652174 L13.6956522,1.95652174 Z" id="color"></path>
            </g>
        </g>
    </g>
</svg>