<?xml version="1.0" encoding="UTF-8"?>
<svg width="21px" height="21px" viewBox="0 0 21 21" version="1.1" xmlns="http://www.w3.org/2000/svg" xmlns:xlink="http://www.w3.org/1999/xlink">
    <!-- Generator: Sketch 48.2 (47327) - http://www.bohemiancoding.com/sketch -->
    <title>Feedback</title>
    <desc>Created with Sketch.</desc>
    <defs>
        <polygon id="path-1" points="1.2520688e-15 16.226822 1.2520688e-15 0.546768939 15.6807742 0.546768939 15.6807742 16.226822"></polygon>
    </defs>
    <g id="Page-1" stroke="none" stroke-width="1" fill="none" fill-rule="evenodd">
        <g id="Feedback">
            <g id="Page-1">
                <g id="Group-3" transform="translate(0.000000, 4.772727)">
                    <mask id="mask-2" fill="white">
                        <use xlink:href="#path-1"></use>
                    </mask>
                    <g id="Clip-2"></g>
                    <path d="M7.84029697,10.3471402 C12.1720773,10.3471402 15.6807742,12.1005871 15.6807742,14.2678295 L15.6807742,16.226822 L-0.00018030303,16.226822 L-0.00018030303,14.2678295 C-0.00018030303,12.1005871 3.50851667,10.3471402 7.84029697,10.3471402 M7.84029697,0.546768939 C10.0048348,0.546768939 11.7600848,2.30201894 11.7600848,4.46655682 C11.7600848,6.63199621 10.0048348,8.3863447 7.84029697,8.3863447 C5.67575909,8.3863447 3.92050909,6.63199621 3.92050909,4.46655682 C3.92050909,2.30201894 5.67575909,0.546768939 7.84029697,0.546768939" id="Fill-1" fill="#191919" mask="url(#mask-2)"></path>
                </g>
                <path d="M20.4197937,0 L13.1645861,0 C12.8429309,0 12.5843798,0.256833561 12.5843798,0.574404789 L12.5843798,5.90109814 C12.5843798,6.15185794 12.746522,6.36443977 12.9735212,6.44339874 L12.4090909,8.59090909 L15.2084547,6.47550293 L20.4197937,6.47550293 C20.739696,6.47550293 21,6.21866937 21,5.90109814 L21,0.574404789 C21,0.256833561 20.739696,0 20.4197937,0" id="Fill-4" fill="#191919"></path>
            </g>
        </g>
    </g>
</svg>