<?xml version="1.0" encoding="UTF-8"?>
<svg width="21px" height="18px" viewBox="0 0 21 18" version="1.1" xmlns="http://www.w3.org/2000/svg" xmlns:xlink="http://www.w3.org/1999/xlink">
    <!-- Generator: Sketch 62 (91390) - https://sketch.com -->
    <title>filters</title>
    <desc>Created with Sketch.</desc>
    <g id="Page-1" stroke="none" stroke-width="1" fill="none" fill-rule="evenodd">
        <g id="Artboard" transform="translate(-572.000000, -347.000000)">
            <g id="filter" transform="translate(572.000000, 347.000000)">
                <circle id="Oval" fill="#FFFFFF" cx="15.75" cy="3.375" r="2.25"></circle>
                <circle id="Oval" fill="#FFFFFF" cx="4.5" cy="9" r="2.25"></circle>
                <circle id="Oval" fill="#FFFFFF" cx="12.375" cy="14.625" r="2.25"></circle>
                <path d="M12.375,11.8125 C13.5278792,11.8125 14.5187438,12.5061667 14.9529951,13.4989013 L20.25,13.5 L20.25,15.75 L14.9534254,15.7501144 C14.5193987,16.7433748 13.5282602,17.4375 12.375,17.4375 C11.2217398,17.4375 10.2306013,16.7433748 9.79657458,15.7501144 L0,15.75 L0,13.5 L9.79700492,13.4989013 C10.2312562,12.5061667 11.2221208,11.8125 12.375,11.8125 Z M12.375,12.9375 C11.4430195,12.9375 10.6875,13.6930195 10.6875,14.625 C10.6875,15.5569805 11.4430195,16.3125 12.375,16.3125 C13.3069805,16.3125 14.0625,15.5569805 14.0625,14.625 C14.0625,13.6930195 13.3069805,12.9375 12.375,12.9375 Z M4.5,6.1875 C5.65287918,6.1875 6.64374381,6.8811667 7.07799508,7.87390126 L20.25,7.875 L20.25,10.125 L7.07842542,10.1251144 C6.6443987,11.1183748 5.65326017,11.8125 4.5,11.8125 C3.34673983,11.8125 2.3556013,11.1183748 1.92157458,10.1251144 L0,10.125 L0,7.875 L1.92200492,7.87390126 C2.35625619,6.8811667 3.34712082,6.1875 4.5,6.1875 Z M4.5,7.3125 C3.56801948,7.3125 2.8125,8.06801948 2.8125,9 C2.8125,9.93198052 3.56801948,10.6875 4.5,10.6875 C5.43198052,10.6875 6.1875,9.93198052 6.1875,9 C6.1875,8.06801948 5.43198052,7.3125 4.5,7.3125 Z M15.75,0.5625 C16.9024982,0.5625 17.8930889,1.2557083 18.3275644,2.24791715 L20.25,2.25 L20.25,4.5 L18.3284254,4.50011444 C17.8943987,5.49337476 16.9032602,6.1875 15.75,6.1875 C14.5967398,6.1875 13.6056013,5.49337476 13.1715746,4.50011444 L0,4.5 L0,2.25 L13.1724356,2.24791715 C13.6069111,1.2557083 14.5975018,0.5625 15.75,0.5625 Z M15.75,1.6875 C14.8180195,1.6875 14.0625,2.44301948 14.0625,3.375 C14.0625,4.30698052 14.8180195,5.0625 15.75,5.0625 C16.6819805,5.0625 17.4375,4.30698052 17.4375,3.375 C17.4375,2.44301948 16.6819805,1.6875 15.75,1.6875 Z" id="Combined-Shape" fill="#2C2C2C"></path>
            </g>
        </g>
    </g>
</svg>