<?xml version="1.0" encoding="UTF-8"?>
<svg width="18px" height="18px" viewBox="0 0 18 18" version="1.1" xmlns="http://www.w3.org/2000/svg" xmlns:xlink="http://www.w3.org/1999/xlink">
    <!-- Generator: Sketch 62 (91390) - https://sketch.com -->
    <title>fullscreen</title>
    <desc>Created with Sketch.</desc>
    <g id="Page-1" stroke="none" stroke-width="1" fill="none" fill-rule="evenodd">
        <g id="Artboard" transform="translate(-812.000000, -250.000000)" fill="#2C2C2C">
            <g id="fullscreen" transform="translate(812.000000, 250.000000)">
                <path d="M7.01776297,8.51509422 C7.09211361,8.44074357 7.21256816,8.44048767 7.28670527,8.51462478 L7.28670527,8.51462478 L9.48537522,10.7132947 C9.55951233,10.7874318 9.55969511,10.9083251 9.48534447,10.9826757 L9.48534447,10.9826757 L6.32456747,14.1434527 L8.36268011,16.1815653 C8.3492002,16.2468096 8.28927703,16.3032234 8.22270874,16.310131 L8.22270874,16.310131 L1.01500231,17.0990548 C0.944056488,17.1077079 0.892292112,17.0559435 0.900945211,16.9849977 L0.900945211,16.9849977 L1.689869,9.77729126 C1.69677664,9.71072297 1.75319036,9.6507998 1.81843465,9.63731989 L1.81843465,9.63731989 L3.85698598,11.6758712 Z M16.9849977,0.900945211 C17.0559435,0.892292112 17.1077079,0.944056488 17.0990548,1.01500231 L17.0990548,1.01500231 L16.310131,8.22270874 C16.3032234,8.28927703 16.2468096,8.3492002 16.1815653,8.36268011 L16.1815653,8.36268011 L14.143014,6.32412879 L10.982237,9.48490578 C10.9078864,9.55925643 10.7874318,9.55951233 10.7132947,9.48537522 L10.7132947,9.48537522 L8.51462478,7.28670527 C8.44048767,7.21256816 8.44030489,7.09167493 8.51465553,7.01732429 L8.51465553,7.01732429 L11.6754325,3.8565473 L9.63731989,1.81843465 C9.6507998,1.75319036 9.71072297,1.69677664 9.77729126,1.689869 L9.77729126,1.689869 Z" id="color"></path>
            </g>
        </g>
    </g>
</svg>