<?xml version="1.0" encoding="UTF-8"?>
<svg width="32px" height="32px" viewBox="0 0 32 32" version="1.1" xmlns="http://www.w3.org/2000/svg" xmlns:xlink="http://www.w3.org/1999/xlink">
    <!-- Generator: Sketch 52.3 (67297) - http://www.bohemiancoding.com/sketch -->
    <title>post-gplus</title>
    <desc>Created with Sketch.</desc>
    <g id="Symbols" stroke="none" stroke-width="1" fill="none" fill-rule="evenodd">
        <g id="footer-2" transform="translate(-1008.000000, -179.000000)" fill="#2C2C2C">
            <g id="footer" transform="translate(-1.000000, 0.000000)">
                <g id="post-gplus" transform="translate(1009.000000, 179.000000)">
                    <g id="Shape">
                        <path d="M14.72,11.04 C14.72,9.44 13.76,6.24 11.36,6.24 C10.4,6.24 9.28,6.88 9.28,8.96 C9.28,10.88 10.24,13.6 12.48,13.6 C12.48,13.6 14.72,13.44 14.72,11.04 L14.72,11.04 Z M13.76,18.88 L13.28,18.88 L13.28,18.88 C12.8,18.88 11.36,19.04 10.4,19.36 C9.28,19.68 8,20.48 8,22.08 C8,23.84 9.6,25.6 12.8,25.6 C15.2,25.6 16.64,24 16.64,22.4 C16.64,21.28 15.84,20.48 13.76,18.88 L13.76,18.88 Z M28.8,0 L3.2,0 C1.44,0 0,1.44 0,3.2 L0,28.8 C0,30.56 1.44,32 3.2,32 L28.8,32 C30.56,32 32,30.56 32,28.8 L32,3.2 C32,1.44 30.56,0 28.8,0 L28.8,0 Z M11.36,27.52 C6.88,27.52 4.8,24.96 4.8,22.72 C4.8,21.92 4.96,20.16 7.2,18.88 C8.48,18.08 10.08,17.6 12.16,17.44 C11.84,17.12 11.68,16.64 11.68,15.84 C11.68,15.52 11.68,15.36 11.84,15.04 L11.2,15.04 C8,15.04 6.08,12.64 6.08,10.24 C6.08,7.52 8.16,4.48 12.64,4.48 L19.36,4.48 L18.88,4.96 L17.76,6.08 L17.6,6.24 L16.48,6.24 C17.12,6.88 17.92,8 17.92,9.76 C17.92,12 16.8,13.12 15.36,14.08 C15.04,14.24 14.72,14.72 14.72,15.2 C14.72,15.68 15.04,16 15.36,16.16 C15.52,16.32 15.84,16.48 16.16,16.64 C17.44,17.6 19.2,18.72 19.2,21.28 C19.2,24.16 17.12,27.52 11.36,27.52 L11.36,27.52 Z M27.2,16 L24,16 L24,19.2 L22.4,19.2 L22.4,16 L19.2,16 L19.2,14.4 L22.4,14.4 L22.4,11.2 L24,11.2 L24,14.4 L27.2,14.4 L27.2,16 L27.2,16 Z"></path>
                    </g>
                </g>
            </g>
        </g>
    </g>
</svg>