<?xml version="1.0" encoding="UTF-8"?>
<svg width="18px" height="18px" viewBox="0 0 18 18" version="1.1" xmlns="http://www.w3.org/2000/svg" xmlns:xlink="http://www.w3.org/1999/xlink">
    <!-- Generator: Sketch 62 (91390) - https://sketch.com -->
    <title>hazardous-material</title>
    <desc>Created with Sketch.</desc>
    <g id="Page-1" stroke="none" stroke-width="1" fill="none" fill-rule="evenodd">
        <g id="Artboard" transform="translate(-1032.000000, -79.000000)" stroke="#2C2C2C">
            <g id="hazardous-material" transform="translate(1032.000000, 79.000000)">
                <path d="M11.86,7.70221213 L6.14,7.70221213 L6.14,1.98221213 L11.86,1.98221213 L11.86,7.70221213 Z" id="Rectangle" fill="#FF341F" transform="translate(9.000000, 4.842212) rotate(-675.000000) translate(-9.000000, -4.842212) "></path>
                <path d="M7.70221213,11.86 L1.98221213,11.86 L1.98221213,6.14 L7.70221213,6.14 L7.70221213,11.86 Z" id="Rectangle-Copy-2" fill="#0393EF" transform="translate(4.842212, 9.000000) rotate(-675.000000) translate(-4.842212, -9.000000) "></path>
                <path d="M16.0177879,11.86 L10.2977879,11.86 L10.2977879,6.14 L16.0177879,6.14 L16.0177879,11.86 Z" id="Rectangle-Copy" fill="#FFE300" transform="translate(13.157788, 9.000000) rotate(-675.000000) translate(-13.157788, -9.000000) "></path>
                <path d="M11.86,16.0177879 L6.14,16.0177879 L6.14,10.2977879 L11.86,10.2977879 L11.86,16.0177879 Z" id="Rectangle-Copy-3" fill="#FFFFFF" transform="translate(9.000000, 13.157788) rotate(-675.000000) translate(-9.000000, -13.157788) "></path>
            </g>
        </g>
    </g>
</svg>