<?xml version="1.0" encoding="UTF-8"?>
<svg width="20px" height="20px" viewBox="0 0 20 20" version="1.1" xmlns="http://www.w3.org/2000/svg" xmlns:xlink="http://www.w3.org/1999/xlink">
    <!-- Generator: Sketch 63.1 (92452) - https://sketch.com -->
    <title>in-progress</title>
    <desc>Created with Sketch.</desc>
    <g id="Page-1" stroke="none" stroke-width="1" fill="none" fill-rule="evenodd">
        <g id="BM---Action-Hub-Option-2-Copy-2" transform="translate(-1125.000000, -150.000000)" fill="#000000">
            <g id="in-progress" transform="translate(1125.001874, 150.000000)">
                <path d="M9.99812603,1.42108547e-14 C10.1570585,1.42108547e-14 10.3155401,0.00371568435 10.4734774,0.0111188374 L10.473674,0.00110400679 C15.7934523,0.251284957 19.9967848,4.64483815 19.9967848,9.98991265 C19.9967848,10.3496609 19.9777441,10.7050988 19.9406038,11.0552533 L19.9430367,11.0551832 C19.8649568,11.798842 19.704497,12.5262608 19.4657772,13.2268497 C19.0952461,14.2962561 18.5519314,15.2868488 17.8659711,16.1607923 L17.8714749,16.1658901 C17.4133292,16.7501676 16.8914687,17.2822263 16.3161883,17.7516244 C15.4161082,18.4748267 14.392417,19.0528055 13.2781024,19.4394851 L13.2818403,19.4480826 C12.5826415,19.6910647 11.8562099,19.8559145 11.1131727,19.9384436 L11.1127938,19.9283182 C10.9933704,19.9415708 10.8732984,19.9527259 10.7526148,19.9617453 L10.473674,19.9787213 L10.3797209,17.9809293 C14.6338438,17.7808645 17.9967848,14.2657344 17.9967848,9.98991265 C17.9967848,9.39105806 17.9308184,8.80712496 17.8056762,8.24513098 L17.8027822,8.23403357 C17.6719089,7.6528458 17.476578,7.09054149 17.221068,6.55578718 C16.8303143,5.72938619 16.2995035,4.98073319 15.6603304,4.33967404 L15.6558367,4.34400227 C15.2353632,3.92340231 14.7694336,3.55047224 14.2670626,3.2328135 C13.5143673,2.74630914 12.6708241,2.39025545 11.7686055,2.18649232 L11.7660406,2.19578278 C11.1907751,2.06609104 10.5991033,2 9.99812603,2 L9.99812603,1.42108547e-14 Z M6.63031608,17.2589512 C7.16755784,17.5086805 7.73178294,17.6979942 8.31438617,17.8227149 L7.89572225,19.7784042 C7.16631637,19.6222567 6.45978046,19.3851936 5.78727255,19.0725877 L6.63031608,17.2589512 Z M3.28904414,14.3594758 C3.61349561,14.8576474 3.99271843,15.3186543 4.41899267,15.733529 L3.02407315,17.1667769 C2.49190889,16.6488439 2.01841977,16.073241 1.61314127,15.4509654 L3.28904414,14.3594758 Z M13.9568236,5.89393398 L14.9884026,6.92551293 L14.9884026,7.13764496 L7.61998152,14.506066 L7.40784949,14.506066 L4.09206001,11.1902765 L4.09206001,10.9781445 L5.12363896,9.94656556 L5.335771,9.94656556 L7.51312603,12.124 L13.7446916,5.89393398 L13.9568236,5.89393398 Z M1.99963152,10.1569714 C2.01115505,10.7572023 2.08875997,11.3473732 2.22982746,11.9202251 L0.287843181,12.3984479 C0.111377594,11.6818502 0.0143760212,10.9441715 3.41060513e-13,10.1953613 L1.99963152,10.1569714 Z M1.42672282,4.84655225 L3.13989151,5.87856632 C2.83354793,6.38710418 2.5846623,6.92834084 2.39845835,7.49319862 L0.499001891,6.86704755 C0.73210483,6.15991966 1.04356939,5.48259635 1.42672282,4.84655225 Z M5.48202729,1.07567636 L6.38635313,2.85954709 C5.85628409,3.12826339 5.35764353,3.45559275 4.8996707,3.8348045 L3.62413654,2.29434594 C4.19617325,1.82068674 4.81927331,1.41165673 5.48202729,1.07567636 Z M9.97524848,2.5666879e-05 L9.97973652,2.00002567 C9.62298541,2.00082119 9.26944442,2.02491651 8.92054099,2.07183558 L8.6539887,0.0896776943 C9.0897021,0.0310847816 9.53078589,0.00102305126 9.97524848,2.5666879e-05 Z" id="Combined-Shape"></path>
            </g>
        </g>
    </g>
</svg>