<?xml version="1.0" encoding="UTF-8"?>
<svg width="32px" height="32px" viewBox="0 0 32 32" version="1.1" xmlns="http://www.w3.org/2000/svg" xmlns:xlink="http://www.w3.org/1999/xlink">
    <!-- Generator: Sketch 52.3 (67297) - http://www.bohemiancoding.com/sketch -->
    <title>instagram_icon_16</title>
    <desc>Created with Sketch.</desc>
    <g id="Symbols" stroke="none" stroke-width="1" fill="none" fill-rule="evenodd">
        <g id="footer-2" transform="translate(-1138.000000, -163.000000)" fill="#2C2C2C">
            <g id="footer" transform="translate(-1.000000, 0.000000)">
                <g id="post-facebook" transform="translate(935.000000, 163.000000)">
                    <g id="instagram_icon_16" transform="translate(204.000000, 0.000000)">
                        <path d="M28.8,0 L3.2,0 C1.44,0 0,1.44 0,3.2 L0,28.8 C0,30.56 1.44,32 3.2,32 L28.8,32 C30.56,32 32,30.56 32,28.8 L32,3.2 C32,1.44 30.56,0 28.8,0 Z M27.92,20.9333333 C27.8666667,22.2133333 27.6533333,23.0933333 27.36,23.84 C27.0666667,24.64 26.64,25.3066667 25.9733333,25.9733333 C25.3066667,26.64 24.64,27.04 23.84,27.36 C23.0666667,27.6533333 22.2133333,27.8666667 20.9333333,27.92 C19.6533333,27.9733333 19.2533333,27.9733333 16,27.9733333 C12.7466667,27.9733333 12.3466667,27.9466667 11.0666667,27.8933333 C9.78666667,27.84 8.90666667,27.6266667 8.16,27.3333333 C7.36,27.04 6.69333333,26.6133333 6.02666667,25.9466667 C5.36,25.28 4.96,24.6133333 4.64,23.8133333 C4.34666667,23.0933333 4.13333333,22.2133333 4.08,20.9333333 C4.02666667,19.6533333 4.02666667,19.2533333 4.02666667,16 C4.02666667,12.7466667 4.05333333,12.3466667 4.10666667,11.0666667 C4.16,9.78666667 4.37333333,8.90666667 4.66666667,8.16 C4.96,7.36 5.38666667,6.69333333 6.05333333,6.02666667 C6.72,5.36 7.38666667,4.96 8.18666667,4.64 C8.96,4.34666667 9.81333333,4.13333333 11.0933333,4.08 C12.3466667,4.02666667 12.7466667,4.02666667 16,4.02666667 C19.2533333,4.02666667 19.6533333,4.05333333 20.9333333,4.10666667 C22.2133333,4.16 23.0933333,4.37333333 23.84,4.66666667 C24.64,4.96 25.3066667,5.38666667 25.9733333,6.05333333 C26.64,6.72 27.04,7.38666667 27.36,8.18666667 C27.6533333,8.96 27.8666667,9.81333333 27.92,11.0933333 C27.9733333,12.3733333 28,12.7733333 28,16.0266667 C27.9733333,19.2533333 27.9733333,19.6533333 27.92,20.9333333 Z" id="Shape"></path>
                        <circle id="Oval" cx="16" cy="16" r="4"></circle>
                        <path d="M25.76,11.1466667 C25.7066667,10 25.52,9.36 25.3333333,8.93333333 C25.12,8.37333333 24.8533333,7.97333333 24.4533333,7.54666667 C24.0266667,7.14666667 23.6266667,6.88 23.0666667,6.66666667 C22.64,6.50666667 22,6.32 20.8533333,6.26666667 C19.5733333,6.18666667 19.2,6.18666667 16,6.18666667 C12.8,6.18666667 12.4266667,6.18666667 11.1466667,6.26666667 C10,6.29333333 9.36,6.48 8.93333333,6.66666667 C8.37333333,6.88 7.97333333,7.14666667 7.54666667,7.54666667 C7.14666667,7.97333333 6.88,8.37333333 6.66666667,8.93333333 C6.50666667,9.36 6.32,10 6.26666667,11.1466667 C6.18666667,12.4266667 6.18666667,12.8 6.18666667,16 C6.18666667,19.2 6.18666667,19.5733333 6.26666667,20.8533333 C6.29333333,22 6.48,22.64 6.66666667,23.0666667 C6.88,23.6266667 7.14666667,24.0266667 7.57333333,24.4533333 C7.97333333,24.8533333 8.37333333,25.12 8.93333333,25.3333333 C9.36,25.4933333 10,25.68 11.1466667,25.7333333 C12.4266667,25.8133333 12.8,25.8133333 16,25.8133333 C19.2,25.8133333 19.5733333,25.8133333 20.8533333,25.7333333 C22,25.7066667 22.64,25.52 23.0666667,25.3333333 C23.6266667,25.12 24.0266667,24.8533333 24.4533333,24.4266667 C24.8533333,24.0266667 25.12,23.6266667 25.3333333,23.0666667 C25.4933333,22.64 25.68,22 25.7333333,20.8533333 C25.8133333,19.5733333 25.8133333,19.2 25.8133333,16 C25.8133333,12.8 25.8133333,12.4266667 25.76,11.1466667 Z M16,22.16 C12.6133333,22.16 9.84,19.3866667 9.84,16 C9.84,12.6133333 12.6133333,9.84 16,9.84 C19.3866667,9.84 22.16,12.6133333 22.16,16 C22.16,19.3866667 19.3866667,22.16 16,22.16 Z M22.4,11.04 C21.6,11.04 20.96,10.4 20.96,9.6 C20.96,8.8 21.6,8.16 22.4,8.16 C23.2,8.16 23.84,8.8 23.84,9.6 C23.84,10.4 23.2,11.04 22.4,11.04 Z" id="Shape" fill-rule="nonzero"></path>
                    </g>
                </g>
            </g>
        </g>
    </g>
</svg>