<?xml version="1.0" encoding="UTF-8"?>
<svg width="18px" height="12px" viewBox="0 0 18 12" version="1.1" xmlns="http://www.w3.org/2000/svg" xmlns:xlink="http://www.w3.org/1999/xlink">
    <!-- Generator: Sketch 62 (91390) - https://sketch.com -->
    <title>leads</title>
    <desc>Created with Sketch.</desc>
    <g id="Page-1" stroke="none" stroke-width="1" fill="none" fill-rule="evenodd">
        <g id="Artboard" transform="translate(-731.000000, -340.000000)" fill="#2C2C2C">
            <g id="leads" transform="translate(731.000000, 340.000000)">
                <path d="M13.875,9.78791843 C13.6508245,9.66586808 13.5,9.43774673 13.5,9.17647058 C13.5,8.78662253 13.8357865,8.4705882 14.25,8.4705882 C14.6642135,8.4705882 15,8.78662253 15,9.17647058 C15,9.43774673 14.8491755,9.66586808 14.625,9.78791843 L14.625,10.5882353 L13.875,10.5882353 L13.875,9.78791843 Z M8.625,9.78791843 C8.40082448,9.66586808 8.25,9.43774673 8.25,9.17647058 C8.25,8.78662253 8.58578648,8.4705882 9,8.4705882 C9.41421352,8.4705882 9.75,8.78662253 9.75,9.17647058 C9.75,9.43774673 9.59917552,9.66586808 9.375,9.78791843 L9.375,10.5882353 L8.625,10.5882353 L8.625,9.78791843 Z M3.375,9.78791843 C3.15082448,9.66586808 3,9.43774673 3,9.17647058 C3,8.78662253 3.33578644,8.4705882 3.75,8.4705882 C4.16421356,8.4705882 4.5,8.78662253 4.5,9.17647058 C4.5,9.43774673 4.34917552,9.66586808 4.125,9.78791843 L4.125,10.5882353 L3.375,10.5882353 L3.375,9.78791843 Z M1.5,0 L16.5,0 C17.3284271,0 18,0.632068589 18,1.4117647 L18,10.5882353 C18,11.3679314 17.3284271,12 16.5,12 L1.5,12 C0.671572875,12 0,11.3679314 0,10.5882353 L0,1.4117647 C0,0.632068589 0.671572875,0 1.5,0 Z M1.5,1.41176471 L1.5,10.5882353 L16.5,10.5882353 L16.5,1.41176471 L1.5,1.41176471 Z M5.625,4.94117647 C4.9875,4.94117647 4.5,4.48235294 4.5,3.88235294 C4.5,3.28235294 4.9875,2.82352941 5.625,2.82352941 C6.2625,2.82352941 6.75,3.28235294 6.75,3.88235294 C6.75,4.48235294 6.2625,4.94117647 5.625,4.94117647 Z M5.625,5.64705882 C6.4875,5.64705882 8.25,6.07058824 8.25,6.88235294 L8.25,7.7647059 L3,7.7647059 L3,6.88235294 C3,6.07058824 4.7625,5.64705882 5.625,5.64705882 Z M10.125,3.62352941 L10.125,2.82352941 L14.9216416,2.82352941 L14.9216416,3.62352941 L10.125,3.62352941 Z M10.125,5.74117647 L10.125,4.94117647 L14.9216416,4.94117647 L14.9216416,5.74117647 L10.125,5.74117647 Z M10.125,7.85882355 L10.125,7.05882353 L14.9216416,7.05882353 L14.9216416,7.85882355 L10.125,7.85882355 Z" id="color"></path>
            </g>
        </g>
    </g>
</svg>