<?xml version="1.0" encoding="UTF-8"?>
<svg width="32px" height="32px" viewBox="0 0 32 32" version="1.1" xmlns="http://www.w3.org/2000/svg" xmlns:xlink="http://www.w3.org/1999/xlink">
    <!-- Generator: Sketch 52.3 (67297) - http://www.bohemiancoding.com/sketch -->
    <title>post-linkedin</title>
    <desc>Created with Sketch.</desc>
    <g id="Symbols" stroke="none" stroke-width="1" fill="none" fill-rule="evenodd">
        <g id="footer-2" transform="translate(-1044.000000, -179.000000)" fill="#2C2C2C">
            <g id="footer" transform="translate(-1.000000, 0.000000)">
                <g id="post-linkedin" transform="translate(1045.000000, 179.000000)">
                    <g id="Shape">
                        <path d="M28.8,0 L3.2,0 C1.44,0 0,1.44 0,3.2 L0,28.8 C0,30.56 1.44,32 3.2,32 L28.8,32 C30.56,32 32,30.56 32,28.8 L32,3.2 C32,1.44 30.56,0 28.8,0 L28.8,0 Z M9.6,27.2 L4.8,27.2 L4.8,12.8 L9.6,12.8 L9.6,27.2 L9.6,27.2 Z M7.2,10.08 C5.6,10.08 4.32,8.8 4.32,7.2 C4.32,5.6 5.6,4.32 7.2,4.32 C8.8,4.32 10.08,5.6 10.08,7.2 C10.08,8.8 8.8,10.08 7.2,10.08 L7.2,10.08 Z M27.2,27.2 L22.4,27.2 L22.4,18.72 C22.4,17.44 21.28,16.32 20,16.32 C18.72,16.32 17.6,17.44 17.6,18.72 L17.6,27.2 L12.8,27.2 L12.8,12.8 L17.6,12.8 L17.6,14.72 C18.4,13.44 20.16,12.48 21.6,12.48 C24.64,12.48 27.2,15.04 27.2,18.08 L27.2,27.2 L27.2,27.2 Z"></path>
                    </g>
                </g>
            </g>
        </g>
    </g>
</svg>