<?xml version="1.0" encoding="UTF-8"?>
<svg width="18px" height="18px" viewBox="0 0 18 18" version="1.1" xmlns="http://www.w3.org/2000/svg" xmlns:xlink="http://www.w3.org/1999/xlink">
    <!-- Generator: Sketch 62 (91390) - https://sketch.com -->
    <title>list-display</title>
    <desc>Created with Sketch.</desc>
    <g id="Page-1" stroke="none" stroke-width="1" fill="none" fill-rule="evenodd">
        <g id="Artboard" transform="translate(-590.000000, -126.000000)" fill="#2C2C2C">
            <g id="List-Display" transform="translate(590.000000, 126.000000)">
                <path d="M4.28571429,13.7142857 L4.28571429,18 L0,18 L0,13.7142857 L4.28571429,13.7142857 Z M18,13.7142857 L18,18 L6.85714286,18 L6.85714286,13.7142857 L18,13.7142857 Z M4.28571429,6.85714286 L4.28571429,11.1428571 L0,11.1428571 L0,6.85714286 L4.28571429,6.85714286 Z M18,6.85714286 L18,11.1428571 L6.85714286,11.1428571 L6.85714286,6.85714286 L18,6.85714286 Z M4.28571429,0 L4.28571429,4.28571429 L0,4.28571429 L0,0 L4.28571429,0 Z M18,0 L18,4.28571429 L6.85714286,4.28571429 L6.85714286,0 L18,0 Z" id="Combined-Shape"></path>
            </g>
        </g>
    </g>
</svg>