<?xml version="1.0" encoding="UTF-8"?>
<svg width="15px" height="21px" viewBox="0 0 15 21" version="1.1" xmlns="http://www.w3.org/2000/svg" xmlns:xlink="http://www.w3.org/1999/xlink">
    <!-- Generator: Sketch 49.3 (51167) - http://www.bohemiancoding.com/sketch -->
    <title>lock</title>
    <desc>Created with Sketch.</desc>
    <defs></defs>
    <g id="Page-1" stroke="none" stroke-width="1" fill="none" fill-rule="evenodd">
        <g id="lock" fill="#191919">
            <g id="Shape">
                <g transform="translate(0.000000, 0.468750)">
                    <path d="M12.1875,6.5625 L12.1875,4.6875 C12.1875,2.0625 10.125,0 7.5,0 C4.875,0 2.8125,2.0625 2.8125,4.6875 L2.8125,6.5625 L1.875,6.5625 C0.84375,6.5625 0,7.40625 0,8.4375 L0,17.8125 C0,18.84375 0.84375,19.6875 1.875,19.6875 L13.125,19.6875 C14.15625,19.6875 15,18.84375 15,17.8125 L15,8.4375 C15,7.40625 14.15625,6.5625 13.125,6.5625 L12.1875,6.5625 Z M6.59241514,13.8266544 C6.01665104,13.5056618 5.625,12.8900977 5.625,12.1875 C5.625,11.15625 6.46875,10.3125 7.5,10.3125 C8.53125,10.3125 9.375,11.15625 9.375,12.1875 C9.375,12.8900977 8.98334896,13.5056618 8.40758486,13.8266544 C8.4271107,13.9020079 8.4375,13.9810406 8.4375,14.0625 L8.4375,15.9375 C8.4375,16.455267 8.01776695,16.875 7.5,16.875 C6.98223305,16.875 6.5625,16.455267 6.5625,15.9375 L6.5625,14.0625 C6.5625,13.9810406 6.5728893,13.9020079 6.59241514,13.8266544 Z M10.40625,6.5625 L4.59375,6.5625 L4.59375,4.6875 C4.59375,3.09375 5.90625,1.78125 7.5,1.78125 C9.09375,1.78125 10.40625,3.09375 10.40625,4.6875 L10.40625,6.5625 L10.40625,6.5625 Z"></path>
                </g>
            </g>
        </g>
    </g>
</svg>