<?xml version="1.0" encoding="UTF-8"?>
<svg width="13px" height="18px" viewBox="0 0 13 18" version="1.1" xmlns="http://www.w3.org/2000/svg" xmlns:xlink="http://www.w3.org/1999/xlink">
    <!-- Generator: Sketch 62 (91390) - https://sketch.com -->
    <title>lock</title>
    <desc>Created with Sketch.</desc>
    <g id="Page-1" stroke="none" stroke-width="1" fill="none" fill-rule="evenodd">
        <g id="Artboard" transform="translate(-531.000000, -17.000000)" fill="#2C2C2C">
            <g id="lock" transform="translate(531.000000, 17.000000)">
                <path d="M10.4464286,6.02678571 L10.4464286,4.41964286 C10.4464286,2.16964286 8.67857143,0.401785714 6.42857143,0.401785714 C4.17857143,0.401785714 2.41071429,2.16964286 2.41071429,4.41964286 L2.41071429,6.02678571 L1.60714286,6.02678571 C0.723214286,6.02678571 0,6.75 0,7.63392857 L0,15.6696429 C0,16.5535714 0.723214286,17.2767857 1.60714286,17.2767857 L11.25,17.2767857 C12.1339286,17.2767857 12.8571429,16.5535714 12.8571429,15.6696429 L12.8571429,7.63392857 C12.8571429,6.75 12.1339286,6.02678571 11.25,6.02678571 L10.4464286,6.02678571 Z M6.42857143,9.24107143 C7.3125,9.24107143 8.03571429,9.96428571 8.03571429,10.8482143 C8.03571429,11.4506751 7.69975222,11.9784777 7.20592541,12.2535247 C7.22315849,12.3171909 7.23214286,12.3852248 7.23214286,12.4553571 L7.23214286,14.0625 C7.23214286,14.5063002 6.87237167,14.8660714 6.42857143,14.8660714 C5.98477118,14.8660714 5.625,14.5063002 5.625,14.0625 L5.625,12.4553571 C5.625,12.3852248 5.63398437,12.3171909 5.65086494,12.2523436 C5.15706223,11.9779616 4.82142857,11.4503806 4.82142857,10.8482143 C4.82142857,9.96428571 5.54464286,9.24107143 6.42857143,9.24107143 Z M8.91964286,6.02678571 L3.9375,6.02678571 L3.9375,4.41964286 C3.9375,3.05357143 5.0625,1.92857143 6.42857143,1.92857143 C7.79464286,1.92857143 8.91964286,3.05357143 8.91964286,4.41964286 L8.91964286,6.02678571 L8.91964286,6.02678571 Z" id="color"></path>
            </g>
        </g>
    </g>
</svg>