<?xml version="1.0" encoding="UTF-8"?>
<svg width="13px" height="18px" viewBox="0 0 13 18" version="1.1" xmlns="http://www.w3.org/2000/svg" xmlns:xlink="http://www.w3.org/1999/xlink">
    <!-- Generator: Sketch 62 (91390) - https://sketch.com -->
    <title>map-marker</title>
    <desc>Created with Sketch.</desc>
    <g id="Page-1" stroke="none" stroke-width="1" fill="none" fill-rule="evenodd">
        <g id="Artboard" transform="translate(-492.000000, -26.000000)" fill="#2C2C2C">
            <g id="map-marker" transform="translate(492.000000, 26.000000)">
                <path d="M4.05,6.3 C4.05,5.0571 5.0571,4.05 6.3,4.05 C7.5429,4.05 8.55,5.0571 8.55,6.3 C8.55,7.5429 7.5429,8.55 6.3,8.55 C5.0571,8.55 4.05,7.5429 4.05,6.3 M12.6,6.3 C12.6,2.8206 9.7794,0 6.3,0 C2.8206,0 0,2.8206 0,6.3 C0,10.3869 4.7043,16.1451 5.9769,17.6292 L5.9769,17.6292 C6.0606,17.7174 6.1767,17.7732 6.3072,17.7732 C6.4485,17.7732 6.5691,17.7066 6.6528,17.6067 C6.6564,17.6058 6.6636,17.6004 6.6663,17.5995 C7.8534,16.2234 12.6,10.4463 12.6,6.3" id="color"></path>
            </g>
        </g>
    </g>
</svg>