<?xml version="1.0" encoding="UTF-8"?>
<svg width="12px" height="18px" viewBox="0 0 12 18" version="1.1" xmlns="http://www.w3.org/2000/svg" xmlns:xlink="http://www.w3.org/1999/xlink">
    <!-- Generator: Sketch 63.1 (92452) - https://sketch.com -->
    <title>mic</title>
    <desc>Created with Sketch.</desc>
    <g id="Page-1" stroke="none" stroke-width="1" fill="none" fill-rule="evenodd">
        <g id="BM---Action-Hub-Option-2-Copy-2" transform="translate(-960.000000, -35.000000)" fill="#000000" fill-rule="nonzero">
            <g id="mic" transform="translate(960.000000, 35.000000)">
                <path d="M10.5382552,6.26252352 C10.8635723,6.26252352 11.127196,6.52618118 11.127196,6.85146429 L11.127196,6.85146429 L11.127196,9.16802352 C11.127196,12.0325679 8.94814203,14.3976603 6.16055401,14.692781 L6.15966115,16.215 L8.00576916,16.2158127 C8.29852395,16.2158127 8.54136214,16.4293754 8.58700223,16.7092193 L8.59470993,16.8047535 C8.59470993,17.1300366 8.33105226,17.3936943 8.00576916,17.3936943 L8.00576916,17.3936943 L3.13708798,17.3936943 C2.81180488,17.3936943 2.54814721,17.1300366 2.54814721,16.8047535 C2.54814721,16.4794704 2.81180488,16.2158127 3.13708798,16.2158127 L3.13708798,16.2158127 L4.98166115,16.215 L4.98203218,14.6927527 C2.26555392,14.4050292 0.127023693,12.15161 0.0198737635,9.38585014 L0.0156611498,9.16802352 L0.0156611498,6.85146429 C0.0156611498,6.52618118 0.279318815,6.26252352 0.604601916,6.26252352 C0.929885017,6.26252352 1.19354268,6.52614721 1.19354268,6.85146429 L1.19354268,6.85146429 L1.19354268,9.16802352 C1.19354268,11.5819469 3.15730139,13.5459094 5.57142857,13.5459094 C7.98555575,13.5459094 9.94931446,11.5819469 9.94931446,9.16802352 L9.94931446,9.16802352 L9.94931446,6.85146429 C9.94931446,6.52618118 10.2129721,6.26252352 10.5382552,6.26252352 Z M5.57142857,0 C7.44431185,0 8.96772387,1.52361585 8.96772387,3.3962953 L8.96772387,3.3962953 L8.96772387,9.14838763 C8.96772387,11.0318702 7.44410801,12.5643188 5.57142857,12.5643188 C3.69874913,12.5643188 2.17513328,11.040703 2.17513328,9.16802352 L2.17513328,9.16802352 L2.17513328,3.3962953 C2.17513328,1.52361585 3.69874913,0 5.57142857,0 Z M5.57142857,1.17791551 C4.34819425,1.17791551 3.35304878,2.173027 3.35304878,3.3962953 L3.35304878,3.3962953 L3.35266115,3.428 L4.71428571,3.42857143 C4.95097918,3.42857143 5.14285714,3.62044939 5.14285714,3.85714286 C5.14285714,4.09383632 4.95097918,4.28571429 4.71428571,4.28571429 L3.35266115,4.285 L3.35266115,5.571 L4.71428571,5.57142857 C4.95097918,5.57142857 5.14285714,5.76330654 5.14285714,6 C5.14285714,6.23669346 4.95097918,6.42857143 4.71428571,6.42857143 L3.35266115,6.428 L3.35266115,7.714 L4.71428571,7.71428571 C4.95097918,7.71428571 5.14285714,7.90616368 5.14285714,8.14285714 C5.14285714,8.37955061 4.95097918,8.57142857 4.71428571,8.57142857 L3.35266115,8.571 L3.35304878,9.16802352 C3.35304878,10.3379113 4.26354104,11.2994236 5.41323282,11.3808219 L5.57142857,11.3864033 C6.79466289,11.3864033 7.78980836,10.3824251 7.78980836,9.14838763 L7.78980836,9.14838763 L7.78966115,8.571 L6.42857143,8.57142857 C6.19187796,8.57142857 6,8.37955061 6,8.14285714 C6,7.90616368 6.19187796,7.71428571 6.42857143,7.71428571 L7.78966115,7.714 L7.78966115,6.428 L6.42857143,6.42857143 C6.19187796,6.42857143 6,6.23669346 6,6 C6,5.76330654 6.19187796,5.57142857 6.42857143,5.57142857 L7.78966115,5.571 L7.78966115,4.285 L6.42857143,4.28571429 C6.19187796,4.28571429 6,4.09383632 6,3.85714286 C6,3.62044939 6.19187796,3.42857143 6.42857143,3.42857143 L7.78966115,3.428 L7.78980836,3.3962953 C7.78980836,2.22624508 6.8793161,1.26488106 5.72962432,1.18349601 Z" id="Combined-Shape"></path>
            </g>
        </g>
    </g>
</svg>