<?xml version="1.0" encoding="UTF-8"?>
<svg width="12px" height="18px" viewBox="0 0 12 18" version="1.1" xmlns="http://www.w3.org/2000/svg" xmlns:xlink="http://www.w3.org/1999/xlink">
    <!-- Generator: Sketch 62 (91390) - https://sketch.com -->
    <title>mobile-phone</title>
    <desc>Created with Sketch.</desc>
    <g id="Page-1" stroke="none" stroke-width="1" fill="none" fill-rule="evenodd">
        <g id="Artboard" transform="translate(-561.000000, -23.000000)" fill="#2C2C2C">
            <g id="mobile-phone" transform="translate(561.000000, 23.000000)">
                <path d="M9.81818182,0 L1.63636364,0 C0.736363636,0 0,0.736363636 0,1.63636364 L0,16.3636364 C0,17.2636364 0.736363636,18 1.63636364,18 L9.81818182,18 C10.7181818,18 11.4545455,17.2636364 11.4545455,16.3636364 L11.4545455,1.63636364 C11.4545455,0.736363636 10.7181818,0 9.81818182,0 L9.81818182,0 Z M5.66590925,14.7272727 C6.40019693,14.7272727 6.9954547,15.3225305 6.9954547,16.0568182 C6.9954547,16.7911059 6.40019693,17.3863636 5.66590925,17.3863636 C4.93162157,17.3863636 4.33636379,16.7911059 4.33636379,16.0568182 C4.33636379,15.3225305 4.93162157,14.7272727 5.66590925,14.7272727 Z M9.81818182,2.45454545 L9.81818182,13.9090909 L1.63636364,13.9090909 L1.63636364,2.45454545 L9.81818182,2.45454545 Z" id="color"></path>
            </g>
        </g>
    </g>
</svg>