<?xml version="1.0" encoding="UTF-8"?>
<svg width="14px" height="22px" viewBox="0 0 14 22" version="1.1" xmlns="http://www.w3.org/2000/svg" xmlns:xlink="http://www.w3.org/1999/xlink">
    <!-- Generator: Sketch 48.2 (47327) - http://www.bohemiancoding.com/sketch -->
    <title>mobile-phone</title>
    <desc>Created with Sketch.</desc>
    <defs></defs>
    <g id="Page-1" stroke="none" stroke-width="1" fill="none" fill-rule="evenodd">
        <g id="phone-2" fill="#979797">
            <g id="Shape">
                <path d="M12,0 L2,0 C0.9,0 0,0.9 0,2 L0,20 C0,21.1 0.9,22 2,22 L12,22 C13.1,22 14,21.1 14,20 L14,2 C14,0.9 13.1,0 12,0 L12,0 Z M12,17 L2,17 L2,3 L12,3 L12,17 Z M6.92500019,21.25 C6.02753747,21.25 5.30000019,20.5224627 5.30000019,19.625 C5.30000019,18.7275373 6.02753747,18 6.92500019,18 C7.82246291,18 8.55000019,18.7275373 8.55000019,19.625 C8.55000019,20.5224627 7.82246291,21.25 6.92500019,21.25 Z"></path>
            </g>
        </g>
    </g>
</svg>