<?xml version="1.0" encoding="UTF-8"?>
<svg width="5px" height="18px" viewBox="0 0 5 18" version="1.1" xmlns="http://www.w3.org/2000/svg" xmlns:xlink="http://www.w3.org/1999/xlink">
    <!-- Generator: Sketch 62 (91390) - https://sketch.com -->
    <title>more</title>
    <desc>Created with Sketch.</desc>
    <g id="Page-1" stroke="none" stroke-width="1" fill="none" fill-rule="evenodd">
        <g id="Artboard" transform="translate(-626.000000, -13.000000)" fill="#2C2C2C">
            <g id="More" transform="translate(626.000000, 13.000000)">
                <path d="M2.07692308,13.5 C3.22397602,13.5 4.15384615,14.4298701 4.15384615,15.5769231 C4.15384615,16.723976 3.22397602,17.6538462 2.07692308,17.6538462 C0.929870135,17.6538462 0,16.723976 0,15.5769231 C0,14.4298701 0.929870135,13.5 2.07692308,13.5 Z M2.07692308,6.75 C3.22397602,6.75 4.15384615,7.67987014 4.15384615,8.82692308 C4.15384615,9.97397602 3.22397602,10.9038462 2.07692308,10.9038462 C0.929870135,10.9038462 8.8817842e-16,9.97397602 8.8817842e-16,8.82692308 C8.8817842e-16,7.67987014 0.929870135,6.75 2.07692308,6.75 Z M2.07692308,6.358743e-16 C3.22397602,5.65637564e-16 4.15384615,0.929870135 4.15384615,2.07692308 C4.15384615,3.22397602 3.22397602,4.15384615 2.07692308,4.15384615 C0.929870135,4.15384615 0,3.22397602 0,2.07692308 C0,0.929870135 0.929870135,7.06111035e-16 2.07692308,6.358743e-16 Z" id="color"></path>
            </g>
        </g>
    </g>
</svg>