<?xml version="1.0" encoding="UTF-8"?>
<svg width="18px" height="18px" viewBox="0 0 18 18" version="1.1" xmlns="http://www.w3.org/2000/svg" xmlns:xlink="http://www.w3.org/1999/xlink">
    <!-- Generator: Sketch 63.1 (92452) - https://sketch.com -->
    <title>Non Aerospace Copy</title>
    <desc>Created with Sketch.</desc>
    <g id="Page-1" stroke="none" stroke-width="1" fill="none" fill-rule="evenodd">
        <g id="Connect-aerospace-item-entry" transform="translate(-790.000000, -762.000000)">
            <g id="Non-Aerospace" transform="translate(790.000000, 762.000000)">
                <g id="Group-43">
                    <path d="M11.1243189,7.66757177 L13.3744946,6.26124532 C14.2281218,5.8936674 14.7824308,5.8936674 15.0374216,6.26124532 C15.2924125,6.62882325 14.8007404,7.22832236 13.5624054,8.05974266 L12.0233689,9.04594989 L10.5318435,14.2338426 L9.77806142,14.6279927 L9.85408709,10.3378825 L6.07579316,12.4617105 L3.20102431,10.2391267 C3.03082378,10.02489 3.08166075,9.86724135 3.35353523,9.76618072 C3.76134695,9.61458978 3.96856962,9.66331301 4.25458959,9.76618072 C4.44526957,9.8347592 5.05233743,10.0769547 6.07579316,10.4927671 L9.16591753,8.84940833 L5.51515981,6.91205766 L6.12802432,6.53724001 L11.1243189,7.66757177 Z" id="Path-3-Copy" fill="#DA291C" transform="translate(9.102733, 10.306777) rotate(-16.000000) translate(-9.102733, -10.306777) "></path>
                    <circle id="Oval" stroke="#DA291C" stroke-width="1.30000007" cx="9" cy="9" r="8.34999996"></circle>
                </g>
            </g>
        </g>
    </g>
</svg>