<?xml version="1.0" encoding="UTF-8"?>
<svg width="18px" height="21px" viewBox="0 0 18 21" version="1.1" xmlns="http://www.w3.org/2000/svg" xmlns:xlink="http://www.w3.org/1999/xlink">
    <!-- Generator: Sketch 62 (91390) - https://sketch.com -->
    <title>notes</title>
    <desc>Created with Sketch.</desc>
    <g id="Page-1" stroke="none" stroke-width="1" fill="none" fill-rule="evenodd">
        <g id="Artboard" transform="translate(-661.000000, -11.000000)">
            <g id="Notes" transform="translate(661.000000, 11.000000)">
                <path d="M8.5284,0 C8.7876,0 9,0.2115 9,0.4716 L9,0.4716 L9,1.8 L13.9284,1.8 C14.1876,1.8 14.4,2.0115 14.4,2.2716 L14.4,2.2716 L14.4,2.621 L13.5144,3.5064 L13.4471139,3.43932166 L12.599,4.295 L12.6,3.6 L10.8,3.6 L10.8,4.9284 C10.8,5.1876 10.5876,5.4 10.3284,5.4 L10.3284,5.4 L4.0716,5.4 C3.8124,5.4 3.6,5.1876 3.6,4.9284 L3.6,4.9284 L3.6,3.6 L1.8,3.6 L1.8,18.9 L12.6,18.9 L12.599,11.814 L14.4,9.997 L14.4,20.2284 C14.4,20.4588 14.2321778,20.6522222 14.0128395,20.6923605 L13.9284,20.7 L0.4716,20.7 C0.2124,20.7 0,20.4876 0,20.2284 L0,20.2284 L0,2.2716 C0,2.0115 0.2124,1.8 0.4716,1.8 L0.4716,1.8 L5.4,1.8 L5.4,0.4716 C5.4,0.2115 5.6124,0 5.8716,0 L5.8716,0 Z M13.4523,5.9895 L14.4,6.938 L14.4,7.438 L12.599,9.256 L12.599,6.85 L13.4523,5.9895 Z" id="Combined-Shape" fill="#2C2C2C"></path>
                <polygon id="Fill-9" fill="#2C2C2C" points="2.7 8.03009709 11.7 8.03009709 11.7 7.2 2.7 7.2"></polygon>
                <polygon id="Fill-10" fill="#2C2C2C" points="2.7 10.7300971 11.7 10.7300971 11.7 9.9 2.7 9.9"></polygon>
                <polygon id="Fill-12" fill="#2C2C2C" points="2.7 16.1300971 11.7 16.1300971 11.7 15.3 2.7 15.3"></polygon>
                <polygon id="Fill-11" fill="#2C2C2C" points="2.7 13.4300971 11.7 13.4300971 11.7 12.6 2.7 12.6"></polygon>
                <path d="M6.3,11.93 L6.3,14.4 L8.77,14.4 L15.92,7.185 L13.45,4.715 L6.3,11.93 L6.3,11.93 Z M17.805,5.3 C18.065,5.04 18.065,4.65 17.805,4.39 L16.31,2.895 C16.05,2.635 15.66,2.635 15.4,2.895 L14.23,4.065 L16.7,6.535 L17.805,5.3 L17.805,5.3 Z" id="pencil-color" fill="#8DC63F"></path>
            </g>
        </g>
    </g>
</svg>