<?xml version="1.0" encoding="UTF-8"?>
<svg width="32px" height="30px" viewBox="0 0 32 30" version="1.1" xmlns="http://www.w3.org/2000/svg" xmlns:xlink="http://www.w3.org/1999/xlink">
    <!-- Generator: Sketch 48.2 (47327) - http://www.bohemiancoding.com/sketch -->
    <title>Notifications</title>
    <desc>Created with Sketch.</desc>
    <defs></defs>
    <g id="Page-1" stroke="none" stroke-width="1" fill="none" fill-rule="evenodd">
        <g id="Notifications">
            <g id="Group-2">
                <g id="notifications" opacity="0.290874094" fill="#000000">
                    <g transform="translate(0.750000, 0.000000)" id="Shape">
                        <path d="M12.75,30 C14.4,30 15.75,28.65 15.75,27 L9.75,27 C9.75,28.65 11.1,30 12.75,30 L12.75,30 Z M22.5,21 L22.5,12.75 C22.5,8.1 19.35,4.35 15,3.3 L15,2.25 C15,1.05 13.95,0 12.75,0 C11.55,0 10.5,1.05 10.5,2.25 L10.5,3.3 C6.15,4.35 3,8.1 3,12.75 L3,21 L0,24 L0,25.5 L25.5,25.5 L25.5,24 L22.5,21 L22.5,21 Z"></path>
                    </g>
                </g>
                <circle id="Oval" fill="#DA291C" cx="23.25" cy="9.75" r="8.25"></circle>
                <text id="1" font-family="Verdana" font-size="10" font-weight="normal" fill="#FFFFFF">
                    <tspan x="20" y="12.8611111">1</tspan>
                </text>
            </g>
        </g>
    </g>
</svg>