<?xml version="1.0" encoding="UTF-8"?>
<svg width="16px" height="18px" viewBox="0 0 16 18" version="1.1" xmlns="http://www.w3.org/2000/svg" xmlns:xlink="http://www.w3.org/1999/xlink">
    <!-- Generator: Sketch 62 (91390) - https://sketch.com -->
    <title>notifications-bell</title>
    <desc>Created with Sketch.</desc>
    <g id="Page-1" stroke="none" stroke-width="1" fill="none" fill-rule="evenodd">
        <g id="Artboard" transform="translate(-855.000000, -331.000000)" fill="#2C2C2C">
            <g id="notifications-bell" transform="translate(855.000000, 331.000000)">
                <path d="M7.8,18 C8.80941176,18 9.63529412,17.19 9.63529412,16.2 L5.96470588,16.2 C5.96470588,17.19 6.79058824,18 7.8,18 L7.8,18 Z M13.7647059,12.6 L13.7647059,7.65 C13.7647059,4.86 11.8376471,2.61 9.17647059,1.98 L9.17647059,1.35 C9.17647059,0.63 8.53411765,0 7.8,0 C7.06588235,0 6.42352941,0.63 6.42352941,1.35 L6.42352941,1.98 C3.76235294,2.61 1.83529412,4.86 1.83529412,7.65 L1.83529412,12.6 L0,14.4 L0,15.3 L15.6,15.3 L15.6,14.4 L13.7647059,12.6 L13.7647059,12.6 Z" id="color"></path>
            </g>
        </g>
    </g>
</svg>