<?xml version="1.0" encoding="UTF-8"?>
<svg width="16px" height="20px" viewBox="0 0 16 20" version="1.1" xmlns="http://www.w3.org/2000/svg" xmlns:xlink="http://www.w3.org/1999/xlink">
    <!-- Generator: Sketch 48.2 (47327) - http://www.bohemiancoding.com/sketch -->
    <title>Order-Confirm</title>
    <desc>Created with Sketch.</desc>
    <defs>
        <polygon id="path-1" points="0 18.7112817 11.6714354 18.7112817 11.6714354 0.717443055 0 0.717443055"></polygon>
    </defs>
    <g id="Page-1" stroke="none" stroke-width="1" fill="none" fill-rule="evenodd">
        <g id="Order-Confirm" transform="translate(1.000000, 0.000000)">
            <g id="Page-1" stroke-width="1">
                <path d="M3.74590129,0.787457991 L11.015763,0.787457991 C11.4485241,0.787457991 11.8026013,1.16553865 11.8026013,1.62763723 L11.8026013,17.7310726 C11.8026013,18.1931712 11.4485241,18.5712519 11.015763,18.5712519 L0.918004292,18.5712519 C0.485177635,18.5712519 0.131165951,18.1931712 0.131165951,17.7310726 L0.131165951,4.49474888 C0.131165951,4.40540982 0.165262279,4.3199916 0.225652122,4.25816841 L3.52440629,0.88246826 C3.5840093,0.82148525 3.66334883,0.787457991 3.74590129,0.787457991 Z" id="Fill-1" fill="#FFFFFF"></path>
                <path d="M3.74590129,0.787457991 L11.015763,0.787457991 C11.4485241,0.787457991 11.8026013,1.16553865 11.8026013,1.62763723 L11.8026013,17.7310726 C11.8026013,18.1931712 11.4485241,18.5712519 11.015763,18.5712519 L0.918004292,18.5712519 C0.485177635,18.5712519 0.131165951,18.1931712 0.131165951,17.7310726 L0.131165951,4.49474888 C0.131165951,4.40540982 0.165262279,4.3199916 0.225652122,4.25816841 L3.52440629,0.88246826 C3.5840093,0.82148525 3.66334883,0.787457991 3.74590129,0.787457991 Z" id="Stroke-3" stroke="#000000" stroke-width="0.75"></path>
                <path d="M3.7087953,0.717443055 L3.7087953,3.54849701 C3.7087953,4.04021191 3.33203088,4.44251774 2.87153374,4.44251774 L0.0727497616,4.44251774" id="Stroke-5" stroke="#000000" stroke-width="0.75"></path>
                <mask id="mask-2" fill="white">
                    <use xlink:href="#path-1"></use>
                </mask>
                <g id="Clip-8"></g>
                <polygon id="Fill-7" fill="#CECECE" mask="url(#mask-2)" points="4.55172866 3.56474048 10.1305436 3.56474048 10.1305436 2.23445668 4.55172866 2.23445668"></polygon>
                <polygon id="Fill-9" fill="#CECECE" mask="url(#mask-2)" points="1.89077253 6.71541262 10.1305436 6.71541262 10.1305436 5.38512883 1.89077253 5.38512883"></polygon>
                <polygon id="Fill-10" fill="#CECECE" mask="url(#mask-2)" points="1.89077253 9.86608476 10.1305436 9.86608476 10.1305436 8.53580097 1.89077253 8.53580097"></polygon>
                <polygon id="Fill-11" fill="#CECECE" mask="url(#mask-2)" points="1.89077253 13.0167569 10.1305436 13.0167569 10.1305436 11.6864731 1.89077253 11.6864731"></polygon>
                <polygon id="Fill-12" fill="#CECECE" mask="url(#mask-2)" points="1.89077253 16.1674291 10.1305436 16.1674291 10.1305436 14.8371453 1.89077253 14.8371453"></polygon>
            </g>
            <ellipse id="Oval" fill="#FFFFFF" cx="10.625" cy="16.25" rx="3.125" ry="2.5"></ellipse>
            <g id="check-circle" stroke-width="1" transform="translate(7.500000, 12.500000)" fill="#8FA500">
                <g id="Shape">
                    <path d="M3.75,0 C1.6875,0 0,1.6875 0,3.75 C0,5.8125 1.6875,7.5 3.75,7.5 C5.8125,7.5 7.5,5.8125 7.5,3.75 C7.5,1.6875 5.8125,0 3.75,0 L3.75,0 Z M3,5.625 L1.125,3.75 L1.65,3.225 L3,4.575 L5.85,1.725 L6.375,2.25 L3,5.625 L3,5.625 Z"></path>
                </g>
            </g>
        </g>
    </g>
</svg>