<?xml version="1.0" encoding="UTF-8"?>
<svg width="20px" height="25px" viewBox="0 0 20 25" version="1.1" xmlns="http://www.w3.org/2000/svg" xmlns:xlink="http://www.w3.org/1999/xlink">
    <!-- Generator: Sketch 62 (91390) - https://sketch.com -->
    <title>order-confirmation</title>
    <desc>Created with Sketch.</desc>
    <g id="Page-1" stroke="none" stroke-width="1" fill="none" fill-rule="evenodd">
        <g id="Artboard" transform="translate(-212.000000, -448.000000)">
            <g id="order-confirmation" transform="translate(212.000000, 448.000000)">
                <g id="Group">
                    <path d="M5.10435667,0.5859375 L14.1916838,0.5859375 C14.7326352,0.5859375 15.1752317,1.05853832 15.1752317,1.63616155 L15.1752317,21.7654558 C15.1752317,22.343079 14.7326352,22.8156798 14.1916838,22.8156798 L1.56948543,22.8156798 C1.0284521,22.8156798 0.5859375,22.343079 0.5859375,21.7654558 L0.5859375,5.22005111 C0.5859375,5.10837729 0.62855791,5.00160451 0.704045213,4.92432552 L4.82748793,0.704700336 C4.90199168,0.628471574 5.0011661,0.5859375 5.10435667,0.5859375 Z" id="background" fill="#FFFFFF"></path>
                    <path d="M14.1916838,2.35922393e-14 C15.0166163,2.35922393e-14 15.6832852,0.662926953 15.7548135,1.48882488 L15.7611692,1.63616155 L15.7617795,15.4027494 C15.3879247,15.2971098 14.9950928,15.2366896 14.589565,15.2277697 L14.5892942,1.63616155 C14.5892942,1.40300854 14.43983,1.21750608 14.2602183,1.17916174 L14.1916838,1.171875 L5.643,1.17 L5.64391169,4.03723628 C5.64391169,4.90520802 5.01289057,5.63687174 4.19041275,5.73056925 L4.01139723,5.74069968 L1.17,5.74 L1.171875,21.7654558 C1.171875,21.9986418 1.32130312,22.1841186 1.50093888,22.2224568 L1.56948543,22.2297423 L10.4082004,22.2301897 C10.658778,22.6702564 10.9785625,23.0657935 11.3527419,23.4019889 L1.56948543,23.4016173 C0.744494642,23.4016173 0.0778775361,22.7387111 0.00635523659,21.9127959 L-1.55048197e-12,21.7654558 L-1.55048197e-12,5.22005111 C-1.55048197e-12,5.00064501 0.07046068,4.78762837 0.200147133,4.61399726 L0.284976218,4.51480882 L4.40845344,0.295148323 C4.56158727,0.138468943 4.76055893,0.0379577497 4.97446681,0.00880622372 L5.10435667,2.35922393e-14 L14.1916838,2.35922393e-14 Z M9.79811287,19.8100283 L2.78544573,19.8109013 L2.78544573,18.1480466 L10.1410486,18.148084 C9.93155708,18.6627946 9.81089939,19.2231218 9.79811287,19.8100283 Z M13.0851596,14.2097064 L13.0853467,15.4389809 C12.7409569,15.546541 12.4136361,15.6927594 12.1084645,15.8725558 L2.78544573,15.8725611 L2.78544573,14.2097064 L13.0851596,14.2097064 Z M13.0851596,10.2713662 L13.0851596,11.934221 L2.78544573,11.934221 L2.78544573,10.2713662 L13.0851596,10.2713662 Z M13.0851596,6.33302605 L13.0851596,7.99588079 L2.78544573,7.99588079 L2.78544573,6.33302605 L13.0851596,6.33302605 Z M4.472,1.904 L1.868,4.568 L4.01139723,4.56882468 C4.21978142,4.56882468 4.40936456,4.39817669 4.45927843,4.16092862 L4.47203669,4.03723628 L4.472,1.904 Z M13.0851596,2.39468587 L13.0851596,4.05754061 L6.11164089,4.05754061 L6.11164089,2.39468587 L13.0851596,2.39468587 Z" id="color" fill="#2C2C2C"></path>
                    <path d="M14.4844801,15.226615 C11.9063551,15.226615 9.79698006,17.33599 9.79698006,19.914115 C9.79698006,22.49224 11.9063551,24.601615 14.4844801,24.601615 C17.0626051,24.601615 19.1719801,22.49224 19.1719801,19.914115 C19.1719801,17.33599 17.0626051,15.226615 14.4844801,15.226615 L14.4844801,15.226615 Z M13.5469801,22.257865 L11.2032301,19.914115 L11.8594801,19.257865 L13.5469801,20.945365 L17.1094801,17.382865 L17.7657301,18.039115 L13.5469801,22.257865 L13.5469801,22.257865 Z" id="checkmark" fill="#8DC63F"></path>
                </g>
            </g>
        </g>
    </g>
</svg>