<svg width="15" height="18" xmlns="http://www.w3.org/2000/svg">
  <g fill="none" fill-rule="evenodd">
    <path d="M3.186 1.286h6.406c.382 0 .694.328.694.729v13.97c0 .401-.312.73-.694.73H.693c-.381 0-.693-.329-.693-.73V4.502c0-.077.03-.152.083-.205L2.99 1.368a.275.275 0 01.196-.082z"/>
    <path d="M10.379 0c.54 0 .985.423 1.042.96l.006.116V9.37c1.591.66 2.716 2.272 2.716 4.156 0 2.472-1.934 4.475-4.32 4.475a4.24 4.24 0 01-3.15-1.412H1.048c-.54 0-.985-.423-1.042-.96L0 15.51V3.646c0-.133.042-.261.119-.367l.064-.075L3.231.178a.612.612 0 01.335-.17L3.66 0h6.718zM3.947.645v2.153c0 .57-.417 1.046-.957 1.116l-.137.009-2.212-.001v11.59c0 .21.147.386.335.422l.072.007 5.138.001a4.548 4.548 0 01-.647-1.832H1.947v-1.193h3.595c.077-.588.264-1.14.54-1.632H1.947v-1.192l5.105-.001a4.215 4.215 0 013.734-.93V1.076a.427.427 0 00-.335-.423l-.072-.007L3.947.645zm5.614 6.624V8.46H1.947V7.27H9.56zm0-2.825v1.193H1.947V4.444H9.56zM3.305 1.01L1.022 3.276h1.831c.216 0 .4-.163.444-.381l.009-.097-.001-1.788zm6.256.61v1.193H4.406V1.62H9.56z" fill="#2C2C2C"/>
    <path d="M11.112 10.286c.395 0 .717.292.717.651v1.479a.637.637 0 01-.28.517l-.82.572.824.586a.628.628 0 01.276.514v1.458c0 .359-.322.651-.717.651H8.688c-.395 0-.717-.292-.717-.651v-1.479c0-.201.105-.394.28-.517l.82-.572-.824-.586a.628.628 0 01-.276-.514v-1.458c0-.359.322-.651.717-.651zm0 .229H8.688c-.257 0-.464.189-.464.422v1.458c0 .13.065.253.178.333l1.082.77-1.079.751a.41.41 0 00-.181.335v1.479c0 .233.207.422.464.422h2.424c.257 0 .464-.189.464-.422v-1.458a.41.41 0 00-.178-.333l-1.081-.77 1.078-.751a.41.41 0 00.181-.335v-1.479c0-.233-.207-.422-.464-.422zm-.892 4.457l.835.64a.41.41 0 01.162.326c0 .122-.101.22-.226.22h-2.12a.223.223 0 01-.226-.22v-.017c0-.129.061-.25.166-.328l.829-.624a.481.481 0 01.58.003zm.772-4.024c.125 0 .226.099.226.22v.017c0 .129-.743.752-.847.83l-.148.122a.481.481 0 01-.58-.002l-.835-.64a.41.41 0 01-.162-.326c0-.122.101-.221.226-.221h2.12z" fill="#FFF"/>
  </g>
</svg>
