<?xml version="1.0" encoding="UTF-8"?>
<svg width="18px" height="24px" viewBox="0 0 18 24" version="1.1" xmlns="http://www.w3.org/2000/svg" xmlns:xlink="http://www.w3.org/1999/xlink">
    <!-- Generator: Sketch 62 (91390) - https://sketch.com -->
    <title>paste</title>
    <desc>Created with Sketch.</desc>
    <g id="Page-1" stroke="none" stroke-width="1" fill="none" fill-rule="evenodd">
        <g id="Artboard" transform="translate(-69.000000, -297.000000)">
            <g id="Paste" transform="translate(69.000000, 297.000000)">
                <polygon id="Path-3" fill="#E4E4E4" points="1.05882353 3.17647059 13.7647059 3.17647059 13.7647059 6.35294118 9.52941176 6.35294118 6.35294118 9.52941176 6.35294118 20.1176471 1.05882353 20.1176471"></polygon>
                <path d="M8.77385331,0 C9.01088439,0 9.20987344,0.174997761 9.25116692,0.405183942 L9.25902629,0.493856714 L9.25902629,1.88494929 L14.3292691,1.88494929 C14.5663002,1.88494929 14.7652892,2.05994705 14.8065827,2.29013323 L14.8144421,2.378806 L14.813,5.665 L16.4801463,5.66555781 C17.2707703,5.66555781 17.9236654,6.2896376 17.9937691,7.08391114 L18,7.22575139 L18,21.7339241 C18,22.5466499 17.3910284,23.2158811 16.6181479,23.2877317 L16.4801463,23.2941176 L7.00114692,23.2941176 C6.21047544,23.2941176 5.55762258,22.670048 5.48752372,21.875766 L5.48129324,21.7339241 L5.481,21.676 L0.485172978,21.6769168 C0.248141905,21.6769168 0.0491528556,21.5011744 0.00785937645,21.2714847 L-4.71237689e-11,21.1830601 L-4.71237689e-11,2.378806 C-4.71237689e-11,2.13669474 0.172652263,1.93479573 0.398303243,1.89291831 L0.485172978,1.88494929 L5.55541578,1.88494929 L5.55541578,0.493856714 C5.55541578,0.25174545 5.72806804,0.0498464368 5.95371902,0.00796901744 L6.04058875,0 L8.77385331,0 Z M16.4370864,7.27097769 L10.4352932,7.27055781 L10.4354258,9.33392333 C10.4354258,10.0727493 9.90264365,10.6921437 9.21346159,10.7666819 L9.07365137,10.7741988 L7.04329324,10.7735578 L7.04357278,21.6876268 L16.4370864,21.6876268 L16.4370864,7.27097769 Z M15.8823529,19.2217195 L15.8823529,20.1176471 L7.67647059,20.1176471 L7.67647059,19.2217195 L15.8823529,19.2217195 Z M12.9626368,3.76989858 L1.85180526,3.76989858 L1.85180526,19.7919675 L5.481,19.791 L5.48129324,9.80883691 C5.48129324,9.55176356 5.56894958,9.30436416 5.72686763,9.10837344 L5.81160127,9.01485535 L8.9082656,5.97351717 C9.07607003,5.80873857 9.2899774,5.7047303 9.5177151,5.67463806 L9.65575917,5.66555781 L12.961,5.665 L12.9626368,3.76989858 Z M15.8823529,16.5339367 L15.8823529,17.4298643 L7.67647059,17.4298643 L7.67647059,16.5339367 L15.8823529,16.5339367 Z M15.8823529,13.8461538 L15.8823529,14.7420814 L7.67647059,14.7420814 L7.67647059,13.8461538 L15.8823529,13.8461538 Z M15.8823529,11.158371 L15.8823529,12.0542986 L7.67647059,12.0542986 L7.67647059,11.158371 L15.8823529,11.158371 Z M9.39329324,7.71755781 L7.37229324,9.70255781 L9.07365137,9.70320487 C9.2219372,9.70320487 9.35582543,9.57909768 9.38698052,9.40927489 L9.39378538,9.33392333 L9.39329324,7.71755781 Z M15.8823529,8.47058824 L15.8823529,9.36651584 L11.25,9.36651584 L11.25,8.47058824 L15.8823529,8.47058824 Z" id="Combined-Shape" fill="#2C2C2C"></path>
            </g>
        </g>
    </g>
</svg>