<?xml version="1.0" encoding="UTF-8"?>
<svg width="19px" height="23px" viewBox="0 0 19 23" version="1.1" xmlns="http://www.w3.org/2000/svg" xmlns:xlink="http://www.w3.org/1999/xlink">
    <!-- Generator: Sketch 48.2 (47327) - http://www.bohemiancoding.com/sketch -->
    <title>Paste</title>
    <desc>Created with Sketch.</desc>
    <defs>
        <polygon id="path-1" points="0 17.6 13.1478261 17.6 13.1478261 0 0 0"></polygon>
    </defs>
    <g id="Page-1" stroke="none" stroke-width="1" fill="none" fill-rule="evenodd">
        <g id="Paste">
            <g>
                <rect id="Rectangle-5" fill="#E4E4E4" x="1.75304348" y="3.52" width="12.2713043" height="16.72"></rect>
                <g id="Group-5">
                    <g id="compliance-check" fill="#191919">
                        <path d="M13.3333333,19.36 L2.66666667,19.36 L2.66666667,4.4 L4.44444444,4.4 L4.44444444,5.69888 C4.44444444,5.95232 4.65422222,6.16 4.91022222,6.16 L11.0897778,6.16 C11.3457778,6.16 11.5555556,5.95232 11.5555556,5.69888 L11.5555556,4.4 L13.3333333,4.4 L13.3333333,19.36 Z M14.6453333,2.64 L9.77777778,2.64 L9.77777778,1.34112 C9.77777778,1.0868 9.568,0.88 9.312,0.88 L6.688,0.88 C6.432,0.88 6.22222222,1.0868 6.22222222,1.34112 L6.22222222,2.64 L1.35466667,2.64 C1.09866667,2.64 0.888888889,2.8468 0.888888889,3.10112 L0.888888889,20.65888 C0.888888889,20.91232 1.09866667,21.12 1.35466667,21.12 L14.6453333,21.12 C14.9013333,21.12 15.1111111,20.91232 15.1111111,20.65888 L15.1111111,3.10112 C15.1111111,2.8468 14.9013333,2.64 14.6453333,2.64 Z" id="Page-1"></path>
                    </g>
                    <g id="Page-1" transform="translate(7.012174, 4.400000)">
                        <path d="M3.25758812,2.64 L9.80916463,2.64 C10.1991676,2.64 10.5182609,2.95804724 10.5182609,3.34677165 L10.5182609,16.8932283 C10.5182609,17.2819528 10.1991676,17.6 9.80916463,17.6 L0.709096238,17.6 C0.319034216,17.6 0,17.2819528 0,16.8932283 L0,5.75862992 C0,5.68347654 0.0307275037,5.61162142 0.08515064,5.5596148 L3.05797753,2.71992409 C3.11169157,2.66862425 3.18319211,2.64 3.25758812,2.64 Z" id="Fill-1" fill="#FFFFFF"></path>
                        <path d="M3.25758812,2.64 L9.80916463,2.64 C10.1991676,2.64 10.5182609,2.95804724 10.5182609,3.34677165 L10.5182609,16.8932283 C10.5182609,17.2819528 10.1991676,17.6 9.80916463,17.6 L0.709096238,17.6 C0.319034216,17.6 0,17.2819528 0,16.8932283 L0,5.75862992 C0,5.68347654 0.0307275037,5.61162142 0.08515064,5.5596148 L3.05797753,2.71992409 C3.11169157,2.66862425 3.18319211,2.64 3.25758812,2.64 Z" id="Stroke-3" stroke="#000000" stroke-width="1.5"></path>
                        <path d="M3.50608696,2.64 L3.50608696,5.31519735 C3.50608696,5.77984212 3.14278875,6.16 2.69875058,6.16 L0,6.16" id="Stroke-5" stroke="#000000"></path>
                        <mask id="mask-2" fill="white">
                            <use xlink:href="#path-1"></use>
                        </mask>
                        <g id="Clip-8"></g>
                        <polygon id="Fill-7" fill="#CECECE" mask="url(#mask-2)" points="4.3826087 5.28 8.76521739 5.28 8.76521739 4.4 4.3826087 4.4"></polygon>
                        <polygon id="Fill-9" fill="#CECECE" mask="url(#mask-2)" points="1.75304348 7.92 8.76521739 7.92 8.76521739 7.04 1.75304348 7.04"></polygon>
                        <polygon id="Fill-10" fill="#CECECE" mask="url(#mask-2)" points="1.75304348 10.56 8.76521739 10.56 8.76521739 9.68 1.75304348 9.68"></polygon>
                        <polygon id="Fill-11" fill="#CECECE" mask="url(#mask-2)" points="1.75304348 13.2 8.76521739 13.2 8.76521739 12.32 1.75304348 12.32"></polygon>
                        <polygon id="Fill-12" fill="#CECECE" mask="url(#mask-2)" points="1.75304348 15.84 8.76521739 15.84 8.76521739 14.96 1.75304348 14.96"></polygon>
                    </g>
                </g>
            </g>
        </g>
    </g>
</svg>