<?xml version="1.0" encoding="UTF-8"?>
<svg width="18px" height="18px" viewBox="0 0 18 18" version="1.1" xmlns="http://www.w3.org/2000/svg" xmlns:xlink="http://www.w3.org/1999/xlink">
    <!-- Generator: Sketch 62 (91390) - https://sketch.com -->
    <title>Plus</title>
    <desc>Created with Sketch.</desc>
    <g id="Page-1" stroke="none" stroke-width="1" fill="none" fill-rule="evenodd">
        <g id="Artboard" transform="translate(-112.000000, -258.000000)" fill="#2C2C2C">
            <g id="Plus" transform="translate(112.000000, 258.000000)">
                <path d="M9,0 C9.52321713,-9.61134278e-17 9.94736842,0.42415129 9.94736842,0.947368421 L9.947,8.052 L17.0526316,8.05263158 C17.5758487,8.05263158 18,8.47678287 18,9 C18,9.52321713 17.5758487,9.94736842 17.0526316,9.94736842 L9.947,9.947 L9.94736842,17.0526316 C9.94736842,17.5758487 9.52321713,18 9,18 C8.47678287,18 8.05263158,17.5758487 8.05263158,17.0526316 L8.052,9.947 L0.947368421,9.94736842 C0.42415129,9.94736842 6.40756185e-17,9.52321713 0,9 C-6.40756185e-17,8.47678287 0.42415129,8.05263158 0.947368421,8.05263158 L8.052,8.052 L8.05263158,0.947368421 C8.05263158,0.42415129 8.47678287,9.61134278e-17 9,0 Z" id="Combined-Shape"></path>
            </g>
        </g>
    </g>
</svg>