<?xml version="1.0" encoding="UTF-8"?>
<svg width="19px" height="19px" viewBox="0 0 19 19" version="1.1" xmlns="http://www.w3.org/2000/svg" xmlns:xlink="http://www.w3.org/1999/xlink">
    <!-- Generator: Sketch 48.2 (47327) - http://www.bohemiancoding.com/sketch -->
    <title>Plus</title>
    <desc>Created with Sketch.</desc>
    <defs></defs>
    <g id="Page-1" stroke="none" stroke-width="1" fill="none" fill-rule="evenodd">
        <g id="Plus" fill="#979797">
            <path d="M8.5,8.5 L8.5,1 C8.5,0.44771525 8.94771525,-1.61367144e-15 9.5,-1.7151245e-15 C10.0522847,-1.81657756e-15 10.5,0.44771525 10.5,1 L10.5,8.5 L18,8.5 C18.5522847,8.5 19,8.94771525 19,9.5 C19,10.0522847 18.5522847,10.5 18,10.5 L10.5,10.5 L10.5,18 C10.5,18.5522847 10.0522847,19 9.5,19 C8.94771525,19 8.5,18.5522847 8.5,18 L8.5,10.5 L1,10.5 C0.44771525,10.5 6.76353751e-17,10.0522847 0,9.5 C-6.76353751e-17,8.94771525 0.44771525,8.5 1,8.5 L8.5,8.5 Z" id="Combined-Shape"></path>
        </g>
    </g>
</svg>