<?xml version="1.0" encoding="UTF-8"?>
<svg width="20px" height="19px" viewBox="0 0 20 19" version="1.1" xmlns="http://www.w3.org/2000/svg" xmlns:xlink="http://www.w3.org/1999/xlink">
    <!-- Generator: Sketch 62 (91390) - https://sketch.com -->
    <title>previous-purchased</title>
    <desc>Created with Sketch.</desc>
    <g id="Page-1" stroke="none" stroke-width="1" fill="none" fill-rule="evenodd">
        <g id="Artboard" transform="translate(-48.000000, -250.000000)" fill="#2C2C2C">
            <g id="previous-ship" transform="translate(48.000000, 250.000000)">
                <path d="M12.5363873,0.400422736 L18.6723083,3.65588451 C19.1304149,3.8989366 19.2983525,4.45565733 19.0474074,4.89935507 C19.0273136,4.93488301 19.0048088,4.96908085 18.980041,5.00172336 L16.9631263,7.65989977 L16.9093443,7.72067523 L16.9094706,14.2571615 C16.9094706,14.5008244 16.7827518,14.7164339 16.5821136,14.8499877 L16.4917541,14.9020437 L10.2654135,18.1557675 C10.1393104,18.243706 9.98168151,18.2876752 9.81617119,18.2876752 C9.65066087,18.2876752 9.49303199,18.243706 9.36692889,18.1557675 L9.36692889,18.1557675 L3.14058828,14.9020437 C2.88838205,14.7774642 2.72287173,14.5356333 2.72287173,14.2571615 L2.72287173,14.2571615 L2.72287173,7.66177537 C2.72287173,7.63947059 2.72393357,7.61740087 2.72601674,7.59560765 L0.886186051,5.1679437 C0.861418257,5.13530118 0.838913367,5.10110335 0.818819594,5.0655754 C0.567874529,4.62187767 0.735812107,4.06515693 1.19391867,3.82210484 L1.19391867,3.82210484 L7.32983968,0.566643071 C7.76171738,0.337506915 8.30286206,0.467677593 8.57387231,0.86589127 L8.57387231,0.86589127 L9.87634428,2.77967523 L11.2923547,0.699670936 C11.563365,0.301457258 12.1045096,0.171286581 12.5363873,0.400422736 Z M15.3331819,8.91489873 L10.6043156,11.3845044 L10.6043156,16.3017312 L15.3331819,13.8247973 L15.3331819,8.91489873 Z M4.2991605,8.79480522 L4.2991605,13.8247973 L9.02802681,16.3017312 L9.02802681,11.3845044 L4.2991605,8.79480522 Z M9.81617119,5.20682609 L5.11883063,7.66177537 L9.81617119,10.1418458 L14.4583416,7.6575837 L9.81617119,5.20682609 Z M12.1750107,1.56648787 L10.6150615,3.85862671 L16.1191047,6.76134245 L17.7973759,4.54947851 L12.1750107,1.56648787 Z M7.70238007,1.64456959 L2.10398202,4.63906121 L3.68934428,6.72967523 L9.20134428,3.84867523 L7.70238007,1.64456959 Z" id="Combined-Shape"></path>
            </g>
        </g>
    </g>
</svg>