<?xml version="1.0" encoding="UTF-8"?>
<svg width="32px" height="31px" viewBox="0 0 32 31" version="1.1" xmlns="http://www.w3.org/2000/svg" xmlns:xlink="http://www.w3.org/1999/xlink">
    <!-- Generator: Sketch 48.2 (47327) - http://www.bohemiancoding.com/sketch -->
    <title>previous-purchase</title>
    <desc>Created with Sketch.</desc>
    <defs>
        <polygon id="path-1" points="0.000332330827 0.330497278 23.2631579 0.330497278 23.2631579 23.5936552 0.000332330827 23.5936552"></polygon>
    </defs>
    <g id="Page-1" stroke="none" stroke-width="1" fill="none" fill-rule="evenodd">
        <g id="previous-purchase">
            <g>
                <path d="M0,0 L30,0 C31.1045695,-2.02906125e-16 32,0.8954305 32,2 L32,31 L0,31 L0,0 Z" id="Rectangle-6" fill="#FFDA4A"></path>
                <g id="order-history" transform="translate(3.000000, 3.000000)">
                    <g id="Page-1" transform="translate(1.368421, 1.368421)">
                        <path d="M12.6073324,14.6597241 C12.4681512,14.7529936 12.2476222,14.8180369 11.9419321,14.8536266 L11.9419321,12.7501527 C12.2666881,12.8612171 12.4961146,12.9685998 12.630847,13.0729144 C12.8590024,13.2520901 12.9721268,13.4963091 12.9721268,13.8043441 C12.9721268,14.2105575 12.8507405,14.4946615 12.6073324,14.6597241 Z M11.3744036,11.1203899 C11.0890504,11.0375519 10.8780544,10.947964 10.7414154,10.8510127 C10.4961007,10.6755187 10.3728078,10.4368223 10.3728078,10.1355371 C10.3728078,9.85941012 10.4547912,9.64157662 10.618758,9.4820366 C10.7827248,9.32249657 11.0343948,9.23904487 11.3744036,9.23168148 L11.3744036,11.1203899 Z M13.8078492,12.0512446 C13.488813,11.8248205 12.8666288,11.5652612 11.9419321,11.2707257 L11.9419321,9.22125002 C12.3283346,9.24640825 12.5939863,9.38631258 12.7407938,9.64096301 C12.8259548,9.78761711 12.8831526,10.020791 12.9130225,10.339871 L14.453548,10.339871 C14.4300334,9.47958214 14.0900246,8.85737603 13.4335218,8.47325274 C13.0725406,8.23271547 12.5749203,8.08974306 11.9419321,8.04310829 L11.9419321,7.31658755 L11.3744036,7.31658755 L11.3744036,8.03206321 C10.9765616,8.06090313 10.6734136,8.10569707 10.4668663,8.166445 C10.1274931,8.26400986 9.81862533,8.43950389 9.54153411,8.69415432 C9.32672486,8.89112489 9.16021591,9.12613962 9.04137174,9.39858489 C8.92189204,9.67103017 8.86215219,9.97415622 8.86215219,10.307963 C8.86215219,10.8135822 9.01595053,11.2461811 9.32164062,11.6045326 C9.62860176,11.962884 10.1541853,12.2426927 10.8996624,12.4433449 L11.3744036,12.5728178 L11.3744036,14.8695806 C10.9288968,14.7984012 10.6308331,14.6419292 10.4776703,14.4020056 C10.3804341,14.2473745 10.304806,13.9442484 10.2501504,13.4926274 L8.6695865,13.4926274 C8.65751143,14.4860709 8.98544507,15.1886606 9.65275191,15.6016238 C10.031528,15.8305024 10.6054119,15.9851335 11.3744036,16.0636763 L11.3744036,17.1344353 L11.9419321,17.1344353 L11.9419321,16.0532448 C12.546957,16.0102917 13.070634,15.863024 13.5110565,15.6120553 C14.2336545,15.2033874 14.5946357,14.5468188 14.5946357,13.6429632 C14.5946357,12.9587819 14.3321617,12.4273909 13.8078492,12.0512446 Z" id="Fill-1" fill="#2C2C2C"></path>
                        <g id="Group-5" transform="translate(0.000000, 0.471921)">
                            <mask id="mask-2" fill="white">
                                <use xlink:href="#path-1"></use>
                            </mask>
                            <g id="Clip-4"></g>
                            <path d="M18.4372158,2.12488893 L19.493197,0.33041706 L11.4192195,0.384162976 L15.5035654,7.10881996 L16.7739,4.95015935 C18.7496068,6.45424283 19.940182,8.73724102 19.940182,11.231212 C19.940182,15.6544207 16.2122609,19.2521884 11.6319113,19.2521884 C7.05073083,19.2521884 3.3236406,15.6544207 3.3236406,11.231212 L0.000332330827,11.231212 C0.000332330827,17.4232229 5.21792632,22.4608998 11.6319113,22.4608998 C18.0450654,22.4608998 23.2634902,17.4232229 23.2634902,11.231212 C23.2634902,7.57087441 21.4489639,4.21696878 18.4372158,2.12488893" id="Fill-3" fill="#2C2C2C" mask="url(#mask-2)"></path>
                        </g>
                    </g>
                </g>
            </g>
        </g>
    </g>
</svg>