<?xml version="1.0" encoding="UTF-8"?>
<svg width="24px" height="16px" viewBox="0 0 24 16" version="1.1" xmlns="http://www.w3.org/2000/svg" xmlns:xlink="http://www.w3.org/1999/xlink">
    <!-- Generator: Sketch 48.2 (47327) - http://www.bohemiancoding.com/sketch -->
    <title>Priority</title>
    <desc>Created with Sketch.</desc>
    <defs>
        <rect id="path-1" x="6" y="6.6" width="1.6" height="4.8" rx="0.8"></rect>
        <rect id="path-2" x="7.2" y="9" width="1.6" height="3.2" rx="0.8"></rect>
        <path d="M9.40248332,-3.22780691e-12 C9.05187401,0.492951813 8.75860607,1.02952831 8.53240902,1.6 L4,1.6 L4,0 L9.40248332,0 Z" id="path-3"></path>
        <path d="M8.90504537,8 C9.21935312,8.58329417 9.6076631,9.12081779 10.0574045,9.6 L4,9.6 L4,8 L8.90504537,8 Z" id="path-4"></path>
        <path d="M8.01034565,4 C8.00347694,4.13246446 8,4.26582619 8,4.4 C8,4.80832118 8.03220075,5.20912147 8.09420139,5.6 L0,5.6 L0,4 L8.01034565,4 Z" id="path-5"></path>
    </defs>
    <g id="Page-1" stroke="none" stroke-width="1" fill="none" fill-rule="evenodd">
        <g id="Priority" transform="translate(0.000000, -1.000000)">
            <g>
                <g id="Page-1" transform="translate(9.600000, 0.000000)">
                    <path d="M13.9072,4.76234667 L12.1536,3.04771556 C12.0885333,2.98409481 11.9824,2.98409481 11.9173333,3.04771556 L11,3.94414222 C11.7802667,4.46979556 12.44,5.1529363 12.9322667,5.94663111 L13.9072,4.99336296 C13.9722667,4.92974222 13.9722667,4.82596741 13.9072,4.76234667" id="Fill-1" fill="#8FA500"></path>
                    <g id="Group-5" transform="translate(5.000000, 0.500000)" fill="#8FA500">
                        <path d="M0.440426667,1.77684385 L1.08842667,1.77684385 L1.08842667,2.26077867 C1.31989333,2.23679052 1.55402667,2.22479644 1.79189333,2.22479644 C2.02922667,2.22479644 2.26336,2.23679052 2.49429333,2.26077867 L2.49429333,1.77684385 L3.14282667,1.77684385 C3.19562667,1.77684385 3.23882667,1.73460385 3.23882667,1.68349867 L3.23882667,0.612897185 C3.23882667,0.561270519 3.19562667,0.519030519 3.14282667,0.519030519 L0.440426667,0.519030519 C0.387626667,0.519030519 0.344426667,0.561270519 0.344426667,0.612897185 L0.344426667,1.68349867 C0.344426667,1.73460385 0.387626667,1.77684385 0.440426667,1.77684385" id="Fill-3"></path>
                    </g>
                    <path d="M6.69045333,15.1144178 C3.91285333,15.1144178 1.66112,12.912723 1.66112,10.1968474 C1.66112,7.48097185 3.91285333,5.27927704 6.69045333,5.27927704 C9.46805333,5.27927704 11.7197867,7.48097185 11.7197867,10.1968474 C11.7197867,12.912723 9.46805333,15.1144178 6.69045333,15.1144178 M6.69045333,3.56360296 C2.99552,3.56360296 0.00032,6.49224296 0.00032,10.1050667 C0.00032,13.7178904 2.99552,16.6465304 6.69045333,16.6465304 C10.3853867,16.6465304 13.3805867,13.7178904 13.3805867,10.1050667 C13.3805867,6.49224296 10.3853867,3.56360296 6.69045333,3.56360296" id="Fill-6" fill="#8FA500"></path>
                    <path d="M6.69045333,15.1144178 C3.91285333,15.1144178 1.66112,12.912723 1.66112,10.1968474 C1.66112,7.48097185 3.91285333,5.27927704 6.69045333,5.27927704 C9.46805333,5.27927704 11.7197867,7.48097185 11.7197867,10.1968474 C11.7197867,12.912723 9.46805333,15.1144178 6.69045333,15.1144178 M6.69045333,3.56360296 C2.99552,3.56360296 0.00032,6.49224296 0.00032,10.1050667 C0.00032,13.7178904 2.99552,16.6465304 6.69045333,16.6465304 C10.3853867,16.6465304 13.3805867,13.7178904 13.3805867,10.1050667 C13.3805867,6.49224296 10.3853867,3.56360296 6.69045333,3.56360296" id="Fill-8" fill="#8FA500"></path>
                    <g id="Rectangle-10">
                        <use fill="#D8D8D8" fill-rule="evenodd" xlink:href="#path-1"></use>
                        <rect stroke="#979797" stroke-width="1" x="6.5" y="7.1" width="1" height="3.8" rx="0.5"></rect>
                    </g>
                    <g id="Rectangle-10" transform="translate(8.000000, 10.600000) rotate(90.000000) translate(-8.000000, -10.600000) ">
                        <use fill="#D8D8D8" fill-rule="evenodd" xlink:href="#path-2"></use>
                        <rect stroke="#979797" stroke-width="1" x="7.7" y="9.5" width="1" height="2.2" rx="0.5"></rect>
                    </g>
                </g>
                <g id="Group-4" transform="translate(0.000000, 5.800000)">
                    <g id="Combined-Shape">
                        <use fill="#D8D8D8" fill-rule="evenodd" xlink:href="#path-3"></use>
                        <path stroke="#979797" stroke-width="1" d="M8.49908909,0.5 L4.5,0.5 L4.5,1.1 L8.20063369,1.1 C8.29182265,0.895823629 8.39141119,0.695663971 8.49908909,0.5 Z"></path>
                    </g>
                    <g id="Combined-Shape">
                        <use fill="#D8D8D8" fill-rule="evenodd" xlink:href="#path-4"></use>
                        <path stroke="#979797" stroke-width="1" d="M8.61289114,8.5 L4.5,8.5 L4.5,9.1 L9.002299,9.1 C8.86380789,8.90591715 8.73385515,8.70572636 8.61289114,8.5 Z"></path>
                    </g>
                    <g id="Combined-Shape">
                        <use fill="#D8D8D8" fill-rule="evenodd" xlink:href="#path-5"></use>
                        <path stroke="#979797" stroke-width="1" d="M7.50060536,4.5 L0.5,4.5 L0.5,5.1 L7.52985477,5.1 C7.51281662,4.90111627 7.50304035,4.70102343 7.50060537,4.5 Z"></path>
                    </g>
                </g>
            </g>
        </g>
    </g>
</svg>