<?xml version="1.0" encoding="UTF-8"?>
<svg width="25px" height="17px" viewBox="0 0 25 17" version="1.1" xmlns="http://www.w3.org/2000/svg" xmlns:xlink="http://www.w3.org/1999/xlink">
    <!-- Generator: Sketch 62 (91390) - https://sketch.com -->
    <title>Priority</title>
    <desc>Created with Sketch.</desc>
    <g id="Page-1" stroke="none" stroke-width="1" fill="none" fill-rule="evenodd">
        <g id="Artboard" transform="translate(-168.000000, -263.000000)">
            <g id="Priority" transform="translate(168.000000, 262.000000)">
                <path d="M17.2487153,3.77322667 C21.1609976,3.77322667 24.3323859,6.87413961 24.3323859,10.6994824 C24.3323859,14.5248251 21.1609976,17.625738 17.2487153,17.625738 C13.3364329,17.625738 10.1650447,14.5248251 10.1650447,10.6994824 C10.1650447,6.87413961 13.3364329,3.77322667 17.2487153,3.77322667 Z M17.2487153,5.58982275 C14.3077271,5.58982275 11.9235388,7.92102902 11.9235388,10.796662 C11.9235388,13.6722949 14.3077271,16.0035012 17.2487153,16.0035012 C20.1897035,16.0035012 22.5738918,13.6722949 22.5738918,10.796662 C22.5738918,7.92102902 20.1897035,5.58982275 17.2487153,5.58982275 Z M22.7830588,3.22699294 C22.8519529,3.1596298 22.9643294,3.1596298 23.0332235,3.22699294 L23.0332235,3.22699294 L24.8899765,5.04248471 C24.9588706,5.10984784 24.9588706,5.21972706 24.8899765,5.2870902 L24.8899765,5.2870902 L23.8576941,6.29643294 C23.3364706,5.4560502 22.6379294,4.73272471 21.8117647,4.17615059 L21.8117647,4.17615059 Z M18.7865224,1.07897349 C18.8424282,1.07897349 18.8881694,1.1236982 18.8881694,1.17836173 L18.8881694,1.17836173 L18.8881694,2.31193976 C18.8881694,2.36605114 18.8424282,2.41077584 18.7865224,2.41077584 L18.7865224,2.41077584 L18.09984,2.41077584 L18.09984,2.92317741 C17.8553224,2.8977782 17.6074165,2.88507859 17.3561224,2.88507859 C17.1042635,2.88507859 16.8563576,2.8977782 16.6112753,2.92317741 L16.6112753,2.92317741 L16.6112753,2.41077584 L15.9251576,2.41077584 C15.8692518,2.41077584 15.8235106,2.36605114 15.8235106,2.31193976 L15.8235106,2.31193976 L15.8235106,1.17836173 C15.8235106,1.1236982 15.8692518,1.07897349 15.9251576,1.07897349 L15.9251576,1.07897349 Z" id="Combined-Shape" fill="#8DC63F"></path>
                <path d="M9.58984133,15.806766 L4.73529412,15.8059649 L4.73529412,15.1118062 L9.13661488,15.1121718 C9.27664008,15.3513623 9.42795887,15.5831382 9.58984133,15.806766 Z M7.98062485,10.8759688 C7.98368604,11.1512189 7.99320374,11.3750259 8.00823404,11.5711447 L0.5,11.570623 L0.5,10.8764392 L7.98062485,10.8759688 Z M19.1941176,11.2235294 C19.1941176,11.3193671 19.1552718,11.4061318 19.0924665,11.4689371 C19.0296612,11.5317424 18.9428965,11.5705882 18.8470588,11.5705882 L17.3647059,11.5705882 C17.2688682,11.5705882 17.1821035,11.5317424 17.1192982,11.4689371 C17.0564929,11.4061318 17.0176471,11.3193671 17.0176471,11.2235294 L17.0176471,7.83529412 C17.0176471,7.73945647 17.0564929,7.65269176 17.1192982,7.58988647 C17.4605435,7.48823529 17.5473082,7.52708118 17.6101135,7.58988647 C17.6729188,7.65269176 17.7117647,7.73945647 17.7117647,7.83527097 L17.7116239,10.8760502 L18.8470588,10.8764706 C18.9428965,10.8764706 19.0296612,10.9153165 19.0924665,10.9781218 C19.1552718,11.0409271 19.1941176,11.1276918 19.1941176,11.2235294 Z M9.04939563,6.64039556 C8.92355113,6.86588472 8.80762134,7.09766159 8.70219362,7.33513515 L4.73529412,7.33527632 L4.73529412,6.64109537 L9.04939563,6.64039556 Z" id="Combined-Shape" stroke="#2C2C2C" stroke-width="1" fill="#2C2C2C"></path>
            </g>
        </g>
    </g>
</svg>