<?xml version="1.0" encoding="UTF-8"?>
<svg width="14px" height="20px" viewBox="0 0 14 20" version="1.1" xmlns="http://www.w3.org/2000/svg" xmlns:xlink="http://www.w3.org/1999/xlink">
    <!-- Generator: Sketch 48.2 (47327) - http://www.bohemiancoding.com/sketch -->
    <title>Quote</title>
    <desc>Created with Sketch.</desc>
    <defs>
        <polygon id="path-1" points="0 18.9607655 11.8270545 18.9607655 11.8270545 0.727008962 0 0.727008962"></polygon>
    </defs>
    <g id="Page-1" stroke="none" stroke-width="1" fill="none" fill-rule="evenodd">
        <g id="Quote" transform="translate(1.000000, 0.000000)">
            <g>
                <g id="Page-1">
                    <path d="M3.79584664,0.797957431 L11.1626398,0.797957431 C11.6011711,0.797957431 11.9599694,1.18107916 11.9599694,1.64933906 L11.9599694,17.9674869 C11.9599694,18.4357468 11.6011711,18.8188686 11.1626398,18.8188686 L0.930244349,18.8188686 C0.49164667,18.8188686 0.132914831,18.4357468 0.132914831,17.9674869 L0.132914831,4.55467886 C0.132914831,4.46414862 0.167465777,4.37759149 0.228660817,4.31494399 L3.57139838,0.894234503 C3.63179609,0.832438387 3.71219348,0.797957431 3.79584664,0.797957431 Z" id="Fill-1" fill="#FFFFFF"></path>
                    <path d="M3.79584664,0.797957431 L11.1626398,0.797957431 C11.6011711,0.797957431 11.9599694,1.18107916 11.9599694,1.64933906 L11.9599694,17.9674869 C11.9599694,18.4357468 11.6011711,18.8188686 11.1626398,18.8188686 L0.930244349,18.8188686 C0.49164667,18.8188686 0.132914831,18.4357468 0.132914831,17.9674869 L0.132914831,4.55467886 C0.132914831,4.46414862 0.167465777,4.37759149 0.228660817,4.31494399 L3.57139838,0.894234503 C3.63179609,0.832438387 3.71219348,0.797957431 3.79584664,0.797957431 Z" id="Stroke-3" stroke="#000000" stroke-width="0.75"></path>
                    <path d="M3.75824591,0.727008962 L3.75824591,3.59581031 C3.75824591,4.0940814 3.37645796,4.50175131 2.90982086,4.50175131 L0.0737197584,4.50175131" id="Stroke-5" stroke="#000000" stroke-width="0.75"></path>
                    <mask id="mask-2" fill="white">
                        <use xlink:href="#path-1"></use>
                    </mask>
                    <g id="Clip-8"></g>
                    <polygon id="Fill-7" fill="#CECECE" mask="url(#mask-2)" points="4.61241838 3.61227035 10.2656175 3.61227035 10.2656175 2.26424944 4.61241838 2.26424944"></polygon>
                    <polygon id="Fill-9" fill="#CECECE" mask="url(#mask-2)" points="1.91598283 6.80495146 10.2656175 6.80495146 10.2656175 5.45693055 1.91598283 5.45693055"></polygon>
                    <polygon id="Fill-10" fill="#CECECE" mask="url(#mask-2)" points="1.91598283 9.99763256 10.2656175 9.99763256 10.2656175 8.64961165 1.91598283 8.64961165"></polygon>
                    <polygon id="Fill-11" fill="#CECECE" mask="url(#mask-2)" points="1.91598283 13.1903137 10.2656175 13.1903137 10.2656175 11.8422928 1.91598283 11.8422928"></polygon>
                    <polygon id="Fill-12" fill="#CECECE" mask="url(#mask-2)" points="1.91598283 16.3829948 10.2656175 16.3829948 10.2656175 15.0349739 1.91598283 15.0349739"></polygon>
                </g>
                <path d="M6.51615982,5.06604818 L6.51615982,5.66722005 C6.91323212,5.70804057 7.25370723,5.78968038 7.53759537,5.91214193 C7.82148351,6.03460348 8.06918611,6.2201485 8.2807106,6.46878255 C8.44770362,6.65804131 8.57665741,6.85286358 8.66757584,7.05325521 C8.75849426,7.25364684 8.80395279,7.4373364 8.80395279,7.60432943 C8.80395279,7.78987723 8.73622886,7.95037367 8.60077896,8.08582357 C8.46532907,8.22127346 8.30112172,8.2889974 8.10815201,8.2889974 C7.74447831,8.2889974 7.50883614,8.09231968 7.40121841,7.69895833 C7.27875686,7.23508883 6.98374028,6.92708409 6.51615982,6.7749349 L6.51615982,9.0905599 C6.97631837,9.2167324 7.34276978,9.33177031 7.61552505,9.43567708 C7.88828032,9.53958385 8.13227203,9.68987532 8.34750748,9.88655599 C8.57758675,10.0906586 8.75478225,10.3346503 8.87909927,10.6185384 C9.0034163,10.9024265 9.06557388,11.2132145 9.06557388,11.5509115 C9.06557388,11.9739604 8.9663073,12.3700991 8.76777115,12.7393392 C8.569235,13.1085793 8.27700159,13.41009 7.89106216,13.6438802 C7.50512273,13.8776704 7.04682654,14.0168292 6.51615982,14.0613607 L6.51615982,15.4473958 C6.51615982,15.6663422 6.49482214,15.825911 6.45214615,15.9261068 C6.40947015,16.0263026 6.31576992,16.0763997 6.17104263,16.0763997 C6.03744822,16.0763997 5.94374798,16.0355798 5.88993912,15.9539388 C5.83613025,15.8722978 5.80922623,15.7461272 5.80922623,15.5754232 L5.80922623,14.0724935 C5.37504437,14.0242511 4.9956048,13.9222013 4.67089615,13.7663411 C4.34618749,13.610481 4.07529177,13.4165864 3.85820084,13.1846517 C3.64110991,12.9527169 3.48061347,12.7115084 3.3767067,12.4610189 C3.27279993,12.2105293 3.22084732,11.9646822 3.22084732,11.7234701 C3.22084732,11.5453442 3.2904267,11.3848477 3.42958755,11.2419759 C3.56874841,11.0991041 3.742233,11.0276693 3.95004654,11.0276693 C4.11703956,11.0276693 4.25805378,11.0666337 4.37309341,11.1445638 C4.48813305,11.2224939 4.56791741,11.3319654 4.61244888,11.4729818 C4.7126447,11.7772802 4.79985086,12.0101392 4.87406998,12.1715658 C4.9482891,12.3329923 5.06054383,12.4805006 5.21083755,12.6140951 C5.36113128,12.7476895 5.56059217,12.8497392 5.80922623,12.9202474 L5.80922623,10.3318685 C5.31195812,10.1945631 4.89633727,10.0414885 4.56235123,9.87263997 C4.22836518,9.70379147 3.95746945,9.46351067 3.74965591,9.15179036 C3.54184238,8.84007006 3.43793716,8.43929281 3.43793716,7.94944661 C3.43793716,7.31116217 3.64110896,6.78792522 4.04745865,6.37972005 C4.45380834,5.97151489 5.04105832,5.73401726 5.80922623,5.66722005 L5.80922623,5.07718099 C5.80922623,4.76546068 5.92611959,4.60960286 6.15990982,4.60960286 C6.39741101,4.60960286 6.51615982,4.76174978 6.51615982,5.06604818 Z M5.80922623,8.88460286 L5.80922623,6.75266927 C5.49750592,6.84544317 5.25444194,6.96790289 5.08002701,7.12005208 C4.90561207,7.27220128 4.81840591,7.50227711 4.81840591,7.81028646 C4.81840591,8.10345199 4.90004572,8.32517828 5.06332779,8.47547201 C5.22660986,8.62576573 5.47524018,8.76214131 5.80922623,8.88460286 Z M6.51615982,10.5378255 L6.51615982,12.9759115 C6.89096638,12.9016923 7.18041661,12.7514009 7.3845192,12.5250326 C7.58862178,12.2986642 7.69067154,12.0351903 7.69067154,11.7346029 C7.69067154,11.4117497 7.59140495,11.1621916 7.3928688,10.9859212 C7.19433266,10.8096508 6.90209925,10.6602871 6.51615982,10.5378255 Z" id="$" stroke="#FFFFFF" fill="#A0B100"></path>
                <path d="M6.51615982,5.06604818 L6.51615982,5.66722005 C6.91323212,5.70804057 7.25370723,5.78968038 7.53759537,5.91214193 C7.82148351,6.03460348 8.06918611,6.2201485 8.2807106,6.46878255 C8.44770362,6.65804131 8.57665741,6.85286358 8.66757584,7.05325521 C8.75849426,7.25364684 8.80395279,7.4373364 8.80395279,7.60432943 C8.80395279,7.78987723 8.73622886,7.95037367 8.60077896,8.08582357 C8.46532907,8.22127346 8.30112172,8.2889974 8.10815201,8.2889974 C7.74447831,8.2889974 7.50883614,8.09231968 7.40121841,7.69895833 C7.27875686,7.23508883 6.98374028,6.92708409 6.51615982,6.7749349 L6.51615982,9.0905599 C6.97631837,9.2167324 7.34276978,9.33177031 7.61552505,9.43567708 C7.88828032,9.53958385 8.13227203,9.68987532 8.34750748,9.88655599 C8.57758675,10.0906586 8.75478225,10.3346503 8.87909927,10.6185384 C9.0034163,10.9024265 9.06557388,11.2132145 9.06557388,11.5509115 C9.06557388,11.9739604 8.9663073,12.3700991 8.76777115,12.7393392 C8.569235,13.1085793 8.27700159,13.41009 7.89106216,13.6438802 C7.50512273,13.8776704 7.04682654,14.0168292 6.51615982,14.0613607 L6.51615982,15.4473958 C6.51615982,15.6663422 6.49482214,15.825911 6.45214615,15.9261068 C6.40947015,16.0263026 6.31576992,16.0763997 6.17104263,16.0763997 C6.03744822,16.0763997 5.94374798,16.0355798 5.88993912,15.9539388 C5.83613025,15.8722978 5.80922623,15.7461272 5.80922623,15.5754232 L5.80922623,14.0724935 C5.37504437,14.0242511 4.9956048,13.9222013 4.67089615,13.7663411 C4.34618749,13.610481 4.07529177,13.4165864 3.85820084,13.1846517 C3.64110991,12.9527169 3.48061347,12.7115084 3.3767067,12.4610189 C3.27279993,12.2105293 3.22084732,11.9646822 3.22084732,11.7234701 C3.22084732,11.5453442 3.2904267,11.3848477 3.42958755,11.2419759 C3.56874841,11.0991041 3.742233,11.0276693 3.95004654,11.0276693 C4.11703956,11.0276693 4.25805378,11.0666337 4.37309341,11.1445638 C4.48813305,11.2224939 4.56791741,11.3319654 4.61244888,11.4729818 C4.7126447,11.7772802 4.79985086,12.0101392 4.87406998,12.1715658 C4.9482891,12.3329923 5.06054383,12.4805006 5.21083755,12.6140951 C5.36113128,12.7476895 5.56059217,12.8497392 5.80922623,12.9202474 L5.80922623,10.3318685 C5.31195812,10.1945631 4.89633727,10.0414885 4.56235123,9.87263997 C4.22836518,9.70379147 3.95746945,9.46351067 3.74965591,9.15179036 C3.54184238,8.84007006 3.43793716,8.43929281 3.43793716,7.94944661 C3.43793716,7.31116217 3.64110896,6.78792522 4.04745865,6.37972005 C4.45380834,5.97151489 5.04105832,5.73401726 5.80922623,5.66722005 L5.80922623,5.07718099 C5.80922623,4.76546068 5.92611959,4.60960286 6.15990982,4.60960286 C6.39741101,4.60960286 6.51615982,4.76174978 6.51615982,5.06604818 Z M5.80922623,8.88460286 L5.80922623,6.75266927 C5.49750592,6.84544317 5.25444194,6.96790289 5.08002701,7.12005208 C4.90561207,7.27220128 4.81840591,7.50227711 4.81840591,7.81028646 C4.81840591,8.10345199 4.90004572,8.32517828 5.06332779,8.47547201 C5.22660986,8.62576573 5.47524018,8.76214131 5.80922623,8.88460286 Z M6.51615982,10.5378255 L6.51615982,12.9759115 C6.89096638,12.9016923 7.18041661,12.7514009 7.3845192,12.5250326 C7.58862178,12.2986642 7.69067154,12.0351903 7.69067154,11.7346029 C7.69067154,11.4117497 7.59140495,11.1621916 7.3928688,10.9859212 C7.19433266,10.8096508 6.90209925,10.6602871 6.51615982,10.5378255 Z" id="$" fill="#A0B100"></path>
            </g>
        </g>
    </g>
</svg>