<?xml version="1.0" encoding="UTF-8"?>
<svg width="13px" height="19px" viewBox="0 0 13 19" version="1.1" xmlns="http://www.w3.org/2000/svg" xmlns:xlink="http://www.w3.org/1999/xlink">
    <!-- Generator: Sketch 62 (91390) - https://sketch.com -->
    <title>Quote</title>
    <desc>Created with Sketch.</desc>
    <defs>
        <polygon id="path-1" points="0 17.9628305 11.204578 17.9628305 11.204578 0.688745332 0 0.688745332"></polygon>
    </defs>
    <g id="Page-1" stroke="none" stroke-width="1" fill="none" fill-rule="evenodd">
        <g id="Artboard" transform="translate(-231.000000, -270.000000)">
            <g id="Quote" transform="translate(232.000000, 270.000000)">
                <g>
                    <g id="Page-1">
                        <path d="M3.59606524,0.755959671 L10.5751325,0.755959671 C10.9905831,0.755959671 11.3304973,1.1189171 11.3304973,1.56253174 L11.3304973,17.0218297 C11.3304973,17.4654444 10.9905831,17.8284018 10.5751325,17.8284018 L0.88128412,17.8284018 C0.465770529,17.8284018 0.125919313,17.4654444 0.125919313,17.0218297 L0.125919313,4.31495892 C0.125919313,4.22919343 0.158651788,4.14719193 0.216626037,4.08784167 L3.38343004,0.847169529 C3.44064893,0.78862584 3.51681488,0.755959671 3.59606524,0.755959671 Z" id="Fill-1" fill="#FFFFFF"></path>
                        <path d="M3.59606524,0.755959671 L10.5751325,0.755959671 C10.9905831,0.755959671 11.3304973,1.1189171 11.3304973,1.56253174 L11.3304973,17.0218297 C11.3304973,17.4654444 10.9905831,17.8284018 10.5751325,17.8284018 L0.88128412,17.8284018 C0.465770529,17.8284018 0.125919313,17.4654444 0.125919313,17.0218297 L0.125919313,4.31495892 C0.125919313,4.22919343 0.158651788,4.14719193 0.216626037,4.08784167 L3.38343004,0.847169529 C3.44064893,0.78862584 3.51681488,0.755959671 3.59606524,0.755959671 Z" id="Stroke-3" stroke="#2C2C2C" stroke-width="0.75"></path>
                        <path d="M3.56044349,0.688745332 L3.56044349,3.40655713 C3.56044349,3.87860344 3.19874964,4.26481703 2.75667239,4.26481703 L0.0698397711,4.26481703" id="Stroke-5" stroke="#2C2C2C" stroke-width="0.75"></path>
                        <mask id="mask-2" fill="white">
                            <use xlink:href="#path-1"></use>
                        </mask>
                        <g id="Clip-8"></g>
                        <polygon id="Fill-7" fill="#2C2C2C" mask="url(#mask-2)" points="4.36965951 3.42215086 9.72532189 3.42215086 9.72532189 2.14507842 4.36965951 2.14507842"></polygon>
                        <polygon id="Fill-9" fill="#2C2C2C" mask="url(#mask-2)" points="1.81514163 6.44679612 9.72532189 6.44679612 9.72532189 5.16972367 1.81514163 5.16972367"></polygon>
                        <polygon id="Fill-10" fill="#2C2C2C" mask="url(#mask-2)" points="1.81514163 9.47144137 9.72532189 9.47144137 9.72532189 8.19436893 1.81514163 8.19436893"></polygon>
                        <polygon id="Fill-11" fill="#2C2C2C" mask="url(#mask-2)" points="1.81514163 12.4960866 9.72532189 12.4960866 9.72532189 11.2190142 1.81514163 11.2190142"></polygon>
                        <polygon id="Fill-12" fill="#2C2C2C" mask="url(#mask-2)" points="1.81514163 15.5207319 9.72532189 15.5207319 9.72532189 14.2436594 1.81514163 14.2436594"></polygon>
                    </g>
                    <path d="M6.17320404,4.79941406 L6.17320404,5.36894531 C6.5493778,5.40761738 6.87193316,5.48496036 7.14087982,5.60097656 C7.40982648,5.71699277 7.6444921,5.89277226 7.84488373,6.12832031 C8.00308764,6.30761808 8.12525439,6.49218655 8.21138763,6.68203125 C8.29752088,6.87187595 8.34058685,7.04589765 8.34058685,7.20410156 C8.34058685,7.37988369 8.27642734,7.53193295 8.14810638,7.66025391 C8.01978543,7.78857486 7.86422058,7.85273437 7.68140717,7.85273437 C7.33687419,7.85273437 7.11363424,7.66640811 7.0116806,7.29375 C6.8956644,6.85429468 6.61617501,6.56250072 6.17320404,6.41835937 L6.17320404,8.61210937 C6.60914372,8.73164122 6.95630822,8.84062451 7.21470795,8.9390625 C7.47310768,9.03750049 7.70425771,9.17988188 7.90816498,9.36621094 C8.12613482,9.55957128 8.29400423,9.79072131 8.41177826,10.059668 C8.52955229,10.3286146 8.58843842,10.6230453 8.58843842,10.9429687 C8.58843842,11.343752 8.49439639,11.7190412 8.30630951,12.0688477 C8.11822263,12.4186541 7.84136993,12.7042958 7.4757431,12.9257812 C7.11011627,13.1472667 6.67594093,13.2791014 6.17320404,13.3212891 L6.17320404,14.634375 C6.17320404,14.8417979 6.1529894,14.9929683 6.11255951,15.0878906 C6.07212962,15.182813 5.98336098,15.2302734 5.84625092,15.2302734 C5.71968778,15.2302734 5.63091914,15.1916019 5.57994232,15.1142578 C5.5289655,15.0369137 5.50347748,14.9173836 5.50347748,14.7556641 L5.50347748,13.3318359 C5.0921473,13.2861326 4.73267823,13.1894539 4.42505951,13.0417969 C4.11744078,12.8941399 3.86080273,12.7104503 3.65513763,12.4907227 C3.44947254,12.270995 3.29742328,12.0424817 3.19898529,11.8051758 C3.1005473,11.5678699 3.05132904,11.3349621 3.05132904,11.1064453 C3.05132904,10.9376945 3.11724635,10.7856452 3.24908295,10.650293 C3.38091954,10.5149407 3.54527337,10.4472656 3.74214935,10.4472656 C3.90035327,10.4472656 4.03394568,10.4841793 4.1429306,10.5580078 C4.25191552,10.6318363 4.3275007,10.7355462 4.36968842,10.8691406 C4.46461077,11.1574233 4.54722713,11.3780266 4.61753998,11.530957 C4.68785283,11.6838875 4.79419942,11.8236322 4.93658295,11.9501953 C5.07896647,12.0767584 5.26792943,12.1734372 5.50347748,12.2402344 L5.50347748,9.78808594 C5.03238137,9.65800716 4.63863531,9.51298908 4.32222748,9.35302734 C4.00581965,9.19306561 3.74918159,8.96543116 3.5523056,8.67011719 C3.35542962,8.37480321 3.2569931,7.99511951 3.2569931,7.53105469 C3.2569931,6.92636416 3.44947165,6.430666 3.83443451,6.04394531 C4.21939737,5.65722463 4.77573946,5.43222688 5.50347748,5.36894531 L5.50347748,4.80996094 C5.50347748,4.51464696 5.61421856,4.36699219 5.83570404,4.36699219 C6.06070517,4.36699219 6.17320404,4.51113137 6.17320404,4.79941406 Z M5.50347748,8.41699219 L5.50347748,6.39726562 C5.2081635,6.48515669 4.97789237,6.60117115 4.81265717,6.7453125 C4.64742196,6.88945385 4.5648056,7.10742042 4.5648056,7.39921875 C4.5648056,7.67695451 4.64214858,7.88701101 4.79683685,8.02939453 C4.95152513,8.17177806 5.18706965,8.30097598 5.50347748,8.41699219 Z M6.17320404,9.98320312 L6.17320404,12.2929687 C6.52828394,12.2226559 6.80249995,12.0802745 6.99586029,11.8658203 C7.18922063,11.6513661 7.28589935,11.4017592 7.28589935,11.1169922 C7.28589935,10.8111313 7.19185732,10.5747079 7.00377045,10.4077148 C6.81568357,10.2407218 6.53883087,10.0992193 6.17320404,9.98320312 Z" id="$" stroke="#FFFFFF" fill="#A0B100"></path>
                    <path d="M6.17320404,4.79941406 L6.17320404,5.36894531 C6.5493778,5.40761738 6.87193316,5.48496036 7.14087982,5.60097656 C7.40982648,5.71699277 7.6444921,5.89277226 7.84488373,6.12832031 C8.00308764,6.30761808 8.12525439,6.49218655 8.21138763,6.68203125 C8.29752088,6.87187595 8.34058685,7.04589765 8.34058685,7.20410156 C8.34058685,7.37988369 8.27642734,7.53193295 8.14810638,7.66025391 C8.01978543,7.78857486 7.86422058,7.85273437 7.68140717,7.85273437 C7.33687419,7.85273437 7.11363424,7.66640811 7.0116806,7.29375 C6.8956644,6.85429468 6.61617501,6.56250072 6.17320404,6.41835937 L6.17320404,8.61210937 C6.60914372,8.73164122 6.95630822,8.84062451 7.21470795,8.9390625 C7.47310768,9.03750049 7.70425771,9.17988188 7.90816498,9.36621094 C8.12613482,9.55957128 8.29400423,9.79072131 8.41177826,10.059668 C8.52955229,10.3286146 8.58843842,10.6230453 8.58843842,10.9429687 C8.58843842,11.343752 8.49439639,11.7190412 8.30630951,12.0688477 C8.11822263,12.4186541 7.84136993,12.7042958 7.4757431,12.9257812 C7.11011627,13.1472667 6.67594093,13.2791014 6.17320404,13.3212891 L6.17320404,14.634375 C6.17320404,14.8417979 6.1529894,14.9929683 6.11255951,15.0878906 C6.07212962,15.182813 5.98336098,15.2302734 5.84625092,15.2302734 C5.71968778,15.2302734 5.63091914,15.1916019 5.57994232,15.1142578 C5.5289655,15.0369137 5.50347748,14.9173836 5.50347748,14.7556641 L5.50347748,13.3318359 C5.0921473,13.2861326 4.73267823,13.1894539 4.42505951,13.0417969 C4.11744078,12.8941399 3.86080273,12.7104503 3.65513763,12.4907227 C3.44947254,12.270995 3.29742328,12.0424817 3.19898529,11.8051758 C3.1005473,11.5678699 3.05132904,11.3349621 3.05132904,11.1064453 C3.05132904,10.9376945 3.11724635,10.7856452 3.24908295,10.650293 C3.38091954,10.5149407 3.54527337,10.4472656 3.74214935,10.4472656 C3.90035327,10.4472656 4.03394568,10.4841793 4.1429306,10.5580078 C4.25191552,10.6318363 4.3275007,10.7355462 4.36968842,10.8691406 C4.46461077,11.1574233 4.54722713,11.3780266 4.61753998,11.530957 C4.68785283,11.6838875 4.79419942,11.8236322 4.93658295,11.9501953 C5.07896647,12.0767584 5.26792943,12.1734372 5.50347748,12.2402344 L5.50347748,9.78808594 C5.03238137,9.65800716 4.63863531,9.51298908 4.32222748,9.35302734 C4.00581965,9.19306561 3.74918159,8.96543116 3.5523056,8.67011719 C3.35542962,8.37480321 3.2569931,7.99511951 3.2569931,7.53105469 C3.2569931,6.92636416 3.44947165,6.430666 3.83443451,6.04394531 C4.21939737,5.65722463 4.77573946,5.43222688 5.50347748,5.36894531 L5.50347748,4.80996094 C5.50347748,4.51464696 5.61421856,4.36699219 5.83570404,4.36699219 C6.06070517,4.36699219 6.17320404,4.51113137 6.17320404,4.79941406 Z M5.50347748,8.41699219 L5.50347748,6.39726562 C5.2081635,6.48515669 4.97789237,6.60117115 4.81265717,6.7453125 C4.64742196,6.88945385 4.5648056,7.10742042 4.5648056,7.39921875 C4.5648056,7.67695451 4.64214858,7.88701101 4.79683685,8.02939453 C4.95152513,8.17177806 5.18706965,8.30097598 5.50347748,8.41699219 Z M6.17320404,9.98320312 L6.17320404,12.2929687 C6.52828394,12.2226559 6.80249995,12.0802745 6.99586029,11.8658203 C7.18922063,11.6513661 7.28589935,11.4017592 7.28589935,11.1169922 C7.28589935,10.8111313 7.19185732,10.5747079 7.00377045,10.4077148 C6.81568357,10.2407218 6.53883087,10.0992193 6.17320404,9.98320312 Z" id="$" fill="#A0B100"></path>
                </g>
            </g>
        </g>
    </g>
</svg>