<svg width="13" height="19" xmlns="http://www.w3.org/2000/svg" xmlns:xlink="http://www.w3.org/1999/xlink">
  <defs>
    <path id="a" d="M0 17.963h11.205V.689H0z"/>
  </defs>
  <g fill="none" fill-rule="evenodd">
    <g transform="translate(1)">
      <path d="M3.596.756h6.98c.415 0 .754.363.754.807v15.459c0 .443-.34.806-.755.806H.881c-.415 0-.755-.363-.755-.806V4.315c0-.086.033-.168.09-.227L3.384.848a.297.297 0 01.213-.092z" fill="#FFF"/>
      <path d="M3.596.756h6.98c.415 0 .754.363.754.807v15.459c0 .443-.34.806-.755.806H.881c-.415 0-.755-.363-.755-.806V4.315c0-.086.033-.168.09-.227L3.384.848a.297.297 0 01.213-.092z" stroke="#2C2C2C" stroke-width=".75"/>
      <path d="M3.56.689v2.718c0 .472-.361.858-.803.858H.07" stroke="#2C2C2C" stroke-width=".75"/>
      <mask id="b" fill="#fff">
        <use xlink:href="#a"/>
      </mask>
      <path fill="#2C2C2C" mask="url(#b)" d="M4.37 3.422h5.355V2.145H4.37zM1.815 6.447h7.91V5.17h-7.91zM1.815 9.471h7.91V8.194h-7.91zM1.815 12.496h7.91V11.22h-7.91zM1.815 15.52h7.91v-1.276h-7.91z"/>
    </g>
    <path d="M7.173 4.8v.569c.376.039.699.116.968.232s.503.292.704.527c.158.18.28.364.366.554.087.19.13.364.13.522a.623.623 0 01-.193.456.636.636 0 01-.467.193c-.344 0-.567-.187-.67-.56-.115-.439-.395-.73-.838-.875v2.194c.436.12.783.229 1.042.327.258.099.49.24.693.427.218.194.386.425.504.694.118.269.176.563.176.883 0 .4-.094.776-.282 1.126a2.23 2.23 0 01-.83.857c-.366.221-.8.353-1.303.395v1.313c0 .208-.02.359-.06.454-.04.095-.13.142-.267.142-.126 0-.215-.038-.266-.116-.051-.077-.077-.197-.077-.358v-1.424a3.33 3.33 0 01-1.078-.29 2.553 2.553 0 01-.77-.551 2.298 2.298 0 01-.456-.686 1.815 1.815 0 01-.148-.699c0-.168.066-.32.198-.456a.66.66 0 01.493-.203c.158 0 .292.037.4.111a.57.57 0 01.228.311c.095.288.177.509.248.662.07.153.176.293.319.42.142.126.33.222.566.29V9.787a6.455 6.455 0 01-1.18-.435 1.989 1.989 0 01-.77-.683c-.198-.295-.296-.675-.296-1.139 0-.605.192-1.1.577-1.487.385-.387.942-.612 1.67-.675V4.81c0-.295.11-.443.332-.443.225 0 .337.144.337.432zm-.67 3.617v-2.02c-.295.088-.525.204-.69.348-.166.144-.248.362-.248.654 0 .278.077.488.232.63.155.143.39.272.706.388zm.67 1.566v2.31c.355-.07.63-.213.823-.427.193-.215.29-.464.29-.749 0-.306-.094-.542-.282-.71-.188-.166-.465-.308-.83-.424z" stroke="#FFF" fill="#A0B100"/>
    <path d="M7.173 4.8v.569c.376.039.699.116.968.232s.503.292.704.527c.158.18.28.364.366.554.087.19.13.364.13.522a.623.623 0 01-.193.456.636.636 0 01-.467.193c-.344 0-.567-.187-.67-.56-.115-.439-.395-.73-.838-.875v2.194c.436.12.783.229 1.042.327.258.099.49.24.693.427.218.194.386.425.504.694.118.269.176.563.176.883 0 .4-.094.776-.282 1.126a2.23 2.23 0 01-.83.857c-.366.221-.8.353-1.303.395v1.313c0 .208-.02.359-.06.454-.04.095-.13.142-.267.142-.126 0-.215-.038-.266-.116-.051-.077-.077-.197-.077-.358v-1.424a3.33 3.33 0 01-1.078-.29 2.553 2.553 0 01-.77-.551 2.298 2.298 0 01-.456-.686 1.815 1.815 0 01-.148-.699c0-.168.066-.32.198-.456a.66.66 0 01.493-.203c.158 0 .292.037.4.111a.57.57 0 01.228.311c.095.288.177.509.248.662.07.153.176.293.319.42.142.126.33.222.566.29V9.787a6.455 6.455 0 01-1.18-.435 1.989 1.989 0 01-.77-.683c-.198-.295-.296-.675-.296-1.139 0-.605.192-1.1.577-1.487.385-.387.942-.612 1.67-.675V4.81c0-.295.11-.443.332-.443.225 0 .337.144.337.432zm-.67 3.617v-2.02c-.295.088-.525.204-.69.348-.166.144-.248.362-.248.654 0 .278.077.488.232.63.155.143.39.272.706.388zm.67 1.566v2.31c.355-.07.63-.213.823-.427.193-.215.29-.464.29-.749 0-.306-.094-.542-.282-.71-.188-.166-.465-.308-.83-.424z" fill="#A0B100"/>
  </g>
</svg>
