<?xml version="1.0" encoding="UTF-8"?>
<svg width="74px" height="14px" viewBox="0 0 74 14" version="1.1" xmlns="http://www.w3.org/2000/svg" xmlns:xlink="http://www.w3.org/1999/xlink">
    <!-- Generator: Sketch 48.2 (47327) - http://www.bohemiancoding.com/sketch -->
    <title>Ratings</title>
    <desc>Created with Sketch.</desc>
    <defs></defs>
    <g id="Page-1" stroke="none" stroke-width="1" fill="none" fill-rule="evenodd">
        <g id="Ratings/Stars">
            <g id="Group" stroke-width="1"></g>
            <g id="star-filled" stroke-width="1" fill="#191919">
                <polyline points="7 10.16 11.326 13.31 9.66 8.22 14 5.09 8.643 5.1 7 0 5.356 5.1 0 5.09 4.34 8.22 2.674 13.31 7 10.16"></polyline>
            </g>
            <g id="star" stroke-width="1" transform="translate(60.000000, 0.000000)" fill="#191919">
                <path d="M7,0 L5.357,5.1 L0,5.09 L4.34,8.22 L2.674,13.31 L7,10.16 L11.326,13.31 L9.66,8.22 L14,5.09 L8.644,5.1 L7,0 L7,0 Z M7,3.26 L7.692,5.4 L7.916,6.1 L8.646,6.1 L10.902,6.09 L9.074,7.41 L8.483,7.84 L8.71,8.54 L9.411,10.68 L7.59,9.35 L7,8.92 L4.589,10.68 L5.29,8.54 L5.517,7.84 L4.926,7.41 L3.099,6.09 L5.355,6.1 L6.084,6.1 L6.308,5.4 L7,3.26 L7,3.26 Z"></path>
            </g>
            <path d="M52,0 L50.357,5.1 L45,5.09 L49.34,8.22 L47.674,13.31 L52,10.16 L56.327,13.31 L54.66,8.22 L59,5.09 L53.644,5.1 L52,0 L52,0 Z M52,3.26 L52.692,5.4 L52.916,6.1 L53.646,6.1 L55.902,6.09 L54.075,7.41 L53.483,7.84 L53.71,8.54 L54.411,10.68 L52.59,9.35 L52,8.92 L49.589,10.68 L50.29,8.54 L50.517,7.84 L49.926,7.41 L48.099,6.09 L50.355,6.1 L51.084,6.1 L51.308,5.4 L52,3.26 L52,3.26 Z" id="star" fill="#191919"></path>
            <path d="M37,0 L35.357,5.1 L30,5.09 L34.34,8.22 L32.674,13.31 L37,10.16 L41.327,13.31 L39.661,8.22 L44,5.09 L38.644,5.1 L37,0 L37,0 Z M37,3.26 L37.692,5.4 L37.916,6.1 L38.646,6.1 L40.902,6.09 L39.075,7.41 L38.483,7.84 L38.71,8.54 L39.412,10.68 L37.59,9.35 L37,8.92 L34.589,10.68 L35.291,8.54 L35.518,7.84 L34.926,7.41 L33.099,6.09 L35.355,6.1 L36.084,6.1 L36.309,5.4 L37,3.26 L37,3.26 Z" id="star" fill="#191919"></path>
            <path d="M22,0 L20.356,5.1 L15,5.09 L19.339,8.22 L17.673,13.31 L22,10.16 L26.326,13.31 L24.66,8.22 L29,5.09 L23.643,5.1 L22,0 L22,0 Z M22,3.26 L22.691,5.4 L22.916,6.1 L23.645,6.1 L25.901,6.09 L24.074,7.41 L23.482,7.84 L23.71,8.54 L24.411,10.68 L22,8.92 L21.41,9.35 L19.588,10.68 L20.29,8.54 L20.517,7.84 L19.925,7.41 L18.098,6.09 L20.354,6.1 L21.084,6.1 L21.308,5.4 L22,3.26 L22,3.26 Z" id="star" fill="#191919"></path>
            <g id="half-star" stroke-width="1" transform="translate(15.000000, 0.000000)" fill="#191919">
                <path d="M7,0 L7,10.16 L2.674,13.31 L4.34,8.22 L0,5.09 L5.356,5.1 L7,0 Z"></path>
            </g>
        </g>
    </g>
</svg>