<?xml version="1.0" encoding="UTF-8"?>
<svg width="26px" height="18px" viewBox="0 0 26 18" version="1.1" xmlns="http://www.w3.org/2000/svg" xmlns:xlink="http://www.w3.org/1999/xlink">
    <!-- Generator: Sketch 62 (91390) - https://sketch.com -->
    <title>reassign</title>
    <desc>Created with Sketch.</desc>
    <g id="Page-1" stroke="none" stroke-width="1" fill="none" fill-rule="evenodd">
        <g id="Letter" transform="translate(-394.000000, -477.000000)" fill="#2C2C2C">
            <g id="reassign" transform="translate(394.000000, 477.000000)">
                <path d="M16.171123,11.25 C19.2898396,11.25 25.4117647,12.7125 25.4117647,15.75 L25.4117647,15.75 L25.4117647,18 L6.93048128,18 L6.93048128,15.75 C6.93048128,12.7125 13.0524064,11.25 16.171123,11.25 Z M4.76468415,3.17647059 C5.37268002,3.17647059 5.96105401,3.29124874 6.52976266,3.52078332 C7.09847131,3.75033963 7.60407702,4.07396535 8.04662326,4.49172568 L8.04662326,4.49172568 L8.8531413,3.6913208 C8.97315421,3.56309174 9.11787374,3.53423423 9.28743028,3.60442231 C9.44892511,3.67495807 9.52941176,3.79697233 9.52941176,3.97063894 L9.52941176,3.97063894 L9.52941176,6.75010865 C9.52941176,6.8576507 9.49014627,6.9506988 9.41163701,7.02927468 C9.3330191,7.10787229 9.23999443,7.1471385 9.13245435,7.1471385 L9.13245435,7.1471385 L6.35310053,7.1471385 C6.17930671,7.1471385 6.05729467,7.06443391 5.98686885,6.89898126 C5.91668205,6.73770079 5.94553904,6.59497778 6.07380921,6.47087743 L6.07380921,6.47087743 L6.93015336,5.61484361 C6.31800713,5.04818895 5.59623476,4.76485075 4.76487972,4.76485075 C4.3348063,4.76485075 3.92420266,4.84864184 3.53343819,5.01611538 C3.14254335,5.18365412 2.80447331,5.41010303 2.51905423,5.69550558 C2.23365688,5.98084294 2.00723383,6.31900607 1.83976335,6.70982113 C1.67233632,7.10059272 1.58850329,7.51120386 1.58850329,7.94135031 C1.58850329,8.37154023 1.67227113,8.78195579 1.83976335,9.17281431 C2.00729902,9.56375974 2.2337438,9.90179249 2.51905423,10.1872168 C2.80438639,10.4726193 3.14254335,10.6990682 3.53343819,10.86652 C3.92428957,11.0340588 4.3348063,11.1178064 4.76487972,11.1178064 C5.25707824,11.1178064 5.72237543,11.0103513 6.16072785,10.7953541 C6.59916719,10.5801179 6.96933194,10.2762014 7.27126556,9.88319156 C7.30025292,9.84183926 7.34777569,9.81693662 7.4139425,9.8086792 C7.47187377,9.8086792 7.52341652,9.8272584 7.56907054,9.86443852 L7.56907054,9.86443852 L8.41887406,10.720581 C8.45607524,10.7536759 8.47584923,10.7960712 8.47778317,10.8477453 C8.47991267,10.8994411 8.4643977,10.9459869 8.43136861,10.9873392 C7.98043472,11.5333285 7.43447703,11.9563041 6.79345208,12.2560702 C6.15247058,12.5559667 5.47604801,12.7058824 4.76470588,12.7058824 C4.11950883,12.7058824 3.50325569,12.5796742 2.91594646,12.3273665 C2.32859376,12.0750588 1.82192329,11.7358961 1.39593505,11.3100088 C0.969903349,10.883991 0.630812013,10.377333 0.378465478,9.78994789 C0.126184132,9.20260621 -1.12850905e-14,8.58627664 -1.12850905e-14,7.94117647 C-1.12850905e-14,7.29588073 0.126184132,6.67970327 0.378443749,6.09233986 C0.630725095,5.50501991 0.969903349,4.99840539 1.39591332,4.57234418 C1.82190157,4.14632644 2.32857203,3.80722892 2.91592473,3.55494297 C3.50323396,3.30267875 4.1194871,3.17647059 4.76468415,3.17647059 Z M16.171123,0 C18.7122995,0 20.7914439,2.025 20.7914439,4.5 C20.7914439,6.975 18.7122995,9 16.171123,9 C13.6299465,9 11.5508021,6.975 11.5508021,4.5 C11.5508021,2.025 13.6299465,0 16.171123,0 Z"></path>
            </g>
        </g>
    </g>
</svg>