<?xml version="1.0" encoding="UTF-8"?>
<svg width="19px" height="18px" viewBox="0 0 19 18" version="1.1" xmlns="http://www.w3.org/2000/svg" xmlns:xlink="http://www.w3.org/1999/xlink">
    <!-- Generator: Sketch 62 (91390) - https://sketch.com -->
    <title>rohs-compliant</title>
    <desc>Created with Sketch.</desc>
    <g id="Page-1" stroke="none" stroke-width="1" fill="none" fill-rule="evenodd">
        <g id="Artboard" transform="translate(-1053.000000, -115.000000)">
            <g id="rohs" transform="translate(1053.000000, 115.000000)">
                <g>
                    <path d="M9,0 C11.4792296,0 13.7243222,1.00245932 15.3520522,2.62415221 L13.9871756,3.93908495 C12.7044061,2.67489012 10.9433103,1.89473684 9,1.89473684 C5.07587151,1.89473684 1.89473684,5.07587151 1.89473684,9 C1.89473684,12.9241285 5.07587151,16.1052632 9,16.1052632 C12.9241285,16.1052632 16.1052632,12.9241285 16.1052632,9 C16.1052632,8.49079171 16.0516975,7.99409435 15.9498935,7.51523532 L17.4967752,6.02527944 C17.8227618,6.9564635 18,7.95753365 18,9 C18,13.9705627 13.9705627,18 9,18 C4.02943725,18 0,13.9705627 0,9 C0,4.02943725 4.02943725,0 9,0 Z" id="circle-color" fill="#979797"></path>
                    <polygon id="check-color" stroke="#8DC63F" stroke-width="0.5" fill="#8DC63F" points="9.25837319 10.1382561 5.86722488 6.871956 4.73684211 7.9607227 9.25837319 12.3157895 18.9473684 2.98350353 17.8169856 1.89473684"></polygon>
                </g>
            </g>
        </g>
    </g>
</svg>