<?xml version="1.0" encoding="UTF-8"?>
<svg width="25px" height="25px" viewBox="0 0 25 25" version="1.1" xmlns="http://www.w3.org/2000/svg" xmlns:xlink="http://www.w3.org/1999/xlink">
    <!-- Generator: Sketch 49.3 (51167) - http://www.bohemiancoding.com/sketch -->
    <title>search-white</title>
    <desc>Created with Sketch.</desc>
    <defs></defs>
    <g id="Page-1" stroke="none" stroke-width="1" fill="none" fill-rule="evenodd">
        <g id="search-white" fill="#FFFFFF">
            <g id="search">
                <g>
                    <path d="M17.3611111,15.2777778 L16.25,15.2777778 L15.8333333,14.8611111 C17.2222222,13.3333333 18.0555556,11.25 18.0555556,9.02777778 C18.0555556,4.02777778 14.0277778,0 9.02777778,0 C4.02777778,0 0,4.02777778 0,9.02777778 C0,14.0277778 4.02777778,18.0555556 9.02777778,18.0555556 C11.25,18.0555556 13.3333333,17.2222222 14.8611111,15.8333333 L15.2777778,16.25 L15.2777778,17.3611111 L22.2222222,24.3055556 L24.3055556,22.2222222 L17.3611111,15.2777778 L17.3611111,15.2777778 Z M9.02777778,15.2777778 C5.55555556,15.2777778 2.77777778,12.5 2.77777778,9.02777778 C2.77777778,5.55555556 5.55555556,2.77777778 9.02777778,2.77777778 C12.5,2.77777778 15.2777778,5.55555556 15.2777778,9.02777778 C15.2777778,12.5 12.5,15.2777778 9.02777778,15.2777778 L9.02777778,15.2777778 Z" id="Shape"></path>
                </g>
            </g>
        </g>
    </g>
</svg>