<?xml version="1.0" encoding="UTF-8"?>
<svg width="20px" height="21px" viewBox="0 0 20 21" version="1.1" xmlns="http://www.w3.org/2000/svg" xmlns:xlink="http://www.w3.org/1999/xlink">
    <!-- Generator: Sketch 48.2 (47327) - http://www.bohemiancoding.com/sketch -->
    <title>Service</title>
    <desc>Created with Sketch.</desc>
    <defs></defs>
    <g id="Page-1" stroke="none" stroke-width="1" fill="none" fill-rule="evenodd">
        <g id="Service">
            <g id="Group-8">
                <path d="M18.7769836,7 L19,7 C19.5522847,7 20,7.44771525 20,8 L20,15 C20,15.5522847 19.5522847,16 19,16 L17,16 C16.4477153,16 16,15.5522847 16,15 L16,8 C16,7.54430018 16.304813,7.15979325 16.721675,7.03924327 C15.8737681,4.12760865 13.1853488,2 10,2 C6.81465116,2 4.12623194,4.12760865 3.27832502,7.03924327 C3.69518699,7.15979325 4,7.54430018 4,8 L4,15 C4,15.5522847 3.55228475,16 3,16 L1,16 C0.44771525,16 6.76353751e-17,15.5522847 0,15 L0,8 C-6.76353751e-17,7.44771525 0.44771525,7 1,7 L1.22301642,7 C2.13247475,2.9920226 5.71682521,0 10,0 C14.2831748,0 17.8675252,2.9920226 18.7769836,7 Z" id="Combined-Shape" fill="#979797"></path>
                <path d="M2,15 C2.62747367,18.7107747 5.8153967,20.1345215 11.5637691,19.2712402" id="Path-3" stroke="#979797" stroke-width="2"></path>
                <rect id="Rectangle-29" fill="#979797" x="9" y="18" width="6" height="3" rx="1"></rect>
            </g>
        </g>
    </g>
</svg>