<?xml version="1.0" encoding="UTF-8"?>
<svg width="18px" height="19px" viewBox="0 0 18 19" version="1.1" xmlns="http://www.w3.org/2000/svg" xmlns:xlink="http://www.w3.org/1999/xlink">
    <!-- Generator: Sketch 62 (91390) - https://sketch.com -->
    <title>service</title>
    <desc>Created with Sketch.</desc>
    <g id="Page-1" stroke="none" stroke-width="1" fill="none" fill-rule="evenodd">
        <g id="Artboard" transform="translate(-12.000000, -270.000000)" fill="#2C2C2C">
            <g id="Service" transform="translate(12.000000, 270.000000)">
                <path d="M9,0 C12.8544972,0 16.08017,2.69231725 16.8990558,6.29898909 L17,6.3 C17.5522847,6.3 18,6.74771525 18,7.3 L18,13.4 C18,13.9522847 17.5522847,14.4 17,14.4 L15.4,14.4 C14.8477153,14.4 14.4,13.9522847 14.4,13.4 L14.4,7.3 C14.4,6.86838251 14.6734474,6.50063208 15.0565526,6.36053843 C14.3025189,3.72763637 11.8763712,1.8 9,1.8 C6.12362876,1.8 3.69748112,3.72763637 2.94291565,6.36155052 C3.32655256,6.50063208 3.6,6.86838251 3.6,7.3 L3.6,13.4 C3.6,13.6997155 3.46814573,13.9686348 3.25927967,14.1519154 L8.42774635,16.4596694 C8.60531934,16.2983292 8.84117666,16.2 9.1,16.2 L12.5,16.2 C13.0522847,16.2 13.5,16.6477153 13.5,17.2 L13.5,17.9 C13.5,18.4522847 13.0522847,18.9 12.5,18.9 L9.1,18.9 C8.54771525,18.9 8.1,18.4522847 8.1,17.9 L8.09974763,17.5590096 C4.79760684,17.6467648 2.7725872,16.5937781 2.02468869,14.4000495 L1,14.4 C0.44771525,14.4 6.76353751e-17,13.9522847 0,13.4 L0,7.3 C-6.76353751e-17,6.74771525 0.44771525,6.3 1,6.3 L1.10094424,6.29898909 C1.91983,2.69231725 5.14550281,0 9,0 Z" id="color"></path>
            </g>
        </g>
    </g>
</svg>