<?xml version="1.0" encoding="UTF-8"?>
<svg width="18px" height="13px" viewBox="0 0 18 13" version="1.1" xmlns="http://www.w3.org/2000/svg" xmlns:xlink="http://www.w3.org/1999/xlink">
    <!-- Generator: Sketch 62 (91390) - https://sketch.com -->
    <title>share</title>
    <desc>Created with Sketch.</desc>
    <g id="Page-1" stroke="none" stroke-width="1" fill="none" fill-rule="evenodd">
        <g id="Artboard" transform="translate(-56.000000, -383.000000)" fill="#2C2C2C">
            <g id="share" transform="translate(56.000000, 383.000000)">
                <path d="M17.8710672,6.34251378 L12.2232208,0.694667414 C12.1688002,0.64024677 12.0919171,0.623189183 12.0225462,0.641684764 L12.0225462,4.21247241 C10.7816316,4.13774629 9.53293192,4.47810466 8.35945424,4.89455275 C6.70442203,5.48184943 5.22665981,6.49454449 3.93774589,7.67392291 C2.85719239,8.66266792 1.89346352,9.7790721 1.03862553,10.9673264 C0.93672628,11.1089441 -0.216297176,12.6998368 0.0359964357,12.8416775 C0.243563467,12.9583534 0.46913022,12.6149207 0.598847218,12.4928896 C0.803835778,12.3000496 1.01046068,12.1088955 1.22127559,11.9224273 C1.6426079,11.5496645 2.08134491,11.1952733 2.55099879,10.8848649 C3.36049038,10.3498814 4.22673315,9.90107848 5.13294225,9.55382766 C6.74262805,8.93700251 8.47434502,8.64196576 10.1975084,8.68870057 C10.2943499,8.69132863 11.463588,8.74852609 12.0225462,8.84308661 L12.0225462,12.3374126 C12.0919171,12.355933 12.1688002,12.3388506 12.2232208,12.28443 L17.8710672,6.63658361 C17.9522643,6.55538652 17.9522643,6.42371087 17.8710672,6.34251378" id="color"></path>
            </g>
        </g>
    </g>
</svg>