<?xml version="1.0" encoding="UTF-8"?>
<svg width="20px" height="15px" viewBox="0 0 20 15" version="1.1" xmlns="http://www.w3.org/2000/svg" xmlns:xlink="http://www.w3.org/1999/xlink">
    <!-- Generator: Sketch 48.2 (47327) - http://www.bohemiancoding.com/sketch -->
    <title>share</title>
    <desc>Created with Sketch.</desc>
    <defs></defs>
    <g id="Page-1" stroke="none" stroke-width="1" fill="none" fill-rule="evenodd">
        <g id="share" fill="#979797">
            <path d="M19.8567413,7.04723754 L13.5813565,0.771852682 C13.5208891,0.7113853 13.4354634,0.692432425 13.3583847,0.712983071 L13.3583847,4.6805249 C11.9795906,4.59749588 10.5921466,4.97567184 9.28828249,5.43839194 C7.44935781,6.09094382 5.80739979,7.21616054 4.37527322,8.52658101 C3.17465821,9.62518657 2.10384836,10.8656357 1.15402836,12.1859182 C1.04080698,12.3432712 -0.240330195,14.1109297 0.0399960397,14.2685306 C0.270626075,14.3981705 0.5212558,14.0165786 0.665385798,13.8809884 C0.893150864,13.6667217 1.12273408,13.4543283 1.35697288,13.2471415 C1.82511989,12.8329606 2.31260545,12.4391926 2.8344431,12.0942943 C3.7338782,11.4998683 4.69637017,11.0011983 5.70326917,10.6153641 C7.49180895,9.93000279 9.41593891,9.60218417 11.3305649,9.65411174 C11.4381665,9.65703181 12.73732,9.72058454 13.3583847,9.82565179 L13.3583847,13.7082363 C13.4354634,13.7288144 13.5208891,13.709834 13.5813565,13.6493666 L19.8567413,7.37398179 C19.9469603,7.2837628 19.9469603,7.13745653 19.8567413,7.04723754" id="Fill-1"></path>
        </g>
    </g>
</svg>