<?xml version="1.0" encoding="UTF-8"?>
<svg width="24px" height="18px" viewBox="0 0 24 18" version="1.1" xmlns="http://www.w3.org/2000/svg" xmlns:xlink="http://www.w3.org/1999/xlink">
    <!-- Generator: Sketch 48.2 (47327) - http://www.bohemiancoding.com/sketch -->
    <title>shipping-notifications</title>
    <desc>Created with Sketch.</desc>
    <defs></defs>
    <g id="Page-1" stroke="none" stroke-width="1" fill="none" fill-rule="evenodd">
        <g id="shipping-notifications" transform="translate(1.000000, 1.000000)">
            <g>
                <g id="truck" transform="translate(4.315476, 2.529762)">
                    <path d="M14.231714,13.1136533 C13.5383283,13.1136533 12.9762282,12.5062896 12.9762282,11.7570685 C12.9762282,11.0078473 13.5383283,10.4004836 14.231714,10.4004836 C14.9250997,10.4004836 15.4871998,11.0078473 15.4871998,11.7570685 C15.4871998,12.5062896 14.9250997,13.1136533 14.231714,13.1136533 Z M15.4871998,4.97414435 L17.1277012,7.23511905 L13.3947235,7.23511905 L13.3947235,4.97414435 L15.4871998,4.97414435 Z M4.18782757,13.1136533 C3.49444191,13.1136533 2.93234176,12.5062896 2.93234176,11.7570685 C2.93234176,11.0078473 3.49444191,10.4004836 4.18782757,10.4004836 C4.88121323,10.4004836 5.44331337,11.0078473 5.44331337,11.7570685 C5.44331337,12.5062896 4.88121323,13.1136533 4.18782757,13.1136533 Z M15.3825161,3.61755952 L13.3947235,3.61755952 L13.3947235,1 C13.3947235,0.44771525 12.9470082,-2.12475365e-16 12.3947235,-1.11022302e-16 L0.835182097,0 C-0.093877397,0 0.00287489147,0.804906994 0.00287489147,1.80877976 L0.00287489147,10.7570685 C0.00287489147,11.3093532 0.450590142,11.7570685 1.00287489,11.7570685 L1.67685596,11.7570685 C1.67685596,13.2555107 2.80105624,14.4702381 4.18782757,14.4702381 C5.57459889,14.4702381 6.69879917,13.2555107 6.69879917,11.7570685 L11.7207424,11.7570685 C11.7207424,13.2555107 12.8449427,14.4702381 14.231714,14.4702381 C15.6184853,14.4702381 16.7426856,13.2555107 16.7426856,11.7570685 L17.4166667,11.7570685 C17.9689514,11.7570685 18.4166667,11.3093532 18.4166667,10.7570685 L18.4166667,8.17424916 C18.4166667,7.56279247 18.2298245,6.96593533 17.8811667,6.46362365 L16.2040161,4.04735102 C16.01715,3.77813279 15.7102316,3.61755952 15.3825161,3.61755952 Z" id="Shape" fill="#000000" fill-rule="nonzero"></path>
                    <path d="M1.9307403,10.4461732 C1.57062793,10.2949008 1.3177349,9.9388883 1.3177349,9.52380952 L1.3177349,2.73214286 C1.3177349,1.94589286 1.2417197,1.31547619 1.97165228,1.31547619 L10.8392857,1.31547619 C11.3915705,1.31547619 11.8392857,1.76319144 11.8392857,2.31547619 L11.8392857,4.14880952 L11.8392857,10.5238095 L10.5240919,10.5238095 L6.57851031,10.5238095 L6.02051828,10.5238095 C5.53898892,9.86021072 4.78895817,9.43362037 3.94642857,9.43362037 C3.13723159,9.43362037 2.41335924,9.82712443 1.9307403,10.4461732 Z" id="Combined-Shape" fill="#E4E4E4"></path>
                </g>
                <g id="Group-23">
                    <g id="notifications" fill="#9E0000" stroke="#FFFFFF">
                        <g id="Shape">
                            <path d="M5.88600852,14.1264205 C6.64772727,14.1264205 7.2709517,13.4907315 7.2709517,12.7137784 L4.50106534,12.7137784 C4.50106534,13.4907315 5.12428977,14.1264205 5.88600852,14.1264205 L5.88600852,14.1264205 Z M10.3870739,9.88849432 L10.3870739,6.00372869 C10.3870739,3.81413352 8.93288352,2.04833097 6.92471591,1.55390625 L6.92471591,1.05948153 C6.92471591,0.494424716 6.4399858,0 5.88600852,0 C5.33203125,0 4.84730114,0.494424716 4.84730114,1.05948153 L4.84730114,1.55390625 C2.83913352,2.04833097 1.38494318,3.81413352 1.38494318,6.00372869 L1.38494318,9.88849432 L0,11.3011364 L0,12.0074574 L11.772017,12.0074574 L11.772017,11.3011364 L10.3870739,9.88849432 L10.3870739,9.88849432 Z"></path>
                        </g>
                    </g>
                    <g id="notifications-copy" fill="#8FA500">
                        <g id="notifications-copy-2">
                            <path d="M5.88600852,14.1264205 C6.64772727,14.1264205 7.2709517,13.4907315 7.2709517,12.7137784 L4.50106534,12.7137784 C4.50106534,13.4907315 5.12428977,14.1264205 5.88600852,14.1264205 L5.88600852,14.1264205 Z M10.3870739,9.88849432 L10.3870739,6.00372869 C10.3870739,3.81413352 8.93288352,2.04833097 6.92471591,1.55390625 L6.92471591,1.05948153 C6.92471591,0.494424716 6.4399858,0 5.88600852,0 C5.33203125,0 4.84730114,0.494424716 4.84730114,1.05948153 L4.84730114,1.55390625 C2.83913352,2.04833097 1.38494318,3.81413352 1.38494318,6.00372869 L1.38494318,9.88849432 L0,11.3011364 L0,12.0074574 L11.772017,12.0074574 L11.772017,11.3011364 L10.3870739,9.88849432 L10.3870739,9.88849432 Z" id="Shape"></path>
                        </g>
                    </g>
                </g>
            </g>
        </g>
    </g>
</svg>