<?xml version="1.0" encoding="UTF-8"?>
<svg width="19px" height="14px" viewBox="0 0 19 14" version="1.1" xmlns="http://www.w3.org/2000/svg" xmlns:xlink="http://www.w3.org/1999/xlink">
    <!-- Generator: Sketch 62 (91390) - https://sketch.com -->
    <title>shipping</title>
    <desc>Created with Sketch.</desc>
    <g id="Page-1" stroke="none" stroke-width="1" fill="none" fill-rule="evenodd">
        <g id="Artboard" transform="translate(-106.000000, -423.000000)" fill="#2C2C2C">
            <g id="shipping" transform="translate(106.000000, 423.000000)">
                <path d="M12.3947235,0 C12.9470082,-1.01453063e-16 13.3947235,0.44771525 13.3947235,1 L13.3947235,1 L13.3947235,3.5 L15.3923872,3.5 C15.714607,3.5 16.0170848,3.6552642 16.2049143,3.91707648 L16.2049143,3.91707648 L17.8542478,6.21605399 C18.2199695,6.72582726 18.4166667,7.33743215 18.4166667,7.96482453 L18.4166667,7.96482453 L18.4166667,10.375 C18.4166667,10.9272847 17.9689514,11.375 17.4166667,11.375 L17.4166667,11.375 L16.7426856,11.375 C16.7426856,12.8247475 15.6184853,14 14.231714,14 C12.8449427,14 11.7207424,12.8247475 11.7207424,11.375 L11.7207424,11.375 L6.69879917,11.375 C6.69879917,12.8247475 5.57459889,14 4.18782757,14 C2.80105624,14 1.67685596,12.8247475 1.67685596,11.375 L1.67685596,11.375 L1.00287489,11.375 C0.450590142,11.375 0.00287489147,10.9272847 0.00287489147,10.375 L0.00287489147,10.375 L0.00233792677,1.61262283 C-0.00401350838,0.706349206 -0.0496364688,0 0.835182097,0 L0.835182097,0 Z M14.2762282,10 C13.558258,10 12.9762282,10.5820298 12.9762282,11.3 C12.9762282,12.0179702 13.558258,12.6 14.2762282,12.6 C14.9941984,12.6 15.5762282,12.0179702 15.5762282,11.3 C15.5762282,10.5820298 14.9941984,10 14.2762282,10 Z M4.18452381,10 C3.46655363,10 2.88452381,10.5820298 2.88452381,11.3 C2.88452381,12.0179702 3.46655363,12.6 4.18452381,12.6 C4.90249398,12.6 5.48452381,12.0179702 5.48452381,11.3 C5.48452381,10.5820298 4.90249398,10 4.18452381,10 Z M11.0745238,1.1 L2.04168566,1.1 L1.91904124,1.10602158 C1.30835774,1.16977056 1.37682034,1.7319638 1.37682034,2.42307692 L1.37682034,8.7 L1.38442898,8.82396476 C1.42962934,9.18950364 1.67213613,9.49370999 2.00223548,9.62496642 C2.49293292,9.04826994 3.22797812,8.68183239 4.04952381,8.68183239 C4.90590656,8.68183239 5.66829729,9.08000588 6.15790502,9.69945192 L6.15790502,9.69945192 L12.0745238,9.699 L12.0745238,2.1 L12.0677961,1.98337887 C12.010031,1.48604019 11.5873596,1.1 11.0745238,1.1 L11.0745238,1.1 Z M15.4871998,4.50390625 L13.3947235,4.50390625 L13.3947235,6.76488095 L17.1277012,6.76488095 L15.4871998,4.50390625 Z" id="color"></path>
            </g>
        </g>
    </g>
</svg>