<?xml version="1.0" encoding="UTF-8"?>
<svg width="23px" height="18px" viewBox="0 0 23 18" version="1.1" xmlns="http://www.w3.org/2000/svg" xmlns:xlink="http://www.w3.org/1999/xlink">
    <!-- Generator: Sketch 62 (91390) - https://sketch.com -->
    <title>shopping-cart</title>
    <desc>Created with Sketch.</desc>
    <g id="Page-1" stroke="none" stroke-width="1" fill="none" fill-rule="evenodd">
        <g id="Artboard" transform="translate(-76.000000, -138.000000)" fill="#2C2C2C">
            <g id="shopping-cart" transform="translate(76.000000, 138.000000)">
                <path d="M8.4375,14.625 C9.36944805,14.625 10.125,15.3805519 10.125,16.3125 C10.125,17.2445455 9.36944805,18 8.4375,18 C7.50555195,18 6.75,17.2445455 6.75,16.3125 C6.75,15.3805519 7.50555195,14.625 8.4375,14.625 Z M14.0625,14.625 C14.9944481,14.625 15.75,15.3805519 15.75,16.3125 C15.75,17.2445455 14.9944481,18 14.0625,18 C13.1305519,18 12.375,17.2445455 12.375,16.3125 C12.375,15.3805519 13.1305519,14.625 14.0625,14.625 Z M0.675417763,0.0010014994 L0.778520793,0.0146146646 L3.75483972,0.618267006 C3.96096307,0.661528757 4.13116938,0.798155403 4.20961136,0.983174846 L4.20961136,0.983174846 L7.26842225,8.19973797 L18.4431004,8.19973797 L20.9425859,1.81108403 L10.1250532,1.81108403 C9.77195772,1.81108403 9.48558055,1.54074839 9.48558055,1.20743169 C9.48558055,0.87411499 9.77195772,0.603779349 10.1250532,0.603779349 L10.1250532,0.603779349 L21.8605489,0.603779349 C22.069763,0.603779349 22.2656548,0.700363724 22.3852362,0.862343769 C22.5048176,1.02442442 22.5328478,1.23137657 22.4603743,1.41659723 L22.4603743,1.41659723 L19.4884251,9.01255585 C19.3957015,9.24969061 19.1563256,9.40704266 18.8885997,9.40704266 L18.8885997,9.40704266 L7.08318834,9.40704266 L6.15051746,11.1676953 L18.8645129,11.1676953 C19.217715,11.1676953 19.5039856,11.438031 19.5039856,11.7713477 C19.5039856,12.1046644 19.217715,12.375 18.8645129,12.375 L18.8645129,12.375 L5.1158507,12.375 C4.89427342,12.375 4.6884698,12.2666444 4.57187262,12.0886676 C4.45538202,11.9107913 4.44483072,11.6885467 4.54394898,11.5013138 L4.54394898,11.5013138 L6.06951759,8.62108731 L3.14755385,1.72747818 L0.500669922,1.19294403 C0.155887578,1.12060636 -0.0613199689,0.798054795 0.0154167505,0.472585574 C0.0921534698,0.147216962 0.433631871,-0.0580248338 0.778520793,0.0146146646 Z" id="color"></path>
            </g>
        </g>
    </g>
</svg>