<?xml version="1.0" encoding="UTF-8"?>
<svg width="20px" height="16px" viewBox="0 0 20 16" version="1.1" xmlns="http://www.w3.org/2000/svg" xmlns:xlink="http://www.w3.org/1999/xlink">
    <!-- Generator: Sketch 48.2 (47327) - http://www.bohemiancoding.com/sketch -->
    <title>shopping-cart</title>
    <desc>Created with Sketch.</desc>
    <defs></defs>
    <g id="Page-1" stroke="none" stroke-width="1" fill="none" fill-rule="evenodd">
        <g id="shopping-cart" fill="#000000">
            <g id="Page-1">
                <g>
                    <path d="M16.7898664,8.36181569 C17.027845,8.36181569 17.2406236,8.22194721 17.3230445,8.01116076 L19.9647771,1.25919753 C20.0291981,1.09455695 20.0042823,0.910599487 19.8979878,0.766527795 C19.7916932,0.622545532 19.6175672,0.536692755 19.431599,0.536692755 L9.0000473,0.536692755 C8.68618464,0.536692755 8.43162715,0.776991102 8.43162715,1.07327261 C8.43162715,1.36955413 8.68618464,1.60985247 9.0000473,1.60985247 L18.6156319,1.60985247 L16.393867,7.28865598 L6.46081978,7.28865598 L3.74187676,0.873933196 C3.67215056,0.70947147 3.52085606,0.588025562 3.3376353,0.549570672 L0.692018483,0.0129908129 C0.385450552,-0.0515776301 0.0819141954,0.130859522 0.0137037782,0.420076066 C-0.054506639,0.70938204 0.138566736,0.996094544 0.44503993,1.0603947 L2.79782564,1.53553616 L5.39512675,7.66318872 L4.03906576,10.2233901 C3.95096064,10.3898193 3.96033957,10.5873701 4.06388677,10.7454823 C4.16752871,10.9036839 4.35046526,11 4.54742284,11 L16.7684559,11 C17.0824133,11 17.3368761,10.7597017 17.3368761,10.4634201 C17.3368761,10.1671386 17.0824133,9.92684028 16.7684559,9.92684028 L5.46712663,9.92684028 L6.29616741,8.36181569 L16.7898664,8.36181569 Z" id="Fill-1"></path>
                    <path d="M7.5,13 C6.67160173,13 6,13.6716017 6,14.5 C6,15.3284848 6.67160173,16 7.5,16 C8.32839827,16 9,15.3284848 9,14.5 C9,13.6716017 8.32839827,13 7.5,13" id="Fill-3"></path>
                    <path d="M12.5,13 C11.6716017,13 11,13.6716017 11,14.5 C11,15.3284848 11.6716017,16 12.5,16 C13.3283983,16 14,15.3284848 14,14.5 C14,13.6716017 13.3283983,13 12.5,13" id="Fill-5"></path>
                </g>
            </g>
        </g>
    </g>
</svg>