<?xml version="1.0" encoding="UTF-8"?>
<svg width="13px" height="11px" viewBox="0 0 13 11" version="1.1" xmlns="http://www.w3.org/2000/svg" xmlns:xlink="http://www.w3.org/1999/xlink">
    <!-- Generator: Sketch 61.2 (89653) - https://sketch.com -->
    <title>sketch-symbol</title>
    <desc>Created with Sketch.</desc>
    <g id="Welcome" stroke="none" stroke-width="1" fill="none" fill-rule="evenodd">
        <g id="Icons" transform="translate(-1365.000000, -205.000000)" fill-rule="nonzero">
            <g id="page-extension" transform="translate(1141.000000, 100.000000)">
                <g id="sketch-symbol" transform="translate(224.000000, 105.000000)">
                    <polygon id="Shape" fill="#FDB300" points="2.83636365 0.362165179 6.50000002 0 10.1636364 0.362165179 13 3.92243303 6.50000002 11 0 3.92243303"></polygon>
                    <g id="Group" transform="translate(0.000000, 4.000000)">
                        <polygon id="Shape" fill="#EA6C00" points="2.62751777 0 6.48690102 6.99822707 0 0"></polygon>
                        <polygon id="Shape" fill="#EA6C00" transform="translate(9.730334, 3.499114) scale(-1, 1) translate(-9.730334, -3.499114) " points="9.11440123 0 12.9737845 6.99822707 6.48688346 0"></polygon>
                        <polygon id="Shape" fill="#FDAD00" points="2.62751777 0 10.3462843 0 6.48690102 6.99822707"></polygon>
                    </g>
                    <g id="Group">
                        <polygon id="Shape" fill="#FDD231" points="6.48690102 0 2.83063452 0.368976378 2.62751777 3.99625197"></polygon>
                        <polygon id="Shape" fill="#FDD231" transform="translate(8.416573, 1.998126) scale(-1, 1) translate(-8.416573, -1.998126) " points="10.3462643 0 6.68999784 0.368976378 6.48688109 3.99625197"></polygon>
                        <polygon id="Shape" fill="#FDAD00" transform="translate(11.558467, 2.182614) scale(-1, 1) translate(-11.558467, -2.182614) " points="10.1431335 3.99625197 12.973801 0.368976378 12.7706512 3.99625197"></polygon>
                        <polygon id="Shape" fill="#FDAD00" points="0 3.99625197 2.83063452 0.368976378 2.62751777 3.99625197"></polygon>
                        <polygon id="Shape" fill="#FEEEB7" points="6.48690102 0 2.62751777 3.99625197 10.3462843 3.99625197"></polygon>
                    </g>
                </g>
            </g>
        </g>
    </g>
</svg>