<?xml version="1.0" encoding="UTF-8"?>
<svg width="20px" height="20px" viewBox="0 0 20 20" version="1.1" xmlns="http://www.w3.org/2000/svg" xmlns:xlink="http://www.w3.org/1999/xlink">
    <!-- Generator: Sketch 49.3 (51167) - http://www.bohemiancoding.com/sketch -->
    <title>SPA-Icon</title>
    <desc>Created with Sketch.</desc>
    <defs></defs>
    <g id="Page-1" stroke="none" stroke-width="1" fill="none" fill-rule="evenodd">
        <g id="SPA-Icon" transform="translate(-1.000000, 0.000000)" fill="#8FA500">
            <g id="Group">
                <g id="spa">
                    <path d="M9.65190001,0.344768308 C9.99374813,0.326501883 10.3268668,0.437425724 10.5718421,0.682401101 L20.4313205,10.5418795 C20.9263423,11.0369013 20.8739987,11.8918334 20.3144087,12.4514234 L13.2218119,19.5440202 C12.662221,20.1036111 11.8072889,20.1559547 11.3122671,19.6609329 L1.45278873,9.8014545 C1.20816973,9.55683551 1.09721341,9.22432849 1.11507705,8.8830038 L1.00388313,1.0018083 C0.99866177,0.631711356 1.29722899,0.290549083 1.6707524,0.239798085 C1.70464209,0.23519482 1.73851878,0.233119638 1.77209755,0.233593886 L9.65190001,0.344768308 Z M6.65769346,5.16226997 L5.92265596,4.42723247 L5.32126164,5.02862679 L6.06743607,5.77480122 C5.78529905,6.1163355 5.55885037,6.49127512 5.38808323,6.89963133 C5.21731609,7.30798754 5.11894084,7.72190603 5.09295454,8.14139923 C5.06696823,8.56089242 5.1207962,8.97109864 5.25444005,9.37203019 C5.3880839,9.77296174 5.62195713,10.1404768 5.95606675,10.4745864 C6.32729967,10.8458194 6.70038315,11.0926855 7.0753284,11.2151924 C7.45027364,11.3376993 7.83449395,11.3766781 8.22800084,11.3321302 C8.62150773,11.2875822 9.01315258,11.1780702 9.40294715,11.0035907 C9.79274171,10.8291112 10.1880988,10.6305046 10.5890304,10.4077648 L10.655852,10.3632171 L13.0057446,12.7131097 C12.6642103,12.9952467 12.2855584,13.2105586 11.8697775,13.3590518 C11.4539967,13.5075449 11.0307975,13.5446677 10.6001673,13.4704211 L10.6224412,15.5196165 C11.3203591,15.5344659 11.9718631,15.3952556 12.5769727,15.1019816 C13.1820824,14.8087076 13.7259304,14.4133505 14.2085332,13.9158984 L14.9992554,14.7066205 L15.6006497,14.1052262 L14.7987906,13.3033671 C15.1180509,12.9098602 15.3723416,12.499654 15.5616704,12.0727362 C15.7509992,11.6458183 15.8586552,11.2151946 15.8846415,10.7808521 C15.9106278,10.3465096 15.8475191,9.9195981 15.6953136,9.50010491 C15.5431081,9.08061171 15.2813928,8.68525459 14.9101599,8.31402167 C14.5315023,7.9353641 14.1435698,7.69221018 13.7463505,7.58455264 C13.3491313,7.47689509 12.9500619,7.45647759 12.5491304,7.52329951 C12.1481988,7.59012144 11.7454172,7.72190715 11.3407733,7.91866059 C10.9361294,8.11541404 10.53706,8.32886976 10.1435531,8.55903417 L10.0878685,8.59244497 L7.86048209,6.3650586 C8.12034513,6.10519556 8.42289542,5.91030121 8.76814203,5.78036968 C9.11338865,5.65043816 9.46419849,5.59289793 9.82058209,5.60774724 L9.70921277,3.64764724 C9.17463737,3.67734588 8.64378226,3.82583682 8.11663152,4.09312452 C7.58948078,4.36041222 7.13658342,4.68338001 6.75792584,5.06203758 L6.65769346,5.16226997 Z M2.62500018,2.97500003 C3.20489997,2.97500003 3.6750002,2.50489852 3.6750002,1.92500002 C3.6750002,1.34510023 3.20489997,0.875 2.62500018,0.875 C2.04510167,0.875 1.57500017,1.34510023 1.57500017,1.92500002 C1.57500017,2.50489852 2.04510167,2.97500003 2.62500018,2.97500003 Z" id="Combined-Shape" fill-rule="nonzero"></path>
                    <path d="M7.28136164,6.98872679 C7.06604655,7.29313778 6.94354152,7.63466694 6.91384289,8.01332451 C6.88414425,8.39198209 7.01036155,8.72237443 7.29249857,9.00451144 C7.46326571,9.17527858 7.62846188,9.28479065 7.78809203,9.33305093 C7.94772219,9.38131121 8.10920608,9.39801644 8.27254857,9.38316712 C8.43589105,9.36831781 8.60294336,9.32377052 8.7737105,9.24952394 C8.94447764,9.17527736 9.12637904,9.10103189 9.31942016,9.02678531 L7.28136164,6.98872679 Z M13.6071389,12.1117154 C13.7333581,11.926099 13.8335895,11.7330607 13.9078361,11.532595 C13.9820826,11.3321292 14.0247738,11.1335226 14.0359108,10.9367691 C14.0470478,10.7400157 14.0192057,10.5451213 13.9523838,10.3520802 C13.8855619,10.1590391 13.7704814,9.98084995 13.6071389,9.81750746 C13.4437964,9.65416498 13.2711757,9.55207746 13.0892716,9.51124184 C12.9073674,9.47040622 12.7236099,9.46855008 12.5379934,9.50567337 C12.352377,9.54279666 12.1667633,9.60219304 11.9811469,9.68386428 C11.7955304,9.76553552 11.613629,9.85091781 11.4354372,9.94001371 L13.6071389,12.1117154 Z" id="$"></path>
                </g>
            </g>
        </g>
    </g>
</svg>