<svg width="18" height="18" xmlns="http://www.w3.org/2000/svg">
  <path d="M1.519.2l6.754.096c.293-.016.579.079.789.289l8.45 8.45c.425.425.38 1.158-.1 1.638l-6.079 6.079c-.48.48-1.212.525-1.637.1l-8.45-8.45a1.023 1.023 0 01-.29-.788L.86.859A.671.671 0 011.52.2zm6.803 2.927a3.42 3.42 0 00-1.365.381 4.659 4.659 0 00-.962.642l-.202.189-.086.086-.63-.63-.516.515.64.64a3.82 3.82 0 00-.583.964c-.146.35-.23.705-.253 1.064-.022.36.024.712.139 1.055.114.344.315.659.601.945.318.318.638.53.96.635.32.105.65.138.988.1a3.39 3.39 0 001.007-.281c.222-.1.447-.209.674-.327l.342-.184.058-.038 2.014 2.014a3.216 3.216 0 01-.974.554 2.116 2.116 0 01-.904.119l-.184-.024.019 1.757a3.61 3.61 0 001.675-.358c.432-.21.828-.48 1.188-.811l.21-.206.679.678.515-.516-.687-.687c.273-.337.491-.689.654-1.055.162-.366.254-.735.276-1.107a2.712 2.712 0 00-.162-1.098 2.791 2.791 0 00-.673-1.017c-.324-.324-.657-.533-.997-.625a2.382 2.382 0 00-1.027-.052c-.343.057-.688.17-1.035.338-.232.113-.46.232-.688.357l-.339.192-.047.029-1.91-1.91c.223-.222.483-.389.779-.5a2.29 2.29 0 01.719-.149h.183l-.096-1.68zm2.425 5.02c.159-.031.316-.03.472.005a.916.916 0 01.444.263c.14.14.239.293.296.458.057.166.081.333.072.501-.01.169-.046.34-.11.511-.064.172-.15.337-.258.496L9.802 8.52c.153-.076.308-.15.468-.22.159-.07.318-.12.477-.152zM6.24 5.99l1.747 1.747c-.165.064-.321.128-.468.191-.146.064-.29.102-.43.115A1.083 1.083 0 016.677 8a1.059 1.059 0 01-.425-.282 1.04 1.04 0 01-.325-.85c.026-.324.13-.617.315-.878zM2.25.75a.9.9 0 100 1.8.9.9 0 000-1.8z" fill="#8DC63F" fill-rule="evenodd"/>
</svg>
