<?xml version="1.0" encoding="UTF-8"?>
<svg width="18px" height="18px" viewBox="0 0 18 18" version="1.1" xmlns="http://www.w3.org/2000/svg" xmlns:xlink="http://www.w3.org/1999/xlink">
    <!-- Generator: Sketch 62 (91390) - https://sketch.com -->
    <title>star-outline</title>
    <desc>Created with Sketch.</desc>
    <g id="Page-1" stroke="none" stroke-width="1" fill="none" fill-rule="evenodd">
        <g id="Artboard" transform="translate(-127.000000, -507.000000)" fill="#2C2C2C">
            <g id="star-outline" transform="translate(127.000000, 507.000000)">
                <path d="M6.88628571,6.55221638 L0,6.5393689 L5.57871429,10.5606311 L3.43671429,17.1 L9,13.0530428 L14.562,17.1 L12.42,10.5606311 L18,6.5393689 L11.1124286,6.55221638 L9,0 L6.88628571,6.55221638 Z M9.88842857,6.93764087 L10.1777143,7.83696469 L11.115,7.83696469 L14.0155714,7.82411721 L11.6665714,9.51998497 L10.9054286,10.0724267 L11.1985714,10.9717506 L12.0998571,13.7211119 L9,11.4599549 L8.24142857,12.0123967 L5.89885714,13.7211119 L6.80142857,10.9717506 L7.09328571,10.0724267 L6.33214286,9.51998497 L3.98314286,7.82411721 L6.88371429,7.83696469 L7.82228571,7.83696469 L8.11028571,6.93764087 L9,4.18827949 L9.88842857,6.93764087 Z" id="color"></path>
            </g>
        </g>
    </g>
</svg>