<?xml version="1.0" encoding="UTF-8"?>
<svg width="19px" height="21px" viewBox="0 0 19 21" version="1.1" xmlns="http://www.w3.org/2000/svg" xmlns:xlink="http://www.w3.org/1999/xlink">
    <!-- Generator: Sketch 48.2 (47327) - http://www.bohemiancoding.com/sketch -->
    <title>time-clock</title>
    <desc>Created with Sketch.</desc>
    <defs>
        <polygon id="path-1" points="0.45206 0.681706667 4.25096 0.681706667 4.25096 2.967272 0.45206 2.967272 0.45206 0.681706667"></polygon>
    </defs>
    <g id="Page-1" stroke="none" stroke-width="1" fill="none" fill-rule="evenodd">
        <g id="time-clock">
            <g id="Page-1">
                <path d="M18.54055,5.58356089 L16.23895,3.33310756 C16.15355,3.24960533 16.01425,3.24960533 15.92885,3.33310756 L14.72485,4.50966756 C15.74895,5.19958756 16.61485,6.09620978 17.26095,7.13793422 L18.54055,5.88676978 C18.62595,5.80326756 18.62595,5.66706311 18.54055,5.58356089" id="Fill-1" fill="#191919"></path>
                <g id="Group-5" transform="translate(7.000000, 0.003012)">
                    <mask id="mask-2" fill="white">
                        <use xlink:href="#path-1"></use>
                    </mask>
                    <g id="Clip-4"></g>
                    <path d="M0.57806,2.33210756 L1.42856,2.33210756 L1.42856,2.967272 C1.73236,2.93578756 2.03966,2.92004533 2.35186,2.92004533 C2.66336,2.92004533 2.97066,2.93578756 3.27376,2.967272 L3.27376,2.33210756 L4.12496,2.33210756 C4.19426,2.33210756 4.25096,2.27666756 4.25096,2.209592 L4.25096,0.804427556 C4.25096,0.736667556 4.19426,0.681227556 4.12496,0.681227556 L0.57806,0.681227556 C0.50876,0.681227556 0.45206,0.736667556 0.45206,0.804427556 L0.45206,2.209592 C0.45206,2.27666756 0.50876,2.33210756 0.57806,2.33210756" id="Fill-3" fill="#191919" mask="url(#mask-2)"></path>
                </g>
                <path d="M8.78122,18.5251733 C5.13562,18.5251733 2.18022,15.6354489 2.18022,12.0708622 C2.18022,8.50627556 5.13562,5.61655111 8.78122,5.61655111 C12.42682,5.61655111 15.38222,8.50627556 15.38222,12.0708622 C15.38222,15.6354489 12.42682,18.5251733 8.78122,18.5251733 M8.78122,3.36472889 C3.93162,3.36472889 0.00042,7.20856889 0.00042,11.9504 C0.00042,16.6922311 3.93162,20.5360711 8.78122,20.5360711 C13.63082,20.5360711 17.56202,16.6922311 17.56202,11.9504 C17.56202,7.20856889 13.63082,3.36472889 8.78122,3.36472889" id="Fill-6" fill="#8FA500"></path>
                <path d="M8.78122,18.5251733 C5.13562,18.5251733 2.18022,15.6354489 2.18022,12.0708622 C2.18022,8.50627556 5.13562,5.61655111 8.78122,5.61655111 C12.42682,5.61655111 15.38222,8.50627556 15.38222,12.0708622 C15.38222,15.6354489 12.42682,18.5251733 8.78122,18.5251733 M8.78122,3.36472889 C3.93162,3.36472889 0.00042,7.20856889 0.00042,11.9504 C0.00042,16.6922311 3.93162,20.5360711 8.78122,20.5360711 C13.63082,20.5360711 17.56202,16.6922311 17.56202,11.9504 C17.56202,7.20856889 13.63082,3.36472889 8.78122,3.36472889" id="Fill-8" fill="#191919"></path>
                <path d="M8.77261,16.5741644 C8.17481,16.5741644 7.59661,16.4626 7.05691,16.2456311 L10.17261,12.5893289 L10.17261,7.82764889 C12.01641,8.40737333 13.35481,10.1006889 13.35481,12.0937911 C13.35481,14.5639511 11.29891,16.5741644 8.77261,16.5741644" id="Fill-10" fill="#191919"></path>
                <path d="M8.77261,6.245008 L8.77261,12.0935858 L7.62671,13.4385191 L5.16271,16.3302969 L4.95481,16.581488 C5.99081,17.4267769 7.31731,17.942848 8.77261,17.942848 C12.07661,17.942848 14.75481,15.3241636 14.75481,12.0935858 C14.75481,8.86369244 12.07661,6.245008 8.77261,6.245008 M11.57261,10.6165547 C11.81691,11.0566524 11.95481,11.5597191 11.95481,12.0935858 C11.95481,13.4015591 11.12601,14.5226791 9.95561,14.9826258 L10.92371,13.8471324 L11.57261,13.0853458 L11.57261,12.0935858 L11.57261,10.6165547" id="Fill-12" fill="#191919"></path>
            </g>
        </g>
    </g>
</svg>