<?xml version="1.0" encoding="UTF-8"?>
<svg width="10px" height="18px" viewBox="0 0 10 18" version="1.1" xmlns="http://www.w3.org/2000/svg" xmlns:xlink="http://www.w3.org/1999/xlink">
    <!-- Generator: Sketch 62 (91390) - https://sketch.com -->
    <title>time</title>
    <desc>Created with Sketch.</desc>
    <g id="Page-1" stroke="none" stroke-width="1" fill="none" fill-rule="evenodd">
        <g id="Artboard" transform="translate(-16.000000, -320.000000)" fill="#2C2C2C">
            <g id="time" transform="translate(16.000000, 320.000000)">
                <path d="M7.70910848,0.126785915 C8.67863331,0.126785915 9.46747059,0.934757746 9.46747059,1.9278 L9.46747059,1.9278 L9.46747059,6.01582817 C9.46747059,6.57205352 9.21017647,7.1063493 8.77924905,7.44492676 L8.77924905,7.44492676 L6.76668678,9.02575775 L8.7922437,10.6481662 C9.2214385,10.9918141 9.46747059,11.5089972 9.46747059,12.0669972 L9.46747059,12.0669972 L9.46747059,16.0983634 C9.46747059,17.0914056 8.67863331,17.8993775 7.70910848,17.8993775 L7.70910848,17.8993775 L1.75842399,17.8993775 C0.78889916,17.8993775 -6.18792687e-05,17.0914056 -6.18792687e-05,16.0983634 L-6.18792687e-05,16.0983634 L-6.18792687e-05,12.010462 C-6.18792687e-05,11.4539831 0.257355997,10.9198141 0.688283422,10.5812366 L0.688283422,10.5812366 L2.70084568,9.00027887 L0.67528877,7.37799718 C0.246093965,7.0343493 -6.18792687e-05,6.5171662 -6.18792687e-05,5.9591662 L-6.18792687e-05,5.9591662 L-6.18792687e-05,1.9278 C-6.18792687e-05,0.934757746 0.78889916,0.126785915 1.75842399,0.126785915 L1.75842399,0.126785915 Z M7.70910848,0.760588732 L1.75842399,0.760588732 C1.12898778,0.760588732 0.618731092,1.28322254 0.618731092,1.9278 L0.618731092,1.9278 L0.618731092,5.9591662 C0.618731092,6.31827887 0.780236058,6.65749014 1.05646524,6.87868732 L1.05646524,6.87868732 L3.71145837,9.00522254 L1.06488083,11.0840958 C0.783701299,11.3050394 0.618731092,11.6474197 0.618731092,12.010462 L0.618731092,12.010462 L0.618731092,16.0983634 C0.618731092,16.7429408 1.12898778,17.2655746 1.75842399,17.2655746 L1.75842399,17.2655746 L7.70910848,17.2655746 C8.33854469,17.2655746 8.84867762,16.7429408 8.84867762,16.0983634 L8.84867762,16.0983634 L8.84867762,12.0669972 C8.84867762,11.7077577 8.68729641,11.3686732 8.41106723,11.1474761 L8.41106723,11.1474761 L5.7560741,9.02094085 L8.40265164,6.94194085 C8.68383117,6.72099718 8.84867762,6.37874366 8.84867762,6.01582817 L8.84867762,6.01582817 L8.84867762,1.9278 C8.84867762,1.28322254 8.33854469,0.760588732 7.70910848,0.760588732 L7.70910848,0.760588732 Z M5.52000458,13.1938352 L7.78936593,15.0115817 C8.06745149,15.2343 8.22994652,15.5756662 8.22994652,15.9373141 C8.22994652,16.2838775 7.95557372,16.5649056 7.61721772,16.5649056 L1.85031474,16.5649056 C1.51195875,16.5649056 1.23758594,16.2838775 1.23758594,15.9373141 L1.23758594,15.8902859 C1.23758594,15.5248352 1.40354622,15.1801732 1.68670588,14.9577085 L3.94183499,13.1863563 C4.40803361,12.8201451 5.05714744,12.8231873 5.52000458,13.1938352 Z M7.61721772,4.67427042 C7.95557372,4.67427042 8.22994652,4.95529859 8.22994652,5.30198873 L8.22994652,5.3490169 C8.22994652,5.71446761 8.06398625,6.05912958 7.78082659,6.28146761 L5.52569748,8.05294648 C5.05949885,8.41915775 4.41038503,8.41598873 3.94752788,8.04534085 L1.67816654,6.22772113 C1.40008098,6.00500282 1.23758594,5.66363662 1.23758594,5.30198873 C1.23758594,4.95529859 1.51195875,4.67427042 1.85031474,4.67427042 L7.61721772,4.67427042 Z" id="color"></path>
            </g>
        </g>
    </g>
</svg>