<?xml version="1.0" encoding="UTF-8"?>
<svg width="10px" height="10px" viewBox="0 0 10 10" version="1.1" xmlns="http://www.w3.org/2000/svg" xmlns:xlink="http://www.w3.org/1999/xlink">
    <!-- Generator: Sketch 48.2 (47327) - http://www.bohemiancoding.com/sketch -->
    <title>timestamp</title>
    <desc>Created with Sketch.</desc>
    <defs></defs>
    <g id="Page-1" stroke="none" stroke-width="1" fill="none" fill-rule="evenodd">
        <g id="access-time" fill="#979797">
            <g id="Shape">
                <path d="M5,0 C2.25,0 0,2.25 0,5 C0,7.75 2.25,10 5,10 C7.75,10 10,7.75 10,5 C10,2.25 7.75,0 5,0 L5,0 Z M5,9 C2.8,9 1,7.2 1,5 C1,2.8 2.8,1 5,1 C7.2,1 9,2.8 9,5 C9,7.2 7.2,9 5,9 Z M5.25,2.5 L4.5,2.5 L4.5,5.5 L7.1,7.1 L7.5,6.45 L5.25,5.1 L5.25,2.5 Z"></path>
            </g>
        </g>
    </g>
</svg>