<?xml version="1.0" encoding="UTF-8"?>
<svg width="16px" height="18px" viewBox="0 0 16 18" version="1.1" xmlns="http://www.w3.org/2000/svg" xmlns:xlink="http://www.w3.org/1999/xlink">
    <!-- Generator: Sketch 62 (91390) - https://sketch.com -->
    <title>time-clock</title>
    <desc>Created with Sketch.</desc>
    <g id="Page-1" stroke="none" stroke-width="1" fill="none" fill-rule="evenodd">
        <g id="Artboard" transform="translate(-43.000000, -435.000000)" fill="#2C2C2C">
            <g id="time-clock" transform="translate(43.000000, 435.000000)">
                <path d="M7.66519936,3 C11.8985721,3 15.3303987,6.35786438 15.3303987,10.5 C15.3303987,14.6421356 11.8985721,18 7.66519936,18 C3.43182665,18 0,14.6421356 0,10.5 C0,6.35786438 3.43182665,3 7.66519936,3 Z M7.66519936,4 C3.99627634,4 1.02202658,6.91014913 1.02202658,10.5 C1.02202658,14.0898509 3.99627634,17 7.66519936,17 C11.3341224,17 14.3083721,14.0898509 14.3083721,10.5 C14.3083721,6.91014913 11.3341224,4 7.66519936,4 Z M7.66519936,5 C10.7696727,5 13.2863456,7.46243388 13.2863456,10.5 C13.2863456,13.5375661 10.7696727,16 7.66519936,16 C4.9099525,16 2.61769935,14.0604109 2.13684768,11.5005797 L7.66519936,11.5 L7.66519936,5 Z M13.1402803,2.00370367 C13.2229753,1.91584639 13.3651485,1.90855599 13.4567764,1.98747429 L13.4567764,1.98747429 L15.9262229,4.11438701 C16.0178508,4.19330531 16.0251362,4.32932309 15.9424412,4.41718037 L15.9424412,4.41718037 L14.7033714,5.73359922 C13.9882245,4.72711669 13.0565053,3.87704096 11.9743793,3.24166372 L11.9743793,3.24166372 Z M9.37494762,0 C9.44577407,0 9.50372297,0.05544 9.50372297,0.1232 L9.50372297,0.1232 L9.50372297,1.52836444 C9.50372297,1.59544 9.44577407,1.65088 9.37494762,1.65088 L9.37494762,1.65088 L8.5049986,1.65088 L8.5049986,2.28604444 C8.19522234,2.25456 7.88115357,2.23881778 7.56279229,2.23881778 C7.2437156,2.23881778 6.92964683,2.25456 6.61915515,2.28604444 L6.61915515,2.28604444 L6.61915515,1.65088 L5.74992154,1.65088 C5.6790951,1.65088 5.6211462,1.59544 5.6211462,1.52836444 L5.6211462,1.52836444 L5.6211462,0.1232 C5.6211462,0.05544 5.6790951,0 5.74992154,0 L5.74992154,0 Z" id="color"></path>
            </g>
        </g>
    </g>
</svg>