<?xml version="1.0" encoding="UTF-8"?>
<svg width="22px" height="17px" viewBox="0 0 22 17" version="1.1" xmlns="http://www.w3.org/2000/svg" xmlns:xlink="http://www.w3.org/1999/xlink">
    <!-- Generator: Sketch 62 (91390) - https://sketch.com -->
    <title>unassigned</title>
    <desc>Created with Sketch.</desc>
    <g id="Page-1" stroke="none" stroke-width="1" fill="none" fill-rule="evenodd">
        <g id="Artboard" transform="translate(-333.000000, -301.000000)">
            <g id="Unassigned-Orders" transform="translate(333.000000, 299.000000)">
                <path d="M13.5,12.625 C16.36875,12.625 22,14.00625 22,16.875 L22,16.875 L22,19 L5,19 L5,16.875 C5,14.00625 10.63125,12.625 13.5,12.625 Z M13.5,2 C15.8375,2 17.75,3.9125 17.75,6.25 C17.75,8.5875 15.8375,10.5 13.5,10.5 C11.1625,10.5 9.25,8.5875 9.25,6.25 C9.25,3.9125 11.1625,2 13.5,2 Z" id="body-color" fill="#2C2C2C" fill-rule="evenodd"></path>
                <path d="M3.46069336,9.76000977 C3.8675944,9.76000977 4.10970052,9.54842122 4.18701172,9.12524414 C4.23177083,8.92586263 4.26534017,8.78649902 4.28771973,8.70715332 C4.31009928,8.62780762 4.34163411,8.54846191 4.38232422,8.46911621 C4.42301432,8.38977051 4.48506673,8.30228678 4.56848145,8.20666504 C4.65189616,8.11104329 4.76277669,8.00016276 4.90112305,7.87402344 C5.40161133,7.42643229 5.74849447,7.10803223 5.94177246,6.91882324 C6.13505046,6.72961426 6.30187988,6.50480143 6.44226074,6.24438477 C6.5826416,5.9839681 6.65283203,5.68082682 6.65283203,5.33496094 C6.65283203,4.89550781 6.52974447,4.48860677 6.28356934,4.11425781 C6.03739421,3.73990885 5.68847656,3.44388835 5.23681641,3.22619629 C4.78515625,3.00850423 4.26432292,2.8996582 3.67431641,2.8996582 C3.03955078,2.8996582 2.48413086,3.02986654 2.00805664,3.2902832 C1.53198242,3.55069987 1.16984049,3.87927246 0.921630859,4.27600098 C0.673421224,4.67272949 0.549316406,5.06437174 0.549316406,5.45092773 C0.549316406,5.63810221 0.627644857,5.81205241 0.784301758,5.97277832 C0.940958659,6.13350423 1.1332194,6.21386719 1.36108398,6.21386719 C1.74763997,6.21386719 2.01009115,5.9839681 2.1484375,5.52416992 C2.29492188,5.0847168 2.47395833,4.7520752 2.68554688,4.52624512 C2.89713542,4.30041504 3.22672526,4.1875 3.67431641,4.1875 C4.05680339,4.1875 4.36909993,4.29939779 4.61120605,4.52319336 C4.85331217,4.74698893 4.97436523,5.02164714 4.97436523,5.34716797 C4.97436523,5.5139974 4.93469238,5.66861979 4.85534668,5.81103516 C4.77600098,5.95345052 4.67834473,6.0826416 4.56237793,6.1986084 C4.44641113,6.3145752 4.2582194,6.48649089 3.99780273,6.71435547 C3.70076497,6.97477214 3.46476237,7.19958496 3.28979492,7.38879395 C3.11482747,7.57800293 2.97444661,7.79772949 2.86865234,8.04797363 C2.76285807,8.29821777 2.70996094,8.59423828 2.70996094,8.93603516 C2.70996094,9.20865885 2.78218587,9.41414388 2.92663574,9.55249023 C3.07108561,9.69083659 3.24910482,9.76000977 3.46069336,9.76000977 Z M3.52783203,12.1403809 C3.76790365,12.1403809 3.97949219,12.0590007 4.16259766,11.8962402 C4.34570312,11.7334798 4.43725586,11.5096842 4.43725586,11.2248535 C4.43725586,10.9685059 4.34977214,10.7528483 4.17480469,10.5778809 C3.99983724,10.4029134 3.78417969,10.3154297 3.52783203,10.3154297 C3.26741536,10.3154297 3.0476888,10.4029134 2.86865234,10.5778809 C2.68961589,10.7528483 2.60009766,10.9685059 2.60009766,11.2248535 C2.60009766,11.5137533 2.69266764,11.7385661 2.87780762,11.899292 C3.06294759,12.0600179 3.2796224,12.1403809 3.52783203,12.1403809 Z" id="?" fill="#9E0000" fill-rule="nonzero"></path>
            </g>
        </g>
    </g>
</svg>