<?xml version="1.0" encoding="UTF-8"?>
<svg width="18px" height="10px" viewBox="0 0 18 10" version="1.1" xmlns="http://www.w3.org/2000/svg" xmlns:xlink="http://www.w3.org/1999/xlink">
    <!-- Generator: Sketch 63.1 (92452) - https://sketch.com -->
    <title>video</title>
    <desc>Created with Sketch.</desc>
    <g id="Page-1" stroke="none" stroke-width="1" fill="none" fill-rule="evenodd">
        <g id="BM---Action-Hub-Option-2-Copy-2" transform="translate(-1065.000000, -36.000000)" fill="#000000">
            <g id="video" transform="translate(1065.000000, 36.000000)">
                <path d="M11.4460681,0 C11.9983529,-1.01453063e-16 12.4460681,0.44771525 12.4460681,1 L12.4460681,9 C12.4460681,9.55228475 11.9983529,10 11.4460681,10 L1,10 C0.44771525,10 6.76353751e-17,9.55228475 0,9 L0,1 C-1.78657678e-16,0.44771525 0.44771525,1.01453063e-16 1,0 L11.4460681,0 Z M17.5,1.22957815 C17.7761424,1.22957815 18,1.45343578 18,1.72957815 L18,1.72957815 L18,8.27042185 C18,8.33212632 17.9885785,8.39329777 17.9663127,8.45084493 C17.8666678,8.70838231 17.5771143,8.83637944 17.3195769,8.73673452 L17.3195769,8.73673452 L13.4052425,7.22222222 L13.4052425,2.77777778 L17.3195769,1.26326548 C17.3771241,1.24099966 17.4382955,1.22957815 17.5,1.22957815 Z"></path>
            </g>
        </g>
    </g>
</svg>