<?xml version="1.0" encoding="UTF-8"?>
<svg width="31px" height="16px" viewBox="0 0 31 16" version="1.1" xmlns="http://www.w3.org/2000/svg" xmlns:xlink="http://www.w3.org/1999/xlink">
    <!-- Generator: Sketch 62 (91390) - https://sketch.com -->
    <title>view</title>
    <desc>Created with Sketch.</desc>
    <g id="Page-1" stroke="none" stroke-width="1" fill="none" fill-rule="evenodd">
        <g id="Artboard" transform="translate(-394.000000, -191.000000)" fill="#2C2C2C">
            <g id="View-Eye" transform="translate(394.000000, 190.000000)">
                <path d="M15.2076516,1.722566 C23.3031301,1.722566 26.432019,5.72454378 30.1032486,8.70327711 C30.4808012,9.01065489 30.5058323,9.56069933 30.1387093,9.88021044 C27.2079834,12.4100104 23.1821464,16.8548549 15.2076516,16.8548549 C7.13094637,16.8548549 3.70168415,12.7578327 0.282851556,9.87414378 C-0.0905291852,9.55867711 -0.094701037,9.01672156 0.274507852,8.69721044 C3.29910044,6.08449933 7.20812563,1.722566 15.2076516,1.722566 Z M15.2076516,3.74478822 C8.8956397,3.74478822 5.46637748,6.80441044 2.71504119,9.27354378 C2.81516563,9.36049933 2.91320415,9.44947711 3.01332859,9.53845489 C5.94405452,12.1410549 8.97490489,14.8326327 15.2076516,14.8326327 C21.4570856,14.8326327 24.9051212,11.805366 27.6668871,9.330166 C27.4603804,9.15221044 27.2538738,8.97223267 27.0473671,8.79225489 C24.0749227,6.19572156 21.2693523,3.74478822 15.2076516,3.74478822 Z M15.2076516,5.750226 C17.222656,5.750226 18.8580219,7.33564822 18.8580219,9.28911489 C18.8580219,11.2425816 17.222656,12.8280038 15.2076516,12.8280038 C13.1926471,12.8280038 11.5572812,11.2425816 11.5572812,9.28911489 C11.5572812,7.33564822 13.1926471,5.750226 15.2076516,5.750226 Z" id="color"></path>
            </g>
        </g>
    </g>
</svg>