<?xml version="1.0" encoding="UTF-8"?>
<svg width="31px" height="16px" viewBox="0 0 31 16" version="1.1" xmlns="http://www.w3.org/2000/svg" xmlns:xlink="http://www.w3.org/1999/xlink">
    <!-- Generator: Sketch 48.2 (47327) - http://www.bohemiancoding.com/sketch -->
    <title>View-Eye</title>
    <desc>Created with Sketch.</desc>
    <defs>
        <polygon id="path-1" points="30.4002844 0.0444777778 30.4002844 15.1767667 0.000188817624 15.1767667 0.000188817624 0.0444777778 30.4002844 0.0444777778"></polygon>
    </defs>
    <g id="Page-1" stroke="none" stroke-width="1" fill="none" fill-rule="evenodd">
        <g id="View-Eye" transform="translate(0.000000, -1.000000)">
            <g id="eye">
                <g id="Page-1" transform="translate(0.000000, 0.700000)">
                    <g id="Group-3" transform="translate(0.000000, 0.978088)">
                        <mask id="mask-2" fill="white">
                            <use xlink:href="#path-1"></use>
                        </mask>
                        <g id="Clip-2"></g>
                        <path d="M15.2076516,0.0444777778 C7.20812563,0.0444777778 3.29910044,4.40641111 0.274507852,7.01912222 C-0.094701037,7.33863333 -0.0905291852,7.88058889 0.282851556,8.19605556 C3.70168415,11.0797444 7.13094637,15.1767667 15.2076516,15.1767667 C23.1821464,15.1767667 27.2079834,10.7319222 30.1387093,8.20212222 C30.5058323,7.88261111 30.4808012,7.33256667 30.1032486,7.02518889 C26.432019,4.04645556 23.3031301,0.0444777778 15.2076516,0.0444777778 M15.2076516,2.0667 C21.2693523,2.0667 24.0749227,4.51763333 27.0473671,7.11416667 C27.2538738,7.29414444 27.4603804,7.47412222 27.6668871,7.65207778 C24.9051212,10.1272778 21.4570856,13.1545444 15.2076516,13.1545444 C8.97490489,13.1545444 5.94405452,10.4629667 3.01332859,7.86036667 C2.91320415,7.77138889 2.81516563,7.68241111 2.71504119,7.59545556 C5.46637748,5.12632222 8.8956397,2.0667 15.2076516,2.0667" id="Fill-1" fill="#979797" mask="url(#mask-2)"></path>
                    </g>
                    <path d="M18.8580219,8.58911489 C18.8580219,10.5425816 17.222656,12.1280038 15.2076516,12.1280038 C13.1926471,12.1280038 11.5572812,10.5425816 11.5572812,8.58911489 C11.5572812,6.63564822 13.1926471,5.050226 15.2076516,5.050226 C17.222656,5.050226 18.8580219,6.63564822 18.8580219,8.58911489" id="Fill-4" fill="#979797"></path>
                </g>
            </g>
        </g>
    </g>
</svg>