<?xml version="1.0" encoding="UTF-8"?>
<svg width="36px" height="26px" viewBox="0 0 36 26" version="1.1" xmlns="http://www.w3.org/2000/svg" xmlns:xlink="http://www.w3.org/1999/xlink">
    <!-- Generator: Sketch 48.2 (47327) - http://www.bohemiancoding.com/sketch -->
    <title>Visa-Inactive</title>
    <desc>Created with Sketch.</desc>
    <defs></defs>
    <g id="Page-1" stroke="none" stroke-width="1" fill="none" fill-rule="evenodd">
        <g id="Visa-Inactive">
            <g>
                <rect id="Rectangle-4" fill="#F4F4F4" x="0" y="0" width="36" height="26" rx="2"></rect>
                <path d="M29.9173657,8.34338016 L28.1934914,8.34338016 C27.6580804,8.34338016 27.2598218,8.50121378 27.0245394,9.07910853 L23.7116478,17.2031902 L26.0547166,17.2031902 C26.0547166,17.2031902 26.4369071,16.1107827 26.5235599,15.8715467 C26.7800752,15.8715467 29.0565763,15.8752751 29.380807,15.8752751 C29.4473747,16.1847284 29.6528164,17.2031902 29.6528164,17.2031902 L31.722728,17.2031902 L29.9173657,8.34338016 Z M27.1657088,14.0577029 C27.3493439,13.5487827 28.0546174,11.5802122 28.0546174,11.5802122 C28.0425663,11.6044465 28.2365309,11.0675636 28.3518767,10.733876 L28.5022279,11.4981884 C28.5022279,11.4981884 28.9297533,13.6146503 29.0192754,14.0577029 L27.1657088,14.0577029 Z M23.8677376,14.3025314 C23.8516696,16.1437165 22.3274984,17.3318184 19.9821342,17.3318184 C18.9818969,17.3206334 18.0183866,17.1074958 17.4961744,16.8595604 L17.8100756,14.875455 L18.0975792,15.0171325 C18.830398,15.3477131 19.3049799,15.4813124 20.1984793,15.4813124 C20.8394805,15.4813124 21.5258166,15.2091427 21.5327029,14.6157131 C21.5367199,14.227343 21.2451992,13.9508234 20.3758019,13.5158489 C19.5287851,13.091438 18.4074634,12.3805653 18.4218099,11.1073327 C18.433861,9.3842121 19.9878728,8.18181818 22.1926414,8.18181818 C23.056874,8.18181818 23.7495226,8.37444977 24.1913945,8.55403211 L23.8895443,10.4753768 L23.6881196,10.3728471 C23.2772361,10.1938861 22.7481375,10.0211391 22.0181881,10.033567 C21.1447738,10.033567 20.7396289,10.4275296 20.7396289,10.7960152 C20.735038,11.2111052 21.2124892,11.4845178 21.9929383,11.8958794 C23.2824008,12.5265925 23.8774933,13.2952547 23.8677376,14.3025314 Z M14.3617531,8.34213737 L10.8480107,17.190141 L8.48715228,17.1944908 L6.4889731,9.80178767 C7.92534371,10.797258 9.14881241,12.376837 9.57978098,13.4767012 L9.81276798,14.3895263 L11.9980254,8.34400155 L14.3617531,8.34213737 Z M15.2638605,8.33468066 L17.4961744,8.33468066 L16.0999739,17.1994619 L13.8688077,17.1994619 L15.2638605,8.33468066 Z M4.27272727,8.4353462 L4.30142025,8.25762803 L7.760646,8.25762803 C8.22719387,8.27689119 8.60307192,8.43783177 8.73276419,8.9778216 L9.48509414,12.8950781 C8.74596296,10.846348 6.96470272,9.14186914 4.27272727,8.4353462 Z" id="Shape" fill="#979797" fill-rule="nonzero"></path>
            </g>
        </g>
    </g>
</svg>