<?xml version="1.0" encoding="UTF-8"?>
<svg width="36px" height="26px" viewBox="0 0 36 26" version="1.1" xmlns="http://www.w3.org/2000/svg" xmlns:xlink="http://www.w3.org/1999/xlink">
    <!-- Generator: Sketch 48.2 (47327) - http://www.bohemiancoding.com/sketch -->
    <title>Visa-Active</title>
    <desc>Created with Sketch.</desc>
    <defs></defs>
    <g id="Page-1" stroke="none" stroke-width="1" fill="none" fill-rule="evenodd">
        <g id="Visa-Color">
            <g>
                <rect id="Rectangle-4" fill="#0056A2" x="0" y="0" width="36" height="26" rx="2"></rect>
                <g id="visalogo" transform="translate(4.272727, 8.181818)">
                    <path d="M25.6446384,0.161561974 L23.9207641,0.161561974 C23.3853531,0.161561974 22.9870945,0.319395595 22.7518121,0.897290348 L19.4389206,9.02137207 L21.7819894,9.02137207 C21.7819894,9.02137207 22.1641799,7.92896457 22.2508327,7.68972857 C22.5073479,7.68972857 24.783849,7.69345692 25.1080797,7.69345692 C25.1746474,8.00291024 25.3800891,9.02137207 25.3800891,9.02137207 L27.4500008,9.02137207 L25.6446384,0.161561974 Z M22.8929816,5.87588471 C23.0766166,5.3669645 23.7818901,3.39839398 23.7818901,3.39839398 C23.7698391,3.42262828 23.9638036,2.88574541 24.0791494,2.5520578 L24.2295006,3.31637021 C24.2295006,3.31637021 24.657026,5.43283207 24.7465481,5.87588471 L22.8929816,5.87588471 Z M19.5950104,6.12071324 C19.5789423,7.96189835 18.0547712,9.15000025 15.7094069,9.15000025 C14.7091696,9.13881519 13.7456593,8.92567767 13.2234471,8.67774218 L13.5373483,6.69363686 L13.824852,6.83531428 C14.5576707,7.16589494 15.0322526,7.29949426 15.925752,7.29949426 C16.5667532,7.29949426 17.2530893,7.02732447 17.2599756,6.43389492 C17.2639926,6.04552479 16.9724719,5.76900525 16.1030746,5.33403071 C15.2560578,4.90961983 14.1347361,4.19874715 14.1490826,2.92551451 C14.1611337,1.20239392 15.7151455,0 17.9199142,0 C18.7841467,0 19.4767953,0.192631584 19.9186672,0.372213932 L19.616817,2.29355864 L19.4153923,2.19102892 C19.0045088,2.01206797 18.4754103,1.83932093 17.7454608,1.85174878 C16.8720465,1.85174878 16.4669016,2.24571144 16.4669016,2.61419702 C16.4623107,3.02928701 16.9397619,3.30269958 17.720211,3.71406122 C19.0096736,4.34477431 19.604766,5.11343647 19.5950104,6.12071324 Z M10.0890259,0.16031919 L6.57528345,9.00832283 L4.214425,9.01267258 L2.21624583,1.61996948 C3.65261644,2.6154398 4.87608514,4.19501879 5.30705371,5.294883 L5.54004071,6.20770815 L7.72529812,0.162183366 L10.0890259,0.16031919 Z M10.9911332,0.152862483 L13.2234471,0.152862483 L11.8272466,9.01764371 L9.59608046,9.01764371 L10.9911332,0.152862483 Z" id="Shape" fill="#FFFFFF" fill-rule="nonzero"></path>
                    <path d="M0,0.253528021 L0.0286929807,0.0758098493 L3.48791873,0.0758098493 C3.9544666,0.0950730077 4.33034465,0.256013589 4.46003692,0.796003418 L5.21236687,4.71325989 C4.47323569,2.66452979 2.69197545,0.96005096 0,0.253528021 Z" id="Path" fill="#FFA100"></path>
                </g>
            </g>
        </g>
    </g>
</svg>