<?xml version="1.0" encoding="UTF-8"?>
<svg width="22px" height="18px" viewBox="0 0 22 18" version="1.1" xmlns="http://www.w3.org/2000/svg" xmlns:xlink="http://www.w3.org/1999/xlink">
    <!-- Generator: Sketch 48.2 (47327) - http://www.bohemiancoding.com/sketch -->
    <title>warning-alliedred</title>
    <desc>Created with Sketch.</desc>
    <defs>
        <polygon id="path-1" points="2.89319532e-21 0 22 0 22 18 0 18"></polygon>
    </defs>
    <g id="Page-1" stroke="none" stroke-width="1" fill="none" fill-rule="evenodd">
        <g id="warning-alliedred">
            <mask id="mask-2" fill="white">
                <use xlink:href="#path-1"></use>
            </mask>
            <g id="Clip-2"></g>
            <path d="M12.1406538,8.46461232 C12.1227215,8.64461118 12.0977443,8.8219204 12.0657223,8.99612619 C12.0337003,9.17033198 11.9957008,9.35529632 11.9519374,9.55081232 C11.9079605,9.74632832 11.8599274,9.97970614 11.8080518,10.2507389 C11.7559626,10.5217717 11.7002443,10.84308 11.6402564,11.2148707 C11.5802685,11.5866614 11.5202805,12.0379 11.4602926,12.5681725 L10.8192118,12.5681725 C10.7592239,12.0416241 10.6992359,11.59142 10.639248,11.2177672 C10.5794736,10.8441144 10.5233283,10.5217717 10.4714526,10.2507389 C10.419577,9.97970614 10.3704765,9.74632832 10.3245783,9.55081232 C10.2786801,9.35529632 10.2398267,9.17033198 10.2078047,8.99612619 C10.1757826,8.8219204 10.1508055,8.64461118 10.1328731,8.46461232 C10.1149408,8.28440657 10.1059746,8.07647686 10.1059746,7.8402025 C10.1059746,7.62337629 10.1358619,7.42868787 10.1958498,7.25634414 C10.2556242,7.0842073 10.3337579,6.93896685 10.4296105,6.82082967 C10.5254631,6.70269249 10.6351919,6.61165858 10.7592239,6.54772795 C10.8830423,6.48379733 11.0087821,6.45193546 11.1366567,6.45193546 C11.2645313,6.45193546 11.3904846,6.48379733 11.5143031,6.54772795 C11.6381216,6.61165858 11.7480638,6.70269249 11.8439164,6.82082967 C11.9399825,6.93896685 12.0176892,7.0842073 12.0776772,7.25634414 C12.1376651,7.42868787 12.1675523,7.62337629 12.1675523,7.8402025 C12.1675523,8.07647686 12.1585861,8.28440657 12.1406538,8.46461232 M11.9429712,14.3776782 C11.8968595,14.4802982 11.8349503,14.5692632 11.75703,14.6447799 C11.6791098,14.7202967 11.5862459,14.7792618 11.4784384,14.8218823 C11.370631,14.8645027 11.2566326,14.8858129 11.1366567,14.8858129 C11.0168944,14.8858129 10.9039634,14.8645027 10.7980772,14.8218823 C10.6921911,14.7792618 10.6003946,14.7202967 10.5224744,14.6447799 C10.4445541,14.5692632 10.3837123,14.4802982 10.3395219,14.3776782 C10.295545,14.2750582 10.27377,14.1656106 10.27377,14.0493355 C10.27377,13.9332672 10.295545,13.8238196 10.3395219,13.7211996 C10.3837123,13.6187865 10.4445541,13.5296146 10.5224744,13.4540979 C10.6003946,13.3785811 10.6921911,13.3185815 10.7980772,13.274099 C10.9039634,13.2294096 11.0168944,13.2070649 11.1366567,13.2070649 C11.2566326,13.2070649 11.370631,13.2294096 11.4784384,13.274099 C11.5862459,13.3185815 11.6791098,13.3785811 11.75703,13.4540979 C11.8349503,13.5296146 11.8968595,13.6187865 11.9429712,13.7211996 C11.9888694,13.8238196 12.0117118,13.9332672 12.0117118,14.0493355 C12.0117118,14.1656106 11.9888694,14.2750582 11.9429712,14.3776782 M21.7976412,15.9976679 L12.1666984,0.603420903 C11.6656605,-0.197263664 10.5182048,-0.202022254 10.010976,0.594524408 L0.207968207,15.9887714 C-0.344091421,16.8556624 0.267529165,18 1.28305416,18 L20.7172182,18 C21.7278332,18 22.3403077,16.8649727 21.7976412,15.9976679" id="Fill-1" fill="#DA291C" fill-rule="evenodd" mask="url(#mask-2)"></path>
        </g>
    </g>
</svg>