<?xml version="1.0" encoding="UTF-8"?>
<svg width="18px" height="15px" viewBox="0 0 18 15" version="1.1" xmlns="http://www.w3.org/2000/svg" xmlns:xlink="http://www.w3.org/1999/xlink">
    <!-- Generator: Sketch 62 (91390) - https://sketch.com -->
    <title>warning</title>
    <desc>Created with Sketch.</desc>
    <g id="Page-1" stroke="none" stroke-width="1" fill="none" fill-rule="evenodd">
        <g id="Artboard" transform="translate(-422.000000, -94.000000)" fill="#DA291C">
            <g id="warning-alliedred" transform="translate(422.000000, 94.000000)">
                <path d="M9.9332622,6.9255919 C9.9185903,7.07286369 9.89815443,7.21793487 9.87195459,7.36046688 C9.84575476,7.50299889 9.81466429,7.65433335 9.77885785,7.81430099 C9.74287674,7.97426862 9.70357699,8.16521412 9.66113326,8.38696819 C9.61851486,8.60872227 9.57292715,8.87161088 9.52384612,9.17580331 C9.4747651,9.47999573 9.42568407,9.84919088 9.37660305,10.2830502 L8.85208236,10.2830502 C8.80300134,9.85223788 8.75392031,9.48388912 8.70483929,9.1781732 C8.65593293,8.87245727 8.60999589,8.60872227 8.56755216,8.38696819 C8.52510842,8.16521412 8.48493534,7.97426862 8.44738225,7.81430099 C8.40982915,7.65433335 8.37804002,7.50299889 8.35184018,7.36046688 C8.32564035,7.21793487 8.30520448,7.07286369 8.29053257,6.9255919 C8.27586066,6.77815083 8.26852471,6.60802652 8.26852471,6.41471113 C8.26852471,6.23730787 8.29297789,6.07801735 8.34205891,5.93700884 C8.39096527,5.79616961 8.45489287,5.67733651 8.5333177,5.58067882 C8.61174254,5.48402112 8.70152064,5.40953884 8.80300134,5.35723196 C8.90430736,5.30492508 9.00718538,5.27885628 9.11181005,5.27885628 C9.21643473,5.27885628 9.31948741,5.30492508 9.42079344,5.35723196 C9.52209947,5.40953884 9.61205223,5.48402112 9.69047707,5.58067882 C9.76907657,5.67733651 9.83265484,5.79616961 9.88173586,5.93700884 C9.93081689,6.07801735 9.95527007,6.23730787 9.95527007,6.41471113 C9.95527007,6.60802652 9.94793411,6.77815083 9.9332622,6.9255919 M9.77152189,11.7635549 C9.73379413,11.8475167 9.68314112,11.9203062 9.61938819,11.9820927 C9.55563525,12.0438791 9.47965573,12.0921233 9.39144962,12.1269946 C9.30324351,12.1618658 9.2099721,12.1793015 9.11181005,12.1793015 C9.01382267,12.1793015 8.92142459,12.1618658 8.83479047,12.1269946 C8.74815635,12.0921233 8.67305016,12.0438791 8.60929723,11.9820927 C8.54554429,11.9203062 8.49576461,11.8475167 8.45960884,11.7635549 C8.42362773,11.679593 8.40581184,11.590045 8.40581184,11.4949108 C8.40581184,11.3999459 8.42362773,11.3103979 8.45960884,11.226436 C8.49576461,11.1426435 8.54554429,11.0696847 8.60929723,11.0078982 C8.67305016,10.9461118 8.74815635,10.8970212 8.83479047,10.8606265 C8.92142459,10.8240624 9.01382267,10.8057804 9.11181005,10.8057804 C9.2099721,10.8057804 9.30324351,10.8240624 9.39144962,10.8606265 C9.47965573,10.8970212 9.55563525,10.9461118 9.61938819,11.0078982 C9.68314112,11.0696847 9.73379413,11.1426435 9.77152189,11.226436 C9.80907499,11.3103979 9.8277642,11.3999459 9.8277642,11.4949108 C9.8277642,11.590045 9.80907499,11.679593 9.77152189,11.7635549 M17.8344337,13.089001 L9.9545714,0.493708011 C9.54463132,-0.161397543 8.60580391,-0.165290935 8.19079853,0.486429061 L0.170155806,13.0817221 C-0.281529344,13.7909965 0.218887498,14.7272727 1.04977159,14.7272727 L16.9504513,14.7272727 C17.777318,14.7272727 18.2784336,13.7986141 17.8344337,13.089001" id="Fill-1"></path>
            </g>
        </g>
    </g>
</svg>