<?xml version="1.0" encoding="UTF-8"?>
<svg width="18px" height="18px" viewBox="0 0 18 18" version="1.1" xmlns="http://www.w3.org/2000/svg" xmlns:xlink="http://www.w3.org/1999/xlink">
    <!-- Generator: Sketch 62 (91390) - https://sketch.com -->
    <title>website</title>
    <desc>Created with Sketch.</desc>
    <g id="Page-1" stroke="none" stroke-width="1" fill="none" fill-rule="evenodd">
        <g id="Artboard" transform="translate(-521.000000, -167.000000)" fill="#2C2C2C">
            <g id="Web" transform="translate(521.000000, 167.000000)">
                <path d="M9,0 C13.9705627,0 18,4.02943725 18,9 C18,13.9705627 13.9705627,18 9,18 C4.02943725,18 0,13.9705627 0,9 C0,4.02943725 4.02943725,0 9,0 Z M4.265425,13.3753616 C3.87778758,13.564875 3.52676469,13.7779441 3.21908761,14.0104622 C4.07400322,14.9960095 5.17662855,15.7606677 6.43008315,16.2076296 C5.5470535,15.5528881 4.79983506,14.5720133 4.265425,13.3753616 Z M13.7341119,13.3734879 C13.1998292,14.5717978 12.4520744,15.5537264 11.5681798,16.2082485 C12.8223574,15.7612262 13.9250151,14.9967943 14.7799748,14.011607 C14.4727763,13.7773587 14.1217524,13.5639276 13.7341119,13.3734879 Z M9,12.375 C7.76237887,12.375 6.59769036,12.5506472 5.58042271,12.860042 C6.29967183,14.8683217 7.56235869,16.2 9,16.2 C10.4376413,16.2 11.7003282,14.8683217 12.4190566,12.8609722 C11.4019576,12.5505941 10.2374341,12.375 9,12.375 Z M2.42514249,5.08600909 L2.39444926,5.13889852 C1.73055796,6.27223185 1.35,7.59167389 1.35,9 C1.35,10.490332 1.77616759,11.8811273 2.513286,13.057169 C2.8891948,12.7070479 3.32347579,12.3888714 3.80534803,12.1088861 C3.52781076,11.1525099 3.375,10.1019524 3.375,9 C3.375,7.97176576 3.50804924,6.98827997 3.75070904,6.08329434 C3.25327262,5.78954228 2.80783584,5.45455283 2.42514249,5.08600909 Z M15.5745797,5.08650687 L15.5520914,5.10786942 C15.1746007,5.46783909 14.7370941,5.79551021 14.2497852,6.08379006 C14.4919508,6.98827997 14.625,7.97176576 14.625,9 C14.625,10.1019524 14.4721892,11.1525099 14.1954177,12.1101286 C14.6770876,12.3896558 15.1109983,12.7074122 15.4876898,13.056639 C16.2238324,11.8811273 16.65,10.490332 16.65,9 C16.65,7.56991722 16.257593,6.23148599 15.5745797,5.08650687 Z M12.8481629,6.74914585 L12.6966769,6.80637238 C11.5883998,7.20181673 10.3317315,7.425 9,7.425 C7.6071707,7.425 6.29645019,7.18086836 5.15172905,6.75086242 C5.02085758,7.45728521 4.95,8.21393178 4.95,9 C4.95,9.86398918 5.03560171,10.6924346 5.19254997,11.4599938 C6.32758806,11.0383685 7.62370878,10.8 9,10.8 C10.3762846,10.8 11.6723994,11.0383662 12.8074081,11.4588929 C12.964324,10.6931538 13.05,9.86436417 13.05,9 C13.05,8.21393178 12.9791424,7.45728521 12.8481629,6.74914585 Z M9,1.8 C7.51440217,1.8 6.21562565,3.22200378 5.5108474,5.34214117 C6.54386204,5.6661351 7.73375862,5.85 9,5.85 C10.266099,5.85 11.4558703,5.66617646 12.4895646,5.34338841 C11.7847802,3.22244819 10.48583,1.8 9,1.8 Z M6.43496536,1.78944971 L6.40417331,1.80166237 C5.10495655,2.27025865 3.96904428,3.0805897 3.10492683,4.12416518 C3.41723699,4.37604503 3.78064033,4.6064991 4.18560767,4.81147846 C4.72492419,3.52765554 5.50469516,2.47725914 6.43496536,1.78944971 Z M11.567922,1.79165934 L11.6245722,1.83392472 C12.5286585,2.52196036 13.2868372,3.55437967 13.8148773,4.80989038 C14.2193726,4.60578838 14.5823433,4.37595939 14.8958832,4.12503927 C14.0247747,3.07312507 12.8787793,2.25867809 11.567922,1.79165934 Z" id="colo"></path>
            </g>
        </g>
    </g>
</svg>