<?xml version="1.0" encoding="UTF-8"?>
<svg width="32px" height="26px" viewBox="0 0 32 26" version="1.1" xmlns="http://www.w3.org/2000/svg" xmlns:xlink="http://www.w3.org/1999/xlink">
    <!-- Generator: Sketch 52.3 (67297) - http://www.bohemiancoding.com/sketch -->
    <title>video-youtube</title>
    <desc>Created with Sketch.</desc>
    <g id="Symbols" stroke="none" stroke-width="1" fill="none" fill-rule="evenodd">
        <g id="footer-2" transform="translate(-1081.000000, -181.000000)" fill="#2C2C2C">
            <g id="footer" transform="translate(-1.000000, 0.000000)">
                <g id="video-youtube" transform="translate(1082.000000, 181.000000)">
                    <g id="Shape">
                        <path d="M28.8,0.64 C27.84,0.32 21.92,0 16,0 C10.08,0 4.16,0.32 3.2,0.64 C0.64,1.44 0,7.04 0,12.8 C0,18.56 0.64,24.16 3.2,24.96 C4.16,25.28 10.08,25.6 16,25.6 C21.92,25.6 27.84,25.28 28.8,24.96 C31.36,24.16 32,18.56 32,12.8 C32,7.04 31.36,1.44 28.8,0.64 L28.8,0.64 Z M12.8,20 L12.8,5.6 L22.4,12.8 L12.8,20 L12.8,20 Z"></path>
                    </g>
                </g>
            </g>
        </g>
    </g>
</svg>