<?xml version="1.0" encoding="UTF-8"?>
<svg width="18px" height="18px" viewBox="0 0 18 18" version="1.1" xmlns="http://www.w3.org/2000/svg" xmlns:xlink="http://www.w3.org/1999/xlink">
    <!-- Generator: Sketch 62 (91390) - https://sketch.com -->
    <title>zoom-in</title>
    <desc>Created with Sketch.</desc>
    <g id="Page-1" stroke="none" stroke-width="1" fill="none" fill-rule="evenodd">
        <g id="Artboard" transform="translate(-468.000000, -392.000000)" fill="#2C2C2C">
            <g id="Zoom-In" transform="translate(468.000000, 392.000000)">
                <path d="M6.5,0 C10.1,0 13,2.9 13,6.5 C13,8.1 12.4,9.6 11.4,10.7 L11.4,10.7 L11.7,11 L12.5,11 L17.5,16 L16,17.5 L11,12.5 L11,11.7 L10.7,11.4 C9.6,12.4 8.1,13 6.5,13 C2.9,13 0,10.1 0,6.5 C0,2.9 2.9,0 6.5,0 Z M6.5,2 C4,2 2,4 2,6.5 C2,9 4,11 6.5,11 C9,11 11,9 11,6.5 C11,4 9,2 6.5,2 Z M7,4 L7,6 L9,6 L9,7 L7,7 L7,9 L6,9 L6,7 L4,7 L4,6 L6,6 L6,4 L7,4 Z" id="Combined-Shape"></path>
            </g>
        </g>
    </g>
</svg>