<?xml version="1.0" encoding="utf-8"?>
<!-- Generator: Adobe Illustrator 23.0.4, SVG Export Plug-In . SVG Version: 6.00 Build 0)  -->
<svg version="1.1" id="Layer_1" xmlns="http://www.w3.org/2000/svg" xmlns:xlink="http://www.w3.org/1999/xlink" x="0px" y="0px"
	 viewBox="0 0 485 182" style="enable-background:new 0 0 485 182;" xml:space="preserve">
<g>
	<path d="M90.5,115.5H70.6c-2.7,0-5.4-0.6-8.2-1.7c-2.4-1-4.7-2.6-6.7-4.6c-1.9-1.9-3.5-4.2-4.5-6.7c-1.1-2.6-1.7-5.4-1.7-8.2
		c0-2.8,0.6-5.6,1.7-8.2c1.1-2.5,2.6-4.8,4.5-6.7c1.9-1.9,4.2-3.5,6.7-4.5c3.3-1.4,6.9-1.9,10.5-1.5c2.1-2.1,4.6-3.9,7.3-5.1
		c6.2-2.9,13.5-3,19.9-0.3c2.9,1.2,5.6,3,7.8,5.3c2.3,2.3,4,4.9,5.3,7.8c1.3,3,1.9,6.3,1.9,9.6c0,3.3-0.7,6.6-1.9,9.6
		c-1.3,3-3,5.6-5.3,7.9c-2.3,2.3-5,4.1-7.8,5.3C96.9,114.8,93.6,115.5,90.5,115.5z M70.6,75.9c-2.5,0-4.9,0.5-7.1,1.4
		c-2.2,0.9-4.1,2.2-5.8,3.9c-1.7,1.7-3,3.6-3.9,5.8c-1,2.3-1.4,4.7-1.4,7.1c0,2.5,0.5,4.9,1.4,7.1c0.9,2.2,2.2,4.1,3.9,5.8
		c1.8,1.8,3.7,3.1,5.8,4c2.4,1,4.8,1.5,7.1,1.5h19.9c2.8,0,5.7-0.6,8.5-1.8c2.6-1.1,4.9-2.7,7-4.8c2-2,3.6-4.4,4.7-7
		c1.1-2.7,1.7-5.6,1.7-8.6c0-3-0.6-5.8-1.7-8.5c-1.1-2.6-2.7-5-4.7-7c-2-2-4.4-3.6-7-4.7c-5.6-2.4-12.1-2.3-17.7,0.3
		c-2.6,1.2-5,2.9-6.9,5l-0.5,0.5l-0.7-0.1C72.3,76,71.5,75.9,70.6,75.9z"/>
	<path d="M68,94.9c-0.7-0.7-0.6-1.8,0-2.4c0.7-0.7,1.8-0.6,2.4,0l9.1,9.1c2.8,2.8,6.7,4.5,11,4.5c8.6,0,15.5-6.9,15.5-15.5
		S99,75.1,90.5,75.1c-3.6,0-7,1.3-9.6,3.4c-1-0.7-2.1-1.2-3.3-1.7c3.4-3.2,7.9-5.1,12.9-5.1c10.4,0,18.9,8.5,18.9,18.9
		s-8.5,18.9-18.9,18.9c-5.2,0-9.9-2.1-13.4-5.5L68,94.9z"/>
	<path d="M78.4,85.3c-2.1-1.8-4.8-2.9-7.8-2.9c-6.6,0-11.9,5.3-11.9,11.9c0,6.6,5.3,11.9,11.9,11.9l3.8,0.1c1.3,1.3,2.7,2.5,4.2,3.5
		h-8c-8.4,0-15.3-6.9-15.3-15.4S62.1,79,70.6,79c3.9,0,7.5,1.5,10.2,3.9l6.9,7.1c0.7,0.7,0.6,1.8,0,2.4c-0.7,0.7-1.8,0.6-2.4,0
		L78.4,85.3z"/>
</g>
<g>
	<path d="M165,108.9c0,0.3-0.1,0.4-0.3,0.5c-1.7,0.8-4.4,1.2-7.6,1.2c-8,0-17.1-4.7-17.1-17.9c0-10.3,7-17.4,17.5-17.4
		c3.5,0,6.3,0.6,7.4,1.2c0.2,0.1,0.2,0.2,0.2,0.4v2.6c0,0.3-0.1,0.3-0.3,0.2c-1.3-0.8-4-1.6-7.4-1.6c-8.2,0-13.9,5.5-13.9,14.4
		c0,12,8.6,15,13.9,15c2.7,0,5.1-0.4,7.1-1.2c0.2,0,0.3,0,0.3,0.2V108.9z"/>
	<path d="M173.2,85.8c0.3,0,0.3,0.1,0.4,0.3c0.2,0.6,0.4,2.1,0.4,3.2c2-2.6,4.9-4,8.1-4c0.2,0,0.3,0,0.3,0.3v2.9
		c0,0.2-0.1,0.3-0.4,0.3c-3.2-0.2-6,1.3-7.5,3.2c-0.4,0.4-0.5,0.6-0.5,1.3v16.5c0,0.3,0,0.3-0.3,0.3h-2.9c-0.3,0-0.3-0.1-0.3-0.3
		V92.5c0-2.1-0.1-5.1-0.3-6.4c0-0.2,0-0.3,0.2-0.3H173.2z"/>
	<path d="M187.9,97.9c-0.2,5.6,2.8,9.7,8.7,9.7c2.2,0,4.4-0.3,6.3-1.4c0.2-0.1,0.3,0,0.3,0.2v2.2c0,0.3-0.1,0.4-0.2,0.4
		c-1.6,0.9-3.9,1.5-7,1.5c-8.7,0-11.7-6.3-11.7-12.5c0-7.1,4.1-12.8,11-12.8c7.2,0,9.6,5.6,9.6,9.7c0,1.1,0,1.9-0.2,2.3
		c0,0.2-0.2,0.4-0.4,0.4c-0.7,0.1-3.1,0.2-5.2,0.2H187.9z M198,95.5c2.7,0,3.3,0,3.5-0.1c0-0.2,0.1-0.7,0.1-0.9
		c0-2.3-1.3-6.5-6.4-6.5c-4.5,0-6.7,3.5-7.2,7.5H198z"/>
	<path d="M227,106c0,0.8,0,1.4,0.1,2.2c0,0,0,0.1-0.1,0.2c-3.1,1.7-6.4,2.3-9.2,2.3c-5.3,0-9.3-2.4-9.3-7.7c0-5.4,5.2-7.6,11.4-7.6
		c2,0,3.2,0.1,3.7,0.2v-1.6c0-1.8-0.7-5.7-5.7-5.7c-2.5,0-4.7,0.7-6.8,1.9c-0.1,0.1-0.3,0-0.3-0.2v-2.3c0-0.2,0-0.3,0.2-0.4
		c1.9-1.1,4.8-1.9,7.5-1.9c6.1,0,8.7,4.1,8.7,9.2V106z M223.6,97.9c-0.5,0-1.8-0.2-3.6-0.2c-5.2,0-8,1.8-8,5.1
		c0,2.5,1.7,5.1,6.5,5.1c1.8,0,3.5-0.4,5.1-1.1V97.9z"/>
	<path d="M244.1,109.4c0,0.2-0.1,0.4-0.3,0.5c-1.1,0.6-2.5,0.8-3.8,0.8c-3.5,0-5.6-1.7-5.6-6.4V88.5h-3.5c-0.3,0-0.3-0.2-0.3-0.4
		v-2.1c0-0.2,0-0.3,0.3-0.3h3.4c0.1-1.9,0.3-5.5,0.5-6.6c0-0.2,0.2-0.3,0.3-0.3l2.8-0.5c0.2-0.1,0.3,0,0.3,0.2
		c-0.2,1.8-0.4,4.7-0.4,7.2h5.6c0.2,0,0.3,0.1,0.3,0.3v2.1c0,0.3-0.1,0.3-0.3,0.3h-5.6v15.6c0,2.4,0.9,3.8,3.2,3.8
		c0.9,0,1.7-0.1,2.7-0.6c0.2,0,0.3,0,0.3,0.2V109.4z"/>
	<path d="M248.5,77.5c0-1.2,0.9-2.1,2.1-2.1c1.3,0,2.1,0.9,2.1,2.1c0,1.2-0.8,2.1-2.1,2.1C249.3,79.6,248.5,78.7,248.5,77.5z
		 M248.8,86.1c0-0.2,0.1-0.3,0.3-0.3h2.9c0.2,0,0.3,0,0.3,0.3v23.7c0,0.2,0,0.3-0.3,0.3h-2.8c-0.3,0-0.4-0.1-0.4-0.4V86.1z"/>
	<path d="M265.9,110.1c-0.2,0-0.3-0.1-0.4-0.3c-0.9-2.4-7.6-21-8.6-23.8c-0.1-0.2-0.1-0.3,0.2-0.3h3.1c0.3,0,0.3,0,0.4,0.3
		c4.6,13.3,6.6,19.1,7.1,21.2h0.1c0.7-2.1,2.6-7.7,7.4-21.2c0.1-0.2,0.2-0.3,0.4-0.3h2.8c0.2,0,0.3,0.1,0.3,0.4
		c-1.3,3.4-8,21.3-8.9,23.7c-0.1,0.2-0.2,0.3-0.4,0.3H265.9z"/>
	<path d="M284.8,97.9c-0.2,5.6,2.8,9.7,8.7,9.7c2.2,0,4.4-0.3,6.3-1.4c0.2-0.1,0.3,0,0.3,0.2v2.2c0,0.3-0.1,0.4-0.2,0.4
		c-1.6,0.9-3.9,1.5-7,1.5c-8.7,0-11.7-6.3-11.7-12.5c0-7.1,4.1-12.8,11-12.8c7.2,0,9.6,5.6,9.6,9.7c0,1.1,0,1.9-0.2,2.3
		c0,0.2-0.2,0.4-0.4,0.4c-0.7,0.1-3.1,0.2-5.2,0.2H284.8z M294.9,95.5c2.7,0,3.3,0,3.5-0.1c0-0.2,0.1-0.7,0.1-0.9
		c0-2.3-1.3-6.5-6.4-6.5c-4.5,0-6.7,3.5-7.2,7.5H294.9z"/>
	<path d="M342.4,108.9c0,0.3-0.1,0.4-0.3,0.5c-1.7,0.8-4.4,1.2-7.6,1.2c-8,0-17.1-4.7-17.1-17.9c0-10.3,7-17.4,17.5-17.4
		c3.5,0,6.3,0.6,7.4,1.2c0.2,0.1,0.2,0.2,0.2,0.4v2.6c0,0.3-0.1,0.3-0.3,0.2c-1.3-0.8-4-1.6-7.4-1.6c-8.2,0-13.9,5.5-13.9,14.4
		c0,12,8.6,15,13.9,15c2.7,0,5.1-0.4,7.1-1.2c0.2,0,0.3,0,0.3,0.2V108.9z"/>
	<path d="M347.8,73.2c0-0.3,0.2-0.3,0.4-0.3h2.9c0.2,0,0.3,0.1,0.3,0.3v32.2c0,2.1,0.8,2.4,1.8,2.4c0.3,0,0.8,0,1.3-0.2
		c0.2-0.1,0.2,0,0.2,0.3v1.9c0,0.3,0,0.3-0.3,0.4c-0.4,0.2-1.4,0.4-2.4,0.4c-2.1,0-4.2-0.8-4.2-5.1V73.2z"/>
	<path d="M380.6,97.9c0,7.7-4.8,12.7-11.6,12.7c-8.1,0-11.7-6.5-11.7-12.7c0-7.2,4.8-12.6,11.7-12.6C376,85.3,380.6,90.4,380.6,97.9
		z M360.9,97.8c0,5.5,3,10,8.3,10c3.8,0,7.9-2.8,7.9-9.8c0-5.2-2.4-9.9-8.2-9.9C364.1,88.1,360.9,92,360.9,97.8z"/>
	<path d="M404.8,104.8c0,2.7,0.2,4,0.3,5c0,0.3,0,0.3-0.3,0.3h-2.7c-0.2,0-0.3,0-0.3-0.3c-0.2-0.6-0.3-1.5-0.3-2.3
		c-2.1,2.2-4.7,3-7.5,3c-4,0-8.4-1.8-8.4-9.4V86.1c0-0.3,0.1-0.3,0.3-0.3h2.9c0.3,0,0.3,0.1,0.3,0.3v14.8c0,4.3,2,6.8,5.7,6.8
		c2.7,0,4.8-1,6.4-3V86.1c0-0.2,0.1-0.3,0.3-0.3h2.9c0.3,0,0.3,0.1,0.3,0.3V104.8z"/>
	<path d="M410.2,98.1c0-7.6,5.4-12.8,13.3-12.8c2.1,0,3.2,0.2,4.4,0.5V73.2c0-0.2,0-0.3,0.3-0.3h2.9c0.3,0,0.3,0.1,0.3,0.3V106
		c0,0.8,0,1.6,0.1,2.1c0,0.2,0,0.3-0.3,0.4c-2.6,1.5-5.8,2.2-8.8,2.2C415.6,110.6,410.2,106.4,410.2,98.1z M428,88.9
		c-1-0.5-2.5-0.9-4.5-0.9c-6.3,0-9.7,4.4-9.7,10c0,7.1,4.8,9.8,9.1,9.8c1.8,0,3.8-0.3,5.1-1V88.9z"/>
</g>
</svg>
