<?xml version="1.0" encoding="utf-8"?>
<!-- Generator: Adobe Illustrator 23.0.4, SVG Export Plug-In . SVG Version: 6.00 Build 0)  -->
<svg version="1.1" id="Layer_1" xmlns="http://www.w3.org/2000/svg" xmlns:xlink="http://www.w3.org/1999/xlink" x="0px" y="0px"
	 viewBox="0 0 485 182" style="enable-background:new 0 0 485 182;" xml:space="preserve">
<style type="text/css">
	.st0{fill-rule:evenodd;clip-rule:evenodd;fill:#ECB360;}
	.st1{fill-rule:evenodd;clip-rule:evenodd;fill:#D76835;}
	.st2{fill-rule:evenodd;clip-rule:evenodd;fill:#D33A41;}
	.st3{fill-rule:evenodd;clip-rule:evenodd;fill:#B6CB46;}
	.st4{fill-rule:evenodd;clip-rule:evenodd;fill:#66AD4A;}
	.st5{fill-rule:evenodd;clip-rule:evenodd;fill:#AED7DC;}
	.st6{fill-rule:evenodd;clip-rule:evenodd;fill:#5BB1CF;}
	.st7{fill-rule:evenodd;clip-rule:evenodd;fill:#25A8C3;}
	.st8{fill:none;}
	.st9{fill-rule:evenodd;clip-rule:evenodd;fill:#1B1A18;}
	.st10{fill-rule:evenodd;clip-rule:evenodd;fill:#FFFFFE;}
</style>
<title>Browserstack-logo-black</title>
<desc>Created with Sketch.</desc>
<g id="Final">
	<g transform="translate(-40.000000, -16.000000)">
		<g id="Browserstack-logo-black" transform="translate(40.000000, 16.000000)">
			<g>
				<g id="Group-2">
					<path id="Fill-1" class="st0" d="M115.6,90.5c0,18.5-15,33.5-33.5,33.5c-18.5,0-33.5-15-33.5-33.5C48.6,72,63.6,57,82.1,57
						C100.6,57,115.6,72,115.6,90.5"/>
					<path id="Fill-2" class="st1" d="M106.7,87.2c0,16.7-13,30.2-29.1,30.2c-16,0-29.1-13.5-29.1-30.2S61.6,57,77.6,57
						C93.7,57,106.7,70.5,106.7,87.2"/>
					<path id="Fill-3" class="st2" d="M108.9,83.8c0,14.8-11.5,26.8-25.7,26.8c-14.2,0-25.7-12-25.7-26.8C57.5,69,69,57,83.2,57
						C97.4,57,108.9,69,108.9,83.8"/>
					<path id="Fill-4" class="st3" d="M106.7,86c0,13.6-10.5,24.6-23.5,24.6S59.7,99.6,59.7,86c0-13.6,10.5-24.6,23.5-24.6
						S106.7,72.5,106.7,86"/>
					<path id="Fill-5" class="st4" d="M104.4,88.3c0,12.3-10,22.3-22.3,22.3c-12.3,0-22.3-10-22.3-22.3s10-22.3,22.3-22.3
						C94.4,65.9,104.4,75.9,104.4,88.3"/>
					<path id="Fill-6" class="st5" d="M95.5,83.8c0,9.9-8,17.9-17.9,17.9c-9.9,0-17.9-8-17.9-17.9s8-17.9,17.9-17.9
						C87.5,65.9,95.5,73.9,95.5,83.8"/>
					<path id="Fill-7" class="st6" d="M97.7,81.6c0,8.6-7,15.6-15.6,15.6s-15.6-7-15.6-15.6c0-8.6,7-15.6,15.6-15.6
						S97.7,72.9,97.7,81.6"/>
					<path id="Fill-8" class="st7" d="M97.7,82.7c0,8-6,14.5-13.4,14.5c-7.4,0-13.4-6.5-13.4-14.5c0-8,6-14.5,13.4-14.5
						C91.7,68.2,97.7,74.7,97.7,82.7"/>
					<path id="Fill-9" class="st8" d="M93.3,84.9c0,6.8-5,12.3-11.2,12.3c-6.2,0-11.2-5.5-11.2-12.3c0-6.8,5-12.3,11.2-12.3
						C88.3,72.6,93.3,78.1,93.3,84.9"/>
					<path id="Fill-11" class="st9" d="M82.1,97.2c-6.2,0-11.2-5.5-11.2-12.3c0-6.8,5-12.3,11.2-12.3c6.2,0,11.2,5.5,11.2,12.3
						C93.3,91.7,88.3,97.2,82.1,97.2z"/>
					<path id="Fill-12" class="st10" d="M88.2,81.4c-1.1,1.8-3.2,2.8-4.7,2.3c-1.5-0.5-1.9-2.4-0.8-4.1c1.1-1.8,3.2-2.8,4.7-2.3
						C88.9,77.7,89.3,79.6,88.2,81.4"/>
				</g>
				<g id="Group-26" transform="translate(40.344828, 7.241379)">
					<path id="Fill-23" class="st9" d="M348.9,95.8c-0.5-1.5-0.8-3.4-0.8-5.9s0.3-4.4,0.8-5.9c1.5-4.3,5.4-6.6,10.6-6.6
						c3.8,0,6.9,1.4,8.9,3.7c0.2,0.2,0.2,0.5-0.1,0.7l-3.4,2.7c-0.3,0.2-0.5,0.2-0.7-0.1c-1.3-1.3-2.6-2.1-4.8-2.1
						c-2.3,0-4.1,1-4.8,3.1c-0.4,1.2-0.5,2.6-0.5,4.4c0,1.8,0.1,3.3,0.5,4.5c0.7,2,2.5,3.1,4.8,3.1c2.1,0,3.5-0.7,4.8-2.1
						c0.2-0.3,0.5-0.3,0.7-0.1l3.4,2.7c0.3,0.2,0.2,0.5,0.1,0.7c-2,2.2-5.1,3.7-8.9,3.7C354.3,102.5,350.4,100.1,348.9,95.8"/>
					<path id="Fill-25" class="st9" d="M389.3,101.9c-0.4,0-0.6-0.1-0.9-0.5l-6.5-10.1l-3.5,3.7v6.3c0,0.3-0.2,0.5-0.5,0.5H373
						c-0.3,0-0.5-0.2-0.5-0.5v-33c0-0.3,0.2-0.5,0.5-0.5h4.9c0.3,0,0.5,0.2,0.5,0.5V88l8.8-9.7c0.3-0.4,0.6-0.5,1-0.5h5.4
						c0.3,0,0.4,0.3,0.2,0.5l-8.2,8.8l9.4,14.3c0.2,0.2,0.1,0.5-0.3,0.5H389.3"/>
					<path id="Fill-13" class="st9" d="M102.8,96.7h7.6c3.5,0,5.5-1.9,5.5-4.7c0-2.8-2-4.7-5.5-4.7h-7.6c-0.2,0-0.3,0.1-0.3,0.3v8.8
						C102.5,96.6,102.6,96.7,102.8,96.7z M110.1,82.1c3.2,0,5.2-1.8,5.2-4.4c0-2.7-2-4.5-5.2-4.5h-7.3c-0.2,0-0.3,0.1-0.3,0.3v8.3
						c0,0.2,0.1,0.3,0.3,0.3H110.1z M96.2,68.5c0-0.3,0.2-0.5,0.5-0.5h13.5c7.7,0,11.3,3.6,11.3,9c0,3.8-1.9,6-4.2,7.2v0.1
						c2.2,0.8,4.9,3.5,4.9,7.6c0,6.7-4.5,10-12.5,10h-13c-0.3,0-0.5-0.2-0.5-0.5V68.5z"/>
					<path id="Fill-14" class="st9" d="M126.7,101.9c-0.3,0-0.5-0.2-0.5-0.5V78.4c0-0.3,0.2-0.5,0.5-0.5h4.9c0.3,0,0.5,0.2,0.5,0.5
						v2h0.1c1.2-1.8,3.4-3.1,6.7-3.1c2,0,4.1,0.7,5.4,2c0.3,0.2,0.3,0.5,0.1,0.7l-2.8,3.3c-0.2,0.2-0.5,0.3-0.7,0.1
						c-1.2-0.7-2.4-1.1-3.8-1.1c-3.4,0-4.9,2.2-4.9,6.1v13c0,0.3-0.2,0.5-0.5,0.5H126.7"/>
					<path id="Fill-15" class="st9" d="M160.8,94.3c0.4-1.2,0.5-2.4,0.5-4.4c0-2-0.1-3.1-0.5-4.4c-0.7-2-2.4-3.1-4.8-3.1
						s-4.1,1.1-4.9,3.1c-0.4,1.3-0.5,2.4-0.5,4.4c0,2,0.1,3.2,0.5,4.4c0.7,2,2.5,3.1,4.9,3.1S160,96.3,160.8,94.3z M145.3,95.8
						c-0.6-1.7-0.9-3.3-0.9-5.9c0-2.6,0.3-4.2,0.9-5.9c1.4-4.2,5.4-6.6,10.6-6.6c5.2,0,9.1,2.4,10.6,6.6c0.6,1.7,0.9,3.3,0.9,5.9
						c0,2.6-0.3,4.2-0.9,5.9c-1.4,4.2-5.4,6.6-10.6,6.6C150.7,102.5,146.8,100,145.3,95.8z"/>
					<path id="Fill-16" class="st9" d="M193.3,101.9c-0.3,0-0.5-0.2-0.6-0.5l-5-15.4h-0.1l-5,15.4c-0.1,0.3-0.3,0.5-0.6,0.5h-4.4
						c-0.3,0-0.5-0.2-0.6-0.5l-8.1-23.1c-0.1-0.3,0.1-0.5,0.4-0.5h5.1c0.4,0,0.6,0.1,0.7,0.5l5,15.9h0.1l4.9-15.9
						c0.1-0.3,0.4-0.5,0.7-0.5h3.8c0.3,0,0.6,0.2,0.7,0.5l5.2,15.9h0.1l4.7-15.9c0.1-0.4,0.3-0.5,0.7-0.5h5.1c0.3,0,0.5,0.2,0.4,0.5
						l-8.1,23.1c-0.1,0.3-0.3,0.5-0.6,0.5H193.3"/>
					<path id="Fill-17" class="st9" d="M207.5,98.7c-0.2-0.2-0.2-0.5,0-0.7l3-3c0.2-0.2,0.5-0.2,0.7,0c1.9,1.6,4.9,2.7,7.5,2.7
						c3.2,0,4.8-1.2,4.8-2.8c0-1.4-0.9-2.3-4.3-2.6l-2.8-0.2c-5.2-0.5-7.9-3-7.9-7.1c0-4.6,3.6-7.6,10-7.6c4,0,7.4,1.2,9.7,2.9
						c0.3,0.2,0.3,0.5,0.1,0.7l-2.6,2.9c-0.2,0.2-0.5,0.2-0.7,0.1c-1.6-1-4.2-2-6.7-2s-3.9,1-3.9,2.5c0,1.4,0.9,2.2,4.2,2.5l2.8,0.3
						c5.4,0.5,8,3.1,8,7c0,4.8-3.7,8.1-10.8,8.1C213.3,102.5,209.6,100.5,207.5,98.7"/>
					<path id="Fill-18" class="st9" d="M249,85.1c-0.7-1.9-2.6-3.1-5-3.1c-2.5,0-4.4,1.1-5.1,3.1c-0.2,0.6-0.3,1.2-0.3,2
						c0,0.2,0.1,0.3,0.3,0.3H249c0.2,0,0.3-0.1,0.3-0.3C249.3,86.3,249.2,85.7,249,85.1z M233.4,95.8c-0.5-1.5-0.9-3.4-0.9-5.9
						c0-2.5,0.3-4.4,0.9-5.9c1.4-4.2,5.4-6.6,10.5-6.6c5.3,0,9.1,2.5,10.6,6.6c0.6,1.7,0.9,3.3,0.9,7.2c0,0.3-0.2,0.5-0.6,0.5h-15.9
						c-0.2,0-0.3,0.1-0.3,0.3c0,0.7,0.2,1.3,0.4,1.8c0.9,2.3,2.9,3.6,5.8,3.6c2.9,0,4.8-1,6-2.3c0.3-0.3,0.5-0.3,0.8-0.1l3.2,2.6
						c0.3,0.2,0.3,0.5,0.1,0.7c-2.2,2.4-5.8,4.1-10.6,4.1C238.7,102.5,234.9,100,233.4,95.8z"/>
					<path id="Fill-19" class="st9" d="M259.8,101.9c-0.3,0-0.5-0.2-0.5-0.5V78.4c0-0.3,0.2-0.5,0.5-0.5h4.9c0.3,0,0.5,0.2,0.5,0.5
						v2h0.1c1.2-1.8,3.4-3.1,6.7-3.1c2,0,4.1,0.7,5.4,2c0.3,0.2,0.3,0.5,0.1,0.7l-2.8,3.3c-0.2,0.2-0.5,0.3-0.7,0.1
						c-1.2-0.7-2.4-1.1-3.8-1.1c-3.4,0-4.9,2.2-4.9,6.1v13c0,0.3-0.2,0.5-0.5,0.5H259.8"/>
					<path id="Fill-20" class="st9" d="M278.4,98c-0.2-0.2-0.3-0.5-0.1-0.8l3.3-3.6c0.2-0.2,0.5-0.2,0.7,0c2.4,1.7,5.8,3.6,9.9,3.6
						c4.3,0,6.8-2,6.8-4.9c0-2.4-1.6-4-6.6-4.7l-1.9-0.3c-7-0.9-11-4-11-9.7c0-6.1,4.8-10.2,12.3-10.2c4.5,0,8.9,1.3,11.8,3.4
						c0.3,0.2,0.3,0.4,0.1,0.7l-2.6,3.7c-0.2,0.3-0.5,0.3-0.7,0.2c-2.9-1.8-5.7-2.6-8.7-2.6c-3.7,0-5.7,1.9-5.7,4.5
						c0,2.3,1.8,3.9,6.7,4.6l1.9,0.3c7,0.9,10.8,4,10.8,9.8c0,6-4.6,10.5-13.7,10.5C286.4,102.5,281.2,100.5,278.4,98"/>
					<path id="Fill-21" class="st9" d="M316.5,102.4c-5.2,0-7.2-2.3-7.2-7V82.6c0-0.2-0.1-0.3-0.3-0.3h-1.7c-0.3,0-0.5-0.2-0.5-0.5
						v-3.3c0-0.3,0.2-0.5,0.5-0.5h1.7c0.2,0,0.3-0.1,0.3-0.3v-6.6c0-0.3,0.2-0.5,0.5-0.5h4.9c0.3,0,0.5,0.2,0.5,0.5v6.6
						c0,0.2,0.1,0.3,0.3,0.3h3.4c0.3,0,0.5,0.2,0.5,0.5v3.3c0,0.3-0.2,0.5-0.5,0.5h-3.4c-0.2,0-0.3,0.1-0.3,0.3v12.5
						c0,1.7,0.7,2.2,2.4,2.2h1.3c0.3,0,0.5,0.2,0.5,0.5v4c0,0.3-0.2,0.5-0.5,0.5H316.5"/>
					<path id="Fill-22" class="st9" d="M338.5,93.8V92c0-0.2-0.1-0.3-0.3-0.3h-4.3c-3.8,0-5.6,1-5.6,3.2c0,2,1.5,3,4.4,3
						C336.5,97.9,338.5,96.6,338.5,93.8z M339.1,101.9c-0.3,0-0.5-0.2-0.5-0.5v-1.7h-0.1c-1.2,1.6-3.6,2.8-7.3,2.8
						c-4.7,0-8.7-2.3-8.7-7.3c0-5.2,4-7.6,10.3-7.6h5.2c0.2,0,0.3-0.1,0.3-0.3V86c0-2.7-1.4-4-5.7-4c-2.9,0-4.6,0.7-5.9,1.6
						c-0.3,0.2-0.6,0.1-0.7-0.1l-2-3.3c-0.2-0.3-0.1-0.5,0.1-0.6c2.1-1.4,4.9-2.3,9.1-2.3c7.9,0,10.7,2.5,10.7,8.4v15.7
						c0,0.3-0.2,0.5-0.5,0.5H339.1z"/>
				</g>
			</g>
		</g>
	</g>
</g>
</svg>
