<?xml version="1.0" encoding="utf-8"?>
<!-- Generator: Adobe Illustrator 23.0.4, SVG Export Plug-In . SVG Version: 6.00 Build 0)  -->
<svg version="1.1" id="layer" xmlns="http://www.w3.org/2000/svg" xmlns:xlink="http://www.w3.org/1999/xlink" x="0px" y="0px"
	 viewBox="0 0 485 182" style="enable-background:new 0 0 485 182;" xml:space="preserve">
<style type="text/css">
	.st0{fill:#0091E2;}
</style>
<path class="st0" d="M227.5,69.4c-1.8-0.1-3.2,1.3-3.3,3c0,0.1,0,0.2,0,0.2v15.7c-7.6-6.1-18.7-4.9-24.8,2.7
	c-2.5,3.2-3.9,7-3.9,11.1c-0.2,9.7,7.6,17.7,17.3,17.9c9.7,0.2,17.7-7.6,17.9-17.3c0-0.2,0-0.4,0-0.6V72.7c0-0.9-0.3-1.7-0.9-2.3
	C229.2,69.8,228.4,69.4,227.5,69.4 M223.4,106.4c-1.1,2.7-3.2,4.8-5.9,5.9c-2.8,1.2-5.9,1.2-8.6,0c-2.7-1.1-4.7-3.3-5.8-5.9
	c-1.2-2.7-1.2-5.8,0-8.6c1.1-2.7,3.2-4.8,5.8-5.9c2.8-1.2,5.9-1.2,8.6,0c2.7,1.2,4.8,3.3,5.9,5.9
	C224.5,100.6,224.5,103.7,223.4,106.4"/>
<path class="st0" d="M264.3,89.7c-6.9-6.9-18-6.9-24.9,0c-3.3,3.3-5.1,7.8-5.1,12.4c-0.2,9.7,7.6,17.7,17.3,17.9
	c9.7,0.2,17.7-7.6,17.9-17.3c0-0.2,0-0.4,0-0.6c0-2.3-0.4-4.6-1.3-6.7C267.2,93.2,265.9,91.3,264.3,89.7 M262,106.3
	c-0.6,1.3-1.4,2.5-2.4,3.5s-2.2,1.8-3.5,2.4c-2.8,1.2-5.9,1.2-8.6,0c-2.7-1.1-4.8-3.3-5.9-5.9c-1.2-2.7-1.2-5.8,0-8.6
	c1.1-2.7,3.2-4.7,5.9-5.9c2.8-1.2,5.9-1.2,8.6,0c1.3,0.6,2.5,1.4,3.5,2.4s1.8,2.2,2.4,3.5C263.2,100.6,263.2,103.7,262,106.3"/>
<path class="st0" d="M337,87.8c0-0.4-0.1-0.9-0.3-1.3c-0.2-0.4-0.4-0.7-0.7-1.1c-0.3-0.3-0.7-0.6-1.1-0.7c-0.4-0.2-0.8-0.3-1.3-0.3
	c-0.6,0-1.2,0.2-1.8,0.5l-18.8,12.2V72.7c0-0.9-0.3-1.7-0.9-2.3c-0.6-0.6-1.4-1-2.3-1c-1.8,0-3.3,1.4-3.3,3.3c0,0,0,0,0,0.1v43.7
	c0,0.9,0.3,1.7,0.9,2.3c0.6,0.7,1.4,1,2.3,1c0.9,0,1.7-0.3,2.3-1c0.6-0.6,1-1.4,0.9-2.3v-11.3l3.8-2.5l14.5,16.3
	c0.6,0.6,1.4,0.9,2.2,0.8c0.4,0,0.9-0.1,1.3-0.3c0.4-0.2,0.7-0.4,1.1-0.7c0.3-0.3,0.6-0.7,0.7-1.1c0.2-0.4,0.3-0.8,0.3-1.3
	c0-0.8-0.3-1.7-0.9-2.3l-13.5-15.2l13.2-8.6C336.7,89.8,337.1,88.8,337,87.8"/>
<path class="st0" d="M282.5,94.3c1-1,2.2-1.8,3.5-2.4c1.4-0.6,2.8-0.9,4.3-0.9c1.3,0,2.6,0.2,3.8,0.7c1.2,0.5,2.4,1.2,3.4,2
	c0.6,0.5,1.4,0.7,2.2,0.7c0.9,0.1,1.8-0.3,2.4-0.9c0.6-0.6,0.9-1.5,0.9-2.4c0-0.9-0.4-1.9-1.2-2.5c-3.2-2.8-7.2-4.4-11.5-4.3
	c-9.7,0-17.6,7.9-17.6,17.6s7.8,17.6,17.5,17.6c4.3,0,8.3-1.5,11.6-4.3c0.7-0.6,1.1-1.5,1.1-2.4c0.1-1.8-1.3-3.2-3-3.3
	c-0.1,0-0.2,0-0.2,0c-0.8,0-1.5,0.2-2.1,0.7c-1,0.9-2.1,1.5-3.3,2c-1.2,0.4-2.5,0.7-3.8,0.7c-1.5,0-2.9-0.3-4.3-0.9
	c-1.3-0.6-2.5-1.4-3.5-2.4C278.2,105.5,278.2,98.6,282.5,94.3C282.5,94.4,282.5,94.4,282.5,94.3"/>
<path class="st0" d="M402.3,86.7c-0.7-0.6-1.4-1.1-2.2-1.3c-0.9-0.3-1.9-0.6-2.9-0.7s-2-0.2-3-0.2c-2,0-4,0.3-5.9,1.1
	c-1.9,0.7-3.6,1.7-5.1,2.9v-0.7c-0.1-1.8-1.6-3.2-3.4-3.2c-1.7,0.1-3.1,1.4-3.2,3.2v28.7c0.1,1.8,1.6,3.2,3.4,3.2
	c1.7-0.1,3.1-1.4,3.2-3.2v-14.3c0-1.5,0.3-2.9,0.9-4.3c0.6-1.3,1.3-2.5,2.4-3.5c1-1,2.2-1.8,3.5-2.4c1.4-0.6,2.8-0.9,4.3-0.9
	s2.9,0.3,4.3,0.8c0.4,0.2,0.9,0.3,1.4,0.3c0.4,0,0.9-0.1,1.3-0.3c0.4-0.2,0.7-0.4,1.1-0.7c0.3-0.3,0.6-0.7,0.7-1.1
	c0.2-0.4,0.3-0.8,0.3-1.3C403.3,88.1,402.9,87.3,402.3,86.7"/>
<path class="st0" d="M371.8,95.4c-2.8-6.5-9.2-10.8-16.3-10.8c-9.7,0-17.6,7.8-17.6,17.6l0,0c0,9.7,7.9,17.6,17.6,17.6
	c4.2,0,8.3-1.5,11.5-4.3c0.1-0.1,0.1-0.1,0.1-0.1c0.3-0.2,0.6-0.5,0.7-0.8c1.1-1.5,0.7-3.6-0.8-4.6c-1.3-0.8-2.9-0.7-4,0.4
	c-0.1,0.1-0.4,0.4-0.4,0.4l-0.1,0.1c-0.9,0.8-2,1.4-3.2,1.8c-1.2,0.4-2.5,0.7-3.8,0.6c-1.2,0-2.4-0.2-3.5-0.6
	c-1.1-0.4-2.2-0.9-3.1-1.6c-0.9-0.7-1.8-1.5-2.4-2.4c-0.7-0.9-1.2-2-1.5-3.2h24.9c0.9,0,1.7-0.3,2.3-0.9c0.7-0.6,1-1.4,0.9-2.3
	C373.1,99.9,372.6,97.6,371.8,95.4 M344.9,98.9c0.3-1.2,0.8-2.2,1.5-3.2c0.7-0.9,1.5-1.8,2.4-2.4c0.9-0.7,2-1.2,3.1-1.6
	c1.1-0.4,2.3-0.6,3.5-0.6s2.4,0.2,3.5,0.6c2.2,0.7,4.1,2.2,5.5,4c0.7,0.9,1.2,2,1.6,3.2H344.9z"/>
<path class="st0" d="M391.1,115c-1.3,0-2.3,1.1-2.3,2.3c0,1.3,1.1,2.3,2.3,2.3c1.3,0,2.3-1.1,2.3-2.3C393.4,116,392.4,115,391.1,115
	L391.1,115 M391.1,119.1c-1,0.1-1.8-0.7-1.9-1.7c-0.1-1,0.7-1.8,1.7-1.9c1-0.1,1.8,0.7,1.9,1.7c0,0.1,0,0.1,0,0.1
	C392.9,118.2,392.1,119.1,391.1,119.1C391.2,119.1,391.2,119.1,391.1,119.1"/>
<path class="st0" d="M391.7,117.3L391.7,117.3c0.3-0.1,0.4-0.3,0.4-0.6c0-0.2-0.1-0.4-0.2-0.5c-0.2-0.1-0.5-0.2-0.8-0.2
	s-0.6,0-0.9,0.1v2.3h0.5v-0.9h0.2c0.3,0,0.4,0.1,0.5,0.3c0.1,0.2,0.1,0.4,0.2,0.6h0.6c-0.1-0.2-0.2-0.4-0.2-0.6
	C392,117.6,391.9,117.4,391.7,117.3 M391,117.1h-0.3v-0.7c0.1,0,0.2,0,0.3,0c0.3,0,0.5,0.2,0.5,0.3C391.5,117,391.3,117.2,391,117.1
	"/>
<path class="st0" d="M189.6,76.8c-0.3-0.3-3.3-2.5-9.7-2.5c-1.7,0-3.4,0.2-5,0.4c-1.2-8.5-8.2-12.5-8.5-12.8l-1.7-1l-1.1,1.6
	c-1.4,2.2-2.4,4.6-3,7.1c-1.2,4.8-0.4,9.3,2,13.2c-2.9,1.7-7.7,2-8.7,2.1H75.3c-2,0-3.7,1.7-3.7,3.7c-0.1,6.9,1.1,13.7,3.4,20.2
	c2.7,7.1,6.7,12.3,11.9,15.5c5.9,3.6,15.4,5.6,26.2,5.6c4.9,0,9.7-0.4,14.5-1.3c6.7-1.2,13.1-3.5,19-6.9c4.9-2.8,9.2-6.4,12.9-10.6
	c6.2-7,9.9-14.9,12.7-21.8c0.4,0,0.7,0,1.1,0c6.8,0,11-2.7,13.3-5c1.5-1.4,2.7-3.2,3.5-5.2l0.5-1.4L189.6,76.8z"/>
<path class="st0" d="M82.6,82.7h10.5c0.5,0,0.9-0.4,0.9-0.9l0,0v-9.4c0-0.5-0.4-0.9-0.9-0.9l0,0H82.6c-0.5,0-0.9,0.4-0.9,0.9l0,0
	v9.4C81.7,82.3,82.1,82.7,82.6,82.7L82.6,82.7"/>
<path class="st0" d="M97.1,82.7h10.5c0.5,0,0.9-0.4,0.9-0.9l0,0v-9.4c0-0.5-0.4-0.9-0.9-0.9l0,0H97.1c-0.5,0-0.9,0.4-0.9,0.9v9.4
	C96.2,82.3,96.6,82.7,97.1,82.7"/>
<path class="st0" d="M111.8,82.7h10.5c0.5,0,0.9-0.4,0.9-0.9l0,0v-9.4c0-0.5-0.4-0.9-0.9-0.9l0,0h-10.5c-0.5,0-0.9,0.4-0.9,0.9l0,0
	v9.4C110.9,82.3,111.3,82.7,111.8,82.7L111.8,82.7"/>
<path class="st0" d="M126.4,82.7h10.5c0.5,0,0.9-0.4,0.9-0.9v-9.4c0-0.5-0.4-0.9-0.9-0.9l0,0h-10.5c-0.5,0-0.9,0.4-0.9,0.9l0,0v9.4
	C125.4,82.3,125.9,82.7,126.4,82.7L126.4,82.7"/>
<path class="st0" d="M97.1,69.3h10.5c0.5,0,0.9-0.4,0.9-0.9v-9.4c0-0.5-0.4-0.9-0.9-0.9l0,0H97.1c-0.5,0-0.9,0.4-0.9,0.9v9.4
	C96.2,68.8,96.6,69.3,97.1,69.3"/>
<path class="st0" d="M111.8,69.3h10.5c0.5,0,0.9-0.4,0.9-0.9v-9.4c0-0.5-0.4-0.9-0.9-0.9l0,0h-10.5c-0.5,0-0.9,0.4-0.9,0.9l0,0v9.4
	C110.9,68.8,111.3,69.3,111.8,69.3"/>
<path class="st0" d="M126.4,69.3h10.5c0.5,0,0.9-0.4,0.9-0.9v-9.4c0-0.5-0.4-0.9-0.9-0.9h-10.5c-0.5,0-0.9,0.4-0.9,0.9l0,0v9.4
	C125.4,68.8,125.9,69.3,126.4,69.3"/>
<path class="st0" d="M126.4,55.8h10.5c0.5,0,0.9-0.4,0.9-0.9v-9.4c0-0.5-0.4-0.9-0.9-0.9h-10.5c-0.5,0-0.9,0.4-0.9,0.9l0,0v9.4
	C125.4,55.3,125.9,55.8,126.4,55.8"/>
<path class="st0" d="M141,82.7h10.5c0.5,0,0.9-0.4,0.9-0.9v-9.4c0-0.5-0.4-0.9-0.9-0.9l0,0H141c-0.5,0-0.9,0.4-0.9,0.9l0,0v9.4
	C140.1,82.3,140.5,82.7,141,82.7"/>
</svg>
