<?xml version="1.0" encoding="utf-8"?>
<!-- Generator: Adobe Illustrator 23.0.4, SVG Export Plug-In . SVG Version: 6.00 Build 0)  -->
<svg version="1.1" id="Layer_1" xmlns="http://www.w3.org/2000/svg" xmlns:xlink="http://www.w3.org/1999/xlink" x="0px" y="0px"
	 viewBox="0 0 485 182" style="enable-background:new 0 0 485 182;" xml:space="preserve">
<style type="text/css">
	.st0{fill:#353535;}
	.st1{fill:#1496FF;}
	.st2{fill:#1284EA;}
	.st3{fill:#B4DC00;}
	.st4{fill:#6F2DA8;}
	.st5{fill:#591F91;}
	.st6{fill:#73BE28;}
</style>
<g id="Variants">
	<path class="st0" d="M318.5,76.5h-7.9c-2.1,0-3.7,0.5-4.7,1.4s-1.4,2.6-1.4,4.7v27.1h-4.7V82.1c0-2.1,0.5-4.4,1.4-6.1
		c2.1-3,6.1-3.7,8.9-3.7h8.4V76.5z M288.2,105.5c-2.1,0-3.7-0.5-4.7-1.4s-1.4-2.3-1.4-4.4V76.5h9.8v-4.2h-9.8V61.1h-4.7v38.5
		c0,2.1,0.5,4.4,1.4,6.1c2.1,3.3,5.8,3.7,8.6,3.7h8.6v-4.2C296.1,105.5,288.2,105.5,288.2,105.5z M165.5,61.1v11.2h-9.8
		c-6.1,0-9.6,1.9-11.9,4c-3.5,3.3-3.5,8.2-3.5,8.6v11.9c0,0.5,0,5.4,3.5,8.6c2.1,2.1,5.8,4,11.9,4h4.4c2.8,0,6.8-0.7,8.6-3.7
		c1.2-1.6,1.4-4,1.4-6.1V61.1H165.5z M164.1,104.1c-0.9,0.9-2.6,1.4-4.7,1.4h-4.2c-4,0-6.3-1.2-7.7-2.6c-1.6-1.6-2.3-4-2.3-5.6V84.9
		c0-1.6,0.7-4,2.3-5.6c1.4-1.4,4-2.6,7.7-2.6h10.3v22.9C165.5,101.7,165,103.1,164.1,104.1z M360.9,79.1c1.4-1.4,4-2.6,7.7-2.6h11.2
		v-4.2h-10.7c-6.1,0-9.6,1.9-11.9,4c-3.5,3.3-3.5,8.2-3.5,8.6v11.9c0,0.5,0,5.4,3.5,8.6c2.1,2.1,5.8,4,11.9,4h10.7v-4.2h-11.2
		c-4,0-6.3-1.2-7.7-2.6c-1.6-1.6-2.3-4-2.3-5.6V84.7C358.6,83.1,359.1,80.7,360.9,79.1z M272.5,84.9c0-0.5,0-5.4-3.5-8.6
		c-2.1-2.1-5.6-4-11.7-4h-10.5v4.2h11c4,0,6.3,1.2,7.7,2.6c1.6,1.6,2.3,4,2.3,5.6v3.7h-14.9c-2.8,0-6.8,0.7-8.6,3.7
		c-1.2,1.6-1.4,4-1.4,6.1v1.4c0,2.1,0.5,4.4,1.4,6.1c2.1,3.3,5.8,3.7,8.6,3.7h9.6c2.8,0,6.8-0.7,8.6-3.7c1.2-1.6,1.4-4,1.4-6.1
		C272.5,99.6,272.5,84.9,272.5,84.9z M266.5,104.1c-0.9,0.9-2.6,1.4-4.7,1.4h-8.2c-2.1,0-3.7-0.5-4.7-1.4s-1.4-2.3-1.4-4.4v-0.9
		c0-2.1,0.5-3.7,1.4-4.4s2.6-1.4,4.7-1.4h14.2v7C267.9,101.7,267.4,103.1,266.5,104.1z M350.2,84.9c0-0.5,0-5.4-3.5-8.6
		c-2.1-2.1-5.8-4-11.9-4h-10.5v4.2h11c4,0,6.3,1.2,7.7,2.6c1.6,1.6,2.3,4,2.3,5.6v3.7h-14.9c-2.8,0-6.8,0.7-8.6,3.7
		c-1.2,1.6-1.4,4-1.4,6.1v1.4c0,2.1,0.5,4.4,1.4,6.1c2.1,3.3,5.8,3.7,8.6,3.7h9.6c2.8,0,6.8-0.7,8.6-3.7c1.2-1.6,1.4-4,1.4-6.1
		C350.2,99.9,350.2,87.5,350.2,84.9z M343.9,104.1c-0.9,0.9-2.6,1.4-4.7,1.4h-8.2c-2.1,0-3.7-0.5-4.7-1.4s-1.4-2.3-1.4-4.4v-0.9
		c0-2.1,0.5-3.7,1.4-4.4c0.9-0.9,2.6-1.4,4.7-1.4h14.2v7C345.3,101.7,344.8,103.1,343.9,104.1z M207.4,72.3h-4.9l-11.9,31l-11.9-31
		h-4.9l14.5,37.3l-4.4,11.2h4.9L207.4,72.3z M239.2,84.9c0-0.5,0-5.4-3.5-8.6c-2.1-2.1-5.6-4-11.2-4H224c-5.6,0-9.1,1.9-11.2,4
		c-3.5,3.3-3.5,8.2-3.5,8.6v24.7h4.7V84.9c0-1.6,0.5-4,2.3-5.6c1.4-1.4,4.2-2.6,7.9-2.6c3.7,0,6.5,1.2,7.9,2.6
		c1.6,1.6,2.3,4,2.3,5.6v24.7h4.7V84.9z M409,76.3c-2.1-2.1-5.6-4-11.2-4h-0.5c-5.6,0-9.1,1.9-11.2,4c-3.5,3.3-3.5,8.2-3.5,8.6v11.9
		c0,0.5,0,5.4,3.5,8.6c2.1,2.1,5.6,4,11.2,4h11v-4.2h-10.7c-3.7,0-6.5-1.2-7.9-2.6c-1.6-1.6-2.3-4-2.3-5.6v-4.4h25.2v-7.7
		C412.3,84.5,412.3,79.6,409,76.3z M387.3,88.4v-3.7c0-1.6,0.5-4,2.3-5.6c1.4-1.4,4.2-2.6,7.9-2.6c3.7,0,6.5,1.2,7.9,2.6
		c1.6,1.6,2.3,4,2.3,5.6v3.7H387.3L387.3,88.4z"/>
	<g>
		<path class="st1" d="M92.4,66.3c-0.7,4-1.6,10-2.1,16.1c-0.9,10.7-0.5,18-0.5,18l-15.2,14.5c0,0-1.2-7.9-1.6-17
			c-0.2-5.6-0.5-10.5-0.5-13.5v-0.5c0-0.2,0.2-2.1,2.1-4.2C77,77.2,92.7,64.9,92.4,66.3z"/>
		<path class="st2" d="M92.4,66.3c-0.7,4-1.6,10-2.1,16.1c0,0-16.8-2.1-17.7,2.1c0-0.2,0.2-2.6,2.3-4.7S92.7,64.9,92.4,66.3z"/>
		<path class="st3" d="M72.6,83.3v0.9c0.2-0.7,0.5-1.2,1.2-2.1c1.2-1.4,3-1.9,4-1.9c4.2-0.5,10-1.2,16.3-1.4
			c10.5-0.5,17.7,0.5,17.7,0.5L127,64.9c0,0-7.9-1.4-17-2.6c-5.8-0.7-11.2-1.2-14-1.2c-0.2,0-2.3-0.2-4.2,1.6
			c-2.3,2.1-13.1,12.4-17.5,16.6C72.4,81.2,72.6,83.3,72.6,83.3z"/>
		<path class="st4" d="M126.3,101.7c-4.2,0.5-10,1.2-16.3,1.4c-10.5,0.5-17.7-0.5-17.7-0.5L77,117.1c0,0,7.9,1.6,17,2.6
			c5.6,0.7,10.5,0.9,13.3,1.2c0.2,0,0.5-0.2,0.7-0.2s2.3-0.5,4.2-2.3C114.6,116.2,127.4,101.5,126.3,101.7z"/>
		<path class="st5" d="M126.3,101.7c-4.2,0.5-10,1.2-16.3,1.4c0,0,1.2,16.8-2.8,17.5c0.2,0,3-0.2,4.9-2.1
			C114.4,116.7,127.4,101.5,126.3,101.7z"/>
		<path class="st6" d="M108.1,120.9h-0.9c0.7-0.2,1.2-0.5,2.1-0.9c1.6-1.2,2.1-3.3,2.3-4c0.7-4,1.6-10,2.1-16.1
			c0.9-10.7,0.2-18,0.2-18l15.2-14.5c0,0,1.2,7.9,1.6,17c0.5,5.8,0.5,11.2,0.5,14c0,0.2,0.2,2.3-1.9,4.2
			c-2.1,2.1-12.8,12.4-17.3,16.6C110.4,121.1,108.3,120.9,108.1,120.9z"/>
	</g>
</g>
</svg>
