<?xml version="1.0" encoding="utf-8"?>
<!-- Generator: Adobe Illustrator 23.0.4, SVG Export Plug-In . SVG Version: 6.00 Build 0)  -->
<svg version="1.1" id="Layer_1" xmlns="http://www.w3.org/2000/svg" xmlns:xlink="http://www.w3.org/1999/xlink" x="0px" y="0px"
	 viewBox="0 0 485 182" style="enable-background:new 0 0 485 182;" xml:space="preserve">
<style type="text/css">
	.st0{fill:#E4002B;}
	.st1{fill:#FFFFFF;}
	.st2{fill:#E2183D;}
</style>
<title>Asset 1</title>
<g>
	<g id="Layer_1-2">
		<g id="f5-logo-rgb">
			<g id="Logo-black-and-white">
				<path class="st0" d="M298.7,141.4c0.8,0.8,1.2,1.8,1.2,2.9c0,2.3-1.8,4.2-4.1,4.2c-1.1,0-2.2-0.4-3-1.2
					c-0.8-0.8-1.2-1.8-1.2-2.9c0-2.3,1.8-4.1,4.1-4.2C296.9,140.1,298,140.6,298.7,141.4z M299.2,140.9c-0.9-0.9-2.1-1.4-3.4-1.4
					c-2.7,0-4.8,2.2-4.8,4.8s2.2,4.8,4.8,4.8c1.3,0,2.5-0.5,3.4-1.4C301.1,145.8,301.1,142.8,299.2,140.9
					C299.2,140.9,299.2,140.9,299.2,140.9L299.2,140.9z M296.5,144.1c-0.3,0.1-0.6,0.1-0.9,0.1h-0.8v-1.9h0.8c0.5,0,0.9,0.1,1.1,0.2
					c0.2,0.1,0.4,0.4,0.4,0.8C297.1,143.6,296.9,144,296.5,144.1z M293.9,146.9h0.9v-2.1h0.7c0.5,0,0.8,0.1,1,0.2
					c0.3,0.2,0.5,0.6,0.5,1.2v0.4l0,0.2c0,0,0,0,0,0.1c0,0,0,0,0,0h0.9l0-0.1c0-0.1-0.1-0.2,0-0.3c0-0.1,0-0.3,0-0.4v-0.4
					c0-0.3-0.1-0.6-0.3-0.8c-0.2-0.3-0.5-0.4-0.9-0.5c0.3,0,0.5-0.1,0.8-0.3c0.4-0.2,0.5-0.6,0.5-1c0-0.7-0.3-1.1-0.8-1.3
					c-0.3-0.1-0.8-0.2-1.4-0.2h-1.8V146.9z"/>
				<path class="st1" d="M301.1,106.4c0.3-6.8-0.9-14.2-6.8-20.8c-6.1-6.6-16.4-12.1-37.5-13.4c1.1-3.4,2.1-6.6,3.1-9.8
					c12.6,0.4,23.9,1.4,33.5,2.6c0.8-3.4,1.2-6.8,1.9-10c-1-1.4-2-2.8-3.1-4.1c-4.6-0.5-9.1-1.7-14-2.3c-6.6-0.9-13.5-1.5-21-1.8
					c-4.7,14-10.6,31.6-16.6,49.9c31.5,2.7,43.5,11.2,42.9,23.2c-0.6,6.5-6.5,12.3-14.3,13c-9.2,0.6-13.5-3.1-16.2-7.2
					c-2.4-3.7-4.9-7.4-7.5-11.4c-0.7-1.2-1.6-0.4-2.5,0.4c-1.9,1.8-3.7,3.6-5.6,5.4c-1.2,1.1-0.9,2-0.5,2.8c1.8,4.1,3.4,7.9,5,11.7
					c2.8,1.7,15.7,4,25.4,3.3c6.6-0.6,14.8-3.1,21.5-8.2C295.4,124.4,300.3,117.4,301.1,106.4z"/>
				<path class="st1" d="M191.1,128.8c1.2,1.6,2.5,3.2,3.9,4.7c10.9,2,24.4,3.3,38.6,3.7c0-1.5-0.1-2.9-0.1-4.4
					c-8.7-0.5-12.7-1.8-13.4-3.5c-0.6-1.4-0.7-3.4-0.8-5.4c-0.7-13.3-0.9-27.7-0.6-42.2c4.9-0.1,9.7-0.1,14.8-0.2
					c2.5-1.1,4.8-2.2,7.2-3.3c0-1.8,0-3.3,0-5c-7.5,0-14.6,0.2-21.8,0.4c0.2-6.1,0.4-11.7,0.8-17.2c0.3-3.6,2.7-6.2,5.3-6.4
					c4.1-0.2,7.8,1.5,11.4,3.1c2,1,3.9,1.9,5.9,2.9c1,0.3,2.1,0.5,2.8-0.4c1.2-1.4,2.3-2.7,3.5-4.1c0.6-0.9,0.4-1.5,0.1-1.8
					c-2.6-2-5-3.9-7.4-5.7c-1.5-1-3.9-1.2-6.2-1.2c-0.9,0-1.9,0-2.8,0.1c-2.4,0.1-5.5,0.5-10.5,1.7c-11.3,3.1-25,11-26.4,23.9
					c-0.2,2.1-0.3,4.2-0.5,6.4c-3.2,0.3-6.1,0.5-8.9,0.8c-0.2,2.5-0.3,4.9-0.4,7.4c2.8-0.2,5.7-0.3,8.9-0.4
					c-0.5,13.6,0,27.1,1.2,39.6c0.2,1.9,0.4,3.8,0.2,5C195.6,128.3,193.8,128.9,191.1,128.8z"/>
				<path class="st0" d="M295.2,54.9c-0.8,3.2-1.2,6.6-1.9,10c-9.6-1.2-20.8-2.2-33.5-2.6c-1,3.2-2,6.3-3.1,9.8
					c21.1,1.3,31.4,6.9,37.5,13.4c5.9,6.6,7.2,14,6.8,20.8c-0.8,11.1-5.6,18.1-12.3,23.3c-6.8,5.1-15,7.6-21.5,8.2
					c-9.7,0.7-22.6-1.6-25.4-3.3c-1.7-3.8-3.3-7.6-5-11.7c-0.4-0.9-0.7-1.8,0.5-2.8c1.9-1.8,3.7-3.6,5.6-5.4
					c0.8-0.8,1.8-1.6,2.5-0.4c2.6,4,5,7.7,7.5,11.4c2.8,4.1,7,7.8,16.2,7.2c7.8-0.7,13.7-6.6,14.3-13c0.7-12-11.4-20.4-42.9-23.2
					c6-18.2,11.9-35.9,16.6-49.9c7.5,0.3,14.4,1,21,1.8c4.9,0.6,9.4,1.8,14,2.3c-11.7-14.4-29.6-23.7-49.6-23.7
					c-35.3,0-63.9,28.6-63.9,63.9c0,13.6,4.3,26.9,12.4,37.8c2.7,0,4.6-0.6,4.8-1.7c0.2-1.2,0-3.1-0.2-5
					c-1.3-12.5-1.7-26.1-1.2-39.6c-3.2,0.1-6.1,0.3-8.9,0.4c0.1-2.5,0.2-4.9,0.4-7.4c2.8-0.3,5.7-0.5,8.9-0.8
					c0.1-2.2,0.3-4.3,0.5-6.4c1.4-12.9,15.1-20.8,26.4-23.9c5-1.2,8.1-1.6,10.5-1.7c0.9,0,1.8-0.1,2.8-0.1c2.4,0,4.7,0.2,6.2,1.2
					c2.4,1.8,4.9,3.7,7.4,5.7c0.3,0.3,0.5,0.9-0.1,1.8c-1.2,1.4-2.3,2.7-3.5,4.1c-0.7,0.8-1.8,0.6-2.8,0.4c-2-1-4-2-5.9-2.9
					c-3.6-1.6-7.3-3.2-11.4-3.1c-2.6,0.2-5.1,2.8-5.3,6.4c-0.4,5.5-0.6,11.1-0.8,17.2c7.1-0.2,14.3-0.3,21.8-0.4c0,1.7,0,3.3,0,5
					c-2.5,1.1-4.8,2.2-7.2,3.3c-5.1,0.1-9.9,0.1-14.8,0.2c-0.2,14.5,0,28.9,0.6,42.2c0.1,2,0.2,4,0.8,5.4c0.7,1.7,4.7,3,13.4,3.5
					c0,1.5,0.1,2.9,0.1,4.4c-14.1-0.4-27.7-1.8-38.6-3.7c11.7,13.1,28.7,21.3,47.6,21.3c35.3,0,63.9-28.6,63.9-63.9
					C306.4,78.1,302.5,65.6,295.2,54.9z"/>
				<path class="st2" d="M194.9,133.6L194.9,133.6L194.9,133.6z"/>
			</g>
		</g>
	</g>
</g>
</svg>
