<?xml version="1.0" encoding="utf-8"?>
<!-- Generator: Adobe Illustrator 23.0.4, SVG Export Plug-In . SVG Version: 6.00 Build 0)  -->
<svg version="1.1" id="Layer_1" xmlns="http://www.w3.org/2000/svg" xmlns:xlink="http://www.w3.org/1999/xlink" x="0px" y="0px"
	 viewBox="0 0 485 182" style="enable-background:new 0 0 485 182;" xml:space="preserve">
<style type="text/css">
	.st0{fill:#100E0F;}
</style>
<g>
	<path class="st0" d="M145.2,84.8h-26.8c-0.7,0-1.2,0.5-1.2,1.2v13.1c0,0.7,0.5,1.2,1.2,1.2h10.4v16.3c0,0-2.4,0.8-8.8,0.8
		c-7.6,0-18.3-2.8-18.3-26.2c0-23.5,11.1-26.6,21.6-26.6c9,0,12.9,1.6,15.4,2.4c0.8,0.3,1.5-0.5,1.5-1.2l3-12.6c0-0.4-0.1-0.7-0.4-1
		c-1-0.7-7.2-4.2-22.6-4.2C102.3,48,84,55.6,84,92.1s20.9,42,38.6,42c14.7,0,23.5-6.3,23.5-6.3c0.4-0.2,0.4-0.7,0.4-1V86.1
		C146.5,85.3,145.9,84.8,145.2,84.8z"/>
	<path class="st0" d="M283,52.3c0-0.7-0.5-1.2-1.2-1.2h-15c-0.7,0-1.2,0.5-1.2,1.2v29.1H242V52.3c0-0.7-0.5-1.2-1.2-1.2h-15
		c-0.7,0-1.2,0.5-1.2,1.2v78.8c0,0.7,0.5,1.2,1.2,1.2h15c0.7,0,1.2-0.5,1.2-1.2V97.4h23.5v33.7c0,0.7,0.5,1.2,1.2,1.2h15.1
		c0.7,0,1.2-0.5,1.2-1.2L283,52.3L283,52.3z"/>
	<g>
		<g>
			<path class="st0" d="M173.6,62.7c0-5.4-4.3-9.8-9.7-9.8s-9.7,4.4-9.7,9.8s4.3,9.8,9.7,9.8S173.6,68.1,173.6,62.7z"/>
			<path class="st0" d="M172.5,114.5c0-2,0-36.4,0-36.4c0-0.7-0.5-1.2-1.2-1.2h-15c-0.7,0-1.3,0.7-1.3,1.4c0,0,0,43.7,0,52.1
				c0,1.5,1,1.9,2.2,1.9c0,0,6.4,0,13.5,0c1.5,0,1.9-0.7,1.9-2C172.5,127.6,172.5,116.6,172.5,114.5z"/>
		</g>
	</g>
	<path class="st0" d="M340.2,77h-14.9c-0.7,0-1.2,0.5-1.2,1.2v38.6c0,0-3.8,2.7-9.2,2.7c-5.4,0-6.8-2.5-6.8-7.7c0-5.3,0-33.7,0-33.7
		c0-0.7-0.5-1.2-1.2-1.2h-15.2c-0.7,0-1.2,0.5-1.2,1.2c0,0,0,20.6,0,36.2s8.7,19.5,20.8,19.5c9.9,0,17.8-5.5,17.8-5.5
		s0.4,2.8,0.5,3.2s0.6,0.7,1.1,0.7h9.6c0.7,0,1.2-0.5,1.2-1.2V78.3C341.4,77.6,340.9,77,340.2,77z"/>
	<path class="st0" d="M381.1,75.3c-8.5,0-14.2,3.8-14.2,3.8V52.3c0-0.7-0.5-1.2-1.2-1.2h-15.1c-0.7,0-1.2,0.5-1.2,1.2v78.8
		c0,0.7,0.5,1.2,1.2,1.2H361c0.4,0,0.8-0.3,1.1-0.7c0.3-0.4,0.6-3.6,0.6-3.6s6.2,5.8,17.8,5.8c13.7,0,21.6-7,21.6-31.3
		C402.1,78.5,389.6,75.3,381.1,75.3z M375.2,119.6c-5.2-0.2-8.7-2.5-8.7-2.5v-25c0,0,3.4-2.1,7.7-2.5c5.4-0.4,10.6,1.1,10.6,14
		C384.7,117.1,382.4,119.9,375.2,119.6z"/>
	<path class="st0" d="M215.8,76.9h-11.3V61.9c0-0.5-0.3-0.9-1-0.9h-15.4c-0.6,0-0.9,0.3-0.9,0.8v15.5c0,0-7.7,1.9-8.2,2
		c-0.5,0.2-0.9,0.6-0.9,1.2v9.7c0,0.7,0.5,1.2,1.2,1.2h7.9c0,0,0,10.2,0,23.3c0,17.3,12.1,19,20.3,19c3.7,0,8.2-1.2,8.9-1.5
		c0.4-0.2,0.7-0.6,0.7-1.1v-10.7c0-0.7-0.6-1.2-1.2-1.2c-0.6,0-2.4,0.3-4.1,0.3c-5.6,0-7.4-2.6-7.4-5.9s0-22.2,0-22.2h11.3
		c0.7,0,1.2-0.5,1.2-1.2V78.1C217,77.5,216.5,76.9,215.8,76.9z"/>
</g>
</svg>
