<?xml version="1.0" encoding="utf-8"?>
<!-- Generator: Adobe Illustrator 23.0.4, SVG Export Plug-In . SVG Version: 6.00 Build 0)  -->
<svg version="1.1" id="Layer_1" xmlns="http://www.w3.org/2000/svg" xmlns:xlink="http://www.w3.org/1999/xlink" x="0px" y="0px"
	 viewBox="0 0 485 182" style="enable-background:new 0 0 485 182;" xml:space="preserve">
<style type="text/css">
	.st0{fill:#F8595C;}
	.st1{fill:#404040;}
</style>
<g>
	<path id="path2998" class="st0" d="M117.5,82.1H93.4v7.3h17.1c-0.8,10.1-9.3,14.3-17.1,14.3c-10.1,0-19.1-7.9-19.1-19.1
		c0-10.9,8.4-19.3,19.1-19.3c8.1,0,12.9,5.3,12.9,5.3l5-5.3c0,0-6.4-7.3-18.2-7.3C78,58,66.5,70.6,66.5,84.4
		c0,13.5,10.9,26.4,26.9,26.4c14,0,24.4-9.8,24.4-24.1C118.1,83.8,117.5,82.1,117.5,82.1L117.5,82.1z"/>
	<path id="path3000" class="st0" d="M137.4,76.8c-9.8,0-17.1,7.9-17.1,16.8c0,9.3,7,17.1,17.1,17.1c9.3,0,16.8-7,16.8-16.8
		C154.5,82.7,145.6,76.8,137.4,76.8L137.4,76.8z M137.4,83.5c4.8,0,9.5,3.9,9.5,10.4c0,6.2-4.5,10.4-9.5,10.4
		c-5.3,0-9.8-4.2-9.8-10.4C127.9,88,132.1,83.5,137.4,83.5L137.4,83.5z"/>
	<path id="path3005" class="st0" d="M174.4,76.8c-9.8,0-17.1,7.9-17.1,16.8c0,9.3,7,17.1,17.1,17.1c9.3,0,16.8-7,16.8-16.8
		C191.6,82.7,182.6,76.8,174.4,76.8L174.4,76.8z M174.7,83.5c4.8,0,9.5,3.9,9.5,10.4c0,6.2-4.5,10.4-9.5,10.4
		c-5.3,0-9.8-4.2-9.8-10.4C164.9,88,169.1,83.5,174.7,83.5L174.7,83.5z"/>
	<path id="path3007" class="st0" d="M210.9,76.8c-9.3,0-16.3,7.9-16.3,16.8c0,10.1,8.4,17.1,16.3,17.1c4.8,0,7.3-2,9.3-4.2v3.4
		c0,5.9-3.6,9.3-9,9.3c-5,0-7.9-3.9-8.7-6.2l-6.4,2.8c2.2,4.8,7,10.1,15.1,10.1c9,0,16-5.6,16-17.7V77.9h-7v2.8
		C217.9,78.5,214.8,76.8,210.9,76.8L210.9,76.8z M211.5,83.5c4.5,0,9,3.9,9,10.4c0,6.7-4.5,10.4-9.3,10.4s-9.3-3.9-9.3-10.1
		C201.9,87.5,206.7,83.5,211.5,83.5L211.5,83.5z"/>
	<path id="path3011" class="st0" d="M258.8,76.8c-8.7,0-15.7,6.7-15.7,16.8c0,10.7,8.1,17.1,16.5,17.1c7.3,0,11.5-3.9,14.3-7.6
		l-5.9-3.9c-1.4,2.2-4.2,4.8-8.4,4.8c-4.8,0-7-2.5-8.4-5l22.7-9.5l-1.1-2.8C270.6,81.3,265.6,76.8,258.8,76.8L258.8,76.8z
		 M259.1,83.3c3.1,0,5.3,1.7,6.2,3.6l-15.1,6.4C249.6,88.3,254.1,83.3,259.1,83.3L259.1,83.3z"/>
	<path id="path3015" class="st0" d="M232.2,109.9h7.6V59.7h-7.6V109.9z"/>
</g>
<g>
	<path class="st1" d="M306.2,91.7v-5h-17.4v-14h19.3v-5h-24.7v42.3h5.3V91.7H306.2z"/>
	<path class="st1" d="M314.1,106.5c2.8,2.8,6.4,4.5,10.7,4.5c4.2,0,7.9-1.4,10.7-4.5c2.8-2.8,4.2-6.4,4.2-11.2
		c0-4.5-1.4-8.1-4.2-11.2c-2.8-2.8-6.4-4.5-10.7-4.5c-4.2,0-7.9,1.4-10.7,4.5c-2.8,2.8-4.2,6.7-4.2,11.2
		C309.9,99.8,311.3,103.7,314.1,106.5L314.1,106.5z M318,88c2-2,4.2-3.1,6.7-3.1s4.8,1.1,6.7,3.1c1.7,2,2.8,4.5,2.8,7.6
		s-0.8,5.6-2.8,7.6c-1.7,2-4.2,2.8-6.7,2.8c-2.8,0-5-0.8-6.7-2.8c-1.7-2-2.8-4.5-2.8-7.6C315.2,92.2,316.3,89.7,318,88L318,88z"/>
	<path class="st1" d="M344.1,109.9h5.3v-16c0-2.5,0.8-4.5,2.2-6.4c1.4-1.7,3.4-2.5,5.3-2.5c4.8,0,7,2.2,7.3,7v17.9h5.3V91.7
		c0-3.6-0.8-6.7-2.8-8.7c-2-2-4.8-3.1-8.1-3.1c-2,0-3.6,0.6-5.3,1.4c-1.7,0.8-3.1,2.2-3.9,3.6h-0.3V81h-5V109.9z"/>
	<path class="st1" d="M391.2,109.6l-1.7-4.8c-0.3,0.3-0.8,0.3-1.1,0.3s-0.8,0.3-1.4,0.3c-0.8,0-1.7-0.3-2.5-1.1
		c-0.8-0.6-1.1-2-1.1-3.9V85.8h7V81h-7v-9H378v9h-5v5h5v16.3c0,2.5,0.8,4.8,2.5,6.2c1.7,1.4,3.6,2.2,5.9,2.2
		C388.1,110.5,389.8,110.2,391.2,109.6L391.2,109.6z"/>
	<path class="st1" d="M410,93.1l-4.5-1.1c-3.1-0.8-4.8-2-4.8-3.6c0-1.1,0.6-2,1.7-2.5c1.1-0.8,2.5-1.1,3.9-1.1
		c1.4,0,2.8,0.3,4.2,1.1c1.1,0.6,2.2,1.7,2.8,2.8l4.8-2c-0.8-2-2.2-3.6-4.5-5c-2-1.1-4.5-2-7-2c-3.4,0-6.2,0.8-8.1,2.5
		c-2.2,1.7-3.4,3.6-3.4,6.4c0,3.9,2.8,6.7,8.4,8.1l5,1.1c2.8,0.8,4.2,2.2,4.2,4.2c0,1.1-0.6,2-1.7,2.8c-1.1,0.8-2.5,1.1-4.5,1.1
		c-1.7,0-3.1-0.6-4.5-1.4c-1.4-0.8-2.5-2.2-3.1-3.9l-4.8,2c0.8,2.5,2.5,4.5,4.8,5.9c2.2,1.4,4.8,2.2,7.6,2.2c3.4,0,6.2-0.8,8.4-2.5
		c2.2-1.7,3.4-3.9,3.4-6.4C418.7,97.6,415.6,94.5,410,93.1L410,93.1z"/>
</g>
</svg>
