<?xml version="1.0" encoding="utf-8"?>
<!-- Generator: Adobe Illustrator 23.0.4, SVG Export Plug-In . SVG Version: 6.00 Build 0)  -->
<svg version="1.1" id="Layer_1" xmlns="http://www.w3.org/2000/svg" xmlns:xlink="http://www.w3.org/1999/xlink" x="0px" y="0px"
	 viewBox="0 0 485 182" style="enable-background:new 0 0 485 182;" xml:space="preserve">
<style type="text/css">
	.st0{fill:none;}
	.st1{fill:#F9AB00;}
	.st2{fill:#E37400;}
</style>
<rect x="187.5" y="36" class="st0" width="110" height="110"/>
<g>
	<g>
		<path class="st1" d="M262,52.6v75.6c0,8.5,5.8,13.2,12,13.2c5.7,0,12-4,12-13.2V53.2c0-7.8-5.7-12.6-12-12.6
			C267.7,40.6,262,45.9,262,52.6z"/>
	</g>
	<g>
		<path class="st2" d="M230.5,91v37.2c0,8.5,5.8,13.2,12,13.2c5.7,0,12-4,12-13.2V91.6c0-7.8-5.7-12.6-12-12.6S230.5,84.3,230.5,91z
			"/>
	</g>
	<g>
		<circle class="st2" cx="211" cy="129.4" r="12"/>
	</g>
</g>
</svg>
