<?xml version="1.0" encoding="utf-8"?>
<!-- Generator: Adobe Illustrator 23.0.4, SVG Export Plug-In . SVG Version: 6.00 Build 0)  -->
<svg version="1.1" id="Layer_1" xmlns="http://www.w3.org/2000/svg" xmlns:xlink="http://www.w3.org/1999/xlink" x="0px" y="0px"
	 viewBox="0 0 485 182" style="enable-background:new 0 0 485 182;" xml:space="preserve">
<style type="text/css">
	.st0{fill:#FF3366;}
	.st1{fill:#17191D;}
</style>
<title>Asset 12</title>
<g>
	<g id="Layer_1-2">
		<rect x="436.9" y="106.2" class="st0" width="8.2" height="8.2"/>
		<path class="st1" d="M43.2,114.5h-3.4V65.4h3.4V114.5z"/>
		<path class="st1" d="M58.6,85.4c1-2,4.5-6.5,11.9-6.5c8.7,0,13.3,5.7,13.3,13.2v22.5h-3.2V93.1c0-7.1-3.3-11.3-10.3-11.3
			c-6.3,0-11.6,3.9-11.6,11.7v21h-3.2V79.7h3.2L58.6,85.4L58.6,85.4z"/>
		<path class="st1" d="M129.9,65.4l-20.1,49.1H106L85.9,65.4h3.8l18.2,45h0.1l18.2-45L129.9,65.4L129.9,65.4z"/>
		<path class="st1" d="M134.2,67c-0.1-1.4,1-2.6,2.4-2.7c0.1,0,0.2,0,0.2,0c1.5,0,2.6,1.2,2.6,2.6s-1.2,2.6-2.6,2.6
			c-1.4,0.1-2.6-1-2.7-2.4C134.2,67.2,134.2,67.1,134.2,67z M135.2,79.7h3.2v34.8h-3.2V79.7z"/>
		<path class="st1" d="M148.1,103.7h3.2c0.4,5.2,4.8,8.6,11,8.6c6.5,0,10.2-2.8,10.2-6.9c0-10.9-22.1-2.9-22.1-16.7
			c0-5,4.7-9.8,12.7-9.8c8,0,12.3,5,12.7,10.8h-3.2c-0.4-4.2-3.5-7.7-9.5-7.7c-6.1,0-9.4,3-9.4,6.7c0,10.9,22.2,2.5,22.2,16.8
			c0,5.7-5.4,9.9-13.5,9.9C153.1,115.3,148.5,109.9,148.1,103.7z"/>
		<path class="st1" d="M184.6,67c-0.1-1.4,1-2.6,2.4-2.7c0.1,0,0.2,0,0.2,0c1.5,0,2.6,1.2,2.6,2.6s-1.2,2.6-2.6,2.6
			c-1.4,0.1-2.6-1-2.7-2.4C184.6,67.2,184.6,67.1,184.6,67z M185.6,79.7h3.2v34.8h-3.2V79.7z"/>
		<path class="st1" d="M197.9,97.1c0-9.5,6.7-18.2,17.6-18.2c10.9,0,17.6,8.8,17.6,18.2s-6.7,18.2-17.6,18.2
			C204.6,115.3,197.9,106.6,197.9,97.1z M215.5,112.4c8.7,0,14.2-6.9,14.2-15.3s-5.5-15.3-14.2-15.3c-8.7,0-14.2,6.9-14.2,15.3
			S206.8,112.4,215.5,112.4z"/>
		<path class="st1" d="M244.6,85.4c1-2,4.5-6.5,11.9-6.5c8.7,0,13.3,5.7,13.3,13.2v22.5h-3.2V93.1c0-7.1-3.3-11.3-10.3-11.3
			c-6.3,0-11.6,3.9-11.6,11.7v21h-3.2V79.7h3.2V85.4z"/>
		<path class="st1" d="M288,114.5V65.4h16.7c17,0,26.3,10.1,26.3,24.5s-9.4,24.5-26.3,24.5L288,114.5L288,114.5z M304.4,73.2h-8
			v33.6h8c12.1,0,17.8-6.7,17.8-16.8S316.5,73.2,304.4,73.2z"/>
		<path class="st1" d="M364.9,101.1c0-11.9-27.5-2.6-27.5-22.2c0-7.8,6.7-14.5,17.6-14.5c11.5,0,17.6,7.1,17.8,16.2h-8.2
			c-0.1-4.8-3.3-8.7-9.6-8.7c-5.7,0-9.3,2.4-9.3,6.8c0,10.8,27.7,2.4,27.7,22c0,8.9-7.7,14.7-19.5,14.7c-13.1,0-18.1-8.3-18.4-16.3
			h8.3c0.4,5.3,3.9,8.8,10.5,8.8C361.1,108,364.9,105.5,364.9,101.1z"/>
		<path class="st1" d="M404.3,85.8l15.6-20.3h7.7v49.1h-8.2V78.7l-14.9,19.2h-0.3l-14.8-19.2v35.9h-8.2V65.4h7.7L404.3,85.8z"/>
	</g>
</g>
</svg>
