<?xml version="1.0" encoding="utf-8"?>
<!-- Generator: Adobe Illustrator 23.0.4, SVG Export Plug-In . SVG Version: 6.00 Build 0)  -->
<svg version="1.1" id="Layer_1" xmlns="http://www.w3.org/2000/svg" xmlns:xlink="http://www.w3.org/1999/xlink" x="0px" y="0px"
	 viewBox="0 0 485 182" style="enable-background:new 0 0 485 182;" xml:space="preserve">
<style type="text/css">
	.st0{fill:#FF3366;}
	.st1{fill:#FFFFFF;}
</style>
<title>Asset 2</title>
<g>
	<g id="Layer_1-2">
		<rect x="231.5" y="73.2" class="st0" width="12.1" height="52.6"/>
		<path class="st0" d="M198.6,111.9l-14.2-38.7h-3.9V39.5c0-6.3-5.1-11.5-11.4-11.5l0,0H65.9c-6.3,0-11.5,5.1-11.5,11.5l0,0v103.2
			c0,6.3,5.1,11.5,11.5,11.5l0,0h103.2c6.3,0,11.5-5.1,11.5-11.5l0,0V95.5l12.5,30.8H204l21.5-53.1h-12.7L198.6,111.9z"/>
		<path class="st0" d="M275.6,94.7c-6.2-2-11.9-3.6-11.9-7.4v-0.2c0-3.1,2.7-5.3,7.4-5.3c2.6,0.1,5.1,0.5,7.5,1.4l0,0l0.1,0.1
			l0.7,0.3c1.9,0.6,7,1.4,11.4-5.4c-5.6-3.7-12.7-6-19.3-6c-10.4,0-18.7,6.1-18.7,16.1v0.2c0,10.1,8.7,13.3,16.5,15.4
			c6.2,1.9,11.8,3.3,11.8,7.4v0.2c0,3.5-3,5.7-8.2,5.7c-3.8-0.1-7.6-1-11-2.7c-1.1-0.5-6.7-2.4-11.5,4.5c6.4,4.9,14.2,7.7,22.2,7.8
			c11,0,19.5-5.5,19.5-16.5v-0.2C291.9,100.6,283.2,97.1,275.6,94.7z"/>
		<path class="st0" d="M348,72.1c-16.1,0-28.1,12.5-28.1,27.6c0,15,11.9,27.3,27.9,27.3c16.3,0,28.3-12.5,28.3-27.5
			C375.9,84.4,364.1,72.1,348,72.1z M348,116.6c-9.4,0-16.1-7.7-16.1-17.1c0-9.3,6.2-16.9,15.9-16.9c9.5,0,16.1,7.7,16.1,17.1
			C363.9,109,357.7,116.6,348,116.6z"/>
		<rect x="299.8" y="73.2" class="st0" width="12.1" height="52.6"/>
		<path class="st0" d="M411.7,72.1c-8.2,0-13.1,4.3-16.5,9.3v-8.2h-12.1v52.6h12.1V96.2c0-8.2,4.9-13.1,11.9-13.1
			c7.2,0,11.2,4.7,11.2,12.9v29.9h12.1V92.4C430.5,80.1,423.6,72.1,411.7,72.1z"/>
		<path class="st1" d="M96.6,67.6c4.2-0.1,7.5-3.5,7.5-7.7s-3.5-7.5-7.7-7.5c-4.1,0.1-7.4,3.4-7.5,7.5C89,64.3,92.4,67.6,96.6,67.6
			L96.6,67.6z"/>
		<path class="st1" d="M80.7,108.3c-0.4,1.9-0.7,3.8-0.7,5.7c0,6.7,3.6,11.1,11.3,11.1c6.4,0,11.6-3.8,15.3-9.9l-2.3,9.1H117
			l7.3-29.1c1.8-7.4,5.3-11.2,10.6-11.2c4.2,0,6.8,2.6,6.8,6.9c0,1.4-0.2,2.8-0.6,4.1l-3.7,13.3c-0.5,1.8-0.8,3.7-0.8,5.7
			c0,6.4,3.7,11,11.5,11c6.7,0,12-4.3,15-14.6l-5-1.9c-2.5,6.9-4.7,8.1-6.4,8.1c-1.7,0-2.6-1.2-2.6-3.4c0.1-1.2,0.2-2.4,0.5-3.5
			l3.6-13c0.8-2.6,1.2-5.4,1.2-8.2c0-9.8-5.9-14.8-13-14.8c-6.7,0-13.5,6-16.9,12.4l2.5-11.4h-19.4l-2.7,10h9.1l-5.6,22.4
			c-4.4,9.8-12.4,9.9-13.4,9.7c-1.6-0.4-2.7-1-2.7-3.2c0.1-1.8,0.3-3.5,0.8-5.1l8.5-33.7H80.2l-2.7,10h8.9L80.7,108.3z"/>
	</g>
</g>
</svg>
