<?xml version="1.0" encoding="utf-8"?>
<!-- Generator: Adobe Illustrator 23.0.4, SVG Export Plug-In . SVG Version: 6.00 Build 0)  -->
<svg version="1.1" id="Layer_1" xmlns:dc="http://purl.org/dc/elements/1.1/" xmlns:xl="http://www.w3.org/1999/xlink"
	 xmlns="http://www.w3.org/2000/svg" xmlns:xlink="http://www.w3.org/1999/xlink" x="0px" y="0px" viewBox="0 0 485 182"
	 style="enable-background:new 0 0 485 182;" xml:space="preserve">
<style type="text/css">
	.st0{fill:none;}
	.st1{fill:#FB4E14;}
	.st2{fill:#FFFFFF;}
	.st3{fill:#515151;}
</style>
<g>
	<rect x="112.8" y="41" class="st0" width="100" height="100"/>
	<g>
		<path class="st1" d="M212.6,91.1c0,27.6-22.3,49.9-49.9,49.9c-27.6,0-49.9-22.3-49.9-49.9s22.3-49.9,49.9-49.9
			C190.3,41.2,212.6,63.5,212.6,91.1z"/>
		<path class="st2" d="M162.7,45.7c-25,0-45.3,20.3-45.3,45.3s20.3,45.3,45.3,45.3S208,116.1,208,91.1S187.7,45.7,162.7,45.7z
			 M162.7,138c-25.9,0-46.9-21.1-46.9-46.9s21.1-46.9,46.9-46.9s46.9,21.1,46.9,46.9S188.6,138,162.7,138"/>
		<path class="st2" d="M180.6,117.1c-1.9,0-3.5-1.6-3.5-3.5c0-1.9,1.6-3.5,3.5-3.5c1.9,0,3.5,1.6,3.5,3.5
			C184.1,115.6,182.5,117.1,180.6,117.1z M148,70.3c-1.9,0-3.5-1.6-3.5-3.5c0-1.9,1.6-3.5,3.5-3.5c1.9,0,3.5,1.6,3.5,3.5
			C151.5,68.7,149.9,70.3,148,70.3z M151.5,113.6c0,1.9-1.6,3.5-3.5,3.5c-1.9,0-3.5-1.6-3.5-3.5c0-1.9,1.6-3.5,3.5-3.5
			C149.9,110.2,151.5,111.7,151.5,113.6z M180.6,63.3c1.9,0,3.5,1.6,3.5,3.5c0,1.9-1.6,3.5-3.5,3.5c-1.9,0-3.5-1.6-3.5-3.5
			C177.1,64.9,178.7,63.3,180.6,63.3z M180.6,106.4c-0.9,0-1.8,0.2-2.6,0.5l-14-16.7l14-16.7c0.8,0.3,1.7,0.5,2.6,0.5
			c4,0,7.2-3.2,7.2-7.2c0-4-3.2-7.2-7.2-7.2c-4,0-7.2,3.2-7.2,7.2c0,1.4,0.4,2.6,1,3.7l-14.6,17.3h-9.5V73.7c2.8-1,4.9-3.7,4.9-6.8
			c0-4-3.2-7.2-7.2-7.2c-4,0-7.2,3.2-7.2,7.2c0,3.2,2.1,5.9,4.9,6.8v33.1c-2.9,1-4.9,3.7-4.9,6.8c0,4,3.2,7.2,7.2,7.2
			c4,0,7.2-3.2,7.2-7.2c0-3.2-2.1-5.9-4.9-6.8V92.5h9.5l14.6,17.4c-0.7,1.1-1.1,2.4-1.1,3.7c0,4,3.2,7.2,7.2,7.2
			c4,0,7.2-3.2,7.2-7.2C187.8,109.6,184.6,106.4,180.6,106.4"/>
		<path class="st2" d="M191.9,120.9h-0.2v-1.6l-0.7,1.6h-0.1l-0.7-1.6v1.6H190V119h0.4l0.6,1.4l0.6-1.4h0.4V120.9z M189.7,119.2
			h-0.5v1.7h-0.2v-1.7h-0.5V119h1.3V119.2"/>
	</g>
</g>
<g>
	<path class="st3" d="M263.3,113.6h-3.7l-16.7-23l-5.8,5.1v17.9h-3V70h3v22.7l4.8-4.8L258.9,70h3.9l-17.9,18.4L263.3,113.6z"/>
	<path class="st3" d="M290.4,98.3h-17.7l-6.1,15.4h-3.4l17.5-43.8h1.9l17.2,43.8h-3.4L290.4,98.3z M273.8,95.5h15.6l-5.9-15.7
		c-0.5-1.2-1.1-2.9-1.8-5.1c-0.5,1.9-1.1,3.6-1.8,5.2L273.8,95.5z"/>
	<path class="st3" d="M324.7,72.2c-5.5,0-9.8,1.8-12.9,5.2c-3.1,3.5-4.7,8.3-4.7,14.4c0,6.2,1.5,11.1,4.4,14.5
		c3,3.4,7.2,5.2,12.7,5.2c3.7,0,7-0.5,10.1-1.4v2.7c-2.9,1-6.5,1.5-10.8,1.5c-6.1,0-10.9-2-14.5-5.9s-5.3-9.5-5.3-16.6
		c0-4.4,0.8-8.3,2.5-11.7c1.7-3.4,4.1-6,7.2-7.8c3.2-1.8,6.8-2.8,11-2.8c4.3,0,8.1,0.8,11.4,2.4l-1.2,2.7
		C331.5,73,328.2,72.2,324.7,72.2z"/>
	<path class="st3" d="M367.9,113.6H344V70h23.8v2.8h-20.8v16.5h19.6v2.8h-19.6v18.7h20.8V113.6z"/>
</g>
<g>
	<path class="st3" d="M374.5,78.2h-0.6v-8h-2.8v-0.6h6.2v0.6h-2.8V78.2z"/>
	<path class="st3" d="M382.3,78.2l-3.2-7.9h0c0,0.5,0,1,0,1.5v6.4h-0.6v-8.6h0.9l3,7.5h0l3-7.5h0.9v8.6h-0.6v-6.5
		c0-0.5,0-0.9,0.1-1.4h0l-3.2,7.9H382.3z"/>
</g>
</svg>
