<?xml version="1.0" encoding="utf-8"?>
<!-- Generator: Adobe Illustrator 23.0.4, SVG Export Plug-In . SVG Version: 6.00 Build 0)  -->
<svg version="1.1" id="Layer_1" xmlns="http://www.w3.org/2000/svg" xmlns:xlink="http://www.w3.org/1999/xlink" x="0px" y="0px"
	 viewBox="0 0 485 182" style="enable-background:new 0 0 485 182;" xml:space="preserve">
<style type="text/css">
	.st0{fill:#404041;}
	.st1{fill:#6BB545;}
	.st2{fill:#00A1DF;}
	.st3{fill:#9BCA3B;}
</style>
<title>Asset 1</title>
<g>
	<g id="Layer_1-2">
		<g id="_Group_">
			<path id="_Compound_Path_" class="st0" d="M168.5,91.2l-5.9,6.1v21.2h-6.9V62.1h6.9v26.5l25.4-26.5h9.1l-23.7,24.1l26.5,32.3
				h-9.1L168.5,91.2z"/>
			<path id="_Compound_Path_2" class="st0" d="M241.9,118.5h-6.5v-5.3h-0.2c-3.6,4.3-8.9,6.8-14.5,6.7c-10.8,0-20.3-8.4-20.3-21.3
				c0-12.2,9-21.1,20.8-21.1c7.2,0,11.4,3.8,14.1,7h0.1v-5.7h6.5L241.9,118.5z M221.6,114.1c7.4,0,14.3-6.3,14.3-15.2
				c0-9.4-6.4-15.6-14.2-15.6c-9.9,0-14.6,7.8-14.6,15.4C207.2,106.3,211.9,114.1,221.6,114.1z"/>
			<path id="_Compound_Path_3" class="st0" d="M249,78.9h5.2V66.2h6.5v12.7h10.6v5.5h-10.6v20.9c0,6.4,2,8.2,6.2,8.2
				c1.6,0,3.2-0.2,4.8-0.6v5.4c-2,0.6-4.1,0.9-6.1,0.8c-9.6,0-11.4-6.4-11.4-14V84.3H249L249,78.9z"/>
			<path id="_Compound_Path_4" class="st0" d="M317.8,118.5h-6.6v-5.3H311c-3.6,4.3-8.9,6.8-14.5,6.7c-10.8,0-20.3-8.4-20.3-21.3
				c0-12.2,9-21.1,20.8-21.1c7.2,0,11.4,3.8,14.1,7h0.1v-5.7h6.5L317.8,118.5z M297.5,114.1c7.4,0,14.3-6.3,14.3-15.2
				c0-9.4-6.4-15.6-14.1-15.6c-9.9,0-14.6,7.8-14.6,15.4S287.7,114.1,297.5,114.1L297.5,114.1z"/>
			<path id="_Compound_Path_5" class="st0" d="M329.2,62.1h6.5v56.4h-6.5V62.1z"/>
			<path id="_Compound_Path_6" class="st0" d="M365.6,77.6c12.3,0,21.2,9.1,21.2,21.1c0.2,11.7-9,21.4-20.7,21.6
				c-11.7,0.2-21.4-9-21.6-20.7c0-0.3,0-0.6,0-0.9C344.4,86.4,353.7,77.6,365.6,77.6z M365.6,114c8.4,0,14.4-6.6,14.4-15.3
				c0-8.4-5.7-15.2-14.4-15.2c-8.4,0-14.4,6.4-14.4,15.2C351.2,107.6,358,114,365.6,114z"/>
			<path id="_Compound_Path_7" class="st0" d="M395.5,78.9h6.5v5h0.2c2.9-4,7.6-6.3,12.5-6.3c7.2,0,15.6,4.5,15.6,17.9v23.1h-6.5
				V95.8c0-8-3.9-12.4-10.1-12.4c-7.1,0-11.7,4.8-11.7,14v21.1h-6.5V78.9z"/>
		</g>
		<rect x="54.7" y="53.7" class="st1" width="28" height="74.7"/>
		<polygon class="st2" points="106.1,91 82.7,53.7 54.7,53.7 92.1,113.4 		"/>
		<polygon class="st2" points="108.4,94.8 94.4,117.2 101.4,128.4 129.4,128.4 		"/>
		<polygon class="st3" points="54.7,128.4 82.7,128.4 129.4,53.7 101.4,53.7 		"/>
	</g>
</g>
</svg>
