<?xml version="1.0" encoding="utf-8"?>
<!-- Generator: Adobe Illustrator 23.0.4, SVG Export Plug-In . SVG Version: 6.00 Build 0)  -->
<svg version="1.1" id="Layer_1" xmlns="http://www.w3.org/2000/svg" xmlns:xlink="http://www.w3.org/1999/xlink" x="0px" y="0px"
	 viewBox="0 0 485 182" style="enable-background:new 0 0 485 182;" xml:space="preserve">
<style type="text/css">
	.st0{fill:#326DE6;}
	.st1{fill:#FFFFFF;}
	.st2{fill:#326DE5;}
</style>
<title>Kubernetes_Logo_Hrz_lockup_POS</title>
<g>
	<g id="Layer_1-2">
		<path class="st0" d="M108.8,72.6c-0.4-1.3-1.3-2.3-2.5-2.9L82.4,58.3c-0.6-0.3-1.3-0.4-2-0.4s-1.3,0-2,0.2L54.6,69.6
			c-1.2,0.5-2,1.6-2.4,2.9l-6,25.8c-0.2,1.3,0.1,2.7,0.9,3.8l16.5,20.5c0.9,0.9,2.3,1.6,3.6,1.6h26.4c1.4,0.2,2.7-0.5,3.6-1.6
			l16.5-20.5c0.8-1.1,1.1-2.4,0.9-3.8L108.8,72.6z"/>
		<path class="st1" d="M105.1,97.2L105.1,97.2C105,97.2,105,97.2,105.1,97.2c-0.1-0.2-0.3-0.2-0.4-0.2c-0.3-0.1-0.6-0.1-0.9-0.1
			c-0.2,0-0.3,0-0.5-0.1h-0.1c-0.9-0.1-1.8-0.2-2.7-0.5c-0.2-0.1-0.5-0.3-0.5-0.5c0-0.1-0.1-0.1-0.1-0.1l0,0l-0.6-0.2
			c0.3-2.3,0.2-4.6-0.3-6.9c-0.5-2.3-1.5-4.5-2.7-6.4l0.5-0.5l0,0v-0.1c0-0.2,0.1-0.5,0.2-0.7c0.7-0.5,1.4-1.1,2.2-1.5l0,0
			c0.2-0.1,0.3-0.2,0.5-0.2c0.3-0.2,0.5-0.3,0.9-0.5c0.1-0.1,0.2-0.1,0.2-0.2c0.1-0.1,0.1-0.1,0.1-0.1l0,0c0.7-0.5,0.9-1.5,0.3-2.2
			c-0.2-0.3-0.7-0.5-1.1-0.5s-0.8,0.2-1.1,0.4l0,0l-0.1,0.1c-0.1,0.1-0.2,0.2-0.2,0.2c-0.2,0.2-0.5,0.5-0.6,0.7
			c-0.1,0.2-0.2,0.2-0.3,0.3l0,0c-0.6,0.6-1.3,1.3-2,1.7c-0.2,0.1-0.3,0.2-0.5,0.2c-0.1,0-0.2,0-0.3-0.1l0,0l-0.6,0.5
			c-0.6-0.6-1.3-1.3-2-1.9c-2.9-2.3-6.5-3.7-10.2-4.1L82,73.2l0,0l-0.1-0.1c-0.2-0.2-0.3-0.4-0.4-0.6c0-0.9,0-1.7,0.2-2.7v-0.1
			c0-0.2,0.1-0.3,0.1-0.5c0.1-0.3,0.1-0.6,0.2-0.9v-0.5l0,0c0.1-0.8-0.5-1.6-1.3-1.6c-0.5,0-0.9,0.2-1.3,0.5
			c-0.3,0.3-0.5,0.7-0.5,1.1l0,0v0.4c0,0.3,0.1,0.6,0.2,0.9c0.1,0.2,0.1,0.3,0.1,0.5v0.1c0.2,0.9,0.2,1.7,0.2,2.7
			c-0.1,0.2-0.2,0.5-0.4,0.6l-0.1,0.1l0,0l-0.1,0.6c-0.9,0.1-1.7,0.2-2.7,0.4c-3.7,0.8-7.1,2.7-9.6,5.5L66,79.4h-0.1
			c-0.1,0-0.2,0.1-0.3,0.1s-0.4-0.1-0.5-0.2c-0.7-0.5-1.3-1.2-2-1.8l0,0c-0.1-0.2-0.2-0.2-0.3-0.3c-0.2-0.2-0.4-0.5-0.6-0.7
			c-0.1-0.1-0.2-0.1-0.2-0.2c-0.1-0.1-0.1-0.1-0.1-0.1l0,0c-0.3-0.2-0.7-0.4-1.1-0.4c-0.5,0-0.9,0.2-1.2,0.5
			c-0.5,0.7-0.3,1.6,0.3,2.2l0,0c0.1,0,0.1,0.1,0.1,0.1s0.2,0.2,0.2,0.2c0.2,0.2,0.5,0.3,0.9,0.5c0.2,0.1,0.3,0.2,0.5,0.2l0,0
			c0.8,0.5,1.5,0.9,2.2,1.5c0.2,0.2,0.3,0.5,0.2,0.7v0.1l0,0l0.5,0.5c-0.1,0.2-0.2,0.2-0.2,0.4c-2.4,3.8-3.4,8.4-2.7,12.9l-0.6,0.2
			l0,0c0,0.1-0.1,0.1-0.1,0.1c-0.1,0.2-0.3,0.4-0.5,0.5c-0.9,0.2-1.7,0.4-2.7,0.5h-0.1c-0.2,0-0.3,0-0.5,0.1c-0.3,0-0.6,0.1-0.9,0.1
			c-0.1,0-0.2,0.1-0.3,0.1c-0.1,0-0.1,0-0.2,0.1l0,0c-0.9,0.2-1.4,0.9-1.3,1.8c0.2,0.7,0.9,1.2,1.6,1.1c0.2,0,0.2,0,0.4-0.1l0,0
			c0.1,0,0.1,0,0.1-0.1c0-0.1,0.2-0.1,0.3-0.1c0.3-0.1,0.6-0.2,0.9-0.3c0.2-0.1,0.3-0.2,0.5-0.2h0.1c0.8-0.3,1.6-0.5,2.5-0.7h0.1
			c0.2,0,0.5,0.1,0.6,0.2c0.1,0,0.1,0.1,0.1,0.1l0,0l0.7-0.1c1.2,3.6,3.4,6.8,6.4,9.2c0.7,0.5,1.3,1,2.1,1.4l-0.3,0.6l0,0
			c0,0.1,0.1,0.1,0.1,0.1c0.2,0.2,0.2,0.5,0.1,0.8c-0.3,0.8-0.8,1.6-1.3,2.3v0.1c-0.1,0.2-0.2,0.2-0.3,0.4c-0.2,0.2-0.3,0.5-0.5,0.8
			c-0.1,0.1-0.1,0.2-0.2,0.2c0,0,0,0.1-0.1,0.1l0,0c-0.4,0.8-0.1,1.7,0.6,2.1c0.2,0.1,0.4,0.2,0.6,0.2c0.6,0,1.2-0.4,1.5-0.9l0,0
			c0,0,0-0.1,0.1-0.1c0-0.1,0.1-0.2,0.2-0.2c0.1-0.3,0.2-0.5,0.3-0.9l0.2-0.5l0,0c0.2-0.9,0.6-1.6,1-2.4c0.2-0.2,0.4-0.4,0.6-0.5
			c0.1,0,0.1,0,0.1-0.1l0,0l0.3-0.6c2.2,0.9,4.5,1.3,6.8,1.3c1.4,0,2.8-0.2,4.2-0.5c0.9-0.2,1.7-0.5,2.5-0.7l0.3,0.5l0,0
			c0.1,0,0.1,0,0.1,0.1c0.2,0.1,0.5,0.2,0.6,0.5c0.4,0.8,0.7,1.6,1,2.4v0.1l0.2,0.5c0.1,0.3,0.2,0.6,0.3,0.9
			c0.1,0.1,0.1,0.2,0.2,0.2c0,0,0,0.1,0.1,0.1l0,0c0.3,0.5,0.9,0.9,1.5,0.9c0.2,0,0.4-0.1,0.6-0.2c0.3-0.2,0.6-0.5,0.7-0.9
			c0.1-0.4,0.1-0.9-0.1-1.3l0,0c0-0.1-0.1-0.1-0.1-0.1c0-0.1-0.1-0.2-0.2-0.2c-0.2-0.3-0.3-0.5-0.5-0.8c-0.1-0.2-0.2-0.2-0.3-0.4
			v-0.1c-0.5-0.7-0.9-1.5-1.3-2.3c-0.1-0.2-0.1-0.5,0.1-0.8c0-0.1,0.1-0.1,0.1-0.1l0,0l-0.2-0.6c4.1-2.4,7.1-6.2,8.5-10.7l0.6,0.1
			l0,0c0.1,0,0.1-0.1,0.1-0.1c0.2-0.2,0.4-0.2,0.6-0.2h0.1c0.9,0.2,1.7,0.4,2.5,0.7h0.1c0.2,0.1,0.3,0.2,0.5,0.2
			c0.3,0.2,0.5,0.2,0.9,0.3c0.1,0,0.2,0.1,0.3,0.1c0.1,0,0.1,0,0.2,0.1l0,0c0.2,0.1,0.2,0.1,0.4,0.1c0.7,0,1.3-0.5,1.6-1.1
			C106.4,98,105.9,97.4,105.1,97.2z M82.5,94.8l-2.1,1l-2.1-1l-0.6-2.3l1.5-1.9h2.4l1.5,1.9L82.5,94.8z M95.3,89.7
			c0.4,1.6,0.5,3.3,0.3,4.9l-7.4-2.1l0,0c-0.7-0.2-1.1-0.9-0.9-1.6c0.1-0.2,0.2-0.4,0.3-0.5l5.9-5.3C94.3,86.5,94.9,88.1,95.3,89.7
			L95.3,89.7z M91,82.2l-6.4,4.5C84.1,87,83.4,87,83,86.4c-0.2-0.2-0.2-0.3-0.2-0.5L82.3,78C85.6,78.3,88.7,79.8,91,82.2z
			 M76.8,78.2l1.6-0.3l-0.5,7.8l0,0c0,0.7-0.6,1.3-1.3,1.3c-0.2,0-0.4-0.1-0.6-0.2l-6.4-4.6C71.6,80.2,74.1,78.8,76.8,78.2z
			 M67.3,85.1l5.8,5.2l0,0c0.5,0.5,0.6,1.3,0.2,1.8c-0.2,0.2-0.3,0.3-0.6,0.4l-7.5,2.2C64.8,91.4,65.6,88,67.3,85.1z M66,98.3
			l7.8-1.3c0.6,0,1.3,0.4,1.3,1c0.1,0.2,0.1,0.5-0.1,0.8l0,0l-3,7.2C69.2,104.2,67,101.5,66,98.3z M83.7,108.1
			c-1.1,0.2-2.3,0.4-3.4,0.4c-1.6,0-3.4-0.3-4.9-0.8l3.8-7c0.4-0.5,1-0.6,1.6-0.3c0.2,0.2,0.4,0.3,0.6,0.5l0,0l3.8,6.8
			C84.8,107.8,84.3,107.9,83.7,108.1z M93.3,101.2c-1.2,1.9-2.8,3.5-4.7,4.7l-3.1-7.3c-0.2-0.6,0.1-1.3,0.7-1.6
			c0.2-0.1,0.5-0.2,0.7-0.2l7.8,1.3C94.4,99.4,93.9,100.4,93.3,101.2z"/>
		<g id="layer1">
			<g id="text4373">
				<path id="path2985" class="st2" d="M144.8,93.9c0.9-0.9,1.6-1.9,2.6-2.8c0.9-1,1.7-2,2.6-2.9c0.9-1,1.6-1.9,2.4-2.7
					c0.7-0.9,1.4-1.6,2-2.3h10c-2,2.3-4,4.5-5.9,6.7c-2,2.1-4,4.3-6.3,6.5c1.3,1.2,2.4,2.4,3.5,3.7c1.2,1.4,2.4,2.8,3.5,4.4
					c1.1,1.5,2.2,3.1,3.1,4.5c0.9,1.5,1.7,2.9,2.4,4.2h-9.6c-0.6-1-1.3-2-2.1-3.2c-0.8-1.2-1.6-2.4-2.4-3.6
					c-0.9-1.2-1.8-2.4-2.8-3.4c-0.9-1-1.8-2-2.8-2.7v13.1h-8.5v-43l8.5-1.3L144.8,93.9"/>
				<path id="path2987" class="st2" d="M194.1,111.9c-1.8,0.5-3.7,0.9-5.6,1.1c-2.4,0.4-4.8,0.5-7.1,0.5c-2.2,0.1-4.3-0.3-6.4-1
					c-1.6-0.6-2.9-1.6-4-2.8c-1-1.3-1.7-2.8-2.1-4.5c-0.5-1.8-0.6-3.8-0.6-5.6V83h8.5v15.6c0,2.7,0.4,4.7,1.1,5.9
					c0.7,1.2,2,1.8,4,1.9c0.6,0,1.3,0,2-0.1c0.7-0.1,1.3-0.1,1.8-0.2V83h8.5L194.1,111.9"/>
				<path id="path2989" class="st2" d="M221.3,97.8c0-5.5-2-8.2-6-8.2c-0.9,0-1.7,0.1-2.6,0.3c-0.7,0.2-1.4,0.5-2,0.9v15.4
					c0.4,0.1,0.9,0.2,1.6,0.2c0.6,0.1,1.3,0.1,2.1,0.1c2,0.2,4-0.7,5.3-2.4C220.7,102.3,221.3,100.1,221.3,97.8 M229.9,98.1
					c0,2.2-0.3,4.4-1.1,6.5c-0.6,1.9-1.6,3.5-3,4.9c-1.4,1.4-3.1,2.5-4.9,3.2c-2.1,0.8-4.3,1.1-6.6,1.1c-1,0-2.1-0.1-3.2-0.2
					c-1.1-0.1-2.2-0.2-3.3-0.3c-1-0.2-2-0.3-3.1-0.5c-1-0.2-1.9-0.5-2.6-0.8V70.2l8.5-1.3v14.9c0.9-0.4,2-0.7,3-0.9
					c1.1-0.2,2.2-0.3,3.3-0.3c2,0,3.8,0.3,5.6,1.2c1.6,0.7,3,1.8,4.1,3.1c1.2,1.5,2,3.1,2.5,4.9C229.6,93.7,230,95.9,229.9,98.1"/>
				<path id="path2991" class="st2" d="M235,98.3c-0.1-2.4,0.4-4.7,1.2-6.9c0.7-1.9,1.8-3.5,3.2-5c1.3-1.3,2.8-2.4,4.5-3
					c1.7-0.7,3.5-1,5.3-1c4.2,0,7.6,1.3,10,3.9c2.4,2.6,3.7,6.4,3.7,11.4c0,0.5,0,1-0.1,1.6c-0.1,0.6-0.1,1.1-0.1,1.6h-19.2
					c0.2,1.6,1,3.1,2.4,4.1c1.7,1.1,3.8,1.6,5.8,1.6c1.5,0,3.1-0.2,4.5-0.4c1.3-0.2,2.5-0.6,3.7-1.1l1.2,6.9
					c-0.5,0.3-1.2,0.5-1.8,0.7c-0.9,0.2-1.7,0.5-2.6,0.5c-0.9,0.2-1.9,0.3-3,0.5c-1,0.1-2.1,0.2-3.2,0.2c-2.4,0.1-4.8-0.3-7.1-1.2
					c-1.9-0.7-3.5-1.8-4.9-3.2c-1.3-1.4-2.3-3.1-2.9-4.9C235.3,102.4,235,100.3,235,98.3 M254.8,95c0-0.7-0.2-1.4-0.4-2.1
					c-0.2-0.7-0.5-1.3-0.9-1.8c-0.5-0.5-1-1-1.6-1.3c-0.8-0.4-1.6-0.5-2.4-0.5c-0.9,0-1.6,0.2-2.4,0.5c-0.6,0.3-1.3,0.7-1.7,1.3
					c-0.5,0.5-0.9,1.2-1.1,1.9c-0.2,0.7-0.4,1.4-0.5,2.1H254.8"/>
				<path id="path2993" class="st2" d="M287.6,90.6c-0.8-0.2-1.6-0.4-2.7-0.5c-1.1-0.2-2.2-0.3-3.3-0.3c-0.6,0-1.3,0.1-2,0.2
					c-0.5,0.1-1.1,0.2-1.6,0.3V113h-8.5V84.6c1.7-0.6,3.5-1.1,5.3-1.5c2.3-0.5,4.6-0.8,6.9-0.7c0.5,0,1.1,0.1,1.6,0.1
					c0.6,0,1.3,0.1,2,0.2c0.6,0.1,1.3,0.2,2,0.3c0.5,0.1,1.1,0.2,1.6,0.5L287.6,90.6"/>
				<path id="path2995" class="st2" d="M293.5,84.1c1.8-0.5,3.7-0.9,5.6-1.2c2.4-0.4,4.8-0.5,7.1-0.5c2.1-0.1,4.2,0.3,6.3,1
					c1.6,0.5,3,1.5,4,2.7c1,1.3,1.7,2.7,2.1,4.3c0.5,1.8,0.6,3.7,0.6,5.6v16.9h-8.5V97.1c0-2.7-0.4-4.6-1.1-5.8
					c-0.7-1.1-2-1.7-4-1.7c-0.6,0-1.3,0-2,0.1c-0.7,0-1.3,0.1-1.8,0.2v23h-8.5L293.5,84.1"/>
				<path id="path2997" class="st2" d="M325.7,98.3c-0.1-2.4,0.4-4.7,1.2-6.9c0.7-1.9,1.8-3.5,3.2-5c1.3-1.3,2.8-2.4,4.5-3
					c1.7-0.7,3.5-1,5.3-1c4.2,0,7.6,1.3,10,3.9c2.4,2.6,3.7,6.4,3.7,11.4c0,0.5,0,1-0.1,1.6c0,0.6-0.1,1.1-0.1,1.6h-19.2
					c0.2,1.6,1,3.1,2.4,4.1c1.7,1.1,3.8,1.6,5.8,1.6c1.5,0,3.1-0.2,4.5-0.4c1.3-0.2,2.5-0.6,3.7-1.1l1.2,6.9
					c-0.5,0.3-1.2,0.5-1.8,0.7c-0.9,0.2-1.7,0.5-2.6,0.5c-0.9,0.2-1.9,0.3-3,0.5c-1,0.1-2.1,0.2-3.2,0.2c-2.4,0.1-4.8-0.3-7.1-1.2
					c-1.9-0.7-3.5-1.8-4.9-3.2c-1.3-1.4-2.3-3.1-2.9-4.9C325.9,102.4,325.6,100.3,325.7,98.3 M345.5,95c0-0.7-0.2-1.4-0.4-2.1
					c-0.2-0.7-0.5-1.3-0.9-1.9c-0.5-0.5-1-1-1.6-1.3c-0.8-0.4-1.6-0.5-2.4-0.5c-0.9,0-1.6,0.2-2.4,0.5c-0.6,0.3-1.3,0.7-1.7,1.3
					s-0.9,1.2-1.1,1.9c-0.2,0.7-0.4,1.4-0.5,2.1L345.5,95"/>
				<path id="path2999" class="st2" d="M359.9,75.6l8.5-1.3V83h10.2v7.1h-10.2v10.5c-0.1,1.5,0.2,3,0.9,4.2c0.6,1,1.9,1.6,3.8,1.6
					c0.9,0,1.9-0.1,2.7-0.2c0.9-0.2,1.8-0.4,2.7-0.7l1.2,6.6c-1.1,0.5-2.3,0.8-3.4,1.1c-1.5,0.3-3.1,0.5-4.6,0.5
					c-2,0.1-3.9-0.2-5.7-0.9c-1.4-0.5-2.7-1.5-3.6-2.6c-0.9-1.2-1.6-2.6-2-4.1c-0.4-1.7-0.5-3.5-0.5-5.3V75.6"/>
				<path id="path3001" class="st2" d="M382.9,98.3c-0.1-2.4,0.4-4.7,1.2-6.9c0.7-1.9,1.8-3.5,3.2-5c1.3-1.3,2.8-2.4,4.5-3
					c1.7-0.7,3.5-1,5.3-1c4.2,0,7.6,1.3,10,3.9c2.4,2.6,3.7,6.4,3.7,11.4c0,0.5,0,1-0.1,1.6c0,0.6-0.1,1.1-0.1,1.6h-19.2
					c0.2,1.6,1.1,3.1,2.4,4.1c1.7,1.1,3.8,1.6,5.8,1.6c1.5,0,3.1-0.2,4.5-0.4c1.3-0.2,2.5-0.6,3.7-1.1l1.2,6.9
					c-0.5,0.3-1.2,0.5-1.8,0.7c-0.9,0.2-1.7,0.5-2.6,0.5c-0.9,0.2-1.9,0.3-3,0.5c-1,0.1-2.1,0.2-3.2,0.2c-2.4,0.1-4.8-0.3-7.1-1.2
					c-1.9-0.7-3.5-1.8-4.9-3.2c-1.3-1.4-2.3-3.1-2.9-4.9C383.2,102.4,382.9,100.3,382.9,98.3 M402.8,95c0-0.7-0.2-1.4-0.4-2.1
					c-0.2-0.7-0.5-1.3-0.9-1.9c-0.5-0.5-1-1-1.6-1.3c-0.8-0.4-1.6-0.5-2.4-0.5c-0.9,0-1.6,0.2-2.4,0.5c-0.6,0.3-1.3,0.7-1.7,1.3
					c-0.5,0.5-0.9,1.2-1.1,1.9c-0.2,0.7-0.4,1.4-0.5,2.1L402.8,95"/>
				<path id="path3003" class="st2" d="M426.1,106.9c1.1,0.1,2.3-0.1,3.3-0.5c0.6-0.3,1-1,0.9-1.7c-0.1-0.8-0.5-1.5-1.3-1.7
					c-1.2-0.7-2.5-1.3-3.8-1.7c-1.3-0.5-2.5-1-3.6-1.6c-1-0.5-1.9-1.1-2.7-1.9c-0.8-0.8-1.3-1.6-1.7-2.7c-0.5-1.2-0.6-2.4-0.6-3.7
					c-0.1-2.6,1.1-5.1,3.1-6.7c2.1-1.6,4.9-2.4,8.5-2.4c1.7,0,3.5,0.2,5.3,0.5c1.3,0.2,2.7,0.5,4,1l-1.5,6.6
					c-1.1-0.4-2.1-0.6-3.2-0.9c-1.3-0.2-2.6-0.4-3.8-0.3c-2.7,0-4,0.7-4,2.2c0,0.3,0.1,0.6,0.2,0.9c0.2,0.3,0.4,0.5,0.7,0.8
					c0.3,0.2,0.8,0.5,1.3,0.8s1.3,0.6,2.3,0.9c1.6,0.5,3.1,1.3,4.6,2c1.1,0.5,2,1.3,2.8,2.2c0.7,0.7,1.2,1.6,1.5,2.6
					c0.3,1.1,0.5,2.2,0.5,3.3c0.2,2.7-1.1,5.3-3.4,6.7c-2.2,1.5-5.3,2.3-9.4,2.3c-2.3,0.1-4.5-0.2-6.7-0.7c-1.3-0.3-2.4-0.7-3.6-1.1
					l1.4-6.9c1.4,0.5,2.9,1,4.4,1.3C423,106.7,424.5,106.9,426.1,106.9"/>
			</g>
		</g>
	</g>
</g>
</svg>
