<?xml version="1.0" encoding="utf-8"?>
<!-- Generator: Adobe Illustrator 23.0.4, SVG Export Plug-In . SVG Version: 6.00 Build 0)  -->
<svg version="1.1" id="Layer_1" xmlns="http://www.w3.org/2000/svg" xmlns:xlink="http://www.w3.org/1999/xlink" x="0px" y="0px"
	 viewBox="0 0 485 182" style="enable-background:new 0 0 485 182;" xml:space="preserve">
<g>
	<g>
		<defs>
			<path id="SVGID_1_" d="M100.7,129.1c20.3,0,36.8-17.1,36.8-38.1c0-2-0.2-4-0.5-5.9c0,0.6,0.1,1.3,0.1,1.9
				c0,18.4-14.5,33.3-32.3,33.3c-8,0-15.3-3-21-8c-2.5,2.4-5.9,4.1-9.5,5.3C81.1,124.7,90.4,129.1,100.7,129.1L100.7,129.1z
				 M72.6,87c0-18.4,14.5-33.3,32.3-33.3c1.5,0,3,0.1,4.5,0.4c-2.8-0.7-5.8-1.1-8.7-1.1C80.4,52.9,63.9,70,63.9,91
				c0,5.4,1.1,10.6,3.1,15.2c3.2-3,6-4.9,8.3-6C73.6,96.1,72.6,91.7,72.6,87L72.6,87z M88.7,90.6c1.9-2.8,4.2-6,6.9-9.2
				c-6.9-3-13.8-1.1-17,0.2C84,84.3,87,87.8,88.7,90.6L88.7,90.6z M140.9,58.1c-1.2,4.4-3.8,8.4-7.9,11.9l-0.3,0.2
				c-0.9,0.8-2.3,0.6-3.6-0.4c-0.9-0.7-1.6-1.7-1.6-2.7c0-0.3,0.1-0.6,0.2-0.9c0-0.1,0.1-0.2,0.2-0.3c3.4-3.2,5.3-5.8,6.4-7.7
				c-5.2,0.5-10.4,2-15.4,4.6c-7.4,4-14.7,11-20.6,17.9c-0.2,0.2-0.4,0.5-0.6,0.7c-0.2,0.2-0.4,0.5-0.6,0.7c-3,3.6-5.6,7.2-7.6,10.2
				c-0.2,0.3-0.4,0.6-0.6,0.9c-0.2,0.3-0.4,0.6-0.6,0.9c-0.8,1.3-1.5,2.4-2,3.4c0.1,0.1,0.3,0.2,0.4,0.3c0.2,0.2,0.5,0.4,0.8,0.7
				c0.2,0.2,0.5,0.5,0.7,0.8c0.5,0.6,1,1.4,1.4,2.4c0.1,0.3,0.2,0.6,0.3,1c0.1,0.3,0.2,0.7,0.2,1c0,0.1,0,0.1,0,0.2
				c0.5-0.1,1.4-0.2,2.5-0.5c0.3-0.1,0.6-0.1,0.9-0.2c0.3-0.1,0.6-0.2,0.9-0.2c0.3-0.1,0.5-0.1,0.8-0.2c-0.2-0.4-0.3-0.7-0.4-0.9
				c-0.1-0.3-0.2-0.5-0.2-0.5c-0.1-0.1-0.1-0.2-0.1-0.3c0-0.1,0-0.3,0-0.4c0.1-0.2,0.3-0.4,0.5-0.5c0.5-0.2,1-0.4,1.5-0.6
				c6.1-2.7,10.6-6.2,10.7-6.2c0.2-0.2,0.6-0.2,0.8-0.1c0.3,0.1,0.5,0.4,0.6,0.7c0.3,1.2,0.4,2.4,0.5,3.5c1.3-0.6,2.6-1.3,3.9-2.1
				c10.6-6,24.7-17.2,32.1-36.3C144.6,58.6,143,58.3,140.9,58.1L140.9,58.1L140.9,58.1z M109.7,89.3c-1.8,0-3.3-1.5-3.3-3.4
				c0-1.9,1.5-3.4,3.3-3.4c1.8,0,3.3,1.5,3.3,3.4C113,87.8,111.5,89.3,109.7,89.3L109.7,89.3L109.7,89.3z M117.1,83.6
				c-1.8,0-3.3-1.5-3.3-3.4c0-1.9,1.5-3.4,3.3-3.4c1.8,0,3.3,1.5,3.3,3.4C120.3,82.1,118.9,83.6,117.1,83.6L117.1,83.6L117.1,83.6z
				 M124.1,78c-1.8,0-3.3-1.5-3.3-3.4c0-1.9,1.5-3.4,3.3-3.4c1.8,0,3.3,1.5,3.3,3.4C127.3,76.5,125.9,78,124.1,78L124.1,78L124.1,78
				z M84.4,101.6c-0.2-0.3-0.4-0.5-0.6-0.7c-0.3-0.3-0.6-0.4-0.8-0.5c-0.3,0.2-0.5,0.4-0.8,0.6c0.2-0.2,0.5-0.4,0.8-0.6c0,0,0,0,0,0
				c-0.7-0.2-3-0.4-6.8,1.4c0,0-0.1,0-0.1,0c0,0,0,0-0.1,0c-2.2,1.1-5,3-8.3,6.1c0,0-0.1,0-0.1,0.1c0,0,0,0-0.1,0.1
				c-2.7,2.5-5.6,5.8-8.9,10.1c2.9-0.1,8.6-0.5,14.1-2.1c0,0,0.1,0,0.1,0c0,0,0.1,0,0.1,0c3.6-1.1,7.1-2.7,9.5-5c0,0,0,0,0.1-0.1
				c0,0,0.1,0,0.1-0.1c1.4-1.3,2.4-2.9,3-4.8c0.1-0.3,0.2-0.6,0.3-1c0.1-0.2,0.1-0.5,0.1-0.7c0-0.1-0.1-0.1-0.1-0.2
				C85.6,103.2,85,102.3,84.4,101.6L84.4,101.6L84.4,101.6z M81.8,101.4C81.8,101.4,81.8,101.4,81.8,101.4
				C81.8,101.4,81.8,101.4,81.8,101.4C81.8,101.4,81.8,101.4,81.8,101.4L81.8,101.4L81.8,101.4z M81.8,101.4
				C81.8,101.4,81.8,101.4,81.8,101.4L81.8,101.4C81.8,101.4,81.8,101.4,81.8,101.4L81.8,101.4L81.8,101.4z M82.7,104.1
				c-0.2,0.2-0.5,0.4-0.8,0.7c-0.2,0.2-0.5,0.4-0.7,0.6c-0.6,0.5-1.3,1-2,1.5c0,0-0.1,0-0.1,0.1c0,0,0,0-0.1,0c-2,1.5-4,2.9-4,2.9
				s2-4.9,1.7-4.8c-2.7,0.8-6.4,4-7.7,5.3c0,0-0.1,0.1-0.1,0.1c0,0,0,0-0.1,0.1c-0.2,0.2-0.4,0.4-0.4,0.4s0.1-0.2,0.3-0.5
				c0,0,0,0,0-0.1c0,0,0-0.1,0.1-0.1c1-1.4,3.8-5,6.8-7.1c0.2-0.2,0.4-0.3,0.6-0.4c0,0,0,0,0.1,0c0,0,0.1,0,0.1,0
				c1.7-0.9,3.5-1,4.7-0.7c0.4,0.1,0.7,0.2,1,0.3c0.3,0.1,0.6,0.3,0.8,0.5c0.3,0.2,0.4,0.4,0.4,0.6
				C83.5,103.3,83.2,103.7,82.7,104.1L82.7,104.1L82.7,104.1z M94.5,105c-0.2,1.5-0.5,3.3-0.9,4.8c1-0.5,2.3-1.4,3.5-2.5
				c-0.3-1-0.6-1.9-0.8-2.8C95.6,104.7,95,104.9,94.5,105L94.5,105L94.5,105z M85.9,100.5c0.8,1,1.4,2.1,1.8,3
				c0.3-0.2,0.5-0.3,0.8-0.5c-0.4-1.4-1.1-2.3-1.8-3C86.4,100.2,86.2,100.3,85.9,100.5L85.9,100.5L85.9,100.5z M107.9,98.1
				c-0.1-0.8-0.2-1.7-0.3-2.6c-1.4,1-3.8,2.6-7,4.2c-0.4,0.2-0.8,0.4-1.2,0.6c-0.7,0.3-1.4,0.6-2.1,0.9c-0.1,0.1-0.3,0.1-0.4,0.2
				c0.1,0.2,0.2,0.5,0.4,0.9c0.1,0.3,0.2,0.5,0.3,0.9c0.1,0.3,0.2,0.6,0.3,0.9c0.2,0.5,0.4,1.1,0.6,1.7c0.1,0.3,0.2,0.7,0.3,1.1
				c0.1,0.3,0.2,0.7,0.3,1.1c0.4,1.9,0.8,4.1,0.8,6.4c0,0.5-0.1,1-0.1,1.5c2.7-1.8,8.1-6.7,8.2-15.6c0-0.1,0-0.3,0-0.4
				c0-0.2,0-0.4,0-0.6C108,98.7,107.9,98.4,107.9,98.1L107.9,98.1L107.9,98.1z M107.9,98.1"/>
		</defs>
		<use xlink:href="#SVGID_1_"  style="overflow:visible;fill-rule:evenodd;clip-rule:evenodd;fill:#18202D;"/>
		<clipPath id="SVGID_2_">
			<use xlink:href="#SVGID_1_"  style="overflow:visible;"/>
		</clipPath>
	</g>
	<g>
		<defs>
			<path id="SVGID_3_" d="M158.8,74h2.5v31.8h19.4v2.3h-21.9V74L158.8,74z M191,106.5c1.2,0,2.4-0.2,3.5-0.6
				c1.1-0.4,2.1-0.9,2.9-1.6c0.8-0.7,1.5-1.5,2-2.4c0.5-0.9,0.7-2,0.7-3.1V96c-1-0.3-2.2-0.5-3.5-0.8c-1.4-0.2-2.9-0.4-4.6-0.4
				c-2.5,0-4.5,0.5-5.9,1.6c-1.4,1.1-2.1,2.5-2.1,4.2v0.1c0,0.9,0.2,1.7,0.6,2.4c0.4,0.7,0.9,1.3,1.5,1.8c0.6,0.5,1.4,0.9,2.2,1.1
				C189.2,106.3,190.1,106.5,191,106.5L191,106.5L191,106.5z M190.9,108.7c-1.1,0-2.3-0.2-3.4-0.5c-1.1-0.3-2.1-0.8-3-1.5
				c-0.9-0.7-1.6-1.5-2.1-2.4c-0.6-1-0.8-2.1-0.8-3.4v-0.1c0-1.3,0.3-2.5,0.8-3.5c0.5-1,1.2-1.9,2.1-2.5c0.9-0.7,2-1.2,3.3-1.6
				c1.3-0.4,2.7-0.5,4.3-0.5c1.7,0,3.2,0.1,4.4,0.3c1.2,0.2,2.4,0.5,3.6,0.8v-1.1c0-2.5-0.7-4.4-2.1-5.7s-3.3-1.9-5.8-1.9
				c-1.5,0-2.8,0.2-4.1,0.6c-1.2,0.4-2.4,0.9-3.5,1.4l-0.8-2.1c1.3-0.7,2.7-1.2,4-1.6c1.4-0.4,2.9-0.6,4.5-0.6
				c3.3,0,5.8,0.9,7.6,2.7c1.6,1.7,2.5,4,2.5,7v15.5h-2.3V104c-0.4,0.6-0.9,1.2-1.5,1.7c-0.6,0.6-1.3,1.1-2,1.5
				c-0.8,0.4-1.6,0.8-2.6,1.1C193.1,108.6,192,108.7,190.9,108.7L190.9,108.7L190.9,108.7z M215.9,108.7c-1.5,0-2.9-0.3-4.1-0.8
				c-1.2-0.5-2.2-1.2-3-2.1c-0.8-0.9-1.5-2-1.9-3.2c-0.4-1.3-0.6-2.6-0.6-4.1V83.2h2.3V98c0,2.6,0.7,4.6,2,6.2
				c1.3,1.5,3.2,2.3,5.7,2.3c1.2,0,2.3-0.2,3.3-0.7c1-0.4,1.9-1,2.7-1.8c0.8-0.8,1.3-1.7,1.8-2.8c0.4-1.1,0.6-2.3,0.6-3.6V83.2h2.3
				v24.9h-2.3v-4.6c-0.8,1.5-1.9,2.7-3.3,3.7C219.9,108.2,218.1,108.7,215.9,108.7L215.9,108.7L215.9,108.7z M231.7,83.2h2.3v4.6
				c0.8-1.5,1.9-2.7,3.3-3.7c1.4-1,3.2-1.5,5.4-1.5c1.5,0,2.9,0.3,4.1,0.8c1.2,0.5,2.2,1.2,3,2.1c0.8,0.9,1.5,2,1.9,3.2
				c0.4,1.3,0.6,2.6,0.6,4.1v15.2H250V93.3c0-2.6-0.7-4.6-2-6.2c-1.3-1.5-3.2-2.3-5.7-2.3c-1.2,0-2.3,0.2-3.3,0.7
				c-1,0.4-1.9,1-2.6,1.8c-0.8,0.8-1.3,1.7-1.8,2.8c-0.4,1.1-0.6,2.3-0.6,3.6v14.4h-2.3V83.2L231.7,83.2z M267.3,108.7
				c-1.7,0-3.3-0.3-4.8-1c-1.5-0.7-2.8-1.6-3.9-2.8c-1.1-1.2-2-2.5-2.6-4.1c-0.6-1.6-0.9-3.2-0.9-5v-0.1c0-1.8,0.3-3.4,0.9-5
				c0.6-1.6,1.5-2.9,2.6-4.1c1.1-1.2,2.4-2.2,3.9-2.9c1.5-0.7,3.1-1,4.8-1c1.1,0,2.2,0.1,3.1,0.4c0.9,0.2,1.8,0.6,2.6,1
				c0.8,0.4,1.5,0.9,2.1,1.5c0.6,0.6,1.3,1.1,1.8,1.8l-1.7,1.8c-1-1.1-2.2-2.1-3.4-2.9c-1.3-0.8-2.8-1.2-4.6-1.2
				c-1.4,0-2.7,0.3-3.8,0.8c-1.2,0.6-2.2,1.3-3.1,2.3c-0.9,1-1.6,2.1-2.1,3.4c-0.5,1.3-0.8,2.7-0.8,4.2v0.1c0,1.5,0.3,2.9,0.8,4.2
				c0.5,1.3,1.2,2.5,2.1,3.4c0.9,1,1.9,1.7,3.1,2.3c1.2,0.6,2.5,0.8,3.9,0.8c1.7,0,3.2-0.4,4.6-1.2c1.3-0.8,2.5-1.8,3.5-3l1.6,1.5
				c-1.2,1.4-2.6,2.6-4.2,3.5C271.4,108.2,269.5,108.7,267.3,108.7L267.3,108.7L267.3,108.7z M279.7,72.5h2.3v15.4
				c0.8-1.5,1.9-2.7,3.3-3.7c1.4-1,3.2-1.5,5.4-1.5c1.5,0,2.9,0.3,4.1,0.8c1.2,0.5,2.2,1.2,3,2.1c0.8,0.9,1.5,2,1.9,3.2
				c0.4,1.3,0.6,2.6,0.6,4.1v15.2H298V93.3c0-2.6-0.7-4.6-2-6.2c-1.3-1.5-3.2-2.3-5.7-2.3c-1.2,0-2.3,0.2-3.3,0.7
				c-1,0.4-1.9,1-2.6,1.8c-0.8,0.8-1.3,1.7-1.8,2.8c-0.4,1.1-0.6,2.3-0.6,3.6v14.4h-2.3V72.5L279.7,72.5z M316.2,105.8
				c2.3,0,4.4-0.4,6.2-1.1c1.9-0.8,3.4-1.8,4.7-3.1c1.3-1.3,2.3-2.9,3-4.6c0.7-1.8,1.1-3.7,1.1-5.7V91c0-2-0.4-3.9-1.1-5.7
				c-0.7-1.8-1.7-3.3-3-4.7c-1.3-1.3-2.9-2.4-4.7-3.2c-1.9-0.8-3.9-1.2-6.2-1.2h-8.5v29.5H316.2L316.2,105.8z M305.2,74h11
				c2.6,0,4.9,0.4,7.1,1.3c2.2,0.9,4,2.1,5.6,3.6c1.6,1.5,2.8,3.3,3.6,5.4c0.8,2.1,1.3,4.3,1.3,6.7V91c0,2.4-0.4,4.6-1.3,6.7
				c-0.8,2.1-2.1,3.9-3.6,5.4c-1.6,1.5-3.4,2.7-5.6,3.6s-4.5,1.3-7.1,1.3h-11V74L305.2,74z M345.1,106.5c1.2,0,2.4-0.2,3.5-0.6
				c1.1-0.4,2.1-0.9,2.9-1.6c0.8-0.7,1.5-1.5,2-2.4c0.5-0.9,0.7-2,0.7-3.1V96c-1-0.3-2.2-0.5-3.5-0.8c-1.4-0.2-2.9-0.4-4.6-0.4
				c-2.5,0-4.5,0.5-5.9,1.6c-1.4,1.1-2.1,2.5-2.1,4.2v0.1c0,0.9,0.2,1.7,0.6,2.4c0.4,0.7,0.9,1.3,1.5,1.8c0.6,0.5,1.4,0.9,2.2,1.1
				C343.3,106.3,344.2,106.5,345.1,106.5L345.1,106.5L345.1,106.5z M344.9,108.7c-1.1,0-2.3-0.2-3.4-0.5c-1.1-0.3-2.1-0.8-3-1.5
				c-0.9-0.7-1.6-1.5-2.1-2.4c-0.6-1-0.8-2.1-0.8-3.4v-0.1c0-1.3,0.3-2.5,0.8-3.5c0.5-1,1.2-1.9,2.1-2.5c0.9-0.7,2-1.2,3.3-1.6
				c1.3-0.4,2.7-0.5,4.3-0.5c1.7,0,3.2,0.1,4.4,0.3c1.2,0.2,2.4,0.5,3.6,0.8v-1.1c0-2.5-0.7-4.4-2.1-5.7c-1.4-1.3-3.3-1.9-5.8-1.9
				c-1.5,0-2.8,0.2-4.1,0.6c-1.2,0.4-2.4,0.9-3.5,1.4l-0.8-2.1c1.3-0.7,2.7-1.2,4-1.6c1.4-0.4,2.9-0.6,4.5-0.6
				c3.3,0,5.8,0.9,7.6,2.7c1.6,1.7,2.5,4,2.5,7v15.5h-2.3V104c-0.4,0.6-0.9,1.2-1.5,1.7c-0.6,0.6-1.3,1.1-2,1.5
				c-0.8,0.4-1.6,0.8-2.6,1.1C347.1,108.6,346.1,108.7,344.9,108.7L344.9,108.7L344.9,108.7z M360.7,83.2h2.3v7.1
				c0.5-1.1,1.1-2.1,1.8-3.1c0.7-0.9,1.5-1.7,2.5-2.4c0.9-0.7,1.9-1.2,3-1.5c1.1-0.3,2.2-0.5,3.4-0.5v2.6h-0.2c-1.4,0-2.7,0.3-4,0.8
				c-1.3,0.5-2.4,1.3-3.3,2.4c-1,1.1-1.7,2.4-2.3,3.9c-0.6,1.5-0.8,3.3-0.8,5.3v10.2h-2.3V83.2L360.7,83.2z M375.7,72.5h2.3v26.7
				l14.9-15.9h3.1l-10.5,11l10.9,13.8h-2.9L383.8,96l-5.9,6.1v6h-2.3V72.5L375.7,72.5z M398.5,72.5h2.3v35.6h-2.3V72.5L398.5,72.5z
				 M408.9,116.1c-0.9,0-1.7-0.1-2.5-0.3s-1.5-0.4-2.3-0.8l0.8-2.1c0.6,0.3,1.2,0.6,1.8,0.7c0.6,0.1,1.4,0.2,2.3,0.2
				c0.6,0,1.2-0.1,1.7-0.3c0.5-0.2,1-0.5,1.5-1c0.5-0.5,0.9-1.1,1.4-1.8c0.4-0.7,0.9-1.7,1.3-2.7l-11.6-24.7h2.7l10,22.2l8.7-22.2
				h2.5L416.9,109c-1.1,2.6-2.2,4.4-3.5,5.5C412.1,115.5,410.6,116.1,408.9,116.1L408.9,116.1L408.9,116.1z M408.9,116.1"/>
		</defs>
		<use xlink:href="#SVGID_3_"  style="overflow:visible;fill-rule:evenodd;clip-rule:evenodd;fill:#18202D;"/>
		<clipPath id="SVGID_4_">
			<use xlink:href="#SVGID_3_"  style="overflow:visible;"/>
		</clipPath>
	</g>
</g>
</svg>
