<?xml version="1.0" encoding="utf-8"?>
<!-- Generator: Adobe Illustrator 23.0.4, SVG Export Plug-In . SVG Version: 6.00 Build 0)  -->
<svg version="1.1" id="Layer_1" xmlns="http://www.w3.org/2000/svg" xmlns:xlink="http://www.w3.org/1999/xlink" x="0px" y="0px"
	 viewBox="0 0 485 182" style="enable-background:new 0 0 485 182;" xml:space="preserve">
<style type="text/css">
	.st0{fill:#FFFFFF;}
	.st1{fill:#FF6C37;}
</style>
<title>hor-white-logo</title>
<g>
	<g id="Layer_2-2">
		<path class="st0" d="M134.4,44c-26-3.3-49.7,15-53.1,41s15,49.7,41,53.1c26,3.3,49.7-15,53.1-41c0,0,0-0.1,0-0.1
			C178.7,71.1,160.3,47.4,134.4,44z"/>
		<path class="st1" d="M203.8,75.2h-8.1c-0.4,0-0.8,0.1-1,0.4c-0.3,0.2-0.4,0.5-0.4,0.9v28.7c0,0.4,0.2,0.8,0.6,1
			c0.8,0.5,1.8,0.5,2.5,0c0.4-0.2,0.6-0.5,0.6-1V94h5.6c2.4,0.1,4.8-0.7,6.7-2.2c1.8-1.9,2.7-4.4,2.5-7v-0.4c0.2-2.5-0.6-5.1-2.4-7
			C208.6,75.8,206.2,75.1,203.8,75.2z M209.4,85.1c0.1,1.6-0.4,3.3-1.5,4.5c-1.2,1.1-2.7,1.7-4.3,1.6H198V78.4h5.6
			c1.6-0.1,3.1,0.5,4.2,1.5c1.1,1.3,1.6,2.9,1.5,4.5L209.4,85.1z"/>
		<path class="st1" d="M227.9,77.3c-1.8,1.9-2.7,4.5-2.5,7.1v12.9c-0.2,2.6,0.7,5.2,2.5,7.1c4,3,9.5,3,13.4,0
			c1.9-1.9,2.8-4.5,2.5-7.1V84.5c0.3-2.7-0.7-5.3-2.5-7.2C237.4,74.3,231.9,74.3,227.9,77.3z M240.3,97.3c0.1,1.7-0.4,3.3-1.5,4.6
			c-1.1,1.1-2.6,1.6-4.1,1.5c-3.8,0-5.6-2.1-5.6-6.1V84.5c0-4.1,1.9-6.1,5.6-6.1c1.6-0.1,3,0.4,4.1,1.5c1.1,1.3,1.6,2.9,1.5,4.5
			V97.3z"/>
		<path class="st1" d="M270.2,89.6c-1.4-0.6-2.8-1.2-4.1-1.7c-1.3-0.4-2.5-1.1-3.6-1.9c-1-0.8-1.5-2-1.4-3.2
			c-0.1-1.3,0.5-2.6,1.6-3.4c1.3-0.7,2.7-1.1,4.1-1c1.4,0,2.7,0.2,4,0.8c0.6,0.3,1.3,0.6,1.9,0.8c0.5,0,0.9-0.3,1.1-0.7
			c0.2-0.4,0.4-0.8,0.4-1.3c0-0.9-0.8-1.6-2.4-2.1c-1.6-0.5-3.3-0.8-5.1-0.7c-1.1,0-2.2,0.1-3.3,0.4c-1,0.3-2.1,0.7-3,1.2
			c-1,0.6-1.8,1.5-2.3,2.5c-0.6,1.2-0.9,2.6-0.9,3.9c-0.1,1.7,0.4,3.3,1.4,4.7c0.9,1.2,2.1,2.1,3.6,2.8c1.4,0.6,2.8,1.1,4.1,1.6
			c1.3,0.5,2.5,1.3,3.5,2.2c1,1,1.5,2.4,1.4,3.8c0.1,1.5-0.5,3-1.6,4c-1.3,1-2.8,1.4-4.4,1.3c-1.1,0-2.1-0.1-3.1-0.5
			c-0.7-0.2-1.4-0.7-2-1.2l-1.3-1.3c-0.3-0.3-0.6-0.5-1-0.5c-0.4,0-0.8,0.3-1,0.6c-0.3,0.4-0.5,0.8-0.5,1.3c0,1,0.9,2.1,2.8,3.1
			c1.9,1.1,4.2,1.7,6.4,1.6c2.5,0.1,4.9-0.7,6.8-2.2c1.8-1.7,2.7-4.2,2.6-6.7C275.3,94.4,273.4,91.1,270.2,89.6L270.2,89.6z"/>
		<path class="st1" d="M304.5,75.2h-17.4c-0.4,0-0.7,0.2-1,0.5c-0.5,0.7-0.5,1.6,0,2.3c0.2,0.3,0.6,0.5,1,0.5h6.9v26.7
			c0,0.4,0.2,0.7,0.5,1c0.8,0.5,1.8,0.5,2.5,0c0.4-0.2,0.6-0.5,0.6-1V78.5h6.8c0.4,0,0.7-0.2,1-0.5c0.2-0.3,0.4-0.7,0.3-1.2
			c0-0.4-0.1-0.8-0.3-1.1C305.2,75.4,304.9,75.2,304.5,75.2z"/>
		<path class="st1" d="M339.1,75.2c-1.1,0-2,0.7-2.8,2.3l-6.8,12.9l-6.7-12.9c-0.8-1.5-1.7-2.3-2.8-2.3h-0.7c-0.8,0.1-1.4,1-1.3,1.8
			v28.1c0,0.4,0.2,0.8,0.6,1c0.4,0.2,0.8,0.4,1.3,0.3c0.4,0,0.8-0.1,1.2-0.4c0.4-0.2,0.6-0.5,0.6-1V82.5l6.5,12.4
			c0.2,0.6,0.7,1,1.3,1c0.7,0,1.2-0.4,1.4-1l6.5-12.2v22.4c0,0.4,0.2,0.7,0.5,1c0.8,0.4,1.7,0.4,2.5,0c0.4-0.2,0.6-0.5,0.6-1V76.9
			c0-0.1,0-0.3,0-0.4l0,0C340.7,75.7,339.9,75.1,339.1,75.2z"/>
		<path class="st1" d="M364.2,75.2c-1.2,0-1.9,0.4-2.2,1.2l-8.8,28.2c0,0.1,0,0.2,0,0.3c0,0.5,0.3,0.9,0.7,1.1
			c0.4,0.3,1,0.4,1.5,0.4c0.6,0.1,1.1-0.3,1.3-0.8l1.9-6.2h11.1l1.9,6.2c0.2,0.5,0.7,0.9,1.3,0.8c0.5,0,1.1-0.1,1.6-0.4
			c0.4-0.2,0.7-0.6,0.7-1 M375.1,105v-0.1l-8.8-28.4c-0.2-0.8-0.9-1.2-2.1-1.2L375.1,105z M359.4,96.4l4.8-16l4.8,16L359.4,96.4
			L359.4,96.4z"/>
		<path class="st1" d="M405.9,75.5c-0.8-0.4-1.7-0.4-2.5,0c-0.3,0.2-0.5,0.5-0.6,0.9v21.9l-10.7-20.9c-0.3-0.7-0.7-1.3-1.2-1.8
			c-0.4-0.4-1-0.5-1.5-0.5c-1.2,0-1.8,0.4-1.8,1.3v28.7c0,0.4,0.2,0.7,0.5,1c0.8,0.5,1.8,0.5,2.5,0c0.3-0.2,0.5-0.6,0.5-1V83.4
			l11.1,21.5c0.4,1,1.3,1.6,2.2,1.6c0.4,0,0.9-0.1,1.3-0.4c0.3-0.2,0.5-0.6,0.5-1V76.4C406.4,76.1,406.2,75.7,405.9,75.5z"/>
		<path class="st1" d="M156.8,66.3c-0.3,0.1-0.4,0.4-0.3,0.7c0,0,0,0,0,0.1c0.3,0.6,0.2,1.3-0.2,1.9c-0.2,0.2-0.2,0.6,0,0.8
			c0,0,0,0,0,0c0.1,0,0.3,0,0.4,0c0.1,0,0.3-0.1,0.4-0.2c0.7-0.9,0.9-2.1,0.4-3.1C157.4,66.2,157.1,66.1,156.8,66.3z"/>
		<path class="st1" d="M134.7,41.7c-27.2-3.5-52.1,15.7-55.6,43c-3.5,27.2,15.7,52.2,43,55.6c27.2,3.5,52.1-15.7,55.6-43
			C181.2,70.1,161.9,45.2,134.7,41.7C134.7,41.7,134.7,41.7,134.7,41.7z M144.9,72.7c-0.9,0-1.8,0.4-2.4,1L124,92.2l-3.9-3.9
			C138.2,70.1,141.6,69.9,144.9,72.7z M124.8,92.8l18.4-18.3c1-1,2.6-1,3.6,0c0.5,0.5,0.8,1.2,0.7,1.9c0,0.7-0.3,1.4-0.9,1.9
			l-19.4,17.1L124.8,92.8z M126.2,95.6l-4.6,1.2c-0.1,0.1-0.2,0.1-0.3,0c-0.1-0.1-0.1-0.2,0-0.3l2.8-2.8L126.2,95.6z M114.5,93.7
			l4.9-4.9l3.7,3.8l-8.3,1.8c-0.2,0-0.4-0.1-0.4-0.3c0-0.1,0-0.2,0.1-0.3L114.5,93.7z M99.4,119c-0.1,0-0.2-0.1-0.3-0.2
			c0-0.1,0-0.2,0-0.3l3.9-3.9l5.1,5L99.4,119z M109.5,113.8L109.5,113.8c-0.4,0.2-0.6,0.6-0.5,1l0.8,3.6c0.1,0.2-0.1,0.5-0.2,0.6
			c-0.2,0.1-0.4,0.1-0.6,0l-5.1-5.2l15.6-15.6l7.6-1.6l3.6,3.6C124.2,105.5,117.1,110.1,109.5,113.8L109.5,113.8L109.5,113.8z
			 M131.4,99.5l-3.5-3.5L147.3,79c0.2-0.1,0.4-0.3,0.5-0.5C147.2,84,139.4,91.9,131.4,99.5z M146.5,72.8c-2.9-3-2.8-7.8,0.2-10.7
			c2.7-2.6,7-2.8,9.9-0.4l-6.7,6.7c-0.2,0.2-0.2,0.5,0,0.7l5.2,5.2C152.3,75.6,148.8,75,146.5,72.8L146.5,72.8z M157.2,72.8
			c-0.4,0.3-0.7,0.7-1.1,0.9l-5-5l6.4-6.4C160.2,65.3,160.1,69.9,157.2,72.8z"/>
	</g>
</g>
</svg>
