<?xml version="1.0" encoding="utf-8"?>
<!-- Generator: Adobe Illustrator 23.0.4, SVG Export Plug-In . SVG Version: 6.00 Build 0)  -->
<svg version="1.1" id="Layer_1" xmlns="http://www.w3.org/2000/svg" xmlns:xlink="http://www.w3.org/1999/xlink" x="0px" y="0px"
	 viewBox="0 0 485 182" style="enable-background:new 0 0 485 182;" xml:space="preserve">
<style type="text/css">
	.st0{fill-rule:evenodd;clip-rule:evenodd;fill:#3E4245;}
</style>
<title>protoio_logo</title>
<desc>Created with Sketch.</desc>
<g id="Page-1">
	<g id="protoio_logo" transform="translate(0.000000, -2.000000)">
		<path id="Fill-1" class="st0" d="M237.8,42.5l-16.2,6.9v44.5h0c0.5,16.8,14.2,30.4,31.2,30.4v-16.2c-8.3,0-15-6.7-15-15V77.7h15
			V61.6h-15V42.5"/>
		<path id="Fill-2" class="st0" d="M184.1,107.8c-8.3,0-15-6.7-15-15c0-8.3,6.7-15,15-15c8.3,0,15,6.7,15,15
			C199.2,101.1,192.4,107.8,184.1,107.8 M184.1,61.6c-17.2,0-31.2,14-31.2,31.2c0,17.2,14,31.2,31.2,31.2c17.2,0,31.2-14,31.2-31.2
			C215.3,75.6,201.4,61.6,184.1,61.6"/>
		<g id="Group-6" transform="translate(0.000000, 101.408451)">
			<path id="Fill-3" class="st0" d="M288,6.4c-8.3,0-15-6.7-15-15c0-8.3,6.7-15,15-15c8.3,0,15,6.7,15,15C303-0.3,296.3,6.4,288,6.4
				 M288-39.8c-17.2,0-31.2,14-31.2,31.2c0,17.2,14,31.2,31.2,31.2c17.2,0,31.2-14,31.2-31.2C319.2-25.9,305.2-39.8,288-39.8"/>
			<path id="Fill-5" class="st0" d="M81.8,6.4c-8.3,0-15-6.7-15-15c0-8.3,6.7-15,15-15c8.3,0,15,6.7,15,15
				C96.8-0.3,90.1,6.4,81.8,6.4 M81.8-39.8c-17.2,0-31.2,14-31.2,31.2c0,0.4,0,0.8,0,1.2h0v42.7l16.2,6.9V18.8
				c4.5,2.5,9.6,3.9,15,3.9C99,22.6,113,8.6,113-8.6C113-25.9,99-39.8,81.8-39.8"/>
		</g>
		<path id="Fill-7" class="st0" d="M119.3,91.9L119.3,91.9l0,32.3h16.2V92.8c0-8.3,6.7-15,15-15V61.6
			C133.6,61.6,119.8,75.1,119.3,91.9"/>
		<path id="Fill-8" class="st0" d="M402.9,107.8c-8.3,0-15-6.7-15-15c0-8.3,6.7-15,15-15c8.3,0,15,6.7,15,15
			C417.9,101.1,411.2,107.8,402.9,107.8 M402.9,61.6c-17.2,0-31.2,14-31.2,31.2c0,17.2,14,31.2,31.2,31.2c17.2,0,31.2-14,31.2-31.2
			C434.1,75.6,420.1,61.6,402.9,61.6"/>
		<polygon id="Fill-9" class="st0" points="349.6,124 365.8,124 365.8,61.6 349.6,61.6 		"/>
		<path id="Fill-10" class="st0" d="M332.3,103c-5.8,0-10.5,4.7-10.5,10.5c0,5.8,4.7,10.5,10.5,10.5c5.8,0,10.5-4.7,10.5-10.5
			C342.8,107.7,338.1,103,332.3,103"/>
	</g>
</g>
</svg>
