<?xml version="1.0" encoding="utf-8"?>
<!-- Generator: Adobe Illustrator 23.0.4, SVG Export Plug-In . SVG Version: 6.00 Build 0)  -->
<svg version="1.1" id="Layer_1" xmlns="http://www.w3.org/2000/svg" xmlns:xlink="http://www.w3.org/1999/xlink" x="0px" y="0px"
	 viewBox="0 0 485 182" style="enable-background:new 0 0 485 182;" xml:space="preserve">
<style type="text/css">
	.st0{fill:#0075A8;}
	.st1{fill:#59595B;}
</style>
<g>
	<g>
		<path class="st0" d="M173,75.5l-1.3-7.7c-0.4-2.5-1.4-4.5-2.1-4.5s-1.4,2.1-1.4,4.5v2c0,2.5-2.1,4.5-4.5,4.5h-2
			c-0.1,0-0.3,0-0.4,0V80c0.1,0,0.3,0,0.4,0h7.5C171.7,80,173.4,78,173,75.5"/>
		<path class="st0" d="M154.9,69.1h-12.3c-0.1,0-0.2,0-0.3,0h-12.6c-0.2,0-0.3,0-0.4,0.1v-1.2c0-2.5-0.6-4.5-1.4-4.5s-1.7,2-2.1,4.5
			l-1.3,7.7c-0.4,2.5,1.3,4.5,3.8,4.5h7.5c0.8,0,1.5-0.1,2.1-0.4c-0.2,1.3-1.4,2.2-2.7,2.2h-10.6c-1.7,0-3-1.5-2.7-3.2l1.1-6.4
			c0.3-1.7-1-3.2-2.7-3.2H67.8c-1.1,0-2.1,0.6-2.5,1.7l-9.9,15.1c-0.2,0.2-0.2,0.6,0.1,0.8l1.9,2.3c0.2,0.3,0.6,0.4,0.9,0.1l6.7-5.3
			V116c0,1.5,1.2,2.8,2.8,2.8h15c1.5,0,2.8-1.2,2.8-2.8v-11.2c0-1.5,1.2-2.8,2.8-2.8h37.3c1.5,0,2.8,1.2,2.8,2.8V116
			c0,1.5,1.2,2.8,2.8,2.8h15c1.5,0,2.8-1.2,2.8-2.8v-12.2h-8c-2.5,0-4.5-2.1-4.5-4.5v-7.7c0-1.5,0.7-2.8,1.8-3.6v9.3
			c0,2.5,2.1,4.5,4.5,4.5h12.2c2.5,0,4.5-2.1,4.5-4.5V73.7C159.5,71.1,157.4,69.1,154.9,69.1"/>
	</g>
	<g>
		<g>
			<path class="st1" d="M183,70.6h16.9c8,0,13.4,3.9,13.4,11.4c0,6.1-4.2,9.8-8.3,11.1c1.2,1,2.1,2.4,2.8,3.9
				c1.7,3.5,2.8,7.2,6.4,7.2c0.9,0,1.7-0.3,1.7-0.3l-0.8,7.2c0,0-2.2,0.5-4.1,0.5c-4.8,0-7.6-1.9-10.5-8.4c-1.2-2.9-2.9-8-5.1-8
				h-2.3v16.1H183L183,70.6L183,70.6z M193.2,78v10h3.7c2.9,0,6.3-0.9,6.3-5.2c0-3.6-2.3-4.8-5.1-4.8C198.1,78,193.2,78,193.2,78z"
				/>
			<path class="st1" d="M226.9,70.6h10.3l13.8,40.8h-10.3l-2.5-7.7h-13.7l-2.5,7.7h-8.8L226.9,70.6z M226.9,96.2h8.8l-2.8-8.6
				c-0.9-2.9-1.4-7-1.4-7h-0.2c0,0-0.6,4.2-1.5,7L226.9,96.2z"/>
			<path class="st1" d="M251.3,70.6h10.8l10.7,20.3c0.9,1.8,2.1,4.8,3.1,7.2h0.2c-0.1-2.3-0.4-5.5-0.4-8V70.6h8.3v40.8h-10.6
				l-11.1-20.2c-1-1.8-2.1-4.5-2.9-6.7h-0.2c0.2,2.3,0.5,5,0.5,7.2v19.6h-8.3V70.6z"/>
			<path class="st1" d="M286.3,90.8c0-14.8,7.3-20.9,18.6-20.9c11.9,0,16.7,6.5,15.4,15.4l-9.4,0.8c1-6.5-1.5-9.1-6.1-9.1
				c-4.4,0-8,3.2-8,13.8c0,11.1,3.9,14,8.3,14c4.2,0,7.5-2.6,6.8-8l8.8,0.9c0.6,8.3-5.3,14.4-16.2,14.4
				C293.4,112.2,286.3,105.7,286.3,90.8"/>
			<polygon class="st1" points="322.8,70.6 332.9,70.6 332.9,86 345.3,86 345.3,70.6 355.4,70.6 355.4,111.5 345.3,111.5 
				345.3,94.2 332.9,94.2 332.9,111.5 322.8,111.5 			"/>
			<polygon class="st1" points="359.5,70.6 386.5,70.6 386.5,78.1 369.6,78.1 369.6,86.9 383.8,86.9 383.8,94.4 369.6,94.4 
				369.6,103.9 387.1,103.9 387.1,111.5 359.5,111.5 			"/>
			<path class="st1" d="M389.1,70.6h16.9c8,0,13.4,3.9,13.4,11.4c0,6.1-4.2,9.8-8.3,11.1c1.2,1,2.1,2.4,2.8,3.9
				c1.7,3.5,2.8,7.2,6.4,7.2c0.9,0,1.7-0.3,1.7-0.3l-0.8,7.2c0,0-2.2,0.5-4.1,0.5c-4.8,0-7.6-1.9-10.5-8.4c-1.2-2.9-2.9-8-5.1-8
				h-2.3v16.1H389L389.1,70.6L389.1,70.6z M399.1,78v10h3.7c2.9,0,6.3-0.9,6.3-5.2c0-3.6-2.3-4.8-5.1-4.8C404,78,399.1,78,399.1,78z
				"/>
		</g>
		<g>
			<path class="st1" d="M423.2,73.2c0-2.3,1.7-3.3,3.3-3.3c1.6,0,3.3,1,3.3,3.3c0,2.2-1.7,3.2-3.3,3.2
				C425,76.5,423.2,75.5,423.2,73.2z M429,73.2c0-1.8-1.2-2.6-2.5-2.6s-2.5,0.8-2.5,2.6c0,1.8,1.2,2.6,2.5,2.6S429,75,429,73.2z
				 M425.4,71.5h1.2c0.6,0,1.2,0.2,1.2,1c0,0.5-0.4,0.8-0.8,0.9l0.8,1.4h-0.7l-0.7-1.3h-0.3v1.3h-0.6V71.5z M426.7,73
				c0.3,0,0.5-0.2,0.5-0.5c0-0.4-0.3-0.4-0.5-0.4h-0.6V73H426.7z"/>
		</g>
	</g>
</g>
</svg>
