<?xml version="1.0" encoding="utf-8"?>
<!-- Generator: Adobe Illustrator 23.0.4, SVG Export Plug-In . SVG Version: 6.00 Build 0)  -->
<svg version="1.1" id="Layer_1" xmlns="http://www.w3.org/2000/svg" xmlns:xlink="http://www.w3.org/1999/xlink" x="0px" y="0px"
	 viewBox="0 0 485 182" style="enable-background:new 0 0 485 182;" xml:space="preserve">
<style type="text/css">
	.st0{fill-rule:evenodd;clip-rule:evenodd;fill:url(#SVGID_1_);}
	.st1{fill-rule:evenodd;clip-rule:evenodd;fill:#FFFFFF;}
	.st2{fill:none;}
</style>
<linearGradient id="SVGID_1_" gradientUnits="userSpaceOnUse" x1="241.4315" y1="138.5" x2="241.4315" y2="45.5" gradientTransform="matrix(1 0 0 -1 0 183)">
	<stop  offset="0" style="stop-color:#00AEEF"/>
	<stop  offset="0.212" style="stop-color:#0097DC"/>
	<stop  offset="0.519" style="stop-color:#007CC5"/>
	<stop  offset="0.792" style="stop-color:#006CB8"/>
	<stop  offset="1" style="stop-color:#0066B3"/>
</linearGradient>
<path class="st0" d="M147.4,137.5h95l93-93h-188V137.5"/>
<path class="st1" d="M259,63.1h-18.6l0.1,43.7l-16.2-43.7h-16l-13.8,36.5c-1.5-9.3-11.1-12.5-18.6-14.9c-5-1.6-10.3-4-10.2-6.6
	c0-2.1,2.8-4.1,8.4-3.8c3.7,0.2,7,0.5,13.5,3.7l6.4-11.2c-6-3-14.2-4.9-21-5h0c-7.9,0-14.4,2.6-18.5,6.8c-2.8,2.9-4.4,6.7-4.4,10.8
	c-0.1,5.7,2,9.7,6.4,12.9c3.7,2.7,8.4,4.5,12.6,5.8c5.1,1.6,9.3,3,9.3,5.9c0,1.1-0.4,2.1-1.2,2.9c-1.3,1.3-3.2,1.8-6,1.9
	c-5.2,0.1-9.1-0.7-15.3-4.4l-5.7,11.3c6.2,3.5,12.8,5.3,20.2,5.3l1.7,0c6.5-0.1,11.8-1.7,16-5c0.2-0.2,0.5-0.4,0.7-0.6l-0.7,3.6
	l15.7,0l2.8-7.2c3,1,6.3,1.6,9.9,1.6c3.5,0,6.7-0.5,9.6-1.5l2,7.1l28.1,0l0.1-16.4h6c14.5,0,23-7.4,23-19.7
	C285,69.1,276.7,63.1,259,63.1z M216.2,100.4c-2.2,0-4.2-0.4-5.9-1l5.9-18.5h0.1l5.8,18.6C220.3,100.1,218.3,100.4,216.2,100.4
	L216.2,100.4z M260.1,89.8H256V74.9h4.1c5.4,0,9.8,1.8,9.8,7.4C269.9,88,265.5,89.8,260.1,89.8"/>
<path class="st2" d="M147.4,44.5h190.1v93H147.4V44.5z"/>
</svg>
