<?xml version="1.0" encoding="utf-8"?>
<!-- Generator: Adobe Illustrator 23.0.4, SVG Export Plug-In . SVG Version: 6.00 Build 0)  -->
<svg version="1.1" id="Layer_1" xmlns="http://www.w3.org/2000/svg" xmlns:xlink="http://www.w3.org/1999/xlink" x="0px" y="0px"
	 viewBox="0 0 485 182" style="enable-background:new 0 0 485 182;" xml:space="preserve">
<style type="text/css">
	.st0{fill:#00003F;}
	.st1{fill:#E84100;}
	.st2{fill:#AAEACD;}
	.st3{fill:#FBA018;}
</style>
<title>Seq_Logo-Main_Dark</title>
<path class="st0" d="M306,63.4v81.1h-15.2v-31.4c-4.2,4.7-11,7.2-18.3,7.2c-15.9-0.2-26.8-12-26.8-29.5c0-17.7,11.4-29.3,27.2-29.3
	c8.4,0,15.7,3.3,19.4,8.9l1-7L306,63.4z M290.6,91.1c0-9.5-6.1-15.7-14.7-15.7s-14.4,6.3-14.4,15.5s5.7,15.6,14.6,15.6
	C284.6,106.5,290.6,100.6,290.6,91.1L290.6,91.1z"/>
<path class="st0" d="M144.8,37.9c17,0,28.8,9.4,28.9,23.8h-16.5c-0.1-6.3-5.6-10.3-13.2-10.3c-7,0-11.6,3.6-11.6,9
	c0,5.9,5.1,7.8,10.4,9l12.7,3.1c12.7,2.8,20.4,10.7,20.4,22.6c0,15.4-12.1,25.1-30.5,25.1c-18.2,0-30.5-9.4-31.5-24.7h16.6
	c0.4,7,6.3,11.1,15.1,11.1c8.5,0,13.5-3.7,13.5-9.8c0-5.6-4.3-7.7-9-8.9l-13.1-3.2c-13.8-3.2-21-11-21-22.4
	C115.8,47.5,127.4,37.9,144.8,37.9z"/>
<path class="st0" d="M212,120.3c-17.5,0-29.1-12-29.1-29.5c0-17.9,12-29.3,28.8-29.3c16.5,0,27.5,11.1,27.5,26.6
	c0,2.4-0.2,4.8-0.6,7.2H198c0.4,7.5,5.8,12.6,13.9,12.6c5.9,0,10.6-2.6,12.3-6.7h14.9C236.8,112.7,225.8,120.3,212,120.3z M223.4,85
	c-0.2-6.8-5.3-10.9-12.4-10.9c-7.3,0-12.6,4.2-13,10.9H223.4z"/>
<polygon class="st1" points="371.2,79.1 338.6,105.1 338.6,63.4 351.1,79.1 "/>
<polygon class="st2" points="371.2,79.1 371.2,37.5 338.6,63.4 358.7,63.4 "/>
<polygon class="st3" points="338.6,63.4 358.7,63.4 371.2,79.1 351.1,79.1 "/>
</svg>
