<?xml version="1.0" encoding="utf-8"?>
<!-- Generator: Adobe Illustrator 23.0.4, SVG Export Plug-In . SVG Version: 6.00 Build 0)  -->
<svg version="1.1" id="Layer_1" xmlns="http://www.w3.org/2000/svg" xmlns:xlink="http://www.w3.org/1999/xlink" x="0px" y="0px"
	 viewBox="0 0 485 182" style="enable-background:new 0 0 485 182;" xml:space="preserve">
<style type="text/css">
	.st0{fill:#231F1F;}
	.st1{fill:#BFBFBF;}
	.st2{fill:#D32616;}
</style>
<title>Asset 1</title>
<g>
	<g id="Layer_1-2">
		<g id="layer1-5">
			<path id="path2830" d="M169,84.5c-6.7-0.1-11,2.1-13.1,6.6c-3.1,6.6-0.3,11.6,9.2,17.1c5.3,3.1,7.7,5.8,7.7,8.8
				c0,6.1-7.4,8.2-14.9,4.4c-1.5-0.8-2.9-1.4-3-1.4c-0.3,1.7-0.2,5.9-0.2,5.9c1.9,0.8,3.8,1.2,5.8,1.6c8.7,1.7,16.6-2.3,17.4-9
				c0.7-6.1-1.6-9.5-10-14.5c-5.6-3.4-8.2-5.9-7.8-8.8c0.9-8,10.9-7,16.3-3.9v-5.4C174,84.9,171.6,84.5,169,84.5z M202.4,84.5
				c-0.4,0-0.9,0-1.2,0.1c-8.2,0.5-13.7,4.1-17,11.2c-2.8,6.4-2.5,14.8,0.1,21.2c3,6.3,7.6,9.6,15.5,10.9c1.6,0.3,2.8,1.2,5.9,5
				l3.9,4.7h7.2l-4.9-4.9c-2.7-2.7-4.9-5-4.9-5.2s1.1-0.6,2.3-1.1c4.1-1.2,7.4-4.3,9.7-9.2c1.9-3.8,2.2-5,2.4-9.8
				C222.4,93.3,214.8,84.4,202.4,84.5L202.4,84.5z M276,84.6c-6.7-0.1-11.1,2.1-13.1,6.6c-3.1,6.6-0.3,11.6,9.2,17.1
				c5.3,3.1,7.7,5.8,7.7,8.8c0,6.1-7.4,8.2-14.9,4.4c-1.5-0.8-2.9-1.4-3-1.4c-0.3,1.7-0.2,5.9-0.2,5.9c1.9,0.8,3.8,1.2,5.8,1.6
				c8.7,1.7,16.6-2.3,17.4-9c0.7-6.1-1.6-9.5-10-14.5c-5.6-3.4-8.2-5.9-7.8-8.8c0.9-8,10.9-7,16.3-3.9V86
				C281.1,85,278.5,84.6,276,84.6L276,84.6z M228.2,85v41.9h22.1v-5h-16.9V85H228.2z M202,88.9c8.8,0,13.7,5.3,14.3,15.5
				c0.6,8.4-2.3,14.7-7.7,17.3c-3.4,1.6-8.6,2-11.9,0.9c-3.4-1.2-6.7-4.9-8.2-8.8c-1.6-4.4-1.4-12.5,0.5-16.2
				C192.1,91.6,196.1,88.9,202,88.9z M379.1,96.4c-1.1,0-2.2,0.2-3.2,0.4c-7,1.8-10.9,8.5-10.6,15.4c0,5.8,1.1,8.6,3.9,11.6
				c5.6,4.7,10.9,5.1,17.8,2.6c1.2-0.6,2.5-1.1,2.5-1.1v-4.8l-2.5,1.2c-5.6,2.4-9.8,2.4-13.3-0.5c-2.2-2.2-3.1-4.9-3.6-7.8h21v-4
				C391.2,101.3,386.3,96.2,379.1,96.4L379.1,96.4z M302.3,96.4c-1.1,0-2.1,0.2-3.2,0.4c-7,1.8-10.9,8.5-10.6,15.4
				c0,5.8,1.1,8.7,3.9,11.6c5.6,4.7,10.9,5.1,17.8,2.6c1.2-0.6,2.5-1.1,2.5-1.1v-4.7l-2.5,1.2c-5.6,2.4-9.8,2.4-13.3-0.5
				c-2.2-2.2-3.1-4.9-3.6-7.8h21v-4C314.3,101.4,309.4,96.3,302.3,96.4L302.3,96.4z M409.8,96.6c-3.1,0-5.3,1.2-6.9,3.6l-1.2,1.9
				v-2.5v-2.5h-5.3v29.7h5.2v-9.5c0-8.7,0.1-9.7,1.2-12c1.6-3.2,4.5-4.9,7.4-4.1l1.9,0.6v-5.2L409.8,96.6L409.8,96.6z M332.9,96.7
				c-3.1,0-5.3,1.2-6.9,3.6l-1.2,1.9v-2.5v-2.5h-5.2v29.7h5.2v-9.5c0-8.7,0.1-9.7,1.2-12c1.6-3.2,4.5-4.9,7.4-4.1l1.9,0.6v-5.2
				L332.9,96.7L332.9,96.7z M337,97.1c3.5,9.8,7.4,20,11.2,29.7c1.6,0,3.3,0,5,0l5.9-14.7l5.9-15h-5.2c0,0-2.3,5.9-4.7,12.7
				l-4.3,11.3l-4.1-11.4l-4.2-12.6L337,97.1z M378.8,100.8c1.6,0,3.2,0.6,4.5,1.5c2.7,2,3.1,7,3.1,7h-15.7c0,0,0.9-5.2,3.7-7.1
				C375.6,101.3,377.1,100.8,378.8,100.8L378.8,100.8z M301.9,100.9c1.6,0,3.2,0.6,4.5,1.5c2.7,2,3.1,7,3.1,7h-15.7
				c0,0,0.9-5.1,3.7-7.1C298.7,101.4,300.4,100.9,301.9,100.9L301.9,100.9z"/>
		</g>
		<g id="g3073">
			<path id="path26" class="st0" d="M246.2,69.8c0-0.2-0.1-0.4-0.2-0.5c-0.2-0.2-0.5-0.2-0.7-0.2h-0.5v1.2h0.6
				C246,70.5,246.2,70.3,246.2,69.8 M247,72.5h-0.7l-0.5-0.9c-0.2-0.5-0.5-0.7-0.7-0.7h-0.4v1.6h-0.6v-3.8h1.1
				c0.4,0,0.8,0.1,1.1,0.3c0.2,0.2,0.3,0.5,0.3,0.7s-0.1,0.5-0.2,0.7c-0.2,0.2-0.5,0.3-0.7,0.4l0,0c0.2,0.1,0.5,0.3,0.6,0.7
				L247,72.5L247,72.5z M248.2,70.7c0-1.4-1.2-2.7-2.7-2.7c-1.4,0-2.7,1.2-2.7,2.7c0,0.7,0.3,1.3,0.8,1.8c1.1,1.1,2.7,1,3.7,0
				C247.9,72,248.2,71.4,248.2,70.7 M248.5,70.7c0,0.8-0.3,1.5-0.9,2.1c-1.2,1.1-3.1,1.1-4.2,0c-1.1-1.2-1.1-3.1,0-4.2
				c1.2-1.1,3.1-1.1,4.2,0C248.2,69.1,248.5,69.8,248.5,70.7"/>
			<path id="path28" class="st0" d="M171.5,80.5h-1.7v-9.9c0-0.8,0.1-1.7,0.2-2.9h-0.1c-0.1,0.5-0.2,1-0.5,1.4l-5.1,11.4h-0.9
				l-5.1-11.3c-0.2-0.6-0.4-1-0.5-1.5h-0.1c0.1,0.6,0.1,1.5,0.1,2.9v9.9h-1.6V65.7h2.3l4.5,10.3c0.3,0.6,0.6,1.1,0.7,1.8h0.1
				c0.3-0.9,0.6-1.4,0.7-1.8l4.6-10.3h2.2"/>
			<path id="path30" class="st0" d="M176.8,69.9v10.6h-1.6V69.9H176.8z M177.1,66.2c0,0.3-0.2,0.6-0.3,0.8c-0.2,0.2-0.6,0.3-0.9,0.3
				c-0.3,0-0.6-0.1-0.8-0.3c-0.5-0.5-0.5-1.1,0-1.6s1.1-0.5,1.6,0C177,65.6,177.1,65.9,177.1,66.2"/>
			<path id="path32" class="st0" d="M187.4,80c-0.9,0.6-1.9,0.8-3,0.8c-1.3,0.1-2.7-0.6-3.7-1.5c-0.9-1.1-1.4-2.4-1.3-3.7
				c-0.1-1.5,0.5-3.1,1.5-4.2c1.1-1.1,2.5-1.6,4-1.6c0.9,0,1.6,0.2,2.4,0.6V72c-0.8-0.6-1.6-0.9-2.5-0.9c-1,0-2,0.4-2.7,1.1
				c-0.8,0.9-1.1,2-1.1,3.1c-0.1,1.1,0.3,2.1,1,3c0.7,0.8,1.6,1.1,2.7,1.1c1,0,1.9-0.3,2.6-0.9"/>
			<path id="path34" class="st0" d="M195.4,71.7c-0.4-0.2-0.9-0.4-1.2-0.3c-0.7,0-1.3,0.4-1.7,0.9c-0.6,0.9-0.9,1.9-0.9,2.9v5.3H190
				V69.9h1.6v2.2h0.1c0.2-0.7,0.6-1.2,1.1-1.8c0.5-0.4,1.1-0.6,1.6-0.6c0.4,0,0.7,0,1.1,0.2"/>
			<path id="path36" class="st0" d="M204.9,75.3c0.1-1.1-0.2-2.2-0.9-3.1c-0.6-0.7-1.6-1.1-2.5-1.1c-1-0.1-1.9,0.3-2.6,1.1
				c-0.8,0.9-1.1,2-1,3.2c-0.1,1.1,0.3,2.1,1,3c0.7,0.8,1.6,1.1,2.6,1.1c1,0.1,2-0.3,2.6-1.1C204.7,77.5,205,76.3,204.9,75.3
				 M206.6,75.3c0.1,1.5-0.5,3-1.4,4.1c-1,1.1-2.4,1.6-3.8,1.5c-1.4,0.1-2.8-0.6-3.7-1.5c-0.9-1.1-1.4-2.5-1.3-3.9
				c0-1.8,0.6-3.2,1.5-4.3c1.1-1,2.4-1.5,3.8-1.4c1.3-0.1,2.7,0.5,3.7,1.4C206.1,72.1,206.6,73.5,206.6,75.3"/>
			<path id="path38" class="st0" d="M215.1,77.8c0,0.9-0.4,1.6-1,2.2c-0.9,0.7-1.9,1-3,0.9c-0.9,0-1.8-0.2-2.7-0.7v-1.8
				c0.8,0.7,1.7,1.1,2.7,1.1c1.3,0,2-0.6,2-1.5c0-0.4-0.2-0.8-0.5-1.1c-0.6-0.4-1.1-0.8-1.7-1c-0.7-0.3-1.3-0.7-1.9-1.2
				c-1-1.2-0.9-3.1,0.4-4.1c0.8-0.6,1.7-0.9,2.7-0.9c0.8,0,1.6,0.2,2.3,0.6v1.7c-0.7-0.6-1.5-0.8-2.4-0.8c-0.5,0-1,0.2-1.3,0.5
				c-0.3,0.2-0.6,0.7-0.6,1.1c0,0.4,0.2,0.9,0.5,1.1c0.5,0.4,1.1,0.7,1.6,0.9c0.8,0.3,1.3,0.7,2,1.1C214.7,76.3,215.1,77,215.1,77.8
				"/>
			<path id="path40" class="st0" d="M225.4,75.3c0.1-1.1-0.2-2.2-0.9-3.1c-0.6-0.7-1.6-1.1-2.5-1.1c-1-0.1-1.9,0.3-2.6,1.1
				c-0.8,0.9-1.1,2-1.1,3.2c-0.1,1.1,0.3,2.1,1,3c0.7,0.8,1.6,1.1,2.6,1.1c1,0.1,2-0.3,2.6-1.1C225.1,77.5,225.4,76.3,225.4,75.3
				 M227.1,75.3c0.1,1.5-0.5,3-1.4,4.1c-1,1.1-2.4,1.6-3.8,1.5c-1.4,0.1-2.8-0.6-3.7-1.5c-0.9-1.1-1.4-2.5-1.3-3.9
				c0-1.8,0.6-3.2,1.5-4.3c1.1-1,2.4-1.5,3.8-1.4c1.3-0.1,2.7,0.5,3.7,1.4C226.6,72.1,227,73.5,227.1,75.3"/>
			<path id="path42" class="st0" d="M234.6,66.3c-0.4-0.2-0.8-0.3-1.1-0.3c-1.2,0-1.8,0.8-1.8,2.3v1.6h2.5v1.4h-2.5v9.2H230v-9.2
				h-1.8v-1.4h1.8v-1.7c-0.1-1.1,0.4-2,1.1-2.7c1-0.9,2.3-1.1,3.5-0.7"/>
			<path id="path44" class="st0" d="M241.3,80.4c-0.6,0.2-1.1,0.4-1.6,0.3c-1.8,0-2.8-1.1-2.8-3.1v-6.3h-1.8v-1.4h1.8v-2.6l1.6-0.6
				v3.1h2.7v1.4h-2.7v6.1c-0.1,0.6,0.1,1.1,0.4,1.5c0.3,0.3,0.8,0.6,1.2,0.5c0.4,0,0.8-0.1,1.1-0.4"/>
		</g>
		<path id="path3151" class="st0" d="M417.4,98.5c0-0.2-0.1-0.4-0.2-0.5c-0.2-0.2-0.5-0.2-0.7-0.2h-0.5V99h0.6
			C417.1,99,417.4,98.9,417.4,98.5 M418.2,101.1h-0.7l-0.5-0.9c-0.2-0.5-0.5-0.7-0.7-0.7H416v1.6h-0.6v-3.7h1.1
			c0.4,0,0.8,0.1,1.1,0.3c0.2,0.2,0.3,0.5,0.3,0.7s-0.1,0.5-0.2,0.7c-0.2,0.2-0.5,0.3-0.7,0.4l0,0c0.2,0.1,0.5,0.3,0.6,0.7
			L418.2,101.1L418.2,101.1z M419.2,103.3c0-1.4-1.2-6.8-2.7-6.8s-2.7,1.2-2.7,2.7c0,0.7,0.3,1.3,0.8,1.8c1.1,1.1,2.7,1,3.7,0
			C419,100.7,419.2,104.1,419.2,103.3 M419.6,103.3c0,0.8-0.3,1.6-0.9,2.1c-1.2,1.1-3.1-2.9-4.2-4.1c-1.1-1.2-1.1-3.1,0-4.2
			c1.2-1.1,3.1,2.9,4.2,4.1C419.3,101.8,419.6,102.6,419.6,103.3"/>
		<path id="path3639" class="st1" d="M118.8,79.8l-18.6,6l-16.1,7.2l-4.5,1.2c-1.1,1.1-2.3,2.2-3.7,3.3c-1.4,1.2-2.8,2.3-3.7,3.2
			c-1.3,1.1-2.6,2.3-3.7,3.6c-1.1,1.3-2.1,7-2.7,8.7c-0.8,2.3-0.4,0.9,1.1,2.9c1.9,2.8,5.7,5.6,10.2,7.6c2.9,1.2,5.9,2.2,8.9,3.1
			c6.3,1.4,12.7,2.3,19.1,2.7c0.9,0.1,1.6,0.1,2.5,0c0.7-1.1,1.2-2.3,1.8-3.4c3.1-6.3,5.3-12.3,6.6-17.4c0.9-4,1.4-8,1.6-12
			c0.1-1.3,0.2-5.9,0.1-7.4c-0.1-2.2-0.3-4.5-0.7-6.6c-0.1-0.2-0.1-0.4-0.1-0.6c0.9-0.3,1.6-0.6,2.5-0.8L118.8,79.8L118.8,79.8z
			 M114.6,82.2c0.2,0,0.6,4.3,0.8,7c0.1,0.3,0.1,0.6,0,1c-0.1,0-2.4-1.3-4-2.3c-1.4-0.9-4.1-2.7-4.5-3.1c-0.2-0.1-0.2-0.1,1.1-0.6
			C109.8,83.7,114.5,82.2,114.6,82.2L114.6,82.2z M105.1,85.3c0.5,0.2,0.9,0.4,1.2,0.7c2.7,1.7,5.5,3.3,8.5,4.8
			c0.6,0.2,0.6,0.2-0.6,1c-3.1,2-6.3,3.7-9.6,5.2c-0.7,0.3-1.2,0.6-1.2,0.6c0-0.2,0.1-0.6,0.2-0.8c0.9-3.2,1.4-6.6,1.5-9.8
			C105,85.3,105,85.3,105.1,85.3L105.1,85.3L105.1,85.3z M103.2,86.1c0.1,1.3,0,2.7-0.1,4.1c-0.2,2-0.7,4.1-1.2,6.1
			c-0.2,0.6-0.3,1-0.3,1c-0.9-0.8-1.8-1.6-2.7-2.6c-1-1.1-1.9-2.4-2.6-3.7c-0.3-0.6-0.6-1.2-0.8-1.9
			C95.7,88.9,103.2,86.1,103.2,86.1L103.2,86.1z M94,89.7L94,89.7c0.2,0.2,0.2,0.3,0.2,0.6c0.6,1.5,1.3,2.9,2.3,4.2
			c1,1.2,2,2.4,3.2,3.4l0.7,0.6c0.1,0.1,0.2,0.1-2.2,0.9c-2.7,1.1-5.5,2-8.9,3.1l-2.4,0.8c-0.2,0.1-0.1,0,0.3-0.6
			c2.2-3.5,4-7.4,5.5-11.2c0.2-0.6,0.5-1.2,0.6-1.3c0-0.2,0.2-0.3,0.3-0.4C93.8,89.7,93.9,89.7,94,89.7L94,89.7z M91.2,90.8
			c-0.4,1-0.9,2-1.3,3c-1.3,2.7-2.9,5.3-4.9,8.4c-0.4,0.6-0.7,1.1-0.7,1.1c-0.1,0.1-0.1,0.1-0.3-0.4c-0.6-1.1-0.9-2.1-1.1-3.2
			c-0.2-1.3-0.2-2.8,0.1-4.2c0.2-0.9,0.2-0.9,0.6-1.1C85.3,93.5,91.2,90.7,91.2,90.8L91.2,90.8z M115.4,91.8v0.6
			c0,3.5-0.3,7-0.9,10.6c-0.1,0.6-0.2,1.1-0.2,1.1s-0.4-0.1-0.9-0.2c-2.3-0.7-4.4-1.6-6.5-2.8c-1.1-0.6-2.3-1.2-3.3-2
			c0,0,0.6-0.3,1.2-0.7c2.7-1.3,5.2-2.9,7.7-4.5c0.9-0.6,2.1-1.5,2.4-1.7L115.4,91.8z M80.6,96c0.1,0,0.1,0.1-0.1,0.6
			c-0.1,0.4-0.2,1.1-0.2,1.5c-0.2,2,0.3,3.9,1.2,5.6c0.3,0.6,0.6,1.1,0.6,1.1c0,0.2-9.4,2.9-12.2,3.6l-1.6,0.5c-0.1,0-0.1,0-0.1-0.2
			c0.3-2,1.9-4.8,4.1-7c1.3-1.4,2.9-2.7,4.6-3.5C78.3,97.2,80.4,96.1,80.6,96L80.6,96L80.6,96z M102.5,99.9c0.2,0.2,0.6,0.2,0.8,0.4
			c3.4,1.9,7,3.3,10.8,4.1l0.3,0.1l-0.5,0.2c-1.9,1.1-8,3.6-14.2,5.9l-2,0.8c-0.1,0.1-0.2,0.1-0.3,0.1c0,0,0.2-0.6,0.6-1.1
			c1.7-3.2,3.2-6.6,4.5-10.1C102.4,100.1,102.5,99.9,102.5,99.9L102.5,99.9z M100.2,100.7c-0.1,0.2-0.2,0.5-0.2,0.7
			c-1.4,3.4-3.1,6.6-4.9,9.8c-0.6,0.9-1,1.6-1,1.6s-0.5-0.2-0.9-0.6c-2.8-1.6-5.3-3.7-7.4-6.3l-0.2-0.3l1.2-0.4
			c4.2-1.1,8.3-2.6,12.3-4.3C99.8,100.8,100.2,100.7,100.2,100.7L100.2,100.7z M114.1,105.4L114.1,105.4c0,0.3-0.7,3.2-1.2,5.3
			c-0.6,1.7-0.9,3.1-1.6,5.5c-0.3,1.1-0.6,2-0.7,2h-0.2c-3.9-0.7-7.7-1.7-11.4-3.2c-1-0.4-2.4-1.1-2.5-1.1c0.6-0.3,1.2-0.6,1.9-0.9
			c6.4-2.8,13.1-5.9,15.3-7.4C113.7,105.6,114,105.5,114.1,105.4L114.1,105.4z M82.1,106.6c0,0-1.7,2.6-4.2,6.1l-2.3,3.2
			c-0.4,0.6-1,1.3-1.2,1.9l-0.6,0.9l-0.6-0.6c-0.9-0.9-1.8-1.7-2.7-2.7c-1.1-1.2-1.9-2.9-2.3-4.5c-0.2-0.7-0.2-1.1,0-1.1
			c0.2,0,3.9-1,7.4-1.8c2-0.5,4.2-1,5.1-1.2C81.6,106.5,82.1,106.6,82.1,106.6L82.1,106.6z M83.9,107.3l0.5,0.6
			c1.9,2.1,4.1,4,6.6,5.4c0.3,0.2,0.6,0.3,0.8,0.6c-0.1,0.1-8.7,3.1-12.7,4.5c-2.3,0.8-4.1,1.4-4.1,1.4c-0.1-0.1-0.2-0.2-0.3-0.2
			l-0.2-0.2l0.4-0.6c1.2-1.9,3-4,6.6-8.4L83.9,107.3L83.9,107.3z M95.1,115.3c0,0,0.6,0.2,1.4,0.6c1.7,0.7,3.4,1.2,5.2,1.6
			c2.6,0.6,5.2,1.1,7.9,1.3c0.3,0,0.5,0.1,0.5,0.1s-2.2,0.8-3.7,1.2c-2.4,0.8-9.8,3-15.9,4.7l-2.1,0.6c-0.2,0-0.6-0.1-0.6-0.2
			c0.2-0.3,0.5-0.7,0.8-1c2-2.5,3.9-5.1,5.7-7.7L95.1,115.3z M92.6,115.4c0,0-1,1.6-2.7,4.4l-1.9,3c-0.3,0.5-0.7,1.1-0.9,1.5
			l-0.4,0.8l-0.2-0.1c-0.6-0.2-4.1-1.3-5-1.7c-1.1-0.5-2.2-0.9-3.2-1.5c-1.1-0.6-2.6-1.5-2.4-1.5l4.3-1.1c6.1-1.6,9.5-2.7,11.7-3.3
			C92.2,115.4,92.6,115.4,92.6,115.4L92.6,115.4z M110.2,119.4L110.2,119.4c0.1,0.2-2.2,6.5-3.1,8.4c-0.2,0.5-0.2,0.6-0.4,0.6
			c-0.2,0-3.5-0.5-5.5-0.8c-3.4-0.6-9.4-1.5-10.9-1.9l-0.4-0.1l2.1-0.5c4.5-1.1,6.6-1.5,8.8-2.3c2.8-0.9,5.5-2,8.3-3.2
			C109.4,119.7,109.8,119.6,110.2,119.4L110.2,119.4z"/>
		<path id="path3667" class="st1" d="M99.8,36.4c-0.3,0-5.3,1.7-8.5,3.1c-4.4,1.7-7.7,3.4-9.8,4.9c-0.8,0.6-1.3,1.1-1.9,1.9
			c-0.1,0.2-0.1,0.3-0.1,0.5l1.9,1.8l4.5,1.4l10.6,1.9l12.2,2.1l0.2-1.1h-0.1l-1.6-0.2l-0.3-0.6c-1.6-3-3.5-6.6-4.5-9.1
			c-0.9-1.8-1.5-3.7-2-5.6C99.8,36.5,99.8,36.4,99.8,36.4L99.8,36.4z M99.5,37.2L99.5,37.2c0,0,0.1,0.4,0.2,0.9c0.2,2,0.7,4,1.3,5.9
			c0.6,1.5,0.6,1.4-0.1,1.2c-1.4-0.4-7.8-1.5-12.5-2.1c-0.8-0.1-1.3-0.2-1.3-0.2s3.3-1.8,4.9-2.6C93.7,39.5,99,37.3,99.5,37.2
			L99.5,37.2z M85.9,43.4l0.6,0.2c3.1,1.1,10.5,2.4,14.6,2.8c0.5,0.1,0.9,0.1,0.9,0.1c-0.3,0.2-0.6,0.3-0.9,0.5
			c-2,1.1-4.2,2.2-5.7,3.2c-0.3,0.2-0.6,0.4-0.9,0.6l-0.7-0.1l-0.6-0.1l-1.4-1.3c-2.5-2.4-4.4-4.2-5.2-5L85.9,43.4z M85.4,43.9
			l2,2.5c1.1,1.3,2.2,2.7,2.4,3.1c0.2,0.2,0.3,0.4,0.5,0.6c-0.1,0.1-2.9-0.6-4.4-0.9s-2.2-0.6-3.1-0.9l-0.8-0.2v-0.3
			c0-1,1.2-2.3,3.2-3.7L85.4,43.9L85.4,43.9z M102.2,47.2c0.1,0,0.2,0.2,0.3,0.6c0.5,1.1,2,3.9,2.3,4.5c0.2,0.2,0.3,0.2-1.6-0.2
			c-4.8-0.8-6.3-1.1-6.3-1.1c0.1-0.1,0.2-0.2,0.3-0.2c1.5-0.9,3-1.8,4.3-3L102.2,47.2C102.1,47.3,102.1,47.2,102.2,47.2L102.2,47.2z
			"/>
		<path id="path2851" class="st2" d="M79.6,46.1c-0.2,0.4-0.2,0.9,0,1.2c0.4,0.6,0.8,1.1,1.2,1.6c0,0,6.3,6.1,7,7
			c3.4,4,5,7.9,5.2,13.4c0.1,3.4-0.7,7-2.2,10.1c-3,6.3-9.2,13.5-18.6,21.2l1.4-0.5c1.6-1.1,3.2-2.1,5-3c7.4-4,15.2-7.4,23.2-10.4
			c13.1-4.9,34.8-10.8,47.1-12.6l1.2-0.2l-0.2-0.3c-0.9-1.3-1.8-2.7-2.8-4c-2.8-3.4-6.1-6.2-9.9-8.3c-5.5-3.1-12.7-5.5-21.7-7.3
			c-1.7-0.3-5.4-1-8.4-1.4c-6.4-1.1-10.6-1.7-15.2-2.5c-1.6-0.3-4.1-0.7-5.7-1.1c-1.2-0.3-2.5-0.6-3.7-1
			C81.4,47.7,79.9,47.3,79.6,46.1L79.6,46.1z M83.2,49.6c0.2,0.1,0.4,0.1,0.6,0.2c0.6,0.2,1.2,0.4,2,0.6c0.6,0.2,1.2,0.3,1.9,0.6
			c0.9,0.2,1.5,0.4,1.5,0.4c0.1,0.1,1.5,4.6,2,6.3c0.2,0.7,0.3,1.2,0.3,1.2c-0.2-0.2-0.2-0.4-0.4-0.6c-1.9-3.2-4.4-5.9-7.3-8.2
			C83.5,49.9,83.2,49.6,83.2,49.6L83.2,49.6z M90.1,51.5c0.2,0,0.6,0.1,0.8,0.2c2.4,0.6,6.6,1.3,9.5,1.8c0.3,0,0.6,0.1,0.9,0.2
			c-0.1,0.1-0.2,0.2-0.4,0.2c-0.5,0.2-2.3,1.3-3,1.7c-1.4,0.9-2.8,2-4,3.2c-0.4,0.4-0.8,0.8-0.8,0.8c-0.1-0.2-0.2-0.3-0.2-0.6
			c-0.7-2.3-1.5-4.7-2.5-6.9C90.3,52,90.2,51.8,90.1,51.5L90.1,51.5L90.1,51.5z M102.2,53.8c0.1,0,0.2,0.6,0.6,1.5
			c0.6,2.1,0.8,4.3,0.7,6.4c0,0.6-0.1,1.1-0.1,1.2l-0.1,0.2l-0.7-0.2c-1.5-0.5-3.9-1.2-6-1.8c-1.2-0.3-2.2-0.6-2.2-0.7
			c0.8-0.9,1.6-1.7,2.5-2.5C98.3,56.7,102.1,53.8,102.2,53.8L102.2,53.8z M103.3,54c0.1-0.1,5.8,1,8.4,1.4c2,0.4,4.8,1,5,1.1
			c0.1,0-0.2,0.2-1.1,0.6c-3.2,1.4-6.3,3.1-9.2,5c-0.8,0.5-1.3,0.9-1.3,0.9c0-0.3,0-0.6,0-0.9c0-2.7-0.6-5.2-1.5-7.6
			C103.3,54.3,103.3,54.2,103.3,54L103.3,54z M118.2,56.9c-0.1,0.6-0.2,1.2-0.3,1.9c-0.6,2-1.9,5.2-3.5,8c-0.2,0.3-0.4,0.7-0.6,1
			c-0.3-0.2-0.6-0.3-0.9-0.5c-1.8-1.1-3.6-2-5.5-2.7c-0.6-0.2-1.1-0.5-1.1-0.5c-0.1,0,4.5-3.1,6.8-4.5
			C115,58.6,118.1,56.9,118.2,56.9L118.2,56.9z M119.2,57c0.2,0,2.7,0.7,4,1.1c3.2,1,6.5,2.1,9.5,3.4l1.1,0.5l-0.8,0.2
			c-5.5,1.2-10.9,2.9-16.2,5c-0.5,0.2-0.8,0.3-0.9,0.3c0.1-0.2,0.2-0.5,0.3-0.7c1.4-3,2.3-6.1,2.7-9.4
			C119.1,57.3,119.1,57.2,119.2,57L119.2,57z M93.8,63c0.1-0.1,2,0.5,3.1,0.8c1.6,0.5,5,1.6,5,1.6s-0.4,0.4-0.9,0.8
			c-1.8,1.5-3.6,3.2-5.7,5.2c-0.6,0.6-1.1,1.1-1.2,1.1c0,0,0-0.1,0-0.2c0.3-2.8,0.2-5.6-0.2-8.4C93.9,63.4,93.8,63.1,93.8,63
			L93.8,63z M134.9,63c0,0-0.9,1.5-1.5,2.3c-0.9,1.2-2.1,2.8-4.9,6.3l-3.7,4.7c-0.6,0.7-1.1,1.2-1.1,1.2c-0.2-0.2-0.3-0.4-0.4-0.6
			c-1.6-2.3-3.4-4.5-5.7-6.3c-0.5-0.4-0.9-0.8-1.1-0.9c-0.1-0.1-0.2-0.2-0.3-0.2c0-0.1,2.4-1.1,4.2-1.8c3.2-1.2,7.4-2.9,10.8-3.8
			C133.1,63.4,134.9,63,134.9,63L134.9,63z M135.9,63.2c0.3,0.1,0.6,0.2,0.9,0.4c3.4,2,6.6,4.3,9.5,7.1c0.8,0.8,2.6,2.7,2.6,2.7
			l-1.4,0.1c-7,0.6-13.9,1.8-20.7,3.4c-0.6,0.2-0.9,0.2-1,0.2c0,0,0.6-0.6,1.2-1.2c4.3-4.1,6.3-6.7,8.5-11.3
			C135.6,63.9,135.9,63.3,135.9,63.2L135.9,63.2L135.9,63.2z M104.6,66.5c0.2,0.1,2,0.9,3.4,1.6c1.2,0.6,3.2,1.6,3.2,1.7
			c0,0-0.7,0.4-1.5,0.8c-2.7,1.3-4.9,2.6-7.3,4c-0.7,0.4-1.2,0.8-1.2,0.8s0-0.1,0.4-0.8c1.2-2.4,2.3-5.1,2.9-7.7
			C104.5,66.6,104.6,66.4,104.6,66.5L104.6,66.5z M102.8,66.8c-0.2,0.9-0.5,1.8-0.8,2.7c-0.7,2-1.5,3.8-2.5,5.7
			c-0.2,0.4-0.6,1-0.8,1.2L98.5,77l-0.8-0.8c-0.8-0.8-1.6-1.4-2.7-2c-0.2-0.1-0.5-0.2-0.7-0.4c1.3-1.3,2.8-2.7,4.2-3.8
			C99.9,69,102.7,66.7,102.8,66.8z M114,71.4l0.7,0.5c1.6,1.1,3.3,2.3,4.9,3.6c0.9,0.7,2.3,2,2.7,2.4l0.2,0.2l-1.1,0.3
			c-6.4,1.8-11.4,3.4-17.2,5.5c-0.7,0.2-1.2,0.5-1.2,0.5c-0.1,0-0.2,0.1,1.2-1.2c3.5-3.2,6.7-6.9,9.5-10.9L114,71.4z M111,72.1
			c0,0-1.9,2.7-3.1,4.3c-1.3,1.8-3.8,4.9-5.5,6.9c-0.7,0.9-1.2,1.5-1.3,1.5c-0.1,0-0.1-0.2-0.1-0.6c0-1.7-0.5-3.4-1.2-5.1
			c-0.3-0.7-0.4-0.9-0.3-0.9c0.3-0.2,4.4-2.6,7-3.9C108.3,73.5,110.9,72,111,72.1L111,72.1z M93.3,76.4c0.2,0.1,0.6,0.2,0.8,0.4
			c0.9,0.5,1.6,1,2.4,1.6c-0.2,0.2-0.6,0.5-0.9,0.7c-1.3,1-3.4,2.5-4.5,3.4c-1.2,0.9-1.2,1.1-1.1,0.9c0.7-1.1,1.3-2.1,1.9-3.2
			c0.5-1,0.9-2,1.1-3C93,76.9,93.2,76.7,93.3,76.4L93.3,76.4z M97.9,80.1c0.1,0,0.2,0.1,0.6,0.7c0.9,1.2,1.3,2.7,1.6,4.1v0.3
			L98.2,86c-3.4,1.3-6.6,2.7-8.8,3.7c-0.6,0.3-1.6,0.8-2.3,1.1c-0.7,0.4-1.2,0.6-1.2,0.6s0.5-0.4,1-0.8c3.9-2.8,7.4-6,10.6-9.7
			C97.7,80.5,97.9,80.2,97.9,80.1L97.9,80.1L97.9,80.1z M95.8,80.7c-0.9,1.1-1.6,2-2.7,3.1c-2.7,2.7-5.5,5.1-8.7,7l-0.9,0.6
			c-0.1,0.1,0-0.1,1.5-1.6c0.9-1.1,1.6-1.8,2.4-2.9c0.4-0.6,0.9-1,1.4-1.3C91.1,83.9,95.8,80.6,95.8,80.7L95.8,80.7z"/>
		<path id="path168" class="st0" d="M112.1,126.8h-0.8v2.4H111v-2.4h-0.8v-0.3h1.8"/>
		<path id="path170" class="st0" d="M115.3,129.2H115v-1.8c0-0.2,0-0.3,0-0.6l0,0c0,0.1-0.1,0.2-0.1,0.2l-1,2h-0.2l-0.9-2
			c0-0.1-0.1-0.2-0.1-0.3l0,0c0,0.1,0,0.3,0,0.6v1.8h-0.3v-2.7h0.5l0.9,1.9c0.1,0.1,0.1,0.2,0.2,0.3l0,0c0.1-0.2,0.1-0.2,0.2-0.3
			l0.9-1.9h0.4"/>
	</g>
</g>
<g>
	<path d="M342,132.6c1-0.2,2.1-0.3,3.4-0.3c2.3,0,4,0.6,5,1.6c1.1,1.1,1.8,2.5,1.8,4.6c0,2.1-0.6,3.8-1.8,5
		c-1.2,1.2-3.1,1.9-5.5,1.9c-1.1,0-2.1-0.1-2.9-0.2V132.6z M343.6,144.1c0.4,0.1,1,0.1,1.6,0.1c3.4,0,5.3-2,5.3-5.5c0-3-1.6-5-5-5
		c-0.8,0-1.5,0.1-1.9,0.2V144.1z"/>
	<path d="M359.2,145.4l-0.1-1.2H359c-0.5,0.7-1.5,1.4-2.7,1.4c-1.8,0-2.7-1.3-2.7-2.7c0-2.2,1.9-3.5,5.4-3.4v-0.2
		c0-0.8-0.2-2.1-2-2.1c-0.8,0-1.7,0.3-2.3,0.7l-0.4-1.1c0.7-0.5,1.8-0.8,2.9-0.8c2.7,0,3.4,1.9,3.4,3.8v3.5c0,0.8,0,1.6,0.1,2.2
		H359.2z M359,140.6c-1.8,0-3.8,0.3-3.8,2.1c0,1.1,0.7,1.6,1.5,1.6c1.2,0,1.9-0.8,2.2-1.6c0.1-0.2,0.1-0.4,0.1-0.5V140.6z"/>
	<path d="M365,133.4v2.7h2.3v1.3H365v5c0,1.1,0.3,1.8,1.2,1.8c0.4,0,0.7-0.1,0.9-0.1l0.1,1.3c-0.3,0.1-0.8,0.2-1.4,0.2
		c-0.8,0-1.4-0.2-1.8-0.7c-0.5-0.5-0.6-1.3-0.6-2.4v-5.1h-1.4v-1.3h1.4v-2.2L365,133.4z"/>
	<path d="M374.2,145.4l-0.1-1.2H374c-0.5,0.7-1.5,1.4-2.7,1.4c-1.8,0-2.7-1.3-2.7-2.7c0-2.2,1.9-3.5,5.4-3.4v-0.2
		c0-0.8-0.2-2.1-2-2.1c-0.8,0-1.7,0.3-2.3,0.7l-0.4-1.1c0.7-0.5,1.8-0.8,2.9-0.8c2.7,0,3.4,1.9,3.4,3.8v3.5c0,0.8,0,1.6,0.1,2.2
		H374.2z M373.9,140.6c-1.8,0-3.8,0.3-3.8,2.1c0,1.1,0.7,1.6,1.5,1.6c1.2,0,1.9-0.8,2.2-1.6c0.1-0.2,0.1-0.4,0.1-0.5V140.6z"/>
	<path d="M383.7,133.9h-3.8v-1.4h9.2v1.4h-3.8v11.5h-1.6V133.9z"/>
	<path d="M397.2,140.7c0,3.4-2.3,4.9-4.5,4.9c-2.4,0-4.3-1.8-4.3-4.8c0-3.1,2-4.9,4.4-4.9C395.5,135.9,397.2,137.8,397.2,140.7z
		 M390.1,140.8c0,2,1.1,3.6,2.7,3.6c1.6,0,2.7-1.5,2.7-3.6c0-1.6-0.8-3.6-2.7-3.6C391,137.2,390.1,139,390.1,140.8z"/>
	<path d="M407.4,140.7c0,3.4-2.3,4.9-4.5,4.9c-2.4,0-4.3-1.8-4.3-4.8c0-3.1,2-4.9,4.4-4.9C405.6,135.9,407.4,137.8,407.4,140.7z
		 M400.3,140.8c0,2,1.1,3.6,2.7,3.6c1.6,0,2.7-1.5,2.7-3.6c0-1.6-0.8-3.6-2.7-3.6C401.1,137.2,400.3,139,400.3,140.8z"/>
	<path d="M409.4,131.8h1.6v13.6h-1.6V131.8z"/>
	<path d="M413.6,143.7c0.5,0.3,1.3,0.7,2.1,0.7c1.2,0,1.7-0.6,1.7-1.4c0-0.8-0.5-1.2-1.7-1.7c-1.6-0.6-2.4-1.5-2.4-2.6
		c0-1.5,1.2-2.7,3.1-2.7c0.9,0,1.7,0.3,2.2,0.6l-0.4,1.2c-0.4-0.2-1-0.5-1.8-0.5c-1,0-1.5,0.6-1.5,1.3c0,0.8,0.5,1.1,1.7,1.6
		c1.6,0.6,2.3,1.4,2.3,2.8c0,1.6-1.2,2.8-3.3,2.8c-1,0-1.9-0.2-2.5-0.6L413.6,143.7z"/>
</g>
</svg>
