<?xml version="1.0" encoding="utf-8"?>
<!-- Generator: Adobe Illustrator 23.0.4, SVG Export Plug-In . SVG Version: 6.00 Build 0)  -->
<svg version="1.1" id="Layer_1" xmlns="http://www.w3.org/2000/svg" xmlns:xlink="http://www.w3.org/1999/xlink" x="0px" y="0px"
	 viewBox="0 0 485 182" style="enable-background:new 0 0 485 182;" xml:space="preserve">
<style type="text/css">
	.st0{fill:#231F1F;}
	.st1{fill:#BFBFBF;}
	.st2{fill:#D32616;}
</style>
<title>Asset 1</title>
<g>
	<g id="Layer_1-2">
		<g id="layer1-5">
			<path id="path2830" d="M165.5,88.5c-7-0.1-11.5,2.2-13.7,6.9c-3.2,6.9-0.3,12.2,9.6,17.9c5.6,3.2,8.1,6.1,8.1,9.2
				c0,6.4-7.7,8.6-15.6,4.6c-1.6-0.8-3-1.5-3.1-1.5c-0.3,1.8-0.2,6.2-0.2,6.2c2,0.8,4,1.3,6.1,1.7c9.1,1.8,17.4-2.4,18.2-9.4
				c0.7-6.4-1.7-9.9-10.5-15.2c-5.9-3.6-8.6-6.2-8.2-9.2c0.9-8.4,11.4-7.3,17.1-4.1v-5.7C170.8,88.9,168.2,88.5,165.5,88.5z
				 M200.5,88.5c-0.4,0-0.9,0-1.3,0.1c-8.6,0.5-14.4,4.3-17.8,11.7c-2.9,6.7-2.6,15.5,0.1,22.2c3.1,6.6,8,10.1,16.2,11.4
				c1.7,0.3,2.9,1.3,6.2,5.2l4.1,4.9h7.5l-5.1-5.1c-2.8-2.8-5.1-5.2-5.1-5.4s1.1-0.6,2.4-1.1c4.3-1.3,7.7-4.5,10.2-9.6
				c2-4,2.3-5.2,2.5-10.3C221.4,97.7,213.5,88.4,200.5,88.5L200.5,88.5z M277.6,88.6c-7-0.1-11.6,2.2-13.7,6.9
				c-3.2,6.9-0.3,12.2,9.6,17.9c5.6,3.2,8.1,6.1,8.1,9.2c0,6.4-7.7,8.6-15.6,4.6c-1.6-0.8-3-1.5-3.1-1.5c-0.3,1.8-0.2,6.2-0.2,6.2
				c2,0.8,4,1.3,6.1,1.7c9.1,1.8,17.4-2.4,18.2-9.4c0.7-6.4-1.7-9.9-10.5-15.2c-5.9-3.6-8.6-6.2-8.2-9.2c0.9-8.4,11.4-7.3,17.1-4.1
				v-5.7C282.9,89,280.2,88.6,277.6,88.6L277.6,88.6z M227.5,89v43.9h23.1v-5.2h-17.7V89H227.5z M200.1,93.1c9.2,0,14.4,5.6,15,16.2
				c0.6,8.8-2.4,15.4-8.1,18.1c-3.6,1.7-9,2.1-12.5,0.9c-3.6-1.3-7-5.1-8.6-9.2c-1.7-4.6-1.5-13.1,0.5-17
				C189.7,95.9,193.9,93.1,200.1,93.1z M385.6,100.9c-1.1,0-2.3,0.2-3.4,0.4c-7.3,1.9-11.4,8.9-11.1,16.1c0,6.1,1.2,9,4.1,12.2
				c5.9,4.9,11.4,5.3,18.6,2.7c1.3-0.6,2.6-1.1,2.6-1.1v-5l-2.6,1.3c-5.9,2.5-10.3,2.5-13.9-0.5c-2.3-2.3-3.2-5.1-3.8-8.2h22v-4.2
				C398.2,106.1,393.1,100.7,385.6,100.9L385.6,100.9z M305.1,100.9c-1.1,0-2.2,0.2-3.3,0.4c-7.3,1.9-11.4,8.9-11.1,16.1
				c0,6.1,1.2,9.1,4.1,12.2c5.9,4.9,11.4,5.3,18.6,2.7c1.3-0.6,2.6-1.2,2.6-1.2v-4.9l-2.6,1.3c-5.9,2.5-10.3,2.5-13.9-0.5
				c-2.3-2.3-3.2-5.1-3.8-8.2h22v-4.2C317.7,106.2,312.6,100.8,305.1,100.9L305.1,100.9z M417.7,101.1c-3.2,0-5.6,1.3-7.2,3.8
				l-1.3,2v-2.6v-2.6h-5.5v31.1h5.4v-9.9c0-9.1,0.1-10.2,1.3-12.6c1.7-3.4,4.7-5.1,7.7-4.3l2,0.6v-5.4L417.7,101.1L417.7,101.1z
				 M337.2,101.2c-3.2,0-5.6,1.3-7.2,3.8l-1.3,2v-2.6v-2.6h-5.4v31.1h5.4V123c0-9.1,0.1-10.2,1.3-12.6c1.7-3.4,4.7-5.1,7.7-4.3
				l2,0.6v-5.4L337.2,101.2L337.2,101.2z M341.5,101.7c3.7,10.3,7.7,20.9,11.7,31.1c1.7,0,3.5,0,5.2,0l6.2-15.4l6.2-15.7h-5.4
				c0,0-2.4,6.2-4.9,13.3l-4.5,11.8l-4.3-11.9l-4.4-13.2L341.5,101.7z M385.3,105.5c1.7,0,3.3,0.6,4.7,1.6c2.8,2.1,3.2,7.3,3.2,7.3
				h-16.4c0,0,0.9-5.4,3.9-7.4C381.9,106.1,383.5,105.5,385.3,105.5L385.3,105.5z M304.7,105.6c1.7,0,3.3,0.6,4.7,1.6
				c2.8,2.1,3.2,7.3,3.2,7.3h-16.4c0,0,0.9-5.3,3.9-7.4C301.4,106.2,303.1,105.6,304.7,105.6L304.7,105.6z"/>
		</g>
		<g id="g3073">
			<path id="path26" class="st0" d="M246.4,73.1c0-0.2-0.1-0.4-0.2-0.5c-0.2-0.2-0.5-0.2-0.7-0.2h-0.5v1.3h0.6
				C246.2,73.8,246.4,73.6,246.4,73.1 M247.2,75.9h-0.7l-0.5-0.9c-0.2-0.5-0.5-0.7-0.7-0.7h-0.4v1.7h-0.6V72h1.1
				c0.4,0,0.8,0.1,1.1,0.3c0.2,0.2,0.3,0.5,0.3,0.7s-0.1,0.5-0.2,0.7c-0.2,0.2-0.5,0.3-0.7,0.4l0,0c0.2,0.1,0.5,0.3,0.6,0.7
				L247.2,75.9L247.2,75.9z M248.5,74c0-1.5-1.3-2.8-2.8-2.8c-1.5,0-2.8,1.3-2.8,2.8c0,0.7,0.3,1.4,0.8,1.9c1.1,1.1,2.8,1,3.9,0
				C248.2,75.4,248.5,74.7,248.5,74 M248.8,74c0,0.8-0.3,1.6-0.9,2.2c-1.3,1.2-3.2,1.2-4.4,0c-1.2-1.3-1.2-3.2,0-4.4
				c1.3-1.2,3.2-1.2,4.4,0C248.5,72.3,248.8,73.1,248.8,74"/>
			<path id="path28" class="st0" d="M168.1,84.3h-1.8V73.9c0-0.8,0.1-1.8,0.2-3h-0.1c-0.1,0.5-0.2,1-0.5,1.5l-5.3,11.9h-0.9
				l-5.3-11.8c-0.2-0.6-0.4-1-0.5-1.6h-0.1c0.1,0.6,0.1,1.6,0.1,3v10.4h-1.7V68.8h2.4l4.7,10.8c0.3,0.6,0.6,1.2,0.7,1.9h0.1
				c0.3-0.9,0.6-1.5,0.7-1.9l4.8-10.8h2.3"/>
			<path id="path30" class="st0" d="M173.7,73.2v11.1H172V73.2H173.7z M174,69.3c0,0.3-0.2,0.6-0.3,0.8c-0.2,0.2-0.6,0.3-0.9,0.3
				c-0.3,0-0.6-0.1-0.8-0.3c-0.5-0.5-0.5-1.2,0-1.7s1.2-0.5,1.7,0C173.9,68.7,174,69,174,69.3"/>
			<path id="path32" class="st0" d="M184.8,83.8c-0.9,0.6-2,0.8-3.1,0.8c-1.4,0.1-2.8-0.6-3.9-1.6c-0.9-1.1-1.5-2.5-1.4-3.9
				c-0.1-1.6,0.5-3.2,1.6-4.4c1.1-1.1,2.6-1.7,4.2-1.7c0.9,0,1.7,0.2,2.5,0.6v1.8c-0.8-0.6-1.7-0.9-2.6-0.9c-1,0-2.1,0.4-2.8,1.2
				c-0.8,0.9-1.2,2.1-1.1,3.2c-0.1,1.1,0.3,2.2,1,3.1c0.7,0.8,1.7,1.2,2.8,1.1c1,0,2-0.3,2.7-0.9"/>
			<path id="path34" class="st0" d="M193.2,75.1c-0.4-0.2-0.9-0.4-1.3-0.3c-0.7,0-1.4,0.4-1.8,0.9c-0.6,0.9-0.9,2-0.9,3v5.6h-1.7
				V73.2h1.7v2.3h0.1c0.2-0.7,0.6-1.3,1.2-1.9c0.5-0.4,1.1-0.6,1.7-0.6c0.4,0,0.7,0,1.1,0.2"/>
			<path id="path36" class="st0" d="M203.1,78.8c0.1-1.2-0.2-2.3-0.9-3.2c-0.6-0.7-1.7-1.1-2.6-1.1c-1-0.1-2,0.3-2.7,1.1
				c-0.8,0.9-1.1,2.1-1,3.3c-0.1,1.1,0.3,2.2,1,3.1c0.7,0.8,1.7,1.2,2.7,1.1c1,0.1,2.1-0.3,2.7-1.1
				C202.9,81.1,203.2,79.9,203.1,78.8 M204.9,78.8c0.1,1.6-0.5,3.1-1.5,4.3c-1,1.1-2.5,1.7-4,1.6c-1.5,0.1-2.9-0.6-3.9-1.6
				c-0.9-1.1-1.5-2.6-1.4-4.1c0-1.9,0.6-3.4,1.6-4.5c1.1-1,2.5-1.6,4-1.5c1.4-0.1,2.8,0.5,3.9,1.5C204.4,75.5,204.9,76.9,204.9,78.8
				"/>
			<path id="path38" class="st0" d="M213.8,81.4c0,0.9-0.4,1.7-1,2.3c-0.9,0.7-2,1-3.1,0.9c-0.9,0-1.9-0.2-2.8-0.7V82
				c0.8,0.7,1.8,1.1,2.8,1.1c1.4,0,2.1-0.6,2.1-1.6c0-0.4-0.2-0.8-0.5-1.1c-0.6-0.4-1.2-0.8-1.8-1c-0.7-0.3-1.4-0.7-2-1.3
				c-1-1.3-0.9-3.2,0.4-4.3c0.8-0.6,1.8-0.9,2.8-0.9c0.8,0,1.7,0.2,2.4,0.6v1.8c-0.7-0.6-1.6-0.8-2.5-0.8c-0.5,0-1,0.2-1.4,0.5
				c-0.3,0.2-0.6,0.7-0.6,1.1s0.2,0.9,0.5,1.2c0.5,0.4,1.1,0.7,1.7,0.9c0.8,0.3,1.4,0.7,2.1,1.2C213.4,79.9,213.8,80.6,213.8,81.4"
				/>
			<path id="path40" class="st0" d="M224.6,78.8c0.1-1.2-0.2-2.3-0.9-3.2c-0.6-0.7-1.7-1.1-2.6-1.1c-1-0.1-2,0.3-2.7,1.1
				c-0.8,0.9-1.2,2.1-1.1,3.3c-0.1,1.1,0.3,2.2,1,3.1c0.7,0.8,1.7,1.2,2.7,1.1c1,0.1,2.1-0.3,2.7-1.1
				C224.3,81.1,224.6,79.9,224.6,78.8 M226.4,78.8c0.1,1.6-0.5,3.1-1.5,4.3c-1,1.1-2.5,1.7-4,1.6c-1.5,0.1-2.9-0.6-3.9-1.6
				c-0.9-1.1-1.5-2.6-1.4-4.1c0-1.9,0.6-3.4,1.6-4.5c1.1-1,2.5-1.6,4-1.5c1.4-0.1,2.8,0.5,3.9,1.5C225.8,75.5,226.3,76.9,226.4,78.8
				"/>
			<path id="path42" class="st0" d="M234.2,69.4c-0.4-0.2-0.8-0.3-1.2-0.3c-1.3,0-1.9,0.8-1.9,2.4v1.7h2.6v1.5h-2.6v9.6h-1.7v-9.6
				h-1.9v-1.5h1.9v-1.8c-0.1-1.1,0.4-2.1,1.1-2.8c1-0.9,2.4-1.1,3.7-0.7"/>
			<path id="path44" class="st0" d="M241.2,84.2c-0.6,0.2-1.1,0.4-1.7,0.3c-1.9,0-2.9-1.1-2.9-3.2v-6.6h-1.9v-1.5h1.9v-2.7l1.7-0.6
				v3.2h2.8v1.5h-2.8V81c-0.1,0.6,0.1,1.1,0.4,1.6c0.3,0.3,0.8,0.6,1.3,0.5c0.4,0,0.8-0.1,1.2-0.4"/>
		</g>
		<path id="path3151" class="st0" d="M425.7,103.1c0-0.2-0.1-0.4-0.2-0.5c-0.2-0.2-0.5-0.2-0.7-0.2h-0.5v1.3h0.6
			C425.4,103.7,425.7,103.5,425.7,103.1 M426.5,105.8h-0.7l-0.5-0.9c-0.2-0.5-0.5-0.7-0.7-0.7h-0.4v1.7h-0.6v-3.9h1.1
			c0.4,0,0.8,0.1,1.1,0.3c0.2,0.2,0.3,0.5,0.3,0.7c0,0.2-0.1,0.5-0.2,0.7c-0.2,0.2-0.5,0.3-0.7,0.4l0,0c0.2,0.1,0.5,0.3,0.6,0.7
			L426.5,105.8L426.5,105.8z M427.6,103.9c0-1.5-1.3-2.8-2.8-2.8s-2.8,1.3-2.8,2.8c0,0.7,0.3,1.4,0.8,1.9c1.1,1.1,2.8,1,3.9,0
			C427.4,105.4,427.6,104.7,427.6,103.9 M428,103.9c0,0.8-0.3,1.7-0.9,2.2c-1.3,1.2-3.2,1.2-4.4,0c-1.2-1.3-1.2-3.2,0-4.4
			c1.3-1.2,3.2-1.2,4.4,0C427.7,102.3,428,103.1,428,103.9"/>
		<path id="path3639" class="st1" d="M113,83.5l-19.5,6.3l-16.9,7.5l-4.7,1.3c-1.2,1.1-2.4,2.3-3.9,3.5c-1.5,1.3-2.9,2.4-3.9,3.3
			c-1.4,1.2-2.7,2.4-3.9,3.8c-1.2,1.4-2.2,3.1-2.8,4.8c-0.8,2.4-0.4,5.2,1.2,7.3c2,2.9,6,5.9,10.7,8c3,1.3,6.2,2.3,9.3,3.2
			c6.6,1.5,13.3,2.4,20,2.8c0.9,0.1,1.7,0.1,2.6,0c0.7-1.2,1.3-2.4,1.9-3.6c3.2-6.6,5.6-12.9,6.9-18.2c0.9-4.2,1.5-8.4,1.7-12.6
			c0.1-1.4,0.2-6.2,0.1-7.8c-0.1-2.3-0.3-4.7-0.7-6.9c-0.1-0.2-0.1-0.4-0.1-0.6c0.9-0.3,1.7-0.6,2.6-0.8L113,83.5L113,83.5z
			 M108.5,86.1c0.2,0,0.6,4.5,0.8,7.3c0.1,0.3,0.1,0.6,0,1c-0.1,0-2.5-1.4-4.2-2.4c-1.5-0.9-4.3-2.8-4.7-3.2
			c-0.2-0.1-0.2-0.1,1.1-0.6C103.5,87.6,108.4,86.1,108.5,86.1L108.5,86.1z M98.6,89.3c0.5,0.2,0.9,0.4,1.3,0.7
			c2.8,1.8,5.8,3.5,8.9,5c0.6,0.2,0.6,0.2-0.6,1c-3.2,2.1-6.6,3.9-10.1,5.4c-0.7,0.3-1.3,0.6-1.3,0.6c0-0.2,0.1-0.6,0.2-0.8
			c0.9-3.4,1.5-6.9,1.6-10.3C98.5,89.3,98.5,89.3,98.6,89.3L98.6,89.3L98.6,89.3z M96.6,90.1c0.1,1.4,0,2.8-0.1,4.3
			c-0.2,2.1-0.7,4.3-1.3,6.4c-0.2,0.6-0.3,1-0.3,1c-0.9-0.8-1.9-1.7-2.8-2.7c-1-1.2-2-2.5-2.7-3.9c-0.3-0.6-0.6-1.3-0.8-2
			C88.8,93.1,96.6,90.1,96.6,90.1L96.6,90.1z M87,93.9C87,93.9,87,93.9,87,93.9c0.2,0.2,0.2,0.3,0.2,0.6c0.6,1.6,1.4,3,2.4,4.4
			c1,1.3,2.1,2.5,3.4,3.6l0.7,0.6c0.1,0.1,0.2,0.1-2.3,0.9c-2.8,1.1-5.8,2.1-9.3,3.2l-2.5,0.8c-0.2,0.1-0.1,0,0.3-0.6
			c2.3-3.7,4.2-7.7,5.8-11.7c0.2-0.6,0.5-1.3,0.6-1.4c0-0.2,0.2-0.3,0.3-0.4C86.8,93.9,86.9,93.9,87,93.9L87,93.9z M84,95.1
			c-0.4,1-0.9,2.1-1.4,3.1c-1.4,2.8-3,5.5-5.1,8.8c-0.4,0.6-0.7,1.1-0.7,1.2c-0.1,0.1-0.1,0.1-0.3-0.4c-0.6-1.1-0.9-2.2-1.1-3.4
			c-0.2-1.4-0.2-2.9,0.1-4.4c0.2-0.9,0.2-0.9,0.6-1.1C77.9,97.9,84,95,84,95.1L84,95.1z M109.4,96.1v0.6c0,3.7-0.3,7.3-0.9,11.1
			c-0.1,0.6-0.2,1.1-0.2,1.1s-0.4-0.1-0.9-0.2c-2.4-0.7-4.6-1.7-6.8-2.9c-1.2-0.6-2.4-1.3-3.5-2.1c0,0,0.6-0.3,1.3-0.7
			c2.8-1.4,5.4-3,8.1-4.7c0.9-0.6,2.2-1.6,2.5-1.8L109.4,96.1z M72.9,100.5c0.1,0,0.1,0.1-0.1,0.6c-0.1,0.4-0.2,1.1-0.2,1.6
			c-0.2,2.1,0.3,4.1,1.3,5.9c0.3,0.6,0.6,1.1,0.6,1.1c0,0.2-9.8,3-12.8,3.8L60,114c-0.1,0-0.1,0-0.1-0.2c0.3-2.1,2-5,4.3-7.3
			c1.4-1.5,3-2.8,4.8-3.7C70.5,101.8,72.7,100.6,72.9,100.5L72.9,100.5L72.9,100.5z M95.9,104.6c0.2,0.2,0.6,0.2,0.8,0.4
			c3.6,2,7.3,3.5,11.3,4.3l0.3,0.1l-0.5,0.2c-2,1.1-8.4,3.8-14.9,6.2l-2.1,0.8c-0.1,0.1-0.2,0.1-0.3,0.1c0,0,0.2-0.6,0.6-1.2
			c1.8-3.4,3.4-6.9,4.7-10.6C95.8,104.8,95.9,104.6,95.9,104.6L95.9,104.6z M93.5,105.4c-0.1,0.2-0.2,0.5-0.2,0.7
			c-1.5,3.6-3.2,6.9-5.1,10.3c-0.6,0.9-1,1.7-1,1.7s-0.5-0.2-0.9-0.6c-2.9-1.7-5.5-3.9-7.7-6.6l-0.2-0.3l1.3-0.4
			c4.4-1.2,8.7-2.7,12.9-4.5C93,105.5,93.5,105.4,93.5,105.4L93.5,105.4z M108,110.4L108,110.4c0,0.3-0.7,3.3-1.3,5.5
			c-0.6,1.8-0.9,3.2-1.7,5.8c-0.3,1.1-0.6,2.1-0.7,2.1h-0.2c-4.1-0.7-8.1-1.8-11.9-3.4c-1-0.4-2.5-1.1-2.6-1.2
			c0.6-0.3,1.3-0.6,2-0.9c6.7-2.9,13.7-6.2,16-7.7C107.6,110.6,107.9,110.5,108,110.4L108,110.4z M74.5,111.6c0,0-1.8,2.7-4.4,6.4
			l-2.4,3.3c-0.4,0.6-1,1.4-1.3,2l-0.6,0.9l-0.6-0.6c-0.9-0.9-1.9-1.8-2.8-2.8c-1.2-1.3-2-3-2.4-4.7c-0.2-0.7-0.2-1.1,0-1.1
			c0.2,0,4.1-1,7.8-1.9c2.1-0.5,4.4-1,5.3-1.3S74.5,111.6,74.5,111.6L74.5,111.6z M76.4,112.3l0.5,0.6c2,2.2,4.3,4.2,6.9,5.7
			c0.3,0.2,0.6,0.3,0.8,0.6c-0.1,0.1-9.1,3.2-13.3,4.7c-2.4,0.8-4.3,1.5-4.3,1.5c-0.1-0.1-0.2-0.2-0.3-0.2l-0.2-0.2l0.4-0.6
			c1.3-2,3.1-4.2,6.9-8.8L76.4,112.3L76.4,112.3z M88.1,120.7c0,0,0.6,0.2,1.5,0.6c1.8,0.7,3.6,1.3,5.4,1.7c2.7,0.6,5.4,1.1,8.3,1.4
			c0.3,0,0.5,0.1,0.5,0.1s-2.3,0.8-3.9,1.3c-2.5,0.8-10.3,3.1-16.6,4.9l-2.2,0.6c-0.2,0-0.6-0.1-0.6-0.2c0.2-0.3,0.5-0.7,0.8-1
			c2.1-2.6,4.1-5.3,6-8.1L88.1,120.7z M85.5,120.8c0,0-1,1.7-2.8,4.6l-2,3.1c-0.3,0.5-0.7,1.2-0.9,1.6l-0.4,0.8l-0.2-0.1
			c-0.6-0.2-4.3-1.4-5.2-1.8c-1.2-0.5-2.3-0.9-3.4-1.6c-1.2-0.6-2.7-1.6-2.5-1.6l4.5-1.2c6.4-1.7,10-2.8,12.3-3.5
			C85.1,120.8,85.5,120.8,85.5,120.8L85.5,120.8z M103.9,125L103.9,125c0.1,0.2-2.3,6.8-3.2,8.8c-0.2,0.5-0.2,0.6-0.4,0.6
			c-0.2,0-3.7-0.5-5.8-0.8c-3.6-0.6-9.8-1.6-11.4-2l-0.4-0.1l2.2-0.5c4.7-1.1,6.9-1.6,9.2-2.4c2.9-0.9,5.8-2.1,8.7-3.3
			C103.1,125.3,103.5,125.2,103.9,125L103.9,125z"/>
		<path id="path3667" class="st1" d="M93,38.1c-0.3,0-5.5,1.8-8.9,3.2c-4.6,1.8-8.1,3.6-10.3,5.1c-0.8,0.6-1.4,1.2-2,2
			c-0.1,0.2-0.1,0.3-0.1,0.5l2,1.9l4.7,1.5l11.1,2l12.8,2.2l0.2-1.1h-0.1l-1.7-0.2l-0.3-0.6c-1.7-3.1-3.7-6.9-4.7-9.5
			c-0.9-1.9-1.6-3.9-2.1-5.9C93.1,38.2,93.1,38.1,93,38.1L93,38.1z M92.7,38.9L92.7,38.9c0,0,0.1,0.4,0.2,0.9
			c0.2,2.1,0.7,4.2,1.4,6.2c0.6,1.6,0.6,1.5-0.1,1.3c-1.5-0.4-8.2-1.6-13.1-2.2c-0.8-0.1-1.4-0.2-1.4-0.2s3.5-1.9,5.1-2.7
			C86.7,41.3,92.2,39,92.7,38.9L92.7,38.9z M78.5,45.4l0.6,0.2c3.2,1.1,11,2.5,15.3,2.9c0.5,0.1,0.9,0.1,0.9,0.1
			c-0.3,0.2-0.6,0.3-0.9,0.5c-2.1,1.1-4.4,2.3-6,3.3c-0.3,0.2-0.6,0.4-0.9,0.6l-0.7-0.1l-0.6-0.1l-1.5-1.4c-2.6-2.5-4.6-4.4-5.4-5.2
			L78.5,45.4z M78,45.9l2.1,2.6c1.1,1.4,2.3,2.8,2.5,3.2c0.2,0.2,0.3,0.4,0.5,0.6c-0.1,0.1-3-0.6-4.6-0.9c-1.6-0.3-2.3-0.6-3.2-0.9
			l-0.8-0.2V50c0-1,1.3-2.4,3.4-3.9L78,45.9L78,45.9z M95.6,49.4c0.1,0,0.2,0.2,0.3,0.6c0.5,1.1,2.1,4.1,2.4,4.7
			c0.2,0.2,0.3,0.2-1.7-0.2c-5-0.8-6.6-1.1-6.6-1.1c0.1-0.1,0.2-0.2,0.3-0.2c1.6-0.9,3.1-1.9,4.5-3.1L95.6,49.4
			C95.5,49.5,95.5,49.4,95.6,49.4L95.6,49.4z"/>
		<path id="path2851" class="st2" d="M71.9,48.2c-0.2,0.4-0.2,0.9,0,1.3c0.4,0.6,0.8,1.2,1.3,1.7c0,0,6.6,6.4,7.3,7.3
			c3.6,4.2,5.2,8.3,5.4,14c0.1,3.6-0.7,7.3-2.3,10.6c-3.1,6.6-9.6,14.1-19.5,22.2l1.5-0.5c1.7-1.2,3.4-2.2,5.2-3.1
			c7.8-4.2,15.9-7.8,24.3-10.9c13.7-5.1,36.4-11.3,49.3-13.2l1.3-0.2l-0.2-0.3c-0.9-1.4-1.9-2.8-2.9-4.2c-2.9-3.6-6.4-6.5-10.4-8.7
			c-5.8-3.2-13.3-5.8-22.7-7.6c-1.8-0.3-5.7-1-8.8-1.5C94,54,89.6,53.3,84.8,52.5c-1.7-0.3-4.3-0.7-6-1.1c-1.3-0.3-2.6-0.6-3.9-1
			C73.8,49.9,72.2,49.5,71.9,48.2L71.9,48.2z M75.7,51.9c0.2,0.1,0.4,0.1,0.6,0.2c0.6,0.2,1.3,0.4,2.1,0.6c0.6,0.2,1.3,0.3,2,0.6
			c0.9,0.2,1.6,0.4,1.6,0.4c0.1,0.1,1.6,4.8,2.1,6.6c0.2,0.7,0.3,1.3,0.3,1.3c-0.2-0.2-0.2-0.4-0.4-0.6c-2-3.3-4.6-6.2-7.6-8.6
			C76,52.2,75.7,51.9,75.7,51.9L75.7,51.9z M82.9,53.9c0.2,0,0.6,0.1,0.8,0.2c2.5,0.6,6.9,1.4,9.9,1.9c0.3,0,0.6,0.1,0.9,0.2
			c-0.1,0.1-0.2,0.2-0.4,0.2c-0.5,0.2-2.4,1.4-3.1,1.8c-1.5,0.9-2.9,2.1-4.2,3.3c-0.4,0.4-0.8,0.8-0.8,0.8c-0.1-0.2-0.2-0.3-0.2-0.6
			c-0.7-2.4-1.6-4.9-2.6-7.2C83.1,54.4,83,54.2,82.9,53.9L82.9,53.9L82.9,53.9z M95.6,56.3c0.1,0,0.2,0.6,0.6,1.6
			c0.6,2.2,0.8,4.5,0.7,6.7c0,0.6-0.1,1.2-0.1,1.3l-0.1,0.2L96,65.9c-1.6-0.5-4.1-1.3-6.3-1.9c-1.3-0.3-2.3-0.6-2.3-0.7
			c0.8-0.9,1.7-1.8,2.6-2.6C91.5,59.4,95.5,56.3,95.6,56.3L95.6,56.3z M96.7,56.5c0.1-0.1,6.1,1,8.8,1.5c2.1,0.4,5,1,5.2,1.1
			c0.1,0-0.2,0.2-1.2,0.6c-3.4,1.5-6.6,3.2-9.6,5.2c-0.8,0.5-1.4,0.9-1.4,0.9c0-0.3,0-0.6,0-0.9c0-2.8-0.6-5.4-1.6-8
			C96.7,56.8,96.7,56.7,96.7,56.5L96.7,56.5z M112.3,59.6c-0.1,0.6-0.2,1.3-0.3,2c-0.6,2.1-2,5.4-3.7,8.4c-0.2,0.3-0.4,0.7-0.6,1
			c-0.3-0.2-0.6-0.3-0.9-0.5c-1.9-1.1-3.8-2.1-5.8-2.8c-0.6-0.2-1.1-0.5-1.1-0.5c-0.1,0,4.7-3.2,7.1-4.7
			C109,61.3,112.2,59.6,112.3,59.6L112.3,59.6z M113.4,59.7c0.2,0,2.8,0.7,4.2,1.2c3.4,1,6.8,2.2,10,3.6l1.1,0.5l-0.8,0.2
			c-5.8,1.3-11.4,3-17,5.2c-0.5,0.2-0.8,0.3-0.9,0.3c0.1-0.2,0.2-0.5,0.3-0.7c1.5-3.1,2.4-6.4,2.8-9.8
			C113.3,60,113.3,59.9,113.4,59.7L113.4,59.7z M86.8,65.9c0.1-0.1,2.1,0.5,3.2,0.8c1.7,0.5,5.2,1.7,5.2,1.7s-0.4,0.4-0.9,0.8
			c-1.9,1.6-3.8,3.3-6,5.4c-0.6,0.6-1.2,1.2-1.3,1.2c0,0,0-0.1,0-0.2c0.3-2.9,0.2-5.9-0.2-8.8C86.9,66.4,86.8,66.1,86.8,65.9
			L86.8,65.9z M129.8,65.9c0,0-0.9,1.6-1.6,2.4c-0.9,1.3-2.2,2.9-5.1,6.6l-3.9,4.9c-0.6,0.7-1.1,1.3-1.1,1.3
			c-0.2-0.2-0.3-0.4-0.4-0.6c-1.7-2.4-3.6-4.7-6-6.6c-0.5-0.4-0.9-0.8-1.1-0.9c-0.1-0.1-0.2-0.2-0.3-0.2c0-0.1,2.5-1.1,4.4-1.9
			c3.3-1.3,7.8-3,11.3-4C127.9,66.4,129.8,65.9,129.8,65.9L129.8,65.9z M130.9,66.2c0.3,0.1,0.6,0.2,0.9,0.4
			c3.6,2.1,6.9,4.5,9.9,7.4c0.8,0.8,2.7,2.8,2.7,2.8l-1.5,0.1c-7.3,0.6-14.6,1.9-21.7,3.6c-0.6,0.2-0.9,0.2-1,0.2
			c0,0,0.6-0.6,1.3-1.3c4.5-4.3,6.6-7,8.9-11.8C130.5,66.9,130.9,66.3,130.9,66.2L130.9,66.2L130.9,66.2z M98.1,69.6
			c0.2,0.1,2.1,0.9,3.6,1.7c1.3,0.6,3.3,1.7,3.4,1.8c0,0-0.7,0.4-1.6,0.8c-2.8,1.4-5.1,2.7-7.6,4.2c-0.7,0.4-1.3,0.8-1.3,0.8
			c0,0,0-0.1,0.4-0.8c1.3-2.5,2.4-5.3,3-8.1C98,69.7,98.1,69.5,98.1,69.6L98.1,69.6z M96.2,69.9c-0.2,0.9-0.5,1.9-0.8,2.8
			c-0.7,2.1-1.6,4-2.6,6c-0.2,0.4-0.6,1-0.8,1.3l-0.3,0.6l-0.8-0.8c-0.8-0.8-1.7-1.5-2.8-2.1c-0.2-0.1-0.5-0.2-0.7-0.4
			c1.4-1.4,2.9-2.8,4.4-4C93.2,72.2,96.1,69.8,96.2,69.9z M107.9,74.7l0.7,0.5c1.7,1.2,3.5,2.4,5.1,3.8c0.9,0.7,2.4,2.1,2.8,2.5
			l0.2,0.2l-1.2,0.3c-6.7,1.9-11.9,3.6-18,5.8c-0.7,0.2-1.3,0.5-1.3,0.5c-0.1,0-0.2,0.1,1.3-1.3c3.7-3.4,7-7.2,9.9-11.4L107.9,74.7z
			 M104.8,75.5c0,0-2,2.8-3.2,4.5c-1.4,1.9-4,5.1-5.8,7.2c-0.7,0.9-1.3,1.6-1.4,1.6s-0.1-0.2-0.1-0.6c0-1.8-0.5-3.6-1.3-5.3
			c-0.3-0.7-0.4-0.9-0.3-0.9c0.3-0.2,4.6-2.7,7.3-4.1C101.9,76.9,104.7,75.4,104.8,75.5L104.8,75.5z M86.2,80
			c0.2,0.1,0.6,0.2,0.8,0.4c0.9,0.5,1.7,1,2.5,1.7c-0.2,0.2-0.6,0.5-0.9,0.7c-1.4,1-3.6,2.6-4.7,3.6c-1.3,0.9-1.3,1.1-1.2,0.9
			c0.7-1.1,1.4-2.2,2-3.4c0.5-1,0.9-2.1,1.2-3.1C85.9,80.5,86.1,80.3,86.2,80L86.2,80z M91.1,83.9c0.1,0,0.2,0.1,0.6,0.7
			c0.9,1.3,1.4,2.8,1.7,4.3v0.3l-2,0.8c-3.6,1.4-6.9,2.8-9.2,3.9c-0.6,0.3-1.7,0.8-2.4,1.2c-0.7,0.4-1.3,0.6-1.3,0.6s0.5-0.4,1-0.8
			c4.1-2.9,7.8-6.3,11.1-10.2C90.8,84.3,91.1,84,91.1,83.9L91.1,83.9L91.1,83.9z M88.9,84.5c-0.9,1.1-1.7,2.1-2.8,3.2
			C83.3,90.5,80.3,93,77,95l-0.9,0.6c-0.1,0.1,0-0.1,1.6-1.7c0.9-1.1,1.7-1.9,2.5-3c0.4-0.6,0.9-1,1.5-1.4
			C83.9,87.8,88.9,84.4,88.9,84.5L88.9,84.5z"/>
		<path id="path168" class="st0" d="M105.9,132.8h-0.8v2.5h-0.3v-2.5H104v-0.3h1.9"/>
		<path id="path170" class="st0" d="M109.3,135.3H109v-1.9c0-0.2,0-0.3,0-0.6l0,0c0,0.1-0.1,0.2-0.1,0.2l-1,2.1h-0.2l-0.9-2.1
			c0-0.1-0.1-0.2-0.1-0.3l0,0c0,0.1,0,0.3,0,0.6v1.9h-0.3v-2.8h0.5l0.9,2c0.1,0.1,0.1,0.2,0.2,0.3l0,0c0.1-0.2,0.1-0.2,0.2-0.3
			l0.9-2h0.4"/>
	</g>
</g>
</svg>
