<?xml version="1.0" encoding="utf-8"?>
<!-- Generator: Adobe Illustrator 23.0.4, SVG Export Plug-In . SVG Version: 6.00 Build 0)  -->
<svg version="1.1"
	 id="svg3710" inkscape:version="0.92.1 r15371" sodipodi:docname="Visual_Studio_2017_logo_and_wordmark.svg" xmlns:cc="http://creativecommons.org/ns#" xmlns:dc="http://purl.org/dc/elements/1.1/" xmlns:inkscape="http://www.inkscape.org/namespaces/inkscape" xmlns:rdf="http://www.w3.org/1999/02/22-rdf-syntax-ns#" xmlns:sodipodi="http://sodipodi.sourceforge.net/DTD/sodipodi-0.dtd" xmlns:svg="http://www.w3.org/2000/svg"
	 xmlns="http://www.w3.org/2000/svg" xmlns:xlink="http://www.w3.org/1999/xlink" x="0px" y="0px" viewBox="0 0 485 182"
	 style="enable-background:new 0 0 485 182;" xml:space="preserve">
<style type="text/css">
	.st0{fill:#865FC5;}
</style>
<sodipodi:namedview  bordercolor="#666666" borderopacity="1" gridtolerance="10" guidetolerance="10" id="namedview3712" inkscape:current-layer="svg3710" inkscape:cx="107" inkscape:cy="10.168344" inkscape:pageopacity="0" inkscape:pageshadow="2" inkscape:window-height="1001" inkscape:window-maximized="1" inkscape:window-width="1218" inkscape:window-x="54" inkscape:window-y="-8" inkscape:zoom="5.1074766" objecttolerance="10" pagecolor="#ffffff" showgrid="false">
	</sodipodi:namedview>
<path id="iconBg" inkscape:connector-curvature="0" class="st0" d="M195.2,50.3v69.9l-61.1-9l61.1,20.5l20.4-8.5V58.8L195.2,50.3z
	 M155.1,89.4l18.7,18.6l11.3-4.7V66.9l-11.3-4.7l-18.7,18.5l-11.3-8.5l-4.7,1.6v22.6l4.6,1.6L155.1,89.4z M173.8,75.4v19.4L161,85.1
	L173.8,75.4z M143.9,78.3l6.8,6.8l-6.8,6.8V78.3z"/>
<g>
	<path class="st0" d="M231.1,69.6v-5.4h38.6v5.4h-16.1v42.8h-6.4V69.6H231.1z"/>
	<path class="st0" d="M306.7,64.2v5.4h-25.3V85h22.2v5.4h-22.2v22.1H275V64.2H306.7z"/>
	<path class="st0" d="M337.9,70.8c-2.1-1.6-4.9-2.3-8.2-2.3c-1.4,0-2.7,0.1-4,0.4c-1.3,0.3-2.5,0.7-3.5,1.4c-1,0.6-1.8,1.5-2.4,2.5
		c-0.6,1.1-0.9,2.4-0.9,4c0,1.5,0.4,2.7,1.3,3.6c0.9,0.9,2,1.7,3.5,2.3c1.5,0.6,3.1,1.1,5,1.5c1.8,0.4,3.7,0.8,5.6,1.3
		c1.9,0.5,3.8,1,5.6,1.6c1.8,0.6,3.5,1.4,5,2.5c1.5,1,2.6,2.3,3.5,3.9c0.9,1.6,1.3,3.6,1.3,5.9c0,2.6-0.6,4.8-1.7,6.6
		c-1.1,1.8-2.6,3.3-4.4,4.5c-1.8,1.1-3.8,2-6,2.5c-2.2,0.5-4.4,0.8-6.7,0.8c-2.7,0-5.3-0.3-7.7-1c-2.4-0.7-4.5-1.7-6.4-3.1
		c-1.8-1.4-3.3-3.1-4.3-5.3c-1.1-2.1-1.6-4.7-1.6-7.6h6.1c0,2,0.4,3.8,1.2,5.2c0.8,1.5,1.8,2.7,3.1,3.6c1.3,0.9,2.8,1.6,4.5,2.1
		c1.7,0.5,3.5,0.7,5.3,0.7c1.4,0,2.9-0.1,4.4-0.4c1.5-0.3,2.8-0.7,4-1.4c1.2-0.7,2.1-1.5,2.8-2.7c0.7-1.1,1.1-2.6,1.1-4.3
		c0-1.7-0.4-3-1.3-4.1c-0.9-1-2.1-1.9-3.5-2.5c-1.5-0.7-3.1-1.2-5-1.6c-1.8-0.4-3.7-0.8-5.6-1.2c-1.9-0.4-3.8-0.9-5.6-1.5
		c-1.8-0.6-3.5-1.3-5-2.2c-1.5-0.9-2.6-2.1-3.5-3.6c-0.9-1.5-1.3-3.3-1.3-5.5c0-2.4,0.5-4.5,1.5-6.3c1-1.8,2.3-3.2,4-4.4
		c1.6-1.1,3.5-2,5.6-2.6c2.1-0.6,4.2-0.8,6.5-0.8c2.5,0,4.8,0.3,6.9,0.9c2.1,0.6,4,1.5,5.6,2.8c1.6,1.3,2.9,2.8,3.8,4.8
		c0.9,1.9,1.4,4.2,1.5,6.9h-6.1C341.3,74.9,340.1,72.4,337.9,70.8z"/>
</g>
</svg>
