<?xml version="1.0" encoding="utf-8"?>
<!-- Generator: Adobe Illustrator 23.0.4, SVG Export Plug-In . SVG Version: 6.00 Build 0)  -->
<svg version="1.1"
	 id="svg3710" inkscape:version="0.92.1 r15371" sodipodi:docname="Visual_Studio_2017_logo_and_wordmark.svg" xmlns:cc="http://creativecommons.org/ns#" xmlns:dc="http://purl.org/dc/elements/1.1/" xmlns:inkscape="http://www.inkscape.org/namespaces/inkscape" xmlns:rdf="http://www.w3.org/1999/02/22-rdf-syntax-ns#" xmlns:sodipodi="http://sodipodi.sourceforge.net/DTD/sodipodi-0.dtd" xmlns:svg="http://www.w3.org/2000/svg"
	 xmlns="http://www.w3.org/2000/svg" xmlns:xlink="http://www.w3.org/1999/xlink" x="0px" y="0px" viewBox="0 0 485 182"
	 style="enable-background:new 0 0 485 182;" xml:space="preserve">
<style type="text/css">
	.st0{enable-background:new    ;}
	.st1{fill:#865FC5;}
</style>
<sodipodi:namedview  bordercolor="#666666" borderopacity="1" gridtolerance="10" guidetolerance="10" id="namedview3712" inkscape:current-layer="svg3710" inkscape:cx="107" inkscape:cy="10.168344" inkscape:pageopacity="0" inkscape:pageshadow="2" inkscape:window-height="1001" inkscape:window-maximized="1" inkscape:window-width="1218" inkscape:window-x="54" inkscape:window-y="-8" inkscape:zoom="5.1074766" objecttolerance="10" pagecolor="#ffffff" showgrid="false">
	</sodipodi:namedview>
<g id="g3694" class="st0">
	<path id="path3682" class="st1" d="M172.3,72.2l-13.9,37.5h-4.8L140,72.2h4.9l10.4,29.7c0.3,1,0.6,2.1,0.8,3.3h0.1
		c0.1-1,0.4-2.2,0.9-3.4l10.6-29.7C167.6,72.2,172.3,72.2,172.3,72.2z"/>
	<path id="path3684" class="st1" d="M177.7,76.1c-0.8,0-1.4-0.3-2-0.8c-0.5-0.5-0.8-1.2-0.8-2s0.3-1.5,0.8-2c0.5-0.5,1.2-0.8,2-0.8
		c0.8,0,1.5,0.3,2,0.8c0.5,0.5,0.8,1.2,0.8,2c0,0.8-0.3,1.4-0.8,2C179.2,75.9,178.5,76.1,177.7,76.1z M179.8,109.7h-4.3V82.9h4.3
		V109.7z"/>
	<path id="path3686" class="st1" d="M185.3,108.8v-4.6c2.3,1.7,4.9,2.6,7.7,2.6c3.8,0,5.7-1.3,5.7-3.8c0-0.7-0.2-1.3-0.5-1.8
		c-0.3-0.5-0.8-0.9-1.3-1.3c-0.5-0.4-1.2-0.7-1.9-1c-0.7-0.3-1.5-0.6-2.4-1c-1.2-0.5-2.2-0.9-3.1-1.4c-0.9-0.5-1.6-1-2.3-1.6
		c-0.6-0.6-1.1-1.3-1.4-2.1c-0.3-0.8-0.5-1.7-0.5-2.7c0-1.3,0.3-2.4,0.9-3.3c0.6-1,1.3-1.8,2.3-2.4c1-0.7,2.1-1.1,3.3-1.5
		c1.2-0.3,2.5-0.5,3.8-0.5c2.3,0,4.4,0.4,6.2,1.2v4.3c-2-1.3-4.2-1.9-6.8-1.9c-0.8,0-1.5,0.1-2.2,0.3c-0.6,0.2-1.2,0.4-1.7,0.8
		s-0.8,0.7-1.1,1.2c-0.3,0.5-0.4,1-0.4,1.5c0,0.7,0.1,1.3,0.4,1.8c0.3,0.5,0.6,0.9,1.1,1.3c0.5,0.4,1.1,0.7,1.8,1
		c0.7,0.3,1.5,0.6,2.4,1c1.2,0.5,2.3,0.9,3.2,1.4c0.9,0.5,1.7,1,2.4,1.6c0.7,0.6,1.2,1.3,1.5,2.1c0.4,0.8,0.5,1.7,0.5,2.8
		c0,1.3-0.3,2.5-0.9,3.5c-0.6,1-1.4,1.8-2.3,2.4c-1,0.6-2.1,1.1-3.4,1.4c-1.3,0.3-2.6,0.5-4,0.5
		C189.7,110.4,187.3,109.8,185.3,108.8z"/>
	<path id="path3688" class="st1" d="M229.7,109.7h-4.3v-4.2h-0.1c-1.8,3.2-4.5,4.9-8.3,4.9c-6.4,0-9.6-3.8-9.6-11.4v-16h4.3v15.3
		c0,5.7,2.2,8.5,6.5,8.5c2.1,0,3.8-0.8,5.2-2.3c1.4-1.5,2-3.6,2-6.1V82.9h4.3V109.7z"/>
	<path id="path3690" class="st1" d="M255.9,109.7h-4.3v-4.2h-0.1c-1.9,3.2-4.6,4.8-8.2,4.8c-2.7,0-4.8-0.7-6.3-2.1
		c-1.5-1.4-2.3-3.3-2.3-5.6c0-5,2.9-7.9,8.8-8.7l8-1.1c0-4.6-1.8-6.8-5.5-6.8c-3.2,0-6.1,1.1-8.7,3.3v-4.4c2.6-1.7,5.7-2.5,9.1-2.5
		c6.3,0,9.4,3.3,9.4,10V109.7z M251.6,96.2l-6.5,0.9c-2,0.3-3.5,0.8-4.5,1.5c-1,0.7-1.5,2-1.5,3.8c0,1.3,0.5,2.4,1.4,3.2
		c0.9,0.8,2.2,1.2,3.7,1.2c2.1,0,3.9-0.7,5.3-2.2c1.4-1.5,2.1-3.4,2.1-5.7C251.6,98.8,251.6,96.2,251.6,96.2z"/>
	<path id="path3692" class="st1" d="M266.7,109.7h-4.3V70.1h4.3V109.7z"/>
</g>
<g id="g3708" class="st0">
	<path id="path3696" class="st1" d="M280.1,108.2V103c0.6,0.5,1.3,1,2.1,1.4s1.7,0.8,2.6,1.1c0.9,0.3,1.8,0.5,2.8,0.7
		c0.9,0.2,1.8,0.2,2.6,0.2c2.7,0,4.7-0.5,6.1-1.5c1.3-1,2-2.4,2-4.3c0-1-0.2-1.9-0.7-2.6c-0.4-0.8-1.1-1.4-1.8-2.1
		c-0.8-0.6-1.7-1.2-2.8-1.8c-1.1-0.6-2.2-1.2-3.5-1.8c-1.3-0.7-2.5-1.3-3.7-2c-1.1-0.7-2.1-1.4-3-2.3c-0.8-0.8-1.5-1.7-2-2.8
		c-0.5-1-0.7-2.3-0.7-3.6c0-1.7,0.4-3.2,1.1-4.5c0.8-1.3,1.7-2.3,3-3.1c1.2-0.8,2.6-1.4,4.2-1.8s3.2-0.6,4.8-0.6
		c3.7,0,6.4,0.4,8.1,1.3v4.9c-2.2-1.5-5.1-2.3-8.5-2.3c-1,0-1.9,0.1-2.9,0.3c-1,0.2-1.8,0.5-2.6,1c-0.8,0.5-1.4,1-1.8,1.8
		c-0.5,0.7-0.7,1.6-0.7,2.6c0,1,0.2,1.8,0.5,2.5c0.4,0.7,0.9,1.3,1.6,1.9c0.7,0.6,1.5,1.1,2.6,1.7c1,0.5,2.2,1.1,3.5,1.8
		c1.3,0.7,2.6,1.4,3.8,2.1s2.3,1.5,3.2,2.4c0.9,0.9,1.6,1.9,2.2,3c0.5,1.1,0.8,2.3,0.8,3.7c0,1.8-0.4,3.4-1.1,4.7
		c-0.7,1.3-1.7,2.3-2.9,3.1c-1.2,0.8-2.6,1.4-4.3,1.7c-1.6,0.4-3.3,0.5-5.1,0.5c-0.6,0-1.3,0-2.2-0.1c-0.9-0.1-1.8-0.2-2.7-0.4
		c-0.9-0.2-1.8-0.4-2.6-0.7C281.2,108.8,280.6,108.5,280.1,108.2z"/>
	<path id="path3698" class="st1" d="M319.6,109.5c-1,0.6-2.3,0.8-4,0.8c-4.7,0-7-2.6-7-7.8V86.6H304v-3.7h4.6v-6.5l4.3-1.4v7.9h6.7
		v3.7h-6.7v15.1c0,1.8,0.3,3.1,0.9,3.8c0.6,0.8,1.6,1.2,3,1.2c1.1,0,2-0.3,2.8-0.9V109.5z"/>
	<path id="path3700" class="st1" d="M346.2,109.7h-4.3v-4.2h-0.1c-1.8,3.2-4.5,4.9-8.3,4.9c-6.4,0-9.6-3.8-9.6-11.4v-16h4.3v15.3
		c0,5.7,2.2,8.5,6.5,8.5c2.1,0,3.8-0.8,5.2-2.3c1.3-1.5,2-3.6,2-6.1V82.9h4.3L346.2,109.7L346.2,109.7z"/>
	<path id="path3702" class="st1" d="M376.9,109.7h-4.3v-4.6h-0.1c-2,3.5-5.1,5.2-9.2,5.2c-3.4,0-6.1-1.2-8.1-3.6c-2-2.4-3-5.7-3-9.8
		c0-4.4,1.1-8,3.3-10.6c2.2-2.7,5.2-4,8.9-4c3.7,0,6.4,1.4,8,4.3h0.1V70.1h4.3V109.7z M372.6,97.6v-4c0-2.2-0.7-4-2.1-5.5
		s-3.2-2.3-5.4-2.3c-2.6,0-4.7,1-6.2,2.9s-2.3,4.6-2.3,8c0,3.1,0.7,5.5,2.2,7.3c1.4,1.8,3.4,2.7,5.8,2.7c2.4,0,4.3-0.9,5.8-2.6
		C371.9,102.4,372.6,100.2,372.6,97.6z"/>
	<path id="path3704" class="st1" d="M387,76.1c-0.8,0-1.4-0.3-2-0.8c-0.5-0.5-0.8-1.2-0.8-2s0.3-1.5,0.8-2c0.5-0.5,1.2-0.8,2-0.8
		c0.8,0,1.5,0.3,2,0.8c0.5,0.5,0.8,1.2,0.8,2c0,0.8-0.3,1.4-0.8,2C388.4,75.9,387.8,76.1,387,76.1z M389.1,109.7h-4.3V82.9h4.3
		V109.7z"/>
	<path id="path3706" class="st1" d="M408.2,110.4c-4,0-7.1-1.3-9.5-3.8c-2.4-2.5-3.5-5.8-3.5-10c0-4.5,1.2-8,3.7-10.5
		c2.5-2.5,5.8-3.8,10-3.8c4,0,7.1,1.2,9.3,3.7c2.2,2.5,3.4,5.9,3.4,10.2c0,4.3-1.2,7.7-3.6,10.3
		C415.5,109.1,412.2,110.4,408.2,110.4z M408.5,85.9c-2.8,0-4.9,0.9-6.5,2.8c-1.6,1.9-2.4,4.5-2.4,7.8c0,3.2,0.8,5.7,2.4,7.5
		c1.6,1.8,3.8,2.7,6.5,2.7c2.8,0,4.9-0.9,6.4-2.7c1.5-1.8,2.2-4.4,2.2-7.7c0-3.3-0.7-5.9-2.2-7.7C413.4,86.8,411.2,85.9,408.5,85.9z
		"/>
</g>
<path id="iconBg" inkscape:connector-curvature="0" class="st1" d="M105.8,59.9v53.4l-46.7-6.9l46.7,15.7l15.6-6.5V66.4L105.8,59.9z
	 M75.2,89.8L89.5,104l8.6-3.6V72.6L89.5,69L75.2,83.1l-8.6-6.5L63,77.8v17.3l3.5,1.2L75.2,89.8z M89.5,79.1v14.8l-9.8-7.4L89.5,79.1
	z M66.6,81.3l5.2,5.2l-5.2,5.2V81.3z"/>
</svg>
