<?xml version="1.0" encoding="utf-8"?>
<!-- Generator: Adobe Illustrator 23.0.4, SVG Export Plug-In . SVG Version: 6.00 Build 0)  -->
<svg version="1.1"
	 id="svg2" inkscape:version="0.47 r22583" sodipodi:docname="VMW_10Q1_LGO_GUIDE_USLET_EN_R1.pdf" xmlns:cc="http://creativecommons.org/ns#" xmlns:dc="http://purl.org/dc/elements/1.1/" xmlns:inkscape="http://www.inkscape.org/namespaces/inkscape" xmlns:rdf="http://www.w3.org/1999/02/22-rdf-syntax-ns#" xmlns:sodipodi="http://sodipodi.sourceforge.net/DTD/sodipodi-0.dtd" xmlns:svg="http://www.w3.org/2000/svg"
	 xmlns="http://www.w3.org/2000/svg" xmlns:xlink="http://www.w3.org/1999/xlink" x="0px" y="0px" viewBox="0 0 485 182"
	 style="enable-background:new 0 0 485 182;" xml:space="preserve">
<style type="text/css">
	.st0{clip-path:url(#SVGID_2_);}
	.st1{fill:#696566;}
</style>
<defs>
	
	
		<inkscape:perspective  id="perspective10" inkscape:persp3d-origin="0.5 : 0.33333333 : 1" inkscape:vp_x="0 : 0.5 : 1" inkscape:vp_y="0 : 1000 : 0" inkscape:vp_z="1 : 0.5 : 1" sodipodi:type="inkscape:persp3d">
		</inkscape:perspective>
</defs>
<sodipodi:namedview  bordercolor="#666666" borderopacity="1" gridtolerance="10" guidetolerance="10" id="namedview4" inkscape:current-layer="g12" inkscape:cx="6.645" inkscape:cy="29.957033" inkscape:pageopacity="0" inkscape:pageshadow="2" inkscape:window-height="514" inkscape:window-maximized="1" inkscape:window-width="1024" inkscape:window-x="-8" inkscape:window-y="-8" inkscape:zoom="0.72880595" objecttolerance="10" pagecolor="#ffffff" showgrid="false">
	</sodipodi:namedview>
<g id="g12" transform="matrix(1.25, 0, 0, -1.25, -375.855, 370.03)" inkscape:groupmode="layer" inkscape:label="VMW_10Q1_LGO_GUIDE_USLET_EN_R1">
	<g id="g164">
		<g>
			<g>
				<g>
					<defs>
						<rect id="SVGID_1_" x="-195.5" y="-414.6" width="1195.3" height="1546.9"/>
					</defs>
					<clipPath id="SVGID_2_">
						<use xlink:href="#SVGID_1_"  style="overflow:visible;"/>
					</clipPath>
					<g id="g166" class="st0">
						<g id="g172" transform="translate(388.349, 250.856)">
							<path id="path174" class="st1" d="M86.9-45.8L74.6-11.4c-0.2,0.5-0.4,1.1-0.4,1.7c0,1.5,1.3,2.9,3.1,2.9c1.6,0,2.6-1,3.1-2.5
								L90.5-39l10.3,29.7c0.5,1.4,1.4,2.4,3,2.4h0.3c1.7,0,2.7-1,3.1-2.4L117.5-39l10.4,29.7c0.4,1.3,1.2,2.4,2.9,2.4
								c1.7,0,3-1.3,3-2.8c0-0.5-0.2-1.2-0.4-1.7l-12.4-34.4c-0.6-1.8-1.9-2.7-3.3-2.7h-0.2c-1.6,0-2.8,0.9-3.3,2.7L104-16.6
								L93.8-45.8c-0.5-1.8-1.7-2.7-3.3-2.7h-0.2C88.8-48.5,87.6-47.5,86.9-45.8"/>
						</g>
						<g id="g176" transform="translate(436.249, 269.985)">
							<path id="path178" class="st1" d="M128.9-29c0,1.7,1.3,3.1,3,3.1c1.7,0,3.1-1.3,3.1-3.1v-7c3,6.8,9.6,10,14,10
								c1.8,0,3-1.3,3-3.1c0-1.7-1.1-2.8-2.7-3.1C141.4-33.1,135-39,135-50.7v-13.8c0-1.7-1.3-3.1-3-3.1c-1.7,0-3.1,1.3-3.1,3.1
								L128.9-29L128.9-29z"/>
						</g>
						<g id="g180" transform="translate(458.898, 249.221)">
							<path id="path182" class="st1" d="M148.8-47.2c-11,0-19.9,8.5-19.9,21v0.2c0,11.6,8.1,20.9,19.1,20.9
								c11.8,0,18.5-9.7,18.5-20.4c0-1.6-1.3-2.8-2.8-2.8h-28.8c0.8-8.7,6.9-13.6,14-13.6c4.9,0,8.5,1.9,11.5,4.7
								c0.5,0.4,1,0.7,1.7,0.7c1.5,0,2.6-1.2,2.6-2.6c0-0.7-0.3-1.4-0.9-1.9C160-44.8,155.5-47.2,148.8-47.2 M160.6-23.9
								c-0.6,7.3-4.8,13.7-12.7,13.7c-6.9,0-12.2-5.8-12.9-13.7H160.6z"/>
						</g>
						<g id="g184" transform="translate(413.36, 255.941)">
							<path id="path186" class="st1" d="M108.8-41.3v0.2c0,8.5,7.1,13.1,17.3,13.1c5.2,0,8.9-0.7,12.5-1.7v1.4
								c0,7.3-4.5,11.1-12.1,11.1c-4.1,0-6.5-0.5-9.4-1.9c-0.4-0.2-0.8-0.2-1.1-0.2c-1.4,0-2.7,1.2-2.7,2.6c0,1.3,0.5,2,1.7,2.5
								c4,1.7,7,2.3,12.2,2.3c5.7,0,10.1-1.5,13.1-4.5c2.8-2.7,4.2-6.7,4.2-11.8v-22.4c0-1.7-1.3-3-2.9-3c-1.7,0-2.9,1.3-2.9,2.8
								v3.9c-2.8-3.7-7.5-7-14.7-7C116.5-53.9,108.8-49.6,108.8-41.3 M138.7-38.2v3.9c-3,0.9-7,1.7-11.9,1.7
								c-7.6,0-11.8-3.3-11.8-8.4v-0.2c0-5.1,4.7-8.1,10.2-8.1C132.6-49.1,138.7-44.6,138.7-38.2"/>
						</g>
						<g id="g188" transform="translate(329.779, 270.223)">
							<path id="path190" class="st1" d="M35.6-28.8c-1.3,2.9-4.6,4.2-7.7,2.9c-3.1-1.4-4.2-4.8-2.8-7.7l12.9-28
								c2-4.4,4.2-6.7,8.2-6.7c4.3,0,6.1,2.5,8.2,6.7c0,0,11.2,24.5,11.3,24.7c0.1,0.3,0.5,1,1.6,1c1,0,1.8-0.8,1.8-1.8v-23.9
								c0-3.7,2-6.7,6-6.7c3.9,0,6.1,3,6.1,6.7V-42c0,3.8,2.7,6.2,6.4,6.2s6.1-2.5,6.1-6.2v-19.6c0-3.7,2.1-6.7,6-6.7
								c3.9,0,6.1,3,6.1,6.7V-42c0,3.8,2.7,6.2,6.4,6.2c3.7,0,6.1-2.5,6.1-6.2v-19.6c0-3.7,2-6.7,6-6.7c3.9,0,6.1,3,6.1,6.7v22.3
								c0,8.2-6.6,13.9-14.5,13.9c-7.9,0-12.9-5.5-12.9-5.5c-2.6,3.4-6.3,5.5-12.4,5.5c-6.5,0-12.2-5.5-12.2-5.5
								c-2.6,3.4-7.1,5.5-10.8,5.5c-5.7,0-10.3-2.5-13.1-8.9l-8.2-19.4L35.6-28.8z"/>
						</g>
						<g id="g192" transform="translate(468.609, 268.931)">
							<path id="path194" class="st1" d="M157.3-29.9L157.3-29.9c0,2.8,2.2,5.1,5,5.1c2.8,0,5-2.3,5-5v0c0-2.7-2.2-5.1-5-5.1
								C159.5-34.9,157.3-32.7,157.3-29.9 M166.3-29.9L166.3-29.9c0,2.3-1.7,4.1-4.1,4.1c-2.3,0-4.1-1.9-4.1-4.1v0
								c0-2.2,1.7-4.1,4.1-4.1C164.6-34,166.3-32.1,166.3-29.9"/>
						</g>
						<g id="g196" transform="translate(470.257, 270.007)">
							<path id="path198" class="st1" d="M158.7-29c0,0.3,0.2,0.5,0.5,0.5h1.7c0.6,0,1.1-0.2,1.4-0.5c0.3-0.3,0.4-0.7,0.4-1.1v0
								c0-0.8-0.4-1.2-1-1.5l0.7-0.9c0.1-0.1,0.2-0.2,0.2-0.4c0-0.3-0.3-0.5-0.5-0.5c-0.2,0-0.4,0.1-0.5,0.3l-1,1.3h-0.9v-1.1
								c0-0.3-0.2-0.5-0.5-0.5c-0.3,0-0.5,0.2-0.5,0.5L158.7-29L158.7-29z M160.9-30.8c0.5,0,0.8,0.3,0.8,0.7v0
								c0,0.5-0.3,0.7-0.8,0.7h-1.1v-1.4L160.9-30.8L160.9-30.8z"/>
						</g>
					</g>
				</g>
			</g>
		</g>
	</g>
</g>
</svg>
